<svg xmlns="http://www.w3.org/2000/svg" width="128" height="128" fill="none" viewBox="0 0 128 128">
    <path fill="url(#a)" d="M64 5A55 55 0 0 0 9 60v8a55 55 0 0 0 110 0v-8A55 55 0 0 0 64 5"/>
    <path fill="url(#b)" d="M64 115c30.376 0 55-24.624 55-55S94.376 5 64 5 9 29.624 9 60s24.624 55 55 55"/>
    <path fill="url(#c)" d="M64 112.614c29.058 0 52.614-23.556 52.614-52.614S93.058 7.386 64 7.386 11.386 30.942 11.386 60 34.942 112.614 64 112.614"/>
    <path fill="#1a58a8" fill-opacity=".973" d="M64 23.81a40.19 40.19 0 1 0 0 80.379 40.19 40.19 0 0 0 0-80.378M53.322 44.243a6.08 6.08 0 0 1 4.094.723L84.758 60.75a6.077 6.077 0 0 1 0 10.523L57.416 87.06a6.077 6.077 0 0 1-9.113-5.262v-31.57a6.076 6.076 0 0 1 5.02-5.985"/>
    <mask id="d" width="81" height="81" x="24" y="20" maskUnits="userSpaceOnUse" style="mask-type:luminance">
        <path fill="#fff" d="M24 20h80.38v80.38H24z"/>
    </mask>
    <g mask="url(#d)">
        <path fill="#fff" d="M64.19 100.38c22.196 0 40.19-17.994 40.19-40.19S86.386 20 64.19 20 24 37.994 24 60.19s17.994 40.19 40.19 40.19"/>
        <path fill="#fff" d="M64.19 21.386c-20.735 0-37.67 16.258-38.751 36.725.008 21.81 17.356 39.497 38.752 39.497 21.394 0 38.742-17.687 38.751-39.497-1.083-20.467-18.015-36.725-38.751-36.725"/>
        <path fill="#f2f2f2" d="M64.19 98.994c-21.455 0-38.804-17.35-38.804-38.804 0-.719 0-1.386.052-2.053 1.056 20.459 18.016 36.7 38.752 36.7 20.563 0 37.418-16.025 38.752-36.258v-.442c.052.667.052 1.334.052 2.053 0 21.455-17.35 38.804-38.804 38.804m0-73.45c-18.753 0-33.954 15.2-33.954 33.953 0 10.48 4.747 19.844 12.205 26.072a31.78 31.78 0 0 1-10.126-23.3c0-17.6 14.274-31.875 31.875-31.875s31.875 14.274 31.875 31.875a31.78 31.78 0 0 1-10.126 23.3c7.458-6.228 12.205-15.591 12.205-26.072 0-18.752-15.202-33.953-33.954-33.953"/>
        <path fill="#1369bf" d="M64.19 90.68c16.84 0 30.49-13.651 30.49-30.49S81.028 29.701 64.19 29.701s-30.489 13.65-30.489 30.49c0 16.838 13.65 30.488 30.49 30.488"/>
        <path fill="#198cff" d="M64.19 89.293c16.073 0 29.103-13.03 29.103-29.103S80.263 31.087 64.19 31.087 35.087 44.117 35.087 60.19s13.03 29.103 29.103 29.103"/>
        <path fill="#1369bf" d="M64.19 84.443c13.395 0 24.254-10.859 24.254-24.253S77.584 35.938 64.19 35.938c-13.393 0-24.251 10.858-24.251 24.252S50.796 84.443 64.19 84.443"/>
        <path fill="#f2f2f2" d="M64.19 83.057c12.63 0 22.867-10.238 22.867-22.867S76.82 37.323 64.19 37.323 41.323 47.561 41.323 60.19 51.561 83.057 64.19 83.057"/>
        <path fill="#fff" d="M64.19 71.97c6.506 0 11.78-5.274 11.78-11.78s-5.274-11.78-11.78-11.78-11.78 5.274-11.78 11.78 5.274 11.78 11.78 11.78"/>
        <path fill="#bfbfbf" d="M64.19 70.584c5.74 0 10.394-4.654 10.394-10.394S69.93 49.796 64.19 49.796 53.796 54.449 53.796 60.19c0 5.74 4.653 10.394 10.394 10.394"/>
        <path fill="#e5e5e5" d="M64.19 69.198a9.008 9.008 0 1 0 0-18.016 9.008 9.008 0 0 0 0 18.016"/>
        <path fill="#fff" d="M60.379 78.206a3.126 3.126 0 0 1-3.118-3.118V59.437c0-.735.258-1.446.727-2.01l.919-1.083a.364.364 0 0 0 0-.45l-.92-1.083a3.15 3.15 0 0 1-.726-2.01v-7.509a3.127 3.127 0 0 1 3.118-3.118h7.62a3.127 3.127 0 0 1 3.119 3.118v15.652c0 .734-.257 1.445-.727 2.01l-.918 1.082a.364.364 0 0 0 0 .45l.918 1.083c.47.564.727 1.275.727 2.01v7.509A3.127 3.127 0 0 1 68 78.206z"/>
        <path fill="#061a2e" d="M60.38 43.56H68a1.74 1.74 0 0 1 1.732 1.732v15.651a1.76 1.76 0 0 1-.407 1.118l-.91 1.083a1.73 1.73 0 0 0 0 2.234l.91 1.083c.262.314.406.709.407 1.117v7.51A1.74 1.74 0 0 1 68 76.82h-7.62a1.74 1.74 0 0 1-1.732-1.732V59.436a1.75 1.75 0 0 1 .407-1.117l.91-1.083a1.73 1.73 0 0 0 0-2.234l-.91-1.083a1.76 1.76 0 0 1-.407-1.117v-7.51a1.74 1.74 0 0 1 1.731-1.732"/>
        <path fill="#0a2b4c" d="M60.38 75.434a.347.347 0 0 1-.348-.346V59.436a.34.34 0 0 1 .078-.225l.918-1.091a3.12 3.12 0 0 0 0-4.002l-.918-1.091a.34.34 0 0 1-.078-.226v-7.51a.347.347 0 0 1 .347-.346H68a.347.347 0 0 1 .346.347v15.651a.34.34 0 0 1-.077.226l-.919 1.09a3.12 3.12 0 0 0 0 4.003l.92 1.091a.34.34 0 0 1 .077.225v7.51a.345.345 0 0 1-.347.346z"/>
    </g>
    <defs>
        <linearGradient id="a" x1="9" x2="119" y1="64" y2="64" gradientUnits="userSpaceOnUse">
            <stop stop-color="#1a59a7" stop-opacity=".973"/>
            <stop offset=".301" stop-color="#1a59a7" stop-opacity=".973"/>
            <stop offset=".502" stop-color="#3b87e2" stop-opacity=".965"/>
            <stop offset=".751" stop-color="#1a59a7" stop-opacity=".973"/>
            <stop offset="1" stop-color="#1a59a7" stop-opacity=".973"/>
        </linearGradient>
        <linearGradient id="b" x1="25.346" x2="101.579" y1="22.674" y2="98.907" gradientUnits="userSpaceOnUse">
            <stop stop-color="#68a8f5"/>
            <stop offset="1" stop-color="#70d2f4"/>
        </linearGradient>
        <linearGradient id="c" x1="27.023" x2="99.949" y1="24.293" y2="97.22" gradientUnits="userSpaceOnUse">
            <stop stop-color="#4b8bcb"/>
            <stop offset="1" stop-color="#198cff"/>
        </linearGradient>
    </defs>
</svg>
