<svg xmlns="http://www.w3.org/2000/svg" xmlns:xlink="http://www.w3.org/1999/xlink" xml:space="preserve" width="128" height="128" viewBox="0 0 128 128">
    <defs>
        <linearGradient id="b">
            <stop offset="0" style="stop-color:#e6e6e6;stop-opacity:1"/>
            <stop offset="1" style="stop-color:#fff;stop-opacity:1"/>
        </linearGradient>
        <linearGradient id="a">
            <stop offset="0" style="stop-color:#999;stop-opacity:1"/>
            <stop offset=".05" style="stop-color:#b3b3b3;stop-opacity:1"/>
            <stop offset=".1" style="stop-color:#999;stop-opacity:1"/>
            <stop offset=".9" style="stop-color:#999;stop-opacity:1"/>
            <stop offset=".95" style="stop-color:#b3b3b3;stop-opacity:1"/>
            <stop offset="1" style="stop-color:#999;stop-opacity:1"/>
        </linearGradient>
        <linearGradient xlink:href="#a" id="c" x1="11.5" x2="116.5" y1="120.5" y2="120.5" gradientUnits="userSpaceOnUse"/>
        <linearGradient xlink:href="#b" id="d" x1="64" x2="64" y1="112.5" y2="7.5" gradientUnits="userSpaceOnUse"/>
    </defs>
    <rect width="105" height="105" x="11.5" y="15.5" rx="13" ry="13" style="fill:url(#c);fill-opacity:1"/>
    <rect width="105" height="105" x="11.5" y="7.5" rx="13" ry="13" style="fill:url(#d);fill-opacity:1"/>
    <rect width="100.755" height="100.755" x="13.622" y="9.622" rx="12" ry="12" style="fill:#e6e6e6;fill-opacity:1;stroke-width:.959575"/>
    <ellipse cx="54.072" cy="84.769" rx="23.24" ry="22.596" style="fill:#999;fill-opacity:1;stroke-width:.743767"/>
    <ellipse cx="54.072" cy="78.769" rx="23.24" ry="22.596" style="fill:#23329c;fill-opacity:1;stroke-width:.743767"/>
    <path d="M38.743 36.383h42.964v15.075H38.743z" style="fill:#999;fill-opacity:1;stroke-width:.278216"/>
    <ellipse cx="54.072" cy="72.769" rx="23.24" ry="22.596" style="fill:#3249e4;fill-opacity:1;stroke-width:.743767"/>
    <path d="M81.707 51.458h15.46v56.159h-15.46z" style="fill:#999;fill-opacity:1;stroke-width:.278216"/>
    <path d="M81.707 45.458h15.46v56.159h-15.46z" style="fill:#bd8119;fill-opacity:1;stroke-width:.278216"/>
    <path d="M81.707 39.458h15.46v56.159h-15.46z" style="fill:#ffaf21;fill-opacity:1;stroke-width:.278216"/>
    <path d="M38.743 30.383h42.964v15.075H38.743z" style="fill:#b0270d;fill-opacity:1;stroke-width:.278216"/>
    <path d="M38.743 24.383h42.964v15.075H38.743z" style="fill:#e13212;fill-opacity:1;stroke-width:.278216"/>
</svg>
