<svg xmlns="http://www.w3.org/2000/svg" xmlns:xlink="http://www.w3.org/1999/xlink" xml:space="preserve" width="128" height="128" viewBox="0 0 128 128">
    <defs>
        <linearGradient id="b">
            <stop offset="0" style="stop-color:#edeff1;stop-opacity:1"/>
            <stop offset="1" style="stop-color:#fff;stop-opacity:1"/>
        </linearGradient>
        <linearGradient id="a">
            <stop offset="0" style="stop-color:#b1bdc4;stop-opacity:1"/>
            <stop offset=".05" style="stop-color:#c5cdd1;stop-opacity:1"/>
            <stop offset=".1" style="stop-color:#b1bdc4;stop-opacity:1"/>
            <stop offset=".9" style="stop-color:#b1bdc4;stop-opacity:1"/>
            <stop offset=".95" style="stop-color:#c5cdd1;stop-opacity:1"/>
            <stop offset="1" style="stop-color:#b1bdc4;stop-opacity:1"/>
        </linearGradient>
        <linearGradient xlink:href="#a" id="c" x1="11.5" x2="116.5" y1="120.5" y2="120.5" gradientUnits="userSpaceOnUse"/>
        <linearGradient xlink:href="#b" id="d" x1="64" x2="64" y1="112.5" y2="7.5" gradientUnits="userSpaceOnUse"/>
    </defs>
    <rect width="105" height="105" x="11.5" y="15.5" rx="13" ry="13" style="fill:url(#c);fill-opacity:1"/>
    <rect width="105" height="105" x="11.5" y="7.5" rx="13" ry="13" style="fill:url(#d);fill-opacity:1"/>
    <rect width="100.755" height="100.755" x="13.622" y="9.622" rx="12" ry="12" style="fill:#edeff1;fill-opacity:1;stroke-width:.959575"/>
    <rect width="53.122" height="5.355" x="37.459" y="19.989" rx="0" ry="0" style="fill:#655561;fill-opacity:1;stroke-width:2.09634"/>
    <path d="M90.58 19.989h5.355v5.355H90.58zm-58.477 0h5.355v5.355h-5.355z" style="fill:#b1bdc4;fill-opacity:1;stroke-width:2.22571"/>
    <path d="M32.103 25.344h5.355v5.355h-5.355z" style="fill:#655561;fill-opacity:1;stroke-width:2.22571"/>
    <path d="M26.748 25.344h5.355v5.355h-5.355z" style="fill:#b1bdc4;fill-opacity:1;stroke-width:2.22571"/>
    <path d="M90.58 25.344h5.355v5.355H90.58z" style="fill:#655561;fill-opacity:1;stroke-width:2.22571"/>
    <path d="M95.936 25.344h5.355v5.355h-5.355z" style="fill:#b1bdc4;fill-opacity:1;stroke-width:2.22571"/>
    <path d="M95.936 30.699h5.355v58.354h-5.355z" style="fill:#655561;fill-opacity:1;stroke-width:7.34713"/>
    <path d="M95.936 89.054h5.355v5.355h-5.355z" style="fill:#b1bdc4;fill-opacity:1;stroke-width:2.22571"/>
    <path d="M90.58 89.054h5.355v5.355H90.58z" style="fill:#655561;fill-opacity:1;stroke-width:2.22571"/>
    <path d="M90.58 94.409h5.355v5.355H90.58z" style="fill:#b1bdc4;fill-opacity:1;stroke-width:2.22571"/>
    <path d="M37.42 94.409h53.161v5.355H37.42z" style="fill:#655561;fill-opacity:1;stroke-width:7.01257"/>
    <path d="M32.064 94.409h5.355v5.355h-5.355z" style="fill:#b1bdc4;fill-opacity:1;stroke-width:2.22571"/>
    <path d="M32.064 89.054h5.355v5.355h-5.355z" style="fill:#655561;fill-opacity:1;stroke-width:2.22571"/>
    <path d="M26.709 89.054h5.355v5.355h-5.355z" style="fill:#b1bdc4;fill-opacity:1;stroke-width:2.22571"/>
    <path d="M26.709 30.699h5.355v58.354h-5.355z" style="fill:#655561;fill-opacity:1;stroke-width:7.34713"/>
    <path d="M32.064 78.533v10.521h5.356v5.356h53.16v-5.356h5.356V78.626H90.58v5.356H37.42v-5.45z" style="fill:#7d929e;fill-opacity:1;stroke-width:9.785"/>
    <path d="M37.46 25.344v5.355h-5.356v47.833h5.356v5.449h53.12v-5.356h5.355V30.7H90.58v-5.355z" style="fill:#f9f9f9;stroke-width:2.18312"/>
    <g style="fill:#c75a68;fill-opacity:1">
        <path d="M-85.36 63.585h4.855v2.453h-4.855zm-14.593 0h4.855v2.453h-4.855z" style="fill:#c75a68;fill-opacity:1;stroke-width:1.43434" transform="translate(260.97 -70.965)scale(2.18312)"/>
    </g>
    <g style="fill:#7d929e;fill-opacity:1">
        <path d="M-85.371 51.446h2.453v9.714h-2.453zm-12.159 0h2.453v9.714h-2.453z" style="fill:#7d929e;fill-opacity:1;stroke-width:2.0288" transform="translate(260.97 -70.965)scale(2.18312)"/>
    </g>
    <path d="M95.936 94.409h5.355v5.355h-5.355z" style="fill:#d0d8dc;fill-opacity:1;stroke-width:2.22571"/>
    <path d="M37.42 99.764h53.161v5.355H37.42z" style="fill:#d0d8dc;fill-opacity:1;stroke-width:7.01257"/>
    <path d="M90.58 99.764h5.355v5.355H90.58zm-63.871-5.355h5.355v5.355h-5.355zm5.355 5.355h5.355v5.355h-5.355z" style="fill:#d0d8dc;fill-opacity:1;stroke-width:2.22571"/>
    <path d="M37.42 105.119h53.161v5.355H37.42z" style="fill:#dce2e5;fill-opacity:1;stroke-width:7.01257"/>
    <path d="M95.936 19.989h5.355v5.355h-5.355zm-69.188 0h5.355v5.355h-5.355z" style="fill:#d0d8dc;fill-opacity:1;stroke-width:2.22571"/>
    <path d="M101.291 30.699h5.355v58.354h-5.355zm-79.937 0h5.355v58.354h-5.355z" style="fill:#dce2e5;fill-opacity:1;stroke-width:7.34713"/>
    <path d="M101.291 89.054h5.355v5.355h-5.355zm-79.937 0h5.355v5.355h-5.355zm79.937-63.71h5.355v5.355h-5.355zm-79.937 0h5.355v5.355h-5.355z" style="fill:#dce2e5;fill-opacity:1;stroke-width:2.22571"/>
    <rect width="63.832" height="5.355" x="32.103" y="14.634" rx="0" ry="0" style="fill:#dce2e5;fill-opacity:1;stroke-width:2.29798"/>
</svg>
