<svg xmlns="http://www.w3.org/2000/svg" xmlns:xlink="http://www.w3.org/1999/xlink" xml:space="preserve" width="128" height="128" viewBox="0 0 128 128">
    <defs>
        <linearGradient id="c">
            <stop offset="0" style="stop-color:#21d789;stop-opacity:1"/>
            <stop offset="1" style="stop-color:#5d6fe8;stop-opacity:1"/>
        </linearGradient>
        <linearGradient id="b">
            <stop offset="0" style="stop-color:#e6e6e6;stop-opacity:.3461135"/>
            <stop offset="1" style="stop-color:#fff;stop-opacity:.85306722"/>
        </linearGradient>
        <linearGradient id="a">
            <stop offset="0" style="stop-color:#397d86;stop-opacity:1"/>
            <stop offset=".05" style="stop-color:#3b99a9;stop-opacity:1"/>
            <stop offset=".1" style="stop-color:#2f7683;stop-opacity:1"/>
            <stop offset=".9" style="stop-color:#3b5395;stop-opacity:1"/>
            <stop offset=".95" style="stop-color:#4d71c4;stop-opacity:1"/>
            <stop offset="1" style="stop-color:#3f5994;stop-opacity:1"/>
        </linearGradient>
        <linearGradient xlink:href="#a" id="e" x1="11.5" x2="116.5" y1="120.5" y2="120.5" gradientUnits="userSpaceOnUse"/>
        <linearGradient xlink:href="#b" id="m" x1="64" x2="64" y1="112.5" y2="7.5" gradientUnits="userSpaceOnUse"/>
        <linearGradient xlink:href="#c" id="l" x1="12.773" x2="108.029" y1="20.475" y2="115.731" gradientUnits="userSpaceOnUse"/>
        <linearGradient xlink:href="#a" id="d" x1="11.5" x2="116.5" y1="120.5" y2="120.5" gradientTransform="matrix(1 0 0 1.0762 0 -9.181)" gradientUnits="userSpaceOnUse"/>
        <clipPath id="f" clipPathUnits="userSpaceOnUse">
            <rect width="105" height="113" x="11.5" y="7.5" rx="13" ry="13.99" style="fill:url(#d);fill-opacity:1;stroke-width:1.0374"/>
        </clipPath>
        <filter id="j" width="1.686" height="1.686" x="-.343" y="-.343" style="color-interpolation-filters:sRGB">
            <feGaussianBlur result="blur" stdDeviation="15 15"/>
            <feColorMatrix result="colormatrix" values="1 0 0 0 0 0 1 0 0 0 0 0 1 0 0 0 0 0 50 0"/>
            <feComposite in="colormatrix" in2="SourceGraphic" operator="in"/>
        </filter>
    </defs>
    <rect width="105" height="105" x="11.5" y="15.5" rx="13" ry="13" style="fill:url(#e);fill-opacity:1"/>
    <g clip-path="url(#f)" style="filter:url(#j)">
        <rect width="105" height="105" x="11.5" y="7.5" rx="13" ry="13" style="fill:url(#l);fill-opacity:1"/>
        <circle cx="86.329" cy="37.671" r="28.048" style="fill:#f646ee;fill-opacity:1;stroke:none;stroke-width:2.72942;stroke-linecap:round"/>
    </g>
    <path d="M24.5 7.5c-7.202 0-13 5.798-13 13v79c0 7.202 5.798 13 13 13h79c7.202 0 13-5.798 13-13v-79c0-7.202-5.798-13-13-13zm1.123 2.123h76.754c6.648 0 12 5.352 12 12v76.754c0 6.648-5.352 12-12 12H25.623c-6.648 0-12-5.352-12-12V21.623c0-6.648 5.352-12 12-12" style="fill:url(#m);fill-opacity:1"/>
    <path d="m70.353 21.759-7.67 6.366-36.74-5.82v34.902l14.4 11.474v.005l-5.167-4.118-8.569 25.768 51.233 8.223-18.194-14.495h.002l18.193 14.495 4.01-14.495h6.493V78.65l4.248 1.461 5.256-46.417zm27.495 11.936L93.696 70.4l9.047-5.264z" style="fill:#000;fill-opacity:1;stroke-width:.8"/>
    <path fill="#fff" d="M45.216 42.304h7.752c6.24 0 10.56 4.288 10.56 9.88v.056c0 5.6-4.32 9.936-10.56 9.936h-7.752zm4.368 3.944v12h3.384a5.664 5.664 0 0 0 5.984-5.936v-.072a5.704 5.704 0 0 0-5.984-5.992zm14.72 6.048v-.056a10.2 10.2 0 0 1 10.4-10.28 10.9 10.9 0 0 1 7.808 2.728l-2.752 3.32a7.34 7.34 0 0 0-5.192-2.016c-3.2 0-5.712 2.816-5.712 6.192v.056c0 3.632 2.504 6.304 6.024 6.304a7 7 0 0 0 4.128-1.184v-2.848h-4.4v-3.776h8.632v8.632a12.87 12.87 0 0 1-8.488 3.152c-6.192 0-10.448-4.36-10.448-10.224M44.76 75.056h18v3h-18z"/>
</svg>
