<svg xmlns="http://www.w3.org/2000/svg" xmlns:xlink="http://www.w3.org/1999/xlink" xml:space="preserve" width="128" height="128" viewBox="0 0 128 128">
    <defs>
        <linearGradient id="c">
            <stop offset="0" style="stop-color:#07c3f2;stop-opacity:1"/>
            <stop offset="1" style="stop-color:#087cfa;stop-opacity:1"/>
        </linearGradient>
        <linearGradient id="b">
            <stop offset="0" style="stop-color:#e6e6e6;stop-opacity:.35432118"/>
            <stop offset="1" style="stop-color:#fff;stop-opacity:.85164613"/>
        </linearGradient>
        <linearGradient id="a">
            <stop offset="0" style="stop-color:#0c6698;stop-opacity:1"/>
            <stop offset=".05" style="stop-color:#0a7abb;stop-opacity:1"/>
            <stop offset=".1" style="stop-color:#045d93;stop-opacity:1"/>
            <stop offset=".9" style="stop-color:#064c97;stop-opacity:1"/>
            <stop offset=".95" style="stop-color:#0966c7;stop-opacity:1"/>
            <stop offset="1" style="stop-color:#0e569f;stop-opacity:1"/>
        </linearGradient>
        <linearGradient xlink:href="#a" id="e" x1="11.5" x2="116.5" y1="120.5" y2="120.5" gradientUnits="userSpaceOnUse"/>
        <linearGradient xlink:href="#b" id="l" x1="64" x2="64" y1="112.5" y2="7.5" gradientUnits="userSpaceOnUse"/>
        <linearGradient xlink:href="#c" id="j" x1="18.611" x2="94.016" y1="26.313" y2="101.718" gradientUnits="userSpaceOnUse"/>
        <linearGradient xlink:href="#a" id="d" x1="11.5" x2="116.5" y1="120.5" y2="120.5" gradientTransform="matrix(1 0 0 1.0762 0 -9.181)" gradientUnits="userSpaceOnUse"/>
        <clipPath id="f" clipPathUnits="userSpaceOnUse">
            <rect width="105" height="113" x="11.5" y="7.5" rx="13" ry="13.99" style="fill:url(#d);fill-opacity:1;stroke-width:1.0374"/>
        </clipPath>
        <filter id="i" width="1.686" height="1.686" x="-.343" y="-.343" style="color-interpolation-filters:sRGB">
            <feGaussianBlur result="blur" stdDeviation="15 15"/>
            <feColorMatrix result="colormatrix" values="1 0 0 0 0 0 1 0 0 0 0 0 1 0 0 0 0 0 50 0"/>
            <feComposite in="colormatrix" in2="SourceGraphic" operator="in"/>
        </filter>
    </defs>
    <rect width="105" height="105" x="11.5" y="15.5" rx="13" ry="13" style="fill:url(#e);fill-opacity:1"/>
    <g clip-path="url(#f)" style="filter:url(#i)">
        <rect width="105" height="105" x="11.5" y="7.5" rx="13" ry="13" style="fill:url(#j);fill-opacity:1"/>
        <circle cx="86.329" cy="37.671" r="28.048" style="fill:#fcf84a;fill-opacity:1;stroke:none;stroke-width:2.72942;stroke-linecap:round"/>
    </g>
    <path d="M24.5 7.5c-7.202 0-13 5.798-13 13v79c0 7.202 5.798 13 13 13h79c7.202 0 13-5.798 13-13v-79c0-7.202-5.798-13-13-13zm1.123 2.123h76.754c6.648 0 12 5.352 12 12v76.754c0 6.648-5.352 12-12 12H25.623c-6.648 0-12-5.352-12-12V21.623c0-6.648 5.352-12 12-12" style="fill:url(#l);fill-opacity:1"/>
    <path d="m219.303 12-3.496 3.36-4.424-1.7-14 7.55-15.281-9.08-23.93 9.93 12.941 76.7 53.078 9.24 3.356-17.053 1.596-.947h7.029v-4.17l18-10.68-10.5-19.69 10.5-10.95-7.71-19.06-.005.005-4.674-11.545z" style="fill:#000;fill-opacity:1" transform="matrix(.8 0 0 .8 -100.938 14)"/>
    <path fill="#fff" d="M45.984 76.928h18v3h-18zm17.04-32.952-2.68 10.504-3.064-10.504h-3.048L51.16 54.48l-2.672-10.504h-4.2l5.144 18.008h3.376l2.944-10.424 2.912 10.424h3.416l5.136-18.008zm4.944 15.44 2.344-2.808a8.27 8.27 0 0 0 5.392 2.192c1.6 0 2.608-.64 2.608-1.704v-.048c0-1.008-.624-1.52-3.64-2.296-3.64-.928-5.984-1.936-5.984-5.52v-.056c0-3.272 2.632-5.44 6.32-5.44a10.4 10.4 0 0 1 6.704 2.296l-2.064 2.992a8.43 8.43 0 0 0-4.696-1.776c-1.52 0-2.32.696-2.32 1.6v.056c0 1.184.8 1.6 3.896 2.4 3.664.96 5.728 2.272 5.728 5.424v.048c0 3.584-2.736 5.6-6.632 5.6a11.47 11.47 0 0 1-7.656-2.888"/>
</svg>
