<svg xmlns="http://www.w3.org/2000/svg" xmlns:xlink="http://www.w3.org/1999/xlink" xml:space="preserve" width="128" height="128" viewBox="0 0 128 128">
    <defs>
        <linearGradient id="b">
            <stop offset="0" style="stop-color:#fff;stop-opacity:1"/>
            <stop offset="1" style="stop-color:#ededed;stop-opacity:1"/>
        </linearGradient>
        <linearGradient id="a">
            <stop offset="0" style="stop-color:#a5a5a5;stop-opacity:1"/>
            <stop offset=".4" style="stop-color:#a5a5a5;stop-opacity:1"/>
            <stop offset=".5" style="stop-color:#c2c2c2;stop-opacity:1"/>
            <stop offset=".6" style="stop-color:#a5a5a5;stop-opacity:1"/>
            <stop offset="1" style="stop-color:#a5a5a5;stop-opacity:1"/>
        </linearGradient>
        <linearGradient xlink:href="#a" id="c" x1="9" x2="119" y1="64" y2="64" gradientUnits="userSpaceOnUse"/>
        <linearGradient xlink:href="#b" id="d" x1="64.503" x2="64.503" y1="5.002" y2="114.771" gradientUnits="userSpaceOnUse"/>
    </defs>
    <path d="M64 5A55 55 0 0 0 9 60v8a55 55 0 0 0 55 55 55 55 0 0 0 55-55v-8A55 55 0 0 0 64 5" style="fill:url(#c);fill-opacity:1;stroke-width:1"/>
    <circle cx="64" cy="60" r="55" style="fill:url(#d);fill-opacity:1;stroke-width:1"/>
    <path d="M53.281 21.325a8.54 8.54 0 0 0-8.547 8.548c0 .34.025.672.063 1a9 9 0 0 0-.063 1 8.54 8.54 0 0 0 8.547 8.55h8.55v-10.55a8.54 8.54 0 0 0-8.55-8.548M31.846 42.76a8.54 8.54 0 0 0-8.55 8.549c0 .339.027.671.065 1a9 9 0 0 0-.064 1 8.54 8.54 0 0 0 8.549 8.549H53.28a8.54 8.54 0 0 0 8.55-8.55c0-.338-.025-.67-.063-1a8.54 8.54 0 0 0-8.486-9.549zm42.873 21.436a8.54 8.54 0 0 0-8.55 8.548c0 .34.025.672.063 1a9 9 0 0 0-.062 1 8.54 8.54 0 0 0 8.549 8.55h21.435a8.54 8.54 0 0 0 8.55-8.55c0-.338-.027-.67-.065-1 .038-.328.064-.66.064-1a8.54 8.54 0 0 0-8.549-8.548zm-8.55 21.37v10.55a8.54 8.54 0 0 0 8.55 8.548 8.54 8.54 0 0 0 8.547-8.548c0-.34-.025-.672-.063-1 .038-.329.063-.661.063-1a8.54 8.54 0 0 0-8.547-8.55zM31.797 64.207a8.54 8.54 0 0 0-8.547 8.549c0 .338.024.67.062 1a9 9 0 0 0-.062 1 8.54 8.54 0 0 0 8.547 8.548 8.54 8.54 0 0 0 8.549-8.548v-10.55zm21.37 0a8.54 8.54 0 0 0-8.546 8.549v23.37a8.54 8.54 0 0 0 8.547 8.55 8.54 8.54 0 0 0 8.549-8.55v-23.37a8.54 8.54 0 0 0-8.55-8.55m21.552-42.881a8.54 8.54 0 0 0-8.55 8.548V53.31a8.54 8.54 0 0 0 8.55 8.549 8.54 8.54 0 0 0 8.547-8.55V29.874a8.54 8.54 0 0 0-8.547-8.548m21.37 21.435a8.54 8.54 0 0 0-8.548 8.549v10.549h8.549a8.54 8.54 0 0 0 8.547-8.55c0-.338-.025-.67-.063-1 .038-.328.063-.66.063-1a8.54 8.54 0 0 0-8.547-8.548" style="fill:#bdbdbd;fill-opacity:1;stroke-width:.647609" transform="translate(0 2)"/>
    <circle cx="64" cy="60" r="52.203" style="fill:#e6e6e6;fill-opacity:1;stroke-width:.949152"/>
    <path d="M31.82 66.207a8.54 8.54 0 0 0-8.547 8.549c0 .338.025.67.063 1a9 9 0 0 0-.063 1 8.54 8.54 0 0 0 8.547 8.548 8.54 8.54 0 0 0 8.55-8.548v-10.55zm21.371 0a8.54 8.54 0 0 0-8.547 8.549v23.37a8.54 8.54 0 0 0 8.547 8.55 8.54 8.54 0 0 0 8.55-8.55v-23.37a8.54 8.54 0 0 0-8.55-8.55" style="fill:#b3b3b3;fill-opacity:1;stroke-width:.647609"/>
    <path d="M31.82 62.207a8.54 8.54 0 0 0-8.547 8.549c0 .338.025.67.063 1a9 9 0 0 0-.063 1 8.54 8.54 0 0 0 8.547 8.548 8.54 8.54 0 0 0 8.55-8.548v-10.55zm21.371 0a8.54 8.54 0 0 0-8.547 8.549v23.37a8.54 8.54 0 0 0 8.547 8.55 8.54 8.54 0 0 0 8.55-8.55v-23.37a8.54 8.54 0 0 0-8.55-8.55" style="fill:#93143b;fill-opacity:1;stroke-width:.647609"/>
    <path d="M53.305 23.325a8.54 8.54 0 0 0-8.547 8.548c0 .34.024.672.062 1a9 9 0 0 0-.062 1 8.54 8.54 0 0 0 8.547 8.55h8.549v-10.55a8.54 8.54 0 0 0-8.55-8.548M31.869 44.76a8.54 8.54 0 0 0-8.549 8.549c0 .339.027.671.065 1a9 9 0 0 0-.065 1 8.54 8.54 0 0 0 8.55 8.549h21.435a8.54 8.54 0 0 0 8.549-8.55c0-.338-.025-.67-.063-1 .038-.328.063-.66.063-1a8.54 8.54 0 0 0-8.55-8.548z" style="fill:#b3b3b3;fill-opacity:1;stroke-width:.647609"/>
    <path d="M53.305 19.325a8.54 8.54 0 0 0-8.547 8.548c0 .34.024.672.062 1a9 9 0 0 0-.062 1 8.54 8.54 0 0 0 8.547 8.55h8.549v-10.55a8.54 8.54 0 0 0-8.55-8.548M31.869 40.76a8.54 8.54 0 0 0-8.549 8.549c0 .339.027.671.065 1a9 9 0 0 0-.065 1 8.54 8.54 0 0 0 8.55 8.549h21.435a8.54 8.54 0 0 0 8.549-8.55c0-.338-.025-.67-.063-1 .038-.328.063-.66.063-1a8.54 8.54 0 0 0-8.55-8.548z" style="fill:#1d6b82;fill-opacity:1;stroke-width:.647609"/>
    <path d="M74.742 23.325a8.54 8.54 0 0 0-8.549 8.548V55.31a8.54 8.54 0 0 0 8.55 8.549 8.54 8.54 0 0 0 8.546-8.55V31.874a8.54 8.54 0 0 0-8.547-8.548M96.113 44.76a8.54 8.54 0 0 0-8.548 8.549v10.549h8.548a8.54 8.54 0 0 0 8.547-8.55c0-.338-.024-.67-.062-1a8.54 8.54 0 0 0-8.484-9.549" style="fill:#b3b3b3;fill-opacity:1;stroke-width:.647609"/>
    <path d="M74.742 19.325a8.54 8.54 0 0 0-8.549 8.548V51.31a8.54 8.54 0 0 0 8.55 8.549 8.54 8.54 0 0 0 8.546-8.55V27.874a8.54 8.54 0 0 0-8.547-8.548M96.113 40.76a8.54 8.54 0 0 0-8.548 8.549v10.549h8.548a8.54 8.54 0 0 0 8.547-8.55c0-.338-.024-.67-.062-1a8.54 8.54 0 0 0-8.484-9.549" style="fill:#1b6b49;fill-opacity:1;stroke-width:.647609"/>
    <path d="M74.742 66.196a8.54 8.54 0 0 0-8.549 8.548c0 .34.025.672.063 1a9 9 0 0 0-.063 1 8.54 8.54 0 0 0 8.55 8.55h21.435a8.54 8.54 0 0 0 8.549-8.55c0-.338-.027-.67-.065-1 .038-.328.065-.66.065-1a8.54 8.54 0 0 0-8.55-8.548zm-8.549 21.37v10.55a8.54 8.54 0 0 0 8.55 8.548 8.54 8.54 0 0 0 8.546-8.548c0-.34-.024-.672-.062-1a8.54 8.54 0 0 0-8.484-9.549z" style="fill:#b3b3b3;fill-opacity:1;stroke-width:.647609"/>
    <path d="M74.742 62.196a8.54 8.54 0 0 0-8.549 8.548c0 .34.025.672.063 1a9 9 0 0 0-.063 1 8.54 8.54 0 0 0 8.55 8.55h21.435a8.54 8.54 0 0 0 8.549-8.55c0-.338-.027-.67-.065-1 .038-.328.065-.66.065-1a8.54 8.54 0 0 0-8.55-8.548zm-8.549 21.37v10.55a8.54 8.54 0 0 0 8.55 8.548 8.54 8.54 0 0 0 8.546-8.548c0-.34-.024-.672-.062-1a8.54 8.54 0 0 0-8.484-9.549z" style="fill:#ae8322;fill-opacity:1;stroke-width:.647609"/>
    <path d="M44.757 68.745a8.54 8.54 0 0 1 8.549-8.549 8.54 8.54 0 0 1 8.548 8.549v21.37a8.54 8.54 0 0 1-8.548 8.55 8.54 8.54 0 0 1-8.549-8.55zm-4.274 0a8.54 8.54 0 0 1-8.549 8.548 8.54 8.54 0 0 1-8.548-8.548 8.54 8.54 0 0 1 8.548-8.549h8.549z" style="stroke-width:.647609;fill:#e01e5a;fill-opacity:1"/>
    <path d="M53.306 38.76a8.54 8.54 0 0 1 8.548 8.549 8.54 8.54 0 0 1-8.548 8.548H31.87a8.54 8.54 0 0 1-8.549-8.548 8.54 8.54 0 0 1 8.549-8.549zm0-4.338a8.54 8.54 0 0 1-8.549-8.549 8.54 8.54 0 0 1 8.549-8.548 8.54 8.54 0 0 1 8.548 8.548v8.549z" style="stroke-width:.647609;fill:#36c5f0;fill-opacity:1"/>
    <path d="M83.29 47.309a8.54 8.54 0 0 1-8.549 8.548 8.54 8.54 0 0 1-8.548-8.548V25.873a8.54 8.54 0 0 1 8.548-8.548 8.54 8.54 0 0 1 8.549 8.548zm4.274 0a8.54 8.54 0 0 1 8.549-8.549 8.54 8.54 0 0 1 8.548 8.549 8.54 8.54 0 0 1-8.548 8.548h-8.549z" style="stroke-width:.647609;fill:#2eb67d;fill-opacity:1"/>
    <path d="M74.741 77.293a8.54 8.54 0 0 1-8.548-8.548 8.54 8.54 0 0 1 8.548-8.549h21.436a8.54 8.54 0 0 1 8.549 8.549 8.54 8.54 0 0 1-8.549 8.548zm0 4.274a8.54 8.54 0 0 1 8.549 8.549 8.54 8.54 0 0 1-8.549 8.548 8.54 8.54 0 0 1-8.548-8.548v-8.549z" style="stroke-width:.647609;fill:#ecb22e;fill-opacity:1"/>
</svg>
