<svg xmlns="http://www.w3.org/2000/svg" xmlns:xlink="http://www.w3.org/1999/xlink" xml:space="preserve" width="128" height="128" viewBox="0 0 128 128">
    <defs>
        <linearGradient id="c">
            <stop offset="0" style="stop-color:#62128a;stop-opacity:1"/>
            <stop offset="1" style="stop-color:#cf9de8;stop-opacity:1"/>
        </linearGradient>
        <linearGradient id="b">
            <stop offset="0" style="stop-color:#430c5e;stop-opacity:1"/>
            <stop offset="1" style="stop-color:#941ad0;stop-opacity:1"/>
        </linearGradient>
        <linearGradient id="a">
            <stop offset="0" style="stop-color:#380a4f;stop-opacity:1"/>
            <stop offset=".3" style="stop-color:#380a4f;stop-opacity:1"/>
            <stop offset=".5" style="stop-color:#460b61;stop-opacity:1"/>
            <stop offset=".7" style="stop-color:#380a4f;stop-opacity:1"/>
            <stop offset="1" style="stop-color:#380a4f;stop-opacity:1"/>
        </linearGradient>
        <linearGradient xlink:href="#a" id="d" x1="9" x2="119" y1="115" y2="115" gradientUnits="userSpaceOnUse"/>
        <linearGradient xlink:href="#b" id="f" x1="308" x2="459.92" y1="60" y2="60" gradientTransform="rotate(-90 174.261 152.028)scale(.69353)" gradientUnits="userSpaceOnUse"/>
        <linearGradient xlink:href="#c" id="e" x1="64" x2="64" y1="115" y2="5" gradientUnits="userSpaceOnUse"/>
    </defs>
    <path d="M64 5A55 55 0 0 0 9 60v8a55 55 0 0 0 55 55 55 55 0 0 0 55-55v-8A55 55 0 0 0 64 5" style="fill:url(#d);fill-opacity:1"/>
    <circle cx="64" cy="60" r="55" style="fill:url(#e);fill-opacity:1;stroke-width:1"/>
    <path d="M11.163 60c0 29.096 23.586 52.68 52.68 52.68 29.097 0 52.683-23.584 52.683-52.68 0-29.095-23.586-52.68-52.683-52.68-29.094 0-52.68 23.585-52.68 52.68" style="fill:url(#f);stroke:none;stroke-width:.205786"/>
    <path d="M63.952 16.93v6.38c20.215.059 36.583 16.46 36.583 36.689s-16.368 36.63-36.583 36.689v6.38c23.74-.057 42.964-19.316 42.964-43.07 0-23.751-19.225-43.008-42.964-43.068m0 15.956v6.38c11.402.06 20.632 9.316 20.632 20.733s-9.23 20.674-20.632 20.734v6.38c14.928-.059 27.013-12.172 27.013-27.114S78.88 32.944 63.952 32.886m0 15.952V71.16c6.116-.058 11.06-5.03 11.06-11.161s-4.944-11.102-11.06-11.16" style="fill:#f2e4ff;fill-opacity:1;stroke:none;stroke-width:.20564"/>
</svg>
