<svg xmlns="http://www.w3.org/2000/svg" xmlns:xlink="http://www.w3.org/1999/xlink" xml:space="preserve" width="128" height="128" viewBox="0 0 128 128">
    <defs>
        <linearGradient id="c">
            <stop offset="0" style="stop-color:#21d789;stop-opacity:1"/>
            <stop offset="1" style="stop-color:#fcf84a;stop-opacity:1"/>
        </linearGradient>
        <linearGradient id="b">
            <stop offset="0" style="stop-color:#e6e6e6;stop-opacity:.34875825"/>
            <stop offset="1" style="stop-color:#fff;stop-opacity:.84750426"/>
        </linearGradient>
        <linearGradient id="a">
            <stop offset="0" style="stop-color:#5b8f4d;stop-opacity:1"/>
            <stop offset=".05" style="stop-color:#6fb756;stop-opacity:1"/>
            <stop offset=".1" style="stop-color:#588e40;stop-opacity:1"/>
            <stop offset=".9" style="stop-color:#899533;stop-opacity:1"/>
            <stop offset=".95" style="stop-color:#aabb3f;stop-opacity:1"/>
            <stop offset="1" style="stop-color:#869235;stop-opacity:1"/>
        </linearGradient>
        <linearGradient xlink:href="#a" id="e" x1="11.5" x2="116.5" y1="120.5" y2="120.5" gradientUnits="userSpaceOnUse"/>
        <linearGradient xlink:href="#b" id="i" x1="64" x2="64" y1="112.5" y2="7.5" gradientUnits="userSpaceOnUse"/>
        <linearGradient xlink:href="#c" id="h" x1="12.773" x2="108.029" y1="20.475" y2="115.731" gradientUnits="userSpaceOnUse"/>
        <linearGradient xlink:href="#a" id="d" x1="11.5" x2="116.5" y1="120.5" y2="120.5" gradientTransform="matrix(1 0 0 1.0762 0 -9.181)" gradientUnits="userSpaceOnUse"/>
        <clipPath id="f" clipPathUnits="userSpaceOnUse">
            <rect width="105" height="113" x="11.5" y="7.5" rx="13" ry="13.99" style="fill:url(#d);fill-opacity:1;stroke-width:1.0374"/>
        </clipPath>
        <filter id="g" width="1.686" height="1.686" x="-.343" y="-.343" style="color-interpolation-filters:sRGB">
            <feGaussianBlur result="blur" stdDeviation="15 15"/>
            <feColorMatrix result="colormatrix" values="1 0 0 0 0 0 1 0 0 0 0 0 1 0 0 0 0 0 50 0"/>
            <feComposite in="colormatrix" in2="SourceGraphic" operator="in"/>
        </filter>
    </defs>
    <rect width="105" height="105" x="11.5" y="15.5" rx="13" ry="13" style="fill:url(#e);fill-opacity:1"/>
    <g clip-path="url(#f)" style="filter:url(#g)">
        <rect width="105" height="105" x="11.5" y="7.5" rx="13" ry="13" style="fill:url(#h);fill-opacity:1"/>
        <circle cx="93.824" cy="30.176" r="20.553" style="fill:#08c4ee;fill-opacity:1;stroke:none;stroke-width:2;stroke-linecap:round"/>
    </g>
    <path d="M24.5 7.5c-7.202 0-13 5.798-13 13v79c0 7.202 5.798 13 13 13h79c7.202 0 13-5.798 13-13v-79c0-7.202-5.798-13-13-13zm1.123 2.123h76.754c6.648 0 12 5.352 12 12v76.754c0 6.648-5.352 12-12 12H25.623c-6.648 0-12-5.352-12-12V21.623c0-6.648 5.352-12 12-12" style="fill:url(#i);fill-opacity:1"/>
    <rect width="60.66" height="58.62" x="32.382" y="33.337" rx="0" ry="0" style="fill:#000;fill-opacity:1;stroke:#000;stroke-width:1.56519;stroke-linecap:round;stroke-opacity:0"/>
    <path fill="#fff" d="M44.016 78.927h18v3h-18zM44.032 46h7.36c4.288 0 6.888 2.543 6.888 6.215v.048c0 4.16-3.24 6.32-7.272 6.32h-2.976v5.392h-4zm7.088 9.063c1.976 0 3.136-1.176 3.136-2.72v-.048c0-1.776-1.232-2.728-3.2-2.728h-3.024v5.496zm9.304-.016V55a9.13 9.13 0 0 1 9.368-9.296 9.27 9.27 0 0 1 7.088 2.768l-2.512 2.904a6.66 6.66 0 0 0-4.6-2.032c-3.032 0-5.216 2.52-5.216 5.6V55c0 3.08 2.136 5.648 5.216 5.648 2.056 0 3.312-.8 4.728-2.104l2.512 2.536a9.17 9.17 0 0 1-7.368 3.2 9.08 9.08 0 0 1-9.216-9.232"/>
</svg>
