<svg xmlns="http://www.w3.org/2000/svg" xmlns:xlink="http://www.w3.org/1999/xlink" xml:space="preserve" width="128" height="128" viewBox="0 0 128 128">
    <defs>
        <linearGradient id="c">
            <stop offset="0" style="stop-color:#b74af7;stop-opacity:1"/>
            <stop offset="1" style="stop-color:#0d7bfa;stop-opacity:1"/>
        </linearGradient>
        <linearGradient id="b">
            <stop offset="0" style="stop-color:#e6e6e6;stop-opacity:.35036173"/>
            <stop offset="1" style="stop-color:#fff;stop-opacity:.84938896"/>
        </linearGradient>
        <linearGradient id="a">
            <stop offset="0" style="stop-color:#47419c;stop-opacity:1"/>
            <stop offset=".05" style="stop-color:#5b58e0;stop-opacity:1"/>
            <stop offset=".1" style="stop-color:#4141a8;stop-opacity:1"/>
            <stop offset=".9" style="stop-color:#184da4;stop-opacity:1"/>
            <stop offset=".95" style="stop-color:#2169dc;stop-opacity:1"/>
            <stop offset="1" style="stop-color:#2155ad;stop-opacity:1"/>
        </linearGradient>
        <linearGradient xlink:href="#a" id="e" x1="11.5" x2="116.5" y1="120.5" y2="120.5" gradientUnits="userSpaceOnUse"/>
        <linearGradient xlink:href="#b" id="n" x1="64" x2="64" y1="112.5" y2="7.5" gradientUnits="userSpaceOnUse"/>
        <linearGradient xlink:href="#c" id="k" x1="12.773" x2="108.029" y1="20.475" y2="115.731" gradientUnits="userSpaceOnUse"/>
        <linearGradient xlink:href="#a" id="d" x1="11.5" x2="116.5" y1="120.5" y2="120.5" gradientTransform="matrix(.99967 0 0 1.0711 .021 -8.585)" gradientUnits="userSpaceOnUse"/>
        <clipPath id="f" clipPathUnits="userSpaceOnUse">
            <rect width="104.965" height="112.465" x="11.517" y="8.017" rx="12.996" ry="13.924" style="fill:url(#d);fill-opacity:1;stroke:#000;stroke-width:1.03477;stroke-opacity:0"/>
        </clipPath>
        <filter id="h" width="1.686" height="1.686" x="-.343" y="-.343" style="color-interpolation-filters:sRGB">
            <feGaussianBlur result="blur" stdDeviation="15 15"/>
            <feColorMatrix result="colormatrix" values="1 0 0 0 0 0 1 0 0 0 0 0 1 0 0 0 0 0 50 0"/>
            <feComposite in="colormatrix" in2="SourceGraphic" operator="in"/>
        </filter>
    </defs>
    <rect width="105" height="105" x="11.5" y="15.5" rx="13" ry="13" style="fill:url(#e);fill-opacity:1;stroke:#000;stroke-opacity:0"/>
    <g clip-path="url(#f)" style="filter:url(#h)">
        <rect width="105" height="105" x="11.5" y="7.5" rx="13" ry="13" style="fill:url(#k);fill-opacity:1"/>
        <circle cx="86.329" cy="37.671" r="28.048" style="fill:#3bea62;fill-opacity:1;stroke:none;stroke-width:2.72942;stroke-linecap:round"/>
    </g>
    <path d="M24.5 7.5c-7.202 0-13 5.798-13 13v79c0 7.202 5.798 13 13 13h79c7.202 0 13-5.798 13-13v-79c0-7.202-5.798-13-13-13zm1.123 2.123h76.754c6.648 0 12 5.352 12 12v76.754c0 6.648-5.352 12-12 12H25.623c-6.648 0-12-5.352-12-12V21.623c0-6.648 5.352-12 12-12" style="fill:url(#n);fill-opacity:1"/>
    <path d="M47.12 21.607 25.582 54.551l6.233 15.136-6.233 13.817 28.77 14.903 13.966-14.4h.002l-5.873 6.056 24.272 8.344 15.664-26.8-9.15-20.292 9.15-13.403-14.4 3.42v-5.325h-9.967l-3.305-14.4z" style="fill:#000;fill-opacity:1;stroke-width:.8"/>
    <path fill="#fff" d="M44.488 75.008h18v3h-18zm-1.352-22.752V52.2a10.16 10.16 0 0 1 10.376-10.192 10.9 10.9 0 0 1 7.784 2.712l-2.744 3.312a7.3 7.3 0 0 0-5.176-2.024c-3.2 0-5.688 2.8-5.688 6.16v.056c0 3.624 2.488 6.28 6 6.28a6.94 6.94 0 0 0 4.096-1.192v-2.848H53.4v-3.76h8.584v8.592a12.86 12.86 0 0 1-8.456 3.144c-6.152 0-10.392-4.328-10.392-10.184m20.688 0V52.2a10.23 10.23 0 0 1 10.552-10.192c6.104 0 10.488 4.552 10.488 10.176v.056A10.23 10.23 0 0 1 74.32 62.48c-6.112-.04-10.496-4.592-10.496-10.224m16.488 0V52.2a6.01 6.01 0 0 0-5.992-6.192 5.92 5.92 0 0 0-5.936 6.136v.056a6.016 6.016 0 0 0 6 6.224 5.92 5.92 0 0 0 5.928-6.168"/>
</svg>
