<svg xmlns="http://www.w3.org/2000/svg" xml:space="preserve" width="128" height="128" viewBox="0 0 128 128">
    <defs>
        <linearGradient id="a" x1="0" x2="235.777" y1="119.552" y2="119.552" gradientTransform="matrix(.41834 0 0 .49115 14.683 2)" gradientUnits="userSpaceOnUse">
            <stop offset="0%" stop-color="#f50"/>
            <stop offset="40.988%" stop-color="#f50"/>
            <stop offset="58.198%" stop-color="#ff2000"/>
            <stop offset="100%" stop-color="#ff2000"/>
        </linearGradient>
        <filter id="b" width="1.065" height="1.142" x="-.032" y="-.033" style="color-interpolation-filters:sRGB">
            <feFlood flood-color="#000" flood-opacity=".255" result="flood"/>
            <feComposite in="flood" in2="SourceGraphic" operator="in" result="composite1"/>
            <feGaussianBlur in="composite1" result="blur" stdDeviation="1"/>
            <feOffset dy="5.5" result="offset"/>
            <feComposite in="SourceGraphic" in2="offset" result="composite2"/>
        </filter>
    </defs>
    <path d="M45.955 9.3 35.68 20.973s-9.024-2.51-13.285 1.756l-7.769-.303v8.332l2.757 6.777-.458 1.306-3.052.399v8.332S24.195 86.71 25.404 91.488c2.381 9.41 4.01 13.05 10.776 17.817 6.767 4.768 19.049 13.049 21.054 14.304C59.239 124.863 61.744 127 64 127s4.761-2.137 6.766-3.391 14.287-9.536 21.054-14.304 8.395-8.406 10.776-17.817c1.209-4.779 11.53-43.916 11.53-43.916l-.056-.162v-8.17h-2.856l-.597-1.705 2.757-6.777v-8.332h-4.256v3.902c-1.12-1.157-2.148-2.232-3.513-3.6-4.26-4.265-13.285-1.755-13.285-1.755L82.045 9.3H64Z" style="fill:#b92808;fill-opacity:1;fill-rule:evenodd;stroke:none;stroke-width:.460715"/>
    <path fill="url(#a)" d="m110.617 29.235 2.757-6.776s-3.509-3.764-7.77-8.03-13.283-1.756-13.283-1.756L82.045 1h-36.09L35.679 12.673s-9.023-2.51-13.283 1.756c-4.261 4.266-7.77 8.03-7.77 8.03l2.757 6.776-3.509 10.037s10.32 39.136 11.53 43.915c2.38 9.41 4.01 13.05 10.776 17.817 6.767 4.768 19.048 13.05 21.053 14.304 2.005 1.255 4.511 3.392 6.767 3.392s4.762-2.137 6.767-3.392 14.286-9.536 21.053-14.304 8.396-8.406 10.777-17.817c1.209-4.779 11.529-43.915 11.529-43.915z" style="fill:#ff532a;fill-opacity:1;fill-rule:evenodd;stroke:none;stroke-width:.460715"/>
    <path fill="#fff" d="M88.423 25.814s12.69 15.358 12.69 18.641-1.597 4.149-3.202 5.855l-9.514 10.116c-.9.958-2.775 2.409-1.672 5.02 1.102 2.612 2.728 5.936.92 9.307-1.809 3.37-4.907 5.62-6.892 5.249s-6.647-2.812-8.361-3.926-7.148-5.601-7.148-7.318 5.616-4.799 6.654-5.5 5.77-3.41 5.868-4.474c.097-1.064.06-1.376-1.337-4.005s-3.912-6.138-3.494-8.472c.42-2.334 4.476-3.548 7.371-4.642s8.469-3.162 9.165-3.484c.696-.321.517-.627-1.593-.828s-8.095-.995-10.793-.242c-2.699.753-7.31 1.899-7.683 2.506-.373.608-.702.628-.319 2.724s2.358 12.154 2.55 13.94c.191 1.787.566 2.968-1.358 3.408S65.113 60.894 64 60.894s-4.352-.764-6.275-1.205c-1.924-.44-1.55-1.621-1.358-3.408s2.166-11.844 2.55-13.94.054-2.116-.32-2.724c-.373-.607-4.983-1.753-7.682-2.506s-8.684.042-10.793.242-2.29.507-1.593.828c.696.322 6.27 2.39 9.165 3.484s6.952 2.308 7.37 4.642c.42 2.334-2.096 5.843-3.493 8.472s-1.434 2.94-1.337 4.005 4.83 3.775 5.868 4.475 6.654 3.782 6.654 5.499-5.433 6.204-7.148 7.318-6.376 3.554-8.361 3.926-5.083-1.878-6.892-5.25c-1.808-3.37-.182-6.694.92-9.306s-.771-4.062-1.672-5.02L30.09 50.31c-1.605-1.706-3.201-2.572-3.201-5.855s12.689-18.641 12.689-18.641 10.708 2.047 12.151 2.047c1.444 0 4.572-1.204 7.46-2.168 2.887-.963 4.812-.97 4.812-.97s1.925.007 4.812.97c2.888.964 6.016 2.169 7.46 2.169s12.151-2.048 12.151-2.048m-9.513 58.75c.786.492.307 1.42-.409 1.927-.715.507-10.33 7.962-11.264 8.786S64.932 97.462 64 97.462s-2.304-1.361-3.237-2.185-10.549-8.28-11.264-8.786c-.716-.506-1.195-1.435-.41-1.927s3.244-1.735 6.635-3.492 7.616-3.25 8.276-3.25 4.885 1.493 8.276 3.25 5.849 3 6.634 3.492" style="fill-rule:evenodd;stroke:none;stroke-width:.442317;filter:url(#b);fill:#f5e9e9;fill-opacity:1" transform="translate(-2.662 -6.812)scale(1.0416)"/>
    <path d="M45.955 1 35.68 12.673s-9.024-2.51-13.285 1.756c0 0 1.634-.14 3.888.008 4.332-1.088 9.397.32 9.397.32L45.955 3.082h36.09L92.32 14.756s5.065-1.406 9.397-.319c2.254-.147 3.888-.008 3.888-.008-4.261-4.266-13.285-1.756-13.285-1.756L82.045 1H64Z" style="fill:#fff;fill-opacity:.398444;fill-rule:evenodd;stroke:none;stroke-width:.460715"/>
</svg>
