<svg xmlns="http://www.w3.org/2000/svg" xmlns:xlink="http://www.w3.org/1999/xlink" width="128" height="128" viewBox="0 0 128 128">
    <defs>
        <linearGradient id="b">
            <stop offset="0" style="stop-color:#53df97;stop-opacity:1"/>
            <stop offset="1" style="stop-color:#aafdd1;stop-opacity:1"/>
        </linearGradient>
        <linearGradient id="a">
            <stop offset="0" style="stop-color:#00923c;stop-opacity:1"/>
            <stop offset=".3" style="stop-color:#00923c;stop-opacity:1"/>
            <stop offset=".5" style="stop-color:#00ba5a;stop-opacity:1"/>
            <stop offset=".7" style="stop-color:#00923c;stop-opacity:1"/>
            <stop offset="1" style="stop-color:#00923c;stop-opacity:1"/>
        </linearGradient>
        <linearGradient xlink:href="#a" id="c" x1="9" x2="119" y1="70" y2="70" gradientTransform="translate(0 -2)" gradientUnits="userSpaceOnUse"/>
        <linearGradient xlink:href="#b" id="g" x1="64" x2="64" y1="115" y2="5" gradientUnits="userSpaceOnUse"/>
    </defs>
    <path d="M64 5A55 55 0 0 0 9 60v8a55 55 0 0 0 55 55 55 55 0 0 0 55-55v-8A55 55 0 0 0 64 5" style="fill:url(#c);fill-opacity:1"/>
    <circle cx="64" cy="60" r="55" style="fill:url(#g);fill-opacity:1"/>
    <circle cx="64" cy="60" r="53.088" style="fill:#00df6d;fill-opacity:1;stroke-width:.965231"/>
    <path d="M98.12 56.964c-1.089 0-1.759-.272-2.701-.816-14.909-8.9-41.563-11.035-58.817-6.22-.754.21-1.696.545-2.7.545-2.765 0-4.88-2.156-4.88-4.941 0-2.848 1.76-4.46 3.644-5.005 7.37-2.156 15.62-3.182 24.603-3.182 15.285 0 31.303 3.182 43.008 10.008 1.633.943 2.7 2.24 2.7 4.733 0 2.847-2.303 4.878-4.857 4.878M91.629 72.92c-1.089 0-1.822-.482-2.576-.88-13.086-7.747-32.601-10.867-49.96-6.156-1.004.272-1.549.545-2.49.545a4.066 4.066 0 0 1-4.063-4.063c0-2.24 1.089-3.727 3.246-4.334 5.82-1.633 11.767-2.848 20.478-2.848 13.589 0 26.717 3.372 37.06 9.528 1.697 1.005 2.367 2.303 2.367 4.124-.021 2.262-1.78 4.084-4.062 4.084m-5.633 13.735c-.879 0-1.423-.272-2.24-.754-13.066-7.872-28.267-8.207-43.28-5.13-.817.21-1.885.545-2.492.545-2.031 0-3.308-1.612-3.308-3.308 0-2.157 1.277-3.183 2.847-3.518 17.15-3.79 34.675-3.455 49.625 5.486 1.277.816 2.031 1.55 2.031 3.455s-1.487 3.224-3.183 3.224" style="fill:#00493c;fill-opacity:1;stroke-width:.232652"/>
</svg>
