<svg xmlns="http://www.w3.org/2000/svg" xmlns:xlink="http://www.w3.org/1999/xlink" xml:space="preserve" width="128" height="128" viewBox="0 0 128 128">
    <defs>
        <linearGradient id="b">
            <stop offset="0" style="stop-color:#e6e6e6;stop-opacity:1"/>
            <stop offset="1" style="stop-color:#fff;stop-opacity:1"/>
        </linearGradient>
        <linearGradient id="a">
            <stop offset="0" style="stop-color:#999;stop-opacity:1"/>
            <stop offset=".05" style="stop-color:#b3b3b3;stop-opacity:1"/>
            <stop offset=".1" style="stop-color:#999;stop-opacity:1"/>
            <stop offset=".9" style="stop-color:#999;stop-opacity:1"/>
            <stop offset=".95" style="stop-color:#b3b3b3;stop-opacity:1"/>
            <stop offset="1" style="stop-color:#999;stop-opacity:1"/>
        </linearGradient>
        <linearGradient xlink:href="#a" id="c" x1="11.5" x2="116.5" y1="120.5" y2="120.5" gradientUnits="userSpaceOnUse"/>
        <linearGradient xlink:href="#b" id="d" x1="64" x2="64" y1="112.5" y2="7.5" gradientUnits="userSpaceOnUse"/>
        <linearGradient id="e" x1="49.939" x2="49.939" y1=".258" y2="99.742" gradientTransform="translate(26.69 21.879)scale(.76243)" gradientUnits="userSpaceOnUse">
            <stop stop-color="#fff"/>
            <stop offset="1" stop-color="#fff" stop-opacity="0"/>
        </linearGradient>
    </defs>
    <rect width="105" height="105" x="11.5" y="15.5" rx="13" ry="13" style="fill:url(#c);fill-opacity:1"/>
    <rect width="105" height="105" x="11.5" y="7.5" rx="13" ry="13" style="fill:url(#d);fill-opacity:1"/>
    <rect width="100.755" height="100.755" x="13.622" y="9.622" rx="12" ry="12" style="fill:#e6e6e6;fill-opacity:1;stroke-width:.959575"/>
    <path fill="#0065a9" d="m100.236 30.11-15.71-7.564a4.75 4.75 0 0 0-5.418.921L27.68 70.357a3.177 3.177 0 0 0 .003 4.697l4.2 3.82a3.18 3.18 0 0 0 4.058.18l61.93-46.982c2.077-1.576 5.061-.094 5.061 2.514v-.183a4.76 4.76 0 0 0-2.698-4.293z" style="stroke-width:.762429" transform="translate(-4)"/>
    <g filter="url(#filter0_d)" style="fill:none" transform="translate(22.69 21.879)scale(.76243)">
        <path fill="#007acc" d="m96.461 89.204-20.604 9.92a6.23 6.23 0 0 1-7.107-1.207l-67.451-61.5a4.167 4.167 0 0 1 .004-6.162l5.51-5.009a4.17 4.17 0 0 1 5.32-.236l81.228 61.62c2.725 2.067 6.639.124 6.639-3.297v.24a6.25 6.25 0 0 1-3.539 5.63"/>
    </g>
    <g filter="url(#filter1_d)" style="fill:#1f9cf0;fill-opacity:1" transform="translate(22.69 21.879)scale(.76243)">
        <path d="M75.858 99.126a6.23 6.23 0 0 1-7.108-1.21c2.306 2.307 6.25.674 6.25-2.588V4.672c0-3.262-3.944-4.895-6.25-2.589a6.23 6.23 0 0 1 7.108-1.21l20.6 9.908A6.25 6.25 0 0 1 100 16.413v67.174a6.25 6.25 0 0 1-3.541 5.633z" style="fill:#1f9cf0;fill-opacity:1"/>
    </g>
    <path fill="url(#e)" fill-rule="evenodd" d="M80.71 97.6c1.2.469 2.57.439 3.782-.145l15.697-7.553a4.76 4.76 0 0 0 2.698-4.294V34.392c0-1.83-1.049-3.5-2.698-4.294l-15.697-7.553a4.75 4.75 0 0 0-5.416.922l-30.05 27.415-13.09-9.935a3.17 3.17 0 0 0-4.054.18l-4.198 3.819a3.18 3.18 0 0 0-.004 4.698L39.032 60 27.68 70.356a3.18 3.18 0 0 0 .004 4.698l4.198 3.82a3.17 3.17 0 0 0 4.054.18l13.09-9.936 30.05 27.415a4.7 4.7 0 0 0 1.634 1.068m3.128-54.908L61.037 60l22.801 17.308Z" clip-rule="evenodd" style="opacity:.25;mix-blend-mode:overlay;fill:url(#e);stroke-width:.762429" transform="translate(-4)"/>
</svg>
