<svg xmlns="http://www.w3.org/2000/svg" xmlns:xlink="http://www.w3.org/1999/xlink" xml:space="preserve" width="128" height="128" viewBox="0 0 128 128">
    <defs>
        <linearGradient id="d">
            <stop offset="0" style="stop-color:#476eac;stop-opacity:1"/>
            <stop offset=".8" style="stop-color:#476eac;stop-opacity:1"/>
            <stop offset="1" style="stop-color:#5584ce;stop-opacity:1"/>
        </linearGradient>
        <linearGradient id="c">
            <stop offset="0" style="stop-color:#7e96bf;stop-opacity:1"/>
            <stop offset=".2" style="stop-color:#758cb2;stop-opacity:1"/>
            <stop offset="1" style="stop-color:#758cb2;stop-opacity:1"/>
        </linearGradient>
        <linearGradient id="a">
            <stop offset="0" style="stop-color:gray;stop-opacity:1"/>
            <stop offset=".4" style="stop-color:gray;stop-opacity:1"/>
            <stop offset=".5" style="stop-color:#999;stop-opacity:1"/>
            <stop offset=".6" style="stop-color:gray;stop-opacity:1"/>
            <stop offset="1" style="stop-color:gray;stop-opacity:1"/>
        </linearGradient>
        <linearGradient xlink:href="#a" id="e" x1="9" x2="119" y1="64" y2="64" gradientUnits="userSpaceOnUse"/>
        <linearGradient xlink:href="#c" id="f" x1="61.107" x2="119" y1="78.974" y2="78.974" gradientUnits="userSpaceOnUse"/>
        <linearGradient xlink:href="#d" id="g" x1="9" x2="61.107" y1="76.628" y2="76.628" gradientUnits="userSpaceOnUse"/>
    </defs>
    <path d="M64 5A55 55 0 0 0 9 60v8a55 55 0 0 0 55 55 55 55 0 0 0 55-55v-8A55 55 0 0 0 64 5" style="fill:url(#e);fill-opacity:1;stroke-width:1"/>
    <path d="M64 35.107A24.893 24.893 0 0 1 88.893 60a24.9 24.9 0 0 1-3.332 12.441l.002.002-.004.004-24.45 42.346A55 55 0 0 0 64 115a55 55 0 0 0 55-55 55 55 0 0 0-5.973-24.893Z" style="fill:#aecbfa;fill-opacity:1;stroke-width:1.5;stroke-linecap:round;stroke-linejoin:round;paint-order:markers stroke fill"/>
    <path fill="url(#j)" d="M17.93 30.408 53.556 66.03l-11.114 6.417z" clip-path="url(#b)" style="stroke-width:.622328"/>
    <path fill="url(#k)" d="M61.405 114.696 74.449 66.03l11.115 6.417z" clip-path="url(#b)" style="stroke-width:.622328"/>
    <circle cx="64" cy="60" r="54.765" fill="url(#l)" style="stroke-width:.622328"/>
    <path fill="none" d="M4.257.257h119.486v119.486H4.257Z" style="stroke-width:.622328"/>
    <path d="M17.934 29.994A55 55 0 0 0 9 60a55 55 0 0 0 52.107 54.793l24.45-42.35h-.06A24.89 24.89 0 0 1 64 84.893a24.89 24.89 0 0 1-21.492-12.444h-.065l-.002-.004z" style="fill:#669df6;fill-opacity:1;stroke-width:1.5;stroke-linecap:round;stroke-linejoin:round;paint-order:markers stroke fill"/>
    <path d="M64 5a55 55 0 0 0-46.066 24.996L42.44 72.45l.034-.058A24.9 24.9 0 0 1 39.107 60a24.893 24.893 0 0 1 24.887-24.893h49.033A55 55 0 0 0 64 5" style="fill:#1967d2;fill-opacity:1;stroke-width:1.5;stroke-linecap:round;stroke-linejoin:round;paint-order:markers stroke fill"/>
    <path d="m112.945 34.947-.166.158-.002.002h.239zm1.537 3.492a55 55 0 0 1 1.1 2.522 55 55 0 0 0-1.1-2.522m2.256 6.305a55 55 0 0 1 .73 2.41 55 55 0 0 0-.73-2.41m1.56 7.03a55 55 0 0 1 .315 1.755 55 55 0 0 0-.314-1.756M119 60a55 55 0 0 1-55 55 55 55 0 0 1-2.89-.207l.015-.027-.018.027v8A55 55 0 0 0 64 123a55 55 0 0 0 55-55z" style="fill:url(#f);fill-opacity:1;stroke-width:1.5;stroke-linecap:round;stroke-linejoin:round;paint-order:markers stroke fill"/>
    <path d="m17.666 30.463-.049.01a55 55 0 0 0-1.832 3.273 55 55 0 0 1 1.881-3.283m-2.96 5.209a55 55 0 0 0-1.636 3.816 55 55 0 0 1 1.635-3.816m-2.466 5.795a55 55 0 0 0-1.263 4.246 55 55 0 0 1 1.263-4.246M10.453 47.5a55 55 0 0 0-.873 4.98 55 55 0 0 1 .873-4.98M9.37 53.701A55 55 0 0 0 9 60a55 55 0 0 1 .37-6.299M9 60v8a55 55 0 0 0 52.107 54.793v-8A55 55 0 0 1 9 60" style="fill:url(#g);fill-opacity:1;stroke-width:1.5;stroke-linecap:round;stroke-linejoin:round;paint-order:markers stroke fill"/>
    <path d="M64 5a55 55 0 0 0-46.066 24.994v.002A55 55 0 0 0 9 60a55 55 0 0 0 .072 1.012 55 55 0 0 1 8.862-29.016v-.002A55 55 0 0 1 64 7a55 55 0 0 1 49.027 30.107 55 55 0 0 1 5.909 23.8A55 55 0 0 0 119 60a55 55 0 0 0-5.973-24.893A55 55 0 0 0 64 5M39.203 61.037a25 25 0 0 0-.096.963 24.9 24.9 0 0 0 3.368 12.39l-.032.057v.002h.065A24.89 24.89 0 0 0 64 86.893a24.9 24.9 0 0 0 17.467-7.366l4.09-7.084h-.06A24.89 24.89 0 0 1 64 84.893a24.89 24.89 0 0 1-21.492-12.444h-.065v-.002l.032-.056a24.9 24.9 0 0 1-3.272-11.354m49.643.49a24.9 24.9 0 0 1-3.285 10.914l.001.002-.003.004-4.084 7.073a25 25 0 0 0 4.021-5.077h.06l-23.34 40.43h.003l23.34-40.426.004-.004-.002-.002A24.9 24.9 0 0 0 88.893 62a25 25 0 0 0-.047-.473" style="fill:#f9f9f9;fill-opacity:.6452198;stroke-width:1.5;stroke-linecap:round;stroke-linejoin:round;paint-order:markers stroke fill"/>
    <circle cx="64" cy="64" r="24.893" fill="#f1f1f1" style="fill:#000;stroke-width:.622328;fill-opacity:.29646924"/>
    <circle cx="64" cy="62" r="24.893" fill="#f1f1f1" style="fill:#999;stroke-width:.622328"/>
    <circle cx="64" cy="60" r="24.893" fill="#f1f1f1" style="fill:#e6e6e6;stroke-width:.622328"/>
    <circle cx="64" cy="60" r="19.914" fill="#4285f4" style="stroke-width:.622328"/>
    <path d="M64 35.107A24.893 24.893 0 0 0 39.107 60a25 25 0 0 0 .07 1A24.893 24.893 0 0 1 64 37.107 24.893 24.893 0 0 1 88.85 60.6a25 25 0 0 0 .043-.6A24.893 24.893 0 0 0 64 35.107" style="fill:#fff;stroke-width:.622328"/>
    <path d="M64 40.086A19.914 19.914 0 0 0 44.086 60a20 20 0 0 0 .072 1A19.914 19.914 0 0 1 64 42.086a19.914 19.914 0 0 1 19.865 18.596 20 20 0 0 0 .05-.682A19.914 19.914 0 0 0 64 40.086" style="stroke-width:.622328;fill:#000;fill-opacity:.20426662"/>
</svg>
