<svg xmlns="http://www.w3.org/2000/svg" xmlns:xlink="http://www.w3.org/1999/xlink" xml:space="preserve" width="128" height="128" viewBox="0 0 128 128">
    <defs>
        <linearGradient id="b">
            <stop offset="0" style="stop-color:#c6caf4;stop-opacity:1"/>
            <stop offset="1" style="stop-color:#7680f2;stop-opacity:1"/>
        </linearGradient>
        <linearGradient id="a">
            <stop offset="0" style="stop-color:#2a38d1;stop-opacity:1"/>
            <stop offset=".301" style="stop-color:#2a38d1;stop-opacity:1"/>
            <stop offset=".502" style="stop-color:#424ff0;stop-opacity:1"/>
            <stop offset=".701" style="stop-color:#2a38d1;stop-opacity:1"/>
            <stop offset="1" style="stop-color:#2a38d1;stop-opacity:1"/>
        </linearGradient>
        <linearGradient xlink:href="#a" id="c" x1="9" x2="119" y1="123" y2="123" gradientUnits="userSpaceOnUse"/>
        <linearGradient xlink:href="#b" id="d" x1="64" x2="64" y1="5" y2="115" gradientUnits="userSpaceOnUse"/>
        <clipPath id="f" clipPathUnits="userSpaceOnUse">
            <path d="M0 0h71v55H0Z"/>
        </clipPath>
        <filter id="e" width="1.169" height="1.303" x="-.085" y="-.192" style="color-interpolation-filters:sRGB">
            <feFlood flood-color="#101666" flood-opacity=".3" result="flood"/>
            <feGaussianBlur in="SourceGraphic" result="blur" stdDeviation="2.5"/>
            <feOffset dy="-4.408" in="blur" result="offset"/>
            <feComposite in="flood" in2="offset" operator="in" result="comp1"/>
            <feComposite in="SourceGraphic" in2="comp1" result="comp2"/>
        </filter>
    </defs>
    <path d="M64 5A55 55 0 0 0 9 60v8a55 55 0 0 0 55 55 55 55 0 0 0 55-55v-8A55 55 0 0 0 64 5" style="fill:url(#c);fill-opacity:1"/>
    <circle cx="64" cy="60" r="55" style="fill:url(#d);fill-opacity:1;stroke-width:1"/>
    <circle cx="64" cy="60" r="52.613" style="fill:#5865f2;fill-opacity:1;stroke-width:.956603"/>
    <g style="fill:#e0e3ff;fill-opacity:1;filter:url(#e)" transform="matrix(1.0633 0 0 -1.0633 26.253 91.11)">
        <g clip-path="url(#f)" style="fill:#e0e3ff;fill-opacity:1">
            <path d="M0 0c-3.498 0-6.38 3.212-6.38 7.156 0 3.945 2.826 7.156 6.38 7.156 3.583 0 6.437-3.24 6.381-7.156C6.381 3.212 3.583 0 0 0m-23.591 0c-3.499 0-6.381 3.212-6.381 7.156 0 3.945 2.826 7.156 6.381 7.156 3.582 0 6.436-3.24 6.38-7.156 0-3.944-2.827-7.156-6.38-7.156m36.378 32.428A58.6 58.6 0 0 1-1.665 36.91a.22.22 0 0 1-.232-.11 41 41 0 0 1-1.799-3.696c-5.457.817-10.887.817-16.232 0-.485 1.163-1.201 2.586-1.828 3.696a.23.23 0 0 1-.232.11 58.4 58.4 0 0 1-14.452-4.482.2.2 0 0 1-.095-.082C-45.739 18.594-48.261 5.181-47.024-8.066a.24.24 0 0 1 .092-.166c6.073-4.46 11.956-7.167 17.729-8.962a.23.23 0 0 1 .249.082 42 42 0 0 1 3.627 5.899.225.225 0 0 1-.123.313 39 39 0 0 0-5.538 2.639.228.228 0 0 0-.023.378c.373.279.745.57 1.1.862a.22.22 0 0 0 .23.032c11.619-5.306 24.199-5.306 35.682 0a.22.22 0 0 0 .231-.029 29 29 0 0 1 1.104-.865.228.228 0 0 0-.021-.378 36.3 36.3 0 0 0-5.541-2.636.227.227 0 0 1-.12-.316 47.4 47.4 0 0 1 3.624-5.896.225.225 0 0 1 .249-.085c5.802 1.795 11.685 4.502 17.757 8.962.054.04.087.098.093.164 1.48 15.314-2.48 28.618-10.497 40.411a.2.2 0 0 1-.093.085" style="fill:#e0e3ff;fill-opacity:1;fill-rule:nonzero;stroke:none" transform="translate(47.317 17.675)"/>
        </g>
    </g>
</svg>
