<svg xmlns="http://www.w3.org/2000/svg" xmlns:xlink="http://www.w3.org/1999/xlink" xml:space="preserve" width="128" height="128" viewBox="0 0 128 128">
    <defs>
        <linearGradient id="b">
            <stop offset="0" style="stop-color:#6868e5;stop-opacity:1"/>
            <stop offset="1" style="stop-color:#8484e5;stop-opacity:1"/>
        </linearGradient>
        <linearGradient id="a">
            <stop offset="0" style="stop-color:#4848c0;stop-opacity:1"/>
            <stop offset=".05" style="stop-color:#5f5fde;stop-opacity:1"/>
            <stop offset=".1" style="stop-color:#4848c0;stop-opacity:1"/>
            <stop offset=".9" style="stop-color:#4848c0;stop-opacity:1"/>
            <stop offset=".95" style="stop-color:#5f5fde;stop-opacity:1"/>
            <stop offset="1" style="stop-color:#4848c0;stop-opacity:1"/>
        </linearGradient>
        <linearGradient xlink:href="#a" id="c" x1="11.5" x2="116.5" y1="120.5" y2="120.5" gradientTransform="translate(5.431 5.918)scale(.91515)" gradientUnits="userSpaceOnUse"/>
        <linearGradient xlink:href="#b" id="d" x1="63.117" x2="63.115" y1="24.691" y2="120.381" gradientTransform="translate(.886 -4.187)" gradientUnits="userSpaceOnUse"/>
    </defs>
    <path d="M15.955 32v72.297a11.87 11.87 0 0 0 11.897 11.897h72.297a11.87 11.87 0 0 0 11.897-11.897V32Z" style="fill:url(#c);fill-opacity:1;stroke-width:.915153" transform="matrix(1.09234 0 0 1.0825 -5.91 -5.28)"/>
    <path d="M15.955 32v59.485a11.87 11.87 0 0 0 11.897 11.897h72.297a11.87 11.87 0 0 0 11.897-11.897V32Z" style="fill:url(#d);fill-opacity:1;stroke-width:.915153" transform="matrix(1.09234 0 0 1.0825 -5.91 -5.28)"/>
    <path d="M18.294 33.737V89.58c0 6.188 5.048 11.169 11.318 11.169H98.39c6.27 0 11.318-4.981 11.318-11.169V33.737z" style="fill:#6868e5;fill-opacity:1;stroke-width:.864843" transform="matrix(1.09234 0 0 1.0825 -5.91 -5.28)"/>
    <path d="M51.665 54.442v36.361l31.489-18.18v-4l-6.16.444z" style="fill:#4a4aac;fill-opacity:1;stroke-width:1.99085;stroke-linecap:round" transform="matrix(1.09234 0 0 1.0825 -5.91 -5.28)"/>
    <path d="M51.665 50.442v36.361l31.489-18.18v-4l-6.16.444z" style="fill:#8f8fe9;fill-opacity:1;stroke-width:1.99085;stroke-linecap:round" transform="matrix(1.09234 0 0 1.0825 -5.91 -5.28)"/>
    <path d="M27.722 16.5c-6.59.087-11.845 7.457-11.782 16.525l.036 5.071 96.086-1.27-.035-5.071c-.064-9.068-5.42-16.298-12.011-16.211z" style="fill:#4b4b9e;fill-opacity:.864737;stroke-width:2.68367;stroke-linecap:round" transform="matrix(1.09234 0 0 1.0825 -5.91 -5.28)"/>
    <path d="M27.72 12.687c-6.59.08-11.845 6.871-11.782 15.226l.036 4.672 96.086-1.17-.035-4.672c-.063-8.355-5.42-15.017-12.01-14.937z" style="fill:#c9c9f4;fill-opacity:1;stroke-width:2.57599;stroke-linecap:round" transform="matrix(1.09234 0 0 1.0825 -5.91 -5.28)"/>
    <path d="m28.632 12.676 7.492 19.664 11.342-.138-7.492-19.664zM51.32 12.4l7.492 19.664 11.344-.139-7.492-19.664zm22.688-.277L81.5 31.787l11.342-.138-7.492-19.664zm22.686-.276 7.492 19.664 7.875-.096-.035-4.672c-.063-8.355-5.42-15.017-12.01-14.937ZM19.09 17.544c-1.98 2.72-3.182 6.36-3.152 10.37l.036 4.671 8.806-.107z" style="fill:#6060c8;fill-opacity:1;stroke-width:2.57599;stroke-linecap:round" transform="matrix(1.09234 0 0 1.0825 -5.91 -5.28)"/>
    <path d="M200.29 60.312h-45.66l22.83-39.543z" style="fill:#eaeaf4;fill-opacity:1;stroke-width:2.5;stroke-linecap:round" transform="matrix(.75333 -.43102 .43494 .74654 -92.194 105.978)"/>
    <path d="m100.015 11.806-72.295.737c-6.59.067-11.844 5.746-11.781 12.732l.021 2.467c.205-6.736 5.343-12.13 11.762-12.195l72.295-.737c6.59-.067 11.946 5.504 12.01 12.49l.008.903h.025l-.035-3.906c-.063-6.987-5.42-12.558-12.01-12.49z" style="fill:#f4f4f4;fill-opacity:.299266;stroke-width:2.3556;stroke-linecap:round" transform="matrix(1.09234 0 0 1.0825 -5.91 -5.28)"/>
</svg>
