<svg xmlns="http://www.w3.org/2000/svg" xmlns:xlink="http://www.w3.org/1999/xlink" xml:space="preserve" width="128" height="128" viewBox="0 0 128 128">
    <defs>
        <linearGradient id="b">
            <stop offset="0" style="stop-color:#4f4f4f;stop-opacity:1"/>
            <stop offset="1" style="stop-color:#9c9c9c;stop-opacity:1"/>
        </linearGradient>
        <linearGradient id="a">
            <stop offset="0" style="stop-color:#232323;stop-opacity:1"/>
            <stop offset=".05" style="stop-color:#333;stop-opacity:1"/>
            <stop offset=".1" style="stop-color:#232323;stop-opacity:1"/>
            <stop offset=".9" style="stop-color:#232323;stop-opacity:1"/>
            <stop offset=".95" style="stop-color:#333;stop-opacity:1"/>
            <stop offset="1" style="stop-color:#232323;stop-opacity:1"/>
        </linearGradient>
        <linearGradient xlink:href="#a" id="c" x1="11.5" x2="116.5" y1="120.5" y2="120.5" gradientUnits="userSpaceOnUse"/>
        <linearGradient xlink:href="#b" id="g" x1="64" x2="64" y1="112.5" y2="7.5" gradientUnits="userSpaceOnUse"/>
        <linearGradient id="i" x1="0" x2="1" y1="0" y2="0" gradientTransform="matrix(3.08228 -10.3064 8.72379 3.56577 19.84 42.498)" gradientUnits="userSpaceOnUse">
            <stop offset="0" style="stop-color:#ff9700;stop-opacity:1"/>
            <stop offset=".53" style="stop-color:#f48e00;stop-opacity:1"/>
            <stop offset="1" style="stop-color:#d06f00;stop-opacity:1"/>
        </linearGradient>
        <filter id="h" width="1.2" height="1.218" x="-.1" y="-.077" style="color-interpolation-filters:sRGB">
            <feFlood flood-color="#000" flood-opacity=".345" result="flood"/>
            <feComposite in="flood" in2="SourceGraphic" operator="in" result="composite1"/>
            <feGaussianBlur in="composite1" result="blur" stdDeviation="1.5"/>
            <feOffset dy="3" result="offset"/>
            <feComposite in="SourceGraphic" in2="offset" result="composite2"/>
        </filter>
    </defs>
    <rect width="105" height="105" x="11.5" y="15.5" rx="13" ry="13" style="fill:url(#c);fill-opacity:1"/>
    <rect width="105" height="105" x="11.5" y="7.5" rx="13" ry="13" style="fill:url(#g);fill-opacity:1"/>
    <rect width="100.755" height="100.755" x="13.622" y="9.622" rx="12" ry="12" style="fill:#3f3f3f;fill-opacity:1;stroke-width:.959575"/>
    <g style="clip-rule:evenodd;fill-rule:evenodd;stroke-linejoin:round;stroke-miterlimit:1.41421;filter:url(#h)" transform="translate(33.524 15.26)scale(1.6931)">
        <path d="M35.995 26.563c0-.548-.405-.864-.902-.707L.902 36.698c-.498.158-.902.731-.902 1.278v11.081c0 .548.404.865.902.707l34.191-10.841c.497-.158.902-.731.902-1.279z" style="fill:url(#i)"/>
        <path d="M0 26.21c0 .548.404 1.121.902 1.279l34.196 10.843c.498.158.902-.159.902-.706V26.544c0-.547-.404-1.12-.902-1.278L.902 14.423c-.498-.158-.902.158-.902.706Z" style="fill:#ff9800"/>
        <path d="M35.995 3.793c0-.548-.405-.865-.902-.707L.902 13.927c-.498.158-.902.731-.902 1.279v11.081c0 .548.404.864.902.707l34.191-10.842c.497-.158.902-.731.902-1.278z" style="fill:#ff9800"/>
    </g>
</svg>
