<svg xmlns="http://www.w3.org/2000/svg" xmlns:xlink="http://www.w3.org/1999/xlink" xml:space="preserve" width="128" height="128" viewBox="0 0 128 128">
    <defs>
        <linearGradient id="c">
            <stop offset="0" style="stop-color:#dd1265;stop-opacity:1"/>
            <stop offset="1" style="stop-color:#fdb60d;stop-opacity:1"/>
        </linearGradient>
        <linearGradient id="b">
            <stop offset="0" style="stop-color:#e6e6e6;stop-opacity:.3492218"/>
            <stop offset="1" style="stop-color:#fff;stop-opacity:.85128891"/>
        </linearGradient>
        <linearGradient id="a">
            <stop offset="0" style="stop-color:#842944;stop-opacity:1"/>
            <stop offset=".05" style="stop-color:#b83658;stop-opacity:1"/>
            <stop offset=".1" style="stop-color:#82233e;stop-opacity:1"/>
            <stop offset=".338" style="stop-color:#872c3c;stop-opacity:1"/>
            <stop offset=".666" style="stop-color:#9d5c19;stop-opacity:1"/>
            <stop offset=".9" style="stop-color:#9b6410;stop-opacity:1"/>
            <stop offset=".95" style="stop-color:#c27e15;stop-opacity:1"/>
            <stop offset="1" style="stop-color:#9a6614;stop-opacity:1"/>
        </linearGradient>
        <linearGradient xlink:href="#a" id="e" x1="11.5" x2="116.5" y1="68" y2="68" gradientUnits="userSpaceOnUse"/>
        <linearGradient xlink:href="#b" id="i" x1="64" x2="64" y1="112.5" y2="7.5" gradientUnits="userSpaceOnUse"/>
        <linearGradient xlink:href="#c" id="h" x1="12.773" x2="108.029" y1="20.475" y2="115.731" gradientUnits="userSpaceOnUse"/>
        <linearGradient xlink:href="#a" id="d" x1="11.5" x2="116.5" y1="68" y2="68" gradientTransform="matrix(1 0 0 1.0762 0 -9.181)" gradientUnits="userSpaceOnUse"/>
        <clipPath id="f" clipPathUnits="userSpaceOnUse">
            <rect width="105" height="113" x="11.5" y="7.5" rx="13" ry="13.99" style="fill:url(#d);fill-opacity:1;stroke-width:1.0374"/>
        </clipPath>
        <filter id="g" width="1.686" height="1.686" x="-.343" y="-.343" style="color-interpolation-filters:sRGB">
            <feGaussianBlur result="blur" stdDeviation="15 15"/>
            <feColorMatrix result="colormatrix" values="1 0 0 0 0 0 1 0 0 0 0 0 1 0 0 0 0 0 50 0"/>
            <feComposite in="colormatrix" in2="SourceGraphic" operator="in"/>
        </filter>
    </defs>
    <rect width="105" height="105" x="11.5" y="15.5" rx="13" ry="13" style="fill:url(#e);fill-opacity:1"/>
    <g clip-path="url(#f)" style="filter:url(#g)">
        <rect width="105" height="105" x="11.5" y="7.5" rx="13" ry="13" style="fill:url(#h);fill-opacity:1"/>
        <circle cx="86.329" cy="37.671" r="28.048" style="fill:#087cfa;fill-opacity:1;stroke:none;stroke-width:2.72942;stroke-linecap:round"/>
        <circle cx="41.671" cy="82.384" r="28.048" style="fill:#be227b;fill-opacity:1;stroke:none;stroke-width:2.72942;stroke-linecap:round"/>
    </g>
    <path d="M24.5 7.5c-7.202 0-13 5.798-13 13v79c0 7.202 5.798 13 13 13h79c7.202 0 13-5.798 13-13v-79c0-7.202-5.798-13-13-13zm1.123 2.123h76.754c6.648 0 12 5.352 12 12v76.754c0 6.648-5.352 12-12 12H25.623c-6.648 0-12-5.352-12-12V21.623c0-6.648 5.352-12 12-12" style="fill:url(#i);fill-opacity:1"/>
    <path d="m181.645 13.729-28.7 19.33 10.67 65.931 27.52 10.578 11.511-9.35 18.069 9.51 28.23-16.488-10.674-22.812 10.674-19.348-18-9.988V31.85H220.46l-6.793-16.61-10.562 10.399z" style="fill:#000;fill-opacity:1" transform="matrix(.8 0 0 .8 -98.754 12.922)"/>
    <path fill="#fff" d="M43.987 77.329h18v3h-18zm.016-32.992h8.24a7.2 7.2 0 0 1 5.256 1.832 5.66 5.66 0 0 1 1.552 4.128v.048a5.6 5.6 0 0 1-3.872 5.6l4.416 6.448h-4.648l-3.864-5.776h-3.08v5.776h-4zm8 8.8c1.936 0 3.048-1.032 3.048-2.552v-.048c0-1.704-1.184-2.584-3.12-2.584h-3.928v5.184zm10.344-8.8h7.04c5.672 0 9.6 3.896 9.6 8.976v.056c0 5.08-3.92 9.024-9.6 9.024h-7.04zm4 3.584v10.88h3.072a5.144 5.144 0 0 0 5.44-5.392v-.048a5.19 5.19 0 0 0-5.44-5.448z"/>
</svg>
