<svg xmlns="http://www.w3.org/2000/svg" xmlns:xlink="http://www.w3.org/1999/xlink" xml:space="preserve" width="128" height="128" viewBox="0 0 128 128">
    <defs>
        <linearGradient id="c">
            <stop offset="0" style="stop-color:#21d789;stop-opacity:1"/>
            <stop offset="1" style="stop-color:#087cfa;stop-opacity:1"/>
        </linearGradient>
        <linearGradient id="b">
            <stop offset="0" style="stop-color:#e6e6e6;stop-opacity:.34951058"/>
            <stop offset="1" style="stop-color:#fff;stop-opacity:.84514076"/>
        </linearGradient>
        <linearGradient id="a">
            <stop offset="0" style="stop-color:#166e77;stop-opacity:1"/>
            <stop offset=".05" style="stop-color:#138392;stop-opacity:1"/>
            <stop offset=".1" style="stop-color:#0b606f;stop-opacity:1"/>
            <stop offset=".9" style="stop-color:#184da4;stop-opacity:1"/>
            <stop offset=".95" style="stop-color:#2169dc;stop-opacity:1"/>
            <stop offset="1" style="stop-color:#2155ad;stop-opacity:1"/>
        </linearGradient>
        <linearGradient xlink:href="#a" id="e" x1="11.5" x2="116.5" y1="120.5" y2="120.5" gradientUnits="userSpaceOnUse"/>
        <linearGradient xlink:href="#b" id="n" x1="64" x2="64" y1="112.5" y2="7.5" gradientUnits="userSpaceOnUse"/>
        <linearGradient xlink:href="#c" id="k" x1="12.773" x2="108.029" y1="20.475" y2="115.731" gradientUnits="userSpaceOnUse"/>
        <linearGradient xlink:href="#a" id="d" x1="11.5" x2="116.5" y1="120.5" y2="120.5" gradientTransform="matrix(.99965 0 0 1.07584 .023 -9.157)" gradientUnits="userSpaceOnUse"/>
        <clipPath id="f" clipPathUnits="userSpaceOnUse">
            <rect width="104.963" height="112.963" x="11.519" y="7.519" rx="12.995" ry="13.986" style="fill:url(#d);fill-opacity:1;stroke:#000;stroke-width:1.03705;stroke-opacity:0"/>
        </clipPath>
        <filter id="h" width="1.686" height="1.686" x="-.343" y="-.343" style="color-interpolation-filters:sRGB">
            <feGaussianBlur result="blur" stdDeviation="15 15"/>
            <feColorMatrix result="colormatrix" values="1 0 0 0 0 0 1 0 0 0 0 0 1 0 0 0 0 0 50 0"/>
            <feComposite in="colormatrix" in2="SourceGraphic" operator="in"/>
        </filter>
    </defs>
    <rect width="105" height="105" x="11.5" y="15.5" rx="13" ry="13" style="fill:url(#e);fill-opacity:1;stroke:#000;stroke-opacity:0"/>
    <g clip-path="url(#f)" style="filter:url(#h)">
        <rect width="105" height="105" x="11.5" y="7.5" rx="13" ry="13" style="fill:url(#k);fill-opacity:1"/>
        <circle cx="86.329" cy="37.671" r="28.048" style="fill:#fcf84a;fill-opacity:1;stroke:none;stroke-width:2.72942;stroke-linecap:round"/>
    </g>
    <path d="M24.5 7.5c-7.202 0-13 5.798-13 13v79c0 7.202 5.798 13 13 13h79c7.202 0 13-5.798 13-13v-79c0-7.202-5.798-13-13-13zm1.123 2.123h76.754c6.648 0 12 5.352 12 12v76.754c0 6.648-5.352 12-12 12H25.623c-6.648 0-12-5.352-12-12V21.623c0-6.648 5.352-12 12-12" style="fill:url(#n);fill-opacity:1"/>
    <path d="m64.398 98.182 3.136-14.915h19.733v-4.218l14.915-5.606V39.954L74.898 21.818l-21.242 6.678-12.088-6.678-2.945 11.405-12.805 4.026 7.055 18.247-6.34 24.549 17.58 18.137Z" style="fill:#000;fill-opacity:1;stroke:#000;stroke-width:2;stroke-linecap:round;stroke-opacity:0"/>
    <path d="m180.522 54.248 2.812-3.393c1.939 1.648 4.071 2.617 6.495 2.617 1.939 0 3.199-.775 3.199-2.035v-.097c0-1.26-.776-1.842-4.363-2.811-4.46-1.067-7.27-2.327-7.27-6.69v-.097c0-3.975 3.199-6.592 7.658-6.592 3.199 0 5.914.97 8.144 2.811l-2.521 3.587c-1.939-1.357-3.878-2.132-5.72-2.132s-2.811.872-2.811 1.939v.096c0 1.455.97 1.94 4.75 2.909 4.46 1.163 6.98 2.714 6.98 6.592v.097c0 4.362-3.296 6.786-8.046 6.786-3.296-.097-6.69-1.26-9.307-3.587m-22.373-18.524v21.824l8.506-.161c6.9 0 11.553-4.815 11.553-10.913s-4.654-10.75-11.553-10.75zm4.814 4.493h3.692c4.011 0 6.58 2.728 6.58 6.58 0 3.85-2.73 6.418-6.58 6.418h-3.692zm16.589 36.199h-21.651v3.555h21.651z" style="stroke-width:.596591;fill:#fff" transform="matrix(.8 0 0 .8 -80.418 14.12)"/>
</svg>
