<svg xmlns="http://www.w3.org/2000/svg" xmlns:xlink="http://www.w3.org/1999/xlink" xml:space="preserve" width="128" height="128" viewBox="0 0 128 128">
    <defs>
        <linearGradient id="a">
            <stop offset="0" style="stop-color:#3584e4;stop-opacity:1"/>
            <stop offset=".041" style="stop-color:#5e9de9;stop-opacity:1"/>
            <stop offset=".083" style="stop-color:#3584e4;stop-opacity:1"/>
            <stop offset=".305" style="stop-color:#3584e4;stop-opacity:1"/>
            <stop offset=".4" style="stop-color:#5e9de9;stop-opacity:1"/>
            <stop offset=".483" style="stop-color:#3584e4;stop-opacity:1"/>
            <stop offset=".678" style="stop-color:#3584e4;stop-opacity:1"/>
            <stop offset=".72" style="stop-color:#5e9de9;stop-opacity:1"/>
            <stop offset=".767" style="stop-color:#3584e4;stop-opacity:1"/>
            <stop offset=".891" style="stop-color:#3584e4;stop-opacity:1"/>
            <stop offset=".942" style="stop-color:#5e9de9;stop-opacity:1"/>
            <stop offset="1" style="stop-color:#3584e4;stop-opacity:1"/>
        </linearGradient>
        <linearGradient xlink:href="#a" id="b" x1="23.174" x2="115.174" y1="68.836" y2="68.836" gradientTransform="translate(-12.948 -13.13)scale(1.1413)" gradientUnits="userSpaceOnUse"/>
    </defs>
    <path d="M113.248 70.459v5.51h5.252v-5.51z" style="fill:#3584e4;stroke-width:0"/>
    <path fill="#2e3436" d="M54.75 12.933c-6.24 0-11.25 5.01-11.25 11.25v11.25H21c-4.16 0-7.5 3.34-7.5 7.5v22.5h11.25c6.24 0 11.25 5.01 11.25 11.25s-5.01 11.25-11.25 11.25H13.5v22.5c0 4.16 3.34 7.5 7.5 7.5h22.5v-11.25c0-6.24 5.01-11.25 11.25-11.25S66 100.443 66 106.683v11.25h22.5c4.16 0 7.5-3.34 7.5-7.5v-22.5h11.25c6.24 0 11.25-5.01 11.25-11.25s-5.01-11.25-11.25-11.25H96v-22.5c0-4.16-3.34-7.5-7.5-7.5H66v-11.25c0-6.24-5.01-11.25-11.25-11.25m0 0" style="fill:url(#b);fill-opacity:1;stroke:none;stroke-width:7.49998"/>
    <path d="M54.75 6.066c-6.24 0-11.25 5.012-11.25 11.252v11.25H21c-4.16 0-7.5 3.338-7.5 7.498v22.5H96v-22.5c0-4.16-3.34-7.498-7.5-7.498H66v-11.25c0-6.24-5.01-11.252-11.25-11.252" style="fill:#62a0ea;fill-opacity:1;stroke:none;stroke-width:7.49998"/>
    <path d="M24.75 58.566c6.24 0 11.25 5.012 11.25 11.252s-5.01 11.25-11.25 11.25H13.5v22.498c0 4.16 3.34 7.5 7.5 7.5h22.5v-11.25c0-6.24 5.01-11.25 11.25-11.25S66 93.576 66 99.816v11.25h22.5c4.16 0 7.5-3.34 7.5-7.5V81.068h11.25c6.24 0 11.25-5.01 11.25-11.25s-5.01-11.252-11.25-11.252z" style="fill:#99c1f1;fill-opacity:1;stroke-width:0"/>
    <path d="M24.75 58.567H13.5v6.866h11.345z" style="fill:#3584e4;fill-opacity:1;stroke-width:0"/>
    <path d="M24.75 58.566c6.24 0 11.25 5.012 11.25 11.252s-5.01 11.25-11.25 11.25H13.5v22.498c0 4.16 3.34 7.5 7.5 7.5h22.5v-11.25c0-6.24 5.01-11.25 11.25-11.25v-30z" style="opacity:1;fill:#62a0ea;stroke:none;stroke-width:14.1988;stroke-linecap:square;stroke-linejoin:round;paint-order:markers stroke fill;fill-opacity:1"/>
    <path d="M54.75 6.066c-6.24 0-11.25 5.012-11.25 11.252v11.25H21c-4.16 0-7.5 3.338-7.5 7.498v22.5h41.25z" style="opacity:1;fill:#8ab9ff;stroke:none;stroke-width:14.1988;stroke-linecap:square;stroke-linejoin:round;paint-order:markers stroke fill;fill-opacity:1"/>
</svg>
