<svg xmlns="http://www.w3.org/2000/svg" xmlns:xlink="http://www.w3.org/1999/xlink" xml:space="preserve" width="128" height="128" viewBox="0 0 128 128">
    <defs>
        <linearGradient id="b">
            <stop offset="0" style="stop-color:#bd1fda;stop-opacity:1"/>
            <stop offset="1" style="stop-color:#fb285d;stop-opacity:1"/>
        </linearGradient>
        <linearGradient id="a">
            <stop offset="0" style="stop-color:#fc801d;stop-opacity:1"/>
            <stop offset="1" style="stop-color:#f12671;stop-opacity:1"/>
        </linearGradient>
        <linearGradient xlink:href="#a" id="d" x1="13.456" x2="64.983" y1="93.761" y2="64.012" gradientUnits="userSpaceOnUse"/>
        <linearGradient xlink:href="#b" id="c" x1="91.85" x2="38.453" y1="19.744" y2="50.573" gradientUnits="userSpaceOnUse"/>
    </defs>
    <path d="M30.133 45.155a7 7 45 0 0-.239.576 7 7 0 0 0-.375.906 7 7 45 0 0-.26 1.565l-.054 24.49v5.732l-.001 3.029v.007l.004.02a7 7 45 0 0 .372 2.107 7 7 45 0 0 .245.589 7 7 45 0 0 .798 1.38 7 7 45 0 0 .392.51 7 7 45 0 0 1.652 1.387h.002L53.514 99.49l4.964 2.866 2.625 1.515a7 7 45 0 0 2.029.74 7 7 45 0 0 .642.083 7 7 45 0 0 1.59 0 7 7 45 0 0 .636-.084 7 7 45 0 0 2.031-.74l19.303-11.144 4.957-2.862.004-.002 2.55-1.472 1.62-.936v-.001a7 7 45 0 0 1.662-1.395 7 7 0 0 0 .376-.49 7 7 45 0 0 .812-1.406 7 7 0 0 0 .237-.572 7 7 45 0 0 .377-2.136V48.62a6.9 6.9 45 0 0-.413-2.355l-.012-.03a6.9 6.9 45 0 0-1.187-2.055l-.017-.023a6.9 6.9 45 0 0-1.834-1.538L78.708 32.367 73.745 29.5l-5.713-3.298h-.001a7 7 45 0 0-.393-.21l-.108-.05a7 7 45 0 0-.293-.13l-.148-.06a7 7 45 0 0-.272-.1l-.144-.05a7 7 45 0 0-.406-.117l-.005-.001-.096-.022a7 7 45 0 0-.332-.071l-.16-.027a7 7 45 0 0-.299-.041l-.135-.015a7 7 45 0 0-.299-.022l-.171-.009h-.012a7 7 45 0 0-.399 0l-.145.008a7 7 45 0 0-.28.018l-.198.023a7 7 45 0 0-.256.035l-.174.03a7 7 45 0 0-.246.051l-.194.044-.05.014a7 7 45 0 0-.35.101l-.103.034a7 7 45 0 0-.316.114l-.148.061a7 7 45 0 0-.26.114l-.145.069a7 7 45 0 0-.303.16l-.075.04-.014.009L41.8 37.347l-.04.022-.082.048-4.826 2.823-4.55 2.662-.005.002-.011.009a7 7 45 0 0-1.187.982 7 7 0 0 0-.73.95 7 7 45 0 0-.236.31m-.07 29.23a10 10 0 0 0-.64 1.975l-.001-.001a10 10 0 0 1 .641-1.973M84.386 90.71a10 10 0 0 0 1.223.328h-.001a10 10 0 0 1-1.222-.328" style="fill:#333;stroke-width:1.34" transform="rotate(60 107.497 52.853)scale(1.47758)"/>
    <path d="M54.842 55.357h16.724V70.38H54.842z" style="fill:#ea267f;fill-opacity:1;stroke:#000;stroke-width:2;stroke-linecap:round;stroke-opacity:0"/>
    <path d="m13.035 35.18.1.13a10.2 10.2 0 0 0 2.455 2.06v.002l2.395 1.383 3.767 2.176.006.003 7.324 4.228L57.604 61.63a10.2 10.2 0 0 0 3.001 1.093 10 10 0 0 0 .94.125 10.2 10.2 0 0 0 2.35-.001 10 10 0 0 0 .948-.123 10.2 10.2 0 0 0 2.998-1.093l3.878-2.24 7.334-4.234 30.802-17.783h.002l5.108-2.95a10 10 0 0 0-.6-1.039 10 10 0 0 0-.457-.597l-.099-.128-.136-.176-.173-.144a10.2 10.2 0 0 0-2.146-1.74l-1.448-.837-.093.035-4.641-2.715-7.13-4.171-.123-.072-.057-.032L69.34 6.34l-.02-.013-.11-.058a10 10 0 0 0-.45-.237l-.214-.102a10 10 0 0 0-.383-.169l-.22-.09a10 10 0 0 0-.466-.168l-.151-.05a10 10 0 0 0-.52-.15l-.072-.02a10 10 0 0 0-.286-.065 10 10 0 0 0-.364-.077l-.257-.043a10 10 0 0 0-.378-.052 10 10 0 0 0-.294-.033 10 10 0 0 0-.413-.028l-.214-.012a10 10 0 0 0-.59 0h-.017l-.254.014a10 10 0 0 0-.441.032l-.2.022a10 10 0 0 0-.442.062l-.235.038a10 10 0 0 0-.491.106l-.142.032-.008.002a10 10 0 0 0-.6.173l-.212.073a10 10 0 0 0-.401.148l-.22.089a10 10 0 0 0-.432.193l-.16.074a10 10 0 0 0-.58.308l-.002.001-8.442 4.874-7.332 4.234-26.24 15.149a10.2 10.2 0 0 0-2.71 2.272l-.027.034a10.2 10.2 0 0 0-1.315 2.277m18.595 7.49a15 15 0 0 0 1.809-.485 15 15 0 0 1-1.806.485z" style="fill:url(#c);stroke-width:1.97996"/>
    <path d="m114.309 33.941-.163.022a10.2 10.2 0 0 0-3.011 1.096h-.002l-2.395 1.382-3.767 2.174-.006.004-7.324 4.229-28.522 16.466a10.2 10.2 0 0 0-2.447 2.053 10 10 0 0 0-.578.752 10.2 10.2 0 0 0-1.174 2.035 10 10 0 0 0-.367.883A10.2 10.2 0 0 0 64 68.18v54.414a10 10 0 0 0 1.2 0 10 10 0 0 0 .745-.098l.16-.021.221-.03.211-.078a10.2 10.2 0 0 0 2.58-.988l1.45-.836.015-.098 4.672-2.662 7.178-4.09.123-.07.056-.033 28.522-16.467.021-.012.106-.066a10 10 0 0 0 .43-.27l.195-.134a10 10 0 0 0 .338-.248l.187-.145a10 10 0 0 0 .38-.32l.118-.106a10 10 0 0 0 .389-.375l.055-.052a10 10 0 0 0 .199-.215 10 10 0 0 0 .248-.278l.166-.2a10 10 0 0 0 .234-.302 10 10 0 0 0 .176-.238 10 10 0 0 0 .23-.344l.118-.18a10 10 0 0 0 .295-.51l.007-.015.116-.226a10 10 0 0 0 .193-.399l.08-.183a10 10 0 0 0 .168-.414l.084-.223a10 10 0 0 0 .154-.479l.043-.138.002-.008a10 10 0 0 0 .15-.606l.044-.22a10 10 0 0 0 .072-.422l.033-.234a10 10 0 0 0 .049-.471l.016-.176a10 10 0 0 0 .023-.656V39.742a10.2 10.2 0 0 0-.613-3.482l-.016-.041a10.2 10.2 0 0 0-1.314-2.278m-15.784 12.36a15 15 0 0 0-.484 1.808 15 15 0 0 1 .482-1.806z" style="fill:#000;stroke-width:1.97996;fill-opacity:1"/>
    <path fill="#fff" d="m92.397 91.224-19.61 11.28v-7.19l19.61-11.28z"/>
    <path d="M13.693 33.941a10.2 10.2 0 0 0-1.029 1.784 10 10 0 0 0-.363.879 10.2 10.2 0 0 0-.553 3.138v48.516a10.2 10.2 0 0 0 .553 3.142 10 10 0 0 0 .367.883 10.2 10.2 0 0 0 1.174 2.035 10 10 0 0 0 .578.752 10.2 10.2 0 0 0 2.447 2.053L45.39 113.59l7.324 4.228.006.004 3.767 2.174.948.547 1.447.836h.002a10 10 0 0 0 1.31.598 10 10 0 0 0 .319.115 10 10 0 0 0 1.383.383l.162.021a10 10 0 0 0 .744.098 10 10 0 0 0 1.199 0V68.18a10 10 0 0 0-.023-.657l-.016-.175a10 10 0 0 0-.049-.471l-.033-.234a10 10 0 0 0-.072-.422L63.764 66a10 10 0 0 0-.15-.605l-.003-.008-.043-.139a10 10 0 0 0-.154-.478l-.084-.223a10 10 0 0 0-.168-.414l-.08-.184a10 10 0 0 0-.193-.398l-.116-.227-.007-.015a10 10 0 0 0-.295-.51l-.117-.18a10 10 0 0 0-.231-.344 10 10 0 0 0-.176-.238 10 10 0 0 0-.234-.3l-.166-.202a10 10 0 0 0-.248-.277 10 10 0 0 0-.2-.215l-.054-.053a10 10 0 0 0-.389-.375l-.119-.105a10 10 0 0 0-.379-.32l-.187-.145a10 10 0 0 0-.338-.248l-.196-.135a10 10 0 0 0-.43-.27l-.105-.066-.021-.012-28.522-16.466-.056-.034-.123-.07-7.178-4.09-6.768-3.857-.005-.004-.02-.008a10.2 10.2 0 0 0-2.135-.793 10 10 0 0 0-.38-.05m32.096 74.387a15 15 0 0 0 .484 1.809l-.002-.002a15 15 0 0 1-.482-1.807" style="fill:url(#d);stroke-width:1.97996"/>
    <path d="M64 122.75a10.24 10.24 0 0 1-5.118-1.37L16.867 97.122a10.24 10.24 0 0 1-5.12-8.865v-6a10.24 10.24 0 0 0 5.12 8.865l42.015 24.258a10.24 10.24 0 0 0 10.237 0l42.013-24.258a10.24 10.24 0 0 0 5.12-8.865v6a10.24 10.24 0 0 1-5.12 8.865L69.12 121.38a10.24 10.24 0 0 1-5.12 1.37" style="fill:#333;fill-opacity:.50082278;stroke-width:1.97996"/>
</svg>
