<svg xmlns="http://www.w3.org/2000/svg" xmlns:xlink="http://www.w3.org/1999/xlink" xml:space="preserve" width="128" height="128" viewBox="0 0 128 128">
    <defs>
        <linearGradient id="a">
            <stop offset="0" style="stop-color:#144375;stop-opacity:1"/>
            <stop offset="1" style="stop-color:#2b5f98;stop-opacity:1"/>
        </linearGradient>
        <linearGradient id="b">
            <stop offset="0" style="stop-color:#0c2644;stop-opacity:1"/>
            <stop offset=".1" style="stop-color:#103661;stop-opacity:1"/>
            <stop offset=".199" style="stop-color:#0c2644;stop-opacity:1"/>
            <stop offset=".801" style="stop-color:#0c2644;stop-opacity:1"/>
            <stop offset=".904" style="stop-color:#103661;stop-opacity:1"/>
            <stop offset="1" style="stop-color:#0c2644;stop-opacity:1"/>
        </linearGradient>
        <linearGradient id="c">
            <stop offset="0" style="stop-color:#144275;stop-opacity:1"/>
            <stop offset="1" style="stop-color:#081a41;stop-opacity:1"/>
        </linearGradient>
        <linearGradient xlink:href="#a" id="e" x1="64" x2="64" y1="112.5" y2="7.5" gradientUnits="userSpaceOnUse"/>
        <linearGradient xlink:href="#b" id="d" x1="11.5" x2="116.5" y1="68" y2="68" gradientTransform="translate(0 2)" gradientUnits="userSpaceOnUse"/>
        <linearGradient xlink:href="#c" id="f" x1="64" x2="64" y1="112.5" y2="7.5" gradientTransform="translate(2.971 2.786)scale(.95357)" gradientUnits="userSpaceOnUse"/>
    </defs>
    <g transform="translate(0 -1)">
        <rect width="105" height="105" x="11.5" y="17.5" rx="16" ry="16" style="fill:url(#d);fill-opacity:1"/>
        <rect width="105" height="105" x="11.5" y="7.5" rx="16" ry="16" style="fill:url(#e);fill-opacity:1"/>
        <path d="M64 83.104V79.51" style="fill:#fff;fill-opacity:1;stroke-width:.216779"/>
        <rect width="100.125" height="100.125" x="13.938" y="9.938" rx="15" ry="15" style="fill:url(#f);fill-opacity:1;stroke-width:.953571"/>
        <path d="M87.262 28.541c-11.553 0-20.95 9.408-20.95 20.972q-.002.141.004.273L52.82 69.382c-2.187-.1-4.383.283-6.463 1.14-.917.373-1.775.832-2.581 1.362L15.803 60.376V81.13l.506.293 20.952 8.64c1.052 4.7 4.277 8.82 9.036 10.803 7.785 3.25 16.762-.454 20-8.237a15.35 15.35 0 0 0 1.179-6.298L86.79 72.539q.235.008.472.01c11.557 0 20.952-9.417 20.952-20.98 0-.347-.036-.685-.052-1.028.016-.343.052-.68.052-1.028 0-11.564-9.395-20.972-20.952-20.972m0 9.056c7.352 0 13.382 5.722 13.91 12.944-.528 7.227-6.558 12.95-13.91 12.95-7.348 0-13.376-5.723-13.906-12.95.53-7.222 6.558-12.944 13.906-12.944m.024 1.395c-5.786 0-10.483 4.704-10.483 10.501q.001.52.052 1.028-.05.507-.052 1.027c0 5.799 4.697 10.496 10.483 10.496 5.79 0 10.487-4.697 10.487-10.496q-.002-.52-.052-1.027.05-.507.052-1.028c0-5.797-4.697-10.501-10.487-10.501m-34.98 35.935c1.474.012 2.969.304 4.414.905a11.7 11.7 0 0 1 6.372 6.407c.46 1.12.738 2.283.843 3.456a11.8 11.8 0 0 1-.863 3.525c-2.506 6.014-9.421 8.867-15.433 6.364a11.6 11.6 0 0 1-4.146-2.936l4.893 2.025a8.69 8.69 0 0 0 11.966-9.064c.448-3.764-1.615-7.518-5.284-9.046l-3.852-1.594q.542-.046 1.09-.042" style="fill:#0c2751;fill-opacity:1;stroke-width:.473315"/>
        <path d="M87.262 25.954c-11.553 0-20.95 9.408-20.95 20.972q-.002.141.004.273L52.82 66.794a15.15 15.15 0 0 0-6.463 1.14c-.917.374-1.775.833-2.581 1.363L15.803 57.79v18.7l.506.293 20.952 8.64c1.052 4.699 4.277 8.82 9.036 10.803 7.785 3.25 16.762-.454 20-8.238a15.35 15.35 0 0 0 1.179-6.298L86.79 67.896q.235.009.472.01c11.557 0 20.952-9.417 20.952-20.98s-9.395-20.972-20.952-20.972m0 7c7.698 0 13.963 6.271 13.963 13.972 0 7.707-6.265 13.978-13.963 13.978-7.694 0-13.958-6.271-13.958-13.978 0-7.7 6.264-13.971 13.958-13.971m.024 3.45c-5.786 0-10.483 4.704-10.483 10.502S81.5 57.401 87.286 57.401c5.79 0 10.487-4.697 10.487-10.495s-4.697-10.501-10.487-10.501m-34.98 33.88a11.7 11.7 0 0 1 4.414.906 11.7 11.7 0 0 1 6.372 6.407 11.75 11.75 0 0 1-.02 9.036c-2.506 6.014-9.421 8.867-15.433 6.364-2.773-1.154-4.865-3.268-6.073-5.79l6.82 2.824a8.69 8.69 0 0 0 11.362-4.685 8.694 8.694 0 0 0-4.68-11.37l-7.051-2.918a11.8 11.8 0 0 1 4.289-.773" style="fill:#f9f9f9;stroke-width:.473315"/>
    </g>
</svg>
