<svg xmlns="http://www.w3.org/2000/svg" xmlns:xlink="http://www.w3.org/1999/xlink" xml:space="preserve" width="128" height="128" viewBox="0 0 128 128">
    <defs>
        <linearGradient id="b">
            <stop offset="0" style="stop-color:#f4f4f4;stop-opacity:1"/>
            <stop offset="1" style="stop-color:#fff;stop-opacity:1"/>
        </linearGradient>
        <linearGradient id="a">
            <stop offset="0" style="stop-color:#999;stop-opacity:1"/>
            <stop offset=".05" style="stop-color:#b3b3b3;stop-opacity:1"/>
            <stop offset=".1" style="stop-color:#999;stop-opacity:1"/>
            <stop offset=".9" style="stop-color:#999;stop-opacity:1"/>
            <stop offset=".95" style="stop-color:#b3b3b3;stop-opacity:1"/>
            <stop offset="1" style="stop-color:#999;stop-opacity:1"/>
        </linearGradient>
        <linearGradient xlink:href="#a" id="c" x1="11.5" x2="116.5" y1="120.5" y2="120.5" gradientUnits="userSpaceOnUse"/>
        <linearGradient xlink:href="#b" id="d" x1="64" x2="64" y1="112.5" y2="7.5" gradientUnits="userSpaceOnUse"/>
        <linearGradient id="e" x1="199.997" x2="296.665" y1="214.302" y2="307.573" gradientTransform="translate(-140.288 -154.932)scale(.81716)" gradientUnits="userSpaceOnUse">
            <stop offset="0" stop-color="#62a0ea"/>
            <stop offset="1" stop-color="#1a5fb4"/>
        </linearGradient>
        <filter id="f" width="1.147" height="1.184" x="-.073" y="-.075" style="color-interpolation-filters:sRGB">
            <feFlood flood-color="#000" flood-opacity=".545" result="flood"/>
            <feComposite in="SourceGraphic" in2="flood" operator="in" result="composite1"/>
            <feGaussianBlur in="composite1" result="blur" stdDeviation="2.5"/>
            <feOffset dy="2.615" result="offset"/>
            <feComposite in="SourceGraphic" in2="offset" result="composite2"/>
        </filter>
    </defs>
    <rect width="105" height="105" x="11.5" y="15.5" rx="13" ry="13" style="fill:url(#c);fill-opacity:1"/>
    <rect width="105" height="105" x="11.5" y="7.5" rx="13" ry="13" style="fill:url(#d);fill-opacity:1"/>
    <rect width="100.755" height="100.755" x="13.622" y="9.622" rx="12" ry="12" style="fill:#e6e6e6;fill-opacity:1;stroke-width:.959575"/>
    <path fill="url(#e)" d="M62.58 20.982a4.996 4.996 0 0 0-1.501 6.92c8.26 12.792 10.21 22.441 9.364 30.897-3.419 16.193-10.85 19.478-17.346 19.478-6.34 0-4.643-10.436.124-13.49 2.845-1.777 6.49-2.932 9.287-2.932 2.772 0 5.019-2.24 5.019-5.003a5.01 5.01 0 0 0-5.02-5.005c-3.266 0-6.471.687-9.463 1.855.612-2.883.837-6 .047-9.313-1.2-5.03-4.653-9.835-10.65-14.493a5.025 5.025 0 0 0-7.044.87 4.996 4.996 0 0 0 .88 7.024c4.886 3.794 6.499 6.602 7.05 8.914s.108 4.792-1 8.2c-1.416 4.592-3.06 8.692-3.78 12.623-.355 1.935-.386 4.04-.477 5.723-3.518-3.428-4.895-7.955-4.895-14.57a5.01 5.01 0 0 0-5.019-5.004 5.01 5.01 0 0 0-5.014 5.004c0 9.034 2.642 17.63 9.723 23.366 6.41 6.106 22.71 3.85 22.71 13.653 0 2.767 4.05 4.113 6.82 4.113 2.842 0 6.419-1.9 6.419-4.113 0-11.124 11.722-17.884 31.02-17.854a5.01 5.01 0 0 0 5.024-4.998 5.01 5.01 0 0 0-5.01-5.014 64 64 0 0 0-3.873.118c2.157-5.074 3.114-10.66 2.916-16.694a5.014 5.014 0 0 0-5.18-4.838 5.01 5.01 0 0 0-4.854 5.17c.262 7.9-.034 14.954-5.92 18.673-1.674 1.057-3.62 1.974-5.464 1.974 1.432-3.897 2.514-8.01 2.957-12.443.283-2.829.313-6.19-.01-8.8-.5-4.045-1.106-8.633.43-12.089 1.38-2.976 4.47-4.222 9.007-4.222a5.01 5.01 0 0 0 5.015-5.003 5.01 5.01 0 0 0-5.015-5.01c-6.743 0-11.854 3.55-14.752 7.837-1.515-3.236-3.36-6.57-5.59-10.023a5.02 5.02 0 0 0-3.153-2.18 5.03 5.03 0 0 0-3.781.68" style="fill:url(#e);stroke-width:.817161;filter:url(#f)"/>
</svg>
