<svg xmlns="http://www.w3.org/2000/svg" xmlns:xlink="http://www.w3.org/1999/xlink" xml:space="preserve" width="128" height="128" viewBox="0 0 128 128">
    <defs>
        <linearGradient id="c">
            <stop offset="0" style="stop-color:#ff318c;stop-opacity:1"/>
            <stop offset="1" style="stop-color:#6b57ff;stop-opacity:1"/>
        </linearGradient>
        <linearGradient id="b">
            <stop offset="0" style="stop-color:#e6e6e6;stop-opacity:.34688869"/>
            <stop offset="1" style="stop-color:#fff;stop-opacity:.84971583"/>
        </linearGradient>
        <linearGradient id="a">
            <stop offset="0" style="stop-color:#6f2b6d;stop-opacity:1"/>
            <stop offset=".05" style="stop-color:#9a3aa2;stop-opacity:1"/>
            <stop offset=".1" style="stop-color:#792f87;stop-opacity:1"/>
            <stop offset=".9" style="stop-color:#443395;stop-opacity:1"/>
            <stop offset=".95" style="stop-color:#5e4ad2;stop-opacity:1"/>
            <stop offset="1" style="stop-color:#5040a8;stop-opacity:1"/>
        </linearGradient>
        <linearGradient xlink:href="#a" id="e" x1="11.5" x2="116.5" y1="120.5" y2="120.5" gradientUnits="userSpaceOnUse"/>
        <linearGradient xlink:href="#b" id="h" x1="64" x2="64" y1="112.5" y2="7.5" gradientUnits="userSpaceOnUse"/>
        <linearGradient xlink:href="#c" id="g" x1="12.773" x2="108.029" y1="20.475" y2="115.731" gradientUnits="userSpaceOnUse"/>
        <linearGradient xlink:href="#a" id="d" x1="11.5" x2="116.5" y1="120.5" y2="120.5" gradientTransform="matrix(1 0 0 1.0762 0 -9.181)" gradientUnits="userSpaceOnUse"/>
        <clipPath id="f" clipPathUnits="userSpaceOnUse">
            <rect width="105" height="113" x="11.5" y="7.5" rx="13" ry="13.99" style="fill:url(#d);fill-opacity:1;stroke-width:1.0374"/>
        </clipPath>
    </defs>
    <rect width="105" height="105" x="11.5" y="15.5" rx="13" ry="13" style="fill:url(#e);fill-opacity:1"/>
    <rect width="105" height="105" x="11.5" y="7.5" clip-path="url(#f)" rx="13" ry="13" style="fill:url(#g);fill-opacity:1"/>
    <path d="M24.5 7.5c-7.202 0-13 5.798-13 13v79c0 7.202 5.798 13 13 13h79c7.202 0 13-5.798 13-13v-79c0-7.202-5.798-13-13-13zm1.123 2.123h76.754c6.648 0 12 5.352 12 12v76.754c0 6.648-5.352 12-12 12H25.623c-6.648 0-12-5.352-12-12V21.623c0-6.648 5.352-12 12-12" style="fill:url(#h);fill-opacity:1"/>
    <path d="M38.704 25.6 25.6 40.423l7.32 43.97 7.056-.057.022-36.545.002.001V87.2h6.785l1.048 6.177 25.888 9.023 28.68-17.169-9.288-17.414 9.287-9.225-9.992-24.833-19.39-3.6-6.17 5.483-1.415-4.283zM88 39.105l.008 33.783L88 87.104z" style="fill:#000;fill-opacity:1;stroke-width:.8"/>
    <path fill="#fff" d="M45.984 78.128h18v3h-18zM61.68 60.616l2.344-2.808A8.27 8.27 0 0 0 69.416 60c1.6 0 2.608-.648 2.608-1.704v-.048c0-1.008-.624-1.528-3.64-2.296-3.64-.928-5.984-1.936-5.984-5.52v-.056c0-3.272 2.632-5.44 6.32-5.44a10.4 10.4 0 0 1 6.704 2.296l-2.064 2.992a8.43 8.43 0 0 0-4.696-1.776c-1.52 0-2.32.696-2.32 1.6v.056c0 1.184.8 1.6 3.896 2.4 3.664.96 5.728 2.272 5.728 5.416v.056c0 3.584-2.736 5.6-6.632 5.6a11.48 11.48 0 0 1-7.656-2.888M46 45.2h7.36c4.288 0 6.888 2.544 6.888 6.216v.048c0 4.16-3.24 6.32-7.272 6.32H50v5.392h-4zm7.088 9.064c1.976 0 3.136-1.176 3.136-2.72v-.048c0-1.776-1.232-2.728-3.2-2.728H50v5.496z"/>
</svg>
