<svg xmlns="http://www.w3.org/2000/svg" xmlns:xlink="http://www.w3.org/1999/xlink" xml:space="preserve" width="128" height="128" viewBox="0 0 128 128">
    <defs>
        <linearGradient id="a">
            <stop offset="0" style="stop-color:#999;stop-opacity:1"/>
            <stop offset=".05" style="stop-color:#b3b3b3;stop-opacity:1"/>
            <stop offset=".1" style="stop-color:#999;stop-opacity:1"/>
            <stop offset=".9" style="stop-color:#999;stop-opacity:1"/>
            <stop offset=".95" style="stop-color:#b3b3b3;stop-opacity:1"/>
            <stop offset="1" style="stop-color:#999;stop-opacity:1"/>
        </linearGradient>
        <linearGradient xlink:href="#a" id="b" x1="11.5" x2="116.5" y1="120.5" y2="120.5" gradientTransform="matrix(1 0 0 .98434 0 2.243)" gradientUnits="userSpaceOnUse"/>
    </defs>
    <rect width="105" height="103.355" x="11.5" y="17.5" rx="8" ry="7.875" style="fill:url(#b);fill-opacity:1;stroke-width:.992137"/>
    <rect width="105" height="104.646" x="11.5" y="7.5" rx="8" ry="7.973" style="fill:#f9f9f9;fill-opacity:1;stroke-width:.998315"/>
    <path d="M19.5 9.584c-4.432 0-8 3.718-8 8.335v14.423h105V17.919c0-4.617-3.568-8.335-8-8.335z" style="fill:#1e1a29;fill-opacity:1;stroke-width:.173835"/>
    <path d="M64 83.104V79.51" style="fill:#fff;fill-opacity:1;stroke-width:.216779"/>
    <path d="M19.5 7.5c-4.432 0-8 3.718-8 8.336v14.422h105V15.836c0-4.618-3.568-8.336-8-8.336Z" style="fill:#332c45;fill-opacity:1;stroke-width:.173835"/>
    <path d="M19.5 7.5c-4.432 0-8 3.568-8 8v3.379c0-4.432 3.568-8 8-8h89c4.432 0 8 3.568 8 8V15.5c0-4.432-3.568-8-8-8z" style="fill:#fff;stroke-width:.170301;fill-opacity:.19672272"/>
    <path d="M75.672 48.576c-2.664-.001-5.82.01-7.76.022l-.191.126v1.344c0 .163.071.278.213.377a.76.76 0 0 0 .446.168l.617.063c1.586.065 2.333.477 2.55.735.379.457.556.964-.36 2.939L65.7 65.14l-4.953-10.013c-1.628-3.2-2.024-4.2.425-4.388l.978-.126q.703-.002.701-.483v-1.406l-.361-.126-13.373.022-.19.126v1.406c0 .315.335.4.977.483 2.294.298 2.238.533 4.507 4.975.34.666 1.34 2.665 1.34 2.665l5.166 10.034 1.509 3.295-7.505 14.778-.425-.105S42.84 62.006 39.466 53.889c-.352-.841-.51-1.463-.51-1.848 0-.824.745-1.26 2.253-1.322l1.764-.084c.466 0 .702-.178.702-.546v-1.322l-.17-.147s-13.953-.016-16.838 0l-.149.145v1.385c0 .253.306.413.957.483 1.771.094 2.947.375 3.507.84.558.47 1.151 1.654 1.935 3.505 4.237 10.049 13.24 27.991 17.624 38.202 1.263 2.79 2.836 3.224 4.763-.084 2.077-3.803 5.71-11.148 8.652-17.149.043-.582.043.54.574.189 2.748 5.975 6.064 13.167 7.91 16.918 1.428 2.91 3.046 3.19 4.698.084 4.315-9.473 16.944-37.972 16.944-37.972.546-1.4 1.297-2.472 2.274-3.254q1.462-1.167 4.507-1.301.619-.001.617-.546V48.72l-.149-.147H85.834l-.192.147v1.344c0 .158.071.278.213.378a.76.76 0 0 0 .446.168l1.297.063c1.59.064 2.021.376 2.637.902.612.54.688 1.455.212 2.75L76.735 86.464l-.532-.147-8.716-17.57c.009-.015.212-.42.212-.42l7.122-13.16c.83-1.39 1.636-2.634 2.041-3.212.743-1.056 1.16-1.25 3.19-1.344.413 0 .616-.177.616-.545v-1.323l-.15-.147s-2.182-.019-4.846-.022z" style="fill:#332c45;fill-opacity:1;stroke-width:2.34256"/>
    <circle cx="106.481" cy="21" r="5" style="fill:#f55;fill-opacity:1;stroke:#fff;stroke-width:0;stroke-miterlimit:4;stroke-dasharray:none;stroke-opacity:0"/>
    <circle cx="22.738" cy="21" r="5" style="display:inline;fill:#fcfcfc;fill-opacity:1;stroke:#fff;stroke-width:0;stroke-miterlimit:4;stroke-dasharray:none;stroke-opacity:0"/>
    <circle cx="37" cy="21" r="5" style="display:inline;fill:#fcfcfc;fill-opacity:1;stroke:#fff;stroke-width:0;stroke-miterlimit:4;stroke-dasharray:none;stroke-opacity:0"/>
</svg>
