<svg xmlns="http://www.w3.org/2000/svg" xmlns:xlink="http://www.w3.org/1999/xlink" xml:space="preserve" width="128" height="128" viewBox="0 0 128 128">
    <defs>
        <linearGradient id="c">
            <stop offset="0" style="stop-color:#21d789;stop-opacity:1"/>
            <stop offset="1" style="stop-color:#009ae5;stop-opacity:1"/>
        </linearGradient>
        <linearGradient id="b">
            <stop offset="0" style="stop-color:#e6e6e6;stop-opacity:.34974617"/>
            <stop offset="1" style="stop-color:#fff;stop-opacity:.80335754"/>
        </linearGradient>
        <linearGradient id="a">
            <stop offset="0" style="stop-color:#14938f;stop-opacity:1"/>
            <stop offset=".05" style="stop-color:#13aaa7;stop-opacity:1"/>
            <stop offset=".1" style="stop-color:#0c7876;stop-opacity:1"/>
            <stop offset=".9" style="stop-color:#046d93;stop-opacity:1"/>
            <stop offset=".95" style="stop-color:#0697ca;stop-opacity:1"/>
            <stop offset="1" style="stop-color:#0d7da6;stop-opacity:1"/>
        </linearGradient>
        <linearGradient xlink:href="#a" id="e" x1="11.5" x2="116.5" y1="120.5" y2="120.5" gradientUnits="userSpaceOnUse"/>
        <linearGradient xlink:href="#b" id="n" x1="64" x2="64" y1="112.5" y2="7.5" gradientUnits="userSpaceOnUse"/>
        <linearGradient xlink:href="#c" id="k" x1="12.773" x2="108.029" y1="20.475" y2="115.731" gradientUnits="userSpaceOnUse"/>
        <linearGradient xlink:href="#a" id="d" x1="11.5" x2="116.5" y1="120.5" y2="120.5" gradientTransform="matrix(1 0 0 1.0762 0 -9.181)" gradientUnits="userSpaceOnUse"/>
        <clipPath id="f" clipPathUnits="userSpaceOnUse">
            <rect width="105" height="113" x="11.5" y="7.5" rx="13" ry="13.99" style="fill:url(#d);fill-opacity:1;stroke-width:1.0374"/>
        </clipPath>
        <filter id="h" width="1.686" height="1.686" x="-.343" y="-.343" style="color-interpolation-filters:sRGB">
            <feGaussianBlur result="blur" stdDeviation="15 15"/>
            <feColorMatrix result="colormatrix" values="1 0 0 0 0 0 1 0 0 0 0 0 1 0 0 0 0 0 50 0"/>
            <feComposite in="colormatrix" in2="SourceGraphic" operator="in"/>
        </filter>
    </defs>
    <rect width="105" height="105" x="11.5" y="15.5" rx="13" ry="13" style="fill:url(#e);fill-opacity:1"/>
    <g clip-path="url(#f)" style="filter:url(#h)">
        <rect width="105" height="105" x="11.5" y="7.5" rx="13" ry="13" style="fill:url(#k);fill-opacity:1"/>
        <circle cx="89.188" cy="34.812" r="25.188" style="fill:#fc0972;fill-opacity:1;stroke:none;stroke-width:2.45112;stroke-linecap:round"/>
    </g>
    <path d="M24.5 7.5c-7.202 0-13 5.798-13 13v79c0 7.202 5.798 13 13 13h79c7.202 0 13-5.798 13-13v-79c0-7.202-5.798-13-13-13zm1.123 2.123h76.754c6.648 0 12 5.352 12 12v76.754c0 6.648-5.352 12-12 12H25.623c-6.648 0-12-5.352-12-12V21.623c0-6.648 5.352-12 12-12" style="fill:url(#n);fill-opacity:1"/>
    <path d="M53.536 23.6 31.36 37.577l-7.097 42.487 24.905 18.128 10.664-9.617 9.928 7.681 19.2 4.144L101.064 73l-14.4-5.367v-5.256l12.872-15.761-9.88-20.088L71 33.28z" style="fill:#000;fill-opacity:1;stroke-width:.8"/>
    <path fill="#fff" d="M44.648 76.928h18v3h-18zm18.056-32.976h4v14.712h7.88V62h-11.88Zm-19.336 9.144v-.048a9.23 9.23 0 0 1 9.464-9.392 9.37 9.37 0 0 1 7.152 2.8l-2.52 2.936a6.7 6.7 0 0 0-4.648-2.048c-3.056 0-5.256 2.536-5.256 5.648v.056c0 3.112 2.152 5.704 5.256 5.704 2.08 0 3.344-.8 4.8-2.128l2.496 2.576a9.28 9.28 0 0 1-7.448 3.2 9.16 9.16 0 0 1-9.296-9.304"/>
</svg>
