<svg xmlns="http://www.w3.org/2000/svg" xmlns:xlink="http://www.w3.org/1999/xlink" xml:space="preserve" width="128" height="128" viewBox="0 0 128 128">
    <defs>
        <linearGradient id="c">
            <stop offset="0" style="stop-color:#e00e41;stop-opacity:1"/>
            <stop offset="1" style="stop-color:#f4ea2e;stop-opacity:1"/>
        </linearGradient>
        <linearGradient id="b">
            <stop offset="0" style="stop-color:#e6e6e6;stop-opacity:.34743586"/>
            <stop offset="1" style="stop-color:#fff;stop-opacity:.85460246"/>
        </linearGradient>
        <linearGradient id="a">
            <stop offset="0" style="stop-color:#5b8f4d;stop-opacity:1"/>
            <stop offset=".05" style="stop-color:#6fb756;stop-opacity:1"/>
            <stop offset=".1" style="stop-color:#588e40;stop-opacity:1"/>
            <stop offset=".9" style="stop-color:#899533;stop-opacity:1"/>
            <stop offset=".95" style="stop-color:#aabb3f;stop-opacity:1"/>
            <stop offset="1" style="stop-color:#869235;stop-opacity:1"/>
        </linearGradient>
        <linearGradient xlink:href="#a" id="e" x1="11.5" x2="116.5" y1="120.5" y2="120.5" gradientUnits="userSpaceOnUse"/>
        <linearGradient xlink:href="#b" id="i" x1="64" x2="64" y1="112.5" y2="7.5" gradientUnits="userSpaceOnUse"/>
        <linearGradient xlink:href="#c" id="h" x1="12.773" x2="108.029" y1="20.475" y2="115.731" gradientUnits="userSpaceOnUse"/>
        <linearGradient xlink:href="#a" id="d" x1="11.5" x2="116.5" y1="120.5" y2="120.5" gradientTransform="matrix(1 0 0 1.0762 0 -9.181)" gradientUnits="userSpaceOnUse"/>
        <clipPath id="f" clipPathUnits="userSpaceOnUse">
            <rect width="105" height="113" x="11.5" y="7.5" rx="13" ry="13.99" style="fill:url(#d);fill-opacity:1;stroke-width:1.0374"/>
        </clipPath>
        <filter id="g" width="1.686" height="1.686" x="-.343" y="-.343" style="color-interpolation-filters:sRGB">
            <feGaussianBlur result="blur" stdDeviation="15 15"/>
            <feColorMatrix result="colormatrix" values="1 0 0 0 0 0 1 0 0 0 0 0 1 0 0 0 0 0 50 0"/>
            <feComposite in="colormatrix" in2="SourceGraphic" operator="in"/>
        </filter>
    </defs>
    <rect width="105" height="105" x="11.5" y="15.5" rx="13" ry="13" style="fill:url(#e);fill-opacity:1"/>
    <g clip-path="url(#f)" style="filter:url(#g)">
        <rect width="105" height="105" x="11.5" y="7.5" rx="13" ry="13" style="fill:url(#h);fill-opacity:1"/>
        <ellipse cx="88.901" cy="35.209" rx="25.476" ry="25.586" style="fill:#1ee890;fill-opacity:1;stroke:none;stroke-width:2.48444;stroke-linecap:round"/>
    </g>
    <path d="M24.5 7.5c-7.202 0-13 5.798-13 13v79c0 7.202 5.798 13 13 13h79c7.202 0 13-5.798 13-13v-79c0-7.202-5.798-13-13-13zm1.123 2.123h76.754c6.648 0 12 5.352 12 12v76.754c0 6.648-5.352 12-12 12H25.623c-6.648 0-12-5.352-12-12V21.623c0-6.648 5.352-12 12-12" style="fill:url(#i);fill-opacity:1"/>
    <path d="m189.937 21.386-9.571 8.792-.022-.005-32.948-8.15h-.003l-19.39 55.59-.002.001v.003l.061.099 20.75 33.434v.002h.003v-.002l8.598-4.315 1.008-.365.092-.187.005-.002-.097.19.275-.278 23.663-11.875h18.574V85l16.832-8.444v-.002h-.002v-.002l-16.83-10.315v-7.16l14.757-19.269-25.751-18.422z" style="fill:#000;fill-opacity:1;stroke-width:1.40259" transform="translate(-89.468 1.996)scale(.8877)"/>
    <path fill="#fff" d="M61.227 78.944H43.324v2.983h17.903ZM43.324 46.06h8.399c2.313 0 4.14.609 5.357 1.826.972.973 1.581 2.434 1.581 4.138 0 2.92-1.583 4.87-3.895 5.72l4.382 6.697h-4.747l-3.896-5.844h-3.164v5.843h-4.017zm8.034 9.006c1.947 0 3.043-1.094 3.043-2.555 0-1.704-1.217-2.557-3.165-2.557H47.34v5.112zm11.063-9.006h8.399c2.313 0 4.14.609 5.357 1.826.972.973 1.581 2.434 1.581 4.138 0 2.92-1.581 4.87-3.895 5.72l4.382 6.697h-4.747l-3.896-5.844h-3.164v5.843h-4.017zm8.034 9.006c1.947 0 3.043-1.094 3.043-2.555 0-1.704-1.217-2.557-3.165-2.557h-3.895v5.112z" style="fill:#fff;fill-opacity:1;stroke-width:1.19356"/>
</svg>
