<svg xmlns="http://www.w3.org/2000/svg" xmlns:xlink="http://www.w3.org/1999/xlink" xml:space="preserve" width="128" height="128" viewBox="0 0 128 128">
    <defs>
        <linearGradient id="c">
            <stop offset="0" style="stop-color:#eb3896;stop-opacity:1"/>
            <stop offset="1" style="stop-color:#087cfa;stop-opacity:1"/>
        </linearGradient>
        <linearGradient id="b">
            <stop offset="0" style="stop-color:#e6e6e6;stop-opacity:.34817302"/>
            <stop offset="1" style="stop-color:#fff;stop-opacity:.84745103"/>
        </linearGradient>
        <linearGradient id="a">
            <stop offset="0" style="stop-color:#80473e;stop-opacity:1"/>
            <stop offset=".05" style="stop-color:#a55c4f;stop-opacity:1"/>
            <stop offset=".1" style="stop-color:#7d443a;stop-opacity:1"/>
            <stop offset=".353" style="stop-color:#734737;stop-opacity:1"/>
            <stop offset=".676" style="stop-color:#384f8f;stop-opacity:1"/>
            <stop offset=".9" style="stop-color:#184996;stop-opacity:1"/>
            <stop offset=".95" style="stop-color:#2066d0;stop-opacity:1"/>
            <stop offset="1" style="stop-color:#1d4f9b;stop-opacity:1"/>
        </linearGradient>
        <linearGradient xlink:href="#a" id="f" x1="11.5" x2="116.5" y1="68" y2="68" gradientUnits="userSpaceOnUse"/>
        <linearGradient xlink:href="#b" id="k" x1="64" x2="64" y1="112.5" y2="7.5" gradientUnits="userSpaceOnUse"/>
        <linearGradient xlink:href="#c" id="i" x1="12.773" x2="108.029" y1="20.475" y2="115.731" gradientUnits="userSpaceOnUse"/>
        <linearGradient xlink:href="#a" id="d" x1="11.5" x2="116.5" y1="68" y2="68" gradientTransform="matrix(1 0 0 1.0762 0 -9.181)" gradientUnits="userSpaceOnUse"/>
        <linearGradient xlink:href="#a" id="e" x1="11.5" x2="116.5" y1="68" y2="68" gradientTransform="matrix(1 0 0 1.0762 0 -9.181)" gradientUnits="userSpaceOnUse"/>
        <clipPath id="j" clipPathUnits="userSpaceOnUse">
            <rect width="105" height="113" x="11.5" y="7.5" rx="13" ry="13.99" style="fill:url(#d);fill-opacity:1;stroke-width:1.0374"/>
        </clipPath>
        <clipPath id="g" clipPathUnits="userSpaceOnUse">
            <rect width="105" height="113" x="11.5" y="7.5" rx="13" ry="13.99" style="fill:url(#e);fill-opacity:1;stroke-width:1.0374"/>
        </clipPath>
        <filter id="h" width="1.686" height="1.686" x="-.343" y="-.343" style="color-interpolation-filters:sRGB">
            <feGaussianBlur result="blur" stdDeviation="15 15"/>
            <feColorMatrix result="colormatrix" values="1 0 0 0 0 0 1 0 0 0 0 0 1 0 0 0 0 0 50 0"/>
            <feComposite in="colormatrix" in2="SourceGraphic" operator="in"/>
        </filter>
    </defs>
    <rect width="105" height="105" x="11.5" y="15.5" rx="13" ry="13" style="fill:url(#f);fill-opacity:1"/>
    <g clip-path="url(#g)" style="filter:url(#h)">
        <rect width="105" height="105" x="11.5" y="7.5" rx="13" ry="13" style="fill:url(#i);fill-opacity:1"/>
        <circle cx="86.329" cy="37.671" r="28.048" style="fill:#fe2857;fill-opacity:1;stroke:none;stroke-width:2.72942;stroke-linecap:round"/>
        <circle cx="41.671" cy="82.439" r="28.048" style="fill:#fc801d;fill-opacity:1;stroke:none;stroke-width:2.72942;stroke-linecap:round"/>
    </g>
    <path d="M24.5 7.5c-7.202 0-13 5.798-13 13v79c0 7.202 5.798 13 13 13h79c7.202 0 13-5.798 13-13v-79c0-7.202-5.798-13-13-13zm1.123 2.123h76.754c6.648 0 12 5.352 12 12v76.754c0 6.648-5.352 12-12 12H25.623c-6.648 0-12-5.352-12-12V21.623c0-6.648 5.352-12 12-12" clip-path="url(#j)" style="fill:url(#k);fill-opacity:1"/>
    <path d="m35.167 25.194-11.12 30.424 7.512 2.512-6.649 12.313 11.296 8.92-1.04 3.48-4.928 17.256 23.529-8.505 16.112 10.4 29.583-11.848 1.384-44.48-24.16-19.215-9.277 10.43-7.107-8.718z" style="fill:#000;fill-opacity:1;stroke-width:.8"/>
    <path fill="#fff" d="M45.862 78.359h18v3h-18zm8.984-29.632v-3.28h-8.952v3.28h2.512v11.328h-2.512v3.28h8.952v-3.28h-2.504V48.727ZM63.43 63.59a7.1 7.1 0 0 1-3.512-.8 8.1 8.1 0 0 1-2.336-1.887l2.472-2.76a7 7 0 0 0 1.552 1.312 3.2 3.2 0 0 0 1.72.48 2.28 2.28 0 0 0 1.752-.696 3.33 3.33 0 0 0 .64-2.264V45.43h4v11.72a8.1 8.1 0 0 1-.44 2.792 5.2 5.2 0 0 1-3.256 3.2 7.9 7.9 0 0 1-2.648.416"/>
</svg>
