<svg xmlns="http://www.w3.org/2000/svg" xml:space="preserve" width="128" height="128" viewBox="0 0 128 128">
    <path d="M25.231 22.55v6.357A18.05 23.39 0 0 0 13.162 49.09c-.053.339-.09.685-.09 1.04v64.305c0 3.651 2.94 6.59 6.59 6.59h22.922a6.575 6.575 0 0 0 6.589-6.59V50.13q-.002-.387-.047-.763a18.05 23.39 0 0 0-12.113-20.474V22.55z" style="fill:#e5e5e5;stroke-width:.914871;fill-opacity:1"/>
    <path d="M25.415 22.366v6.357a18.05 23.39 0 0 0-12.07 20.185 7 7 0 0 0-.09 1.039v64.306c0 3.65 2.94 6.59 6.59 6.59h3.949a6.577 6.577 0 0 1-6.591-6.59V49.946c0-.354.037-.7.09-1.038a18.05 23.39 0 0 1 12.07-20.185v-6.357Z" style="fill:#f9f9f9;stroke-width:.914871"/>
    <path d="M33.249 22.366v6.344a18.05 23.39 0 0 1 12.113 20.473q.045.375.046.764v64.306c0 3.65-2.938 6.59-6.588 6.59h3.947c3.651 0 6.59-2.94 6.59-6.59V49.946q-.002-.387-.047-.763A18.05 23.39 0 0 0 37.196 28.71v-6.344Z" style="fill:#b3b3b3;fill-opacity:1;stroke-width:.914871"/>
    <rect width="15.833" height="11.174" x="23.39" y="13.488" rx="2.058" ry="2.058" style="fill:#59f;stroke-width:.647306"/>
    <path d="M13.255 110.305v3.948c0 3.65 2.94 6.59 6.59 6.59h22.922c3.651 0 6.59-2.94 6.59-6.59v-3.948c0 3.65-2.939 6.59-6.59 6.59H19.846a6.576 6.576 0 0 1-6.59-6.59" style="fill:#b3b3b3;stroke-width:.914871;fill-opacity:1"/>
    <rect width="36.101" height="21.288" x="13.255" y="61.246" rx="0" ry="0" style="fill:#59f;fill-opacity:1;stroke-width:.986954"/>
    <path d="M13.255 61.247v21.287h3.948V61.247Z" style="fill:#acf;fill-opacity:1;stroke-width:.986954"/>
    <path d="M45.408 61.247v21.287h3.948V61.247Z" style="fill:#e3dbdb;fill-opacity:1;stroke-width:.986954"/>
    <path d="M25.448 13.487c-1.14 0-2.059.919-2.059 2.059v7.057c0 1.14.919 2.059 2.059 2.059h3.948a2.055 2.055 0 0 1-2.059-2.059v-7.057c0-1.14.919-2.059 2.059-2.059z" style="fill:#d5e5ff;fill-opacity:1;stroke-width:.647306"/>
    <path d="M33.216 13.487c1.14 0 2.059.919 2.059 2.059v7.057c0 1.14-.919 2.059-2.059 2.059h3.948c1.14 0 2.059-.919 2.059-2.059v-7.057c0-1.14-.919-2.059-2.059-2.059z" style="fill:#3771c8;fill-opacity:1;stroke-width:.647306"/>
    <rect width="39.229" height="25.606" x="46.047" y="49.237" rx="7.161" ry="7.161" style="fill:#d5e5ff;stroke-width:.511355"/>
    <path d="M59.26 12.147v6.925a19.614 25.417 0 0 0-13.068 20.91h-.068v-6.64a7 7 0 0 0-.077.997v11.285a7.145 7.145 0 0 0 7.16 7.16h24.908a7.145 7.145 0 0 0 7.16-7.16V34.339c0-.34-.031-.67-.077-.997v6.64h-.066a19.614 25.417 0 0 0-13.07-20.909v-6.926z" style="fill:#d5e5ff;stroke-width:.99415"/>
    <rect width="39.229" height="25.606" x="46.047" y="72.44" rx="7.161" ry="7.161" style="fill:#d5e5ff;stroke-width:.511355"/>
    <rect width="39.229" height="25.606" x="46.047" y="95.238" rx="7.161" ry="7.161" style="fill:#d5e5ff;stroke-width:.511355"/>
    <path d="M42.543 33.342a7 7 0 0 0-.077.997v11.285c0 2.155.948 4.077 2.444 5.388a7.13 7.13 0 0 0-2.444 5.384v11.285a7.14 7.14 0 0 0 3.184 5.96 7.14 7.14 0 0 0-3.184 5.96v11.285a7.13 7.13 0 0 0 2.906 5.755 7.13 7.13 0 0 0-2.906 5.757v11.285a7.14 7.14 0 0 0 3.65 6.245 6.57 6.57 0 0 0 3.24-5.675V49.947q-.002-.387-.047-.764a18.05 23.39 0 0 0-5.491-15.113 19.614 25.417 0 0 0-1.206 5.912h-.069z" style="fill:#b3b3b3;fill-opacity:1;stroke-width:.511355"/>
    <path d="M59.26 12.147v6.925a19.614 25.417 0 0 0-13.068 20.91h-.068v-6.64a7 7 0 0 0-.077.997v11.285a7.145 7.145 0 0 0 7.16 7.16h3.58a7.145 7.145 0 0 1-7.16-7.16V34.339c0-.34.032-.67.077-.997v6.64h.068a19.614 25.417 0 0 1 13.068-20.91v-6.925z" style="fill:#f2f2f2;stroke-width:.99415"/>
    <path d="M68.482 12.147v6.926a19.614 25.417 0 0 1 13.07 20.91h.066v-6.64c.045.326.077.656.077.996v11.285a7.145 7.145 0 0 1-7.16 7.16h3.58a7.145 7.145 0 0 0 7.16-7.16V34.339c0-.34-.031-.67-.077-.997v6.64h-.066a19.614 25.417 0 0 0-13.07-20.909v-6.926z" style="fill:#acf;fill-opacity:1;stroke-width:.99415"/>
    <rect width="17.205" height="12.143" x="57.059" y="2.5" rx="2.236" ry="2.236" style="fill:#de87aa;stroke-width:.7034"/>
    <path d="M53.207 49.236a7.145 7.145 0 0 0-7.16 7.16v11.285a7.145 7.145 0 0 0 7.16 7.161h3.58a7.145 7.145 0 0 1-7.16-7.16V56.395a7.145 7.145 0 0 1 7.16-7.16z" style="fill:#f2f2f2;fill-opacity:1;stroke-width:.511355"/>
    <path d="M46.047 42.043v3.581a7.145 7.145 0 0 0 7.16 7.16h24.908a7.145 7.145 0 0 0 7.16-7.16v-3.58a7.145 7.145 0 0 1-7.16 7.16H53.207a7.145 7.145 0 0 1-7.16-7.16" style="fill:#acf;stroke-width:.99415"/>
    <path d="M53.207 72.44a7.145 7.145 0 0 0-7.16 7.16v11.286a7.145 7.145 0 0 0 7.16 7.16h3.58a7.145 7.145 0 0 1-7.16-7.16V79.6a7.145 7.145 0 0 1 7.16-7.16z" style="fill:#f2f2f2;fill-opacity:1;stroke-width:.511355"/>
    <path d="M46.047 64.101v3.58a7.145 7.145 0 0 0 7.16 7.161h24.908a7.145 7.145 0 0 0 7.16-7.16V64.1a7.145 7.145 0 0 1-7.16 7.16H53.207a7.145 7.145 0 0 1-7.16-7.16" style="fill:#acf;fill-opacity:1;stroke-width:.511355"/>
    <path d="M53.207 95.237a7.145 7.145 0 0 0-7.16 7.16v11.286a7.145 7.145 0 0 0 7.16 7.16h3.58a7.145 7.145 0 0 1-7.16-7.16v-11.285a7.145 7.145 0 0 1 7.16-7.16z" style="fill:#f2f2f2;fill-opacity:1;stroke-width:.511355"/>
    <path d="M46.047 87.305v3.58a7.145 7.145 0 0 0 7.16 7.162h24.908a7.145 7.145 0 0 0 7.16-7.161v-3.58a7.145 7.145 0 0 1-7.16 7.16H53.207a7.145 7.145 0 0 1-7.16-7.16m0 22.796v3.58a7.145 7.145 0 0 0 7.16 7.162h24.908a7.145 7.145 0 0 0 7.16-7.161v-3.58a7.145 7.145 0 0 1-7.16 7.16H53.207a7.145 7.145 0 0 1-7.16-7.16" style="fill:#acf;fill-opacity:1;stroke-width:.511355"/>
    <path d="M59.295 2.5a2.23 2.23 0 0 0-2.236 2.236v7.67c0 1.239.997 2.237 2.236 2.237h3.58a2.23 2.23 0 0 1-2.236-2.237v-7.67A2.23 2.23 0 0 1 62.875 2.5z" style="fill:#ffd5f6;stroke-width:.7034"/>
    <path d="M68.447 2.5c1.239 0 2.238.997 2.238 2.236v7.67a2.234 2.234 0 0 1-2.238 2.237h3.58a2.234 2.234 0 0 0 2.238-2.237v-7.67A2.23 2.23 0 0 0 72.027 2.5z" style="fill:#c83771;stroke-width:.7034"/>
    <path d="M74.534 49.236a7.145 7.145 0 0 1 7.161 7.16v11.285a7.145 7.145 0 0 1-7.16 7.161h3.58a7.145 7.145 0 0 0 7.16-7.16V56.395a7.145 7.145 0 0 0-7.16-7.16z" style="fill:#acf;fill-opacity:1;stroke-width:.511355"/>
    <path d="M74.534 72.44a7.145 7.145 0 0 1 7.161 7.16v11.286a7.145 7.145 0 0 1-7.16 7.16h3.58a7.145 7.145 0 0 0 7.16-7.16V79.6a7.145 7.145 0 0 0-7.16-7.16z" style="fill:#acf;fill-opacity:1;stroke-width:.511355"/>
    <path d="M83.693 33.342v6.64h-.066a19.614 25.417 0 0 0-1.156-5.757 18.155 23.526 0 0 0-5.501 14.922c-.054.34-.091.689-.091 1.045v64.68a6.6 6.6 0 0 0 2.69 5.33 7.14 7.14 0 0 0 4.201-6.52v-11.284a7.13 7.13 0 0 0-2.904-5.757 7.13 7.13 0 0 0 2.904-5.755V79.6a7.14 7.14 0 0 0-3.183-5.96 7.14 7.14 0 0 0 3.183-5.96V56.396a7.13 7.13 0 0 0-2.444-5.386 7.13 7.13 0 0 0 2.444-5.386V34.339c0-.34-.031-.67-.077-.997" style="fill:#acf;fill-opacity:1;stroke-width:.920188"/>
    <path d="M74.534 95.237a7.145 7.145 0 0 1 7.161 7.16v11.286a7.145 7.145 0 0 1-7.16 7.16h3.58a7.145 7.145 0 0 0 7.16-7.16v-11.285a7.145 7.145 0 0 0-7.16-7.16z" style="fill:#acf;fill-opacity:1;stroke-width:.511355"/>
    <path d="M94.194 22.45v6.395a18.155 23.526 0 0 0-12.139 20.301 7 7 0 0 0-.09 1.045v64.68a6.615 6.615 0 0 0 6.628 6.629h23.055a6.613 6.613 0 0 0 6.627-6.629v-64.68q-.002-.39-.047-.768a18.155 23.526 0 0 0-12.183-20.592v-6.38z" style="fill:#5fd38d;fill-opacity:1;stroke-width:.920188"/>
    <path d="M94.194 22.45v6.395a18.155 23.526 0 0 0-12.139 20.301 7 7 0 0 0-.09 1.045v64.68a6.615 6.615 0 0 0 6.628 6.629h3.97a6.615 6.615 0 0 1-6.628-6.629v-64.68c0-.356.037-.704.091-1.045a18.155 23.526 0 0 1 12.14-20.301V22.45z" style="fill:#d7f4e3;fill-opacity:1;stroke-width:.920188"/>
    <path d="M81.964 110.9v3.971a6.615 6.615 0 0 0 6.63 6.629h23.054a6.613 6.613 0 0 0 6.627-6.629v-3.97a6.613 6.613 0 0 1-6.627 6.628H88.593a6.615 6.615 0 0 1-6.629-6.629" style="fill:#2ca05a;fill-opacity:1;stroke-width:.920188"/>
    <path d="M102.074 22.45v6.381a18.155 23.526 0 0 1 12.184 20.592q.045.378.046.768v64.68a6.613 6.613 0 0 1-6.627 6.629h3.971a6.613 6.613 0 0 0 6.627-6.629v-64.68q-.002-.39-.047-.768a18.155 23.526 0 0 0-12.183-20.592v-6.38z" style="fill:#2ca05a;fill-opacity:1;stroke-width:.920188"/>
    <rect width="15.925" height="11.239" x="92.157" y="13.52" rx="2.07" ry="2.07" style="fill:#59f;stroke-width:.651067"/>
    <rect width="36.311" height="21.412" x="81.964" y="61.556" rx="0" ry="0" style="fill:#e6e6e6;fill-opacity:1;stroke-width:.992691"/>
    <path d="M81.964 61.557v21.41h3.971v-21.41Z" style="fill:#f9f9f9;fill-opacity:1;stroke-width:.992691"/>
    <path d="M114.304 61.557v21.41h3.97v-21.41Z" style="fill:#ccc;fill-opacity:1;stroke-width:.992691"/>
    <path d="M94.227 13.52c-1.146 0-2.07.923-2.07 2.07v7.1c0 1.146.924 2.07 2.07 2.07h3.58a2.065 2.065 0 0 1-2.07-2.07v-7.1c0-1.147.924-2.07 2.07-2.07z" style="fill:#d5e5ff;stroke-width:.651067"/>
    <path d="M102.432 13.52c1.147 0 2.07.923 2.07 2.07v7.1c0 1.146-.923 2.07-2.07 2.07h3.58c1.147 0 2.07-.924 2.07-2.07v-7.1c0-1.147-.923-2.07-2.07-2.07z" style="fill:#3771c8;fill-opacity:1;stroke-width:.651067"/>
    <path d="M72.744 49.236a7.145 7.145 0 0 1 7.16 7.16v11.285a7.145 7.145 0 0 1-7.16 7.161h-3.58a7.145 7.145 0 0 0 7.16-7.16V56.395a7.145 7.145 0 0 0-7.16-7.16z" style="fill:#acf;fill-opacity:1;stroke-width:.511355"/>
    <path d="M72.744 72.44a7.145 7.145 0 0 1 7.16 7.16v11.286a7.145 7.145 0 0 1-7.16 7.16h-3.58a7.145 7.145 0 0 0 7.16-7.16V79.6a7.145 7.145 0 0 0-7.16-7.16z" style="fill:#acf;fill-opacity:1;stroke-width:.511355"/>
    <path d="M72.744 95.237a7.145 7.145 0 0 1 7.16 7.16v11.286a7.145 7.145 0 0 1-7.16 7.16h-3.58a7.145 7.145 0 0 0 7.16-7.16v-11.285a7.145 7.145 0 0 0-7.16-7.16z" style="fill:#acf;fill-opacity:1;stroke-width:.511355"/>
    <path d="M42.466 61.246v6.435a7.14 7.14 0 0 0 3.183 5.96 7.14 7.14 0 0 0-3.183 5.96v2.933h3.582v-2.933a7.14 7.14 0 0 1 3.18-5.96 7.14 7.14 0 0 1-3.18-5.96v-6.435z" style="fill:#3771c8;fill-opacity:1;stroke-width:.511355"/>
</svg>
