<svg xmlns="http://www.w3.org/2000/svg" xmlns:xlink="http://www.w3.org/1999/xlink" xml:space="preserve" width="128" height="128" viewBox="0 0 128 128">
    <defs>
        <clipPath id="aS" clipPathUnits="userSpaceOnUse">
            <rect width="90.792" height="90.792" x="21.604" y="15.774" fill="#fff" rx="3.547" style="stroke-width:1.51319"/>
        </clipPath>
        <clipPath id="aR" clipPathUnits="userSpaceOnUse">
            <rect width="90.792" height="90.792" x="21.604" y="15.774" fill="#fff" rx="3.547" style="stroke-width:1.51319"/>
        </clipPath>
        <clipPath id="aQ" clipPathUnits="userSpaceOnUse">
            <rect width="90.792" height="90.792" x="21.604" y="15.774" fill="#fff" rx="3.547" style="stroke-width:1.51319"/>
        </clipPath>
        <clipPath id="aO" clipPathUnits="userSpaceOnUse">
            <rect width="90.792" height="90.792" x="21.604" y="15.774" fill="#fff" rx="3.547" style="stroke-width:1.51319"/>
        </clipPath>
        <clipPath id="aM" clipPathUnits="userSpaceOnUse">
            <rect width="90.792" height="90.792" x="21.604" y="15.774" fill="#fff" rx="3.547" style="stroke-width:1.51319"/>
        </clipPath>
        <clipPath id="aK" clipPathUnits="userSpaceOnUse">
            <rect width="90.792" height="90.792" x="21.604" y="15.774" fill="#fff" rx="3.547" style="stroke-width:1.51319"/>
        </clipPath>
        <clipPath id="aH" clipPathUnits="userSpaceOnUse">
            <rect width="60" height="60" fill="#fff" rx="2.344" style="stroke-width:.999997"/>
        </clipPath>
        <clipPath id="aG" clipPathUnits="userSpaceOnUse">
            <rect width="90.792" height="90.792" x="21.604" y="15.774" fill="#fff" rx="3.547" style="stroke-width:1.51319"/>
        </clipPath>
        <clipPath id="aE" clipPathUnits="userSpaceOnUse">
            <rect width="90.792" height="90.792" x="21.604" y="15.774" fill="#fff" rx="3.547" style="stroke-width:1.51319"/>
        </clipPath>
        <clipPath id="aD" clipPathUnits="userSpaceOnUse">
            <rect width="90.792" height="90.792" x="21.604" y="15.774" fill="#fff" rx="3.547" style="stroke-width:1.51319"/>
        </clipPath>
        <clipPath id="aB" clipPathUnits="userSpaceOnUse">
            <rect width="90.792" height="90.792" x="21.604" y="15.774" fill="#fff" rx="3.547" style="stroke-width:1.51319"/>
        </clipPath>
        <clipPath id="aA" clipPathUnits="userSpaceOnUse">
            <rect width="90.792" height="90.792" x="21.604" y="15.774" fill="#fff" rx="3.547" style="stroke-width:1.51319"/>
        </clipPath>
        <clipPath id="ay" clipPathUnits="userSpaceOnUse">
            <rect width="90.792" height="90.792" x="21.604" y="15.774" fill="#fff" rx="3.547" style="stroke-width:1.51319"/>
        </clipPath>
        <clipPath id="ax" clipPathUnits="userSpaceOnUse">
            <rect width="90.792" height="90.792" x="21.604" y="15.774" fill="#fff" rx="3.547" style="stroke-width:1.51319"/>
        </clipPath>
        <clipPath id="av" clipPathUnits="userSpaceOnUse">
            <rect width="90.792" height="90.792" x="21.604" y="15.774" fill="#fff" rx="3.547" style="stroke-width:1.51319"/>
        </clipPath>
        <clipPath id="as" clipPathUnits="userSpaceOnUse">
            <rect width="60" height="60" fill="#fff" rx="2.344" style="stroke-width:.999997"/>
        </clipPath>
        <clipPath id="ap" clipPathUnits="userSpaceOnUse">
            <rect width="60" height="60" fill="#fff" rx="2.344" style="stroke-width:.999997"/>
        </clipPath>
        <clipPath id="an" clipPathUnits="userSpaceOnUse">
            <rect width="60" height="60" fill="#fff" rx="2.344" style="stroke-width:.999997"/>
        </clipPath>
        <clipPath id="al" clipPathUnits="userSpaceOnUse">
            <rect width="60" height="60" fill="#fff" rx="2.344" style="stroke-width:.999997"/>
        </clipPath>
        <clipPath id="aj" clipPathUnits="userSpaceOnUse">
            <rect width="60" height="60" fill="#fff" rx="2.344" style="stroke-width:.999997"/>
        </clipPath>
        <clipPath id="ah" clipPathUnits="userSpaceOnUse">
            <rect width="60" height="60" fill="#fff" rx="2.344" style="stroke-width:.999997"/>
        </clipPath>
        <clipPath id="ad" clipPathUnits="userSpaceOnUse">
            <rect width="60" height="60" fill="#fff" rx="2.344" style="stroke-width:.999997"/>
        </clipPath>
        <clipPath id="Y" clipPathUnits="userSpaceOnUse">
            <rect width="60" height="60" fill="#fff" rx="2.344" style="stroke-width:.999997"/>
        </clipPath>
        <clipPath id="W" clipPathUnits="userSpaceOnUse">
            <rect width="60" height="60" fill="#fff" rx="2.344" style="stroke-width:.999997"/>
        </clipPath>
        <clipPath id="U" clipPathUnits="userSpaceOnUse">
            <rect width="60" height="60" fill="#fff" rx="2.344" style="stroke-width:.999997"/>
        </clipPath>
        <clipPath id="T" clipPathUnits="userSpaceOnUse">
            <rect width="90.792" height="90.792" x="21.604" y="15.774" fill="#fff" rx="3.547" style="stroke-width:1.51319"/>
        </clipPath>
        <clipPath id="P" clipPathUnits="userSpaceOnUse">
            <rect width="60" height="60" fill="#fff" rx="2.344" style="stroke-width:.999997"/>
        </clipPath>
        <clipPath id="N" clipPathUnits="userSpaceOnUse">
            <rect width="60" height="60" fill="#fff" rx="2.344" style="stroke-width:.999997"/>
        </clipPath>
        <clipPath id="M" clipPathUnits="userSpaceOnUse">
            <rect width="90.792" height="90.792" x="21.604" y="15.774" fill="#fff" rx="3.547" style="stroke-width:1.51319"/>
        </clipPath>
        <clipPath id="K" clipPathUnits="userSpaceOnUse">
            <rect width="90.792" height="90.792" x="21.604" y="15.774" fill="#fff" rx="3.547" style="stroke-width:1.51319"/>
        </clipPath>
        <clipPath id="m" clipPathUnits="userSpaceOnUse">
            <rect width="60" height="60" fill="#fff" rx="2.344" style="stroke-width:.999997"/>
        </clipPath>
        <clipPath id="h" clipPathUnits="userSpaceOnUse">
            <rect width="90.792" height="90.792" x="21.604" y="15.774" fill="#fff" rx="3.547" style="stroke-width:1.51319"/>
        </clipPath>
        <clipPath id="f" clipPathUnits="userSpaceOnUse">
            <rect width="90.792" height="90.792" x="21.604" y="15.774" fill="#fff" rx="3.547" style="stroke-width:1.51319"/>
        </clipPath>
        <clipPath id="c" clipPathUnits="userSpaceOnUse">
            <rect width="90.792" height="90.792" x="21.604" y="15.774" fill="#fff" rx="3.547" style="stroke-width:1.51319"/>
        </clipPath>
        <filter id="p" width="9.563" height="4.987" x="34.841" y="24.708" color-interpolation-filters="sRGB" filterUnits="userSpaceOnUse">
            <feFlood flood-opacity="0" result="BackgroundImageFix"/>
            <feBlend in="SourceGraphic" in2="BackgroundImageFix" result="shape"/>
            <feGaussianBlur result="effect1_foregroundBlur_1970_8019" stdDeviation=".117"/>
        </filter>
        <filter id="r" width="6.998" height="8.636" x="37.797" y="27.708" color-interpolation-filters="sRGB" filterUnits="userSpaceOnUse">
            <feFlood flood-opacity="0" result="BackgroundImageFix"/>
            <feBlend in="SourceGraphic" in2="BackgroundImageFix" result="shape"/>
            <feGaussianBlur result="effect1_foregroundBlur_1970_8019" stdDeviation=".176"/>
        </filter>
        <filter id="t" width="7.375" height="2.215" x="35.575" y="23.539" color-interpolation-filters="sRGB" filterUnits="userSpaceOnUse">
            <feFlood flood-opacity="0" result="BackgroundImageFix"/>
            <feBlend in="SourceGraphic" in2="BackgroundImageFix" result="shape"/>
            <feGaussianBlur result="effect1_foregroundBlur_1970_8019" stdDeviation=".088"/>
        </filter>
        <filter id="u" width="4.963" height="5.877" x="40.181" y="31.559" color-interpolation-filters="sRGB" filterUnits="userSpaceOnUse">
            <feFlood flood-opacity="0" result="BackgroundImageFix"/>
            <feBlend in="SourceGraphic" in2="BackgroundImageFix" result="shape"/>
            <feGaussianBlur result="effect1_foregroundBlur_1970_8019" stdDeviation=".088"/>
        </filter>
        <filter id="v" width="2.775" height="2.282" x="42.386" y="23.68" color-interpolation-filters="sRGB" filterUnits="userSpaceOnUse">
            <feFlood flood-opacity="0" result="BackgroundImageFix"/>
            <feBlend in="SourceGraphic" in2="BackgroundImageFix" result="shape"/>
            <feGaussianBlur result="effect1_foregroundBlur_1970_8019" stdDeviation=".117"/>
        </filter>
        <filter id="w" width="1.937" height="2.488" x="42.453" y="23.233" color-interpolation-filters="sRGB" filterUnits="userSpaceOnUse">
            <feFlood flood-opacity="0" result="BackgroundImageFix"/>
            <feBlend in="SourceGraphic" in2="BackgroundImageFix" result="shape"/>
            <feGaussianBlur result="effect1_foregroundBlur_1970_8019" stdDeviation=".029"/>
        </filter>
        <filter id="x" width="1.815" height="2.774" x="43.154" y="23.744" color-interpolation-filters="sRGB" filterUnits="userSpaceOnUse">
            <feFlood flood-opacity="0" result="BackgroundImageFix"/>
            <feBlend in="SourceGraphic" in2="BackgroundImageFix" result="shape"/>
            <feGaussianBlur result="effect1_foregroundBlur_1970_8019" stdDeviation=".088"/>
        </filter>
        <filter id="A" width="3.021" height=".824" x="44.606" y="31.793" color-interpolation-filters="sRGB" filterUnits="userSpaceOnUse">
            <feFlood flood-opacity="0" result="BackgroundImageFix"/>
            <feBlend in="SourceGraphic" in2="BackgroundImageFix" result="shape"/>
            <feGaussianBlur result="effect1_foregroundBlur_1970_8019" stdDeviation=".029"/>
        </filter>
        <filter id="C" width=".492" height="2.303" x="44.491" y="30.959" color-interpolation-filters="sRGB" filterUnits="userSpaceOnUse">
            <feFlood flood-opacity="0" result="BackgroundImageFix"/>
            <feBlend in="SourceGraphic" in2="BackgroundImageFix" result="shape"/>
            <feGaussianBlur result="effect1_foregroundBlur_1970_8019" stdDeviation=".059"/>
        </filter>
        <filter id="D" width=".263" height=".729" x="44.705" y="30.59" color-interpolation-filters="sRGB" filterUnits="userSpaceOnUse">
            <feFlood flood-opacity="0" result="BackgroundImageFix"/>
            <feBlend in="SourceGraphic" in2="BackgroundImageFix" result="shape"/>
            <feGaussianBlur result="effect1_foregroundBlur_1970_8019" stdDeviation=".035"/>
        </filter>
        <filter id="F" width="1.673" height="1.747" x="41.468" y="24.57" color-interpolation-filters="sRGB" filterUnits="userSpaceOnUse">
            <feFlood flood-opacity="0" result="BackgroundImageFix"/>
            <feBlend in="SourceGraphic" in2="BackgroundImageFix" result="shape"/>
            <feGaussianBlur result="effect1_foregroundBlur_1970_8019" stdDeviation=".059"/>
        </filter>
        <filter id="G" width=".579" height=".555" x="42.843" y="25.981" color-interpolation-filters="sRGB" filterUnits="userSpaceOnUse">
            <feFlood flood-opacity="0" result="BackgroundImageFix"/>
            <feBlend in="SourceGraphic" in2="BackgroundImageFix" result="shape"/>
            <feGaussianBlur result="effect1_foregroundBlur_1970_8019" stdDeviation=".035"/>
        </filter>
        <filter id="H" width="3.283" height="1.274" x="44.506" y="31.386" color-interpolation-filters="sRGB" filterUnits="userSpaceOnUse">
            <feFlood flood-opacity="0" result="BackgroundImageFix"/>
            <feBlend in="SourceGraphic" in2="BackgroundImageFix" result="shape"/>
            <feGaussianBlur result="effect1_foregroundBlur_1970_8019" stdDeviation=".117"/>
        </filter>
        <filter id="I" width="3.215" height="1.735" x="44.739" y="30.672" color-interpolation-filters="sRGB" filterUnits="userSpaceOnUse">
            <feFlood flood-opacity="0" result="BackgroundImageFix"/>
            <feBlend in="SourceGraphic" in2="BackgroundImageFix" result="shape"/>
            <feGaussianBlur result="effect1_foregroundBlur_1970_8019" stdDeviation=".088"/>
        </filter>
        <filter id="O" width="1.666" height="1.421" x="39.377" y="26.021" color-interpolation-filters="sRGB" filterUnits="userSpaceOnUse">
            <feFlood flood-opacity="0" result="BackgroundImageFix"/>
            <feBlend in="SourceGraphic" in2="BackgroundImageFix" result="shape"/>
            <feGaussianBlur result="effect1_foregroundBlur_1970_8019" stdDeviation=".018"/>
        </filter>
        <filter id="Q" width="1.531" height="1.551" x="41.48" y="31.73" color-interpolation-filters="sRGB" filterUnits="userSpaceOnUse">
            <feFlood flood-opacity="0" result="BackgroundImageFix"/>
            <feBlend in="SourceGraphic" in2="BackgroundImageFix" result="shape"/>
            <feGaussianBlur result="effect1_foregroundBlur_1970_8019" stdDeviation=".018"/>
        </filter>
        <filter id="V" width="1.539" height="1.283" x="39.508" y="26.072" color-interpolation-filters="sRGB" filterUnits="userSpaceOnUse">
            <feFlood flood-opacity="0" result="BackgroundImageFix"/>
            <feColorMatrix in="SourceAlpha" result="hardAlpha" values="0 0 0 0 0 0 0 0 0 0 0 0 0 0 0 0 0 0 127 0"/>
            <feOffset dx="-.006" dy=".012"/>
            <feGaussianBlur stdDeviation=".006"/>
            <feComposite in2="hardAlpha" operator="out"/>
            <feColorMatrix values="0 0 0 0 0.0156863 0 0 0 0 0.231373 0 0 0 0 0.0666667 0 0 0 0.7 0"/>
            <feBlend in2="BackgroundImageFix" result="effect1_dropShadow_1970_8019"/>
            <feBlend in="SourceGraphic" in2="effect1_dropShadow_1970_8019" result="shape"/>
        </filter>
        <filter id="X" width="1.376" height="1.455" x="41.621" y="31.756" color-interpolation-filters="sRGB" filterUnits="userSpaceOnUse">
            <feFlood flood-opacity="0" result="BackgroundImageFix"/>
            <feColorMatrix in="SourceAlpha" result="hardAlpha" values="0 0 0 0 0 0 0 0 0 0 0 0 0 0 0 0 0 0 127 0"/>
            <feOffset dx="-.006" dy=".012"/>
            <feGaussianBlur stdDeviation=".006"/>
            <feComposite in2="hardAlpha" operator="out"/>
            <feColorMatrix values="0 0 0 0 0.0156863 0 0 0 0 0.231373 0 0 0 0 0.0666667 0 0 0 0.7 0"/>
            <feBlend in2="BackgroundImageFix" result="effect1_dropShadow_1970_8019"/>
            <feBlend in="SourceGraphic" in2="effect1_dropShadow_1970_8019" result="shape"/>
        </filter>
        <filter id="aa" width="1.291" height=".527" x="39.707" y="26.044" color-interpolation-filters="sRGB" filterUnits="userSpaceOnUse">
            <feFlood flood-opacity="0" result="BackgroundImageFix"/>
            <feBlend in="SourceGraphic" in2="BackgroundImageFix" result="shape"/>
            <feGaussianBlur result="effect1_foregroundBlur_1970_8019" stdDeviation=".006"/>
        </filter>
        <filter id="ab" width=".277" height=".663" x="40.751" y="26.487" color-interpolation-filters="sRGB" filterUnits="userSpaceOnUse">
            <feFlood flood-opacity="0" result="BackgroundImageFix"/>
            <feBlend in="SourceGraphic" in2="BackgroundImageFix" result="shape"/>
            <feGaussianBlur result="effect1_foregroundBlur_1970_8019" stdDeviation=".001"/>
        </filter>
        <filter id="ag" width=".81" height="1.092" x="42.171" y="32.133" color-interpolation-filters="sRGB" filterUnits="userSpaceOnUse">
            <feFlood flood-opacity="0" result="BackgroundImageFix"/>
            <feBlend in="SourceGraphic" in2="BackgroundImageFix" result="shape"/>
            <feGaussianBlur result="effect1_foregroundBlur_1970_8019" stdDeviation=".006"/>
        </filter>
        <filter id="ai" width=".395" height=".276" x="40.296" y="26.236" color-interpolation-filters="sRGB" filterUnits="userSpaceOnUse">
            <feFlood flood-opacity="0" result="BackgroundImageFix"/>
            <feBlend in="SourceGraphic" in2="BackgroundImageFix" result="shape"/>
            <feGaussianBlur result="effect1_foregroundBlur_1970_8019" stdDeviation=".006"/>
        </filter>
        <filter id="ak" width=".256" height=".379" x="42.559" y="32.4" color-interpolation-filters="sRGB" filterUnits="userSpaceOnUse">
            <feFlood flood-opacity="0" result="BackgroundImageFix"/>
            <feBlend in="SourceGraphic" in2="BackgroundImageFix" result="shape"/>
            <feGaussianBlur result="effect1_foregroundBlur_1970_8019" stdDeviation=".006"/>
        </filter>
        <filter id="am" width=".898" height=".211" x="39.91" y="26.993" color-interpolation-filters="sRGB" filterUnits="userSpaceOnUse">
            <feFlood flood-opacity="0" result="BackgroundImageFix"/>
            <feBlend in="SourceGraphic" in2="BackgroundImageFix" result="shape"/>
            <feGaussianBlur result="effect1_foregroundBlur_1970_8019" stdDeviation=".003"/>
        </filter>
        <filter id="ao" width=".635" height=".656" x="41.828" y="31.816" color-interpolation-filters="sRGB" filterUnits="userSpaceOnUse">
            <feFlood flood-opacity="0" result="BackgroundImageFix"/>
            <feBlend in="SourceGraphic" in2="BackgroundImageFix" result="shape"/>
            <feGaussianBlur result="effect1_foregroundBlur_1970_8019" stdDeviation=".003"/>
        </filter>
        <filter id="aq" width="5.301" height="9.398" x="39.354" y="24.844" color-interpolation-filters="sRGB" filterUnits="userSpaceOnUse">
            <feFlood flood-opacity="0" result="BackgroundImageFix"/>
            <feBlend in="SourceGraphic" in2="BackgroundImageFix" result="shape"/>
            <feGaussianBlur result="effect1_foregroundBlur_1970_8019" stdDeviation=".117"/>
        </filter>
        <filter id="at" width="5.301" height="9.398" x="39.354" y="24.844" color-interpolation-filters="sRGB" filterUnits="userSpaceOnUse">
            <feFlood flood-opacity="0" result="BackgroundImageFix"/>
            <feBlend in="SourceGraphic" in2="BackgroundImageFix" result="shape"/>
            <feGaussianBlur result="effect1_foregroundBlur_1970_8019" stdDeviation=".117"/>
        </filter>
        <filter id="aI" width="3.887" height="6.322" x="33.292" y="32.718" color-interpolation-filters="sRGB" filterUnits="userSpaceOnUse">
            <feFlood flood-opacity="0" result="BackgroundImageFix"/>
            <feBlend in="SourceGraphic" in2="BackgroundImageFix" result="shape"/>
            <feGaussianBlur result="effect1_foregroundBlur_1970_8019" stdDeviation=".146"/>
        </filter>
        <filter id="e" width="1.053" height="1.149" x="-.04" y="-.036" style="color-interpolation-filters:sRGB">
            <feFlood flood-color="#000" flood-opacity=".212" result="flood"/>
            <feGaussianBlur in="SourceGraphic" result="blur" stdDeviation=".9"/>
            <feOffset dy="4.5" in="blur" result="offset"/>
            <feComposite in="flood" in2="offset" operator="in" result="comp1"/>
            <feComposite in="SourceGraphic" in2="comp1" result="comp2"/>
        </filter>
        <linearGradient id="b">
            <stop offset="0" style="stop-color:#b3b3b3;stop-opacity:1"/>
            <stop offset=".032" style="stop-color:#d9d9d9;stop-opacity:1"/>
            <stop offset=".047" style="stop-color:#cdcdcd;stop-opacity:1"/>
            <stop offset=".113" style="stop-color:#b3b3b3;stop-opacity:1"/>
            <stop offset=".163" style="stop-color:#d9d9d9;stop-opacity:1"/>
            <stop offset=".208" style="stop-color:#b3b3b3;stop-opacity:1"/>
            <stop offset=".35" style="stop-color:#b3b3b3;stop-opacity:1"/>
            <stop offset=".396" style="stop-color:#d9d9d9;stop-opacity:1"/>
            <stop offset=".445" style="stop-color:#b3b3b3;stop-opacity:1"/>
            <stop offset=".555" style="stop-color:#b3b3b3;stop-opacity:1"/>
            <stop offset=".604" style="stop-color:#d9d9d9;stop-opacity:1"/>
            <stop offset=".653" style="stop-color:#b3b3b3;stop-opacity:1"/>
            <stop offset=".801" style="stop-color:#b3b3b3;stop-opacity:1"/>
            <stop offset=".851" style="stop-color:#d9d9d9;stop-opacity:1"/>
            <stop offset=".882" style="stop-color:#b3b3b3;stop-opacity:1"/>
            <stop offset=".945" style="stop-color:#cbcbcb;stop-opacity:1"/>
            <stop offset=".963" style="stop-color:#d9d9d9;stop-opacity:1"/>
            <stop offset="1" style="stop-color:#b3b3b3;stop-opacity:1"/>
        </linearGradient>
        <linearGradient id="g" x1="42.948" x2="41.02" y1="48.281" y2="47.187" gradientTransform="translate(21.604 15.774)scale(1.5132)" gradientUnits="userSpaceOnUse">
            <stop stop-color="#4285f4"/>
            <stop offset="1" stop-color="#034eca"/>
        </linearGradient>
        <linearGradient id="q" x1="40.404" x2="39.793" y1="25.095" y2="27.261" gradientUnits="userSpaceOnUse">
            <stop stop-color="#a8f0b9"/>
            <stop offset="1" stop-color="#adeebc" stop-opacity="0"/>
        </linearGradient>
        <linearGradient id="s" x1="43.428" x2="41.593" y1="33.666" y2="32.364" gradientUnits="userSpaceOnUse">
            <stop stop-color="#a8f0b9"/>
            <stop offset="1" stop-color="#adeebc" stop-opacity="0"/>
        </linearGradient>
        <linearGradient id="ac" x1="41.106" x2="40.595" y1="26.476" y2="26.682" gradientUnits="userSpaceOnUse">
            <stop stop-color="#e2dde2"/>
            <stop offset="1" stop-color="#e2dde2" stop-opacity="0"/>
        </linearGradient>
        <linearGradient id="af" x1="42.888" x2="42.46" y1="32.199" y2="32.35" gradientUnits="userSpaceOnUse">
            <stop stop-color="#373637"/>
            <stop offset="1" stop-color="#373637" stop-opacity="0"/>
        </linearGradient>
        <linearGradient id="a" x1="44.165" x2="42.043" y1="28.582" y2="29.331" gradientUnits="userSpaceOnUse">
            <stop stop-color="#a8f0b9"/>
            <stop offset="1" stop-color="#adeebc" stop-opacity="0"/>
        </linearGradient>
        <linearGradient id="aw" x1="28.105" x2="37.382" y1="35.54" y2="34.808" gradientTransform="translate(21.604 15.774)scale(1.5132)" gradientUnits="userSpaceOnUse">
            <stop stop-color="#4285f4"/>
            <stop offset=".703" stop-color="#044fcb"/>
        </linearGradient>
        <linearGradient id="az" x1="17.509" x2="19.509" y1="47.792" y2="46.612" gradientTransform="translate(21.604 15.774)scale(1.5132)" gradientUnits="userSpaceOnUse">
            <stop stop-color="#4285f4"/>
            <stop offset="1" stop-color="#034eca"/>
        </linearGradient>
        <linearGradient id="aC" x1="26.686" x2="25.62" y1="31" y2="30.63" gradientTransform="translate(21.604 15.774)scale(1.5132)" gradientUnits="userSpaceOnUse">
            <stop stop-color="#73a7ff"/>
            <stop offset="1" stop-color="#5893f6" stop-opacity="0"/>
        </linearGradient>
        <linearGradient id="aF" x1="30.058" x2="31.734" y1="11.401" y2="12.909" gradientTransform="translate(21.604 15.774)scale(1.5132)" gradientUnits="userSpaceOnUse">
            <stop stop-color="#4285f4"/>
            <stop offset="1" stop-color="#034eca"/>
        </linearGradient>
        <linearGradient id="aJ" x1="31.933" x2="37.002" y1="21.266" y2="31.86" gradientTransform="translate(21.604 15.774)scale(1.5132)" gradientUnits="userSpaceOnUse">
            <stop stop-color="#034dc9"/>
            <stop offset="1" stop-color="#4285f4"/>
        </linearGradient>
        <linearGradient id="aL" x1="19.667" x2="22.337" y1="29.995" y2="30.912" gradientTransform="translate(21.604 15.774)scale(1.5132)" gradientUnits="userSpaceOnUse">
            <stop stop-color="#9bc0ff"/>
            <stop offset="1" stop-color="#5893f6" stop-opacity="0"/>
        </linearGradient>
        <linearGradient xlink:href="#a" id="ar" x1="44.165" x2="42.043" y1="28.582" y2="29.331" gradientUnits="userSpaceOnUse"/>
        <linearGradient xlink:href="#a" id="au" x1="44.165" x2="42.043" y1="28.582" y2="29.331" gradientUnits="userSpaceOnUse"/>
        <linearGradient xlink:href="#b" id="d" x1="22.668" x2="111.332" y1="61.169" y2="61.169" gradientUnits="userSpaceOnUse"/>
        <radialGradient id="y" cx="0" cy="0" r="1" gradientTransform="rotate(233.903 28.273 .733)scale(.45526 .3299)" gradientUnits="userSpaceOnUse">
            <stop stop-color="#fff"/>
            <stop offset=".948" stop-color="#fff" stop-opacity="0"/>
        </radialGradient>
        <radialGradient id="z" cx="0" cy="0" r="1" gradientTransform="rotate(233.903 31.536 3.769)scale(.45526 .3299)" gradientUnits="userSpaceOnUse">
            <stop stop-color="#fff"/>
            <stop offset=".948" stop-color="#fff" stop-opacity="0"/>
        </radialGradient>
        <radialGradient id="J" cx="0" cy="0" r="1" gradientTransform="rotate(203.795 47.676 19.467)scale(.26876 .48952)" gradientUnits="userSpaceOnUse">
            <stop stop-color="#93e19f"/>
            <stop offset="1" stop-color="#93e19f" stop-opacity="0"/>
        </radialGradient>
        <radialGradient id="L" cx="0" cy="0" r="1" gradientTransform="rotate(117.327 23.54 58.262)scale(.26865 .4893)" gradientUnits="userSpaceOnUse">
            <stop stop-color="#93e19f"/>
            <stop offset="1" stop-color="#93e19f" stop-opacity="0"/>
        </radialGradient>
        <radialGradient id="aN" cx="0" cy="0" r="1" gradientTransform="rotate(134.502 26.433 29.723)scale(1.27234 .88641)" gradientUnits="userSpaceOnUse">
            <stop stop-color="#fff"/>
            <stop offset=".948" stop-color="#fff" stop-opacity="0"/>
        </radialGradient>
        <radialGradient id="aP" cx="0" cy="0" r="1" gradientTransform="rotate(119.61 17.108 41.73)scale(3.96135 2.16419)" gradientUnits="userSpaceOnUse">
            <stop stop-color="#fff"/>
            <stop offset=".948" stop-color="#fff" stop-opacity="0"/>
        </radialGradient>
        <mask id="n" width="11" height="14" x="37" y="23" maskUnits="userSpaceOnUse">
            <path fill="#fff" d="M42.048 35.775a6.2 6.2 0 0 0 1.69-1.636 6.3 6.3 0 0 0 .992-2.246l.013.002.74.14 1.24.233a.58.58 0 0 0 .49-.14.57.57 0 0 0 .087-.745.57.57 0 0 0-.365-.239l-.519-.097-.721-.136-.74-.14-.08-.014.002-.062a6.2 6.2 0 0 0-.357-2.235l-.022-.06a6.2 6.2 0 0 0-1.137-1.941l.05-.058.488-.572.476-.558.342-.401a.58.58 0 0 0 .135-.416.6.6 0 0 0-.049-.19.57.57 0 0 0-.567-.334.57.57 0 0 0-.39.198l-.342.401-.476.559-.488.571-.005.005a6.3 6.3 0 0 0-3.723-1.377 6.3 6.3 0 0 0-1.628.163l4.144 11.729a7 7 0 0 0 .72-.404"/>
        </mask>
        <mask id="Z" width="3" height="2" x="39" y="26" maskUnits="userSpaceOnUse">
            <path fill="#202124" d="M40.132 27.302c.41.104.81-.081.894-.413s-.18-.685-.59-.789-.81.082-.894.414.18.685.59.788"/>
        </mask>
        <mask id="ae" width="2" height="3" x="41" y="31" maskUnits="userSpaceOnUse">
            <path fill="#202124" d="M41.82 32.1c.254-.338.682-.445.956-.239s.29.646.036.983c-.254.338-.682.445-.956.24s-.29-.647-.036-.984"/>
        </mask>
    </defs>
    <path d="M67 16.838c-1.668 0-3.336.675-5.413 2.027-3.185 2.073-5.727 2.644-10.47 2.346-2.73-.17-4.165.196-5.939 1.518-1.098.82-1.357 1.166-3.13 4.184-1.535 2.61-4.3 4.886-7.536 6.197-3.874 1.57-5.19 3.51-5.587 8.239-.306 3.65-.887 5.782-2.365 8.104h-3.892v7.546h.028c-.011 1.41.41 2.93 1.288 4.843.99 2.155 1.498 4.03 1.591 6.02h-.725v7.549h.004c.082 2.593 1.301 4.44 4.035 6.458 3.246 2.397 4.723 4.646 6.136 9.343 1.144 3.804 3.05 5.395 7.333 6.134 4.131.71 6.508 1.96 9.436 4.965 1.754 1.798 3.005 2.63 4.503 2.983 1.654.392 3.03.245 5.608-.602 3.684-1.208 6.532-1.203 10.228.02 4.52 1.493 6.84.944 10.073-2.391 2.916-3.009 5.297-4.264 9.436-4.975 4.285-.739 6.188-2.33 7.333-6.134 1.413-4.697 2.89-6.946 6.134-9.343 2.735-2.019 3.954-3.865 4.035-6.458h.006v-7.548h-.725c.093-1.99.6-3.867 1.589-6.02.88-1.915 1.3-3.434 1.29-4.844h.028v-7.546h-3.877c-1.504-2.424-2.17-4.856-2.44-8.566-.317-4.382-1.572-6.07-5.888-7.917-3.032-1.297-5.802-3.629-7.158-6.026-2.734-4.836-4.6-6.013-9.086-5.733-4.744.298-7.285-.273-10.47-2.346-2.077-1.352-3.745-2.027-5.413-2.027" clip-path="url(#c)" style="fill:url(#d);stroke-width:1.51319" transform="translate(-18.832 -6.931)scale(1.2363)"/>
    <path fill="#fff" d="M56.297 105.294c-1.498-.354-2.75-1.184-4.503-2.982-2.928-3.005-5.305-4.255-9.436-4.966-4.284-.739-6.19-2.33-7.333-6.135-1.414-4.697-2.89-6.945-6.136-9.342-3.682-2.72-4.626-5.116-3.727-9.462.832-4.025.514-6.885-1.178-10.565-2.015-4.389-1.767-6.734 1.098-10.331 2.625-3.299 3.45-5.478 3.843-10.163.397-4.728 1.713-6.668 5.587-8.239 3.235-1.31 6.001-3.586 7.535-6.195 1.774-3.019 2.033-3.364 3.131-4.184 1.774-1.323 3.208-1.69 5.938-1.52 4.744.299 7.286-.272 10.471-2.345 4.154-2.704 6.672-2.704 10.826 0 3.185 2.073 5.727 2.644 10.471 2.346 4.485-.28 6.35.897 9.085 5.733 1.356 2.397 4.125 4.729 7.158 6.026 4.315 1.847 5.571 3.535 5.89 7.917.344 4.745 1.317 7.4 3.896 10.622 2.87 3.591 3.12 5.94 1.101 10.333-1.69 3.68-2.008 6.541-1.176 10.565.898 4.346-.045 6.742-3.728 9.462-3.244 2.397-4.721 4.645-6.135 9.342-1.145 3.804-3.049 5.396-7.334 6.135-4.139.71-6.519 1.967-9.435 4.975-3.234 3.335-5.553 3.884-10.073 2.39-3.697-1.222-6.545-1.226-10.228-.019-2.578.848-3.954.994-5.608.602" clip-path="url(#c)" style="stroke-width:1.51319" transform="translate(-18.832 -16.316)scale(1.2363)"/>
    <path fill="#fff" d="M56.297 105.294c-1.498-.354-2.75-1.184-4.503-2.982-2.928-3.005-5.305-4.255-9.436-4.966-4.284-.739-6.19-2.33-7.333-6.135-1.414-4.697-2.89-6.945-6.136-9.342-3.682-2.72-4.626-5.116-3.727-9.462.832-4.025.514-6.885-1.178-10.565-2.015-4.389-1.767-6.734 1.098-10.331 2.625-3.299 3.45-5.478 3.843-10.163.397-4.728 1.713-6.668 5.587-8.239 3.235-1.31 6.001-3.586 7.535-6.195 1.774-3.019 2.033-3.364 3.131-4.184 1.774-1.323 3.208-1.69 5.938-1.52 4.744.299 7.286-.272 10.471-2.345 4.154-2.704 6.672-2.704 10.826 0 3.185 2.073 5.727 2.644 10.471 2.346 4.485-.28 6.35.897 9.085 5.733 1.356 2.397 4.125 4.729 7.158 6.026 4.315 1.847 5.571 3.535 5.89 7.917.344 4.745 1.317 7.4 3.896 10.622 2.87 3.591 3.12 5.94 1.101 10.333-1.69 3.68-2.008 6.541-1.176 10.565.898 4.346-.045 6.742-3.728 9.462-3.244 2.397-4.721 4.645-6.135 9.342-1.145 3.804-3.049 5.396-7.334 6.135-4.139.71-6.519 1.967-9.435 4.975-3.234 3.335-5.553 3.884-10.073 2.39-3.697-1.222-6.545-1.226-10.228-.019-2.578.848-3.954.994-5.608.602" clip-path="url(#c)" style="fill:#ececec;stroke-width:1.51319" transform="translate(-16.797 -14.458)scale(1.20593)"/>
    <g style="filter:url(#e)" transform="translate(-18.832 -16.316)scale(1.2363)">
        <path fill="#034eca" d="M87.313 87.664a1.106 1.106 0 0 1-2.027.861l-2.665-4.948a1.628 1.628 0 1 1 2.984-1.266z" clip-path="url(#f)" style="stroke-width:1.51319"/>
        <path fill="url(#g)" d="M87.313 87.664a1.106 1.106 0 0 1-2.027.861l-2.665-4.948a1.628 1.628 0 1 1 2.984-1.266z" clip-path="url(#h)" style="fill:url(#g);stroke-width:1.51319"/>
        <g clip-path="url(#m)" mask="url(#n)" style="fill:none" transform="translate(21.604 15.774)scale(1.5132)">
            <path fill="#4faf53" d="m48.373 33.769-4.42-12.526-7.047 2.487 4.42 12.525z"/>
            <g filter="url(#p)" opacity=".8">
                <path fill="url(#q)" fill-opacity=".3" d="M44.17 29.065c-.438 1.55-1.767-1.91-4.157-2.584s-5.331 1.58-4.894.03c.78-1.138 2.872-2.007 5.262-1.332 2.39.674 3.81 2.694 3.789 3.886" style="fill:url(#q)"/>
            </g>
            <g filter="url(#r)" opacity=".7">
                <path fill="url(#s)" fill-opacity=".4" d="M43.869 28.213c-1.314-.933-.177 2.595-1.614 4.62s-5.143 2.116-3.83 3.049c1.322.395 3.496-.24 4.933-2.265s1.275-4.49.51-5.404z" style="fill:url(#s)"/>
            </g>
            <g filter="url(#t)" opacity=".6">
                <path fill="#8bd8a0" d="M38.761 23.716c-1.668.052-3.016.252-3.01.445.006.194 1.364.308 3.032.255s3.998 1.338 3.992 1.144c-.006-.193-2.346-1.897-4.014-1.844"/>
            </g>
            <g filter="url(#u)" opacity=".5">
                <path fill="#8bd8a0" d="M42.99 35.697c-1.333 1.006-2.507 1.696-2.624 1.542-.116-.155.869-1.095 2.2-2.102s2.274-3.55 2.39-3.396c.117.155-.635 2.95-1.967 3.956z"/>
            </g>
            <g filter="url(#v)" opacity=".7">
                <path fill="#0d652d" d="M43.605 24.693c-.61.746-.906 1.083-.972 1.03-.066-.055.124-.48.733-1.225.375-.935 1.49-.48 1.556-.426s-.537-.443-1.317.621"/>
            </g>
            <g filter="url(#w)" opacity=".1">
                <path fill="#000" d="M42.517 25.66c.057.043.508-.451 1.007-1.105.5-.653.858-1.218.801-1.261-.057-.044-.508.45-1.007 1.104-.5.654-.858 1.218-.801 1.262"/>
            </g>
            <g filter="url(#x)" opacity=".3">
                <path fill="#fff" d="M44.207 25.143c-.637.78-.924 1.152-.871 1.195s.425-.259 1.062-1.04c.916-.858-.034-1.489-.122-1.362-.26.277.845.174-.069 1.207"/>
            </g>
            <path fill="url(#y)" fill-opacity=".9" d="M43.915 23.421c-.276.198-.312.622-.08.947.234.326.646.43.923.231.276-.198.312-.622.08-.947-.234-.325-.646-.428-.923-.23z" opacity=".15" style="fill:url(#y)"/>
            <path fill="url(#z)" fill-opacity=".9" d="M46.648 30.881c-.276.198-.312.622-.079.947.233.326.645.43.922.231.276-.197.312-.621.08-.947-.233-.325-.646-.428-.923-.23z" opacity=".15" style="fill:url(#z)"/>
            <g filter="url(#A)" opacity=".1">
                <path fill="#000" d="M44.664 31.875c.016-.07.68.022 1.481.204.802.182 1.44.387 1.423.456-.016.07-.678-.021-1.48-.203s-1.44-.387-1.424-.457"/>
            </g>
            <mask id="B" width="2" height="3" x="44" y="30" maskUnits="userSpaceOnUse">
                <path fill="#000" d="M44.685 31.969c.075-.34.149-1.079.176-1.406l.727-.047-.09 2.084c-.302-.069-.888-.292-.813-.631"/>
            </mask>
            <g mask="url(#B)">
                <g filter="url(#C)" opacity=".3" style="mix-blend-mode:multiply">
                    <path fill="#0d652d" d="M44.85 32.118c.036-.57.006-1.037-.065-1.042-.072-.004-.113.435-.148 1.006s-.05 1.059.022 1.063c.071.004.157-.455.192-1.027z"/>
                </g>
                <g filter="url(#D)" opacity=".3" style="mix-blend-mode:screen">
                    <path fill="#81c995" d="M44.888 30.961c.02-.162.01-.297-.022-.3-.032-.005-.054.12-.073.282-.019.163-.029.302.003.306.032.003.073-.125.092-.288"/>
                </g>
            </g>
            <mask id="E" width="2" height="3" x="42" y="24" maskUnits="userSpaceOnUse">
                <path fill="#000" d="M42.368 25.576c.275.21.808.73 1.04.962l.585-.431-1.41-1.537c-.186.247-.491.794-.215 1.006"/>
            </mask>
            <g mask="url(#E)">
                <g filter="url(#F)" opacity=".3" style="mix-blend-mode:multiply">
                    <path fill="#0d652d" d="M42.398 25.355c.395.415.672.79.62.84-.051.05-.366-.26-.76-.675s-.72-.778-.667-.827c.052-.05.413.247.807.662"/>
                </g>
                <g filter="url(#G)" opacity=".3" style="mix-blend-mode:screen">
                    <path fill="#81c995" d="M43.172 26.216c.119.112.198.222.176.245s-.118-.058-.237-.17c-.12-.112-.217-.212-.195-.236s.137.05.256.161"/>
                </g>
            </g>
            <g filter="url(#H)" opacity=".7">
                <path fill="#0d652d" d="M46.147 32.003c-.947-.176-1.391-.242-1.407-.159-.015.084.404.286 1.35.462.89.472 1.448-.595 1.464-.68.016-.083-.125.687-1.407.377"/>
            </g>
            <g filter="url(#I)" opacity=".3">
                <path fill="#fff" d="M46.311 31.245c-.963-.18-1.41-.277-1.396-.348.013-.07.48-.086 1.444.093 1.576.036 1.76 1.145.94 1.242-.36-.025.341-.798-.988-.987"/>
            </g>
        </g>
        <path fill="url(#J)" fill-opacity=".7" d="M83.155 56.4c-.118.29-.086.581.076.646.158.065.385-.118.505-.408.118-.292.085-.581-.076-.648-.159-.065-.386.118-.505.409z" clip-path="url(#K)" style="fill:url(#J);stroke-width:1.51319"/>
        <path fill="url(#L)" fill-opacity=".7" d="M85.956 64.369c-.276-.152-.431-.398-.348-.55.083-.151.375-.151.65 0 .276.152.432.398.349.55-.084.15-.376.15-.651 0" clip-path="url(#M)" style="fill:url(#L);stroke-width:1.51319"/>
        <g clip-path="url(#N)" filter="url(#O)" opacity=".09" style="mix-blend-mode:multiply;fill:none" transform="translate(21.604 15.774)scale(1.5132)">
            <path fill="#011b04" d="M40.168 27.407c.5.022.707-.26.747-.404.293-.476-.182-.81-.404-.881-.222-.072-.598-.157-.955.181-.356.338-.013 1.076.612 1.104"/>
        </g>
        <g clip-path="url(#P)" filter="url(#Q)" opacity=".09" style="mix-blend-mode:multiply;fill:none" transform="translate(21.604 15.774)scale(1.5132)">
            <path fill="#011b04" d="M41.781 31.999c.373-.33.71-.24.831-.154.524.188.366.745.239.94s-.365.496-.853.456c-.487-.04-.683-.83-.217-1.242"/>
        </g>
        <path d="M84.945 65.855c.424.317 1.08.161 1.465-.348.384-.512.35-1.184-.073-1.503-.424-.318-1.08-.162-1.465.348-.384.511-.352 1.183.073 1.503" clip-path="url(#T)" style="stroke-width:1.51319"/>
        <g clip-path="url(#U)" filter="url(#V)" style="fill:none" transform="translate(21.604 15.774)scale(1.5132)">
            <path fill="#000" d="M40.132 27.302c.41.104.81-.08.894-.413s-.18-.685-.59-.788c-.41-.104-.81.08-.894.413s.18.685.59.788"/>
        </g>
        <g clip-path="url(#W)" filter="url(#X)" style="fill:none" transform="translate(21.604 15.774)scale(1.5132)">
            <path fill="#000" d="M41.82 32.1c.253-.338.681-.445.955-.239s.29.646.036.983c-.254.338-.682.445-.956.24s-.29-.647-.036-.984z"/>
        </g>
        <g clip-path="url(#Y)" mask="url(#Z)" style="fill:none" transform="translate(21.604 15.774)scale(1.5132)">
            <g filter="url(#aa)">
                <path fill="#d8d8d8" fill-opacity=".29" d="M40.481 26.173c-.333-.12-.643-.037-.762.034.231-.142.484-.21.802-.092a.9.9 0 0 1 .425.372q.027.045.04.072l-.04-.072-.034-.05c-.06-.077-.172-.171-.43-.264z"/>
            </g>
            <g filter="url(#ab)" opacity=".8">
                <path fill="url(#ac)" d="M40.754 27.148c.335-.217.268-.529.193-.658.094.101.103.339.031.466a.5.5 0 0 1-.224.192" style="fill:url(#ac)"/>
            </g>
        </g>
        <g clip-path="url(#ad)" mask="url(#ae)" style="fill:none" transform="translate(21.604 15.774)scale(1.5132)">
            <path fill="url(#af)" d="M42.86 32.124a.466.466 0 0 0-.536-.294.52.52 0 0 1 .389.249c.106.185-.029.529-.11.677l.146.06a.68.68 0 0 0 .11-.692z" style="fill:url(#af)"/>
            <g filter="url(#ag)">
                <path fill="#d8d8d8" fill-opacity=".29" d="M42.798 32.761c-.184.303-.477.433-.615.452.27-.035.508-.14.682-.431a.9.9 0 0 0 .097-.557l-.014-.08.014.08.006.06c.002.098-.027.242-.17.476"/>
            </g>
        </g>
        <g clip-path="url(#ah)" filter="url(#ai)" opacity=".8" style="fill:none" transform="translate(21.604 15.774)scale(1.5132)">
            <path fill="#e2dce1" d="M40.68 26.417c-.069-.114-.23-.16-.302-.17l-.07.094a.6.6 0 0 1 .155.049c.066.032.145.087.177.11z"/>
        </g>
        <g clip-path="url(#aj)" filter="url(#ak)" opacity=".8" style="fill:none" transform="translate(21.604 15.774)scale(1.5132)">
            <path fill="#e2dce1" d="M42.801 32.452c.02.13-.072.264-.12.316l-.11-.03a.6.6 0 0 0 .086-.133c.03-.065.055-.156.064-.193z"/>
        </g>
        <g fill="#e2dce1" clip-path="url(#al)" filter="url(#am)" opacity=".8" transform="translate(21.604 15.774)scale(1.5132)">
            <path d="M40.193 27.155a3 3 0 0 1-.158-.156h-.12a.5.5 0 0 0 .172.147l.106.01zm.53.02a1 1 0 0 0 .079-.069l-.042.015a.5.5 0 0 1-.102.077c.01 0 .038-.005.065-.023"/>
        </g>
        <g fill="#e2dce1" clip-path="url(#an)" filter="url(#ao)" opacity=".8" transform="translate(21.604 15.774)scale(1.5132)">
            <path d="M41.952 32.171c-.012.07-.022.177-.025.221l-.093.075a.5.5 0 0 1 .041-.222zm.4-.348a1 1 0 0 1 .105.004l-.041.015a.5.5 0 0 0-.128.004.13.13 0 0 1 .064-.023"/>
        </g>
        <g clip-path="url(#ap)" filter="url(#aq)" opacity=".3" style="fill:none" transform="translate(21.604 15.774)scale(1.5132)">
            <path fill="url(#a)" fill-opacity=".4" d="M43.092 33.947c-1.52.536.542-2.544-.284-4.886s-4.364-3.446-2.845-3.982c1.379-.018 3.294 1.19 4.12 3.532s-.005 4.666-.99 5.336z" style="fill:url(#ar)"/>
        </g>
        <g clip-path="url(#as)" filter="url(#at)" opacity=".2" style="fill:none" transform="translate(21.604 15.774)scale(1.5132)">
            <path fill="url(#R)" fill-opacity=".4" d="M43.092 33.947c-1.52.536.542-2.544-.284-4.886s-4.364-3.446-2.845-3.982c1.379-.018 3.294 1.19 4.12 3.532s-.005 4.666-.99 5.336z" style="fill:url(#au)"/>
        </g>
        <path fill="#4386f5" d="M48.412 57.518a3.64 3.64 0 0 0-2.344-1.735 4.2 4.2 0 0 0-3.034.448 4.2 4.2 0 0 0-1.944 2.37c-.312.989-.126 2.184.366 3.053l3.598-1.857 3.36-2.279z" clip-path="url(#av)" style="stroke-width:1.51319"/>
        <path fill="url(#aw)" fill-rule="evenodd" d="M48.38 57.465c5.206 8.62 16.107 12.309 25.634 8.238l3.18 7.44c-13.288 5.68-28.478.53-35.741-11.494Z" clip-path="url(#ax)" clip-rule="evenodd" style="fill:url(#aw);stroke-width:1.51319"/>
        <path fill="#034eca" d="M46.858 87.664a1.106 1.106 0 0 0 2.028.861l2.663-4.948a1.628 1.628 0 1 0-2.983-1.266z" clip-path="url(#ay)" style="stroke-width:1.51319"/>
        <path fill="url(#az)" d="M46.858 87.664a1.106 1.106 0 0 0 2.028.861l2.663-4.948a1.628 1.628 0 1 0-2.983-1.266z" clip-path="url(#aA)" style="fill:url(#az);stroke-width:1.51319"/>
        <path fill="#4285f4" d="M60.454 41.022a4.58 4.58 0 1 1 8.609 3.133L55.619 81.092a4.581 4.581 0 1 1-8.61-3.132l13.443-36.937Z" clip-path="url(#aB)" style="stroke-width:1.51319"/>
        <path fill="url(#aC)" d="M50.97 84.084a4.57 4.57 0 0 0 4.752-2.981l10.92-30.004a4.57 4.57 0 0 0-1.188-4.913z" clip-path="url(#aD)" style="fill:url(#aC);stroke-width:1.51319"/>
        <path fill="#4285f4" d="M69.969 32.684a2.882 2.882 0 0 0-5.764 0v5.467a2.882 2.882 0 0 0 5.764 0z" clip-path="url(#aE)" style="stroke-width:1.51319"/>
        <path fill="url(#aF)" d="M69.969 32.684a2.882 2.882 0 0 0-5.764 0v5.467a2.882 2.882 0 0 0 5.764 0z" clip-path="url(#aG)" style="fill:url(#aF);stroke-width:1.51319"/>
        <g clip-path="url(#aH)" filter="url(#aI)" opacity=".5" style="fill:none" transform="translate(21.604 15.774)scale(1.5132)">
            <path fill="#044fcb" d="M33.83 38.743c-.744.064.456-.857.273-2.999-.124-1.444.38-2.667 1.124-2.73s1.448 1.055 1.572 2.5c.617 2.313-2.224 3.166-2.968 3.23z"/>
        </g>
        <path fill="url(#aJ)" d="M65.02 44.113a4.529 4.529 0 0 1 8.503-3.117l13.56 37.006a4.529 4.529 0 1 1-8.504 3.118z" clip-path="url(#aK)" style="fill:url(#aJ);stroke-width:1.51319"/>
        <path fill="url(#aL)" d="M63.467 39.555a5.32 5.32 0 0 0-3.694 3.341L47.029 77.895c-.778 2.134 0 4.44 1.66 5.475z" clip-path="url(#aM)" style="fill:url(#aL);stroke-width:1.51319"/>
        <path fill="url(#aN)" fill-opacity=".9" d="M64.73 33.135c.645.646 1.809.53 2.6-.262.79-.79.908-1.955.262-2.601s-1.81-.528-2.601.262c-.79.791-.908 1.955-.262 2.6z" clip-path="url(#aO)" opacity=".3" style="fill:url(#aN);stroke-width:1.51319"/>
        <path fill="url(#aP)" fill-opacity=".9" d="M58.688 52.932c1.93 1.115 4.907-.424 6.648-3.438s1.585-6.362-.345-7.475c-1.933-1.117-4.908.423-6.648 3.438-1.74 3.014-1.586 6.361.345 7.475" clip-path="url(#aQ)" opacity=".3" style="fill:url(#aP);stroke-width:1.51319"/>
        <path fill="#fff" d="M67.014 49.161a5.615 5.615 0 1 0 0-11.23 5.615 5.615 0 0 0 0 11.23" clip-path="url(#aR)" style="stroke-width:1.51319"/>
        <path fill="#202124" fill-rule="evenodd" d="M67.014 39.407a4.139 4.139 0 1 0 0 8.277 4.139 4.139 0 0 0 0-8.277m-7.094 4.139a7.093 7.093 0 1 1 14.186 0 7.093 7.093 0 0 1-14.186 0" clip-path="url(#aS)" clip-rule="evenodd" style="stroke-width:1.51319"/>
    </g>
</svg>
