<svg xmlns="http://www.w3.org/2000/svg" xmlns:xlink="http://www.w3.org/1999/xlink" xml:space="preserve" width="128" height="128" viewBox="0 0 128 128">
    <defs>
        <linearGradient id="b">
            <stop offset="0" style="stop-color:#e6e6e6;stop-opacity:1"/>
            <stop offset="1" style="stop-color:#fff;stop-opacity:1"/>
        </linearGradient>
        <linearGradient id="a">
            <stop offset="0" style="stop-color:#999;stop-opacity:1"/>
            <stop offset=".3" style="stop-color:#999;stop-opacity:1"/>
            <stop offset=".5" style="stop-color:#bdbdbd;stop-opacity:1"/>
            <stop offset=".7" style="stop-color:#999;stop-opacity:1"/>
            <stop offset="1" style="stop-color:#999;stop-opacity:1"/>
        </linearGradient>
        <linearGradient xlink:href="#a" id="c" x1="9" x2="119" y1="115" y2="115" gradientUnits="userSpaceOnUse"/>
        <linearGradient xlink:href="#b" id="d" x1="64" x2="64" y1="83.477" y2="5" gradientUnits="userSpaceOnUse"/>
        <radialGradient id="e" cx="578.89" cy="473.319" r="353.942" gradientTransform="matrix(.12069 0 0 .1324 2.386 -6.558)" gradientUnits="userSpaceOnUse">
            <stop offset="0" stop-color="#c2c0c2" style="stop-color:#e1dfe1;stop-opacity:1"/>
            <stop offset="1" stop-color="#ebebeb"/>
        </radialGradient>
        <filter id="f" width="1.118" height="1.152" x="-.059" y="-.054" style="color-interpolation-filters:sRGB">
            <feFlood flood-color="#050505" flood-opacity=".498" result="flood"/>
            <feComposite in="flood" in2="SourceGraphic" operator="in" result="composite1"/>
            <feGaussianBlur in="composite1" result="blur" stdDeviation="2"/>
            <feOffset dy="4" result="offset"/>
            <feComposite in="SourceGraphic" in2="offset" result="composite2"/>
        </filter>
    </defs>
    <path d="M64 5A55 55 0 0 0 9 60v8a55 55 0 0 0 55 55 55 55 0 0 0 55-55v-8A55 55 0 0 0 64 5" style="fill:url(#c);fill-opacity:1"/>
    <circle cx="64" cy="60" r="55" style="fill:url(#d);fill-opacity:1;stroke-width:1"/>
    <ellipse cx="64" cy="60.187" rx="52.489" ry="52.676" style="fill:#323232;fill-opacity:1;stroke-width:.956048"/>
    <path d="M85.046 43.701a24.046 24.046 0 0 1-33.46 8.504 24.5 24.5 0 0 1-5.42-4.56 24 24 0 0 1-6.022-17.032 24 24 0 0 1 .544-4.126q.229-1.035.549-2.047.31-.985.707-1.94.413-.993.911-1.945c.348-.67.733-1.321 1.144-1.954q.57-.875 1.213-1.697.698-.897 1.48-1.723.79-.831 1.65-1.588a24 24 0 0 1 1.827-1.451q.488-.352.994-.678A29.495 29.495 0 0 0 38 50.505q.099.206.2.41l.094.185a.6.6 0 0 0 .057.11c.04.044.049.037.109.036q.466-.008.933.002.862.019 1.722.099a24.09 24.09 0 0 1 21.502 20.078 24.3 24.3 0 0 1 .077 7.261 24 24 0 0 1-5.57 12.293 24.4 24.4 0 0 1-6.008 5.043 24.12 24.12 0 0 1-14.984 3.197 25 25 0 0 1-2.8-.486q-.897-.211-1.775-.491a29.3 29.3 0 0 0 8.272 2.29 29.8 29.8 0 0 0 8.015-.097 29.4 29.4 0 0 0 13.115-5.417 29.7 29.7 0 0 0 7.21-7.612q.125-.192.248-.386c.031-.05.102-.129.093-.182a1 1 0 0 0-.127-.234q-.241-.454-.463-.917-.447-.932-.812-1.899a24 24 0 0 1-1.127-4.027 24.2 24.2 0 0 1 .005-8.929 23.9 23.9 0 0 1 2.578-7.15 24.03 24.03 0 0 1 20.89-12.439q.885-.006 1.77.051.852.057 1.7.171.838.115 1.668.29.812.17 1.612.396.783.223 1.55.498.777.279 1.534.61.77.337 1.516.73.744.392 1.46.834.674.415 1.317.875.663.475 1.295.99.65.533 1.262 1.111.652.614 1.256 1.275.603.657 1.155 1.36.617.782 1.166 1.613a25 25 0 0 1 1.056 1.752 24 24 0 0 1 1.215 2.578 25 25 0 0 1 .962 2.942 29.4 29.4 0 0 0-6.237-14.596 29.65 29.65 0 0 0-9.053-7.541 29.3 29.3 0 0 0-11.58-3.416q-.514-.041-1.03-.065" shape-rendering="geometricPrecision" style="fill:url(#e);stroke-width:.120688;filter:url(#f)" transform="translate(10.922 8.785)scale(.84883)"/>
    <path d="M64 7.51a52.49 52.676 0 0 0-52.49 52.677 52.49 52.676 0 0 0 .072 1A52.49 52.676 0 0 1 64 9.51a52.49 52.676 0 0 1 52.453 51.195 52.49 52.676 0 0 0 .037-.517A52.49 52.676 0 0 0 64 7.51" style="fill:#1a1a1a;fill-opacity:1;stroke-width:.956048"/>
</svg>
