<svg xmlns="http://www.w3.org/2000/svg" xmlns:xlink="http://www.w3.org/1999/xlink" width="128" height="128" viewBox="0 0 128 128">
    <defs>
        <linearGradient id="b">
            <stop offset="0" style="stop-color:#3fa6b8;stop-opacity:1"/>
            <stop offset=".26" style="stop-color:#3fa6b8;stop-opacity:1"/>
            <stop offset=".335" style="stop-color:#6dbfcd;stop-opacity:1"/>
            <stop offset=".42" style="stop-color:#3fa6b8;stop-opacity:1"/>
            <stop offset="1" style="stop-color:#3fa6b8;stop-opacity:1"/>
        </linearGradient>
        <linearGradient id="a">
            <stop offset="0" style="stop-color:#b3b3b3;stop-opacity:1"/>
            <stop offset=".45" style="stop-color:#b3b3b3;stop-opacity:1"/>
            <stop offset=".502" style="stop-color:#ccc;stop-opacity:1"/>
            <stop offset=".55" style="stop-color:#b3b3b3;stop-opacity:1"/>
            <stop offset="1" style="stop-color:#b3b3b3;stop-opacity:1"/>
        </linearGradient>
        <linearGradient xlink:href="#a" id="g" x1="9" x2="119" y1="64" y2="64" gradientUnits="userSpaceOnUse"/>
        <linearGradient xlink:href="#b" id="h" x1="49.5" x2="93.014" y1="122" y2="122" gradientTransform="translate(0 4)" gradientUnits="userSpaceOnUse"/>
        <clipPath id="d">
            <path d="M0 0h192v152H0z"/>
        </clipPath>
        <filter id="c" width="1" height="1" x="0" y="0" filterUnits="objectBoundingBox">
            <feColorMatrix in="SourceGraphic" values="0 0 0 0 1 0 0 0 0 1 0 0 0 0 1 0 0 0 1 0"/>
        </filter>
        <mask id="f">
            <g filter="url(#c)">
                <path d="M0 0h128v128H0z" style="fill:#000;fill-opacity:.3;stroke:none"/>
            </g>
        </mask>
        <g id="e" clip-path="url(#d)">
            <path d="M176 24v6l6-6Zm0 0" style="stroke:none;fill-rule:nonzero;fill:#241f31;fill-opacity:1"/>
        </g>
    </defs>
    <use xlink:href="#e" width="100%" height="100%" mask="url(#f)" transform="translate(5.998 2.09)scale(.90628)"/>
    <path d="M64 6a6.2 6.2 0 0 0-4.387 1.822l-48.79 48.791c-1.1 1.1-1.676 2.506-1.78 3.938H9V67c0 1.585.607 3.172 1.822 4.387l48.791 48.79a6.19 6.19 0 0 0 8.774 0l48.79-48.79A6.2 6.2 0 0 0 119 67v-6.45h-.043c-.104-1.431-.68-2.837-1.78-3.937l-48.79-48.79A6.2 6.2 0 0 0 64 6" style="fill:url(#g);fill-opacity:1;stroke-width:.775305" transform="translate(0 -2)"/>
    <path d="M64 83.104V79.51" style="fill:#fff;fill-opacity:1;stroke-width:.216779" transform="translate(0 -2)"/>
    <path d="M78.5 80.594 53.053 106.04v-1.977H49.5v10l10.113 10.114a6.19 6.19 0 0 0 8.774 0L93.014 99.55l-.002-.254h.002v-10H89.46v2.242z" style="fill:url(#h);fill-opacity:1;fill-rule:nonzero;stroke:none;stroke-width:.906281" transform="translate(0 -2)"/>
    <path d="m78.5 74.594-29 29v.47l10.113 10.114a6.19 6.19 0 0 0 8.774 0L93.014 89.55l-.002-.467z" style="fill:#4fcfe6;fill-opacity:1;fill-rule:nonzero;stroke:none;stroke-width:.906281" transform="translate(0 -2)"/>
    <path d="m64 31.092-14.5 14.5L64 60.094Z" style="fill:#1ea37d;fill-opacity:1;fill-rule:nonzero;stroke:none;stroke-width:.906281" transform="translate(0 -2)"/>
    <path d="M35.672 37.764 12.436 61H9v10c0 1.585.607 3.172 1.822 4.387l9.676 9.676v-.47L35 70.094l.02-.02L49.5 55.591l-2-2 2-2z" style="fill:#5237aa;fill-opacity:1;fill-rule:nonzero;stroke:none;stroke-width:.906281" transform="translate(0 -2)"/>
    <path d="M93.002 60.094 78.5 74.594l14.512 14.49.004-.008z" style="fill:#ffcc47;fill-opacity:1;fill-rule:nonzero;stroke:none;stroke-width:.906281" transform="translate(0 -2)"/>
    <path d="m93 38.436-.055 27.714-.004 1.666.008.008-.004 2.326-.004 1.666 13.903 13.905 10.334-10.334A6.2 6.2 0 0 0 119 71V61h-3.436z" style="fill:#b82a4b;fill-opacity:1;fill-rule:nonzero;stroke:none;stroke-width:.906281" transform="translate(0 -2)"/>
    <path d="M92.328 31.764 64 60.094l14.5 14.5L92.945 60.15 93 32.436Z" style="fill:#ffa800;fill-opacity:1;fill-rule:nonzero;stroke:none;stroke-width:.906281" transform="translate(0 -2)"/>
    <path d="m93 32.436-.055 27.714-.004 1.666 13.903 13.905 10.334-10.334A6.2 6.2 0 0 0 119 61a6.2 6.2 0 0 0-1.822-4.387z" style="fill:#e6355e;fill-opacity:1;fill-rule:nonzero;stroke:none;stroke-width:.906281" transform="translate(0 -2)"/>
    <path d="m93.002 66.094.002 4.002-.002-.002.014 29.455 14.486-14.487v-10h-3.553v1.993z" style="fill:#c6647d;fill-opacity:1;fill-rule:nonzero;stroke:none;stroke-width:.906281" transform="translate(0 -2)"/>
    <path d="m64 60.094-14.5 14.5v29l29-29z" style="fill:#bde6f5;fill-opacity:1;fill-rule:nonzero;stroke:none;stroke-width:.906281" transform="translate(0 -2)"/>
    <path d="M77.818 17.254 64 31.092v29.002l28.328-28.33Z" style="fill:#2ec299;fill-opacity:1;fill-rule:nonzero;stroke:none;stroke-width:.906281" transform="translate(0 -2)"/>
    <path d="m35.672 31.764-24.85 24.85A6.2 6.2 0 0 0 9 61c0 1.585.607 3.172 1.822 4.387l9.676 9.676v-.47L35 60.094l.02-.02L49.5 45.591Z" style="fill:#6645d4;fill-opacity:1;fill-rule:nonzero;stroke:none;stroke-width:.906281" transform="translate(0 -2)"/>
    <path d="M35.02 66.072 24.05 77.041v-1.978h-3.552v10L35 99.564v-.47l14.5-14.5-1.998-2.002 1.998-1.998Z" style="fill:#704bac;fill-opacity:1;fill-rule:nonzero;stroke:none;stroke-width:.906281" transform="translate(0 -2)"/>
    <path d="M49.5 80.594 38.55 91.543v-1.979H35v10l14.5 14.5v-29.47z" style="fill:#977ab6;fill-opacity:1;fill-rule:nonzero;stroke:none;stroke-width:.906281" transform="translate(0 -2)"/>
    <path d="M49.5 74.594 35 89.094v.47l14.5 14.5v-.47z" style="fill:#bd99e3;fill-opacity:1;fill-rule:nonzero;stroke:none;stroke-width:.906281" transform="translate(0 -2)"/>
    <path d="M64 6a6.2 6.2 0 0 0-4.387 1.822l-23.27 23.27H64l13.818-13.838-9.431-9.432A6.2 6.2 0 0 0 64 6" style="fill:#f8e657;fill-opacity:1;fill-rule:nonzero;stroke:none;stroke-width:.906281" transform="translate(0 -2)"/>
    <path d="m36.344 31.092-.672.672L49.5 45.592l14.5-14.5z" style="fill:#eec207;fill-opacity:1;fill-rule:nonzero;stroke:none;stroke-width:.906281" transform="translate(0 -2)"/>
    <path d="m93.002 60.094.014 29.455 14.486-14.487v-.45z" style="fill:#f87d9c;fill-opacity:1;fill-rule:nonzero;stroke:none;stroke-width:.906281" transform="translate(0 -2)"/>
    <path d="M35.02 60.072 20.498 74.594v.469L35 89.564v-.47l14.5-14.5z" style="fill:#8c5ed7;fill-opacity:1;fill-rule:nonzero;stroke:none;stroke-width:.906281" transform="translate(0 -2)"/>
    <path d="m35.041 60.094 14.459 14.5 14.5-14.5Z" style="fill:#5cc2f3;fill-opacity:1;fill-rule:nonzero;stroke:none;stroke-width:.906281" transform="translate(0 -2)"/>
    <path d="m64 60.093-14.5-14.5-14.501 14.5Zm0 0" style="fill:#198cd1;fill-opacity:1;fill-rule:nonzero;stroke:none;stroke-width:.906281" transform="translate(0 -2)"/>
    <path d="m35.041 60.094 14.459 14.5 14.5-14.5Z" style="fill:#5cc2f3;fill-opacity:1;fill-rule:nonzero;stroke:none;stroke-width:.906281" transform="translate(0 -2)"/>
    <path d="M77.818 17.254 64 31.092l14.5 14.5 13.828-13.828Z" style="fill:#58cead;fill-opacity:1;stroke-width:.2" transform="translate(0 -2)"/>
</svg>
