<svg width="128" height="128" viewBox="0 0 128 128" fill="none" xmlns="http://www.w3.org/2000/svg">
<path d="M64 5C49.4131 5 35.4236 10.7946 25.1091 21.1091C14.7946 31.4236 9 45.4131 9 60V68C9 82.5869 14.7946 96.5764 25.1091 106.891C35.4236 117.205 49.4131 123 64 123C78.5869 123 92.5764 117.205 102.891 106.891C113.205 96.5764 119 82.5869 119 68V60C119 45.4131 113.205 31.4236 102.891 21.1091C92.5764 10.7946 78.5869 5 64 5Z" fill="url(#paint0_linear_12_14497)"/>
<path d="M64 115C94.3757 115 119 90.3757 119 60C119 29.6243 94.3757 5 64 5C33.6243 5 9 29.6243 9 60C9 90.3757 33.6243 115 64 115Z" fill="url(#paint1_linear_12_14497)"/>
<path d="M64 112.614C93.0581 112.614 116.614 89.0581 116.614 60C116.614 30.942 93.0581 7.38574 64 7.38574C34.942 7.38574 11.3857 30.942 11.3857 60C11.3857 89.0581 34.942 112.614 64 112.614Z" fill="url(#paint2_linear_12_14497)"/>
<path fill-rule="evenodd" clip-rule="evenodd" d="M85.5158 42.9167C86.1172 39.4311 86.9996 37.2393 87.9771 37.2351H87.9792C89.8019 37.2414 91.2795 44.8427 91.2795 54.2278C91.2795 63.6127 89.7998 71.2204 87.975 71.2204C87.227 71.2204 86.5368 69.9287 85.9809 67.764C85.1025 75.6878 83.2798 81.1351 81.1699 81.1351C79.5373 81.1351 78.0721 77.863 77.0884 72.7025C76.4167 82.5167 74.7263 89.4796 72.7506 89.4796C71.5107 89.4796 70.3802 86.7205 69.5434 82.2279C68.5369 91.5019 66.2121 98 63.5006 98C60.7893 98 58.4604 91.5039 57.458 82.2279C56.6272 86.7205 55.4969 89.4796 54.2507 89.4796C52.275 89.4796 50.5887 82.5167 49.913 72.7025C48.9293 77.863 47.4683 81.1351 45.8315 81.1351C43.7236 81.1351 41.8988 75.69 41.0205 67.764C40.4688 69.935 39.7744 71.2204 39.0263 71.2204C37.2015 71.2204 35.7219 63.6127 35.7219 54.2278C35.7219 44.8427 37.2015 37.2351 39.0263 37.2351C40.0059 37.2351 40.8821 39.4332 41.4897 42.9167C42.463 36.9064 44.044 33 45.8315 33C47.9539 33 49.7931 38.5247 50.6632 46.5468C51.5145 40.7081 52.8062 36.986 54.2528 36.986C56.28 36.986 58.0036 44.3068 58.6422 54.5188C59.8429 49.2829 61.5808 45.9983 63.5048 45.9983C65.4288 45.9983 67.1668 49.2851 68.3654 54.5188C69.006 44.3068 70.7274 36.986 72.7548 36.986C74.1993 36.986 75.4889 40.7081 76.3444 46.5468C77.2123 38.5247 79.0516 33 81.174 33C82.9554 33 84.5425 36.9085 85.5158 42.9167ZM31 52.5565C31 48.3611 31.839 44.9592 32.8744 44.9592C33.9097 44.9592 34.7488 48.3611 34.7488 52.5565C34.7488 56.7517 33.9097 60.1536 32.8744 60.1536C31.839 60.1536 31 56.7517 31 52.5565ZM92.2512 52.5565C92.2512 48.3611 93.0901 44.9592 94.1255 44.9592C95.1609 44.9592 96 48.3611 96 52.5565C96 56.7517 95.1609 60.1536 94.1255 60.1536C93.0901 60.1536 92.2512 56.7517 92.2512 52.5565Z" fill="#631AA8" fill-opacity="0.975"/>
<path fill-rule="evenodd" clip-rule="evenodd" d="M85.5158 39.9167C86.1172 36.4311 86.9996 34.2393 87.9771 34.2351H87.9792C89.8019 34.2414 91.2795 41.8427 91.2795 51.2278C91.2795 60.6127 89.7998 68.2204 87.975 68.2204C87.227 68.2204 86.5368 66.9287 85.9809 64.764C85.1025 72.6878 83.2798 78.1351 81.1699 78.1351C79.5373 78.1351 78.0721 74.863 77.0884 69.7025C76.4167 79.5167 74.7263 86.4796 72.7506 86.4796C71.5107 86.4796 70.3802 83.7205 69.5434 79.2279C68.5369 88.5019 66.2121 95 63.5006 95C60.7893 95 58.4604 88.5039 57.458 79.2279C56.6272 83.7205 55.4969 86.4796 54.2507 86.4796C52.275 86.4796 50.5887 79.5167 49.913 69.7025C48.9293 74.863 47.4683 78.1351 45.8315 78.1351C43.7236 78.1351 41.8988 72.69 41.0205 64.764C40.4688 66.935 39.7744 68.2204 39.0263 68.2204C37.2015 68.2204 35.7219 60.6127 35.7219 51.2278C35.7219 41.8427 37.2015 34.2351 39.0263 34.2351C40.0059 34.2351 40.8821 36.4332 41.4897 39.9167C42.463 33.9064 44.044 30 45.8315 30C47.9539 30 49.7931 35.5247 50.6632 43.5468C51.5145 37.7081 52.8062 33.986 54.2528 33.986C56.28 33.986 58.0036 41.3068 58.6422 51.5188C59.8429 46.2829 61.5808 42.9983 63.5048 42.9983C65.4288 42.9983 67.1668 46.2851 68.3654 51.5188C69.006 41.3068 70.7274 33.986 72.7548 33.986C74.1993 33.986 75.4889 37.7081 76.3444 43.5468C77.2123 35.5247 79.0516 30 81.174 30C82.9554 30 84.5425 33.9085 85.5158 39.9167ZM31 49.5565C31 45.3611 31.839 41.9592 32.8744 41.9592C33.9097 41.9592 34.7488 45.3611 34.7488 49.5565C34.7488 53.7517 33.9097 57.1536 32.8744 57.1536C31.839 57.1536 31 53.7517 31 49.5565ZM92.2512 49.5565C92.2512 45.3611 93.0901 41.9592 94.1255 41.9592C95.1609 41.9592 96 45.3611 96 49.5565C96 53.7517 95.1609 57.1536 94.1255 57.1536C93.0901 57.1536 92.2512 53.7517 92.2512 49.5565Z" fill="white"/>
<defs>
<linearGradient id="paint0_linear_12_14497" x1="9" y1="64" x2="119" y2="64" gradientUnits="userSpaceOnUse">
<stop stop-color="#491AA7" stop-opacity="0.972549"/>
<stop offset="0.301459" stop-color="#3D1AA7" stop-opacity="0.972549"/>
<stop offset="0.502431" stop-color="#573BE2" stop-opacity="0.964706"/>
<stop offset="0.751216" stop-color="#421AA7" stop-opacity="0.972549"/>
<stop offset="1" stop-color="#3D1AA7" stop-opacity="0.972549"/>
</linearGradient>
<linearGradient id="paint1_linear_12_14497" x1="25.3464" y1="22.6743" x2="101.579" y2="98.9073" gradientUnits="userSpaceOnUse">
<stop stop-color="#B668F5"/>
<stop offset="1" stop-color="#C470F4"/>
</linearGradient>
<linearGradient id="paint2_linear_12_14497" x1="27.0231" y1="24.2934" x2="99.9493" y2="97.2197" gradientUnits="userSpaceOnUse">
<stop stop-color="#711CD8"/>
<stop offset="1" stop-color="#684FE5"/>
</linearGradient>
</defs>
</svg>
