<svg xmlns="http://www.w3.org/2000/svg" width="128" height="128" fill="none" viewBox="0 0 128 128">
    <path fill="url(#a)" d="M103.5 16.5h-79c-7.18 0-13 5.82-13 13v79c0 7.18 5.82 13 13 13h79c7.18 0 13-5.82 13-13v-79c0-7.18-5.82-13-13-13"/>
    <path fill="#ccc" d="M103.5 6.5h-79c-7.18 0-13 5.82-13 13v79c0 7.18 5.82 13 13 13h79c7.18 0 13-5.82 13-13v-79c0-7.18-5.82-13-13-13"/>
    <mask id="c" width="102" height="102" x="13" y="8" maskUnits="userSpaceOnUse" style="mask-type:alpha">
        <path fill="url(#b)" d="M102.162 8.838H25.838c-6.628 0-12 5.373-12 12v76.324c0 6.627 5.373 12 12 12h76.324c6.627 0 12-5.373 12-12V20.838c0-6.627-5.373-12-12-12"/>
    </mask>
    <g mask="url(#c)">
        <g filter="url(#d)">
            <path fill="url(#e)" d="M104.321 8H23.679C16.677 8 11 13.623 11 20.56v79.881C11 107.377 16.677 113 23.679 113h80.642c7.002 0 12.679-5.623 12.679-12.559V20.559C117 13.623 111.323 8 104.321 8"/>
        </g>
        <path fill="#d8dffc" fill-opacity=".03" d="M17.824 10a12.5 12.5 0 0 0-3.8 3.777h99.952a12.5 12.5 0 0 0-3.8-3.777zm-5.428 7.556c-.25 1-.396 2.043-.396 3.124v.653h104v-.653c0-1.08-.147-2.124-.396-3.124zM12 25.112v3.777h104v-3.777zm0 7.554v3.78h104v-3.78zm0 7.556V44h104v-3.777zm0 7.556v3.777h104v-3.777zm0 7.557v3.776h104v-3.776zm0 7.554v3.779h104v-3.78zm0 7.556v3.779h104v-3.78zM12 78v3.777h104V78zm0 7.556v3.777h104v-3.777zm0 7.554v3.779h104v-3.78zm0 7.556v.244c0 1.229.18 2.413.501 3.535H115.5c.32-1.122.501-2.306.501-3.535v-.244zm2.303 7.556A12.5 12.5 0 0 0 18.487 112h91.026a12.5 12.5 0 0 0 4.184-3.777z"/>
    </g>
    <path fill="#84bdff" fill-opacity=".598" stroke="#fff" stroke-width="1.088" d="M43.29 21C34.267 21 27 28.69 27 38.243v16.311h.007a6.6 6.6 0 0 0 1.925 4.562A6.4 6.4 0 0 0 33.458 61a6.4 6.4 0 0 0 2.685-.594 6.5 6.5 0 0 0 2.199-1.673q.195.063.393.124a6.5 6.5 0 0 0 2.16 1.58c.821.37 1.708.561 2.606.563.9 0 1.79-.191 2.614-.561s1.56-.91 2.166-1.587c.126-.039.253-.075.377-.117a6.5 6.5 0 0 0 2.2 1.672 6.38 6.38 0 0 0 7.213-1.29 6.6 6.6 0 0 0 1.927-4.563H60V38.243C60 28.689 52.736 21 43.712 21zM32.75 31.377a1.64 1.64 0 0 1 .882.223l6.092 3.57.011.005c.249.096.474.256.654.47l.002.005c.267.294.418.673.43 1.065l.002.064-.002.064a1.66 1.66 0 0 1-.43 1.065l-.002.005a1.6 1.6 0 0 1-.666.475l-6.091 3.57a1.617 1.617 0 0 1-2.23-.608l-.039-.066a1.664 1.664 0 0 1 .6-2.26l3.83-2.245-3.83-2.242a1.667 1.667 0 0 1-.6-2.263l.039-.066a1.63 1.63 0 0 1 1.348-.831Zm13.047 3.7h8.295c.904 0 1.633.738 1.633 1.656v.076c0 .917-.73 1.656-1.633 1.656h-8.295a1.64 1.64 0 0 1-1.631-1.656v-.076a1.64 1.64 0 0 1 1.63-1.657Z"/>
    <path fill="url(#f)" d="M43.278 20C33.707 20 26 28.074 26 38.105v17.127h.007a6.9 6.9 0 0 0 2.042 4.79A6.83 6.83 0 0 0 32.85 62a6.83 6.83 0 0 0 5.18-2.38q.208.067.417.13A6.85 6.85 0 0 0 43.501 62a6.82 6.82 0 0 0 5.07-2.255q.2-.06.4-.123a6.85 6.85 0 0 0 2.332 1.755 6.82 6.82 0 0 0 7.65-1.353 6.9 6.9 0 0 0 2.045-4.792H61V38.105C61 28.074 53.296 20 43.724 20zm-11.18 10.896q.058-.002.116 0c.279.007.56.083.82.233l6.46 3.75.013.005c.264.1.502.269.693.493l.003.005c.283.31.442.707.455 1.118q.003.034.003.068 0 .033-.003.067a1.74 1.74 0 0 1-.455 1.118l-.003.005a1.7 1.7 0 0 1-.705.499l-6.461 3.749a1.725 1.725 0 0 1-2.365-.639l-.041-.07a1.737 1.737 0 0 1 .636-2.373l4.061-2.356-4.062-2.354a1.74 1.74 0 0 1-.635-2.376l.04-.07c.31-.538.857-.85 1.43-.872m13.838 3.884h8.798c.959 0 1.732.776 1.732 1.74v.08c0 .962-.773 1.739-1.733 1.739h-8.797a1.73 1.73 0 0 1-1.73-1.74v-.08c0-.963.771-1.74 1.73-1.74" opacity=".6"/>
    <defs>
        <linearGradient id="a" x1="11.5" x2="116.5" y1="121.5" y2="121.5" gradientUnits="userSpaceOnUse">
            <stop stop-color="#bfbfbf"/>
            <stop offset=".05" stop-color="#c1c1c1"/>
            <stop offset=".1" stop-color="#9c9c9c"/>
            <stop offset=".9" stop-color="#9c9c9c"/>
            <stop offset=".95" stop-color="#c1c1c1"/>
            <stop offset="1" stop-color="#a7a7a7"/>
        </linearGradient>
        <linearGradient id="b" x1="64" x2="64" y1="9" y2="110" gradientUnits="userSpaceOnUse">
            <stop stop-color="#2e3c76"/>
            <stop offset=".5" stop-color="#101d64"/>
            <stop offset="1" stop-color="#081149"/>
        </linearGradient>
        <linearGradient id="e" x1="64" x2="64" y1="111.5" y2="8" gradientUnits="userSpaceOnUse">
            <stop stop-color="#111634"/>
            <stop offset=".572" stop-color="#111634"/>
            <stop offset="1" stop-color="#2e3c76"/>
        </linearGradient>
        <linearGradient id="f" x1="43.5" x2="43.5" y1="23.424" y2="68.449" gradientUnits="userSpaceOnUse">
            <stop offset=".351" stop-color="#fff"/>
            <stop offset="1" stop-color="#fff" stop-opacity="0"/>
        </linearGradient>
        <filter id="d" width="106" height="105" x="11" y="8" color-interpolation-filters="sRGB" filterUnits="userSpaceOnUse">
            <feFlood flood-opacity="0" result="BackgroundImageFix"/>
            <feBlend in="SourceGraphic" in2="BackgroundImageFix" result="shape"/>
            <feTurbulence baseFrequency="10 10" numOctaves="3" result="noise" seed="7804" stitchTiles="stitch" type="fractalNoise"/>
            <feColorMatrix in="noise" result="alphaNoise" type="luminanceToAlpha"/>
            <feComponentTransfer in="alphaNoise" result="coloredNoise1">
                <feFuncA tableValues="1 1 1 1 1 1 1 1 1 1 1 1 1 1 1 1 1 1 1 1 1 1 1 1 1 1 1 1 1 1 1 1 1 1 1 1 1 1 1 1 1 1 1 1 1 1 1 1 1 1 1 0 0 0 0 0 0 0 0 0 0 0 0 0 0 0 0 0 0 0 0 0 0 0 0 0 0 0 0 0 0 0 0 0 0 0 0 0 0 0 0 0 0 0 0 0 0 0 0 0" type="discrete"/>
            </feComponentTransfer>
            <feComposite in="coloredNoise1" in2="shape" operator="in" result="noise1Clipped"/>
            <feFlood flood-color="#142166" result="color1Flood"/>
            <feComposite in="color1Flood" in2="noise1Clipped" operator="in" result="color1"/>
            <feMerge result="effect1_noise_2036_15997">
                <feMergeNode in="shape"/>
                <feMergeNode in="color1"/>
            </feMerge>
        </filter>
    </defs>
</svg>
