<svg xmlns="http://www.w3.org/2000/svg" xmlns:xlink="http://www.w3.org/1999/xlink" xml:space="preserve" width="128" height="128" viewBox="0 0 128 128">
    <defs>
        <linearGradient id="b">
            <stop offset="0" style="stop-color:#70d799;stop-opacity:1"/>
            <stop offset="1" style="stop-color:#a0f3cd;stop-opacity:1"/>
        </linearGradient>
        <linearGradient id="a">
            <stop offset="0" style="stop-color:#008435;stop-opacity:1"/>
            <stop offset=".048" style="stop-color:#00963c;stop-opacity:1"/>
            <stop offset=".1" style="stop-color:#008435;stop-opacity:1"/>
            <stop offset=".898" style="stop-color:#008435;stop-opacity:1"/>
            <stop offset=".947" style="stop-color:#00963c;stop-opacity:1"/>
            <stop offset="1" style="stop-color:#008435;stop-opacity:1"/>
        </linearGradient>
        <linearGradient xlink:href="#a" id="c" x1="24" x2="104" y1="69.548" y2="69.548" gradientUnits="userSpaceOnUse"/>
        <linearGradient xlink:href="#b" id="d" x1="64" x2="64" y1="115.597" y2="11.5" gradientUnits="userSpaceOnUse"/>
    </defs>
    <path d="M30.154 17.5c-3.41 0-6.154 3.571-6.154 8.007v88.082c0 4.437 2.745 8.008 6.154 8.008h67.692c3.41 0 6.154-3.571 6.154-8.008V46.584L81.65 17.5Z" style="display:inline;fill:url(#c);fill-opacity:1;stroke-width:.331641;stroke-linecap:round;stroke-linejoin:round"/>
    <path d="M80.956 11.5 104 41.487v66.102c0 4.437-2.745 8.008-6.154 8.008H30.154c-3.41 0-6.154-3.572-6.154-8.008V19.507c0-4.436 2.745-8.007 6.154-8.007z" style="display:inline;fill:url(#d);fill-opacity:1;stroke-width:.331641;stroke-linecap:round;stroke-linejoin:round"/>
    <path d="m82.07 12.95 20.814 27.084v66.326c0 4.312-2.667 7.784-5.981 7.784H31.097c-3.314 0-5.98-3.472-5.98-7.784V20.735c0-4.312 2.666-7.784 5.98-7.784z" style="display:inline;fill:#26b65f;fill-opacity:1;stroke-width:.322389;stroke-linecap:round;stroke-linejoin:round"/>
    <path d="M45.39 102.473q-2.193 0-3.755-1.562t-1.562-3.755v-37.22q0-2.193 1.562-3.755t3.755-1.562h37.22q2.193 0 3.755 1.562t1.562 3.755v37.22q0 2.193-1.562 3.755t-3.755 1.562zm15.951-15.951H45.39v10.634h15.951zm5.318 0v10.634H82.61V86.522Zm-5.318-5.317V70.57H45.39v10.635zm5.318 0H82.61V70.57H66.659ZM45.39 65.253h37.22v-5.317H45.39Z" style="fill:#21a053;fill-opacity:1;stroke-width:.0664643"/>
    <path d="M80.955 14.54v22.394c0 4.782 2.96 8.632 6.635 8.632H104v-2.079l-3.283-4.272-.057-.024-.297.602z" style="display:inline;fill:#21a053;fill-opacity:1;stroke-width:.357539;stroke-linecap:round;stroke-linejoin:round"/>
    <path d="M80.955 12.54v22.394c0 4.782 2.96 8.632 6.635 8.632H104v-2.079l-3.283-4.272-.057-.024-.297.602z" style="display:inline;fill:#006629;fill-opacity:1;stroke-width:.357539;stroke-linecap:round;stroke-linejoin:round"/>
    <path d="M80.956 11.5 104 41.487H87.59c-3.675 0-6.634-3.85-6.634-8.633z" style="display:inline;fill:#bbedcf;fill-opacity:1;stroke-width:.357539;stroke-linecap:round;stroke-linejoin:round"/>
    <path d="M45.39 100.473q-2.193 0-3.755-1.562t-1.562-3.755v-37.22q0-2.193 1.562-3.755t3.755-1.562h37.22q2.193 0 3.755 1.562t1.562 3.755v37.22q0 2.193-1.562 3.755t-3.755 1.562zm15.951-15.951H45.39v10.634h15.951zm5.318 0v10.634H82.61V84.522Zm-5.318-5.317V68.57H45.39v10.635zm5.318 0H82.61V68.57H66.659ZM45.39 63.253h37.22v-5.317H45.39Z" style="fill:#006629;fill-opacity:1;stroke-width:.0664643"/>
    <path d="M45.39 98.473q-2.193 0-3.755-1.562t-1.562-3.755v-37.22q0-2.193 1.562-3.755t3.755-1.562h37.22q2.193 0 3.755 1.562t1.562 3.755v37.22q0 2.193-1.562 3.755t-3.755 1.562zm15.951-15.951H45.39v10.634h15.951zm5.318 0v10.634H82.61V82.522Zm-5.318-5.317V66.57H45.39v10.635zm5.318 0H82.61V66.57H66.659ZM45.39 61.253h37.22v-5.317H45.39Z" style="fill:#d7f4e3;fill-opacity:1;stroke-width:.0664643"/>
</svg>
