<svg xmlns="http://www.w3.org/2000/svg" xmlns:xlink="http://www.w3.org/1999/xlink" xml:space="preserve" width="128" height="128" viewBox="0 0 128 128">
    <defs>
        <linearGradient id="a">
            <stop offset="0" style="stop-color:#236096;stop-opacity:1"/>
            <stop offset=".402" style="stop-color:#236096;stop-opacity:1"/>
            <stop offset=".5" style="stop-color:#2b70ab;stop-opacity:1"/>
            <stop offset=".601" style="stop-color:#236096;stop-opacity:1"/>
            <stop offset="1" style="stop-color:#236096;stop-opacity:1"/>
        </linearGradient>
        <linearGradient xlink:href="#a" id="b" x1="9" x2="119" y1="66" y2="66" gradientTransform="translate(0 2)" gradientUnits="userSpaceOnUse"/>
    </defs>
    <path d="M64 13A55 55 0 0 0 9 68a55 55 0 0 0 55 55 55 55 0 0 0 55-55 55 55 0 0 0-.055-2.193A55 55 0 0 1 119 68v-6h-.34A55 55 0 0 0 64 13M9 68a55 55 0 0 1 .393-6H9Zm109.785-4.7a55 55 0 0 1 .108 1.458 55 55 0 0 0-.108-1.457" style="fill:url(#b);fill-opacity:1;stroke-width:6.56225;stroke-linecap:square;stroke-linejoin:round;paint-order:markers stroke fill"/>
    <path d="M79.451 35.98 61.453 85.463 51.28 113.375a55 55 0 0 0 11.12 1.51l11.206-30.803h15.47c2.716 0 5.694-2.088 6.618-4.637L107.89 45.95c1.993-5.482-1.147-9.969-6.983-9.969zm9.07 7.2h8.756L85.014 76.83h-8.758Zm-27.039-38a55 55 0 0 0-12.351 1.912L38.619 35.988 21.105 84.082h11.657l14.89-40.873h8.76l-14.89 40.877h11.652l13.88-38.137c1.997-5.482-1.144-9.969-6.972-9.969h-9.805z" style="fill:#f2f2f2;fill-opacity:1;stroke-width:1"/>
    <path d="M64 115c-.547 0-1.092 0-1.635-.025l11.24-30.892h15.468c2.717 0 5.696-2.088 6.62-4.637l12.195-33.496c1.994-5.483-1.146-9.97-6.982-9.97H79.451L61.454 85.464 51.23 113.508C27.013 107.748 9 85.972 9 60 9 34.771 25.989 13.51 49.15 7.037L38.619 35.988 21.105 84.083h11.657l14.89-40.873h8.76l-14.89 40.875h11.651L67.056 45.95c1.996-5.483-1.146-9.97-6.975-9.97h-9.803l11.25-30.92Q62.758 5 64 5c30.375 0 55 24.625 55 55s-24.625 55-55 55m33.278-71.82H88.52L76.255 76.83h8.76z" style="fill:#3b86c4;stroke-width:.254629;fill-opacity:1"/>
    <path d="M64 5q-1.243 0-2.473.059L50.277 35.98h.729L61.527 7.06Q62.757 6.999 64 7c30.04 0 54.44 24.089 54.975 54 .006-.334.025-.665.025-1 0-30.375-24.625-55-55-55M49.15 7.037C25.99 13.51 9 34.771 9 60c0 .327.016.65.021.977.449-24.48 16.885-45.046 39.313-51.694zM88.521 43.18 76.256 76.83h.728l11.537-31.65h8.028l.728-2zm-40.869.029-14.89 40.873H21.834l-.729 2h11.657l14.89-40.873h8.032l.728-2zm19.93.576a10 10 0 0 1-.527 2.164L53.174 84.086H42.25l-.729 2h11.653l13.88-38.137c.542-1.486.693-2.893.528-4.164m40.832 0a10 10 0 0 1-.525 2.164L95.693 79.445c-.924 2.55-3.902 4.637-6.619 4.637H73.605l-11.24 30.893c.24.01.482.008.723.011l10.517-28.904h15.47c2.716 0 5.694-2.088 6.618-4.637L107.89 47.95c.54-1.486.69-2.893.525-4.164" style="fill:#abd4f5;stroke-width:.254629;fill-opacity:1"/>
</svg>
