<svg xmlns="http://www.w3.org/2000/svg" xmlns:xlink="http://www.w3.org/1999/xlink" xml:space="preserve" width="128" height="128" viewBox="0 0 128 128">
    <defs>
        <linearGradient id="a">
            <stop offset="0" style="stop-color:#68a8f5;stop-opacity:1"/>
            <stop offset="1" style="stop-color:#70d2f4;stop-opacity:1"/>
        </linearGradient>
        <linearGradient id="b">
            <stop offset="0" style="stop-color:#1a59a7;stop-opacity:.97254902"/>
            <stop offset=".301" style="stop-color:#1a59a7;stop-opacity:.97254902"/>
            <stop offset=".502" style="stop-color:#3b87e2;stop-opacity:.96470588"/>
            <stop offset=".751" style="stop-color:#1a59a7;stop-opacity:.97254902"/>
            <stop offset="1" style="stop-color:#1a59a7;stop-opacity:.97254902"/>
        </linearGradient>
        <linearGradient id="c">
            <stop offset="0" style="stop-color:#1c71d8;stop-opacity:1"/>
            <stop offset="1" style="stop-color:#4fbee5;stop-opacity:1"/>
        </linearGradient>
        <linearGradient xlink:href="#a" id="e" x1="25.346" x2="101.579" y1="22.674" y2="98.907" gradientUnits="userSpaceOnUse"/>
        <linearGradient xlink:href="#b" id="d" x1="9" x2="119" y1="64" y2="64" gradientUnits="userSpaceOnUse"/>
        <linearGradient xlink:href="#c" id="f" x1="25.346" x2="101.579" y1="22.674" y2="98.907" gradientTransform="translate(2.776 2.603)scale(.95662)" gradientUnits="userSpaceOnUse"/>
    </defs>
    <path d="M64 5A55 55 0 0 0 9 60v8a55 55 0 0 0 55 55 55 55 0 0 0 55-55v-8A55 55 0 0 0 64 5" style="fill:url(#d);fill-opacity:1"/>
    <circle cx="64" cy="60" r="55" style="fill:url(#e);fill-opacity:1;stroke-width:1"/>
    <circle cx="64" cy="60" r="52.614" style="fill:url(#f);fill-opacity:1;stroke-width:.956623"/>
    <path d="M64 21.81A40.19 40.19 0 0 0 23.81 62 40.19 40.19 0 0 0 64 102.19 40.19 40.19 0 0 0 104.19 62 40.19 40.19 0 0 0 64 21.81M53.322 42.243a6.08 6.08 0 0 1 4.094.723L84.758 58.75a6.076 6.076 0 0 1 0 10.523L57.416 85.06a6.076 6.076 0 0 1-9.113-5.262v-31.57a6.076 6.076 0 0 1 5.02-5.985" style="fill:#1a58a8;stroke-width:.730704;fill-opacity:.97254902"/>
    <path d="M64 19.81A40.19 40.19 0 0 0 23.81 60 40.19 40.19 0 0 0 64 100.19 40.19 40.19 0 0 0 104.19 60 40.19 40.19 0 0 0 64 19.81M53.322 40.243a6.08 6.08 0 0 1 4.094.723L84.758 56.75a6.076 6.076 0 0 1 0 10.523L57.416 83.06a6.076 6.076 0 0 1-9.113-5.262v-31.57a6.076 6.076 0 0 1 5.02-5.985" style="fill:#fff;stroke-width:.730704"/>
</svg>
