<svg xmlns="http://www.w3.org/2000/svg" xmlns:xlink="http://www.w3.org/1999/xlink" width="128" height="128" viewBox="0 0 128 128">
    <defs>
        <linearGradient id="b">
            <stop offset="0" style="stop-color:#fff;stop-opacity:.40013731"/>
            <stop offset="1" style="stop-color:#fff;stop-opacity:0"/>
        </linearGradient>
        <linearGradient id="a">
            <stop offset="0" style="stop-color:#0a2f76;stop-opacity:1"/>
            <stop offset=".05" style="stop-color:#285498;stop-opacity:1"/>
            <stop offset=".1" style="stop-color:#06317a;stop-opacity:1"/>
            <stop offset=".568" style="stop-color:#80090e;stop-opacity:1"/>
            <stop offset=".9" style="stop-color:#7c0204;stop-opacity:1"/>
            <stop offset=".95" style="stop-color:#9d3345;stop-opacity:1"/>
            <stop offset="1" style="stop-color:#7b0205;stop-opacity:1"/>
        </linearGradient>
        <linearGradient xlink:href="#a" id="d" x1="11.5" x2="116.5" y1="120.5" y2="120.5" gradientUnits="userSpaceOnUse"/>
        <linearGradient id="c">
            <stop offset="0" style="stop-color:#ea343d;stop-opacity:.98039216"/>
            <stop offset="1" style="stop-color:#2c62b1;stop-opacity:1"/>
        </linearGradient>
        <linearGradient xlink:href="#b" id="f" x1="64" x2="64" y1="9.95" y2="112.5" gradientUnits="userSpaceOnUse"/>
        <radialGradient xlink:href="#c" id="e" cx="101.633" cy="93.073" r="52.5" fx="101.633" fy="93.073" gradientTransform="rotate(-30 16.656 352.197)scale(2.10749 1.80176)" gradientUnits="userSpaceOnUse"/>
        <radialGradient xlink:href="#c" id="g" cx="101.633" cy="93.073" r="52.5" fx="101.633" fy="93.073" gradientTransform="rotate(-30 22.597 331.586)scale(2.00913 1.71767)" gradientUnits="userSpaceOnUse"/>
    </defs>
    <rect width="105" height="105" x="11.5" y="15.5" rx="13" ry="13" style="fill:url(#d);fill-opacity:1"/>
    <rect width="105" height="105" x="11.5" y="7.5" rx="13" ry="13" style="fill:url(#e);fill-opacity:1"/>
    <rect width="105" height="105" x="11.5" y="7.5" rx="13" ry="13" style="fill:url(#f);fill-opacity:1"/>
    <rect width="100.1" height="100.1" x="13.95" y="9.95" rx="12" ry="12" style="fill:url(#g);fill-opacity:1;stroke-width:.95333"/>
    <path d="M270.933 147.325a87.165 87.165 0 0 0-87.165 87.166 87.165 87.165 0 0 0 87.165 87.165 87.165 87.165 0 0 0 87.165-87.165 87.165 87.165 0 0 0-87.165-87.166m-34.457 43.583h7.899.817c1.525-.013 3.032.337 4.358 1.09l61.016 34.866c2.708 1.498 4.086 4.562 4.086 7.627s-1.378 6.128-4.086 7.627l-61.016 34.866c-1.326.751-2.833 1.098-4.358 1.09h-.817-7.9z" style="display:inline;opacity:.15;vector-effect:none;fill:#000;fill-opacity:1;stroke:none;stroke-width:1.44723;stroke-linecap:butt;stroke-linejoin:bevel;stroke-miterlimit:4;stroke-dasharray:1.44723,2.89446;stroke-dashoffset:0;stroke-opacity:.948819;marker:none;marker-start:none;marker-mid:none;marker-end:none;paint-order:normal" transform="translate(-15.275 -18.09)scale(.2926)"/>
    <g style="display:inline;fill:#fff">
        <path d="M64 208a20 20 0 0 0-20 20 20 20 0 0 0 20 20 20 20 0 0 0 20-20 20 20 0 0 0-20-20m-7.906 10h1.812.188c.35-.003.695.077 1 .25l14 8c.621.344.937 1.047.937 1.75s-.316 1.406-.937 1.75l-14 8a2 2 0 0 1-1 .25h-.188-1.812z" style="opacity:1;vector-effect:none;fill:#fff;fill-opacity:1;stroke:none;stroke-width:.332066;stroke-linecap:butt;stroke-linejoin:bevel;stroke-miterlimit:4;stroke-dasharray:.332066,.664132;stroke-dashoffset:0;stroke-opacity:.948819;marker:none;marker-start:none;marker-mid:none;marker-end:none;paint-order:normal" transform="translate(-17.615 -242.78)scale(1.27523)"/>
    </g>
    <g style="display:inline;opacity:.15;fill:#000" transform="translate(-17.615 -240.23)scale(1.27523)">
        <rect width="64" height="4" x="32" y="260" rx="2" ry="2" style="display:inline;opacity:1;vector-effect:none;fill:#000;fill-opacity:1;stroke:none;stroke-width:.332066;stroke-linecap:butt;stroke-linejoin:bevel;stroke-miterlimit:4;stroke-dasharray:.332066,.664132;stroke-dashoffset:0;stroke-opacity:.948819;marker:none;marker-start:none;marker-mid:none;marker-end:none;paint-order:normal"/>
        <rect width="12" height="12" x="40" y="256" rx="6" ry="6" style="display:inline;opacity:1;vector-effect:none;fill:#000;fill-opacity:1;stroke:none;stroke-width:.24905;stroke-linecap:butt;stroke-linejoin:bevel;stroke-miterlimit:4;stroke-dasharray:.24905,.498099;stroke-dashoffset:0;stroke-opacity:.948819;marker:none;marker-start:none;marker-mid:none;marker-end:none;paint-order:normal"/>
    </g>
    <g style="display:inline" transform="translate(-17.615 -242.78)scale(1.27523)">
        <rect width="64" height="4" x="32" y="260" rx="2" ry="2" style="opacity:1;vector-effect:none;fill:#fff;fill-opacity:1;stroke:none;stroke-width:.332066;stroke-linecap:butt;stroke-linejoin:bevel;stroke-miterlimit:4;stroke-dasharray:.332066,.664132;stroke-dashoffset:0;stroke-opacity:.948819;marker:none;marker-start:none;marker-mid:none;marker-end:none;paint-order:normal"/>
        <rect width="12" height="12" x="40" y="256" rx="6" ry="6" style="display:inline;opacity:1;vector-effect:none;fill:#fff;fill-opacity:1;stroke:none;stroke-width:.24905;stroke-linecap:butt;stroke-linejoin:bevel;stroke-miterlimit:4;stroke-dasharray:.24905,.498099;stroke-dashoffset:0;stroke-opacity:.948819;marker:none;marker-start:none;marker-mid:none;marker-end:none;paint-order:normal"/>
    </g>
</svg>
