<svg xmlns="http://www.w3.org/2000/svg" xmlns:xlink="http://www.w3.org/1999/xlink" xml:space="preserve" width="128" height="128" viewBox="0 0 128 128">
    <defs>
        <linearGradient id="d">
            <stop offset="0" style="stop-color:#35cce6;stop-opacity:.80212784"/>
            <stop offset=".328" style="stop-color:#24bfdb;stop-opacity:.60000002"/>
            <stop offset=".598" style="stop-color:#24bfdb;stop-opacity:0"/>
        </linearGradient>
        <linearGradient id="b">
            <stop offset="0" style="stop-color:#f5f5f5;stop-opacity:1"/>
            <stop offset="1" style="stop-color:#f0f0f0;stop-opacity:1"/>
        </linearGradient>
        <linearGradient id="a">
            <stop offset="0" style="stop-color:#a5a5a5;stop-opacity:1"/>
            <stop offset=".047" style="stop-color:silver;stop-opacity:1"/>
            <stop offset=".1" style="stop-color:#a5a5a5;stop-opacity:1"/>
            <stop offset=".896" style="stop-color:#a5a5a5;stop-opacity:1"/>
            <stop offset=".947" style="stop-color:silver;stop-opacity:1"/>
            <stop offset="1" style="stop-color:#a5a5a5;stop-opacity:1"/>
        </linearGradient>
        <linearGradient xlink:href="#a" id="h" x1="-108" x2="-4" y1="64.675" y2="64.675" gradientTransform="translate(98.516 21.171)scale(.74382)" gradientUnits="userSpaceOnUse"/>
        <linearGradient xlink:href="#b" id="i" x1="64" x2="64" y1="8.675" y2="112.675" gradientTransform="translate(-9.234 13.976)scale(.91329)" gradientUnits="userSpaceOnUse"/>
        <linearGradient id="c">
            <stop offset="0" style="stop-color:#f8fcfc;stop-opacity:0"/>
            <stop offset=".496" style="stop-color:#fff;stop-opacity:.5989446"/>
            <stop offset="1" style="stop-color:#fff;stop-opacity:0"/>
        </linearGradient>
        <linearGradient xlink:href="#c" id="j" x1="57.225" x2="75.912" y1="58.159" y2="58.159" gradientTransform="matrix(1.10553 0 0 2.42034 -152.805 -81.595)" gradientUnits="userSpaceOnUse"/>
        <linearGradient xlink:href="#a" id="g" x1="-108" x2="-4" y1="64.675" y2="64.675" gradientTransform="translate(98.516 21.171)scale(.74382)" gradientUnits="userSpaceOnUse"/>
        <linearGradient xlink:href="#a" id="e" x1="-108" x2="-4" y1="64.675" y2="64.675" gradientTransform="translate(98.516 21.171)scale(.74382)" gradientUnits="userSpaceOnUse"/>
        <linearGradient xlink:href="#d" id="k" x1="4.037" x2="95.54" y1="62.447" y2="62.447" gradientTransform="rotate(1.777 467.796 -4433.574)scale(1.22784)" gradientUnits="userSpaceOnUse"/>
        <filter id="f" width="1.062" height="1.078" x="-.031" y="-.031" style="color-interpolation-filters:sRGB">
            <feFlood flood-color="#000" flood-opacity=".137" result="flood"/>
            <feGaussianBlur in="SourceGraphic" result="blur" stdDeviation="1"/>
            <feOffset dy="1.2" in="blur" result="offset"/>
            <feComposite in="flood" in2="offset" operator="in" result="comp1"/>
            <feComposite in="SourceGraphic" in2="comp1" result="comp2"/>
        </filter>
    </defs>
    <g transform="translate(-.583 -2.667)scale(1.04167)">
        <g transform="rotate(5.654 8.72 115.535)scale(.9697)">
            <rect width="77.357" height="77.357" x="18.183" y="30.599" rx="5.951" ry="5.951" style="display:inline;fill:url(#e);stroke-width:.281127;stroke-linecap:round;stroke-linejoin:round;filter:url(#f);enable-background:new" transform="rotate(-3.878 -239.946 148.058)scale(1.26622)"/>
            <rect width="97.951" height="97.951" x="13.561" y="20.608" rx="7.535" ry="7.535" style="display:inline;fill:#fff;fill-opacity:1;stroke-width:.355968;stroke-linecap:round;stroke-linejoin:round;enable-background:new" transform="rotate(-3.878)"/>
            <rect width="95.218" height="95.219" x="14.927" y="21.974" rx="7.324" ry="7.324" style="display:inline;fill:#e8e8e8;fill-opacity:1;stroke-width:.346039;stroke-linecap:round;stroke-linejoin:round;enable-background:new" transform="rotate(-3.878)"/>
        </g>
        <path d="M24.133 29.357a5.937 5.937 0 0 0-5.95 5.95v66.699a5.937 5.937 0 0 0 5.95 5.95H89.59a5.937 5.937 0 0 0 5.95-5.95V35.308a5.937 5.937 0 0 0-5.95-5.95z" style="display:inline;fill:#4d4d4d;fill-opacity:.154525;stroke-width:.281127;stroke-linecap:round;stroke-linejoin:round;enable-background:new" transform="rotate(1.777 537.798 80.417)scale(1.22784)"/>
        <g transform="rotate(4.1 4.071 115.375)scale(.9697)">
            <rect width="77.357" height="77.357" x="18.183" y="30.599" rx="5.951" ry="5.951" style="display:inline;fill:url(#g);stroke-width:.281127;stroke-linecap:round;stroke-linejoin:round;filter:url(#f);enable-background:new" transform="rotate(-7.467 -113.721 138.32)scale(1.26622)"/>
            <rect width="97.951" height="97.951" x="6.013" y="21.221" rx="7.535" ry="7.535" style="display:inline;fill:#fff;fill-opacity:1;stroke-width:.355968;stroke-linecap:round;stroke-linejoin:round;enable-background:new" transform="rotate(-7.467)"/>
            <rect width="95.218" height="95.219" x="7.379" y="22.587" rx="7.324" ry="7.324" style="display:inline;fill:#e8e8e8;fill-opacity:1;stroke-width:.346039;stroke-linecap:round;stroke-linejoin:round;enable-background:new" transform="rotate(-7.467)"/>
        </g>
        <path d="M90.2 29.388q-.3-.03-.61-.03H24.134a5.94 5.94 0 0 0-5.95 5.95v1.242l-.001 64.214v1.243a5.937 5.937 0 0 0 5.95 5.949H89.59a5.937 5.937 0 0 0 5.95-5.95V36.55l.001-.006v-1.235a5.936 5.936 0 0 0-5.341-5.92z" style="display:inline;mix-blend-mode:luminosity;fill:#666;fill-opacity:.05;stroke-width:.281127;stroke-linecap:round;stroke-linejoin:round;enable-background:new" transform="rotate(-3.367 -250.737 147.85)scale(1.22784)"/>
        <rect width="77.357" height="77.357" x="18.183" y="30.599" rx="5.951" ry="5.951" style="display:inline;fill:url(#h);stroke-width:.281127;stroke-linecap:round;stroke-linejoin:round;filter:url(#f);enable-background:new" transform="rotate(-9.358 -76.135 132.932)scale(1.22784)"/>
        <rect width="94.982" height="94.983" x="1.725" y="21.898" rx="7.306" ry="7.306" style="display:inline;fill:url(#i);fill-opacity:1;stroke-width:.34518;stroke-linecap:round;stroke-linejoin:round;enable-background:new" transform="rotate(-9.358)"/>
        <rect width="92.333" height="92.333" x="3.05" y="23.223" rx="7.103" ry="7.103" style="display:inline;fill:#e8e8e8;fill-opacity:1;stroke-width:.335552;stroke-linecap:round;stroke-linejoin:round;enable-background:new" transform="rotate(-9.358)"/>
        <path d="M13.991 28.075a1.9 1.9 0 0 0-1.568 2.188l1.188 7.209 8.716 52.894 1.188 7.21a1.9 1.9 0 0 0 2.188 1.57l78.888-13a1.9 1.9 0 0 0 1.568-2.19l-1.188-7.209-8.716-52.894-1.188-7.21a1.9 1.9 0 0 0-2.188-1.568z" style="fill:#2a273f;fill-opacity:1;stroke-width:.359736;stroke-linecap:round;stroke-linejoin:round"/>
        <ellipse cx="40.414" cy="73.522" rx="4.565" ry="4.709" style="fill:#fcaa3a;fill-opacity:1;stroke-width:.424556" transform="matrix(.95426 -.29897 .28172 .9595 0 0)"/>
        <path d="M57.63 69.799a9.385 6.753 74.747 0 0 3.739 12.732l6.427 4.939 2.69-7.795a9.385 6.753 74.747 0 0-3.74-12.73 9.385 6.753 74.747 0 0-9.116 2.854m11.49-6.072a9.074 6.985 2.26 0 0 12.825.42l6.553-4.725-6.273-5.149a9.074 6.985 2.26 0 0-12.823-.42 9.074 6.985 2.26 0 0-.282 9.873Zm-2.537-13.862a6.759 9.377 13.984 0 0 3.494-12.79l-2.838-7.75-6.332 5.037a6.759 9.377 13.984 0 0-3.494 12.788 6.759 9.377 13.984 0 0 9.17 2.715M53.6 48.605a9.193 6.894 37.18 0 0-10.686-7.39l-7.98.414 2.705 7.802a9.193 6.894 37.18 0 0 10.684 7.386 9.193 6.894 37.18 0 0 5.276-8.212zM48.534 61.17a6.886 9.203 47.214 0 0-9.927 8.403l-1.945 8.03 7.983-.372a6.886 9.203 47.214 0 0 9.925-8.401 6.886 9.203 47.214 0 0-6.036-7.659z" style="fill:#f73f74;fill-opacity:1;stroke-width:.90861"/>
        <path d="m66.148 29.379.21 6.457 6.231-.204-.21-6.457zm.422 12.917.21 6.437-6.23.203.212 6.459 6.23-.204v.019l18.689-.61.21 6.439 6.229-.204-.211-6.457-6.229.204-.21-6.44-12.459.407-.21-6.457zm19.32 18.743-6.23.203.211 6.457 6.23-.203zm-24.919.794.211 6.458 6.23-.203-.211-6.459zm6.44 6.255.423 12.917-6.23.203.211 6.457 12.46-.407-.633-19.374z" style="fill:#973752;fill-opacity:1;stroke-width:.81463"/>
        <path d="m59.918 29.563.633 19.373 6.23-.203-.211-6.437 6.23-.204-.21-6.459-6.231.204-.212-6.478zm7.073 25.63.422 12.895-6.23.203.422 12.917 6.23-.203-.422-12.899 12.459-.407-.211-6.457 6.23-.203-.21-6.457-12.46.407z" style="fill:#d16e8a;fill-opacity:1;stroke-width:.81463"/>
        <path d="m60.762 55.395 6.23-.204.21 6.458-6.229.204z" style="fill:#d7a55f;fill-opacity:1;stroke-width:.81463"/>
        <path d="m-78.284 11.966-1.775.292v105.431l1.775.055z" style="fill:#fff;fill-opacity:1;stroke-width:5.34998" transform="translate(140)"/>
        <path d="m-68.883 10.474-20.658 3.405V117.46l20.658.642z" style="fill:url(#j);fill-opacity:1;stroke-width:18.7824" transform="translate(140)"/>
        <path d="M-46.747 6.978a7.4 7.4 0 0 0-1.482.092l-79.298 13.069a7.29 7.29 0 0 0-6.023 8.397l13.068 79.3.248 1.505a7.27 7.27 0 0 0 3.099 4.84q.103.097.21.188a7.27 7.27 0 0 0 5.185 2.404l80.331 2.49a7.29 7.29 0 0 0 7.529-7.075l.047-1.523 2.493-80.331a7.29 7.29 0 0 0-7.076-7.53l-.998-.03-.05-.853a7.29 7.29 0 0 0-7.723-6.866l-2.297.137-.347-2.1a7.29 7.29 0 0 0-6.916-6.114" style="display:inline;mix-blend-mode:color-burn;fill:url(#k);stroke-width:.34518;stroke-linecap:round;stroke-linejoin:round;enable-background:new" transform="translate(140)"/>
    </g>
</svg>
