<svg xmlns="http://www.w3.org/2000/svg" xmlns:xlink="http://www.w3.org/1999/xlink" xml:space="preserve" width="128" height="128" viewBox="0 0 128 128">
    <defs>
        <linearGradient id="a">
            <stop offset="0" style="stop-color:#bce9ff;stop-opacity:1"/>
            <stop offset="1" style="stop-color:#41bdff;stop-opacity:1"/>
        </linearGradient>
        <linearGradient id="b">
            <stop offset="0" style="stop-color:#0079b2;stop-opacity:1"/>
            <stop offset=".3" style="stop-color:#0079b2;stop-opacity:1"/>
            <stop offset=".5" style="stop-color:#0091d7;stop-opacity:1"/>
            <stop offset=".7" style="stop-color:#0079b2;stop-opacity:1"/>
            <stop offset="1" style="stop-color:#0079b2;stop-opacity:1"/>
        </linearGradient>
        <linearGradient xlink:href="#a" id="d" x1="64" x2="64" y1="5" y2="115" gradientUnits="userSpaceOnUse"/>
        <linearGradient xlink:href="#b" id="c" x1="9" x2="119" y1="115" y2="115" gradientUnits="userSpaceOnUse"/>
    </defs>
    <path d="M64 5A55 55 0 0 0 9 60v8a55 55 0 0 0 55 55 55 55 0 0 0 55-55v-8A55 55 0 0 0 64 5" style="fill:url(#c);fill-opacity:1"/>
    <circle cx="64" cy="60" r="55" style="fill:url(#d);fill-opacity:1;stroke-width:1"/>
    <circle cx="64" cy="60" r="52.489" style="fill:#ececec;fill-opacity:1;stroke-width:.954354"/>
    <circle cx="64" cy="60" r="52.863" style="fill:#00acff;fill-opacity:1;stroke:none;stroke-width:.835797;stroke-miterlimit:4;stroke-dasharray:none"/>
    <path d="M57.815 108.537c-8.556-1.098-16.74-4.509-23.882-9.953-2.33-1.776-6.7-6.175-8.608-8.664-5.343-6.97-8.665-14.88-9.761-23.24-.47-3.58-.467-10.161.005-13.432 2.359-16.354 12.65-30.381 27.43-37.386 6.874-3.258 13.166-4.637 21.156-4.637 12.924 0 24.396 4.63 33.692 13.6 4.478 4.32 7.48 8.419 10.052 13.719 3.479 7.169 4.887 13.405 4.887 21.633 0 10.833-3.128 20.28-9.625 29.067-1.93 2.612-5.702 6.578-8.205 8.63-6.865 5.628-15.616 9.436-24.299 10.574-3 .393-10.088.442-12.842.089m18.11-8.775c5.227-1.648 9.487-3.862 13.599-7.07 2.187-1.705 5.966-5.52 7.551-7.623 4.299-5.702 7.223-12.845 8.084-19.741.414-3.322.173-10.35-.46-13.4-1.675-8.08-5.287-14.906-10.976-20.746-3.546-3.642-6.775-6.042-10.93-8.125-6.302-3.16-11.704-4.437-18.798-4.444-7.51-.007-14.095 1.714-20.613 5.388-5.933 3.345-12.066 9.486-15.425 15.444-2.475 4.388-4.285 9.595-4.992 14.353-.463 3.12-.472 9.316-.018 12.303.91 5.978 3.177 11.887 6.464 16.843 1.796 2.706 1.74 2.676 3.323 1.77 2.833-1.62 3.572-2.405 5.115-5.428 1.804-3.536 3.734-6.625 5.477-8.771 2.013-2.477 2.29-2.918 3.299-5.257.508-1.177 1.42-2.905 2.025-3.84l1.102-1.701-1.425-1.401c-1.893-1.86-3.468-3.97-3.764-5.044-.303-1.095.054-1.707 1.476-2.528 1.438-.83 2.467-1.07 6.31-1.465 1.871-.192 3.903-.544 4.543-.787.637-.242 2.54-1.278 4.228-2.301 4.874-2.956 5.287-3.109 8.21-3.045 2.468.053 2.472.052 3.936-.832 3.067-1.854 7.472-5.2 13.269-10.077 1.111-.936 2.182-1.67 2.38-1.632.819.158 2.325 3.853 2.554 6.269.138 1.464-.145 2.913-1.014 5.18-.237.619-.346 1.21-.243 1.313.248.247 1.101-.818 1.101-1.376 0-.711.471-.792 1.112-.192.466.437.867.562 1.804.562 1.023 0 1.276.095 1.675.628.677.903.836 3.367.318 4.927-.505 1.519-2.029 3.27-3.412 3.92-1.238.582-3.744 3.029-4.917 4.8-.449.679-1.29 2.092-1.87 3.142a52 52 0 0 1-2.161 3.525c-1.198 1.749-2.224 4.188-3.215 7.643-.581 2.03-.63 2.558-.654 7.084-.03 5.468-.312 6.81-1.79 8.493-1.68 1.914-3.358 6.118-3.5 8.768-.088 1.673-.346 3.303-.712 4.51-.161.532.14.526 1.933-.04" style="fill:#fff;stroke-width:.23859"/>
    <path d="m18.854 174.592-1.604-1.604 1.604-1.603 1.604 1.603z" style="fill:#00acff;fill-opacity:1;stroke:none;stroke-width:1.5;stroke-miterlimit:4;stroke-dasharray:none" transform="rotate(60 311.422 248.642)scale(.83694 2.06988)"/>
</svg>
