<svg xmlns="http://www.w3.org/2000/svg" xmlns:xlink="http://www.w3.org/1999/xlink" xml:space="preserve" width="128" height="128" viewBox="0 0 128 128">
    <defs>
        <linearGradient id="b">
            <stop offset="0" style="stop-color:#c148c8;stop-opacity:1"/>
            <stop offset="1" style="stop-color:#ef4055;stop-opacity:1"/>
        </linearGradient>
        <linearGradient id="a">
            <stop offset="0" style="stop-color:gray;stop-opacity:1"/>
            <stop offset=".05" style="stop-color:#999;stop-opacity:1"/>
            <stop offset=".1" style="stop-color:gray;stop-opacity:1"/>
            <stop offset=".9" style="stop-color:gray;stop-opacity:1"/>
            <stop offset=".95" style="stop-color:#999;stop-opacity:1"/>
            <stop offset="1" style="stop-color:gray;stop-opacity:1"/>
        </linearGradient>
        <linearGradient xlink:href="#a" id="c" x1="11.5" x2="116.5" y1="120.5" y2="120.5" gradientTransform="translate(0 1)" gradientUnits="userSpaceOnUse"/>
        <linearGradient xlink:href="#b" id="d" x1="13.838" x2="114.162" y1="59" y2="59" gradientUnits="userSpaceOnUse"/>
        <filter id="e" width="1.073" height="1.208" x="-.036" y="-.057" style="color-interpolation-filters:sRGB">
            <feFlood flood-color="#000" flood-opacity=".2" result="flood"/>
            <feGaussianBlur in="SourceGraphic" result="blur" stdDeviation=".5"/>
            <feOffset dy="2" in="blur" result="offset"/>
            <feComposite in="flood" in2="offset" operator="in" result="comp1"/>
            <feComposite in="SourceGraphic" in2="comp1" result="comp2"/>
        </filter>
    </defs>
    <rect width="105" height="105" x="11.5" y="16.5" rx="13" ry="13" style="fill:url(#c);fill-opacity:1"/>
    <rect width="105" height="105" x="11.5" y="6.5" rx="13" ry="13" style="fill:#ccc;fill-opacity:1"/>
    <rect width="100.324" height="100.324" x="13.838" y="8.838" rx="12" ry="12" style="fill:url(#d);fill-opacity:1;stroke-width:.955467"/>
    <path d="M24.992 17.469a2.516 2.516 0 0 0-2.5 2.5v10c0 1.369 1.131 2.5 2.5 2.5 1.37 0 2.5-1.131 2.5-2.5v-7.5h7.5c1.37 0 2.5-1.131 2.5-2.5 0-1.37-1.13-2.5-2.5-2.5zm68.016 0a2.515 2.515 0 0 0-2.5 2.5c0 1.369 1.13 2.5 2.5 2.5h7.5v7.5c0 1.369 1.13 2.5 2.5 2.5 1.369 0 2.5-1.131 2.5-2.5v-10c0-1.369-1.131-2.5-2.5-2.5zM24.992 84.732a2.515 2.515 0 0 0-2.5 2.5v10c0 1.37 1.131 2.5 2.5 2.5h10c1.37 0 2.5-1.13 2.5-2.5 0-1.368-1.13-2.5-2.5-2.5h-7.5v-7.5c0-1.368-1.13-2.5-2.5-2.5m78.016 0a2.515 2.515 0 0 0-2.5 2.5v7.5h-7.5a2.515 2.515 0 0 0-2.5 2.5c0 1.37 1.13 2.5 2.5 2.5h10c1.369 0 2.5-1.13 2.5-2.5v-10c0-1.368-1.131-2.5-2.5-2.5" style="color:#000;font-style:normal;font-variant:normal;font-weight:400;font-stretch:normal;font-size:medium;line-height:normal;font-family:sans-serif;font-variant-ligatures:normal;font-variant-position:normal;font-variant-caps:normal;font-variant-numeric:normal;font-variant-alternates:normal;font-variant-east-asian:normal;font-feature-settings:normal;font-variation-settings:normal;text-indent:0;text-align:start;text-decoration-line:none;text-decoration-style:solid;text-decoration-color:#000;letter-spacing:normal;word-spacing:normal;text-transform:none;writing-mode:lr-tb;direction:ltr;text-orientation:mixed;dominant-baseline:auto;baseline-shift:baseline;text-anchor:start;white-space:normal;shape-padding:0;shape-margin:0;inline-size:0;clip-rule:nonzero;display:inline;overflow:visible;visibility:visible;isolation:auto;mix-blend-mode:normal;color-interpolation:sRGB;color-interpolation-filters:linearRGB;solid-color:#000;solid-opacity:1;vector-effect:none;fill:#fff;fill-opacity:.60001707;fill-rule:nonzero;stroke:none;stroke-linecap:round;stroke-linejoin:round;stroke-miterlimit:4;stroke-dasharray:none;stroke-dashoffset:0;stroke-opacity:1;-inkscape-stroke:none;color-rendering:auto;image-rendering:auto;shape-rendering:auto;text-rendering:auto;enable-background:accumulate;stop-color:#000"/>
    <g fill="#fff" style="filter:url(#e);fill:#edecee;fill-opacity:1" transform="matrix(-1.68043 0 0 1.68043 175.547 -57.63)">
        <path d="M78.64 59.422h.005l-9.977.008c-6.547 0-10.016-.004-10.016-.004-.922 0-1.656.89-1.68 1.761 0 0-.03-.718-.03 8.75l.007 8.829c.121 1.3.895 1.742 1.723 1.812l10.008-.023h9.898c1.418 0 1.852-.953 1.926-1.84V69.94l-.004-8.55c0-1.235-.797-1.97-1.86-1.97m-31.144 2.344v16.453h.484l.829-.012 3.742-4.078c2.246-2.25 4.086-4.149 4.086-4.223 0-.07-1.801-1.93-4.004-4.133l-3.656-4-.914-.007zm21.234.601q.458.001.915.055a7.64 7.64 0 0 1 6.668 8.465l-.016.136a7.64 7.64 0 0 1-8.555 6.555 7.64 7.64 0 0 1-6.59-8.066 7.637 7.637 0 0 1 7.578-7.145m0 0" style="fill:#fdecee;fill-opacity:1"/>
        <path d="M72.723 70.543A4.035 4.035 0 0 1 68.207 74a4.03 4.03 0 0 1 1.004-7.996 4.027 4.027 0 0 1 3.52 4.465" style="fill:#fdecee;fill-opacity:1"/>
    </g>
    <path d="M25.838 8.838c-6.648 0-12 5.352-12 12v76.324c0 6.648 5.352 12 12 12h76.324c6.648 0 12-5.352 12-12V20.838c0-6.648-5.352-12-12-12zm74.867 3.99c.359 0 .716-.007 1.074.008 3.272-.201 6.483 1.864 7.754 4.867.882 1.862.502 3.956.596 5.942.06 24.341.042 48.685.016 73.027.338 3.867-2.609 7.65-6.413 8.342-1.7.221-3.437.053-5.152.119-24.05.054-48.1.037-72.15.012-3.334.305-6.656-1.77-7.957-4.832-.888-1.868-.508-3.966-.602-5.958-.06-24.343-.042-48.689-.016-73.033-.364-4.085 2.965-8.044 7.038-8.433 8.02-.042 16.044-.038 24.066-.047 17.248-.025 34.498.03 51.746-.014" style="fill:#241f31;fill-opacity:1;stroke-width:.955467"/>
</svg>
