<svg xmlns="http://www.w3.org/2000/svg" width="128" height="128" viewBox="0 0 128 128">
    <defs>
        <linearGradient id="b" x1="49.022" x2="49.022" y1="-.08" y2="97.846" gradientTransform="matrix(.21384 0 0 1.00384 21.428 17.578)" gradientUnits="userSpaceOnUse">
            <stop offset="0%" stop-color="#16b0ed" stop-opacity=".8"/>
            <stop offset="100%" stop-color="#0f59b2" stop-opacity=".837"/>
        </linearGradient>
        <linearGradient id="c" x1="326.174" x2="326.174" y1="-.069" y2="98.852" gradientTransform="matrix(-.21603 0 0 .99362 162.275 17.578)" gradientUnits="userSpaceOnUse">
            <stop offset="0%" stop-color="#7db643" style="stop-color:#5c983b;stop-opacity:1"/>
            <stop offset=".886" stop-color="#7db643" style="stop-color:#3e7c34;stop-opacity:1"/>
            <stop offset="100%" stop-color="#367533"/>
        </linearGradient>
        <linearGradient id="a" x1="103.885" x2="103.885" y1="-.115" y2="178.558" gradientTransform="matrix(.39013 0 0 .55023 21.428 17.578)" gradientUnits="userSpaceOnUse">
            <stop offset="0%" stop-color="#88c649" stop-opacity=".8"/>
            <stop offset="100%" stop-color="#439240" stop-opacity=".84"/>
        </linearGradient>
    </defs>
    <path fill="url(#a)" d="m42.23 12.772 60.436 92.224-16.912 16.911-60.467-92.02Z" style="fill:#388e3c;fill-opacity:.993037;fill-rule:evenodd;stroke:none;stroke-width:.514323"/>
    <path fill="url(#b)" d="m19 36.223 23.246-23.47v109.125L19 98.68Z" style="fill:#1976d2;fill-rule:evenodd;stroke:none;stroke-width:.514323"/>
    <path fill="url(#b)" d="M19 29.562 42.246 6.093v109.125L19 92.019Z" style="fill:#64b5f6;fill-opacity:.85000002;fill-rule:evenodd;stroke:none;stroke-width:.514323"/>
    <path fill="url(#c)" d="M108.84 36.473 85.278 12.795l.477 109.112L109 98.709Z" style="fill:#33691e;fill-opacity:1;fill-rule:evenodd;stroke:none;stroke-width:.514323"/>
    <path fill="url(#a)" d="m42.23 6.112 60.436 92.223-16.912 16.911-60.467-92.019Z" style="fill:#66bb6a;fill-opacity:.85000002;fill-rule:evenodd;stroke:none;stroke-width:.514323"/>
    <path fill="url(#c)" d="M108.84 29.813 85.278 6.134l.477 109.112L109 92.048Z" style="fill:#689f38;fill-opacity:.85000002;fill-rule:evenodd;stroke:none;stroke-width:.514323"/>
</svg>
