<svg xmlns="http://www.w3.org/2000/svg" xmlns:xlink="http://www.w3.org/1999/xlink" xml:space="preserve" width="128" height="128" viewBox="0 0 128 128">
    <defs>
        <linearGradient id="g">
            <stop offset="0" style="stop-color:#373e48;stop-opacity:1"/>
            <stop offset="1" style="stop-color:#22262c;stop-opacity:1"/>
        </linearGradient>
        <linearGradient id="b">
            <stop offset="0" style="stop-color:#d8d8d8;stop-opacity:1"/>
            <stop offset="1" style="stop-color:#b8b8b8;stop-opacity:1"/>
        </linearGradient>
        <linearGradient id="f">
            <stop offset="0" style="stop-color:#bfbfbf;stop-opacity:1"/>
            <stop offset="1" style="stop-color:#fff;stop-opacity:1"/>
        </linearGradient>
        <linearGradient id="e">
            <stop offset="0" style="stop-color:#bdbdbd;stop-opacity:1"/>
            <stop offset="1" style="stop-color:#fff;stop-opacity:1"/>
        </linearGradient>
        <linearGradient id="d">
            <stop offset="0" style="stop-color:#99c2ff;stop-opacity:1"/>
            <stop offset="1" style="stop-color:#5079a5;stop-opacity:1"/>
        </linearGradient>
        <linearGradient id="c">
            <stop offset="0" style="stop-color:#0b0d0f;stop-opacity:1"/>
            <stop offset="1" style="stop-color:#525d6b;stop-opacity:1"/>
        </linearGradient>
        <linearGradient id="a">
            <stop offset="0" style="stop-color:#6f7c91;stop-opacity:1"/>
            <stop offset=".05" style="stop-color:#8796af;stop-opacity:1"/>
            <stop offset=".1" style="stop-color:#6f7c91;stop-opacity:1"/>
            <stop offset=".9" style="stop-color:#6f7c91;stop-opacity:1"/>
            <stop offset=".95" style="stop-color:#8998b2;stop-opacity:1"/>
            <stop offset="1" style="stop-color:#6f7c91;stop-opacity:1"/>
        </linearGradient>
        <linearGradient xlink:href="#a" id="j" x1="42.144" x2="101.063" y1="98.199" y2="98.199" gradientTransform="translate(3.175 16.403)scale(.87067)" gradientUnits="userSpaceOnUse"/>
        <linearGradient xlink:href="#b" id="h" x1="28.882" x2="10.031" y1="87.28" y2="106.131" gradientUnits="userSpaceOnUse"/>
        <radialGradient xlink:href="#c" id="t" cx="92.586" cy="44.284" r="7.151" fx="92.586" fy="44.284" gradientTransform="rotate(-3.621 -67.627 1008.849)scale(1.13649)" gradientUnits="userSpaceOnUse"/>
        <radialGradient xlink:href="#d" id="q" cx="92.586" cy="44.284" r="11.664" fx="92.586" fy="44.284" gradientTransform="rotate(11.379 204.883 -393.636)scale(1.43988 1.45538)" gradientUnits="userSpaceOnUse"/>
        <radialGradient xlink:href="#c" id="v" cx="92.586" cy="44.284" r="7.151" fx="92.586" fy="44.284" gradientTransform="rotate(-3.621 -20.454 344.3)scale(1.13649)" gradientUnits="userSpaceOnUse"/>
        <radialGradient xlink:href="#d" id="u" cx="92.586" cy="44.284" r="11.664" fx="92.586" fy="44.284" gradientTransform="rotate(11.379 217.622 -181.697)scale(1.43988 1.45538)" gradientUnits="userSpaceOnUse"/>
        <radialGradient xlink:href="#e" id="x" cx="39.881" cy="92.619" r="3.843" fx="39.881" fy="92.619" gradientTransform="matrix(2.57662 0 0 5.4766 -66.274 -411.936)" gradientUnits="userSpaceOnUse"/>
        <radialGradient xlink:href="#f" id="w" cx="103.561" cy="92.948" r="3.843" fx="103.561" fy="92.948" gradientTransform="matrix(2.31273 0 0 4.91572 -145.142 -360.87)" gradientUnits="userSpaceOnUse"/>
        <radialGradient xlink:href="#g" id="l" cx="106.449" cy="139.971" r="2.539" fx="106.449" fy="139.971" gradientTransform="matrix(.82545 -.06894 .03846 .80208 13.197 35.042)" gradientUnits="userSpaceOnUse"/>
        <filter id="k" width="1.322" height="2.574" x="-.161" y="-.787" style="color-interpolation-filters:sRGB">
            <feGaussianBlur stdDeviation="4.533"/>
        </filter>
        <filter id="o" width="1.271" height="2.028" x="-.136" y="-.514" style="color-interpolation-filters:sRGB">
            <feGaussianBlur stdDeviation="1.88"/>
        </filter>
        <filter id="m" width="1.992" height="2.021" x="-.496" y="-.511" style="color-interpolation-filters:sRGB">
            <feGaussianBlur stdDeviation="1.05"/>
        </filter>
        <filter id="p" width="1.987" height="2.016" x="-.494" y="-.508" style="color-interpolation-filters:sRGB">
            <feGaussianBlur stdDeviation="1.044"/>
        </filter>
        <filter id="i" width="1.231" height="1.138" x="-.116" y="-.069" style="color-interpolation-filters:sRGB">
            <feFlood flood-color="#fff" flood-opacity="1" result="flood"/>
            <feComposite in="flood" in2="SourceGraphic" operator="out" result="composite1"/>
            <feGaussianBlur in="composite1" result="blur" stdDeviation="1.6"/>
            <feOffset result="offset"/>
            <feComposite in="offset" in2="SourceGraphic" operator="atop" result="composite2"/>
        </filter>
    </defs>
    <path d="M13.706 59.883a4.68 4.68 0 0 0-5.809 3.163 4.68 4.68 0 0 0 3.163 5.814s.729.164 1.702 1.37c.973 1.205 2.179 3.328 1.036 8.835-1.427 6.877-3.114 17.747-.271 27.505 1.42 4.879 4.19 9.635 8.94 12.67s11.094 4.107 18.824 2.948a4.68 4.68 0 0 0 3.934-5.321 4.68 4.68 0 0 0-5.321-3.934c-6.204.93-9.947-.006-12.4-1.579-2.453-1.567-4.005-4.004-4.994-7.398-1.977-6.789-.837-16.782.45-22.986 1.572-7.575-.22-13.275-2.922-16.623-2.703-3.347-6.333-4.464-6.333-4.464Z" style="color:#000;fill:url(#h);fill-opacity:1;stroke:#fff;stroke-width:1;stroke-linecap:round;stroke-dasharray:none;stroke-opacity:1;filter:url(#i)"/>
    <rect width="51.299" height="44.929" x="39.869" y="79.437" rx="7.096" ry="6.215" style="fill:url(#j);fill-opacity:1;stroke-width:.770384;stroke-linecap:round"/>
    <path d="M34.642 2.32c-1.084-.06-2.025.075-2.775.433-5.986 2.861-7.338 23.647-3.754 34.172-2.133 3.174-3.58 6.668-4.217 10.367C20.432 67.412 41.198 78.2 64.86 79.697c23.662 1.498 46.573-4.396 44.723-26.982a28 28 0 0 0-1.36-6.604c5.47-9.315 7.155-31.968 1.31-35.734-5.09-3.28-21.718 4.024-30.429 11.543a58 58 0 0 0-10.486-1.61 61 61 0 0 0-6.212-.076C56.526 12.331 42.142 2.727 34.642 2.32Z" style="fill:#d8d8d8;fill-opacity:1;stroke:#fff;stroke-width:1;stroke-linecap:round;stroke-dasharray:none;stroke-opacity:1;filter:url(#i)"/>
    <ellipse cx="86.344" cy="43.019" rx="12.619" ry="12.755" style="fill:#ececec;fill-opacity:1;stroke-width:1.0094;stroke-linecap:round" transform="rotate(3.621)"/>
    <path d="M227.514 67.513c0 3.442-16.794 9.76-34.006 9.76-17.213 0-33.529-9.67-33.529-13.112s16.84 6.793 34.053 6.793 33.482-6.884 33.482-3.441" style="mix-blend-mode:normal;fill:#7d7d7d;fill-opacity:1;stroke-width:2.5;stroke-linecap:round;filter:url(#k)" transform="matrix(1.01134 0 0 .69158 -128.468 19.676)"/>
    <path d="M108.894 138.203c.538.931-1.369 4.235-2.445 4.235s-2.983-3.304-2.445-4.235 4.352-.932 4.89 0" style="fill:#adadad;fill-opacity:1;stroke-width:.464;stroke-linecap:round" transform="matrix(1.7588 .11496 -.08433 1.3764 -110.58 -147.255)"/>
    <path d="M108.894 138.203c.538.931-1.369 4.235-2.445 4.235s-2.983-3.304-2.445-4.235 4.352-.932 4.89 0" style="fill:url(#l);fill-opacity:1;stroke-width:.464;stroke-linecap:round" transform="matrix(1.4808 .09371 -.071 1.122 -82.784 -110.218)"/>
    <path d="M108.894 138.203c.538.931-1.369 4.235-2.445 4.235s-2.983-3.304-2.445-4.235 4.352-.932 4.89 0" style="fill:#8796af;fill-opacity:.420021;stroke-width:.464;stroke-linecap:round;filter:url(#m)" transform="matrix(-2.93513 -1.8528 2.18234 -3.08785 105.886 656.18)"/>
    <path d="M108.894 138.203c.538.931-1.369 4.235-2.445 4.235s-2.983-3.304-2.445-4.235 4.352-.932 4.89 0" style="fill:#adadad;fill-opacity:1;stroke-width:.464;stroke-linecap:round" transform="matrix(-2.61336 -1.64968 1.9431 -2.74934 105.929 585.783)"/>
    <path d="M85.684 31.172c-.278 3.296-7.055-.954-16.244-1.73-9.19-.775-17.31 2.219-17.032-1.077s7.953-5.34 17.142-4.565c9.189.776 16.412 4.076 16.134 7.372" style="fill:#f4f4f4;fill-opacity:1;stroke-width:2.5;stroke-linecap:round;filter:url(#o)" transform="matrix(1.09579 0 0 1 -6.614 0)"/>
    <path d="M108.894 138.203c.538.931-1.369 4.235-2.445 4.235s-2.983-3.304-2.445-4.235 4.352-.932 4.89 0" style="fill:#ed86af;fill-opacity:1;stroke-width:.464;stroke-linecap:round" transform="matrix(-2.24971 -1.42013 1.67272 -2.36677 104.579 508.482)"/>
    <path d="M108.894 138.203c.538.931-1.369 4.235-2.445 4.235s-2.983-3.304-2.445-4.235 4.352-.932 4.89 0" style="fill:#8796af;fill-opacity:.42061;stroke-width:.464;stroke-linecap:round;filter:url(#p)" transform="matrix(3.31956 -1.55263 -1.87353 -3.52962 -49.943 680.156)"/>
    <path d="M108.894 138.203c.538.931-1.369 4.235-2.445 4.235s-2.983-3.304-2.445-4.235 4.352-.932 4.89 0" style="fill:#adadad;fill-opacity:1;stroke-width:.464;stroke-linecap:round" transform="matrix(2.98267 -1.39506 -1.68339 -3.1714 -41.687 611.896)"/>
    <path d="M108.894 138.203c.538.931-1.369 4.235-2.445 4.235s-2.983-3.304-2.445-4.235 4.352-.932 4.89 0" style="fill:#ed86af;fill-opacity:1;stroke-width:.464;stroke-linecap:round" transform="matrix(2.62496 -1.22775 -1.4815 -2.79107 -31.505 541.542)"/>
    <ellipse cx="50.289" cy="43.296" rx="12.619" ry="12.755" style="fill:#ececec;fill-opacity:1;stroke-width:1.0094;stroke-linecap:round" transform="rotate(3.621)"/>
    <g transform="translate(5.877 2.306)">
        <ellipse cx="44.341" cy="41.325" rx="11.664" ry="11.789" style="fill:url(#q);stroke-width:.933013;stroke-linecap:round" transform="rotate(3.621)"/>
        <circle cx="44.341" cy="41.325" r="7.151" style="fill:url(#t);fill-opacity:1;stroke-width:.828061;stroke-linecap:round" transform="rotate(3.621)"/>
        <circle cx="39.192" cy="38.651" r="2.915" style="fill:#fff;fill-opacity:1;stroke:none;stroke-width:3.37897;stroke-linecap:round"/>
        <circle cx="41.522" cy="42.912" r="1.448" style="fill:#fff;fill-opacity:1;stroke:none;stroke-width:1.67853;stroke-linecap:round"/>
    </g>
    <ellipse cx="86.406" cy="42.978" rx="11.664" ry="11.789" style="fill:url(#u);stroke-width:.933013;stroke-linecap:round" transform="rotate(3.621)"/>
    <circle cx="86.406" cy="42.978" r="7.151" style="fill:url(#v);fill-opacity:1;stroke-width:.828061;stroke-linecap:round" transform="rotate(3.621)"/>
    <circle cx="81.069" cy="42.957" r="2.915" style="fill:#fff;fill-opacity:1;stroke:none;stroke-width:3.37897;stroke-linecap:round"/>
    <circle cx="83.399" cy="47.218" r="1.448" style="fill:#fff;fill-opacity:1;stroke:none;stroke-width:1.67853;stroke-linecap:round"/>
    <rect width="51.299" height="48.934" x="39.869" y="69.322" rx="7.096" ry="6.769" style="fill:#b7bec8;fill-opacity:1;stroke-width:.803982;stroke-linecap:round"/>
    <rect width="47.343" height="45.16" x="41.847" y="71.209" rx="6.549" ry="6.247" style="fill:#373e48;fill-opacity:1;stroke-width:.741975;stroke-linecap:round"/>
    <path d="M98.21 90.642c0 4.511-2.51 7.56-5.33 7.56s-2.322-3.28-2.322-7.792-.352-8.546 2.468-8.546 5.185 4.266 5.185 8.778z" style="fill:url(#w);fill-opacity:1;stroke:#fff;stroke-width:1;stroke-linecap:round;stroke-dasharray:none;stroke-opacity:1"/>
    <path d="M32.64 90.557c0 4.511 2.512 7.56 5.331 7.56s2.322-3.28 2.322-7.792.352-8.546-2.468-8.546-5.185 4.266-5.185 8.778z" style="fill:url(#x);fill-opacity:1;stroke:#fff;stroke-width:1;stroke-linecap:round;stroke-dasharray:none;stroke-opacity:1"/>
    <path d="m52.964 81.436-2.84 2.84 8.03 8.028-8.03 8.03 2.84 2.84 10.868-10.87zm14.701 17.722v4.015h13.227v-4.015z" style="color:#000;fill:#dbdee3;fill-opacity:1;stroke-width:.168637;-inkscape-stroke:none"/>
</svg>
