<svg xmlns="http://www.w3.org/2000/svg" width="128" height="128" fill="none" viewBox="0 0 128 128">
    <path fill="url(#a)" d="M65 5a55 55 0 0 0-55 55v8a55 55 0 0 0 110 0v-8A55 55 0 0 0 65 5"/>
    <path fill="url(#b)" d="M65 115c30.376 0 55-24.624 55-55S95.376 5 65 5 10 29.624 10 60s24.624 55 55 55"/>
    <path fill="#998cba" d="M65 112.613c29.057 0 52.613-23.555 52.613-52.613 0-29.057-23.556-52.613-52.613-52.613-29.058 0-52.613 23.556-52.613 52.613 0 29.058 23.555 52.613 52.613 52.613"/>
    <mask id="c" width="107" height="107" x="12" y="6" maskUnits="userSpaceOnUse" style="mask-type:alpha">
        <path fill="#2e3192" d="M65.5 6C35.95 6 12 29.95 12 59.5S35.95 113 65.5 113 119 89.05 119 59.5 95.05 6 65.5 6m25.402 60.758c-.518 2.073-1.348 3.732-2.488 5.08-1.037 1.348-2.074 2.178-3.214 2.592s-2.281.622-3.526.622-2.28-.207-3.11-.725c-.83-.415-1.452-1.141-1.97-1.97-.518-.83-.83-1.867-1.037-3.007a21 21 0 0 1-.31-3.733c0-.518 0-1.037.103-1.762.104-.726.207-1.66.311-1.66h-.207c-1.66 4.148-3.94 7.155-6.843 9.54s-6.118 3.525-9.643 3.525c-2.385 0-4.355-.933-5.702-2.696-1.452-1.763-2.178-4.458-2.178-7.984 0-.518 0-1.036.104-1.658.104-.519.104-.726.207-1.763h-.725c-.934 2.074-1.763 4.977-2.385 7.569s-1.14 4.977-1.452 7.154c-.414 2.177-.622 4.147-.829 5.806s-.311 2.8-.415 3.421c.104.519.208 1.037.311 1.66.208.621.311 1.244.519 1.762.207.518.31 1.14.414 1.659.104.518.208.933.208 1.244 0 1.452-.311 2.592-.933 3.318s-1.348 1.14-2.074 1.14c-.933 0-1.763-.31-2.385-.829-.725-.622-1.036-1.555-1.036-2.8 0-1.762.31-4.043.933-6.739.622-2.695 1.555-6.117 2.695-10.16.623-1.867 1.14-3.733 1.763-5.6.622-1.866 1.14-3.628 1.659-5.184.518-1.555.933-3.006 1.348-4.25.414-1.245.622-2.178.725-2.904.104-.31.208-1.037.312-2.073.103-1.037.207-2.178.414-3.526.208-1.347.311-2.799.519-4.25.207-1.556.414-2.904.518-4.148.208-.933.311-1.97.519-3.11.207-1.14.518-2.281.933-3.214.414-1.037 1.037-1.867 1.762-2.592s1.66-1.037 2.8-1.037c1.244 0 2.073.415 2.488 1.14.415.726.622 1.66.518 2.696s-.207 2.177-.518 3.318c-.311 1.14-.622 2.177-.933 3.007-.83 2.592-1.659 4.976-2.592 6.946s-1.763 4.148-2.488 6.429a11.4 11.4 0 0 0-.83 4.25c0 2.282.726 3.94 2.074 5.185 1.451 1.244 3.11 1.762 5.08 1.762 1.555 0 3.11-.518 4.562-1.659a25 25 0 0 0 4.044-4.043 23 23 0 0 0 3.11-5.08 37 37 0 0 0 1.867-4.77c.103-.207.207-.622.31-1.452.208-.829.312-1.762.519-2.799s.415-2.074.622-3.214.415-2.074.518-2.8c.208-.829.312-1.659.519-2.695.207-1.037.518-1.97.933-2.903s1.037-1.66 1.659-2.281c.726-.622 1.555-.933 2.696-.933 1.347 0 2.177.414 2.695 1.14.415.726.623 1.659.623 2.696-.104 1.037-.208 2.073-.519 3.11s-.518 1.866-.726 2.488a104 104 0 0 1-2.488 6.947c-.83 2.074-1.555 3.94-2.281 5.392-.622 1.555-1.14 2.695-1.555 3.629q-.622 1.4-.622 1.866c0 2.696.622 4.666 1.762 5.806s2.385 1.763 3.733 1.763c2.28 0 4.043-.726 5.391-2.074 1.348-1.452 2.385-4.044 3.007-7.154h.83c.207 3.007-.105 5.495-.623 7.569"/>
    </mask>
    <g mask="url(#c)">
        <path fill="#453864" d="M65 112.613c29.057 0 52.613-23.555 52.613-52.613 0-29.057-23.556-52.613-52.613-52.613-29.058 0-52.613 23.556-52.613 52.613 0 29.058 23.555 52.613 52.613 52.613"/>
    </g>
    <defs>
        <linearGradient id="a" x1="10" x2="120" y1="123" y2="123" gradientUnits="userSpaceOnUse">
            <stop stop-color="#241f31"/>
            <stop offset=".301" stop-color="#342b4a"/>
            <stop offset=".502" stop-color="#382e51"/>
            <stop offset=".701" stop-color="#342b4a"/>
            <stop offset="1" stop-color="#241f31"/>
        </linearGradient>
        <linearGradient id="b" x1="65" x2="65" y1="5" y2="115" gradientUnits="userSpaceOnUse">
            <stop stop-color="#695f84"/>
            <stop offset="1" stop-color="#5e5479"/>
        </linearGradient>
    </defs>
</svg>
