<svg xmlns="http://www.w3.org/2000/svg" xmlns:xlink="http://www.w3.org/1999/xlink" xml:space="preserve" width="128" height="128" viewBox="0 0 128 128">
    <defs>
        <linearGradient id="c">
            <stop offset="0" style="stop-color:#1bda6a;stop-opacity:1"/>
            <stop offset=".977" style="stop-color:#68eca7;stop-opacity:1"/>
        </linearGradient>
        <linearGradient id="b">
            <stop offset="0" style="stop-color:#313b3c;stop-opacity:1"/>
            <stop offset="1" style="stop-color:#a8afbe;stop-opacity:1"/>
        </linearGradient>
        <linearGradient id="a">
            <stop offset="0" style="stop-color:#131516;stop-opacity:1"/>
            <stop offset=".3" style="stop-color:#272c35;stop-opacity:1"/>
            <stop offset=".5" style="stop-color:#474c52;stop-opacity:1"/>
            <stop offset=".7" style="stop-color:#272c35;stop-opacity:1"/>
            <stop offset="1" style="stop-color:#131516;stop-opacity:1"/>
        </linearGradient>
        <linearGradient xlink:href="#a" id="d" x1="9" x2="119" y1="115" y2="115" gradientUnits="userSpaceOnUse"/>
        <linearGradient xlink:href="#b" id="e" x1="64" x2="64" y1="115" y2="7.511" gradientUnits="userSpaceOnUse"/>
        <linearGradient xlink:href="#c" id="f" x1="-294.234" x2="130.233" y1="166.155" y2="-120.151" gradientUnits="userSpaceOnUse" spreadMethod="pad"/>
        <linearGradient id="h" x1="-315.039" x2="139.866" y1="-155.567" y2="-155.567" gradientTransform="scale(1.07288 .93207)" gradientUnits="userSpaceOnUse">
            <stop offset="0" style="stop-color:#1bda6a;stop-opacity:1"/>
            <stop offset=".977" style="stop-color:#68eca7;stop-opacity:1"/>
        </linearGradient>
        <linearGradient xlink:href="#c" id="g" x1="-294.234" x2="130.233" y1="166.155" y2="-120.151" gradientUnits="userSpaceOnUse" spreadMethod="pad"/>
    </defs>
    <path d="M64 5A55 55 0 0 0 9 60v8a55 55 0 0 0 55 55 55 55 0 0 0 55-55v-8A55 55 0 0 0 64 5" style="fill:url(#d);fill-opacity:1"/>
    <circle cx="64" cy="60" r="55" style="display:inline;fill:url(#e);fill-opacity:1;stroke-width:1"/>
    <ellipse cx="64" cy="60.187" rx="52.489" ry="52.676" style="display:inline;fill:#282a33;fill-opacity:1;stroke-width:.956048"/>
    <g fill="var(--color-brand)" style="fill:url(#f);fill-opacity:1;fill-rule:nonzero" transform="matrix(.17873 0 0 .17788 78.656 55.806)">
        <path fill-rule="evenodd" d="M165.16 89.562c11.39-42.09 12.16-87.65.04-132.8-36.63-136.53-177.16-217.56-313.87-180.98-105.52 28.24-177.94 118.29-188.64 220.69h43.3c10.3-83.14 69.75-155.74 155.76-178.76 106.3-28.45 215.38 28.96 253.42 129.67l-42.14 11.27c-19.39-46.85-58.46-81.2-104.73-95.83l-7.74 43.84c36.53 13.47 66.16 43.84 77 84.25 15.8 58.89-13.62 119.23-67 144.26l11.53 42.99C52.25 149.212 94.4 76.302 84.43 1.142l41.98-11.23a210.2 210.2 0 0 1-3.86 84.16z" clip-rule="evenodd" style="fill:url(#g);fill-opacity:1;fill-rule:nonzero"/>
        <path d="M-16.01 270.222c-136.72 36.58-277.24-44.45-313.88-180.98a257.6 257.6 0 0 1-8.11-47.78h43.27c1.09 11.91 3.2 23.89 6.41 35.83 3.36 12.51 7.77 24.46 13.11 35.78l38.59-23.15a169 169 0 0 1-8.17-23.45c-24.04-89.6 29.2-181.7 118.92-205.71 17-4.55 34.1-6.32 50.8-5.61l-7.74 43.85c-10.46.05-21.08 1.42-31.66 4.25-66.22 17.73-105.52 85.7-87.78 151.84 1.1 4.07 2.38 8.04 3.84 11.9l49.35-29.61-14.87-39.43 46.6-47.87 58.9-12.69 17.05 20.99-27.15 27.5-23.68 7.45-16.92 17.39 8.29 23.07s16.79 17.84 16.82 17.85l23.72-6.31 16.88-18.54 36.86-11.67 10.98 24.7-38.03 46.63-63.73 20.18-28.58-31.82-49.82 29.89c25.54 29.08 63.94 45.23 103.75 41.86l11.53 42.99c-59.41 7.86-117.44-16.73-153.49-61.91l-38.41 23.04c50.61 66.49 138.2 99.43 223.97 76.48 61.74-16.52 109.79-58.6 135.81-111.78l42.64 15.5c-30.89 66.28-89.84 118.94-166.07 139.34" style="fill:url(#h);fill-opacity:1;fill-rule:nonzero"/>
    </g>
</svg>
