<svg xmlns="http://www.w3.org/2000/svg" xmlns:xlink="http://www.w3.org/1999/xlink" xml:space="preserve" width="128" height="128" viewBox="0 0 128 128">
    <defs>
        <linearGradient id="a">
            <stop offset="0" style="stop-color:#e5dfdd;stop-opacity:1"/>
            <stop offset="1" style="stop-color:#fff;stop-opacity:1"/>
        </linearGradient>
        <linearGradient id="b">
            <stop offset="0" style="stop-color:#ffba00;stop-opacity:1"/>
            <stop offset="1" style="stop-color:#ff7f02;stop-opacity:1"/>
        </linearGradient>
        <linearGradient xlink:href="#a" id="d" x1="369.239" x2="369.239" y1="-117.549" y2="-183.117" gradientTransform="matrix(.52447 0 0 .52984 -128.047 128.832)" gradientUnits="userSpaceOnUse"/>
        <radialGradient xlink:href="#b" id="c" cx="365.896" cy="-121.309" r="77.057" fx="365.896" fy="-121.309" gradientTransform="matrix(.66492 .00756 -.00833 .74723 -180.128 151.116)" gradientUnits="userSpaceOnUse"/>
    </defs>
    <path d="m92.823 32.005-.117 4.206-30.979 2.462L38.38 53.986l-5.53 25.598s.17.7.228.945l-.229 1.055s3.76 16.544 6.969 19.898 9.845 12.974 18.033 14.65 15.162 3.572 21.8 1.895c6.64-1.677 11.071-3.686 11.071-3.686L93.487 113s-.681.6-1.774 1.375c13.213-8.558 21.963-23.527 21.963-40.559 0-.341-.024-.676-.03-1.016.006-.329.03-.653.03-.984 0-16.55-8.263-31.147-20.853-39.81" style="fill:#a25402;fill-opacity:1;stroke:none;stroke-width:.527151"/>
    <path d="M63.004 11.013C33.18 11.013 9.001 35.44 9.001 65.57c0 .335.019.666.025 1-.006.334-.025.664-.025 1 0 30.13 24.29 55.387 54.003 55.39 19.386.583 37.368-8.537 43.295-23.394v-8l-34.588-2.984.989 2.086-.989-.086 9.813 20.691c-7.213 1.904-14.668 1.198-21.736-.371-7.499-1.664-15.722-5.37-20.135-11.295-3.922-5.265-6.29-16.433-6.795-18.975l5.35-24.748 23.46-15.388 31.135-2.475.117-4.224a48.4 48.4 0 0 1 12.096 11.968h7.498c-.294-.68-.631-1.335-.951-2h.951c-8.33-19.275-27.36-32.752-49.51-32.752" style="fill:#3b251d;fill-opacity:1;stroke:none;stroke-width:.527151"/>
    <path d="m92.823 26.005-.117 4.206-30.98 2.462L38.38 47.986l-5.532 25.598s3.76 16.545 6.97 19.899c3.208 3.353 9.845 12.972 18.033 14.649s15.16 3.572 21.8 1.895c6.638-1.677 11.07-3.686 11.07-3.686l2.766-1.342s-.68.602-1.773 1.376c13.212-8.557 21.963-23.526 21.963-40.558 0-16.55-8.264-31.148-20.854-39.812" style="fill:url(#c);fill-opacity:1;stroke:none;stroke-width:.527151"/>
    <path d="M67.977 44.146c-6.542.112-11.332 1.844-13.932 3.415-9.148 5.524-15.031 13.816-15.92 24.898v.006q.132 1.5.38 2.955c.729-4.244 2.241-8.036 4.417-11.38 2.559 1.017 4.884 2.645 6.619 5.46.257.375.44.808.727 1.162 1.412 1.746 2.937 2.192 4.474 2.264 3.285.096 4.836-2.38 4.983-5.711.004-.261 0-.137-.018-.365v-6.016l-2.762-.734c-1.444-2.173-3.414-4.105-5.824-4.58a36 36 0 0 0-3.076 2.517h-.006a37.6 37.6 0 0 1 6.006-4.476c3.467-2.094 10.829-4.476 21.04-2.92 5.18.788 9.42 1.918 15.962 4.025 7.592 2.446 11.821 5.862 17.662 6.541a9.7 9.7 0 0 0 4.67-.629 49 49 0 0 0-.95-5.67 9.7 9.7 0 0 1-3.72.299c-5.841-.679-10.07-4.095-17.662-6.541-6.541-2.107-10.782-3.237-15.961-4.025a42.4 42.4 0 0 0-7.11-.495" style="fill:#a25402;fill-opacity:1;stroke:none;stroke-width:.527151"/>
    <path d="M85.8 10.624s1.168-2.91 2.257-2.988c1.09-.079 1.713.629 2.414 1.415.7.787 2.101 1.966 2.101 1.966s6.383-2.202 13.545 1.73c7.161 3.932 8.173 5.112 9.574 7.864 1.402 2.752.779 9.673.779 9.673l.837 4.128-1.771 2.32-12.455-2.123L88.213 23.52z" style="fill:#704737;fill-opacity:1;stroke:none;stroke-width:.527151"/>
    <path d="M83.26 27.355c-10.458.054-16.55 1.278-27.402 5.96C42.09 39.784 28.268 51.898 28.19 71.7c-.09 23.076 18.52 41.781 41.363 41.781 4.031 0 8.166-.52 12.166-1.508l-.685-1.734 1.806-1.074c-3.534.683-6.743.982-9.02.982-19.712 0-35.825-14.814-35.825-34.728 0-12.583 6.104-21.853 16.05-27.86 3.467-2.093 10.83-4.475 21.041-2.92 5.18.789 9.42 1.918 15.961 4.026 7.592 2.445 11.821 5.862 17.662 6.54 6.653.774 13.68-5.56 8.49-15.41 0 0-.94.948-1.726 1.424-.786.477-1.884-.151-5.03-1.263-3.144-1.112-3.62-2.39-8.023-5.409s-4.4-6.35-17.296-7.144a26 26 0 0 0-1.864-.049" style="fill:#acaaaa;fill-opacity:1;stroke:none;stroke-width:.527151"/>
    <path d="M63.004 5.013C33.179 5.013 9 29.44 9 59.57s24.29 55.387 54.004 55.39c19.385.582 37.369-8.537 43.296-23.394-2.187 1.02-4.593 3.476-6.407 5.084-3.42 3.03-7.13 3.645-11.848 6.127-9.143 4.811-19.032 4.172-28.257 2.124-7.498-1.664-15.723-5.368-20.136-11.294-4.413-5.925-7.004-19.997-7.004-19.997l5.56-25.725 23.461-15.389 31.134-2.474.117-4.226a48.4 48.4 0 0 1 12.095 11.969h7.5c-8.33-19.276-27.361-32.752-49.511-32.752" style="fill:#704737;fill-opacity:1;stroke:none;stroke-width:.527151"/>
    <path d="M51.122 49.52a36 36 0 0 0-3.077 2.517h-5.123v6.002c2.56 1.018 4.885 2.646 6.62 5.46.257.375.44.808.726 1.163 1.412 1.745 2.937 2.192 4.475 2.263 3.285.097 4.836-2.38 4.982-5.71.004-.262 0-.137-.017-.366v-6.015l-2.762-.735c-1.445-2.172-3.414-4.105-5.824-4.58" style="fill:#3b251d;fill-opacity:1;stroke:none;stroke-width:.527151"/>
    <path d="M83.26 21.354c-10.459.054-16.55 1.279-27.402 5.96C42.09 33.784 28.268 45.899 28.19 65.7c-.09 23.077 18.522 41.781 41.365 41.781 11.804 0 24.515-4.356 32.05-12.367-8.11 6.86-21.474 9.033-27.784 9.034-19.712 0-35.826-14.815-35.826-34.73 0-12.581 6.105-21.851 16.052-27.858 3.466-2.093 10.827-4.474 21.04-2.92 5.179.79 9.42 1.918 15.962 4.025 7.592 2.446 11.82 5.862 17.662 6.541 6.652.773 13.68-5.56 8.49-15.41 0 0-.94.948-1.727 1.425-.786.477-1.884-.153-5.03-1.265-3.145-1.112-3.618-2.389-8.022-5.408-4.403-3.018-4.401-6.35-17.297-7.145a26 26 0 0 0-1.864-.049" style="fill:url(#d);fill-opacity:1;stroke:none;stroke-width:.527151"/>
    <ellipse cx="101.205" cy="30.525" rx="4.079" ry="4.121" style="fill:#000;fill-opacity:.29830453;stroke:none;stroke-width:.229586"/>
    <ellipse cx="101.205" cy="28.525" rx="4.079" ry="4.121" style="fill:#3f3f3f;fill-opacity:1;stroke:none;stroke-width:.229586"/>
    <path d="M116.293 30.764a2.114 2.657 0 0 0-2.115 2.658 2.114 2.657 0 0 0 .69 1.953h-.003a2.114 2.657 0 0 0 1.428.703 2.114 2.657 0 0 0 1.559-.869 18 18 0 0 0-.65-1.412s-.146.143-.366.346c.204-.19.338-.323.348-.332l-.614-3.024a2.114 2.657 0 0 0-.277-.023m-1.26 4.601" style="fill:#000;fill-opacity:.30392158;stroke:none;stroke-width:.132738"/>
    <ellipse cx="116.293" cy="31.421" rx="2.114" ry="2.657" style="fill:#3f3f3f;fill-opacity:1;stroke:none;stroke-width:.132738"/>
    <path d="M47.28 31.631c-2.657.654-9.133 2.243-12.981 7.519-3.696 5.066-3.396 10.974-3.478 12.547 1.07-1.74 4-1.494 6.02-1.178 4.762.744 9.646 2.025 12.7 6.98.257.375.44.808.726 1.163 1.412 1.745 2.938 2.193 4.476 2.264 3.285.097 4.836-2.38 4.982-5.712.004-.261.001-.136-.017-.365-.108-2.32-3.633-11.168-9.447-11.44l-.195-.006c-3.224-.2-5.73-2.975-5.637-6.287.324-2.146 1.316-3.843 3.261-5.22z" style="fill:#704737;fill-opacity:1;stroke:none;stroke-width:.527151"/>
    <path d="M115.22 37.326s-.53.925-1.671 1.479c-.47.227-1.294-.342-2.067.45-1.64 3.329 2.369 6.107 4.237 6.028 1.074-.045 2.018-.694 2.611-1.55a9 9 0 0 0 .602-2.524c-.45-2.315-3.711-3.883-3.711-3.883" style="fill:#000;fill-opacity:.30309311;stroke:none;stroke-width:.527151"/>
    <path d="M115.22 35.327s-.53.924-1.672 1.478c-.469.228-1.292-.343-2.065.45-1.641 3.328 2.368 6.107 4.236 6.028s3.342-1.98 3.264-3.632c-.077-2.555-3.763-4.324-3.763-4.324" style="fill:#3f3f3f;fill-opacity:1;stroke:none;stroke-width:.527151"/>
    <path d="M63.004 5.013C33.179 5.013 9 29.44 9 59.57c0 .47.009.935.02 1.404.75-29.47 24.632-53.125 53.984-53.125a53.34 53.34 0 0 1 22.994 5.178c.37-.808 1.235-2.498 2.064-2.558 1.09-.078 1.708.632 2.408 1.418.7.787 2.106 1.967 2.106 1.967s6.379-2.2 13.54 1.731c7.162 3.932 8.176 5.11 9.578 7.862.583 1.145.814 3.012.887 4.802.076-2.263.032-5.833-.887-7.638-1.402-2.753-2.416-3.93-9.578-7.862s-13.54-1.73-13.54-1.73-1.405-1.181-2.106-1.967c-.7-.787-1.318-1.497-2.408-1.418-.83.06-1.693 1.749-2.064 2.557a53.34 53.34 0 0 0-22.994-5.178" style="fill:#fff;fill-opacity:.40156251;stroke:none;stroke-width:.527151"/>
</svg>
