<svg xmlns="http://www.w3.org/2000/svg" xmlns:xlink="http://www.w3.org/1999/xlink" width="128" height="128" viewBox="0 0 128 128">
    <defs>
        <linearGradient id="b">
            <stop offset="0" style="stop-color:#68b6f5;stop-opacity:1"/>
            <stop offset="1" style="stop-color:#bde0fd;stop-opacity:1"/>
        </linearGradient>
        <linearGradient id="a">
            <stop offset="0" style="stop-color:#1565c0;stop-opacity:1"/>
            <stop offset=".283" style="stop-color:#1565c0;stop-opacity:1"/>
            <stop offset=".5" style="stop-color:#0a76d8;stop-opacity:1"/>
            <stop offset=".706" style="stop-color:#1565c0;stop-opacity:1"/>
            <stop offset="1" style="stop-color:#1565c0;stop-opacity:1"/>
        </linearGradient>
        <linearGradient xlink:href="#a" id="c" x1="9" x2="119" y1="70" y2="70" gradientTransform="translate(0 -2)" gradientUnits="userSpaceOnUse"/>
        <linearGradient xlink:href="#b" id="d" x1="64" x2="64" y1="115" y2="5" gradientUnits="userSpaceOnUse"/>
        <filter id="f" width="1.096" height="1.096" x="-.048" y="-.048" style="color-interpolation-filters:sRGB">
            <feGaussianBlur stdDeviation="5.703"/>
        </filter>
    </defs>
    <path d="M64 5A55 55 0 0 0 9 60v8a55 55 0 0 0 55 55 55 55 0 0 0 55-55v-8A55 55 0 0 0 64 5" style="fill:url(#c);fill-opacity:1"/>
    <circle cx="64" cy="60" r="55" style="fill:url(#d);fill-opacity:1"/>
    <circle cx="64" cy="60" r="52.868" style="fill:#2094f4;fill-opacity:1;stroke-width:.961244"/>
    <g style="fill:#0a5ad1;fill-opacity:1;stroke:none;stroke-width:11.5441;stroke-dasharray:none;stroke-opacity:1;filter:url(#f)" transform="translate(72.677 40.65)scale(.24662)">
        <path fill="#fbfdfd" d="M-60.719-2.394C-7.689 50.63 45.046 103.45 97.918 156.133c8.745 8.714 12.467 18.18 7.588 30.181-4.587 11.284-12.636 17.234-24.853 17.32-21.657.156-43.316.055-64.975.058-17.993.003-35.987-.104-53.978.13-2.328.03-5.162 1.246-6.86 2.86-8.327 7.92-16.293 16.216-24.493 24.27-10.345 10.162-22.598 11.466-34.994 3.805-1.343-.83-2.522-1.972-3.648-3.098-21.093-21.08-42.16-42.187-63.246-63.275-9.728-9.73-9.38-27.71.52-37.26 8.75-8.441 17.366-17.033 25.77-25.818 1.48-1.548 2.278-4.374 2.286-6.614.136-38.984.13-77.97.083-116.955-.014-11.51 4.258-20.397 15.053-25.388 11.733-5.425 22.048-3.627 31.502 5.68 11.873 11.687 23.58 23.544 35.608 35.577m7.55 181.954c3.852 5.098 8.535 6.626 15.266 6.509 32.154-.561 64.323-.252 96.487-.252h4.788L-125.02-2.573v5.336l-.001 84.993c0 4.833.459 9.729-.176 14.478-.508 3.803.687 6.105 3.248 8.646 22.829 22.657 45.536 45.436 68.78 68.68m-50.907-38.097-25.874-25.802c-9.52 9.594-18.566 18.663-27.556 27.79-4.56 4.629-4.556 8.758.03 13.405 6.897 6.99 13.872 13.903 20.817 20.847 13.535 13.535 27.054 27.086 40.617 40.592 3.84 3.825 8.357 4.77 11.519 1.694 9.862-9.593 19.412-19.507 29.384-29.601zM23.21 107.18C-20.853 63.117-64.911 19.05-108.982-25.002c-4.444-4.442-9.905-4.846-13.621-1.112-3.554 3.57-3.027 8.54 1.397 12.965q84.115 84.118 168.231 168.233c9.425 9.425 18.831 18.868 28.283 28.266 3.349 3.329 6.865 3.387 10.423.337 5.286-4.53 5.418-8.517.165-13.788-20.699-20.77-41.453-41.485-62.687-62.72" style="fill:#0a5ad1;fill-opacity:1;stroke:none;stroke-width:11.5441;stroke-dasharray:none;stroke-opacity:1"/>
        <path fill="#fcfdfe" d="M-5.19-28.118c-4.938-.303-9.453-.299-13.907-.822-4.897-.574-7.734-4.31-7.53-9.202.205-4.925 3.511-8.272 8.708-8.374 14.618-.286 28.843 2.027 42.639 6.89C73.76-22.34 107.994 26.207 107.436 77.54c-.046 4.237-1.315 7.511-5.384 9.23-3.798 1.604-7.725 1.048-9.976-2.108-1.738-2.438-2.44-6.045-2.526-9.163-.533-19.252-5.316-37.27-16.04-53.3-18.739-28.013-44.075-46.1-78.7-50.317" style="fill:#0a5ad1;fill-opacity:1;stroke:none;stroke-width:11.5441;stroke-dasharray:none;stroke-opacity:1"/>
        <path fill="#f9fbfc" d="M-10.455-10.531c44.448 2.528 82.406 43.2 82.031 87.416-.025 3.008-.12 5.86-4.155 5.988-4.264.134-4.797-2.898-4.832-6.056-.192-17.542-5.449-33.353-16.311-47.148C34.304 14.463 19.085 4.08 0 0c-5.119-1.095-10.448-1.23-15.69-1.718-3.288-.306-6.671-.51-6.382-5.07.279-4.39 3.667-3.976 6.685-3.942 1.497.017 2.993.116 4.932.199" style="fill:#0a5ad1;fill-opacity:1;stroke:none;stroke-width:11.5441;stroke-dasharray:none;stroke-opacity:1"/>
    </g>
    <path fill="#fbfdfd" d="M57.777 35.613C70.856 48.69 83.861 61.716 96.9 74.71c2.157 2.149 3.075 4.483 1.872 7.443-1.132 2.783-3.117 4.25-6.13 4.272-5.34.038-10.682.013-16.024.014-4.437 0-8.875-.026-13.312.031-.574.008-1.273.308-1.692.706-2.053 1.953-4.018 4-6.04 5.985-2.551 2.507-5.573 2.828-8.63.939-.331-.205-.622-.487-.9-.764-5.202-5.2-10.398-10.404-15.598-15.605-2.399-2.4-2.313-6.834.129-9.189a224 224 0 0 0 6.355-6.367c.365-.382.562-1.079.564-1.631.033-9.615.032-19.23.02-28.844-.003-2.838 1.05-5.03 3.713-6.26 2.893-1.339 5.437-.895 7.769 1.4 2.928 2.882 5.815 5.806 8.781 8.774m1.862 44.873c.95 1.257 2.105 1.634 3.765 1.605 7.93-.138 15.863-.062 23.796-.062h1.18L41.92 35.57v1.316l-.001 20.96c0 1.192.113 2.4-.043 3.571-.125.938.17 1.506.8 2.132 5.63 5.588 11.23 11.206 16.963 16.938m-12.554-9.395-6.381-6.364c-2.348 2.367-4.58 4.603-6.796 6.854-1.125 1.142-1.124 2.16.007 3.306 1.7 1.724 3.421 3.429 5.134 5.141 3.338 3.338 6.672 6.68 10.017 10.011.947.943 2.061 1.176 2.84.418 2.433-2.366 4.788-4.811 7.247-7.3zm31.39-8.455q-16.298-16.301-32.6-32.599c-1.096-1.095-2.443-1.195-3.36-.274-.876.88-.746 2.107.345 3.198l41.489 41.49c2.324 2.323 4.644 4.652 6.975 6.97.826.82 1.693.835 2.57.083 1.304-1.117 1.337-2.1.041-3.4-5.105-5.123-10.223-10.231-15.46-15.468"/>
    <path fill="#fcfdfe" d="M71.472 29.269c-1.218-.075-2.332-.074-3.43-.203-1.208-.141-1.907-1.062-1.857-2.27.05-1.214.866-2.04 2.147-2.064 3.606-.07 7.114.5 10.516 1.699 12.094 4.263 20.537 16.236 20.4 28.895-.012 1.045-.325 1.853-1.329 2.276-.936.396-1.905.259-2.46-.52-.428-.6-.601-1.49-.623-2.259-.131-4.748-1.31-9.192-3.955-13.145-4.622-6.908-10.87-11.369-19.41-12.41"/>
    <path fill="#f9fbfc" d="M70.173 33.606c10.962.624 20.323 10.654 20.23 21.559-.006.742-.029 1.445-1.024 1.476-1.052.034-1.183-.714-1.192-1.493-.047-4.326-1.343-8.226-4.022-11.628-2.953-3.75-6.707-6.31-11.413-7.317-1.263-.27-2.577-.303-3.87-.423-.81-.076-1.645-.126-1.574-1.25.069-1.083.905-.981 1.649-.973.37.004.738.029 1.216.05"/>
</svg>
