<svg xmlns="http://www.w3.org/2000/svg" xmlns:xlink="http://www.w3.org/1999/xlink" xml:space="preserve" width="128" height="128" viewBox="0 0 128 128">
    <defs>
        <linearGradient id="b">
            <stop offset="0" style="stop-color:#ccc;stop-opacity:1"/>
            <stop offset="1" style="stop-color:#fff;stop-opacity:1"/>
        </linearGradient>
        <linearGradient id="a">
            <stop offset="0" style="stop-color:#999;stop-opacity:1"/>
            <stop offset=".05" style="stop-color:#b3b3b3;stop-opacity:1"/>
            <stop offset=".1" style="stop-color:#999;stop-opacity:1"/>
            <stop offset=".9" style="stop-color:#999;stop-opacity:1"/>
            <stop offset=".95" style="stop-color:#b3b3b3;stop-opacity:1"/>
            <stop offset="1" style="stop-color:#999;stop-opacity:1"/>
        </linearGradient>
        <linearGradient xlink:href="#a" id="c" x1="11.5" x2="116.5" y1="120.5" y2="120.5" gradientUnits="userSpaceOnUse"/>
        <linearGradient xlink:href="#b" id="d" x1="64" x2="64" y1="112.5" y2="7.5" gradientUnits="userSpaceOnUse"/>
        <filter id="e" width="1.253" height="1.34" x="-.127" y="-.161" style="color-interpolation-filters:sRGB">
            <feFlood flood-color="#000" flood-opacity=".678" result="flood"/>
            <feComposite in="flood" in2="SourceGraphic" operator="out" result="composite1"/>
            <feGaussianBlur in="composite1" result="blur" stdDeviation="4.136"/>
            <feOffset dy="1.071" result="offset"/>
            <feComposite in="offset" in2="SourceGraphic" operator="atop" result="composite2"/>
        </filter>
        <filter id="f" width="1.14" height="1.289" x="-.07" y="-.113" style="color-interpolation-filters:sRGB">
            <feFlood flood-color="#000" flood-opacity=".678" result="flood"/>
            <feComposite in="flood" in2="SourceGraphic" operator="in" result="composite1"/>
            <feGaussianBlur in="composite1" result="blur" stdDeviation="1.5"/>
            <feOffset dy="2" result="offset"/>
            <feComposite in="SourceGraphic" in2="offset" result="composite2"/>
        </filter>
    </defs>
    <rect width="105" height="105" x="11.5" y="15.5" rx="8" ry="8" style="fill:url(#c);fill-opacity:1"/>
    <rect width="105" height="105" x="11.5" y="7.5" rx="8" ry="8" style="fill:url(#d);fill-opacity:1"/>
    <rect width="100.199" height="100.199" x="13.9" y="9.9" rx="7.634" ry="7.634" style="fill:#ccc;fill-opacity:1;stroke-width:.954278"/>
    <path d="M24.925 28.543v13.798H21.12v5.834h3.805v19.097H21.12v5.836h3.805v9.288h17.878v11.21h5.373v12.173h31.648V93.607h5.373V82.396h17.878v-9.288h3.805v-5.836h-3.805V48.175h3.805v-5.834h-3.805V28.543Z" style="fill:#1a1a1a;fill-opacity:1;stroke-width:.617846"/>
    <path d="M24.925 24.653v13.798H21.12v5.835h3.805v19.096H21.12v5.837h3.805v9.287h17.878v11.211h5.373v12.172h31.648V89.717h5.373V78.506h17.878v-9.287h3.805v-5.837h-3.805V44.286h3.805V38.45h-3.805V24.653Z" style="fill:#333;fill-opacity:1;stroke-width:.617846"/>
    <path d="M24.78 26.904v44.76h20.203v11.53h6.086v5.29H76.93v-5.29h6.086v-11.53h20.203v-44.76Z" style="fill:#1a1a1a;fill-opacity:1;stroke-width:.564323;filter:url(#e)" transform="matrix(.88277 0 0 .98516 7.502 1.494)"/>
    <path d="M29.378 27.873h69.244v1.946H29.378z" style="fill:#000;fill-opacity:1;stroke-width:7.57342"/>
    <path d="M38.2 26.904v31.867h6.282V26.904Zm9.064 0v31.867h6.283V26.904Zm9.062 0v31.867h6.283V26.904Zm9.065 0v31.867h6.283V26.904Zm9.062 0v31.867h6.283V26.904Zm9.065 0v31.867H89.8V26.904Z" style="fill:#ffb747;fill-opacity:1;stroke-width:2.41231;filter:url(#f)" transform="matrix(.88277 0 0 .9724 7.502 1.711)"/>
    <path d="M29.379 72.097v1.97h17.833v-1.97zm51.41 0v1.97H98.62v-1.97ZM47.211 83.455v1.97h5.372v-1.97zm28.204 0v1.97h5.372v-1.97zm-22.832 5.21v1.971h22.832v-1.97z" style="fill:#636363;fill-opacity:1;stroke-width:.621887"/>
    <path d="M41.224 58.86v1.945h5.546V58.86zm8.002 0v1.945h5.546V58.86zm8 0v1.945h5.546V58.86zm8.002 0v1.945h5.546V58.86zm8 0v1.945h5.546V58.86zm8.002 0v1.945h5.546V58.86z" style="fill:#a46400;fill-opacity:1;stroke-width:2.23502"/>
    <path d="M24.925 22.708h78.15v1.946h-78.15z" style="fill:#666;fill-opacity:1;stroke-width:7.79614"/>
    <path d="M21.12 36.506h3.805v1.946H21.12zm81.955 0h3.805v1.946h-3.805zm0 24.931h3.805v1.946h-3.805zm-81.955 0h3.805v1.946H21.12z" style="fill:#666;fill-opacity:1;stroke-width:1.7203"/>
</svg>
