<svg xmlns="http://www.w3.org/2000/svg" xmlns:xlink="http://www.w3.org/1999/xlink" xml:space="preserve" width="128" height="128" viewBox="0 0 128 128">
    <defs>
        <radialGradient id="b" cx="-7915.977" cy="-8535.981" r="118.081" gradientTransform="translate(11538.803 12194.255)scale(1.42986)" gradientUnits="userSpaceOnUse">
            <stop offset=".126" stop-color="#3fe1b0" style="stop-color:#6938ab;stop-opacity:1"/>
            <stop offset=".429" stop-color="#0df" style="stop-color:#6e38b0;stop-opacity:1"/>
            <stop offset=".479" stop-color="#1ec1ff" style="stop-color:#6736a7;stop-opacity:1"/>
            <stop offset=".624" stop-color="#7077ff" style="stop-color:#5e369f;stop-opacity:1"/>
            <stop offset=".764" stop-color="#9059ff" style="stop-color:#5c369e;stop-opacity:1"/>
            <stop offset=".882" stop-color="#b833e1" style="stop-color:#5642a4;stop-opacity:1"/>
        </radialGradient>
        <radialGradient id="e" cx="-7907.187" cy="-8515.121" r="80.797" gradientTransform="matrix(1.42237 0 0 1.40739 11345.251 12002.33)" gradientUnits="userSpaceOnUse">
            <stop offset=".108" stop-color="#3fe1b0"/>
            <stop offset=".122" stop-color="#3bdcb3"/>
            <stop offset=".254" stop-color="#1bb3d3"/>
            <stop offset=".358" stop-color="#0799e6"/>
            <stop offset=".42" stop-color="#0090ed"/>
            <stop offset=".487" stop-color="#2482f1"/>
            <stop offset=".64" stop-color="#7165fb"/>
            <stop offset=".71" stop-color="#9059ff"/>
            <stop offset=".795" stop-color="#7d49ed"/>
            <stop offset=".86" stop-color="#7542e5"/>
        </radialGradient>
        <radialGradient id="f" cx="-7926.97" cy="-8533.457" r="58.534" gradientTransform="matrix(1.42237 0 0 1.40739 11345.251 12002.33)" gradientUnits="userSpaceOnUse">
            <stop offset=".132" stop-color="#3fe1b0"/>
            <stop offset=".289" stop-color="#28d0c8"/>
            <stop offset=".526" stop-color="#00b3f4"/>
        </radialGradient>
        <radialGradient id="g" cx="-7945.648" cy="-8460.984" r="38.471" gradientTransform="matrix(1.42237 0 0 1.40739 11345.251 12002.33)" gradientUnits="userSpaceOnUse">
            <stop offset=".287" stop-color="#0060df"/>
            <stop offset=".417" stop-color="#2357e1"/>
            <stop offset=".604" stop-color="#4f4ce3"/>
            <stop offset=".748" stop-color="#6b45e4"/>
            <stop offset=".833" stop-color="#7542e5"/>
        </radialGradient>
        <radialGradient id="h" cx="-7943.645" cy="-8466.522" r=".626" gradientTransform="matrix(1.42237 0 0 1.40739 11345.251 12002.33)" gradientUnits="userSpaceOnUse">
            <stop offset=".353" stop-color="#3a8ee6"/>
            <stop offset=".472" stop-color="#5c79f0"/>
            <stop offset=".669" stop-color="#9059ff"/>
            <stop offset="1" stop-color="#c139e6"/>
        </radialGradient>
        <radialGradient id="i" cx="-7943.48" cy="-8466.749" r=".224" gradientTransform="matrix(1.38254 -.33074 .39115 1.6016 14345.383 11023.513)" gradientUnits="userSpaceOnUse">
            <stop offset=".206" stop-color="#9059ff" stop-opacity="0"/>
            <stop offset=".278" stop-color="#8c4ff3" stop-opacity=".064"/>
            <stop offset=".747" stop-color="#7716a8" stop-opacity=".45"/>
            <stop offset=".975" stop-color="#6e008b" stop-opacity=".6"/>
        </radialGradient>
        <radialGradient id="l" cx="-7937.731" cy="-8518.427" r="27.676" gradientTransform="matrix(1.42237 0 0 1.40739 11345.251 12002.33)" gradientUnits="userSpaceOnUse">
            <stop offset="0" stop-color="#0df"/>
            <stop offset=".235" stop-color="#00d6fd"/>
            <stop offset=".572" stop-color="#00c3f8"/>
            <stop offset=".792" stop-color="#00b3f4"/>
        </radialGradient>
        <radialGradient id="j" cx="-7915.977" cy="-8535.981" r="118.081" gradientTransform="matrix(1.42237 0 0 1.40739 11345.251 12002.33)" gradientUnits="userSpaceOnUse">
            <stop offset=".126" stop-color="#3fe1b0"/>
            <stop offset=".429" stop-color="#0df"/>
            <stop offset=".479" stop-color="#1ec1ff"/>
            <stop offset=".624" stop-color="#7077ff"/>
            <stop offset=".69" stop-color="#9059ff"/>
            <stop offset=".904" stop-color="#b833e1"/>
        </radialGradient>
        <radialGradient id="p" cx="-7927.165" cy="-8522.859" r="86.499" gradientTransform="matrix(.14935 1.40035 -.9288 .09711 -6660.51 11926.599)" gradientUnits="userSpaceOnUse">
            <stop offset="0" stop-color="#54ffbd"/>
            <stop offset=".095" stop-color="#4cf3b8"/>
            <stop offset=".197" stop-color="#3fe1b0"/>
            <stop offset=".257" stop-color="#33d8bd"/>
            <stop offset=".369" stop-color="#12c0e1"/>
            <stop offset=".423" stop-color="#00b3f4"/>
            <stop offset=".737" stop-color="#0060df"/>
        </radialGradient>
        <radialGradient id="q" cx="-7938.383" cy="-8508.176" r="73.72" gradientTransform="matrix(1.42237 0 0 1.40739 11345.251 12002.33)" gradientUnits="userSpaceOnUse">
            <stop offset=".137" stop-color="#3fe1b0"/>
            <stop offset=".435" stop-color="#0df"/>
            <stop offset=".484" stop-color="#1ec1ff"/>
            <stop offset=".622" stop-color="#7077ff"/>
            <stop offset=".685" stop-color="#9059ff"/>
        </radialGradient>
        <radialGradient id="r" cx="-7918.923" cy="-8503.861" r="80.686" gradientTransform="matrix(1.42237 0 0 1.40739 11345.251 12002.33)" gradientUnits="userSpaceOnUse">
            <stop offset=".094" stop-color="#54ffbd"/>
            <stop offset=".242" stop-color="#41f7cc"/>
            <stop offset=".543" stop-color="#0fe3f3"/>
            <stop offset=".626" stop-color="#0df"/>
        </radialGradient>
        <linearGradient id="a">
            <stop offset="0" style="stop-color:#4b2b92;stop-opacity:1"/>
            <stop offset=".499" style="stop-color:#46278c;stop-opacity:1"/>
            <stop offset=".826" style="stop-color:#5f39ac;stop-opacity:1"/>
            <stop offset=".92" style="stop-color:#6e42cc;stop-opacity:1"/>
            <stop offset="1" style="stop-color:#1064af;stop-opacity:1"/>
        </linearGradient>
        <linearGradient id="d" x1="74.803" x2="7.742" y1="20.543" y2="62.786" gradientTransform="matrix(1.42237 0 0 1.40739 1.867 5.755)" gradientUnits="userSpaceOnUse">
            <stop offset="0" stop-color="#3fe1b0"/>
            <stop offset=".406" stop-color="#00b3f4"/>
            <stop offset=".421" stop-color="#03b0f4"/>
            <stop offset=".818" stop-color="#5561e9"/>
            <stop offset="1" stop-color="#7542e5"/>
        </linearGradient>
        <linearGradient xlink:href="#a" id="c" x1="137.49" x2="248.188" y1="79.429" y2="79.429" gradientTransform="matrix(.99476 0 0 .98428 -133.052 -.235)" gradientUnits="userSpaceOnUse"/>
        <linearGradient xlink:href="#b" id="k" x1="137.727" x2="241.502" y1="71.037" y2="71.037" gradientTransform="matrix(.99476 0 0 .98428 -133.052 -.235)" gradientUnits="userSpaceOnUse"/>
    </defs>
    <path d="M98.788 29.71v3.937a57.273 56.67 0 0 1 5.584 16.556v.052l.01.058a49.925 49.4 0 0 1-1.716 36.814c-6.318 13.414-21.61 27.164-45.549 26.495-25.865-.725-48.646-19.716-52.904-44.59-.776-3.923 0-5.912.39-9.1a41.072 40.64 0 0 0-.886 7.527v.283a55.13 54.549 0 0 0 109.456 9.223c.093-.703.169-1.4.251-2.11a56.691 56.094 0 0 0-3.577-27.4c-1.498-3.568-3.96-7.314-6.526-10.095l.917-.262z" style="fill:url(#c);fill-opacity:1;stroke-width:1.41485" transform="translate(5.225)"/>
    <path fill="url(#d)" d="M109.848 43.517c-2.396-5.703-7.254-11.86-11.06-13.807a57.273 56.67 0 0 1 5.584 16.557l.01.091c-6.233-15.375-16.803-21.575-25.435-35.075a66 66 0 0 1-1.299-2.088 17 17 0 0 1-.607-1.126 10.032 9.926 0 0 1-.822-2.16.142.14 0 0 0-.126-.141.196.194 0 0 0-.103 0c-.007 0-.019.013-.027.015-.01.003-.027.016-.04.021l.021-.036C62.097 13.79 57.4 28.64 56.967 36.068a27.575 27.285 0 0 0-15.171 5.787 16.481 16.307 0 0 0-1.422-1.067 25.557 25.288 0 0 1-.156-13.332A40.83 40.4 0 0 0 26.95 37.603h-.025c-2.185-2.74-2.032-11.776-1.906-13.663a9.854 9.75 0 0 0-1.84.967 40.146 39.724 0 0 0-5.389 4.567 48.14 47.633 0 0 0-5.153 6.118v.008-.01A46.558 46.068 0 0 0 5.24 52.117l-.074.36c-.104.48-.478 2.884-.542 3.407 0 .04-.01.078-.013.12a52.538 51.985 0 0 0-.895 7.519v.281a55.13 54.549 0 0 0 109.457 9.224c.093-.703.168-1.4.25-2.11a56.691 56.094 0 0 0-3.575-27.401M46.31 86.214c.257.123.499.255.763.372l.039.024q-.401-.19-.802-.396m58.075-39.843v-.052l.01.058z" style="fill:url(#d);stroke-width:1.41485" transform="translate(5.225)"/>
    <path fill="url(#e)" d="M109.848 43.517c-2.396-5.703-7.254-11.86-11.06-13.807a57.273 56.67 0 0 1 5.584 16.557v.052l.01.058a49.925 49.4 0 0 1-1.716 36.814c-6.318 13.414-21.611 27.163-45.55 26.494C31.25 108.96 8.471 89.97 4.213 65.095c-.776-3.923 0-5.911.39-9.099a41.072 40.64 0 0 0-.887 7.527v.281a55.13 54.549 0 0 0 109.457 9.224c.093-.703.168-1.4.25-2.11a56.691 56.094 0 0 0-3.575-27.401" style="fill:url(#e);stroke-width:1.41485" transform="translate(5.225)"/>
    <path fill="url(#f)" d="M83.059 49.929c.12.083.23.166.343.249a30.012 29.696 0 0 0-5.12-6.608C61.146 26.614 73.79 6.805 75.921 5.8l.022-.031C62.097 13.79 57.4 28.64 56.967 36.068c.643-.043 1.28-.096 1.937-.096A27.822 27.529 0 0 1 83.06 49.929" style="fill:url(#f);stroke-width:1.41485" transform="translate(5.225)"/>
    <path fill="url(#g)" d="M58.94 53.315c-.091 1.357-4.936 6.036-6.63 6.036-15.676 0-18.22 9.383-18.22 9.383.694 7.901 6.258 14.41 12.984 17.852.308.157.62.3.93.439q.81.354 1.62.656a24.515 24.256 0 0 0 7.172 1.369c27.476 1.275 32.799-32.51 12.97-42.314a19.031 18.83 0 0 1 13.293 3.193 27.822 27.529 0 0 0-24.155-13.957c-.654 0-1.294.053-1.937.097a27.575 27.285 0 0 0-15.171 5.786c.84.703 1.79 1.644 3.788 3.593 3.74 3.646 13.334 7.424 13.356 7.867" style="fill:url(#g);stroke-width:1.41485" transform="translate(5.225)"/>
    <path fill="url(#h)" d="M46.31 86.214q.402.204.803.396l-.039-.024c-.26-.117-.506-.25-.763-.372" style="fill:url(#h);stroke-width:1.41485" transform="translate(5.225)"/>
    <path fill="url(#i)" d="M46.31 86.214q.402.204.803.396l-.039-.024c-.26-.117-.506-.25-.763-.372" style="fill:url(#i);stroke-width:1.41485" transform="translate(5.225)"/>
    <path fill="url(#j)" d="M4.22 67.948c4.254 24.875 27.038 43.866 52.903 44.59 23.939.67 39.232-13.08 45.55-26.493a49.925 49.4 0 0 0 1.716-36.815v-.052c0-.04-.01-.065 0-.052l.01.092c1.955 12.634-4.54 24.874-14.692 33.15l-.031.07c-19.783 15.942-38.714 9.62-42.546 7.039q-.401-.19-.802-.396c-11.534-5.455-16.3-15.852-15.278-24.77a14.157 14.008 0 0 1-13.059-8.127 20.792 20.573 0 0 1 20.268-.805 27.452 27.163 0 0 0 20.698.805c-.022-.444-9.615-4.222-13.356-7.868-1.999-1.949-2.947-2.888-3.788-3.593a16.481 16.307 0 0 0-1.422-1.066c-.328-.221-.696-.46-1.138-.748-4.021-2.587-12.018-2.444-12.282-2.437h-.026c-2.185-2.74-2.031-11.776-1.906-13.663a9.854 9.75 0 0 0-1.84.967 40.146 39.724 0 0 0-5.388 4.567 48.14 47.633 0 0 0-5.175 6.103v.009-.01A46.558 46.068 0 0 0 5.24 54.971c-.027.111-1.986 8.584-1.02 12.977" style="fill:url(#k);stroke-width:1.41485" transform="translate(5.225)"/>
    <path d="M58.94 53.316c-.091 1.356-4.936 6.036-6.63 6.036-15.675 0-18.22 9.382-18.22 9.382.055.62.15 1.229.262 1.832.932-2.146 4.843-8.697 17.958-8.697 1.694 0 6.543-4.68 6.63-6.037z" style="fill:#189591;fill-opacity:1;stroke-width:1.41485" transform="translate(5.225)"/>
    <path fill="url(#l)" d="M39.226 40.04c.446.282.815.527 1.138.748a25.557 25.288 0 0 1-.155-13.332 40.83 40.4 0 0 0-13.27 10.147c.27-.007 8.266-.15 12.287 2.438" style="fill:url(#l);stroke-width:1.41485" transform="translate(5.225)"/>
    <path fill="url(#j)" d="M4.22 65.095c4.254 24.874 27.038 43.865 52.903 44.59 23.939.67 39.232-13.08 45.55-26.494a49.925 49.4 0 0 0 1.716-36.814v-.052c0-.041-.01-.065 0-.053l.01.092c1.955 12.634-4.54 24.874-14.692 33.151l-.031.07c-19.783 15.942-38.714 9.618-42.546 7.037q-.401-.19-.802-.395c-11.534-5.455-16.3-15.853-15.278-24.77a14.157 14.008 0 0 1-13.059-8.128 20.792 20.573 0 0 1 20.268-.805 27.452 27.163 0 0 0 20.698.805c-.022-.443-9.615-4.222-13.356-7.867-1.999-1.95-2.947-2.888-3.788-3.593a16.481 16.307 0 0 0-1.422-1.067c-.328-.221-.696-.46-1.138-.747-4.021-2.587-12.018-2.445-12.282-2.438h-.026c-2.185-2.74-2.031-11.776-1.906-13.663a9.854 9.75 0 0 0-1.84.967 40.146 39.724 0 0 0-5.388 4.567 48.14 47.633 0 0 0-5.175 6.104v.008-.01A46.558 46.068 0 0 0 5.24 52.117c-.027.112-1.986 8.584-1.02 12.978" style="fill:url(#j);stroke-width:1.41485" transform="translate(5.225)"/>
    <path d="m69.767 46.735-.006 2.619c7.564 3.742 11.457 10.973 11.867 18.415.455-8.32-3.41-16.855-11.86-21.034Z" style="fill:#189591;fill-opacity:1;stroke-width:1.41485" transform="translate(5.225)"/>
    <path fill="url(#p)" d="M78.284 43.57a30.012 29.696 0 0 1 5.12 6.615c.303.227.586.452.827.67 12.498 11.4 5.95 27.514 5.462 28.661C99.846 71.24 106.334 59 104.384 46.366 98.15 30.982 87.58 24.782 78.947 11.282a66 66 0 0 1-1.299-2.088 17 17 0 0 1-.607-1.126 10.032 9.926 0 0 1-.822-2.16.142.14 0 0 0-.126-.141.196.194 0 0 0-.103 0c-.007 0-.019.013-.027.015-.01.003-.027.016-.04.021-2.132 1.001-14.776 20.81 2.36 37.766" style="fill:url(#p);stroke-width:1.41485" transform="translate(5.225)"/>
    <path fill="url(#q)" d="M84.222 50.848a12 12 0 0 0-.826-.67c-.112-.083-.223-.166-.343-.25a19.031 18.83 0 0 0-13.292-3.192c19.828 9.809 14.508 43.59-12.97 42.314a24.515 24.256 0 0 1-7.173-1.37q-.81-.3-1.62-.655c-.31-.14-.622-.282-.93-.44l.039.025c3.832 2.588 22.758 8.911 42.546-7.037l.031-.07c.494-1.14 7.042-17.26-5.462-28.655" style="fill:url(#q);stroke-width:1.41485" transform="translate(5.225)"/>
    <path fill="url(#r)" d="M34.09 68.734s2.544-9.383 18.22-9.383c1.694 0 6.543-4.68 6.63-6.036a27.452 27.163 0 0 1-20.699-.805 20.792 20.573 0 0 0-20.267.805 14.157 14.008 0 0 0 13.059 8.128c-1.021 8.918 3.744 19.316 15.278 24.77.257.122.499.254.763.371-6.732-3.44-12.29-9.949-12.984-17.85" style="fill:url(#r);stroke-width:1.41485" transform="translate(5.225)"/>
    <path fill="#ff4aa2" d="m72.215 59.882-.001.001z" style="stroke-width:1.41485" transform="translate(5.225)"/>
    <path d="M58.94 55.832c-.091 1.357-4.936 6.037-6.63 6.037-13.115 0-17.026 6.55-17.958 8.695.075.399.168.792.267 1.182l-.01.02c.142.558.314 1.105.503 1.645 1.749-2.758 6.275-7.292 17.198-7.292 1.694 0 6.543-4.68 6.63-6.036v-2.517z" style="fill:#000;fill-opacity:.205314;stroke-width:1.41485" transform="translate(5.225)"/>
    <path d="m69.767 49.365-.006 2.619.004.002-.004 1.309c6.9 3.414 10.744 9.733 11.677 16.465.056-.405.112-.81.148-1.217l-.006-.082q.028-.326.046-.654c-.398-7.452-4.285-14.697-11.859-18.442" style="fill:#000;fill-opacity:.187009;stroke-width:1.41485" transform="translate(5.225)"/>
    <path d="M98.788 29.71v3.937a57.273 56.67 0 0 1 3.457 8.117 53 53 0 0 1 2.133 4.589l-.006-.035v-.052a57.273 56.67 0 0 0-5.584-16.556m5.6 16.683c.039.256.07.51.102.765-.029-.23-.042-.46-.077-.69a49.925 49.4 0 0 0-.026-.075m.314 3.376q.017.423.022.846h.006c-.003-.282-.017-.564-.028-.846" style="fill:#238068;fill-opacity:1;stroke-width:2.47376;stroke-linecap:round" transform="translate(5.225)"/>
</svg>
