<svg xmlns="http://www.w3.org/2000/svg" xmlns:xlink="http://www.w3.org/1999/xlink" xml:space="preserve" width="128" height="128" viewBox="0 0 128 128">
    <defs>
        <linearGradient id="b">
            <stop offset="0" style="stop-color:#b2d2ff;stop-opacity:1"/>
            <stop offset="1" style="stop-color:#ebf3ff;stop-opacity:1"/>
        </linearGradient>
        <linearGradient id="a">
            <stop offset="0" style="stop-color:#5d84b9;stop-opacity:1"/>
            <stop offset=".3" style="stop-color:#6091db;stop-opacity:1"/>
            <stop offset=".5" style="stop-color:#88b0e9;stop-opacity:1"/>
            <stop offset=".7" style="stop-color:#5d84b9;stop-opacity:1"/>
            <stop offset="1" style="stop-color:#5d84b9;stop-opacity:1"/>
        </linearGradient>
        <linearGradient xlink:href="#a" id="c" x1="9" x2="119" y1="70" y2="70" gradientTransform="translate(0 -2)" gradientUnits="userSpaceOnUse"/>
        <linearGradient xlink:href="#b" id="d" x1="64" x2="64" y1="115" y2="5" gradientTransform="translate(-.177)" gradientUnits="userSpaceOnUse"/>
        <filter id="f" width="1.148" height="1.293" x="-.074" y="-.112" style="color-interpolation-filters:sRGB">
            <feFlood flood-color="#000" flood-opacity=".306" result="flood"/>
            <feGaussianBlur in="SourceGraphic" result="blur" stdDeviation="1.5"/>
            <feOffset dy="5" in="blur" result="offset"/>
            <feComposite in="flood" in2="offset" operator="in" result="comp1"/>
            <feComposite in="SourceGraphic" in2="comp1" result="comp2"/>
        </filter>
        <filter id="e" width="1.023" height="1.024" x="-.011" y="-.011" style="color-interpolation-filters:sRGB">
            <feFlood flood-color="#000" flood-opacity=".298" result="flood"/>
            <feGaussianBlur in="SourceGraphic" result="blur" stdDeviation=".5"/>
            <feOffset dy=".1" in="blur" result="offset"/>
            <feComposite in="flood" in2="offset" operator="in" result="comp1"/>
            <feComposite in="SourceGraphic" in2="comp1" result="comp2"/>
        </filter>
    </defs>
    <path d="M64 5A55 55 0 0 0 9 60v8a55 55 0 0 0 55 55 55 55 0 0 0 55-55v-8A55 55 0 0 0 64 5" style="fill:url(#c);fill-opacity:1"/>
    <circle cx="63.823" cy="60" r="55" style="fill:url(#d);fill-opacity:1"/>
    <circle cx="64" cy="60" r="53.088" style="fill:#9dc4ff;fill-opacity:1;stroke-width:.965231"/>
    <path d="M63.898 6.918c-6.708 0-13.093 1.277-18.993 3.52-.43.393-.987.695-1.429.658-.059-.006-.12-.045-.18-.068-2.909 1.215-5.668 2.703-8.284 4.391.34.55.44 1.164-.26 1.462-.118.051-1.51.24-2.027.228-7.44 5.396-13.299 12.594-17.113 21.065.062-.008.35-.034.412-.038.579-.009.982.172 1.538.289.513.105.927.449 1.371.482 1.26.096 1.563-.883 2.592-1.43 1.062.15 1.767-.18 2.726-.073.654.072 1.127.77 1.636.808.43.044.806-.4 1.221-.337.403.062 1.098.94 1.163 1.431.082.612-.45 1.163-.276 1.835.642.653 1.81.785 2.727 1.161.598-.491.079-1.403 0-2.115 0-.313.042-.592 0-.88-.056-.49-.265-.94-.27-1.359 0-1.937 1.565-2.843 2.867-3.608.563-.333 1.007-.917 1.495-1.161.691-.346 1.205-.426 1.777-.747 1.033-.579 1.919-1.044 2.726-1.7.374-.878.037-2.056.068-2.924.374-.228.694.099 1.09.068.624-.13.676-1.008 1.029-1.358.206-.201.768-.345 1.023-.545.621-.486.824-1.22 1.366-1.43.195-.08.644-.058.95-.14.404-.107.98-.584 1.637-.81.428-.149 1.41-.178 1.574-.341.2-.206 0-.782.067-1.089.33-1.536 2.65-1.862 4.02-2.38.96-.363 1.947-1.028 3.002-.824-.206.73-1.19.472-1.023 1.359.231 1.23 1.881-.353 2.316-.534.833-.35 2.259-.564 3.35-.96.958-.35 2.674-.882 1.772-1.974-.753-.044-1.116.88-1.771 1.16-.453.073-.367-.378-.753-.414-.368-.043-.574.338-.95.275-.376-.062-.903-.651-.962-1.089-.15-1.136.962-1.605 1.434-2.452-.312-1.028-1.736-.21-2.597-.612.081-.611.717-1.033 1.433-1.15.587-.1 1.905-.049 2.254.264.203.172 0 .6.343.886.347.313.775.281 1.226.208.163-.776-1.01-.581-.883-1.094.921-.602 2.42-.108 3.547-.275.65-.095 1.331-.553 1.906-.876.547-.311 1.259-.851 1.84-.342.157.556-.507.74-.816 1.016-1.044.926-2.119 1.988-2.93 3.064.498.484 1.402.241 2.244.342.33.043.743.14 1.09.202.407.072.84.052 1.159.135.573.14.726.751 1.293.751.933-.001.944-1.009.416-1.638.166-.642.428-.975.202-1.425-.42-.84-1.961-.044-2.04-1.089-.052-.679.568-.648.815-1.156-.113-1.311 1.077-1.406.95-2.582-.056-.491-.47-.498-.815-.959-.172-.226-.262-.66-.462-.855a54 54 0 0 0-4.83-.228Zm-27.444 10.71c.318.045.701.385 1.086.414.364.009.664-.2.888-.14.57.15.81 1.01.276 1.43-.446.057-.62-.192-.955-.134-.927.157-1.282 1.968-1.974 1.908-.653-.056-1.006-1.643-.343-2.115.042-.413-.302-.479-.282-.887.197-.25.756-.52 1.299-.477zm-3.07.212c.19.005.333.052.406.135-.09.725-.66.678-1.22 1.016-.97.584-1.53 1.474-1.84 2.721-.09.364-1.044 1.325-1.506 1.229-1.08-.228.299-2.217.546-2.52.273-.335.64-.629.96-1.016.313-.374.516-.88.816-1.088.33-.228 1.27-.499 1.839-.477zm8.072 2.447c.346.005.658.062.8.202-.223.899-2.163.661-2.872.337.045-.34.577-.432 1.023-.477.314-.009.703-.073 1.049-.062m-4.415 1.658c.231-.005.464.045.707.11-.628.523-1.307.82-2.384 1.16-.519.163-1.414.366-1.501-.212-.107-.708.757-.544 1.23-.607.596-.082 1.25-.429 1.948-.45zm67.728 4.033c-.082.193-.141.384-.13.57.042.33.403.645.483 1.09.042.235-.11.744 0 .958.328.636 1.187.179 1.802.213-.698-.96-1.395-1.921-2.155-2.83zm3.485 4.682c-.099.468-.418 1.08-.676 1.472-.594.902-1.402.944-2.254 1.425-.71.403-1.017 1.074-1.433 1.773-.452.756-.732 1.212-.546 2.307-.61 1.206-1.532 1.945-2.794 2.52-.373.167-.883.23-1.226.476-.273.196-.428.722-.815 1.156-.478.531-.98.756-1.231 1.161-.194.314-.262.938-.478 1.359-.29.571-.911.851-1.293 1.43-.175.268-.29.81-.483 1.162-.432.783-1.17 1.348-1.09 2.037.078.666.836.783.887 1.363 0 .328-.217.529-.202.887 0 .522.363.889.405 1.29.101 1.01-.345 1.414-.535 2.105-.09.33-.051.701-.141.96-.166.505-.874.961-.888 1.56 0 .424.436.766.472 1.363 0 .411-.203.85-.13 1.228.147.741 1.47 1.602 2.047 2.178.772.77 1.782 1.366 2.114 2.177.279.689.279 1.585.815 2.104.398.384 1.06.623 1.569 1.022.475.372.993.693 1.5 1.088.831.648 2.086 1.94 3.408 1.84.69-.05 1.398-.612 2.181-.751.806-.144 1.852-.218 2.665-.135.622.062 1.264.434 1.911.405.684-.044 1.467-.548 2.244-.887a15.5 15.5 0 0 1 2.233-.793 54 54 0 0 0 .592-7.942c0-10.869-3.256-20.943-8.829-29.34zM20.29 48.497c-1.133.062-1.875.113-2.519.405-1.475.67-1.19 2.66-2.664 3.13-.51.163-1.21.171-1.771.275-.485.089-1.075.353-1.574.342-.141-.002-.149-.031-.322-.087-.133.835-.282 1.867-.322 2.808 1.403.268 1.94 2.067 3.179 2.68.34.169.783.178 1.22.276.353.078.62.227.961.342.721.244 1.605.215 2.181.471.87.385 1.507 2.016 2.255 2.452.042.44-.085 1.03.067 1.359.353.477.852.372 1.434.684.696.375.909 1.342 1.568 1.638.229.1.799.088 1.158.197.904.273 1.2 1.317 1.974 1.088.508-.15.468-.67.55-1.156.336-.363.703-.938 1.226-.948.848-.044.923.874 1.231 1.695.175.464.63.869.748 1.358.212.846.107 3.377-.073 3.883-.214.62-1.055.883-1.574 1.57-.245.323-.36.795-.545 1.022-.334.405-.83.512-1.08.886-.141.211-.279.664-.416.949-.41.866-.957 1.48-.613 2.52.144.427.814.714.816 1.217.002.593-1.263 1.124-1.361 1.773-.073.484.392 1.346.545 1.975.113.476 1.013.773 1.294 1.089.478.536.86 1.296 1.298 1.97.865 1.325 1.542 2.94 2.384 4.225.445.672 1.07 1.277 1.366 1.975.152.352.13.772.27 1.088.488 1.098 2.64 2.244 3.75 2.79.52.251 1.097.342 1.574.606.723.402 2.154 1.482 2.52 2.115.324.568.527 1.952.685 2.856.211 1.195.002 2.112.067 3.406.043.7.268 1.403.276 2.105.003.245-.15.235-.16.486l.03.263a52.5 52.5 0 0 0 21.965 4.808c1.419 0 2.82-.05 4.21-.158.062-.105.12-.237.193-.335.32-.42.605-.786.816-1.156.2-1.242-.497-2.11-.203-3.198.325-1.222 2.018-1.968 3.204-2.52.409-.189.826-.496 1.159-.611.82-.285 1.846-.131 2.596-.405 1.278-.466 1.412-1.834 2.042-2.996.297-.55.69-1.101.748-1.493.05-.352-.13-.684-.074-1.099.062-.411.431-.766.546-1.218.15-.59.214-1.453.214-2.11 0-.539-.254-1.012-.276-1.498-.087-1.765.639-1.963 1.293-2.924.329-.477.451-1.021.68-1.363 1.1-1.636 3.006-2.426 2.868-4.899-.046-.818-.56-2.668-1.164-2.929-.345-.15-1.137-.008-1.636-.202-1.612-.6-2.558-2.594-4.228-2.722-.356-.043-.684.147-1.085.14-.661-.043-1.658-.462-2.39-.544-.464-.05-1.086.138-1.365 0-.426-.206-.47-.99-.816-1.223-.273-.189-.809-.254-1.225-.415-.672-.257-1.205-.558-1.98-.612-.239-.008-.536.115-.815.073-.429-.072-.767-.579-1.163-.819-.495-.301-.954-.447-1.158-.876.448-1.466-.79-1.875-1.091-2.722-.144-.397-.079-.874-.203-1.228-.177-.507-.68-.8-1.23-1.224-.988-.758-1.863-1.47-3.273-1.643-.62-.078-1.235.185-1.984.14-.794-.05-1.79-.743-2.384-1.42-.577-.661-.858-1.255-1.36-1.571-.477-.306-1.109-.297-1.434-.606-.144-.135-.121-.367-.276-.685-.24-.495-.642-.77-.343-1.363-.543-.279-.558.517-1.153.415-.53-.751-.978-1.107-2.181-.887-.552.101-.86.797-1.501.814-.527.043-.941-.586-1.637-.684-.525-.072-1.122.142-1.495.072-.582-.116-.762-.6-1.294-.948-.39-.256-1.147-.691-1.366-.684-.685.043-1.173 1.453-2.119.953-.46-.58.749-.887.203-1.43-.413-.413-.76.186-1.09.414-.38.261-.735.52-1.154.674-.936.35-1.522.167-2.254.545-.677.35-.706.936-1.09 1.632-.314.57-1.03 1.402-1.501 1.436-.572.044-1.118-.797-1.637-1.02-1.561-.676-2.317.599-3.614.616-1.204.043-2.923-1.94-2.862-3.069 0-.689.397-1.734.478-2.587.073-.678.537-1.086.545-1.705 0-.827-1.099-1.462-1.636-1.56-1.274-.234-3.043.511-4.503-.073-.279-.461.327-.78.483-1.229.087-.255.037-.595.13-.876.16-.433.617-.769.82-1.228.153-.35.192-.856.343-1.291.178-.495.507-.814.546-1.161.05-.459-.124-.989-.484-1.291zm18.23 14.406c.463.044.52.997.048 1.073-.51.08-.768-.798-.276-1.026a.4.4 0 0 1 .229-.042z" style="display:inline;fill:#60dc92;fill-opacity:1;fill-rule:nonzero;stroke:none;stroke-width:.163333;filter:url(#e)">
        <title>qutebrowser-planet-continents</title>
    </path>
    <path d="M74.512 26.107c-3.088 1.84-6.173 3.684-9.263 5.521v19.047l12.48-7.445-.002-19.042zm-19.745-.245c-7.54.163-15.334 1.648-21.663 5.958-5.792 3.905-9.354 10.615-10.014 17.504-.58 4.967-.28 10.054.925 14.91 1.134 4.325 3.625 8.624 7.778 10.636 4.64 2.304 10.162 1.87 14.934.21 3.614-1.26 6.713-3.568 10.018-5.436 7.581-4.522 15.143-9.08 22.786-13.495 2.86-1.586 6.515-2.557 9.608-1.057 2.732 1.435 3.782 4.676 4.045 7.565.568 5.387-.48 11.472-4.376 15.555-2.814 3.04-6.921 4.895-11.079 4.823v-23.21l-12.48 7.369v26.603c6.439.554 13.013.534 19.307-1.093 5.467-1.367 10.786-3.969 14.54-8.267 4.232-4.671 5.94-11.099 6.078-17.283.052-5.218-.394-10.619-2.665-15.393-1.663-3.479-4.66-6.413-8.421-7.488-5.2-1.557-10.886-.49-15.668 1.882-2.73 1.44-5.302 3.157-7.977 4.693-7.295 4.333-14.55 8.736-21.908 12.962-2.856 1.616-6.508 2.589-9.624 1.128-2.787-1.445-3.86-4.747-4.097-7.686-.552-5.324.482-11.142 4.149-15.23 2.836-3.165 7.038-5.131 11.309-5.057v23.21l12.48-7.369V26.221c-2.658-.19-5.317-.41-7.985-.36zm4.767 45.384c-3.087 1.84-6.173 3.685-9.262 5.522v19.046l12.48-7.445-.002-19.042z" style="fill:#3974b9;fill-opacity:1;fill-rule:evenodd;stroke:#cee5fd;stroke-width:5;stroke-dasharray:none;stroke-opacity:1;filter:url(#f);stroke-linejoin:miter;stroke-linecap:square;paint-order:stroke markers fill">
        <title>qutebrowser-letterform-classical</title>
    </path>
</svg>
