<svg xmlns="http://www.w3.org/2000/svg" xmlns:xlink="http://www.w3.org/1999/xlink" width="128" height="128" viewBox="0 0 128 128">
    <defs>
        <linearGradient id="a" x1="146.185" x2="639.585" y1="155.649" y2="615.869" gradientTransform="translate(-134.882 2.341)scale(.15714)" gradientUnits="userSpaceOnUse">
            <stop stop-color="#1b91f3"/>
            <stop offset="1" stop-color="#0b68cb" style="stop-color:#0d78ea;stop-opacity:1"/>
        </linearGradient>
        <linearGradient id="e" x1="283.475" x2="461.015" y1="273.458" y2="75.818" gradientTransform="translate(5.118 2.341)scale(.15714)" gradientUnits="userSpaceOnUse">
            <stop stop-color="#0f5db0"/>
            <stop offset="1" stop-color="#0f5db0" stop-opacity="0"/>
        </linearGradient>
        <linearGradient id="j" x1="82.716" x2="155.445" y1="234.79" y2="527.51" gradientTransform="translate(5.118 2.341)scale(.15714)" gradientUnits="userSpaceOnUse">
            <stop offset=".1" stop-color="#ef3acc"/>
            <stop offset="1" stop-color="#ef3acc" stop-opacity="0"/>
        </linearGradient>
        <linearGradient id="k" x1="374.705" x2="374.705" y1="273.95" y2="569.949" gradientTransform="translate(5.118 2.341)scale(.15714)" gradientUnits="userSpaceOnUse">
            <stop stop-color="#fff"/>
            <stop offset=".91" stop-color="#bee1fe"/>
            <stop offset="1" stop-color="#96cefd"/>
        </linearGradient>
        <linearGradient xlink:href="#a" id="b" x1="146.185" x2="639.585" y1="155.649" y2="615.869" gradientTransform="translate(5.118 2.341)scale(.15714)" gradientUnits="userSpaceOnUse"/>
        <radialGradient id="c" cx="0" cy="0" r="1" gradientTransform="rotate(66.518 -25.429 47.147)scale(46.50741 44.55242)" gradientUnits="userSpaceOnUse">
            <stop offset=".53" stop-color="#0b4186" stop-opacity="0"/>
            <stop offset="1" stop-color="#0b4186" stop-opacity=".45" style="stop-color:#0b4186;stop-opacity:.58435237"/>
        </radialGradient>
        <radialGradient id="d" cx="0" cy="0" r="1" gradientTransform="rotate(232.003 40.653 .338)scale(9.94233 16.45234)" gradientUnits="userSpaceOnUse">
            <stop stop-color="#ef3acc" stop-opacity="0"/>
            <stop offset="1" stop-color="#ef3acc" stop-opacity=".64"/>
        </radialGradient>
        <radialGradient id="f" cx="0" cy="0" r="1" gradientTransform="rotate(-64.262 92.442 10.038)scale(72.55446 89.62609)" gradientUnits="userSpaceOnUse">
            <stop offset=".02" stop-color="#094188"/>
            <stop offset=".97" stop-color="#0b4186" stop-opacity="0"/>
        </radialGradient>
        <filter id="m" width="1.07" height="1.196" x="-.035" y="-.069" style="color-interpolation-filters:sRGB">
            <feFlood flood-color="#000" flood-opacity=".204" result="flood"/>
            <feGaussianBlur in="SourceGraphic" result="blur" stdDeviation=".7"/>
            <feOffset dy="1.4" in="blur" result="offset"/>
            <feComposite in="flood" in2="offset" operator="in" result="comp1"/>
            <feComposite in="SourceGraphic" in2="comp1" result="comp2"/>
        </filter>
        <mask id="l" maskUnits="userSpaceOnUse">
            <path fill="#fff" d="M57.042 59.379c0 12.19-12.11 22.07-27.049 22.07-.72 0-1.932-.185-2.374.534-.442.717.531 1.823 1.092 2.457 5.84 6.606 14.31 7.437 16.534 7.655l.35.035C25.973 94.028 2.952 81.492 2.946 59.7a19.17 19.17 0 0 1 2.912-10.264l21.069 19.137c1.5 1.36 4.024 1.36 5.524 0l21.468-19.5c1.996 3.077 3.124 6.585 3.124 10.306" style="stroke-width:.157141" transform="translate(183.836 -14.9)scale(6.36372)"/>
        </mask>
    </defs>
    <path d="M88.53 14.02c-15.38 0-30.47 5.907-33.934 18.015h-.026c-7.27 2.986-9.172 9.014-8.818 13.473-.105 1.402.017 2.724.295 3.857-.345 1.306-1.324 3.077-4.145 2.703.004-.43-.01-.863-.021-1.297.277-10.866-3.965-23.293-11.666-25.814-.567-.185-1.127.24-1.197.832-1.053 8.82-3.337 11.877-5.797 15.176-3.69 4.947-6.372 10.666-6.254 16.945a50.4 50.4 0 0 1-3.233-8.756c-.108-.41-.783-1.67-1.525-1.248-.592.338-1.039 1.261-1.36 2.223A55.8 55.8 0 0 0 9 64.329c0 .37.022.736.03 1.105-.006.297-.03.598-.03.894 0 29.959 25.093 55 55 55 30.375 0 54.998-24.625 54.998-55 0-.398-.011-.794-.02-1.191.005-.27.02-.538.02-.809a54.74 54.74 0 0 0-8.377-29.183c2.136.027 4.267.213 6.373.576v-7.346l-8.213-2.768a38.4 38.4 0 0 1 6.457-.882v-7.346l-12.677-3.08 2.197 2.533-.453-.11c-4.763-1.709-10.1-2.702-15.776-2.702" style="fill:#083873;fill-opacity:1;stroke-width:.157141"/>
    <path fill="url(#a)" d="M54.587 26.69h.009C58.059 14.583 73.15 8.673 88.53 8.673c10.627 0 20.167 3.364 26.707 8.705-3.903.184-7.756.95-11.433 2.272 5.284 1.965 9.824 4.986 13.188 8.725a40.7 40.7 0 0 0-7.687-.582A54.75 54.75 0 0 1 119 58.983c0 30.375-24.624 55-55 55-29.907 0-54.999-25.041-54.999-55 0-4.732.629-9.617 1.85-14.2.32-.961.766-1.884 1.359-2.221.742-.423 1.417.837 1.526 1.247a50.4 50.4 0 0 0 3.232 8.756c-.118-6.28 2.565-12 6.254-16.946 2.461-3.298 4.743-6.355 5.796-15.175.07-.592.631-1.018 1.199-.833 8.007 2.621 12.288 15.956 11.623 27.107 4.424.633 4.403-3.988 4.403-3.988-1.414-4.347-.471-12.425 8.329-16.04z" style="fill:url(#b);stroke-width:.157141"/>
    <path fill="url(#c)" d="M117.2 44.977c1.336 30.25-23.531 56.33-53.855 56.33-28.387 0-51.649-21.941-53.753-49.79a58 58 0 0 0-.59 7.873C9.217 89.187 34.248 113.982 64 113.982c30.375 0 54.999-24.624 54.999-55 0-4.839-.627-9.533-1.8-14.005" opacity=".9" style="fill:url(#c);stroke-width:.157141"/>
    <path fill="url(#d)" d="M62.659 30.699c-.593-1.048-3.328-2.6-4.524-2.87 4.525-14.495 27.581-18.945 41.693-16.38 5.872 1.068 13.185 4.268 15.41 5.93-6.54-5.341-16.082-8.705-26.707-8.705-15.38 0-30.472 5.91-33.935 18.017h-.025c-8.8 3.615-9.743 11.696-8.329 16.041C47.6 37.547 54.06 31.177 62.66 30.7" style="mix-blend-mode:screen;fill:url(#d);stroke-width:.157141"/>
    <path fill="url(#e)" d="M78.642 20.687c-12.355 2.431-16.392 3.226-20.526 7.157 4.643-12.294 16.497-14.786 30.62-9.182q-5.042 1.04-10.094 2.027z" style="fill:url(#e);stroke-width:.157141"/>
    <path fill="url(#f)" d="M11.986 43.1c-3.376 13.82-.767 30.062 14.566 43.692C21.988 81.8 16.414 63.367 28.713 50.2c.828-.888 2.254-.236 2.3.977 1.013 27.368 23.096 44.083 48.556 40.957-7.889-.443-33.977-9.58-14.57-13.195 10.143-1.89 26.047-4.852 26.047-19.124 0-23.134-17.887-29.897-28.735-28.892-7.423.689-14.03 5.4-16.064 11.806.78 2.526-2.332 4.293-4.408 3.996.666-11.149-3.614-24.492-11.624-27.113-.565-.185-1.128.24-1.199.833-1.052 8.82-3.334 11.877-5.793 15.175-3.691 4.949-6.374 10.667-6.256 16.946a50.4 50.4 0 0 1-3.232-8.756c-.09-.339-.582-1.287-1.176-1.33-.322-.024-.493.29-.573.622" style="fill:url(#f);stroke-width:.157141"/>
    <path d="M107.375 18.578c-1.204.308-2.398.65-3.57 1.072a35.6 35.6 0 0 1 7.855 4.08 39 39 0 0 1 3.578-.351c-2.28-1.863-4.934-3.478-7.863-4.8m2.41 9.943a55 55 0 0 1 3.166 5.368 41 41 0 0 1 4.041.486c-2.01-2.234-4.449-4.204-7.207-5.854M64.42 30.826q-1.091 0-2.11.096c-7.423.688-14.03 5.4-16.064 11.807.295.954.022 1.79-.531 2.457.004 1.313.198 2.532.527 3.544 0 0 .005 1.784-1.05 2.983.89-.72 1.433-1.76 1.054-2.984 2.033-6.407 8.641-11.119 16.065-11.807 10.257-.951 26.803 5.055 28.572 25.273.104-.758.164-1.548.164-2.38 0-21.689-15.724-28.99-26.627-28.989M46.072 42.113a13.3 13.3 0 0 0-.363 2.801c.526-1.063.533-2.184.533-2.184-.063-.195-.116-.407-.17-.617m71.059 8.649c-1.826 27.714-25.415 50.545-53.785 50.545a53.66 53.66 0 0 1-33.01-11.293c-5.332-4.661-7.474-10.096-8.338-13.662a34 34 0 0 1-.594-3.844s-.485 18.325 16.006 28.127c.254.14.5.292.756.427.2.108.405.217.592.319a54 54 0 0 0 5.564 2.465l.258.097a53.8 53.8 0 0 0 18.766 3.364c30.315 0 55.177-26.068 53.853-56.307-.02-.08-.047-.158-.068-.238M60.895 86.016c-2.987 1.127-3.459 2.523-2.41 3.964 6.44 2.267 13.614 3.07 21.083 2.153-4.272-.24-13.843-3.035-18.673-6.117" style="fill:#094283;fill-opacity:1;stroke-width:.157141"/>
    <path d="M64 45.309c-12.744 0-27.055 8.29-27.049 22.392.006 21.79 23.027 34.328 42.65 32.43v-4l-7.251.06-6.162-3.548-1.493 1.726a20 20 0 0 1-1.978-1.93c-.561-.633-1.534-1.738-1.092-2.457.44-.718 1.653-.535 2.373-.535l.002.002c14.938 0 27.049-9.88 27.049-22.07S78.938 45.309 64 45.309" style="fill:#09468c;fill-opacity:1;stroke-width:.157141"/>
    <path d="M64 41.309c-12.744 0-27.055 8.29-27.049 22.392.006 21.79 23.027 34.328 42.65 32.43v-4l-7.251.06-6.162-3.548-1.493 1.726a20 20 0 0 1-1.978-1.93c-.561-.633-1.534-1.738-1.092-2.457.44-.718 1.653-.535 2.373-.535l.002.002c14.938 0 27.049-9.88 27.049-22.07S78.938 41.309 64 41.309" style="fill:#70addd;fill-opacity:1;stroke-width:.157141"/>
    <path fill="url(#j)" d="M28.713 50.199a1.24 1.24 0 0 1 1.097-.403C18.8 63.224 27.681 86.806 33.775 92.6c.341.965-5.781-4.053-6.625-5.226-4.636-3.934-11.28-23.424 1.563-37.175" style="mix-blend-mode:screen;fill:url(#j);stroke-width:.157141"/>
    <path fill="url(#k)" d="M64 81.45c14.937 0 27.048-9.882 27.048-22.071s-12.11-22.07-27.049-22.07c-12.744 0-27.055 8.29-27.048 22.392.006 21.79 23.027 34.327 42.65 32.43-1.473-.172-10.67-.66-16.884-7.691-.561-.634-1.534-1.74-1.092-2.458.44-.718 1.653-.534 2.373-.534z" style="fill:url(#k);stroke-width:.157141"/>
    <path d="M162.706 200.981v394.463h435.07V200.981Z" mask="url(#l)" style="fill:#97d2fd;fill-opacity:1" transform="translate(5.119 2.341)scale(.15714)"/>
    <path fill="#fff" d="M88.102 49.35 66.724 69.807c-1.897 1.348-3.916 1.445-5.908.223L39.848 49.426a22 22 0 0 1 2.012-2.731l2.2 2.058c5.506 5.16 9.958 9.33 16.232 14.685 2.832 2.417 3.712 2.37 6.49 0 7.178-6.129 12.429-10.764 19.253-16.86q1.142 1.305 2.065 2.774z" opacity=".6" style="fill:#fff;fill-opacity:1;stroke-width:.157141;filter:url(#m);opacity:1"/>
    <path fill="#fff" d="M67.794 28.267c2.895-.911 2.64-3.776 2.64-3.776s-1.447-1.705-4.315-.76c-2.684.884-3.1 2.797-3.1 2.797s1.466 2.781 4.775 1.74" style="stroke-width:.157141;fill:#0d5bb2;fill-opacity:1"/>
    <path fill="#fff" d="M67.794 26.267c2.895-.911 2.64-3.776 2.64-3.776s-1.447-1.705-4.315-.76c-2.684.884-3.1 2.797-3.1 2.797s1.466 2.781 4.775 1.74" style="stroke-width:.157141"/>
</svg>
