<svg xmlns="http://www.w3.org/2000/svg" xmlns:xlink="http://www.w3.org/1999/xlink" xml:space="preserve" width="128" height="128" viewBox="0 0 128 128">
    <defs>
        <linearGradient id="d">
            <stop offset="0" style="stop-color:#51a0da;stop-opacity:1"/>
            <stop offset="1" style="stop-color:#fff;stop-opacity:1"/>
        </linearGradient>
        <linearGradient id="b">
            <stop offset="0" style="stop-color:#eaf5fd;stop-opacity:1"/>
            <stop offset="1" style="stop-color:#fff;stop-opacity:1"/>
        </linearGradient>
        <linearGradient id="a">
            <stop offset="0" style="stop-color:#55a2db;stop-opacity:1"/>
            <stop offset=".05" style="stop-color:#74c3fd;stop-opacity:1"/>
            <stop offset=".1" style="stop-color:#55a2db;stop-opacity:1"/>
            <stop offset=".9" style="stop-color:#55a2db;stop-opacity:1"/>
            <stop offset=".95" style="stop-color:#74c3fd;stop-opacity:1"/>
            <stop offset="1" style="stop-color:#55a2db;stop-opacity:1"/>
        </linearGradient>
        <linearGradient xlink:href="#a" id="f" x1="11.5" x2="116.5" y1="120.5" y2="120.5" gradientUnits="userSpaceOnUse"/>
        <linearGradient xlink:href="#b" id="j" x1="64" x2="64" y1="112.5" y2="7.5" gradientUnits="userSpaceOnUse"/>
        <linearGradient id="e">
            <stop offset="0" style="stop-color:#51a0da;stop-opacity:1"/>
            <stop offset="1" style="stop-color:#d4e7f5;stop-opacity:1"/>
        </linearGradient>
        <linearGradient id="c">
            <stop offset="0" style="stop-color:#2f5c7e;stop-opacity:1"/>
            <stop offset=".154" style="stop-color:#417fae;stop-opacity:1"/>
            <stop offset=".249" style="stop-color:#2f5c7e;stop-opacity:1"/>
            <stop offset=".75" style="stop-color:#2f5c7e;stop-opacity:1"/>
            <stop offset=".854" style="stop-color:#417fae;stop-opacity:1"/>
            <stop offset="1" style="stop-color:#2f5c7e;stop-opacity:1"/>
        </linearGradient>
        <linearGradient xlink:href="#c" id="k" x1="11.5" x2="116.5" y1="120.5" y2="120.5" gradientTransform="matrix(.63579 0 0 .67666 23.31 17.386)" gradientUnits="userSpaceOnUse"/>
        <linearGradient xlink:href="#d" id="m" x1="64" x2="64" y1="112.5" y2="7.5" gradientTransform="matrix(.63579 0 0 .67666 23.31 17.386)" gradientUnits="userSpaceOnUse"/>
        <linearGradient xlink:href="#e" id="l" x1="64" x2="64" y1="112.5" y2="7.5" gradientTransform="matrix(.63579 0 0 .67666 23.31 17.386)" gradientUnits="userSpaceOnUse"/>
    </defs>
    <rect width="105" height="105" x="11.5" y="15.5" rx="13" ry="13" style="fill:url(#f);fill-opacity:1"/>
    <rect width="105" height="105" x="11.5" y="7.5" rx="13" ry="13" style="fill:url(#j);fill-opacity:1"/>
    <rect width="100.755" height="100.755" x="13.622" y="9.622" rx="12" ry="12" style="fill:#d4ecfd;fill-opacity:1;stroke-width:.959575"/>
    <rect width="66.758" height="71.049" x="30.621" y="33.874" rx="16.772" ry="16.772" style="fill:#93ccf7;fill-opacity:1;stroke-width:.655906"/>
    <rect width="66.758" height="71.049" x="30.621" y="27.874" rx="16.772" ry="16.772" style="fill:url(#k);fill-opacity:1;stroke-width:.655906"/>
    <rect width="16.048" height="25.967" x="43.187" y="-49.415" rx="6.065" ry="6.065" style="fill:#93ccf7;fill-opacity:1;stroke:none;stroke-width:1.45846;stroke-linecap:round" transform="rotate(90)"/>
    <rect width="16.048" height="25.967" x="37.187" y="-49.415" rx="6.065" ry="6.065" style="fill:#2f5c7e;fill-opacity:1;stroke:none;stroke-width:1.45846;stroke-linecap:round" transform="rotate(90)"/>
    <rect width="16.048" height="25.967" x="43.187" y="-104.551" rx="6.065" ry="6.065" style="fill:#93ccf7;fill-opacity:1;stroke:none;stroke-width:1.45846;stroke-linecap:round" transform="rotate(90)"/>
    <rect width="16.048" height="25.967" x="37.187" y="-104.551" rx="6.065" ry="6.065" style="fill:#2f5c7e;fill-opacity:1;stroke:none;stroke-width:1.45846;stroke-linecap:round" transform="rotate(90)"/>
    <path d="M97.38 76.668 87.061 78.33l-.343 4.902a2.03 2.03 0 0 1-1.875 1.866l-13.223.937a2.03 2.03 0 0 1-2.145-1.712l-.672-4.53H59.2l-.672 4.53a2.03 2.03 0 0 1-2.146 1.712l-13.222-.937a2.03 2.03 0 0 1-1.874-1.866l-.344-4.902-10.321-1.653v.06c0 9.293 7.48 16.773 16.772 16.773h33.214c9.292 0 16.772-7.48 16.772-16.772z" style="fill:url(#l);fill-opacity:1;stroke-width:.655906"/>
    <path d="M47.393 22.462a16.736 16.736 0 0 0-16.772 16.772V73.3l12.414 1.19a2.01 2.01 0 0 1 1.823 1.86l.342 4.859 9.6.68.653-4.402a2.03 2.03 0 0 1 2.001-1.717H70.55a2.03 2.03 0 0 1 2.001 1.717l.654 4.403 9.6-.681.342-4.858a2.01 2.01 0 0 1 1.823-1.862L97.38 73.3V39.234a16.736 16.736 0 0 0-16.773-16.772z" style="fill:url(#m);fill-opacity:1;stroke-width:.655906"/>
    <path d="M47.457 14.892a6.05 6.05 0 0 0-6.066 6.064v4.374a16 16 0 0 0-7.745 7.482h-4.132a6.053 6.053 0 0 0-6.066 6.066v3.916a6.053 6.053 0 0 0 6.066 6.066h2.457v24.57l11.064 1.06a2.01 2.01 0 0 1 1.823 1.862l.342 4.858 9.6.68.653-4.402a2.03 2.03 0 0 1 2.001-1.717H70.55a2.03 2.03 0 0 1 2.001 1.717l.654 4.403 9.6-.681.342-4.858a2.01 2.01 0 0 1 1.823-1.862l11.06-1.06V48.86h2.456a6.053 6.053 0 0 0 6.066-6.066v-3.916a6.053 6.053 0 0 0-6.066-6.066h-4.132a16 16 0 0 0-7.745-7.482v-4.374a6.05 6.05 0 0 0-6.066-6.064h-3.917a6.05 6.05 0 0 0-6.066 6.064v2.941H57.44v-2.94a6.05 6.05 0 0 0-6.066-6.065z" style="fill:#478cbf;fill-opacity:1;stroke:none;stroke-width:1.45846;stroke-linecap:round"/>
    <rect width="14.902" height="15.112" x="40.391" y="45.211" rx="7.451" ry="7.451" style="fill:#d4ecfd;fill-opacity:1;stroke:none;stroke-width:1.76166;stroke-linecap:round"/>
    <rect width="14.902" height="15.112" x="72.707" y="45.211" rx="7.451" ry="7.451" style="fill:#d4ecfd;fill-opacity:1;stroke:none;stroke-width:1.76166;stroke-linecap:round"/>
    <path d="M80.158 45.212a7.434 7.434 0 0 0-7.45 7.45v.21c0 .57.065 1.124.185 1.657a7.43 7.43 0 0 1 7.265-5.794 7.43 7.43 0 0 1 7.265 5.794c.12-.533.186-1.087.186-1.657v-.21a7.434 7.434 0 0 0-7.45-7.45m-32.317 0a7.434 7.434 0 0 0-7.451 7.45v.21c0 .57.066 1.124.186 1.657a7.43 7.43 0 0 1 7.265-5.794 7.43 7.43 0 0 1 7.265 5.794c.12-.533.186-1.087.186-1.657v-.21a7.434 7.434 0 0 0-7.451-7.45" style="fill:#2f5c7e;fill-opacity:1;stroke:none;stroke-width:1.76166;stroke-linecap:round"/>
    <rect width="5.729" height="11.458" x="61.135" y="54.594" rx="2.865" ry="2.865" style="fill:#d4ecfd;fill-opacity:1;stroke:none;stroke-width:1.82307;stroke-linecap:round;stroke-linejoin:round;stroke-dasharray:none;stroke-opacity:1"/>
    <path d="M64 54.595a2.86 2.86 0 0 0-2.864 2.864v2.917A2.86 2.86 0 0 1 64 57.51a2.86 2.86 0 0 1 2.864 2.865v-2.917A2.86 2.86 0 0 0 64 54.595" style="fill:#2f5c7e;fill-opacity:1;stroke:none;stroke-width:1.82307;stroke-linecap:round;stroke-linejoin:round;stroke-dasharray:none;stroke-opacity:1"/>
    <path d="m95.986 76.893-8.924 1.437-.343 4.902a2.03 2.03 0 0 1-1.875 1.866l-13.223.937a2.03 2.03 0 0 1-2.145-1.712l-.672-4.53H59.2l-.672 4.53a2.03 2.03 0 0 1-2.146 1.712l-13.222-.937a2.03 2.03 0 0 1-1.874-1.866l-.344-4.902-8.927-1.43c.451 8.478 7.405 15.174 15.999 15.174h31.972c8.597 0 15.553-6.7 16-15.181" style="fill:#478cbf;fill-opacity:1;stroke:none;stroke-width:1.45846;stroke-linecap:round"/>
    <path d="M30.621 70.385V73.3l1.35.129 11.064 1.06a2.01 2.01 0 0 1 1.822 1.862l.342 4.859 9.6.68.654-4.403a2.03 2.03 0 0 1 2-1.717h13.098a2.03 2.03 0 0 1 2 1.717l.654 4.403 9.6-.68.341-4.86a2.014 2.014 0 0 1 1.822-1.861l11.061-1.06 1.35-.13v-2.915l-1.35.129-11.06 1.06a2.01 2.01 0 0 0-1.823 1.862l-.341 4.857-9.6.682-.654-4.403a2.03 2.03 0 0 0-2-1.718H57.453a2.03 2.03 0 0 0-2 1.718l-.654 4.403-9.6-.682-.342-4.857a2.01 2.01 0 0 0-1.822-1.862l-11.064-1.06z" style="fill:#2f5c7e;fill-opacity:1;stroke-width:1.81665;stroke-linecap:round;stroke-linejoin:round"/>
    <path d="M30.62 73.301v3.376l10.322 1.653.344 4.902c.07.993.875 1.795 1.874 1.866l13.222.937q.075.006.15.006c.993 0 1.85-.738 1.996-1.717l.672-4.531h9.604l.672 4.53a2.03 2.03 0 0 0 2.145 1.712l13.223-.937a2.03 2.03 0 0 0 1.875-1.866l.343-4.902 10.317-1.662v-3.367l-1.35.13-11.06 1.06a2.016 2.016 0 0 0-1.822 1.86l-.342 4.859-9.6.68-.654-4.402a2.03 2.03 0 0 0-2-1.717H57.453a2.03 2.03 0 0 0-2.001 1.717l-.654 4.403-9.6-.681-.341-4.858a2.01 2.01 0 0 0-1.823-1.862L31.97 73.43Zm0 3.437v.067h.002zm66.76 0-.003.067h.002z" style="fill:#d4ecfd;fill-opacity:1;stroke-width:1.81665;stroke-linecap:round;stroke-linejoin:round"/>
    <path d="M30.621 73.3v2.917l1.35.129 11.064 1.06a2.01 2.01 0 0 1 1.822 1.862l.342 4.859 9.6.68.654-4.403a2.03 2.03 0 0 1 2-1.716h13.098a2.03 2.03 0 0 1 2 1.716l.654 4.403 9.6-.68.341-4.86a2.014 2.014 0 0 1 1.822-1.861l11.061-1.06 1.35-.13v-2.915l-1.35.129-11.06 1.06a2.01 2.01 0 0 0-1.823 1.862l-.341 4.857-9.6.682-.654-4.403a2.03 2.03 0 0 0-2-1.718H57.453a2.03 2.03 0 0 0-2 1.718l-.654 4.403-9.6-.682-.342-4.857a2.01 2.01 0 0 0-1.822-1.862l-11.064-1.06Z" style="fill:#93ccf7;fill-opacity:1;stroke-width:1.81665;stroke-linecap:round;stroke-linejoin:round"/>
    <path d="M47.457 14.892a6.05 6.05 0 0 0-6.066 6.064v2.186a6.05 6.05 0 0 1 6.066-6.064h3.917a6.05 6.05 0 0 1 6.066 6.064v-2.186a6.05 6.05 0 0 0-6.066-6.064zm29.17 0a6.05 6.05 0 0 0-6.067 6.064v2.186a6.05 6.05 0 0 1 6.066-6.064h3.917a6.05 6.05 0 0 1 6.066 6.064v-2.186a6.05 6.05 0 0 0-6.066-6.064zm-47.113 17.92a6.053 6.053 0 0 0-6.066 6.066v2.186a6.053 6.053 0 0 1 6.066-6.066h4.132v-2.186zm64.84 0v2.186h4.132a6.053 6.053 0 0 1 6.066 6.066v-2.186a6.053 6.053 0 0 0-6.066-6.066z" style="fill:#fff;fill-opacity:1;stroke:none;stroke-width:1.45846;stroke-linecap:round"/>
    <path d="M80.158 48.576a7.43 7.43 0 0 0-7.283 5.873 7.4 7.4 0 0 0 1.223 2.766 7.42 7.42 0 0 1 6.06-3.115 7.42 7.42 0 0 1 6.06 3.115 7.4 7.4 0 0 0 1.223-2.766 7.43 7.43 0 0 0-7.283-5.873m-32.316 0a7.43 7.43 0 0 0-7.283 5.873 7.4 7.4 0 0 0 1.222 2.766 7.42 7.42 0 0 1 6.06-3.115 7.42 7.42 0 0 1 6.061 3.115 7.4 7.4 0 0 0 1.223-2.766 7.43 7.43 0 0 0-7.283-5.873" style="fill:#93ccf7;fill-opacity:1;stroke:none;stroke-width:1.76166;stroke-linecap:round"/>
    <path d="M64 57.484a2.86 2.86 0 0 0-2.863 2.866v2.916c.009.34.077.663.193.963A2.86 2.86 0 0 1 64 62.402c1.22 0 2.256.756 2.67 1.827.116-.3.184-.624.193-.963V60.35A2.86 2.86 0 0 0 64 57.484" style="fill:#93ccf7;fill-opacity:1;stroke:none;stroke-width:1.82307;stroke-linecap:round;stroke-linejoin:round;stroke-dasharray:none;stroke-opacity:1"/>
</svg>
