<svg xmlns="http://www.w3.org/2000/svg" xmlns:xlink="http://www.w3.org/1999/xlink" width="128" height="128" viewBox="0 0 128 128">
    <defs>
        <linearGradient id="c">
            <stop offset="0" style="stop-color:#fff;stop-opacity:0"/>
            <stop offset="1" style="stop-color:#fff;stop-opacity:1"/>
        </linearGradient>
        <linearGradient id="b">
            <stop offset="0" style="stop-color:#888;stop-opacity:0"/>
            <stop offset="1" style="stop-color:#fbfbfb;stop-opacity:1"/>
        </linearGradient>
        <linearGradient xlink:href="#a" id="d" x1="11.5" x2="116.5" y1="120.5" y2="120.5" gradientTransform="matrix(.9041 0 0 1.06126 6.138 -3.778)" gradientUnits="userSpaceOnUse"/>
        <linearGradient id="a">
            <stop offset="0" style="stop-color:#9c8f6f;stop-opacity:1"/>
            <stop offset=".05" style="stop-color:#b8a883;stop-opacity:1"/>
            <stop offset=".1" style="stop-color:#9c8f6f;stop-opacity:1"/>
            <stop offset=".9" style="stop-color:#9c8f6f;stop-opacity:1"/>
            <stop offset=".95" style="stop-color:#b8a883;stop-opacity:1"/>
            <stop offset="1" style="stop-color:#9c8f6f;stop-opacity:1"/>
        </linearGradient>
        <linearGradient xlink:href="#b" id="f" x1="20.367" x2="86.307" y1="39.449" y2="39.449" gradientUnits="userSpaceOnUse"/>
        <linearGradient xlink:href="#c" id="i" x1="77.295" x2="86.307" y1="46.947" y2="46.947" gradientUnits="userSpaceOnUse"/>
        <filter id="e" width="1" height="1.548" x="0" y="0" style="color-interpolation-filters:sRGB">
            <feFlood flood-color="#6b6b6b" flood-opacity=".345" result="flood"/>
            <feComposite in="flood" in2="SourceGraphic" operator="in" result="composite1"/>
            <feGaussianBlur in="composite1" result="blur"/>
            <feOffset dy="4" result="offset"/>
            <feComposite in="SourceGraphic" in2="offset" result="composite2"/>
        </filter>
    </defs>
    <rect width="94.93" height="111.432" x="16.535" y="12.671" rx="7.233" ry="8.49" style="fill:url(#d);fill-opacity:1;stroke-width:.97953"/>
    <path d="M23.738 3.896c-4.01 0-7.238 3.667-7.238 8.221v91.45c0 4.553 3.228 8.22 7.238 8.22h80.524c4.01 0 7.238-3.667 7.238-8.22v-91.45c0-4.554-3.228-8.22-7.238-8.22z" style="fill:#a9a98a;fill-opacity:1;stroke-width:.964192"/>
    <rect width="95" height="107.89" x="16.5" y="3.897" rx="7.238" ry="8.22" style="fill:#a9a98a;fill-opacity:1;stroke-width:.964192"/>
    <path d="M16.535 79.077v25.463c.182 4.042 3.312 7.248 7.204 7.248h80.522c4.01 0 7.238-3.394 7.238-7.61v-25.1Z" style="fill:#fff;fill-opacity:1;stroke:none;stroke-width:1.00616;stroke-linecap:square;stroke-linejoin:round;paint-order:markers stroke fill"/>
    <path d="M19.828 106.754v25.41c.156 3.38 2.709 5.959 5.861 5.959h80.524c3.252 0 5.894-2.737 5.894-6.268v-25.101z" style="fill:#e1e3ba;fill-opacity:1;stroke:none;stroke-width:1.00616;stroke-linecap:square;stroke-linejoin:round;paint-order:markers stroke fill" transform="translate(-1.95 -27.678)"/>
    <rect width="11.506" height="19.665" x="27.318" y="82.375" rx="1.78" ry="1.88" style="fill:#666;fill-opacity:1;stroke:none;stroke-width:.365941;stroke-linecap:square;stroke-linejoin:round;stroke-dasharray:2.19565,2.19565;stroke-dashoffset:0;stroke-opacity:.377729;paint-order:markers stroke fill"/>
    <path d="M29.433 96.092V102c0 .773.748 1.397 1.677 1.397h7.487c.93 0 1.678-.624 1.678-1.397v-5.908z" style="fill:#1a1a1a;fill-opacity:1;stroke:none;stroke-width:.2165;stroke-linecap:square;stroke-linejoin:round;stroke-dasharray:1.29899,1.29899;stroke-dashoffset:0;stroke-opacity:.377729;paint-order:markers stroke fill;filter:url(#e)" transform="matrix(1.06114 0 0 1.12086 -3.913 -11.323)"/>
    <path d="M27.32 92.207v6.622c0 .868.793 1.566 1.78 1.566h7.944c.986 0 1.78-.698 1.78-1.566v-6.622z" style="fill:#333;fill-opacity:1;stroke:none;stroke-width:.236113;stroke-linecap:square;stroke-linejoin:round;stroke-dasharray:1.41666,1.41666;stroke-dashoffset:0;stroke-opacity:.377729;paint-order:markers stroke fill"/>
    <rect width="11.506" height="19.665" x="47.937" y="82.375" rx="1.78" ry="1.88" style="fill:#666;fill-opacity:1;stroke:none;stroke-width:.365941;stroke-linecap:square;stroke-linejoin:round;stroke-dasharray:2.19565,2.19565;stroke-dashoffset:0;stroke-opacity:.377729;paint-order:markers stroke fill"/>
    <path d="M48.864 96.092V102c0 .773.748 1.397 1.678 1.397h7.486c.93 0 1.678-.624 1.678-1.397v-5.908z" style="fill:#1a1a1a;fill-opacity:1;stroke:none;stroke-width:.2165;stroke-linecap:square;stroke-linejoin:round;stroke-dasharray:1.29899,1.29899;stroke-dashoffset:0;stroke-opacity:.377729;paint-order:markers stroke fill;filter:url(#e)" transform="matrix(1.06114 0 0 1.12086 -3.913 -11.323)"/>
    <path d="M47.938 92.207v6.622c0 .868.794 1.566 1.78 1.566h7.945c.986 0 1.78-.698 1.78-1.566v-6.622z" style="fill:#333;fill-opacity:1;stroke:none;stroke-width:.236113;stroke-linecap:square;stroke-linejoin:round;stroke-dasharray:1.41666,1.41666;stroke-dashoffset:0;stroke-opacity:.377729;paint-order:markers stroke fill"/>
    <rect width="11.506" height="19.665" x="68.556" y="82.375" rx="1.78" ry="1.88" style="fill:#666;fill-opacity:1;stroke:none;stroke-width:.365941;stroke-linecap:square;stroke-linejoin:round;stroke-dasharray:2.19565,2.19565;stroke-dashoffset:0;stroke-opacity:.377729;paint-order:markers stroke fill"/>
    <path d="M68.295 96.092V102c0 .773.748 1.397 1.678 1.397h7.486c.93 0 1.678-.624 1.678-1.397v-5.908z" style="fill:#1a1a1a;fill-opacity:1;stroke:none;stroke-width:.2165;stroke-linecap:square;stroke-linejoin:round;stroke-dasharray:1.29899,1.29899;stroke-dashoffset:0;stroke-opacity:.377729;paint-order:markers stroke fill;filter:url(#e)" transform="matrix(1.06114 0 0 1.12086 -3.913 -11.323)"/>
    <path d="M68.557 92.207v6.622c0 .868.794 1.566 1.78 1.566h7.945c.986 0 1.78-.698 1.78-1.566v-6.622z" style="fill:#333;fill-opacity:1;stroke:none;stroke-width:.236113;stroke-linecap:square;stroke-linejoin:round;stroke-dasharray:1.41666,1.41666;stroke-dashoffset:0;stroke-opacity:.377729;paint-order:markers stroke fill"/>
    <rect width="11.506" height="19.665" x="89.175" y="82.375" rx="1.78" ry="1.88" style="fill:#ff6060;fill-opacity:1;stroke:none;stroke-width:.365941;stroke-linecap:square;stroke-linejoin:round;stroke-dasharray:2.19565,2.19565;stroke-dashoffset:0;stroke-opacity:.377729;paint-order:markers stroke fill"/>
    <path d="M87.726 96.092V102c0 .773.748 1.397 1.678 1.397h7.486c.93 0 1.678-.624 1.678-1.397v-5.908z" style="fill:#470707;fill-opacity:1;stroke:none;stroke-width:.2165;stroke-linecap:square;stroke-linejoin:round;stroke-dasharray:1.29899,1.29899;stroke-dashoffset:0;stroke-opacity:.377729;paint-order:markers stroke fill;filter:url(#e)" transform="matrix(1.06114 0 0 1.12086 -3.913 -11.323)"/>
    <path d="M89.176 92.207v6.622c0 .868.794 1.566 1.78 1.566h7.945c.986 0 1.78-.698 1.78-1.566v-6.622z" style="fill:#c42929;fill-opacity:1;stroke:none;stroke-width:.236113;stroke-linecap:square;stroke-linejoin:round;stroke-dasharray:1.41666,1.41666;stroke-dashoffset:0;stroke-opacity:.377729;paint-order:markers stroke fill"/>
    <rect width="87.518" height="65.333" x="20.161" y="9.074" rx="6.668" ry="7.876" style="fill:#333;fill-opacity:1;stroke:none;stroke-width:3.47607;stroke-linecap:square;stroke-linejoin:round;stroke-dasharray:none;stroke-opacity:1;paint-order:markers stroke fill"/>
    <path d="M26.83 7.062c-4.123 0-7.346 3.884-7.346 8.555v1.404c0-4.671 3.223-8.555 7.346-8.555h74.181c4.124 0 7.347 3.884 7.347 8.555v-1.404c0-4.671-3.223-8.555-7.347-8.555z" style="color:#000;fill:#5d5d44;fill-opacity:1;stroke-width:1.07937;stroke-linecap:square;stroke-linejoin:round;-inkscape-stroke:none;paint-order:markers stroke fill"/>
    <path d="M30.818 9.073v5.424H20.494a9 9 0 0 0-.234 1.154h10.558v10.846H20.25v1.154h10.568v10.846H20.25v1.154h10.568v10.846H20.25v1.154h10.568v10.846H20.25v1.154h10.568v10.756h1V63.651h11v10.756h1V63.651h11v10.756h1V63.651h11v10.756h1V63.651h11v10.756h1V63.651h11v10.756h1V63.651h11v10.457q.52-.172 1-.435V63.65h3.774v-1.154h-3.774V51.651h3.774v-1.154h-3.774V39.651h3.774v-1.154h-3.774V27.651h3.774v-1.154h-3.774V15.651h3.764a9 9 0 0 0-.235-1.154h-3.529v-4.69a6 6 0 0 0-1-.435v5.125h-11V9.073h-1v5.424h-11V9.073h-1v5.424h-11V9.073h-1v5.424h-11V9.073h-1v5.424h-11V9.073h-1v5.424h-11V9.073Zm1 6.578h11v10.846h-11zm12 0h11v10.846h-11zm12 0h11v10.846h-11zm12 0h11v10.846h-11zm12 0h11v10.846h-11zm12 0h11v10.846h-11Zm-60 12h11v10.846h-11zm12 0h11v10.846h-11zm12 0h11v10.846h-11zm12 0h11v10.846h-11zm12 0h11v10.846h-11zm12 0h11v10.846h-11Zm-60 12h11v10.846h-11zm12 0h11v10.846h-11zm12 0h11v10.846h-11zm12 0h11v10.846h-11zm12 0h11v10.846h-11zm12 0h11v10.846h-11Zm-60 12h11v10.846h-11zm12 0h11v10.846h-11zm12 0h11v10.846h-11zm12 0h11v10.846h-11zm12 0h11v10.846h-11zm12 0h11v10.846h-11Z" style="color:#000;opacity:.35;fill:gray;fill-opacity:1;stroke-linecap:square;stroke-linejoin:round;-inkscape-stroke:none;paint-order:markers stroke fill"/>
    <rect width="87.518" height="65.333" x="20.161" y="9.074" rx="6.668" ry="7.876" style="fill:none;fill-opacity:1;stroke:#1f1f1f;stroke-width:1.35484;stroke-linecap:square;stroke-linejoin:round;stroke-dasharray:none;stroke-opacity:1;paint-order:markers stroke fill"/>
    <path d="m42.225 17.431-4.998 28.473h-16.86v2.301h18.802l4.134-23.691 5.932 36.525 1.132 6.266 1.133-6.266 2.552-17.364h8.772l1.294-4.026 4.099 14.811 3.02-6.363h36.238v-2.3H69.799l-1.007 2.085-4.53-16.322-3.127 9.815h-9.06l-1.762 11.9-5.824-35.808-1.114-5.872z" style="display:inline;fill:#838383;fill-opacity:1;fill-rule:evenodd;stroke:none;stroke-width:.395946;enable-background:new"/>
    <path d="m43.375 11.594-1.15 5.838-4.998 28.472h-16.86v2.301h18.801l4.135-23.691 5.931 36.525 1.133 6.266 1.133-6.266 2.553-17.363h8.771l1.295-4.028 4.098 14.813 3.02-6.363h13.867v-.004l.052.004a1.15 1.15 0 0 0 1.15-1.15 1.15 1.15 0 0 0-1.15-1.151l-.052.004v-.004H69.799L68.79 47.88l-4.53-16.32-3.126 9.814h-9.06l-1.763 11.898-5.822-35.806z" style="display:inline;fill:url(#f);fill-opacity:.9047842;fill-rule:evenodd;stroke:none;stroke-width:.395946;enable-background:new"/>
    <rect width="87.518" height="65.333" x="20.161" y="9.074" rx="6.668" ry="7.876" style="fill:none;fill-opacity:1;stroke:#1f1f1f;stroke-width:1.35484;stroke-linecap:square;stroke-linejoin:round;stroke-dasharray:none;stroke-opacity:1;paint-order:markers stroke fill"/>
    <path d="M77.295 45.797v2.3h7.809v-.003l.052.004a1.15 1.15 0 0 0 1.15-1.15 1.15 1.15 0 0 0-1.15-1.151l-.052.004v-.004z" style="opacity:.551223;fill:url(#i);fill-opacity:1;fill-rule:evenodd;stroke-width:2;stroke-linejoin:round;paint-order:stroke fill markers"/>
    <path d="M77.295 45.797v2.3h7.809v-.003l.052.004a1.15 1.15 0 0 0 1.15-1.15 1.15 1.15 0 0 0-1.15-1.151l-.052.004v-.004z" style="opacity:.551223;fill:url(#i);fill-opacity:1;fill-rule:evenodd;stroke-width:2;stroke-linejoin:round;paint-order:stroke fill markers"/>
</svg>
