<svg xmlns="http://www.w3.org/2000/svg" xmlns:xlink="http://www.w3.org/1999/xlink" id="svg5" width="128" height="128" viewBox="0 0 128 128">
    <defs id="defs2">
        <clipPath id="clipPath1609-7" clipPathUnits="userSpaceOnUse">
            <path id="path1611-5" d="m252 116 28-28v-8h-36v36z" style="fill:#e74747;stroke:none;stroke-width:.25px;stroke-linecap:butt;stroke-linejoin:miter;stroke-opacity:1"/>
        </clipPath>
        <clipPath id="clipPath1609-7-7" clipPathUnits="userSpaceOnUse">
            <path id="path1611-5-0" d="m252 116 28-28v-8h-36v36z" style="fill:#e74747;stroke:none;stroke-width:.25px;stroke-linecap:butt;stroke-linejoin:miter;stroke-opacity:1"/>
        </clipPath>
        <clipPath id="clipPath744" clipPathUnits="userSpaceOnUse">
            <rect id="rect746" width="541.867" height="541.867" x="0" y="0" rx="79.375" ry="79.375" style="fill:#1e88e5;fill-opacity:1;stroke-width:.264583"/>
        </clipPath>
        <clipPath id="clipPath62" clipPathUnits="userSpaceOnUse">
            <rect id="rect64" width="541.867" height="541.867" x="0" y="-.422" rx="79.375" ry="79.375" style="fill:#1e88e5;fill-opacity:1;stroke-width:.264583"/>
        </clipPath>
        <clipPath id="clipPath1609-7-2" clipPathUnits="userSpaceOnUse">
            <path id="path1611-5-3" d="m252 116 28-28v-8h-36v36z" style="fill:#e74747;stroke:none;stroke-width:.25px;stroke-linecap:butt;stroke-linejoin:miter;stroke-opacity:1"/>
        </clipPath>
        <clipPath id="clipPath961" clipPathUnits="userSpaceOnUse">
            <rect id="rect963" width="541.867" height="541.867" x="0" y="0" rx="79.375" ry="79.375" style="fill:#00c853;stroke:none;stroke-width:.529037"/>
        </clipPath>
        <clipPath id="clipPath1440" clipPathUnits="userSpaceOnUse">
            <circle id="circle1442" cx="-134.35" cy="193.747" r="24" style="display:inline;opacity:1;vector-effect:none;fill:none;fill-opacity:1;stroke:#000;stroke-width:2;stroke-linecap:butt;stroke-linejoin:miter;stroke-miterlimit:4;stroke-dasharray:none;stroke-dashoffset:0;stroke-opacity:1;marker:none;marker-start:none;marker-mid:none;marker-end:none;paint-order:normal" transform="rotate(-45)"/>
        </clipPath>
        <clipPath id="clipPath1430" clipPathUnits="userSpaceOnUse">
            <circle id="circle1432" cx="12" cy="232" r="24" style="display:inline;opacity:1;vector-effect:none;fill:none;fill-opacity:1;stroke:#000;stroke-width:2;stroke-linecap:butt;stroke-linejoin:miter;stroke-miterlimit:4;stroke-dasharray:none;stroke-dashoffset:0;stroke-opacity:1;marker:none;marker-start:none;marker-mid:none;marker-end:none;paint-order:normal"/>
        </clipPath>
        <clipPath id="clipPath1440-9" clipPathUnits="userSpaceOnUse">
            <circle id="circle1442-5" cx="-134.35" cy="193.747" r="24" style="display:inline;opacity:1;vector-effect:none;fill:none;fill-opacity:1;stroke:#000;stroke-width:2;stroke-linecap:butt;stroke-linejoin:miter;stroke-miterlimit:4;stroke-dasharray:none;stroke-dashoffset:0;stroke-opacity:1;marker:none;marker-start:none;marker-mid:none;marker-end:none;paint-order:normal" transform="rotate(-45)"/>
        </clipPath>
        <clipPath id="clipPath1430-1" clipPathUnits="userSpaceOnUse">
            <circle id="circle1432-8" cx="12" cy="232" r="24" style="display:inline;opacity:1;vector-effect:none;fill:none;fill-opacity:1;stroke:#000;stroke-width:2;stroke-linecap:butt;stroke-linejoin:miter;stroke-miterlimit:4;stroke-dasharray:none;stroke-dashoffset:0;stroke-opacity:1;marker:none;marker-start:none;marker-mid:none;marker-end:none;paint-order:normal"/>
        </clipPath>
        <clipPath id="clipPath2024" clipPathUnits="userSpaceOnUse">
            <path id="rect2026" d="M6 196h74v98H6z" style="opacity:1;vector-effect:none;fill:#63452c;fill-opacity:1;stroke:none;stroke-width:4;stroke-linecap:round;stroke-linejoin:round;stroke-miterlimit:4;stroke-dasharray:none;stroke-dashoffset:0;stroke-opacity:1"/>
        </clipPath>
        <clipPath id="clipPath11543" clipPathUnits="userSpaceOnUse">
            <rect id="rect11545" width="541.867" height="541.867" x="0" y="0" rx="79.375" ry="79.375" style="fill:#f0c04e;fill-opacity:1;stroke:none;stroke-width:.529037"/>
        </clipPath>
        <clipPath id="clipPath1260" clipPathUnits="userSpaceOnUse">
            <rect id="rect1262" width="541.867" height="541.867" x="0" y="0" rx="79.375" ry="79.375" style="fill:#bbdefb;fill-opacity:1;stroke:none;stroke-width:.529037"/>
        </clipPath>
        <clipPath id="clipPath16423" clipPathUnits="userSpaceOnUse">
            <rect id="rect16425" width="541.867" height="541.867" x="0" y="0" rx="79.375" ry="79.375" style="fill:#ffad34;fill-opacity:1;stroke:none;stroke-width:.529037"/>
        </clipPath>
        <clipPath id="clipPath5550" clipPathUnits="userSpaceOnUse">
            <rect id="rect5552" width="661.29" height="661.29" x="-99.047" y="-73.297" rx="96.869" ry="96.869" style="fill:#ffce85;fill-opacity:1;stroke:none;stroke-width:.529035;stroke-opacity:1"/>
        </clipPath>
        <clipPath id="clipPath5554" clipPathUnits="userSpaceOnUse">
            <rect id="rect5556" width="661.29" height="661.29" x="-99.047" y="-73.297" rx="96.869" ry="96.869" style="fill:#ffce85;fill-opacity:1;stroke:none;stroke-width:.529035;stroke-opacity:1"/>
        </clipPath>
        <clipPath id="clipPath5558" clipPathUnits="userSpaceOnUse">
            <rect id="rect5560" width="661.29" height="661.29" x="-99.047" y="-73.297" rx="96.869" ry="96.869" style="fill:#ffce85;fill-opacity:1;stroke:none;stroke-width:.529035;stroke-opacity:1"/>
        </clipPath>
        <clipPath id="clipPath5562" clipPathUnits="userSpaceOnUse">
            <rect id="rect5564" width="661.29" height="661.29" x="-99.047" y="-73.297" rx="96.869" ry="96.869" style="fill:#ffce85;fill-opacity:1;stroke:none;stroke-width:.529035;stroke-opacity:1"/>
        </clipPath>
        <clipPath id="clipPath5566" clipPathUnits="userSpaceOnUse">
            <rect id="rect5568" width="661.29" height="661.29" x="-99.047" y="-73.297" rx="96.869" ry="96.869" style="fill:#ffce85;fill-opacity:1;stroke:none;stroke-width:.529035;stroke-opacity:1"/>
        </clipPath>
        <clipPath id="clipPath5570" clipPathUnits="userSpaceOnUse">
            <rect id="rect5572" width="661.29" height="661.29" x="-99.047" y="-73.297" rx="96.869" ry="96.869" style="fill:#ffce85;fill-opacity:1;stroke:none;stroke-width:.529035;stroke-opacity:1"/>
        </clipPath>
        <clipPath id="clipPath5574" clipPathUnits="userSpaceOnUse">
            <rect id="rect5576" width="661.29" height="661.29" x="-99.047" y="-73.297" rx="96.869" ry="96.869" style="fill:#ffce85;fill-opacity:1;stroke:none;stroke-width:.529035;stroke-opacity:1"/>
        </clipPath>
        <clipPath id="clipPath5578" clipPathUnits="userSpaceOnUse">
            <rect id="rect5580" width="661.29" height="661.29" x="-99.047" y="-73.297" rx="96.869" ry="96.869" style="fill:#ffce85;fill-opacity:1;stroke:none;stroke-width:.529035;stroke-opacity:1"/>
        </clipPath>
        <clipPath id="clipPath5582" clipPathUnits="userSpaceOnUse">
            <rect id="rect5584" width="661.29" height="661.29" x="-99.047" y="-73.297" rx="96.869" ry="96.869" style="fill:#ffce85;fill-opacity:1;stroke:none;stroke-width:.529035;stroke-opacity:1"/>
        </clipPath>
        <clipPath id="clipPath5586" clipPathUnits="userSpaceOnUse">
            <rect id="rect5588" width="661.29" height="661.29" x="-99.047" y="-73.297" rx="96.869" ry="96.869" style="fill:#ffce85;fill-opacity:1;stroke:none;stroke-width:.529035;stroke-opacity:1"/>
        </clipPath>
        <clipPath id="clipPath5590" clipPathUnits="userSpaceOnUse">
            <rect id="rect5592" width="661.29" height="661.29" x="-99.047" y="-73.297" rx="96.869" ry="96.869" style="fill:#ffce85;fill-opacity:1;stroke:none;stroke-width:.529035;stroke-opacity:1"/>
        </clipPath>
        <clipPath id="clipPath5594" clipPathUnits="userSpaceOnUse">
            <rect id="rect5596" width="661.29" height="661.29" x="-99.047" y="-73.297" rx="96.869" ry="96.869" style="fill:#ffce85;fill-opacity:1;stroke:none;stroke-width:.529035;stroke-opacity:1"/>
        </clipPath>
        <clipPath id="clipPath5598" clipPathUnits="userSpaceOnUse">
            <rect id="rect5600" width="661.29" height="661.29" x="-99.047" y="-73.297" rx="96.869" ry="96.869" style="fill:#ffce85;fill-opacity:1;stroke:none;stroke-width:.529035;stroke-opacity:1"/>
        </clipPath>
        <clipPath id="clipPath5602" clipPathUnits="userSpaceOnUse">
            <rect id="rect5604" width="661.29" height="661.29" x="-99.047" y="-73.297" rx="96.869" ry="96.869" style="fill:#ffce85;fill-opacity:1;stroke:none;stroke-width:.529035;stroke-opacity:1"/>
        </clipPath>
        <clipPath id="clipPath5606" clipPathUnits="userSpaceOnUse">
            <rect id="rect5608" width="661.29" height="661.29" x="-99.047" y="-73.297" rx="96.869" ry="96.869" style="fill:#ffce85;fill-opacity:1;stroke:none;stroke-width:.529035;stroke-opacity:1"/>
        </clipPath>
        <clipPath id="clipPath5610" clipPathUnits="userSpaceOnUse">
            <rect id="rect5612" width="661.29" height="661.29" x="-90.645" y="-83.998" rx="96.869" ry="96.869" style="fill:#ffce85;fill-opacity:1;stroke:none;stroke-width:.529035;stroke-opacity:1"/>
        </clipPath>
        <clipPath id="clipPath5614" clipPathUnits="userSpaceOnUse">
            <rect id="rect5616" width="487.68" height="487.68" x="27.093" y="27.093" rx="71.438" ry="71.438" style="fill:#ffce85;fill-opacity:1;stroke:none;stroke-width:.529037;stroke-opacity:1"/>
        </clipPath>
        <clipPath id="clipPath5618" clipPathUnits="userSpaceOnUse">
            <rect id="rect5620" width="541.867" height="541.867" x="0" y="0" rx="79.375" ry="79.375" style="fill:#ffce85;fill-opacity:1;stroke:none;stroke-width:.529037;stroke-opacity:1"/>
        </clipPath>
        <clipPath id="clipPath5622" clipPathUnits="userSpaceOnUse">
            <rect id="rect5624" width="487.68" height="487.68" x="27.093" y="27.093" rx="71.438" ry="71.438" style="fill:#ffce85;fill-opacity:1;stroke:none;stroke-width:.529037;stroke-opacity:1"/>
        </clipPath>
        <clipPath id="clipPath6298" clipPathUnits="userSpaceOnUse">
            <rect id="rect6300" width="487.68" height="487.68" x="27.093" y="27.093" clip-path="url(#clipPath5622)" rx="71.438" ry="71.438" style="fill:#009e71;fill-opacity:1;stroke:none;stroke-width:.529036;stroke-opacity:1"/>
        </clipPath>
        <clipPath id="clipPath8220" clipPathUnits="userSpaceOnUse">
            <rect id="rect8222" width="487.68" height="487.68" x="27.093" y="27.093" clip-path="url(#clipPath5622)" rx="71.438" ry="71.438" style="fill:#a00;fill-opacity:1;stroke:none;stroke-width:.529036;stroke-opacity:1"/>
        </clipPath>
        <clipPath id="clip-path">
            <path id="Body" d="M38.11 28.39H46a1.35 1.35 0 0 1 1.35 1.35V37a5 5 0 0 1-5 5 5 5 0 0 1-5-5v-7.9a.71.71 0 0 1 .71-.71Z" class="cls-1"/>
        </clipPath>
        <clipPath id="clip-path-2">
            <path id="path1206" d="M28.39 22.08a4.51 4.51 0 1 1 4.51 4.51 4.51 4.51 0 0 1-4.51-4.51m11.27 6.31H26.14a1.37 1.37 0 0 0-1.35 1.39v8.32a8.11 8.11 0 1 0 16.21 0v-8.32a1.37 1.37 0 0 0-1.34-1.39" class="cls-1"/>
        </clipPath>
        <clipPath id="clipPath1017" clipPathUnits="userSpaceOnUse">
            <path id="path1015" d="M2619 5238c1446.43 0 2619-1172.57 2619-2619S4065.43 0 2619 0 0 1172.57 0 2619s1172.57 2619 2619 2619"/>
        </clipPath>
        <clipPath id="clipPath1027" clipPathUnits="userSpaceOnUse">
            <path id="path1025" d="M2619 5187c1418.27 0 2568-1149.73 2568-2568S4037.27 51 2619 51 50.996 1200.73 50.996 2619 1200.73 5187 2619 5187"/>
        </clipPath>
        <clipPath id="clipPath1037" clipPathUnits="userSpaceOnUse">
            <path id="path1035" d="M2619 4981c1304.5 0 2362-1057.5 2362-2362S3923.5 257 2619 257 257 1314.5 257 2619s1057.5 2362 2362 2362"/>
        </clipPath>
        <clipPath id="clipPath1047" clipPathUnits="userSpaceOnUse">
            <path id="path1045" d="M1078 3359V2249c1-251 206-453 456-452h1618c46 0 83 37 83 82v1110c-1 251-206 453-456 452H1161c-46 0-83-37-83-82m2260-433 668 488c58 48 103 36 103-51V1875c0-99-55-87-103-51l-668 487z"/>
        </clipPath>
        <clipPath id="clip1">
            <path id="path1127" d="M7 46h50v47H7Zm0 0"/>
        </clipPath>
        <clipPath id="clip2">
            <path id="path1130" d="M32.25 46.957c-12.562.012-23.164 9.68-24.746 22.574 1.559 12.914 12.164 22.614 24.746 22.63 12.566-.013 23.164-9.68 24.75-22.575-1.559-12.914-12.164-22.613-24.75-22.629m0 0"/>
        </clipPath>
        <clipPath id="clip3">
            <path id="rect1169" d="M0 0h192v152H0z"/>
        </clipPath>
        <linearGradient xlink:href="#linearGradient1036" id="linearGradient1099" x1="32" x2="96" y1="236" y2="236" gradientTransform="translate(604.817 170.586)" gradientUnits="userSpaceOnUse"/>
        <linearGradient id="linearGradient1036">
            <stop id="stop1032" offset="0" style="stop-color:#d5d3cf;stop-opacity:1"/>
            <stop id="stop1034" offset="1" style="stop-color:#f6f5f4;stop-opacity:1"/>
        </linearGradient>
        <linearGradient id="linearGradient1069">
            <stop id="stop1065" offset="0" style="stop-color:#d5d3cf;stop-opacity:1"/>
            <stop id="stop1067-1" offset="1" style="stop-color:#949390;stop-opacity:1"/>
        </linearGradient>
        <linearGradient xlink:href="#linearGradient1025" id="linearGradient1027" x1="64" x2="64" y1="262.5" y2="232" gradientTransform="translate(-470.586 432.817)" gradientUnits="userSpaceOnUse"/>
        <linearGradient id="linearGradient1025">
            <stop id="stop1021" offset="0" style="stop-color:#9a9996;stop-opacity:1"/>
            <stop id="stop1023" offset="1" style="stop-color:#77767b;stop-opacity:1"/>
        </linearGradient>
        <linearGradient id="linearGradient8241">
            <stop id="stop8237" offset="0" style="stop-color:#b3b3b3;stop-opacity:1"/>
            <stop id="stop9349" offset=".05" style="stop-color:#ccc;stop-opacity:1"/>
            <stop id="stop21746" offset=".1" style="stop-color:#b3b3b3;stop-opacity:1"/>
            <stop id="stop21940" offset=".9" style="stop-color:#b3b3b3;stop-opacity:1"/>
            <stop id="stop9351" offset=".95" style="stop-color:#ccc;stop-opacity:1"/>
            <stop id="stop8239" offset="1" style="stop-color:#b3b3b3;stop-opacity:1"/>
        </linearGradient>
        <linearGradient xlink:href="#linearGradient8241" id="linearGradient8243" x1="11.5" x2="116.5" y1="120.5" y2="120.5" gradientUnits="userSpaceOnUse"/>
        <linearGradient id="linearGradient914">
            <stop id="stop910" offset="0" style="stop-color:#f6f5f4;stop-opacity:.43700787"/>
            <stop id="stop912" offset="1" style="stop-color:#deddda;stop-opacity:0"/>
        </linearGradient>
        <linearGradient id="linear-gradient" x1="63.33" x2="241.67" y1="84.03" y2="84.03" gradientTransform="matrix(1 0 0 -1 0 266)" gradientUnits="userSpaceOnUse">
            <stop id="stop376" offset="0" stop-color="#0c59a4"/>
            <stop id="stop378" offset="1" stop-color="#114a8b"/>
        </linearGradient>
        <linearGradient id="linear-gradient-2" x1="157.35" x2="45.96" y1="161.39" y2="40.06" gradientTransform="matrix(1 0 0 -1 0 266)" gradientUnits="userSpaceOnUse">
            <stop id="stop388" offset="0" stop-color="#1b9de2"/>
            <stop id="stop390" offset=".16" stop-color="#1595df"/>
            <stop id="stop392" offset=".67" stop-color="#0680d7"/>
            <stop id="stop394" offset="1" stop-color="#0078d4"/>
        </linearGradient>
        <linearGradient id="linearGradient9795">
            <stop id="stop9797" offset="0" style="stop-color:#fff;stop-opacity:1"/>
            <stop id="stop9799" offset="1" style="stop-color:#fff;stop-opacity:0"/>
        </linearGradient>
        <linearGradient xlink:href="#linearGradient9795" id="linearGradient9801" x1="30.438" x2="29.742" y1="31.829" y2="27.454" gradientUnits="userSpaceOnUse"/>
        <linearGradient id="linearGradient7212">
            <stop id="stop7214" offset="0" style="stop-color:#000;stop-opacity:1"/>
        </linearGradient>
        <linearGradient id="linear-gradient-6" x1="18.59" x2="29.18" y1="22.83" y2="41.17" gradientUnits="userSpaceOnUse">
            <stop id="stop1209" offset="0" stop-color="#fff" stop-opacity=".5"/>
            <stop id="stop1211" offset="1" stop-opacity=".7"/>
        </linearGradient>
        <linearGradient id="linearGradient1458">
            <stop id="stop1452" offset="0" style="stop-color:#deddda;stop-opacity:1"/>
            <stop id="stop1454" offset=".511" style="stop-color:#fff;stop-opacity:1"/>
            <stop id="stop1456" offset="1" style="stop-color:#c0bfbc;stop-opacity:1"/>
        </linearGradient>
        <linearGradient xlink:href="#linearGradient1458" id="linearGradient1053-2" x1="384" x2="416" y1="120" y2="120" gradientTransform="translate(0 640)" gradientUnits="userSpaceOnUse"/>
        <linearGradient id="linear0" x1="22" x2="62" y1="37" y2="37" gradientTransform="matrix(1.4 0 0 1.4 -26.8 2.492)" gradientUnits="userSpaceOnUse">
            <stop id="stop1143" offset="0" style="stop-color:#949390;stop-opacity:1"/>
            <stop id="stop1145" offset=".091" style="stop-color:#deddda;stop-opacity:1"/>
            <stop id="stop1147" offset=".336" style="stop-color:#9a9996;stop-opacity:1"/>
            <stop id="stop1149" offset=".844" style="stop-color:#c3c0ba;stop-opacity:1"/>
            <stop id="stop1151" offset=".931" style="stop-color:#deddda;stop-opacity:1"/>
            <stop id="stop1153" offset="1" style="stop-color:#c0bfbc;stop-opacity:1"/>
        </linearGradient>
        <linearGradient id="linearGradient1115">
            <stop id="stop1103" offset="0" style="stop-color:#d5d3cf;stop-opacity:1"/>
            <stop id="stop1105" offset=".038" style="stop-color:#e3e2df;stop-opacity:1"/>
            <stop id="stop1107" offset=".077" style="stop-color:#c0bfbc;stop-opacity:1"/>
            <stop id="stop1109" offset=".923" style="stop-color:#c0bfbc;stop-opacity:1"/>
            <stop id="stop1111" offset=".962" style="stop-color:#e3e2df;stop-opacity:1"/>
            <stop id="stop1113" offset="1" style="stop-color:#d5d3cf;stop-opacity:1"/>
        </linearGradient>
        <linearGradient id="linearGradient6058">
            <stop id="stop6054" offset="0" style="stop-color:#fff;stop-opacity:1"/>
            <stop id="stop6056" offset="1" style="stop-color:#f6f5f4;stop-opacity:1"/>
        </linearGradient>
        <linearGradient id="paint3_linear-2-6-5" x2="1" gradientTransform="matrix(0 6 -12 0 -64 209.997)" gradientUnits="userSpaceOnUse">
            <stop id="stop91-0-7-4" stop-color="#c01c27"/>
            <stop id="stop93-2-5-7" offset="1" stop-color="#e01b24"/>
        </linearGradient>
        <linearGradient xlink:href="#linearGradient1115" id="linearGradient1097" x1="43.844" x2="-60" y1="234" y2="234" gradientTransform="matrix(4.05196 0 0 4.0456 305.402 -454.993)" gradientUnits="userSpaceOnUse"/>
        <linearGradient xlink:href="#paint3_linear-2-6-5" id="linearGradient1383" x2="1" gradientTransform="matrix(0 6 -12 0 -264 209.997)" gradientUnits="userSpaceOnUse"/>
        <radialGradient xlink:href="#linearGradient1069" id="radialGradient1103" cx="-244" cy="-76" r="32" fx="-244" fy="-76" gradientTransform="translate(-460.35 463.12)scale(.88333)" gradientUnits="userSpaceOnUse"/>
        <radialGradient xlink:href="#linearGradient1069" id="radialGradient1103-5" cx="-244" cy="-76" r="32" fx="-244" fy="-76" gradientTransform="translate(-460.35 463.12)scale(.88333)" gradientUnits="userSpaceOnUse"/>
        <radialGradient xlink:href="#linearGradient1069" id="radialGradient1103-6" cx="-244" cy="-76" r="32" fx="-244" fy="-76" gradientTransform="translate(-460.35 463.12)scale(.88333)" gradientUnits="userSpaceOnUse"/>
        <radialGradient xlink:href="#linearGradient1069" id="radialGradient1103-56" cx="-244" cy="-76" r="32" fx="-244" fy="-76" gradientTransform="translate(-460.35 463.12)scale(.88333)" gradientUnits="userSpaceOnUse"/>
        <radialGradient xlink:href="#linearGradient914" id="radialGradient916" cx="64" cy="296" r="46" fx="64" fy="296" gradientTransform="matrix(2.6087 0 0 1.84104 -102.957 -748.947)" gradientUnits="userSpaceOnUse"/>
        <radialGradient id="radial-gradient" cx="161.83" cy="68.91" r="95.38" gradientTransform="matrix(1 0 0 -.95 0 248.84)" gradientUnits="userSpaceOnUse">
            <stop id="stop381" offset=".72" stop-opacity="0"/>
            <stop id="stop383" offset=".95" stop-opacity=".53"/>
            <stop id="stop385" offset="1"/>
        </radialGradient>
        <radialGradient id="radial-gradient-2" cx="-340.29" cy="62.99" r="143.24" gradientTransform="matrix(.15 -.99 -.8 -.12 176.64 -125.4)" gradientUnits="userSpaceOnUse">
            <stop id="stop397" offset=".76" stop-opacity="0"/>
            <stop id="stop399" offset=".95" stop-opacity=".5"/>
            <stop id="stop401" offset="1"/>
        </radialGradient>
        <radialGradient id="radial-gradient-3" cx="113.37" cy="570.21" r="202.43" gradientTransform="matrix(-.04 1 2.13 .08 -1179.54 -106.69)" gradientUnits="userSpaceOnUse">
            <stop id="stop404" offset="0" stop-color="#35c1f1"/>
            <stop id="stop406" offset=".11" stop-color="#34c1ed"/>
            <stop id="stop408" offset=".23" stop-color="#2fc2df"/>
            <stop id="stop410" offset=".31" stop-color="#2bc3d2"/>
            <stop id="stop412" offset=".67" stop-color="#36c752"/>
        </radialGradient>
        <radialGradient id="radial-gradient-4" cx="376.52" cy="567.97" r="97.34" gradientTransform="matrix(.28 .96 .78 -.23 -303.76 -148.5)" gradientUnits="userSpaceOnUse">
            <stop id="stop415" offset="0" stop-color="#66eb6e"/>
            <stop id="stop417" offset="1" stop-color="#66eb6e" stop-opacity="0"/>
        </radialGradient>
        <radialGradient id="radial0" cx="131.915" cy="55.927" r="160" fx="131.915" fy="55.927" gradientTransform="matrix(.23203 -.54148 -.3688 -.02984 4.278 118.958)" gradientUnits="userSpaceOnUse">
            <stop id="stop1117" offset="0" style="stop-color:#ed333b;stop-opacity:1"/>
            <stop id="stop1119" offset="1" style="stop-color:#a347ba;stop-opacity:1"/>
        </radialGradient>
        <radialGradient id="radial1" cx="525.588" cy="638.592" r="192" fx="525.588" fy="638.592" gradientTransform="matrix(-.10766 -.22517 -.32775 .25834 373.88 30.205)" gradientUnits="userSpaceOnUse">
            <stop id="stop1122" offset="0" style="stop-color:#1c71d8;stop-opacity:1"/>
            <stop id="stop1124" offset="1" style="stop-color:#3584e4;stop-opacity:.00829876"/>
        </radialGradient>
        <radialGradient id="radial2" cx="131.915" cy="55.927" r="160" fx="131.915" fy="55.927" gradientTransform="matrix(.48516 -1.14858 -.77111 -.0633 -47.125 203.989)" gradientUnits="userSpaceOnUse">
            <stop id="stop1133" offset="0" style="stop-color:#ed333b;stop-opacity:1"/>
            <stop id="stop1135" offset="1" style="stop-color:#a347ba;stop-opacity:1"/>
        </radialGradient>
        <radialGradient id="radial3" cx="525.588" cy="638.592" r="192" fx="525.588" fy="638.592" gradientTransform="matrix(-.2251 -.47764 -.6853 .548 725.68 15.724)" gradientUnits="userSpaceOnUse">
            <stop id="stop1138" offset="0" style="stop-color:#1c71d8;stop-opacity:1"/>
            <stop id="stop1140" offset="1" style="stop-color:#3584e4;stop-opacity:.00829876"/>
        </radialGradient>
        <radialGradient id="radial4" cx="-172.561" cy="28.569" r="15.857" fx="-172.561" fy="28.569" gradientTransform="matrix(1.56071 0 0 1.4252 300.694 13.35)" gradientUnits="userSpaceOnUse">
            <stop id="stop1156" offset="0" style="stop-color:#fff;stop-opacity:.358268"/>
            <stop id="stop1158" offset="1" style="stop-color:#fff;stop-opacity:.0944882"/>
        </radialGradient>
        <radialGradient id="radial5" cx="40" cy="227" r="28" fx="40" fy="227" gradientTransform="matrix(.57555 0 0 1.5407 8.978 -280.781)" gradientUnits="userSpaceOnUse">
            <stop id="stop1175" offset="0" style="stop-color:#fff;stop-opacity:1"/>
            <stop id="stop1177" offset=".745" style="stop-color:#fafafa;stop-opacity:1"/>
            <stop id="stop1179" offset="1" style="stop-color:#dfdfdf;stop-opacity:1"/>
        </radialGradient>
        <radialGradient xlink:href="#linearGradient6058" id="radialGradient1099" cx="-24.239" cy="225.596" r="24" fx="-24.239" fy="225.596" gradientTransform="matrix(7.1116 0 0 7.88777 453.001 -1342.88)" gradientUnits="userSpaceOnUse"/>
        <style id="style374">
            .cls-1{fill:none}
        </style>
        <mask id="mask0">
            <g id="g1166" filter="url(#alpha)">
                <path id="rect1164" d="M0 0h128v128H0z" style="fill:#000;fill-opacity:.1;stroke:none"/>
            </g>
        </mask>
        <g id="surface382" clip-path="url(#clip3)">
            <path id="path1172" d="M40 59.957c-13.809 0-25 11.195-25 25 .012 1.04.086 1.82.223 2.848 0-11.848 12.199-21.836 24.777-21.848 12.598.016 24.777 10 24.777 21.902.141-1.043.215-1.847.223-2.902 0-13.805-11.191-25-25-25m0 0" style="stroke:none;fill-rule:nonzero;fill:#453637;fill-opacity:1"/>
        </g>
    </defs>
    <g id="layer2">
        <rect id="rect440" width="105" height="105" x="11.5" y="15.5" rx="8" ry="8" style="fill:url(#linearGradient8243);fill-opacity:1"/>
        <rect id="rect358" width="105" height="105" x="11.5" y="7.5" rx="8" ry="8" style="fill:#e6e6e6;fill-opacity:1"/>
        <g id="g1167">
            <g id="g1381" style="display:inline;stroke-width:.0653959" transform="translate(407.024 -205.872)scale(1.19071)">
                <rect id="rect1371" width="28" height="28" x="-283.928" y="193.997" rx="13.072" ry="13.072" style="display:inline;fill:#f5c211;stroke-width:.0653959"/>
                <path id="path1373" d="M-276 211h12v.997a4 4 0 0 1-4 4h-4a4 4 0 0 1-4-4z" style="display:inline;fill:url(#linearGradient1383);stroke-width:.0653959"/>
                <path id="rect1375" d="M-276 209.997h12v2h-12z" style="display:inline;fill:#fff;stroke-width:.0653959"/>
                <path id="path1377" d="M-276 204.997a1 1 0 1 1 2 0v3h-2z" style="display:inline;fill:#b45600;stroke-width:.0653959"/>
                <path id="path1379" d="M-266 204.997a1 1 0 1 1 2 0v3h-2z" style="display:inline;fill:#b45600;stroke-width:.0653959"/>
            </g>
            <g id="g1387" style="display:inline;stroke-width:.0653959" transform="translate(426.333 -207.066)scale(1.19071)">
                <path id="path1385" d="M26 20v17s.124 2.819-2.895 4.328l1.79 3.576C29.876 42.414 30 37 30 37v-1h12v2s-.028 1.167-.47 2.23C41.085 41.294 40.7 42 39 42h-1l-2 4h3c3.3 0 5.414-2.294 6.22-4.23.808-1.937.78-3.77.78-3.77V20Zm4 4h12v2H30Zm0 6h12v2H30Z" style="color:#000;font-style:normal;font-variant:normal;font-weight:400;font-stretch:normal;font-size:medium;line-height:normal;font-family:sans-serif;font-variant-ligatures:normal;font-variant-position:normal;font-variant-caps:normal;font-variant-numeric:normal;font-variant-alternates:normal;font-feature-settings:normal;text-indent:0;text-align:start;text-decoration:none;text-decoration-line:none;text-decoration-style:solid;text-decoration-color:#000;letter-spacing:normal;word-spacing:normal;text-transform:none;writing-mode:lr-tb;direction:ltr;text-orientation:mixed;dominant-baseline:auto;baseline-shift:baseline;text-anchor:start;white-space:normal;shape-padding:0;clip-rule:nonzero;display:inline;overflow:visible;visibility:visible;opacity:1;isolation:auto;mix-blend-mode:normal;color-interpolation:sRGB;color-interpolation-filters:linearRGB;solid-color:#000;solid-opacity:1;vector-effect:none;fill:#62a0ea;fill-opacity:1;fill-rule:nonzero;stroke:none;stroke-width:.261584;stroke-linecap:butt;stroke-linejoin:round;stroke-miterlimit:4;stroke-dasharray:none;stroke-dashoffset:0;stroke-opacity:1;color-rendering:auto;image-rendering:auto;shape-rendering:auto;text-rendering:auto" transform="translate(-358 176)"/>
            </g>
            <g id="g1393" style="display:inline;stroke-width:.0653959" transform="translate(438.025 -223.374)scale(1.19071)">
                <path id="path1389" d="M60 78a2 2 0 0 0-2 2 2 2 0 0 0 2 2 2 2 0 0 0 2-2 2 2 0 0 0-2-2m-4 6a2 2 0 0 0-2 2 2 2 0 0 0 2 2 2 2 0 0 0 2-2 2 2 0 0 0-2-2m8 0a2 2 0 0 0-2 2 2 2 0 0 0 2 2 2 2 0 0 0 2-2 2 2 0 0 0-2-2m6 6-4 2v4h-4v-4l-4 2v2l-8-.002.072 4.002a1.97 1.97 0 0 1-2 1.998c-1.128 0-2-.872-2-2h-4c0 3.29 2.71 6 6 6s6-2.71 6-6L70 100Zm-15.928 3.996-4 2h4z" style="color:#000;font-style:normal;font-variant:normal;font-weight:400;font-stretch:normal;font-size:medium;line-height:normal;font-family:sans-serif;font-variant-ligatures:normal;font-variant-position:normal;font-variant-caps:normal;font-variant-numeric:normal;font-variant-alternates:normal;font-feature-settings:normal;text-indent:0;text-align:start;text-decoration:none;text-decoration-line:none;text-decoration-style:solid;text-decoration-color:#000;letter-spacing:normal;word-spacing:normal;text-transform:none;writing-mode:lr-tb;direction:ltr;text-orientation:mixed;dominant-baseline:auto;baseline-shift:baseline;text-anchor:start;white-space:normal;shape-padding:0;clip-rule:nonzero;display:inline;overflow:visible;visibility:visible;opacity:1;isolation:auto;mix-blend-mode:normal;color-interpolation:sRGB;color-interpolation-filters:linearRGB;solid-color:#000;solid-opacity:1;vector-effect:none;fill:#26a269;fill-opacity:1;fill-rule:nonzero;stroke:none;stroke-width:.261584;stroke-linecap:butt;stroke-linejoin:miter;stroke-miterlimit:4;stroke-dasharray:none;stroke-dashoffset:0;stroke-opacity:1;color-rendering:auto;image-rendering:auto;shape-rendering:auto;text-rendering:auto" transform="translate(-352 168)"/>
                <path id="path1391" d="m-309.928 267.997 4-2v2z" style="display:inline;fill:#26a269;stroke-width:.0653959"/>
            </g>
            <path id="path1476" d="M40.202 85.2q0-1.34-.44-2.319-.44-.999-1.16-1.678-.279-.28-.599-.52-.48-.36-.68-.56-.799-.76-1.198-1.758-.4-1-.4-2.119 0-1.16.42-2.139t1.179-1.738q.64-.64 1.799-1.2.919-.44 2.058-.44 1.14 0 2.099.44 1.079.48 1.798 1.2.76.76 1.18 1.738.42.98.42 2.139 0 1.22-.42 2.178-.42.94-1.18 1.7-.2.2-.72.559-.159.12-.559.52-.82.799-1.219 1.778-.38.96-.38 2.219 1.36 0 2.359-.46 1.02-.48 1.679-1.14.26-.259.5-.579.359-.5.559-.7.78-.779 1.779-1.178.999-.42 2.118-.42 1.16 0 2.139.42t1.738 1.179q.72.72 1.2 1.799.42.939.42 2.078 0 1.14-.42 2.079-.48 1.079-1.2 1.798-.759.76-1.738 1.18-.98.42-2.139.42-1.12 0-2.118-.4-1-.42-1.78-1.2-.199-.2-.559-.7-.24-.319-.5-.579-.819-.78-1.798-1.179-.96-.42-2.239-.42 0 1.36.46 2.379.48.999 1.14 1.659.26.26.579.5.5.359.7.559.779.78 1.179 1.779.42.999.42 2.118 0 1.16-.42 2.139t-1.18 1.738q-.72.72-1.798 1.2-.94.42-2.079.42t-2.078-.42q-1.08-.48-1.8-1.2-.759-.759-1.178-1.738-.42-.98-.42-2.139 0-1.12.4-2.118.42-1 1.199-1.78.2-.199.7-.559.32-.24.579-.5.78-.819 1.18-1.778.419-.98.419-2.259-1.26 0-2.259.42-.979.4-1.758 1.18-.28.28-.52.599-.36.48-.56.68-.76.799-1.758 1.199-1 .4-2.119.4-1.16 0-2.138-.42-.98-.42-1.74-1.18-.659-.64-1.198-1.798-.44-.92-.44-2.059t.44-2.098q.48-1.08 1.199-1.8.76-.759 1.739-1.178.979-.42 2.138-.42 1.22 0 2.159.42.959.42 1.718 1.179.2.2.56.72.12.16.52.559.8.8 1.778 1.2.98.399 2.239.399" style="font-style:normal;font-weight:400;font-size:medium;line-height:1000%;font-family:sans-serif;letter-spacing:0;word-spacing:0;fill:#a347ba;fill-opacity:1;stroke:none;stroke-width:.0669188px;stroke-linecap:butt;stroke-linejoin:miter;stroke-opacity:1"/>
        </g>
    </g>
</svg>
