<svg xmlns="http://www.w3.org/2000/svg" xmlns:xlink="http://www.w3.org/1999/xlink" width="128" height="128" viewBox="0 0 128 128">
    <defs>
        <linearGradient id="b">
            <stop offset="0" style="stop-color:#d6f6e6;stop-opacity:1"/>
            <stop offset="1" style="stop-color:#6cdfa7;stop-opacity:1"/>
        </linearGradient>
        <linearGradient id="a">
            <stop offset="0" style="stop-color:#169452;stop-opacity:1"/>
            <stop offset=".1" style="stop-color:#19ad60;stop-opacity:1"/>
            <stop offset=".146" style="stop-color:#169452;stop-opacity:1"/>
            <stop offset=".399" style="stop-color:#169452;stop-opacity:1"/>
            <stop offset=".501" style="stop-color:#1ab363;stop-opacity:1"/>
            <stop offset=".6" style="stop-color:#169452;stop-opacity:1"/>
            <stop offset=".85" style="stop-color:#179c56;stop-opacity:1"/>
            <stop offset=".9" style="stop-color:#1dc56d;stop-opacity:1"/>
            <stop offset="1" style="stop-color:#169452;stop-opacity:1"/>
        </linearGradient>
        <linearGradient xlink:href="#a" id="c" x1="14.854" x2="113.146" y1="67.659" y2="67.659" gradientTransform="matrix(1.3302 0 0 1.44843 -8.257 -33.045)" gradientUnits="userSpaceOnUse"/>
        <linearGradient xlink:href="#b" id="d" x1="77.668" x2="77.668" y1="12.006" y2="107.304" gradientUnits="userSpaceOnUse"/>
    </defs>
    <path d="M55.554 13.959v2.085h-.003v4.697H39.048c-.968 0-1.746.935-1.746 2.098v32.979a4.79 4.79 0 0 1-5.127-.475l-.01-.005a12.88 16.385 0 0 0-7.743-3.295 12.88 16.385 0 0 0-10.852 7.695h-2.027v8.689a12.88 16.385 0 0 0 12.88 16.386 12.88 16.385 0 0 0 8.516-4.097c2.214-1.134 4.163-.113 4.363-.002v33.139c0 1.163.778 2.098 1.746 2.098h26.48c.04-.082.481-1.055.478-2.41h.011v-8.691h-3.621a15.048 14.024 0 0 1-.336-2.913 15.048 14.024 0 0 1 15.047-14.024 15.048 14.024 0 0 1 15.05 14.024 15.048 14.024 0 0 1-.38 2.913h-3.875v8.692h.011c-.004 1.35.435 2.32.478 2.409h26.319c.967 0 1.745-.935 1.745-2.098V80.878h.002V68.345a12.88 16.385 0 0 0-.002.062v-.058l.002-.004V55.989h-.002v-33.15c0-1.163-.778-2.098-1.745-2.098H98.366v-6.782H87.924v2.085h-.002V22.8a5.9 5.9 0 0 0 .468 2.683 15.048 14.024 0 0 1 3.767 9.271 15.048 14.024 0 0 1-15.05 14.024A15.048 14.024 0 0 1 62.06 34.755a15.048 14.024 0 0 1 3.025-8.434q.004-.004.006-.009c.85-1.36.99-2.69.902-3.71v-1.435h.002v-7.208zm-18.258 54.22.006.01v.154l-.002.002a12.88 16.385 0 0 0-.004-.167z" style="fill:url(#c);fill-opacity:1;stroke:#000;stroke-width:.0851015;stroke-opacity:0"/>
    <path d="M39.048 12.049c-.968 0-1.746.935-1.746 2.098V47.13a4.79 4.79 0 0 1-5.127-.476l-.007-.006a12.88 16.385 0 0 0-7.746-3.296 12.88 16.385 0 0 0-12.88 16.386 12.88 16.385 0 0 0 12.88 16.384 12.88 16.385 0 0 0 8.514-4.097c2.215-1.134 4.166-.11 4.366 0v33.14c0 1.163.778 2.098 1.746 2.098h26.48c.067-.139 1.306-2.786-.437-5.574l-.006-.01a15.048 14.024 0 0 1-3.025-8.433A15.048 14.024 0 0 1 77.107 79.22a15.048 14.024 0 0 1 15.048 14.024 15.048 14.024 0 0 1-3.762 9.271c-1.065 2.463-.068 4.61-.003 4.746h26.32c.967 0 1.745-.936 1.745-2.099V32.49h.002V14.147c0-1.163-.78-2.098-1.748-2.098H88.39c-.117.251-1.028 2.355.004 4.743a15.048 14.024 0 0 1 3.761 9.272 15.048 14.024 0 0 1-15.047 14.025 15.048 14.024 0 0 1-15.049-14.025 15.048 14.024 0 0 1 3.027-8.432q.004-.004.006-.01c1.7-2.72.56-5.317.44-5.573zm-1.752 47.44.006.01v.152l-.002.004a12.88 16.385 0 0 0-.004-.166z" style="fill:#47d891;fill-opacity:1;stroke:#000;stroke-width:.0851015;stroke-opacity:0"/>
    <path d="M39.047 12.049c-.967 0-1.744.936-1.744 2.1v32.98a4.79 4.79 0 0 1-5.13-.475l-.005-.008a12.88 16.385 0 0 0-7.746-3.294 12.88 16.385 0 0 0-12.879 16.386 12.88 16.385 0 0 0 12.879 16.383 12.88 16.385 0 0 0 8.514-4.098c2.214-1.134 4.167-.11 4.367 0v33.141c0 1.163.777 2.098 1.744 2.098h26.482c.067-.139 1.306-2.786-.437-5.574l-.008-.008a15.048 14.024 0 0 1-3.023-8.436 15.048 14.024 0 0 1 15.046-14.023 15.048 14.024 0 0 1 15.047 14.023 15.048 14.024 0 0 1-3.761 9.272c-1.065 2.463-.067 4.61-.002 4.746h26.318c.967 0 1.746-.936 1.746-2.1V32.49h.002V14.148c0-1.163-.78-2.1-1.748-2.1h-26.32c-.117.252-1.028 2.356.004 4.745a15.048 14.024 0 0 1 3.761 9.271A15.048 14.024 0 0 1 77.107 40.09 15.048 14.024 0 0 1 62.06 26.064a15.048 14.024 0 0 1 3.025-8.433l.008-.008c1.7-2.72.559-5.318.44-5.574zm-11.27 39.035h19.659v16.01H27.777z" style="fill:url(#d);fill-opacity:1;stroke:#000;stroke-width:.0851015;stroke-opacity:0"/>
    <path d="M39.31 14.06c-.018 11.434-.002 22.87-.007 34.305-1.657.967-3.614 1.604-5.537 1.157-1.579-.283-2.889-1.264-4.04-2.318-2.142-1.623-5.024-2.296-7.623-1.5-3.52 1.051-6.05 4.145-7.338 7.475-1.882 4.903-1.585 10.671 1.029 15.253 1.634 2.88 4.477 5.335 7.878 5.626 2.94.323 5.795-1.176 7.722-3.322.896-.88 2.253-1.148 3.473-1.236 1.584-.094 3.083.532 4.436 1.295.006 11.489-.013 22.98.01 34.467h24.685c.202-1.443-.656-2.685-1.502-3.756-1.782-2.835-2.693-6.242-2.354-9.588a15 15 0 0 1 2.29-6.782c1.58-2.582 3.943-4.637 6.63-6.009 2.642-1.31 5.608-1.98 8.558-1.88a17.9 17.9 0 0 1 8.942 2.673c2.418 1.53 4.473 3.667 5.8 6.21a15.15 15.15 0 0 1 1.698 8.64c-.262 2.657-1.264 5.224-2.808 7.4-.481.754-1.362 1.312-1.326 2.307-.248.768.227.916.898.785h23.62c.027-30.355.002-60.714.013-91.067-.303-.338-1.184-.051-1.712-.146H89.924c-.088.877.084 1.816.792 2.405 1.718 2.1 2.838 4.673 3.255 7.352.805 4.906-1.083 10.078-4.685 13.469-4.107 3.98-10.239 5.622-15.808 4.43a17.5 17.5 0 0 1-7.86-3.816c-2.31-1.983-4.07-4.616-4.923-7.545a15.14 15.14 0 0 1 .19-9.183c.577-1.746 1.544-3.325 2.622-4.8a3.9 3.9 0 0 0 .49-2.312c-8.226.008-16.478-.016-24.686.012zm-.35 44.32c.482.469.38 1.189.28 1.785-.908 1.902-1.892 3.772-2.829 5.662-.355-2.191-.88-4.364-1.124-6.567l-.235-6.743z" style="fill:#47d891;fill-opacity:1;stroke:#000;stroke-width:.0851015;stroke-opacity:0"/>
</svg>
