<svg xmlns="http://www.w3.org/2000/svg" xmlns:xlink="http://www.w3.org/1999/xlink" xml:space="preserve" width="128" height="128" viewBox="0 0 128 128">
    <defs>
        <linearGradient id="b">
            <stop offset="0" style="stop-color:#e3ddfa;stop-opacity:1"/>
            <stop offset="1" style="stop-color:#f5f5fa;stop-opacity:1"/>
        </linearGradient>
        <linearGradient id="a">
            <stop offset="0" style="stop-color:#9280d9;stop-opacity:1"/>
            <stop offset=".05" style="stop-color:#ab97f4;stop-opacity:1"/>
            <stop offset=".1" style="stop-color:#9280d9;stop-opacity:1"/>
            <stop offset=".9" style="stop-color:#9280d9;stop-opacity:1"/>
            <stop offset=".95" style="stop-color:#ab97f4;stop-opacity:1"/>
            <stop offset="1" style="stop-color:#9280d9;stop-opacity:1"/>
        </linearGradient>
        <linearGradient xlink:href="#a" id="c" x1="11.5" x2="116.5" y1="120.5" y2="120.5" gradientUnits="userSpaceOnUse"/>
        <linearGradient xlink:href="#b" id="d" x1="64" x2="64" y1="112.5" y2="7.5" gradientUnits="userSpaceOnUse"/>
        <filter id="e" width="1.102" height="1.155" x="-.051" y="-.055" style="color-interpolation-filters:sRGB">
            <feFlood flood-color="#000" flood-opacity=".506" result="flood"/>
            <feComposite in="flood" in2="SourceGraphic" operator="in" result="composite1"/>
            <feGaussianBlur in="composite1" result="blur" stdDeviation="1.9"/>
            <feOffset dy="3.81" result="offset"/>
            <feComposite in="SourceGraphic" in2="offset" result="composite2"/>
        </filter>
    </defs>
    <rect width="105" height="105" x="11.5" y="15.5" rx="13" ry="13" style="fill:url(#c);fill-opacity:1"/>
    <rect width="105" height="105" x="11.5" y="7.5" rx="13" ry="13" style="fill:url(#d);fill-opacity:1"/>
    <rect width="100.755" height="100.755" x="13.622" y="9.622" rx="12" ry="12" style="fill:#d0c6fa;fill-opacity:1;stroke-width:.959575"/>
    <g style="filter:url(#e)">
        <path fill="#2c2255" d="M44.331 71.465H30.668c1.809 6.206 5.166 11.769 10.081 16.684 7.836 7.837 17.258 11.75 28.276 11.75 2.202 0 4.336-.165 6.409-.477 8.299-1.253 15.565-5.005 21.79-11.273 4.947-4.913 8.328-10.478 10.151-16.684H93.722z" style="stroke-width:.816036"/>
        <path fill="#2c2255" d="M36.797 52.907h-7.138a42 42 0 0 0-.52 4.811h79.774a41 41 0 0 0-.524-4.811M29.14 62.186a41 41 0 0 0 .52 4.811h78.731c.263-1.567.442-3.168.524-4.811"/>
        <path fill="#2c2255" d="M107.377 48.438c-1.822-6.223-5.203-11.811-10.153-16.761-6.209-6.209-13.454-9.935-21.726-11.188a43 43 0 0 0-6.473-.484q-16.525.001-28.276 11.672c-4.917 4.95-8.275 10.538-10.084 16.761" style="stroke-width:.816036"/>
        <path fill="#f7941e" d="M26.767 59.953c0-21.073 15.827-38.583 36.417-41.662-.511-.02-1.025-.04-1.54-.04-23.106 0-41.838 18.671-41.838 41.702 0 23.032 18.732 41.702 41.838 41.702.517 0 1.03-.019 1.543-.038-20.593-3.08-36.42-20.59-36.42-41.664"/>
        <g transform="translate(-38.19 -249.185)scale(.81604)">
            <linearGradient id="f" x1="502.385" x2="502.385" y1="-40.076" y2="-113.711" gradientTransform="translate(-371 474.5)" gradientUnits="userSpaceOnUse">
                <stop offset=".303" style="stop-color:#473788"/>
                <stop offset=".872" style="stop-color:#2c2255"/>
            </linearGradient>
            <path fill="url(#f)" d="M164.653 376.089a33.3 33.3 0 0 0-1.012-5.896h-64.51a33.3 33.3 0 0 0-1.013 5.896z" style="fill:url(#f)"/>
            <linearGradient id="g" x1="502.386" x2="502.386" y1="-40.075" y2="-113.71" gradientTransform="translate(-371 474.5)" gradientUnits="userSpaceOnUse">
                <stop offset=".303" style="stop-color:#473788"/>
                <stop offset=".872" style="stop-color:#2c2255"/>
            </linearGradient>
            <path fill="url(#g)" d="M164.653 381.565H98.119a33 33 0 0 0 1.012 5.896h64.511a33.3 33.3 0 0 0 1.011-5.896" style="fill:url(#g)"/>
            <linearGradient id="h" x1="502.386" x2="502.386" y1="-40.078" y2="-113.707" gradientTransform="translate(-371 474.5)" gradientUnits="userSpaceOnUse">
                <stop offset=".303" style="stop-color:#473788"/>
                <stop offset=".863" style="stop-color:#2c2255"/>
            </linearGradient>
            <path fill="url(#h)" d="M131.386 412.217c13.397 0 24.945-7.893 30.263-19.281h-60.526c5.318 11.388 16.866 19.281 30.263 19.281" style="fill:url(#h)"/>
        </g>
        <path fill="#fff" d="M37.855 62.186h71.004q.057-1.066.058-2.148c0-.78-.028-1.551-.072-2.322H29.139a41 41 0 0 0-.072 2.322q0 1.081.058 2.148zm6.317-13.748H30.665c-.444 1.455-.73 2.948-1.006 4.47h78.478a40 40 0 0 0-1.074-4.47m-4.057 18.558H29.658c.268 1.52.572 3.012 1.009 4.47h76.658a40 40 0 0 0 1.056-4.47z"/>
    </g>
</svg>
