<svg xmlns="http://www.w3.org/2000/svg" xmlns:xlink="http://www.w3.org/1999/xlink" width="128" height="128" viewBox="0 0 128 128">
    <defs>
        <linearGradient id="e">
            <stop offset="0" style="stop-color:#f9f9f9;stop-opacity:.79359257"/>
            <stop offset="1" style="stop-color:#f9f9f9;stop-opacity:.11613223"/>
        </linearGradient>
        <linearGradient id="d">
            <stop offset="0" style="stop-color:#267ce2;stop-opacity:1"/>
            <stop offset=".136" style="stop-color:#1655a1;stop-opacity:1"/>
            <stop offset="1" style="stop-color:#1655a1;stop-opacity:1"/>
        </linearGradient>
        <linearGradient id="c">
            <stop offset="0" style="stop-color:#b61017;stop-opacity:.99423302"/>
            <stop offset=".639" style="stop-color:#b61017;stop-opacity:1"/>
            <stop offset="1" style="stop-color:#ed2d36;stop-opacity:1"/>
        </linearGradient>
        <linearGradient id="b">
            <stop offset="0" style="stop-color:#733389;stop-opacity:1"/>
            <stop offset=".076" style="stop-color:#733389;stop-opacity:1"/>
            <stop offset=".223" style="stop-color:#9343af;stop-opacity:1"/>
            <stop offset=".39" style="stop-color:#733389;stop-opacity:1"/>
            <stop offset="1" style="stop-color:#733389;stop-opacity:1"/>
        </linearGradient>
        <linearGradient id="a">
            <stop offset="0" style="stop-color:#3483e3;stop-opacity:1"/>
            <stop offset=".424" style="stop-color:#32d079;stop-opacity:1"/>
            <stop offset=".561" style="stop-color:#32d079;stop-opacity:1"/>
            <stop offset="1" style="stop-color:#f7e35b;stop-opacity:1"/>
        </linearGradient>
        <linearGradient xlink:href="#a" id="h" x1="45.142" x2="82.363" y1="58.173" y2="58.173" gradientTransform="translate(3.527 -.276)scale(.94856)" gradientUnits="userSpaceOnUse"/>
        <linearGradient xlink:href="#b" id="g" x1="52.254" x2="103.246" y1="116.19" y2="116.19" gradientTransform="translate(3.292 -.48)scale(.94856)" gradientUnits="userSpaceOnUse"/>
        <linearGradient xlink:href="#c" id="i" x1="103.236" x2="116.252" y1="98.965" y2="98.965" gradientTransform="translate(3.292 -.48)scale(.94856)" gradientUnits="userSpaceOnUse"/>
        <linearGradient xlink:href="#d" id="f" x1="11.748" x2="52.699" y1="107.337" y2="107.337" gradientTransform="translate(3.292 -.48)scale(.94856)" gradientUnits="userSpaceOnUse"/>
        <linearGradient xlink:href="#e" id="j" x1="65.224" x2="65.224" y1="6.544" y2="122.624" gradientTransform="translate(3.062 -.612)scale(.94856)" gradientUnits="userSpaceOnUse"/>
    </defs>
    <path d="M14.512 83.814a14 14 0 0 0-.076.868v6.146a9.7 9.7 0 0 0 .302 2.297 10 10 0 0 0 .223.684 10 10 0 0 0 .621 1.5 10 10 0 0 0 .4.693 10 10 0 0 0 .99 1.291 10 10 0 0 0 .48.531 9.7 9.7 0 0 0 1.839 1.41l33.99 19.623a14 14 0 0 1-.418-.277l.008-.01-.014-.01v-1.843l.424.244a14 14 0 0 1-.424-.28V111l-.53-.305v.026l-5.755-3.326v.003L19.291 91.646a9.71 9.71 0 0 1-4.78-7.832" style="fill:url(#f);fill-opacity:1;stroke-width:.948563"/>
    <path d="M64.002 4.5a10 10 0 0 0-.867.113 10 10 0 0 0-1.364.18 9.7 9.7 0 0 0-2.08.782L29.926 22.671l-6.957 4.017-3.678 2.121-.009.006-.02.018a9.7 9.7 0 0 0-2.297 1.929 10 10 0 0 0-.543.71 9.7 9.7 0 0 0-1.117 1.936 10 10 0 0 0-.345.833 9.7 9.7 0 0 0-.524 2.978v46.02a9.7 9.7 0 0 0 .524 2.98 10 10 0 0 0 .348.838 9.7 9.7 0 0 0 1.114 1.93 10 10 0 0 0 .548.714 9.7 9.7 0 0 0 2.321 1.947l27.055 15.62 6.947 4.01.006.005 3.574 2.062 2.271 1.311h.002a9.7 9.7 0 0 0 2.857 1.04 10 10 0 0 0 .86.113 9.7 9.7 0 0 0 2.274 0 10 10 0 0 0 .86-.113 9.7 9.7 0 0 0 2.857-1.04l24.888-14.369 6.954-4.013 8.012-4.626a9.7 9.7 0 0 0 2.568-2.153l.028-.035a9.7 9.7 0 0 0 1.664-2.88l.014-.038a9.7 9.7 0 0 0 .582-3.303v-46.02a10 10 0 0 0-.022-.623l-.015-.166a10 10 0 0 0-.046-.447l-.032-.222a10 10 0 0 0-.068-.4l-.041-.21a10 10 0 0 0-.143-.574l-.002-.008-.04-.131a10 10 0 0 0-.147-.454l-.08-.211a10 10 0 0 0-.159-.393l-.076-.174a10 10 0 0 0-.183-.378l-.11-.215-.007-.015a10 10 0 0 0-.28-.483l-.11-.17a10 10 0 0 0-.22-.327l-.166-.226a10 10 0 0 0-.222-.285l-.158-.19a10 10 0 0 0-.235-.264l-.189-.204-.052-.05a10 10 0 0 0-.369-.356l-.113-.1a10 10 0 0 0-.359-.303l-.178-.137a10 10 0 0 0-.32-.236l-.186-.128a10 10 0 0 0-.407-.255l-.1-.063-.02-.011-27.055-15.62-.054-.032-.116-.066-6.809-3.88-6.42-3.659-.005-.004-.019-.007a9.7 9.7 0 0 0-2.025-.752 9.7 9.7 0 0 0-1.665-.22A10 10 0 0 0 64 4.5Zm-35.53 20.4a14 14 0 0 0-2.846.606l.002-.002a14 14 0 0 1 2.843-.604m18.254 77.377a14 14 0 0 0 .46 1.715l-.003-.002a14 14 0 0 1-.457-1.714z" style="fill:#333;stroke-width:1.87812"/>
    <path d="M113.565 46.467a13.91 13.91 0 0 1-6.954 12.046L72.82 78.023a17.66 17.66 0 0 1-17.416.126L64 83.115l29.743 17.173 14.965-8.64a9.71 9.71 0 0 0 4.856-8.41V54.5Z" style="fill:#ee4149;fill-opacity:.994233;stroke:none;stroke-width:0;stroke-miterlimit:4;stroke-dasharray:none;stroke-opacity:1"/>
    <path d="m101.227 95.969-.008.002-12.18 7.03-.225.132-19.959 11.523a9.71 9.71 0 0 1-9.709 0l-6.287-3.629h-.002l-2.613-1.51-.115-.066-1.777-1.027-2.006-1.156v7.586l2.006 1.158 1.777 1.025 2.742 1.533a14 14 0 0 0 .412.29l5.863 3.384a9.7 9.7 0 0 0 2.137.887 10 10 0 0 0 .717.15 10 10 0 0 0 1.59.211 10 10 0 0 0 .82 0 10 10 0 0 0 1.592-.21 10 10 0 0 0 .715-.151 9.7 9.7 0 0 0 2.113-.875l.024-.012 13.22-7.63 11.668-6.739 3.127-1.805 3.815-2.203.543-.312z" style="fill:url(#g);fill-opacity:1;stroke-width:.948563"/>
    <path d="M64.001 4.5a9.7 9.7 0 0 0-4.31 1.075L29.926 22.67l-6.956 4.016a13.91 13.91 0 0 1 13.912 0L64 42.342l8.825 5.097a17.66 17.66 0 0 1 8.826 15.026l.002-9.929V21.222a13.82 13.82 0 0 0-6.979-12.01L68.251 5.55A9.7 9.7 0 0 0 64 4.5m17.651 57.965-.001.259.001.006z" style="fill:#f9e76e;fill-opacity:.994233;stroke:none;stroke-width:0;stroke-miterlimit:4;stroke-dasharray:none;stroke-opacity:1"/>
    <path d="M74.675 9.212a13.82 13.82 0 0 1 6.98 12.01v41.506a17.66 17.66 0 0 1-8.6 15.157l8.6-4.964 19.818-11.44 5.138-2.968a13.91 13.91 0 0 0 6.954-12.046V37.22a9.71 9.71 0 0 0-4.836-8.399l-.02-.012-27.054-15.62-.055-.031zm-1.62 68.673-.225.127-.004.004z" style="fill:#ffa44b;fill-opacity:.994233;stroke:none;stroke-width:0;stroke-miterlimit:4;stroke-dasharray:none;stroke-opacity:1"/>
    <path d="M30.653 24.844a14 14 0 0 0-2.182.057 13.9 13.9 0 0 0-5.501 1.786l-3.687 2.128a9.71 9.71 0 0 0-4.848 8.405v41.771a13.91 13.91 0 0 1 6.958-12.049l24.953-14.406 8.854-5.112a17.66 17.66 0 0 1 17.396-.116l-8.595-4.966h-.002L36.882 26.687a13.9 13.9 0 0 0-6.229-1.843" style="fill:#38c676;fill-opacity:.994233;stroke:none;stroke-width:0;stroke-miterlimit:4;stroke-dasharray:none;stroke-opacity:1"/>
    <path d="m55.174 47.441-.229.131.225-.127zm-.229.131-8.6 4.963-24.952 14.406a13.91 13.91 0 0 0-6.957 12.05v4.247a9.71 9.71 0 0 0 4.855 8.408L41.205 104.3l5.14 2.969.227.13 3.557 2.053.115.067 3.049 1.761a13.9 13.9 0 0 1-4.527-4.293h.002a14 14 0 0 1-.995-1.73 14 14 0 0 1-.265-.569 14 14 0 0 1-.483-1.285 14 14 0 0 1-.355-1.328 14 14 0 0 1-.139-.709 14 14 0 0 1-.185-2.13V62.73a17.66 17.66 0 0 1 8.6-15.158" style="fill:#5296e8;fill-opacity:.994233;stroke:none;stroke-width:0;stroke-miterlimit:4;stroke-dasharray:none;stroke-opacity:1"/>
    <path d="M64 45.074a17.654 17.654 0 0 0-17.654 17.654 18 18 0 0 0 .065.906 18 18 0 0 0-.065.99 18 18 0 0 0 .144 2.007A17.654 17.654 0 0 1 64 50.987 17.654 17.654 0 0 1 81.52 66.51a18 18 0 0 0 .134-1.884 18 18 0 0 0-.065-.982 18 18 0 0 0 .065-.915A17.654 17.654 0 0 0 64 45.074" style="opacity:.5;fill:url(#h);fill-opacity:1;stroke:none;stroke-width:0;stroke-miterlimit:4;stroke-dasharray:none;stroke-opacity:1"/>
    <path d="M46.348 62.729v.263l.002-.258zm0 .263-.002 9.93v34.346l2.006 1.156 1.777 1.027.094.055 2.636 1.521.434.25.006.004.002.002 5.844 3.373a9.71 9.71 0 0 0 9.71 0l24.89-14.369 6.95-4.014a13.91 13.91 0 0 1-13.906-.002L55.174 78.018a17.66 17.66 0 0 1-8.826-15.026" style="fill:#9e55b3;fill-opacity:.994233;stroke:none;stroke-width:0;stroke-miterlimit:4;stroke-dasharray:none;stroke-opacity:1"/>
    <path d="M113.564 83.236a9.71 9.71 0 0 1-4.855 8.41l-7.49 4.325.008-.002-.532.304v7.586l.532-.306 7.482-4.319a9.7 9.7 0 0 0 1.842-1.414 10 10 0 0 0 .465-.511 9.7 9.7 0 0 0 1.007-1.317 10 10 0 0 0 .39-.672 9.7 9.7 0 0 0 .634-1.535 10 10 0 0 0 .213-.652 9.7 9.7 0 0 0 .304-2.307z" style="fill:url(#i);fill-opacity:.994233;stroke:none;stroke-width:0;stroke-miterlimit:4;stroke-dasharray:none;stroke-opacity:1"/>
    <path d="M63.772 4.368a9.7 9.7 0 0 0-4.311 1.074L29.696 22.54l-6.957 4.016-3.686 2.127a9.71 9.71 0 0 0-4.847 8.406v46.018a9.71 9.71 0 0 0 4.856 8.41l27.054 15.62 6.948 4.01.005.004.002.002 5.845 3.372a9.71 9.71 0 0 0 9.708 0l24.889-14.37.002.003 6.951-4.015 8.013-4.626a9.71 9.71 0 0 0 4.856-8.41V37.089a9.71 9.71 0 0 0-4.836-8.4l-.02-.011-27.055-15.62-.053-.032-6.926-3.946-6.425-3.662a9.7 9.7 0 0 0-4.248-1.05m0 1.762a9.4 9.4 0 0 1 4.113 1.015l6.223 3.548 6.707 3.822.052.03 26.198 15.125.019.01a9.4 9.4 0 0 1 4.683 8.136v44.561a9.4 9.4 0 0 1-4.702 8.145l-7.759 4.48-6.732 3.887-.002-.002-24.102 13.915a9.4 9.4 0 0 1-9.4 0l-5.66-3.264-.002-.002-.005-.006-6.73-3.883-26.198-15.125a9.4 9.4 0 0 1-4.702-8.144V37.815a9.4 9.4 0 0 1 4.693-8.14l3.57-2.058 6.738-3.89L59.598 7.17a9.4 9.4 0 0 1 4.174-1.041m-35.53 18.638a14 14 0 0 0-2.846.605l.002-.001a14 14 0 0 1 2.844-.604m1.124 1.117a13.5 13.5 0 0 0-2.755.585l-.001.002a13.5 13.5 0 0 1 2.756-.587m22.675 23.664-5.367 3.097 5.36-3.092zm28.826 3.097-.002 5.846.002.009zM91.01 66.534l-10.143 5.853-4.55 2.627-.004.003zm-44.336.157v5.696l.002-5.686zm.369 34.123a14 14 0 0 0 .442 1.66l.002.002a14 14 0 0 1-.444-1.662" style="mix-blend-mode:soft-light;fill:url(#j);fill-opacity:1;stroke:none;stroke-width:0;stroke-miterlimit:4;stroke-dasharray:none;stroke-opacity:1"/>
</svg>
