<svg xmlns="http://www.w3.org/2000/svg" xmlns:xlink="http://www.w3.org/1999/xlink" width="128" height="128" viewBox="0 0 128 128">
    <defs>
        <linearGradient id="a">
            <stop offset="0" style="stop-color:#999;stop-opacity:1"/>
            <stop offset=".05" style="stop-color:#b3b3b3;stop-opacity:1"/>
            <stop offset=".1" style="stop-color:#999;stop-opacity:1"/>
            <stop offset=".9" style="stop-color:#999;stop-opacity:1"/>
            <stop offset=".95" style="stop-color:#b3b3b3;stop-opacity:1"/>
            <stop offset="1" style="stop-color:#999;stop-opacity:1"/>
        </linearGradient>
        <linearGradient xlink:href="#a" id="b" x1="11.5" x2="116.5" y1="120.5" y2="120.5" gradientUnits="userSpaceOnUse"/>
    </defs>
    <rect width="105" height="105" x="11.5" y="15.5" rx="8" ry="8" style="fill:url(#b);fill-opacity:1"/>
    <path d="M19.5 7.5c-4.432 0-8 3.568-8 8v89c0 4.432 3.568 8 8 8h89c4.432 0 8-3.568 8-8v-89c0-4.432-3.568-8-8-8zM43 32.691h42c2.216 0 4 2.018 4 4.524v13.57c0 2.506-1.784 4.524-4 4.524H43c-2.216 0-4-2.018-4-4.524v-13.57c0-2.506 1.784-4.524 4-4.524m0 40h42c2.216 0 4 2.018 4 4.524v13.57c0 2.506-1.784 4.524-4 4.524H43c-2.216 0-4-2.018-4-4.524v-13.57c0-2.506 1.784-4.524 4-4.524" style="fill:#f2f2f2;fill-opacity:1"/>
    <rect width="105" height="105" x="11.5" y="7.5" rx="8" ry="8" style="fill:#ececec;stroke-width:.315585"/>
    <rect width="53.373" height="26.686" x="37.314" y="27.657" rx="10" ry="10" style="fill:#42a5f5;fill-opacity:1;stroke-width:.235066"/>
    <path d="M75.22 31.657A11.196 11.196 0 0 0 64 42.878v4.244c0 2.755.985 5.272 2.621 7.22h14.065c5.54 0 10-4.46 10-10v-1.464c0-6.216-5.003-11.22-11.22-11.22z" style="fill:#b3b3b3;stroke-width:.224406"/>
    <path d="M47.314 27.657c-5.54 0-10 4.46-10 10v6c0-5.54 4.46-10 10-10h33.372c5.54 0 10 4.46 10 10v-6c0-5.54-4.46-10-10-10z" style="fill:#1565c0;fill-opacity:1;stroke-width:.235066"/>
    <rect width="26.686" height="26.686" x="64" y="25.657" rx="11.22" ry="11.22" style="fill:#f9f9f9;stroke-width:.224406"/>
    <rect width="53.373" height="26.686" x="37.314" y="67.657" rx="10" ry="10" style="fill:#999;stroke-width:.235066"/>
    <path d="M47.314 67.657c-5.54 0-10 4.46-10 10v6c0-5.54 4.46-10 10-10h33.372c5.54 0 10 4.46 10 10v-6c0-5.54-4.46-10-10-10z" style="fill:#666;fill-opacity:1;stroke-width:.235066"/>
    <path d="M48.533 71.657a11.195 11.195 0 0 0-11.219 11.22v1.465c0 5.54 4.46 10 10 10H61.38A11.18 11.18 0 0 0 64 87.124v-4.246a11.197 11.197 0 0 0-11.22-11.221Z" style="fill:#b3b3b3;fill-opacity:1;stroke-width:.224406"/>
    <rect width="26.686" height="26.686" x="37.314" y="65.657" rx="11.22" ry="11.22" style="fill:#f9f9f9;stroke-width:.224406"/>
</svg>
