<svg xmlns="http://www.w3.org/2000/svg" xmlns:xlink="http://www.w3.org/1999/xlink" xml:space="preserve" width="128" height="128" viewBox="0 0 128 128">
    <defs>
        <linearGradient id="b">
            <stop offset="0" style="stop-color:#7bb2ff;stop-opacity:1"/>
            <stop offset="1" style="stop-color:#66a5ff;stop-opacity:1"/>
        </linearGradient>
        <linearGradient id="a">
            <stop offset="0" style="stop-color:#3aaa67;stop-opacity:1"/>
            <stop offset="1" style="stop-color:#60c98b;stop-opacity:1"/>
        </linearGradient>
        <linearGradient xlink:href="#a" id="f" x1="65.293" x2="65.293" y1="45.426" y2="60.241" gradientTransform="rotate(-6.613 82.324 50.303)scale(.95082)" gradientUnits="userSpaceOnUse"/>
        <linearGradient xlink:href="#b" id="e" x1="70.963" x2="70.963" y1="38.479" y2="16.796" gradientTransform="translate(-6.34 9.145)scale(.95082)" gradientUnits="userSpaceOnUse"/>
        <filter id="d" width="1.414" height="1.414" x="-.207" y="-.207" style="color-interpolation-filters:sRGB">
            <feGaussianBlur stdDeviation="1.937"/>
        </filter>
        <filter id="c" width="1.087" height="1.07" x="-.043" y="-.035" style="color-interpolation-filters:sRGB">
            <feGaussianBlur stdDeviation="1.616"/>
        </filter>
    </defs>
    <path d="M29.145 14.5c-3.643 0-6.575 2.895-6.575 6.492v97.016c0 3.597 2.932 6.492 6.575 6.492H89.54l22.477-22.477v-81.03c0-3.598-2.934-6.493-6.577-6.493h-8.568z" style="mix-blend-mode:normal;fill:#3e3e3e;fill-opacity:.56;stroke-width:.944695;filter:url(#c)" transform="rotate(198.411 63.865 65.173)scale(.95082)"/>
    <path d="M45.514.987C42.624.63 39.816 2.31 38.87 5.15L9.737 92.672a6 6 0 0 0-.277 1.348c-.368 2.877 1.35 5.7 4.244 6.664l7.73 2.574 61.103 20.34c3.286 1.094 6.799-.638 7.88-3.883L119.55 32.19c.149-.447.232-.898.276-1.348.368-2.877-1.351-5.7-4.245-6.664l-7.729-2.571L46.75 1.267a6.4 6.4 0 0 0-1.237-.281" style="fill:#d0d0d0;fill-opacity:1;stroke-width:.898233"/>
    <path d="M45.157 2.02c-2.357-.291-4.65 1.083-5.42 3.4L10.59 92.975c-.125.375-.19.754-.224 1.132-.302 2.348 1.098 4.656 3.46 5.442l6.887 2.29 62.408 20.776c2.681.892 5.548-.523 6.43-3.17l29.145-87.559c.125-.375.191-.752.226-1.13.301-2.348-1.099-4.655-3.46-5.442l-6.887-2.29L46.166 2.248a5.2 5.2 0 0 0-1.01-.23" style="fill:#afafaf;fill-opacity:1;stroke-width:.879043"/>
    <path d="M29.145 14.5c-3.643 0-6.575 2.895-6.575 6.492v97.016c0 3.597 2.932 6.492 6.575 6.492H89.54l22.477-22.477v-81.03c0-3.598-2.934-6.493-6.577-6.493h-8.568z" style="mix-blend-mode:normal;fill:#3e3e3e;fill-opacity:.56;stroke-width:.944695;filter:url(#c)" transform="rotate(186.496 63.902 65.242)scale(.95082)"/>
    <path d="M33.453 6.434c-3.444-.372-6.512 2.066-6.88 5.467l-.862 7.998-7.41 68.602.076.095-.794 6.964-.91 7.993c-.387 3.399 2.072 6.449 5.514 6.84l8.094.922 63.985 7.286c3.441.392 6.521-2.028 6.908-5.427l.05-.427v-.002l.005-.046 10.381-91.177c.249-2.178-.68-4.202-2.28-5.486a6.25 6.25 0 0 0-3.752-1.811L41.553 7.309Z" style="fill:#f1f1f1;fill-opacity:1;stroke-width:.898233"/>
    <path d="M33.092 7.519c-2.809-.304-5.314 1.687-5.614 4.461l-.77 7.122-7.602 70.4.071.086-.794 6.969-.81 7.118c-.316 2.773 1.692 5.264 4.499 5.584l7.211.82 65.353 7.44c2.807.32 5.32-1.655 5.636-4.427l.05-.422v-.004l.008-.072 10.383-91.192c.203-1.785-.563-3.444-1.878-4.49a5.1 5.1 0 0 0-3.131-1.551L40.307 8.299Z" style="fill:#d5d5d5;fill-opacity:1;stroke-width:.879043"/>
    <path d="m86.537 118.416 22.477-22.477H93.113c-3.642 0-6.576 2.895-6.576 6.492v8.461z" style="mix-blend-mode:normal;fill:#757575;fill-opacity:.698262;filter:url(#d)" transform="rotate(1.813 434.147 -101.93)scale(1.0266)"/>
    <path d="M29.145 14.5c-3.643 0-6.575 2.895-6.575 6.492v97.016c0 3.597 2.932 6.492 6.575 6.492H89.54l22.477-22.477v-81.03c0-3.598-2.934-6.493-6.577-6.493h-8.568z" style="mix-blend-mode:normal;fill:#3c3c3c;fill-opacity:.56;stroke-width:.944695;filter:url(#c)" transform="rotate(-6.613 50.122 68.799)scale(.95082)"/>
    <path d="M21.323 14.87c-3.44.4-5.892 3.455-5.498 6.852l10.622 91.63c.394 3.399 3.48 5.812 6.92 5.413l57.045-6.613 18.768-23.69-7.946-68.542-.927-7.991c-.394-3.398-3.481-5.811-6.922-5.412l-8.093.938z" style="fill:#fff;fill-opacity:1;stroke-width:.898233"/>
    <path d="M21.208 16.008c-2.806.325-4.806 2.82-4.485 5.592l10.627 91.667c.321 2.772 2.839 4.743 5.646 4.417l58.396-6.77 16.99-21.445-8.154-70.337-.825-7.117c-.321-2.772-2.84-4.743-5.648-4.418l-7.209.836z" style="fill:#efefef;fill-opacity:1;stroke-width:.879043"/>
    <rect width="61.072" height="37.496" x="25.206" y="25.116" rx="3.351" ry="3.309" style="fill:url(#e);fill-opacity:.740749;stroke-width:1.54813" transform="rotate(-6.613)"/>
    <path d="M47.445 30.207a5.6 5.6 0 0 0-3.785 2.138L31.004 48.559l.863 7.446c.211 1.82 1.866 3.115 3.71 2.902l54.008-6.262c1.844-.213 3.159-1.852 2.948-3.673l-.814-7.018-6.261-5.036a5.59 5.59 0 0 0-7.953.922l-6.907 8.85-18.982-15.267a5.6 5.6 0 0 0-4.171-1.216" style="fill:url(#f);fill-opacity:1;stroke-width:2.55324"/>
    <ellipse cx="65.771" cy="37.46" rx="5.802" ry="5.73" style="fill:#f9e677;fill-opacity:1;stroke-width:1.46117" transform="rotate(-6.613)"/>
    <path d="m90.412 112.152 18.768-23.69-6.926.803-8.092.938c-3.44.399-5.894 3.454-5.5 6.852l.926 7.991z" style="fill:#fff;fill-opacity:1;stroke-width:.950817"/>
    <path d="M91.21 111.145 108.2 89.7l-6.942.805-7.21.836c-2.806.325-4.808 2.82-4.487 5.592l.825 7.117z" style="fill:#cbcbcb;fill-opacity:1;stroke-width:.950817"/>
    <path d="m34.197 68.62 59.441-6.952M35.25 77.623l59.442-6.952M36.304 86.626l59.442-6.953M37.358 95.629l43.445-5.082m-42.391 14.084 43.445-5.082" style="fill:#cbcbcb;fill-opacity:1;fill-rule:evenodd;stroke:#cbcbcb;stroke-width:3;stroke-linecap:round;stroke-linejoin:miter;stroke-dasharray:none;stroke-opacity:1;paint-order:normal"/>
</svg>
