<svg xmlns="http://www.w3.org/2000/svg" xmlns:xlink="http://www.w3.org/1999/xlink" xml:space="preserve" width="128" height="128" viewBox="0 0 128 128">
    <defs>
        <linearGradient id="d">
            <stop offset="0" style="stop-color:#976652;stop-opacity:1"/>
            <stop offset="1" style="stop-color:#644437;stop-opacity:1"/>
        </linearGradient>
        <linearGradient id="c">
            <stop offset="0" style="stop-color:#c59683;stop-opacity:1"/>
            <stop offset="1" style="stop-color:#a48273;stop-opacity:1"/>
        </linearGradient>
        <linearGradient id="b">
            <stop offset="0" style="stop-color:#65ca79;stop-opacity:1"/>
            <stop offset="1" style="stop-color:#3aae51;stop-opacity:1"/>
        </linearGradient>
        <linearGradient id="a">
            <stop offset="0" style="stop-color:#976652;stop-opacity:1"/>
            <stop offset=".049" style="stop-color:#ab745d;stop-opacity:1"/>
            <stop offset=".1" style="stop-color:#976652;stop-opacity:1"/>
            <stop offset=".9" style="stop-color:#976652;stop-opacity:1"/>
            <stop offset=".949" style="stop-color:#ab745d;stop-opacity:1"/>
            <stop offset="1" style="stop-color:#976652;stop-opacity:1"/>
        </linearGradient>
        <linearGradient xlink:href="#a" id="g" x1="11.5" x2="116.5" y1="79.516" y2="79.516" gradientTransform="matrix(1.05658 0 0 .95553 -3.621 6.728)" gradientUnits="userSpaceOnUse"/>
        <linearGradient xlink:href="#b" id="f" x1="63.916" x2="63.916" y1="23.409" y2="42.128" gradientTransform="matrix(.79323 0 0 .94227 13.196 -1.196)" gradientUnits="userSpaceOnUse"/>
        <linearGradient xlink:href="#c" id="h" x1="65.356" x2="65.356" y1="103.256" y2="25.253" gradientTransform="matrix(1.05658 0 0 1.02346 -3.621 -1.492)" gradientUnits="userSpaceOnUse"/>
        <linearGradient xlink:href="#d" id="e" x1="64" x2="64" y1="55.432" y2="66.25" gradientUnits="userSpaceOnUse"/>
    </defs>
    <path d="m8.53 60.126 8.711-8.712h93.492l8.738 8.738v26.81H8.529Z" style="fill:url(#e);fill-opacity:1;stroke:none;stroke-width:2.5;stroke-linecap:round"/>
    <path d="M32.04 13.1c-4.272 0-7.711 3.699-7.711 8.292v30.87h78.958v-25.26c0-4.256-3.44-7.683-7.712-7.683H55.904l-5.782-6.218z" style="fill:url(#f);fill-opacity:1;stroke-width:.0499703"/>
    <path d="M8.53 60.126V113.8c0 4.752 3.77 8.577 8.452 8.577h94.036c4.683 0 8.453-3.825 8.453-8.577V60.126Z" style="fill:url(#g);fill-opacity:1;stroke-width:.893485"/>
    <path d="M27.086 27.088c-4.952 0-8.94 3.699-8.94 8.291V66.25h91.54V40.99c0-4.256-3.988-7.683-8.94-7.683H54.753l-6.704-6.219z" style="fill:#d3c66d;fill-opacity:1;stroke-width:.0538049"/>
    <path d="M27.08 27.09c-4.953 0-8.94 3.698-8.94 8.29v1.544c0-4.593 3.987-8.29 8.94-8.29h20.968l6.705 6.216h46c4.954 0 8.943 3.427 8.943 7.683V40.99c0-4.256-3.989-7.683-8.942-7.683h-46l-6.706-6.216z" style="fill:#fff;fill-opacity:.65994;stroke-width:.0538089"/>
    <path d="M32.04 13.102c-4.272 0-7.71 3.697-7.71 8.29v1.543c0-4.593 3.438-8.29 7.71-8.29h18.082l5.783 6.217h39.671c4.272 0 7.712 3.426 7.712 7.682v-1.542c0-4.257-3.44-7.683-7.712-7.683H55.905l-5.783-6.217z" style="fill:#fff;fill-opacity:.659136;stroke-width:.0499703"/>
    <path d="M24.543 39.988c-5.306 0-9.578 3.698-9.578 8.291v30.87h98.07V53.89c0-4.256-4.272-7.683-9.578-7.683H54.183l-7.181-6.219z" style="fill:#629df6;fill-opacity:1;stroke-width:.0556903"/>
    <path d="M14.965 59.113V61.3h98.069v-1.44q0-.379-.051-.747z" style="fill:#000;fill-opacity:.146083;stroke-width:.783214"/>
    <path d="M24.542 39.99c-5.305 0-9.576 3.697-9.576 8.29v1.542c0-4.592 4.27-8.29 9.576-8.29h22.46l7.182 6.217h49.274c5.305 0 9.578 3.427 9.578 7.683v-1.543c0-4.256-4.273-7.683-9.578-7.683H54.184l-7.182-6.216z" style="fill:#fff;fill-opacity:.714176;stroke-width:.0556903"/>
    <path d="M8.53 60.126v41.237c0 4.512 3.77 8.145 8.452 8.145h94.036c4.683 0 8.453-3.633 8.453-8.145V60.126Z" style="fill:url(#h);fill-opacity:1;stroke-width:.822203"/>
    <path d="M64 73.043v-3.8" style="fill:#fff;fill-opacity:1;stroke-width:.215649"/>
    <path d="M8.53 60.126v2.239h110.94v-2.239Z" style="fill:#f3b9a6;fill-opacity:1;stroke-width:.798116"/>
    <path d="M52.573 60.207v30.412l5.406-5.777 4.665 5.777 4.697-5.77 4.254 5.77 3.832-5.469V60.207Z" style="fill:#fff;fill-opacity:.64971334;stroke:none;stroke-width:3.82922;stroke-linecap:round;stroke-opacity:.794613"/>
    <path d="m57.98 84.842-5.407 5.777v2l5.406-5.777 4.665 5.777 4.697-5.77 4.254 5.77 3.832-5.469v-2l-3.832 5.47-4.254-5.77-4.697 5.77z" style="fill:#000;fill-opacity:.13399;stroke:none;stroke-width:3.82922;stroke-linecap:round;stroke-opacity:.794613"/>
    <path d="M24.542 36.705c-2.466 0-4.7.805-6.395 2.121v3.283c1.694-1.316 3.929-2.12 6.395-2.12H47l7.183 6.216h49.275c2.385 0 4.554.697 6.227 1.846v-3.283c-1.673-1.149-3.842-1.844-6.227-1.844H54.183L47 36.705z" style="fill:#000;fill-opacity:.0452163;stroke-width:.0556903"/>
    <path d="M27.087 23.95c-.963 0-1.89.144-2.758.404v3.136a9.6 9.6 0 0 1 2.758-.402h20.964l6.701 6.219h45.995c.883 0 1.734.113 2.54.316v-3.137a10.4 10.4 0 0 0-2.54-.318H54.752l-6.701-6.219z" style="fill:#000;fill-opacity:.0452163;stroke-width:.0538049"/>
</svg>
