<svg xmlns="http://www.w3.org/2000/svg" xmlns:xlink="http://www.w3.org/1999/xlink" xml:space="preserve" width="128" height="128" viewBox="0 0 128 128">
    <defs>
        <linearGradient id="c">
            <stop offset="0" style="stop-color:#fff;stop-opacity:1"/>
            <stop offset="1" style="stop-color:#fcfcfc;stop-opacity:1"/>
        </linearGradient>
        <linearGradient id="e">
            <stop offset="0" style="stop-color:#fff;stop-opacity:0"/>
            <stop offset=".785" style="stop-color:#fff;stop-opacity:0"/>
            <stop offset=".902" style="stop-color:#fff;stop-opacity:.4751862"/>
        </linearGradient>
        <linearGradient id="d">
            <stop offset="0" style="stop-color:#f8f7f5;stop-opacity:.50157708"/>
            <stop offset=".466" style="stop-color:#f8f7f5;stop-opacity:.35415858"/>
            <stop offset="1" style="stop-color:#f8f7f5;stop-opacity:0"/>
        </linearGradient>
        <linearGradient id="b">
            <stop offset="0" style="stop-color:#fff;stop-opacity:1"/>
            <stop offset="1" style="stop-color:#3e3e3e;stop-opacity:0"/>
        </linearGradient>
        <linearGradient id="a">
            <stop offset=".896" style="stop-color:#bdbdbd;stop-opacity:1"/>
            <stop offset=".947" style="stop-color:#d9d9d9;stop-opacity:1"/>
            <stop offset="1" style="stop-color:#bdbdbd;stop-opacity:1"/>
        </linearGradient>
        <linearGradient xlink:href="#a" id="f" x1="-108" x2="-4" y1="64.675" y2="64.675" gradientTransform="matrix(-.8548 0 0 1 16.131 .52)" gradientUnits="userSpaceOnUse"/>
        <linearGradient xlink:href="#b" id="i" x1="-87.078" x2="-49.73" y1="80.757" y2="43.41" gradientTransform="translate(-119.328 -.69)" gradientUnits="userSpaceOnUse"/>
        <linearGradient xlink:href="#c" id="g" x1="64" x2="64" y1="8.676" y2="112.676" gradientTransform="matrix(-.8548 0 0 1 118.707 2)" gradientUnits="userSpaceOnUse"/>
        <radialGradient xlink:href="#d" id="k" cx="72.577" cy="60.252" r="13.306" fx="72.577" fy="60.252" gradientTransform="translate(83.48 -30.45)scale(1.49392)" gradientUnits="userSpaceOnUse"/>
        <radialGradient xlink:href="#e" id="j" cx="-72.577" cy="58.252" r="30.118" fx="-72.577" fy="58.252" gradientTransform="translate(-119.328 -.69)" gradientUnits="userSpaceOnUse"/>
        <filter id="h" width="1.19" height="1.308" x="-.088" y="-.087" style="color-interpolation-filters:sRGB">
            <feFlood flood-color="#000" flood-opacity=".357" result="flood"/>
            <feComposite in="flood" in2="SourceGraphic" operator="in" result="composite1"/>
            <feGaussianBlur in="composite1" result="blur" stdDeviation="2"/>
            <feOffset dy="6.533" result="offset"/>
            <feComposite in="SourceGraphic" in2="offset" result="composite2"/>
        </filter>
        <filter id="l" width="1.511" height="3.254" x="-.256" y="-1.127" style="color-interpolation-filters:sRGB">
            <feGaussianBlur stdDeviation="3.669"/>
        </filter>
    </defs>
    <path d="m84.996 13.195 23.454 27.44v68.56c0 4.432-3.05 8-6.839 8H26.39c-3.789 0-6.839-3.568-6.839-8v-88c0-4.432 3.05-8 6.839-8z" style="display:inline;fill:url(#f);stroke-width:.349438;stroke-linecap:round;stroke-linejoin:round;enable-background:new"/>
    <path d="m82.842 10.676 25.608 29.959v66.04c0 4.433-3.05 8-6.839 8H26.39c-3.789 0-6.839-3.567-6.839-8v-88c0-4.431 3.05-8 6.839-8z" style="display:inline;fill:url(#g);fill-opacity:1;stroke-width:.349438;stroke-linecap:round;stroke-linejoin:round;enable-background:new"/>
    <path d="m84.081 12.125 23.128 27.059v66.263c0 4.309-2.963 7.778-6.646 7.778H27.437c-3.683 0-6.646-3.47-6.646-7.778V19.902c0-4.308 2.963-7.777 6.646-7.777z" style="display:inline;fill:#f4f4f4;fill-opacity:1;stroke-width:.33969;stroke-linecap:round;stroke-linejoin:round;enable-background:new"/>
    <rect width="61.248" height="3.528" x="-94.624" y="97.499" rx="1.764" ry="1.764" style="fill:#d9d9d9;fill-opacity:1;stroke-width:1.18471;stroke-linecap:round" transform="scale(-1 1)"/>
    <path d="M98.152 99.263a1.764 1.764 0 0 0 1.764 1.764 1.764 1.764 0 0 0 1.764-1.764 1.764 1.764 0 0 0-1.764-1.764 1.764 1.764 0 0 0-1.764 1.764m-71.832 0a1.764 1.764 0 0 0 1.764 1.764 1.764 1.764 0 0 0 1.764-1.764 1.764 1.764 0 0 0-1.764-1.764 1.764 1.764 0 0 0-1.764 1.764" style="fill:#cbcbcb;fill-opacity:1;stroke-width:1.01162;stroke-linecap:round"/>
    <rect width="61.248" height="3.528" x="-94.624" y="88.352" rx="1.764" ry="1.764" style="fill:#d9d9d9;fill-opacity:1;stroke-width:1.18471;stroke-linecap:round" transform="scale(-1 1)"/>
    <path d="M98.152 90.116a1.764 1.764 0 0 0 1.764 1.764 1.764 1.764 0 0 0 1.764-1.764 1.764 1.764 0 0 0-1.764-1.764 1.764 1.764 0 0 0-1.764 1.764m-71.832 0a1.764 1.764 0 0 0 1.764 1.764 1.764 1.764 0 0 0 1.764-1.764 1.764 1.764 0 0 0-1.764-1.764 1.764 1.764 0 0 0-1.764 1.764" style="fill:#cbcbcb;fill-opacity:1;stroke-width:1.01162;stroke-linecap:round"/>
    <rect width="61.248" height="3.528" x="-94.624" y="79.205" rx="1.764" ry="1.764" style="fill:#d9d9d9;fill-opacity:1;stroke-width:1.18471;stroke-linecap:round" transform="scale(-1 1)"/>
    <path d="M98.152 80.969a1.764 1.764 0 0 0 1.764 1.764 1.764 1.764 0 0 0 1.764-1.764 1.764 1.764 0 0 0-1.764-1.764 1.764 1.764 0 0 0-1.764 1.764m-71.832 0a1.764 1.764 0 0 0 1.764 1.764 1.764 1.764 0 0 0 1.764-1.764 1.764 1.764 0 0 0-1.764-1.764 1.764 1.764 0 0 0-1.764 1.764" style="fill:#cbcbcb;fill-opacity:1;stroke-width:1.01162;stroke-linecap:round"/>
    <rect width="61.248" height="3.528" x="-94.624" y="70.058" rx="1.764" ry="1.764" style="fill:#d9d9d9;fill-opacity:1;stroke-width:1.18471;stroke-linecap:round" transform="scale(-1 1)"/>
    <path d="M98.152 71.822a1.764 1.764 0 0 0 1.764 1.764 1.764 1.764 0 0 0 1.764-1.764 1.764 1.764 0 0 0-1.764-1.764 1.764 1.764 0 0 0-1.764 1.764m-71.832 0a1.764 1.764 0 0 0 1.764 1.764 1.764 1.764 0 0 0 1.764-1.764 1.764 1.764 0 0 0-1.764-1.764 1.764 1.764 0 0 0-1.764 1.764" style="fill:#cbcbcb;fill-opacity:1;stroke-width:1.01162;stroke-linecap:round"/>
    <rect width="61.248" height="3.528" x="-94.624" y="60.911" rx="1.764" ry="1.764" style="fill:#d9d9d9;fill-opacity:1;stroke-width:1.18471;stroke-linecap:round" transform="scale(-1 1)"/>
    <path d="M98.152 62.675a1.764 1.764 0 0 0 1.764 1.764 1.764 1.764 0 0 0 1.764-1.764 1.764 1.764 0 0 0-1.764-1.764 1.764 1.764 0 0 0-1.764 1.764m-71.832 0a1.764 1.764 0 0 0 1.764 1.764 1.764 1.764 0 0 0 1.764-1.764 1.764 1.764 0 0 0-1.764-1.764 1.764 1.764 0 0 0-1.764 1.764" style="fill:#cbcbcb;fill-opacity:1;stroke-width:1.01162;stroke-linecap:round"/>
    <rect width="61.248" height="3.528" x="-94.624" y="51.764" rx="1.764" ry="1.764" style="fill:#d9d9d9;fill-opacity:1;stroke-width:1.18471;stroke-linecap:round" transform="scale(-1 1)"/>
    <path d="M98.152 53.528a1.764 1.764 0 0 0 1.764 1.764 1.764 1.764 0 0 0 1.764-1.764 1.764 1.764 0 0 0-1.764-1.764 1.764 1.764 0 0 0-1.764 1.764m-71.832 0a1.764 1.764 0 0 0 1.764 1.764 1.764 1.764 0 0 0 1.764-1.764 1.764 1.764 0 0 0-1.764-1.764 1.764 1.764 0 0 0-1.764 1.764" style="fill:#cbcbcb;fill-opacity:1;stroke-width:1.01162;stroke-linecap:round"/>
    <rect width="61.248" height="3.528" x="-94.624" y="42.617" rx="1.764" ry="1.764" style="fill:#d9d9d9;fill-opacity:1;stroke-width:1.18471;stroke-linecap:round" transform="scale(-1 1)"/>
    <path d="M98.152 44.38a1.764 1.764 0 0 0 1.764 1.765 1.764 1.764 0 0 0 1.764-1.764 1.764 1.764 0 0 0-1.764-1.764 1.764 1.764 0 0 0-1.764 1.764M26.32 44.38a1.764 1.764 0 0 0 1.764 1.765 1.764 1.764 0 0 0 1.764-1.764 1.764 1.764 0 0 0-1.764-1.764 1.764 1.764 0 0 0-1.764 1.764" style="fill:#cbcbcb;fill-opacity:1;stroke-width:1.01162;stroke-linecap:round"/>
    <rect width="61.248" height="3.528" x="-94.624" y="33.47" rx="1.764" ry="1.764" style="fill:#d9d9d9;fill-opacity:1;stroke-width:1.18471;stroke-linecap:round" transform="scale(-1 1)"/>
    <path d="M98.152 35.234a1.764 1.764 0 0 0 1.764 1.764 1.764 1.764 0 0 0 1.764-1.764 1.764 1.764 0 0 0-1.764-1.764 1.764 1.764 0 0 0-1.764 1.764m-71.832 0a1.764 1.764 0 0 0 1.764 1.764 1.764 1.764 0 0 0 1.764-1.764 1.764 1.764 0 0 0-1.764-1.764 1.764 1.764 0 0 0-1.764 1.764" style="fill:#cbcbcb;fill-opacity:1;stroke-width:1.01162;stroke-linecap:round"/>
    <rect width="61.248" height="3.528" x="-94.624" y="24.323" rx="1.764" ry="1.764" style="fill:#d9d9d9;fill-opacity:1;stroke-width:1.18471;stroke-linecap:round" transform="scale(-1 1)"/>
    <path d="M26.32 26.087a1.764 1.764 0 0 0 1.764 1.764 1.764 1.764 0 0 0 1.764-1.764 1.764 1.764 0 0 0-1.764-1.764 1.764 1.764 0 0 0-1.764 1.764" style="fill:#cbcbcb;fill-opacity:1;stroke-width:1.01162;stroke-linecap:round"/>
    <path d="M82.842 14.676V36.01c0 4.778 3.289 8.625 7.373 8.625h18.235v-4l-3.712-1.33-.33.6z" style="display:inline;fill:#b3b3b3;fill-opacity:1;stroke-width:.376726;stroke-linecap:round;stroke-linejoin:round;enable-background:new"/>
    <path d="m82.842 10.676 25.608 29.959H90.215c-4.085 0-7.373-3.847-7.373-8.625z" style="display:inline;fill:#e6e6e6;fill-opacity:1;stroke-width:.376726;stroke-linecap:round;stroke-linejoin:round;enable-background:new"/>
    <path d="m84.573 12.541 21.95 25.826H91.697c-3.948 0-7.125-3.74-7.125-8.385z" style="display:inline;fill:#f9f9f9;fill-opacity:1;stroke-width:.365179;stroke-linecap:round;stroke-linejoin:round;enable-background:new"/>
    <g style="filter:url(#h)" transform="translate(-74.066 28.976)scale(.8161)">
        <path d="m238.015 100.113-15.457-15.457" style="display:inline;opacity:.154;fill:none;stroke:#fff;stroke-width:1.63784;stroke-linecap:round;stroke-linejoin:miter;stroke-miterlimit:4;stroke-dasharray:none;stroke-opacity:1;enable-background:new"/>
        <path d="m213.905 81.563 8 8" style="fill:none;stroke:#2d273e;stroke-width:6;stroke-linecap:butt;stroke-linejoin:miter;stroke-opacity:1"/>
        <path d="m213.905 79.563 8 8" style="fill:none;stroke:#423c4b;stroke-width:6;stroke-linecap:butt;stroke-linejoin:miter;stroke-opacity:1"/>
        <path d="m221.991 91.735 14 14m-14.086-16.172 14 14" style="fill:#a07358;fill-opacity:1;stroke:#2c5aa0;stroke-width:12;stroke-linecap:round;stroke-linejoin:miter;stroke-miterlimit:4;stroke-dasharray:none;stroke-opacity:1"/>
        <path d="m221.905 87.563 14 14" style="fill:#c87137;fill-opacity:1;stroke:#59f;stroke-width:12;stroke-linecap:round;stroke-linejoin:miter;stroke-miterlimit:4;stroke-dasharray:none;stroke-opacity:1"/>
        <circle cx="-191.905" cy="57.563" r="30.118" style="display:inline;fill:url(#i);fill-opacity:.484984;stroke:none;stroke-width:4;stroke-linejoin:round;stroke-miterlimit:4;stroke-dasharray:none;stroke-dashoffset:0;stroke-opacity:1;enable-background:new" transform="scale(-1 1)"/>
        <circle cx="-191.905" cy="57.563" r="30.118" style="display:inline;fill:url(#j);fill-opacity:.484984;stroke:none;stroke-width:4;stroke-linejoin:round;stroke-miterlimit:4;stroke-dasharray:none;stroke-dashoffset:0;stroke-opacity:1;enable-background:new" transform="scale(-1 1)"/>
        <circle cx="-191.905" cy="59.563" r="30.118" style="display:inline;fill:none;fill-opacity:.385827;stroke:#2f2941;stroke-width:4;stroke-linejoin:round;stroke-miterlimit:4;stroke-dasharray:none;stroke-dashoffset:0;stroke-opacity:1;enable-background:new" transform="scale(-1 1)"/>
        <path d="m238.905 100.563-16-16" style="display:inline;opacity:.508;fill:none;stroke:#fff;stroke-width:2;stroke-linecap:round;stroke-linejoin:miter;stroke-miterlimit:4;stroke-dasharray:none;stroke-opacity:1;enable-background:new"/>
        <circle cx="-191.905" cy="57.563" r="30.118" style="display:inline;fill:none;fill-opacity:.385827;stroke:#67656e;stroke-width:4;stroke-linejoin:round;stroke-miterlimit:4;stroke-dasharray:none;stroke-dashoffset:0;stroke-opacity:1;enable-background:new" transform="scale(-1 1)"/>
        <circle cx="191.905" cy="59.563" r="19.879" style="fill:url(#k);fill-opacity:1;stroke:none;stroke-width:5.81519;stroke-linecap:round"/>
    </g>
    <path d="M91.553 49.074c0 2.123-7.04-2.144-16.553-2.144s-17.9 4.267-17.9 2.144 8.304-7.219 17.818-7.219c9.513 0 16.635 5.095 16.635 7.219" style="mix-blend-mode:normal;fill:#fff;fill-opacity:.907783;stroke-width:2.5;stroke-linecap:round;filter:url(#l)" transform="matrix(.73497 -.48425 .48127 .73952 -1.047 69.953)"/>
</svg>
