<svg xmlns="http://www.w3.org/2000/svg" xmlns:xlink="http://www.w3.org/1999/xlink" width="128" height="128" viewBox="0 0 128 128">
    <defs>
        <linearGradient id="c">
            <stop offset="0" style="stop-color:#000;stop-opacity:1"/>
            <stop offset="1" style="stop-color:navy;stop-opacity:0"/>
        </linearGradient>
        <linearGradient id="b">
            <stop offset="0" style="stop-color:#ccc;stop-opacity:1"/>
            <stop offset=".05" style="stop-color:#e6e6e6;stop-opacity:1"/>
            <stop offset=".1" style="stop-color:#ccc;stop-opacity:1"/>
            <stop offset=".9" style="stop-color:#ccc;stop-opacity:1"/>
            <stop offset=".95" style="stop-color:#e6e6e6;stop-opacity:1"/>
            <stop offset="1" style="stop-color:#ccc;stop-opacity:1"/>
        </linearGradient>
        <linearGradient id="a">
            <stop offset="0" style="stop-color:#1565c0;stop-opacity:1"/>
            <stop offset=".037" style="stop-color:#1565c0;stop-opacity:1"/>
            <stop offset=".09" style="stop-color:#1565c0;stop-opacity:1"/>
            <stop offset=".9" style="stop-color:#1565c0;stop-opacity:1"/>
            <stop offset=".95" style="stop-color:#42a5f5;stop-opacity:1"/>
            <stop offset="1" style="stop-color:#1565c0;stop-opacity:1"/>
        </linearGradient>
        <linearGradient xlink:href="#a" id="g" x1="11.5" x2="116.5" y1="120.5" y2="120.5" gradientTransform="matrix(.82689 0 0 1 11.08 1)" gradientUnits="userSpaceOnUse"/>
        <linearGradient xlink:href="#b" id="d" x1="11.5" x2="116.5" y1="120.5" y2="120.5" gradientTransform="matrix(.82689 0 0 1.00713 11.08 .14)" gradientUnits="userSpaceOnUse"/>
        <linearGradient xlink:href="#b" id="f" x1="11.5" x2="116.5" y1="120.5" y2="120.5" gradientTransform="matrix(.82689 0 0 1.00713 11.08 -10.4)" gradientUnits="userSpaceOnUse"/>
        <linearGradient xlink:href="#b" id="e" x1="11.5" x2="116.5" y1="120.5" y2="120.5" gradientTransform="matrix(.82689 0 0 1.00713 11.08 -6.4)" gradientUnits="userSpaceOnUse"/>
        <linearGradient xlink:href="#c" id="h" x1="22.947" x2="32.338" y1="113.23" y2="113.23" gradientUnits="userSpaceOnUse"/>
    </defs>
    <rect width="86.823" height="105.749" x="20.588" y="15.751" rx="8" ry="8.057" style="fill:url(#d);fill-opacity:1;stroke-width:.912571"/>
    <rect width="86.823" height="98.581" x="20.588" y="18.378" rx="8" ry="7.511" style="fill:#e6e6e6;fill-opacity:1;stroke-width:.881099"/>
    <rect width="86.823" height="98.581" x="20.588" y="14.378" rx="8" ry="7.511" style="fill:#ccc;fill-opacity:1;stroke-width:.881099"/>
    <rect width="86.823" height="105.749" x="20.588" y="9.21" rx="8" ry="8.057" style="fill:url(#e);fill-opacity:1;stroke-width:.912571"/>
    <rect width="86.823" height="98.581" x="20.588" y="14.378" rx="8" ry="7.511" style="fill:#e6e6e6;fill-opacity:1;stroke-width:.881099"/>
    <path d="M20.588 95.57v7.332c0 4.464 3.568 8.057 8 8.057h70.824c4.432 0 8-3.593 8-8.057V95.57c0 4.161-3.568 7.51-8 7.51H28.588c-4.432 0-8-3.349-8-7.51" style="fill:url(#f);fill-opacity:1;stroke-width:.912571"/>
    <path d="M20.588 95.57v5.877c0 4.161 3.568 7.512 8 7.512h70.824c4.432 0 8-3.35 8-7.512V95.57c0 4.161-3.568 7.51-8 7.51H28.588c-4.432 0-8-3.349-8-7.51" style="fill:#e6e6e6;fill-opacity:1;stroke-width:.881099"/>
    <path d="M28.588 8.377c-4.432 0-8 3.35-8 7.512V113.5a8.1 8.1 0 0 0 .336 2.293q.025.087.053.174.09.28.2.553.048.116.1.23.107.242.229.477.076.14.156.277.078.132.16.262.138.217.287.423.06.083.122.165.21.277.447.535l.04.047q.276.297.58.564a7.96 7.96 0 0 0 5.29 2h70.824c4.432 0 8-3.568 8-8v-2.057c0 4.464-3.568 8.057-8 8.057H27.355c-1.12 0-2.137-.579-2.914-1.527a6 6 0 0 1-.32-.432l-.021-.035a6 6 0 0 1-.246-.408l-.067-.127a7 7 0 0 1-.158-.323q-.046-.098-.09-.2-.045-.104-.086-.212a7 7 0 0 1-.18-.54 8 8 0 0 1-.23-1.036l-.012-.088a8 8 0 0 1-.056-.531l-.006-.074a9 9 0 0 1-.022-.576v-.432l.1-1.434c.413-2.611 2.176-4.566 4.308-4.566h72.057c4.432 0 8-3.35 8-7.512V15.89c0-4.161-3.568-7.512-8-7.512z" style="fill:url(#g);fill-opacity:1;stroke-width:.909334"/>
    <path d="M28.588 6.5c-4.432 0-8 3.35-8 7.512v96.683c0 .323.029.638.07.95.495-3.71 3.84-6.565 7.93-6.565h70.824c4.432 0 8-3.349 8-7.51V14.012c0-4.161-3.568-7.512-8-7.512z" style="fill:#448aff;fill-opacity:1;stroke-width:.881099"/>
    <g aria-label="@" style="font-size:55.6805px;line-height:1.25;fill:#89b5ff;fill-opacity:1;stroke-width:1.39201">
        <path d="M56.985 60.163q0 3.888 1.93 6.117 1.931 2.203 5.302 2.203 3.344 0 5.248-2.23 1.93-2.23 1.93-6.09 0-3.806-1.958-6.036-1.957-2.256-5.274-2.256-3.29 0-5.247 2.23-1.93 2.229-1.93 6.062m14.818 8.13q-1.632 2.093-3.752 3.099-2.094.978-4.894.978-4.676 0-7.613-3.37-2.909-3.4-2.909-8.837t2.937-8.836 7.585-3.398q2.8 0 4.921 1.033 2.12 1.006 3.725 3.072v-3.562h3.888v20.01q3.969-.598 6.198-3.615 2.257-3.045 2.257-7.858 0-2.909-.87-5.464-.843-2.556-2.583-4.731-2.827-3.562-6.906-5.438-4.05-1.903-8.836-1.903-3.344 0-6.416.897-3.072.87-5.682 2.61-4.269 2.774-6.688 7.287-2.393 4.486-2.393 9.733 0 4.323 1.55 8.102 1.577 3.78 4.54 6.661 2.855 2.827 6.607 4.296 3.752 1.495 8.02 1.495 3.507 0 6.879-1.196 3.398-1.17 6.226-3.372l2.447 3.018q-3.399 2.637-7.423 4.024-3.996 1.414-8.129 1.414-5.03 0-9.488-1.795-4.46-1.767-7.94-5.165t-5.3-7.858Q39.938 65.138 39.938 60q0-4.948 1.848-9.434 1.85-4.486 5.275-7.885 3.507-3.452 8.102-5.274 4.595-1.849 9.733-1.849 5.764 0 10.685 2.366 4.948 2.365 8.292 6.715 2.04 2.664 3.1 5.79 1.087 3.128 1.087 6.472 0 7.15-4.323 11.283t-11.935 4.295z" style="fill:#89b5ff;fill-opacity:1" transform="translate(3.772 -1)"/>
    </g>
    <rect width="3.58" height="98.581" x="29.112" y="6.5" rx="0" ry="0" style="fill:#327ce7;fill-opacity:1;stroke-width:10.5861;stroke-linecap:square;stroke-linejoin:round;paint-order:markers stroke fill"/>
    <path d="M28.588 6.5c-4.432 0-8 3.35-8 7.512v3c0-4.161 3.568-7.512 8-7.512h70.824c4.432 0 8 3.35 8 7.512v-3c0-4.161-3.568-7.512-8-7.512z" style="fill:#a7c8ff;fill-opacity:1;stroke-width:.881099"/>
    <path d="M29.111 6.5v3h3.58v-3z" style="fill:#71a1e7;fill-opacity:1;stroke-width:10.5861;stroke-linecap:square;stroke-linejoin:round;paint-order:markers stroke fill"/>
    <path d="M27.355 106.959c-2.132 0-3.895 1.955-4.308 4.566l-.1 1.434v.432q.001.291.022.576.002.038.006.074.02.27.056.531l.012.088a8 8 0 0 0 .285 1.213q.059.185.125.363.042.107.086.211.043.103.09.201.075.165.158.323l.067.127q.116.212.246.408l.021.035q.152.226.32.432c.777.948 1.794 1.527 2.915 1.527h4.982v-12.541z" style="fill:url(#h);fill-opacity:.233089;stroke-width:1.5;stroke-linecap:round;stroke-linejoin:round;paint-order:markers stroke fill;opacity:1"/>
</svg>
