<svg xmlns="http://www.w3.org/2000/svg" xmlns:xlink="http://www.w3.org/1999/xlink" xml:space="preserve" width="128" height="128" viewBox="0 0 128 128">
    <defs>
        <filter id="h" width="1.189" height="1.299" x="-.095" y="-.077" style="color-interpolation-filters:sRGB">
            <feFlood flood-color="#1b1b1b" flood-opacity=".635" result="flood"/>
            <feComposite in="flood" in2="SourceGraphic" operator="in" result="composite1"/>
            <feGaussianBlur in="composite1" result="blur" stdDeviation=".2"/>
            <feOffset dy=".9" result="offset"/>
            <feComposite in="SourceGraphic" in2="offset" result="composite2"/>
        </filter>
        <filter id="e" width="1.116" height="1.117" x="-.058" y="-.03" style="color-interpolation-filters:sRGB">
            <feFlood flood-color="#1b1b1b" flood-opacity=".635" result="flood"/>
            <feComposite in="flood" in2="SourceGraphic" operator="in" result="composite1"/>
            <feGaussianBlur in="composite1" result="blur" stdDeviation=".2"/>
            <feOffset dy=".9" result="offset"/>
            <feComposite in="SourceGraphic" in2="offset" result="composite2"/>
        </filter>
        <filter id="f" width="1.064" height="1.121" x="-.032" y="-.031" style="color-interpolation-filters:sRGB">
            <feFlood flood-color="#1b1b1b" flood-opacity=".635" result="flood"/>
            <feComposite in="flood" in2="SourceGraphic" operator="in" result="composite1"/>
            <feGaussianBlur in="composite1" result="blur" stdDeviation=".2"/>
            <feOffset dy=".9" result="offset"/>
            <feComposite in="SourceGraphic" in2="offset" result="composite2"/>
        </filter>
        <filter id="g" width="1.05" height="1.097" x="-.025" y="-.025" style="color-interpolation-filters:sRGB">
            <feFlood flood-color="#1b1b1b" flood-opacity=".635" result="flood"/>
            <feComposite in="flood" in2="SourceGraphic" operator="in" result="composite1"/>
            <feGaussianBlur in="composite1" result="blur" stdDeviation=".2"/>
            <feOffset dy=".9" result="offset"/>
            <feComposite in="SourceGraphic" in2="offset" result="composite2"/>
        </filter>
        <filter id="i" width="1.207" height="1.232" x="-.104" y="-.104" style="color-interpolation-filters:sRGB">
            <feFlood flood-color="#000" flood-opacity=".345" result="flood"/>
            <feComposite in="flood" in2="SourceGraphic" operator="in" result="composite1"/>
            <feGaussianBlur in="composite1" result="blur" stdDeviation="4.125"/>
            <feOffset dy="2.355" result="offset"/>
            <feComposite in="SourceGraphic" in2="offset" result="composite2"/>
        </filter>
        <linearGradient id="b">
            <stop offset="0" style="stop-color:#22252b;stop-opacity:1"/>
            <stop offset="1" style="stop-color:#2e323a;stop-opacity:1"/>
        </linearGradient>
        <linearGradient id="a">
            <stop offset="0" style="stop-color:gray;stop-opacity:1"/>
            <stop offset=".05" style="stop-color:#999;stop-opacity:1"/>
            <stop offset=".1" style="stop-color:gray;stop-opacity:1"/>
            <stop offset=".9" style="stop-color:gray;stop-opacity:1"/>
            <stop offset=".95" style="stop-color:#999;stop-opacity:1"/>
            <stop offset="1" style="stop-color:gray;stop-opacity:1"/>
        </linearGradient>
        <linearGradient xlink:href="#a" id="c" x1="11.5" x2="116.5" y1="120.5" y2="120.5" gradientTransform="translate(2.188 4.12)scale(.96581)" gradientUnits="userSpaceOnUse"/>
        <linearGradient xlink:href="#b" id="d" x1="64" x2="64" y1="12.249" y2="100.61" gradientTransform="translate(-2.953 -2.343)scale(1.04614)" gradientUnits="userSpaceOnUse"/>
    </defs>
    <rect width="101.41" height="101.41" x="13.295" y="19.09" rx="13.521" ry="13.521" style="fill:url(#c);fill-opacity:1;stroke-width:.965812"/>
    <rect width="101.41" height="101.41" x="13.295" y="7.5" rx="13.521" ry="13.521" style="fill:#ececec;fill-opacity:1;stroke-width:.965812"/>
    <rect width="95.468" height="95.468" x="16.266" y="10.471" rx="12.729" ry="12.729" style="fill:#353a43;fill-opacity:1;stroke-width:.909216"/>
    <rect width="89.409" height="89.409" x="19.295" y="13.5" rx="11.921" ry="11.921" style="fill:url(#d);fill-opacity:1;stroke-width:.851517"/>
    <g style="filter:url(#e)" transform="translate(-29.472 -31.276)scale(1.45828)">
        <path d="M-32.521-84.795a2.5 2.5 0 0 1 .435-.075 2.5 2.5 0 0 0-.435.075m.504-.075a2.5 2.5 0 0 1 .439.018 2.5 2.5 0 0 0-.44-.018m-.562-.443a2.54 2.54 0 0 1 1.531-.14l-.001-15.23a.765.765 0 1 0-1.53 0zm1.045.464a2.5 2.5 0 0 1 .485.12 2.5 2.5 0 0 0-.485-.12" style="fill:#b3b3b3;fill-opacity:1;stroke-width:8.52499;stroke-linecap:square;stroke-linejoin:round;paint-order:markers stroke fill" transform="rotate(154.676)"/>
        <path d="m65.65 62.75-.1.074.003.004zm.29.43a3 3 0 0 1-.149.154l6.723 14.205q.021.047.035.096a.76.76 0 0 0-.035-.563z" style="fill:#fff;fill-opacity:1;stroke-width:8.52499;stroke-linecap:square;stroke-linejoin:round;paint-order:markers stroke fill"/>
        <path d="M64.613 63.96a3 3 0 0 1-.199.038l6.717 14.195a.765.765 0 0 0 1.418-.558.762.762 0 0 1-1.418.092L64.615 63.96z" style="fill:#616161;fill-opacity:1;stroke-width:8.52499;stroke-linecap:square;stroke-linejoin:round;paint-order:markers stroke fill"/>
    </g>
    <g style="filter:url(#f)" transform="translate(-29.472 -31.276)scale(1.45828)">
        <path d="M87.84-25.048a.64.64 0 0 0-.188.453v19.448a2.54 2.54 0 0 1 1.28.178v-19.626a.638.638 0 0 0-1.092-.453m-.138 20.27a3 3 0 0 1 .333-.053 3 3 0 0 0-.333.054m.453-.06a3 3 0 0 1 .298.006 3 3 0 0 0-.298-.006m.396.013a3 3 0 0 1 .33.059 3 3 0 0 0-.33-.06" style="fill:#b3b3b3;fill-opacity:1;stroke-width:8.52559;stroke-linecap:square;stroke-linejoin:round;paint-order:markers stroke fill" transform="rotate(45)"/>
        <path d="M87.84-25.048a.64.64 0 0 0-.188.453v19.448a3 3 0 0 1 .33-.018v-19.1a.638.638 0 0 1 .897-.587.64.64 0 0 0-1.039-.196" style="fill:#fff;fill-opacity:1;stroke-width:8.52559;stroke-linecap:square;stroke-linejoin:round;paint-order:markers stroke fill" transform="rotate(45)"/>
        <path d="M88.879-24.852a.6.6 0 0 1 .052.257l.002 19.626a2.5 2.5 0 0 1 .33.167v-19.462a.64.64 0 0 0-.384-.588M88.95-4.75a3 3 0 0 1 .172.058 3 3 0 0 0-.172-.058" style="fill:#616161;fill-opacity:1;stroke-width:8.52559;stroke-linecap:square;stroke-linejoin:round;paint-order:markers stroke fill" transform="rotate(45)"/>
    </g>
    <g style="filter:url(#g)" transform="translate(-29.472 -31.276)scale(1.45828)">
        <path d="M43.895 40.201a.42.42 0 0 0-.295.717l18.216 18.217a2.5 2.5 0 0 1 .52-.666L44.19 40.324a.42.42 0 0 0-.296-.123m18.67 18.54a3 3 0 0 0-.254.21 3 3 0 0 1 .253-.21m-.315.267a2.5 2.5 0 0 0-.258.303 2.5 2.5 0 0 1 .258-.303" style="fill:#f55;fill-opacity:1;stroke-width:7.74991;stroke-linecap:square;stroke-linejoin:round;paint-order:markers stroke fill"/>
        <path d="M43.895 40.201a.42.42 0 0 0-.348.654.417.417 0 0 1 .645-.064l17.915 17.916a3 3 0 0 1 .229-.238L44.19 40.324a.42.42 0 0 0-.296-.123m18.66 18.545a3 3 0 0 0-.157.125 3 3 0 0 1 .157-.125" style="fill:#faa;fill-opacity:1;stroke-width:7.74991;stroke-linecap:square;stroke-linejoin:round;paint-order:markers stroke fill"/>
        <path d="M43.549 40.855a.42.42 0 0 0 .05.532l18.07 18.07a3 3 0 0 1 .147-.322L43.6 40.918a.4.4 0 0 1-.051-.063" style="fill:#9b3434;fill-opacity:1;stroke-width:7.74991;stroke-linecap:square;stroke-linejoin:round;paint-order:markers stroke fill"/>
    </g>
    <g style="filter:url(#h)" transform="translate(-29.472 -31.276)scale(1.45828)">
        <path d="M64.049 57.797a2.54 2.54 0 0 0-2.54 2.539 3 3 0 0 0 .018.236 2.54 2.54 0 0 1 2.522-2.324 2.54 2.54 0 0 1 2.525 2.287 3 3 0 0 0 .014-.2 2.54 2.54 0 0 0-2.54-2.538" style="fill:#4d5562;fill-opacity:1;stroke-width:8.69363;stroke-linecap:square;stroke-linejoin:round;paint-order:markers stroke fill"/>
        <circle cx="64.049" cy="60.787" r="2.538" style="fill:#363c45;fill-opacity:1;stroke-width:8.69363;stroke-linecap:square;stroke-linejoin:round;paint-order:markers stroke fill"/>
        <path d="M66.564 61.127a2.54 2.54 0 0 1-2.515 2.196 2.54 2.54 0 0 1-2.512-2.188 3 3 0 0 0-.027.35 2.54 2.54 0 0 0 2.539 2.54 2.54 2.54 0 0 0 2.539-2.54 3 3 0 0 0-.024-.358" style="fill:#1a1d22;fill-opacity:1;stroke-width:8.69363;stroke-linecap:square;stroke-linejoin:round;paint-order:markers stroke fill"/>
    </g>
    <path d="M63.808 15.508a1.09 1.09 0 0 0-1.091 1.091v5.956a1.09 1.09 0 0 0 1.09 1.087 1.09 1.09 0 0 0 1.088-1.087V16.6a1.09 1.09 0 0 0-1.087-1.09m23.752.61a1.09 1.09 0 0 0-1.026.54l-2.977 5.158a1.09 1.09 0 0 0 .4 1.488 1.09 1.09 0 0 0 1.488-.397l2.977-5.16a1.09 1.09 0 0 0-.397-1.486 1.1 1.1 0 0 0-.465-.144m-47.456.191a1.1 1.1 0 0 0-.463.144 1.09 1.09 0 0 0-.4 1.489l2.978 5.157a1.09 1.09 0 0 0 1.486.397 1.09 1.09 0 0 0 .4-1.486l-2.978-5.157a1.09 1.09 0 0 0-1.023-.544m64.674 17.048a1.1 1.1 0 0 0-.46.144l-5.16 2.977a1.09 1.09 0 0 0-.397 1.488 1.09 1.09 0 0 0 1.488.4l5.155-2.977a1.09 1.09 0 0 0 .4-1.489 1.09 1.09 0 0 0-1.026-.543m-81.752.336a1.09 1.09 0 0 0-1.024.539 1.09 1.09 0 0 0 .397 1.49l5.155 2.977a1.09 1.09 0 0 0 1.491-.399 1.09 1.09 0 0 0-.4-1.486l-5.154-2.98a1.1 1.1 0 0 0-.465-.141m76.678 23.283a1.09 1.09 0 0 0-1.09 1.089 1.09 1.09 0 0 0 1.09 1.091h5.953a1.09 1.09 0 0 0 1.092-1.091 1.09 1.09 0 0 0-1.092-1.09zm-77.364.386a1.09 1.09 0 0 0-1.089 1.09 1.09 1.09 0 0 0 1.09 1.088h5.953a1.09 1.09 0 0 0 1.09-1.089 1.09 1.09 0 0 0-1.09-1.089zm77.64 20.312a1.09 1.09 0 0 0-1.026.543 1.09 1.09 0 0 0 .4 1.486l5.156 2.977a1.09 1.09 0 0 0 1.487-.4 1.09 1.09 0 0 0-.398-1.485l-5.155-2.977a1.1 1.1 0 0 0-.464-.144m-71.765.333a1.1 1.1 0 0 0-.465.145l-5.155 2.976a1.09 1.09 0 0 0-.4 1.489 1.09 1.09 0 0 0 1.486.4l5.16-2.978a1.09 1.09 0 0 0 .397-1.488 1.09 1.09 0 0 0-1.023-.544m56.54 14.87a1.1 1.1 0 0 0-.463.144 1.09 1.09 0 0 0-.4 1.486l2.98 5.157a1.09 1.09 0 0 0 1.486.4 1.09 1.09 0 0 0 .4-1.49l-2.978-5.156a1.09 1.09 0 0 0-1.026-.541m-20.564.19a1.09 1.09 0 0 0-1.087 1.089v5.954a1.09 1.09 0 0 0 1.087 1.089 1.09 1.09 0 0 0 1.093-1.09v-5.953a1.09 1.09 0 0 0-1.093-1.09m-20.614.004a1.09 1.09 0 0 0-1.023.54l-2.977 5.156a1.09 1.09 0 0 0 .397 1.489 1.09 1.09 0 0 0 1.49-.397l2.977-5.158a1.09 1.09 0 0 0-.399-1.49 1.1 1.1 0 0 0-.465-.14" style="fill:#4d5462;fill-opacity:1;stroke-width:6.38954;stroke-linecap:square;stroke-linejoin:round;paint-order:markers stroke fill"/>
    <path d="M63.808 15.508a1.09 1.09 0 0 0-1.091 1.091v.203a1.09 1.09 0 0 1 1.09-1.09 1.09 1.09 0 0 1 1.088 1.09V16.6a1.09 1.09 0 0 0-1.087-1.09m23.752.61a1.09 1.09 0 0 0-1.026.54l-2.977 5.158a1.1 1.1 0 0 0-.087.857 1.1 1.1 0 0 1 .087-.654l2.977-5.158a1.09 1.09 0 0 1 1.026-.54 1.1 1.1 0 0 1 .465.143 1.09 1.09 0 0 1 .528.795 1.09 1.09 0 0 0-.528-.998 1.1 1.1 0 0 0-.465-.144m-47.456.191a1.1 1.1 0 0 0-.463.144 1.09 1.09 0 0 0-.487.834 1.1 1.1 0 0 1 .487-.63 1.1 1.1 0 0 1 .463-.145 1.09 1.09 0 0 1 1.023.544l2.977 5.157a1.1 1.1 0 0 1 .131.487 1.1 1.1 0 0 0-.13-.69l-2.978-5.157a1.09 1.09 0 0 0-1.023-.544m64.674 17.048a1.1 1.1 0 0 0-.46.144l-5.16 2.977a1.09 1.09 0 0 0-.485.833 1.1 1.1 0 0 1 .485-.63l5.16-2.977a1.1 1.1 0 0 1 .46-.144 1.09 1.09 0 0 1 1.026.543 1.1 1.1 0 0 1 .13.489 1.1 1.1 0 0 0-.13-.692 1.09 1.09 0 0 0-1.026-.543m-81.752.336a1.09 1.09 0 0 0-1.024.539 1.1 1.1 0 0 0-.087.858 1.1 1.1 0 0 1 .087-.655 1.09 1.09 0 0 1 1.024-.54 1.1 1.1 0 0 1 .465.143l5.155 2.979a1.09 1.09 0 0 1 .53.794 1.09 1.09 0 0 0-.53-.997l-5.155-2.98a1.1 1.1 0 0 0-.465-.141m76.678 23.283a1.09 1.09 0 0 0-1.09 1.089 1 1 0 0 0 .042.102 1.09 1.09 0 0 1 1.048-.988h5.953a1.09 1.09 0 0 1 1.076.988 1 1 0 0 0 .016-.102 1.09 1.09 0 0 0-1.092-1.09zm-77.364.386a1.09 1.09 0 0 0-1.089 1.09 1 1 0 0 0 .042.1 1.09 1.09 0 0 1 1.047-.987h5.954a1.09 1.09 0 0 1 1.074.986 1 1 0 0 0 .015-.1 1.09 1.09 0 0 0-1.089-1.089zm77.64 20.312a1.09 1.09 0 0 0-1.026.543 1.1 1.1 0 0 0-.085.853 1.1 1.1 0 0 1 .085-.65 1.09 1.09 0 0 1 1.026-.543 1.1 1.1 0 0 1 .464.144l5.155 2.977a1.09 1.09 0 0 1 .529.794 1.09 1.09 0 0 0-.529-.997l-5.155-2.977a1.1 1.1 0 0 0-.464-.144m-71.765.333a1.1 1.1 0 0 0-.465.145l-5.155 2.976a1.09 1.09 0 0 0-.487.834 1.1 1.1 0 0 1 .487-.63l5.155-2.978a1.1 1.1 0 0 1 .465-.144 1.09 1.09 0 0 1 1.023.544 1.1 1.1 0 0 1 .131.489 1.1 1.1 0 0 0-.13-.692 1.09 1.09 0 0 0-1.024-.544m56.54 14.87a1.1 1.1 0 0 0-.463.144 1.09 1.09 0 0 0-.485.834 1.1 1.1 0 0 1 .485-.631 1.1 1.1 0 0 1 .462-.144 1.09 1.09 0 0 1 1.026.541l2.977 5.155a1.1 1.1 0 0 1 .133.491 1.1 1.1 0 0 0-.133-.694L85.78 93.42a1.09 1.09 0 0 0-1.026-.541m-20.564.19a1.09 1.09 0 0 0-1.087 1.089v.203a1.09 1.09 0 0 1 1.087-1.09 1.09 1.09 0 0 1 1.093 1.09v-.203a1.09 1.09 0 0 0-1.093-1.09m-20.614.004a1.09 1.09 0 0 0-1.023.54l-2.977 5.156a1.1 1.1 0 0 0-.088.858 1.1 1.1 0 0 1 .088-.655l2.977-5.157a1.09 1.09 0 0 1 1.023-.539 1.1 1.1 0 0 1 .465.14 1.09 1.09 0 0 1 .533.794 1.09 1.09 0 0 0-.533-.997 1.1 1.1 0 0 0-.465-.14" style="fill:#9caac6;fill-opacity:1;stroke-width:6.38954;stroke-linecap:square;stroke-linejoin:round;paint-order:markers stroke fill"/>
    <path d="M88.553 17.26a1.1 1.1 0 0 1-.13.487l-2.978 5.16a1.09 1.09 0 0 1-1.488.397 1.1 1.1 0 0 1-.487-.63 1.09 1.09 0 0 0 .487.833 1.09 1.09 0 0 0 1.488-.397l2.977-5.16a1.1 1.1 0 0 0 .131-.69m-49.399.027a1.1 1.1 0 0 0 .088.858l2.977 5.157a1.09 1.09 0 0 0 1.486.397 1.09 1.09 0 0 0 .53-1 1.09 1.09 0 0 1-.53.797 1.09 1.09 0 0 1-1.486-.397l-2.977-5.157a1.1 1.1 0 0 1-.088-.655m23.563 5.268v.203a1.09 1.09 0 0 0 1.09 1.087 1.09 1.09 0 0 0 1.088-1.087v-.203a1.09 1.09 0 0 1-1.087 1.087 1.09 1.09 0 0 1-1.091-1.087m43.218 12.037a1.09 1.09 0 0 1-.53.797l-5.156 2.977a1.09 1.09 0 0 1-1.488-.4 1.1 1.1 0 0 1-.088-.655 1.1 1.1 0 0 0 .088.858 1.09 1.09 0 0 0 1.488.4l5.155-2.977a1.09 1.09 0 0 0 .53-1m-84.02.498a1.09 1.09 0 0 0 .484.835l5.155 2.977a1.09 1.09 0 0 0 1.491-.399 1.1 1.1 0 0 0 .131-.69 1.1 1.1 0 0 1-.13.487 1.09 1.09 0 0 1-1.492.4L22.4 35.722a1.1 1.1 0 0 1-.484-.633m76.74 23.077a1 1 0 0 0-.04.1 1.09 1.09 0 0 0 1.089 1.092h5.953a1.09 1.09 0 0 0 1.092-1.091 1 1 0 0 0-.016-.1 1.09 1.09 0 0 1-1.076.988h-5.953a1.09 1.09 0 0 1-1.048-.989m-77.362.384a1 1 0 0 0-.042.103 1.09 1.09 0 0 0 1.09 1.09h5.953a1.09 1.09 0 0 0 1.09-1.09 1 1 0 0 0-.016-.103 1.09 1.09 0 0 1-1.074.99H22.34a1.09 1.09 0 0 1-1.047-.99m77.575 20.52a1.09 1.09 0 0 0 .484.836l5.157 2.977a1.09 1.09 0 0 0 1.487-.4 1.1 1.1 0 0 0 .13-.689 1.1 1.1 0 0 1-.13.487 1.09 1.09 0 0 1-1.487.4l-5.157-2.978a1.1 1.1 0 0 1-.484-.633m-69.5.173a1.09 1.09 0 0 1-.528.796l-5.16 2.977a1.09 1.09 0 0 1-1.486-.4 1.1 1.1 0 0 1-.087-.654 1.1 1.1 0 0 0 .087.858 1.09 1.09 0 0 0 1.486.4l5.16-2.978a1.09 1.09 0 0 0 .528-1m54.438 14.614a1.1 1.1 0 0 0 .085.853l2.98 5.157a1.09 1.09 0 0 0 1.486.4 1.09 1.09 0 0 0 .532-1 1.09 1.09 0 0 1-.532.797 1.09 1.09 0 0 1-1.487-.4l-2.979-5.157a1.1 1.1 0 0 1-.085-.65m-39.232.353a1.1 1.1 0 0 1-.134.491l-2.977 5.158a1.09 1.09 0 0 1-1.49.397 1.1 1.1 0 0 1-.485-.63 1.09 1.09 0 0 0 .485.833 1.09 1.09 0 0 0 1.49-.397l2.977-5.158a1.1 1.1 0 0 0 .134-.694m18.529 5.9v.203a1.09 1.09 0 0 0 1.087 1.089 1.09 1.09 0 0 0 1.093-1.09v-.202a1.09 1.09 0 0 1-1.093 1.089 1.09 1.09 0 0 1-1.087-1.09" style="fill:#0a0b0d;fill-opacity:1;stroke-width:6.38954;stroke-linecap:square;stroke-linejoin:round;paint-order:markers stroke fill"/>
    <path d="M28.996 10.47a12.704 12.704 0 0 0-12.73 12.731V93.21c0 7.052 5.678 12.73 12.73 12.73h70.008c7.052 0 12.73-5.678 12.73-12.73V23.201c0-7.052-5.678-12.73-12.73-12.73zm2.22 3.03h65.567a11.896 11.896 0 0 1 11.922 11.922v65.566a11.896 11.896 0 0 1-11.922 11.922H31.217a11.896 11.896 0 0 1-11.922-11.922V25.422A11.896 11.896 0 0 1 31.217 13.5" style="fill:#353a43;fill-opacity:1;stroke-width:.909216;filter:url(#i)"/>
</svg>
