<svg xmlns="http://www.w3.org/2000/svg" xmlns:xlink="http://www.w3.org/1999/xlink" xml:space="preserve" width="128" height="128" viewBox="0 0 128 128">
    <defs>
        <linearGradient id="c">
            <stop offset="0" style="stop-color:#66639a;stop-opacity:1"/>
            <stop offset="1" style="stop-color:#824b95;stop-opacity:1"/>
        </linearGradient>
        <linearGradient id="b">
            <stop offset="0" style="stop-color:#9a6db0;stop-opacity:1"/>
            <stop offset="1" style="stop-color:#ccc3e3;stop-opacity:1"/>
        </linearGradient>
        <linearGradient id="a">
            <stop offset="0" style="stop-color:#543184;stop-opacity:1"/>
            <stop offset=".05" style="stop-color:#714ea1;stop-opacity:1"/>
            <stop offset=".1" style="stop-color:#543184;stop-opacity:1"/>
            <stop offset=".9" style="stop-color:#543184;stop-opacity:1"/>
            <stop offset=".95" style="stop-color:#714ea1;stop-opacity:1"/>
            <stop offset="1" style="stop-color:#543184;stop-opacity:1"/>
        </linearGradient>
        <linearGradient xlink:href="#a" id="d" x1="11.5" x2="116.5" y1="120.5" y2="120.5" gradientTransform="matrix(1.03397 0 0 1.0003 -2.174 1.964)" gradientUnits="userSpaceOnUse"/>
        <linearGradient xlink:href="#b" id="e" x1="64" x2="64" y1="112.5" y2="7.5" gradientTransform="matrix(1.03397 0 0 1.0003 -2.174 -2.002)" gradientUnits="userSpaceOnUse"/>
        <linearGradient xlink:href="#c" id="f" x1="18.328" x2="111.92" y1="12.08" y2="105.672" gradientTransform="matrix(1.03397 0 0 1.0003 -2.174 -2.002)" gradientUnits="userSpaceOnUse"/>
        <filter id="k" width="1.071" height="1.073" x="-.035" y="-.037" style="color-interpolation-filters:sRGB">
            <feGaussianBlur stdDeviation="1.151"/>
        </filter>
        <filter id="j" width="1.32" height="1.221" x="-.16" y="-.111" style="color-interpolation-filters:sRGB">
            <feGaussianBlur stdDeviation="1.804"/>
        </filter>
    </defs>
    <rect width="108.567" height="105.032" x="9.716" y="17.468" rx="18" ry="18" style="fill:url(#d);fill-opacity:1;stroke-width:1.017"/>
    <rect width="108.567" height="105.032" x="9.716" y="5.5" rx="18" ry="18" style="fill:url(#e);fill-opacity:1;stroke-width:1.017"/>
    <rect width="104.178" height="100.786" x="11.911" y="7.623" rx="18" ry="18" style="fill:url(#f);fill-opacity:1;stroke-width:.975887"/>
    <path d="M65.045 61.38c-.367 0-.752.173-1.043.464l-.461.46v37.272l.461.463c.29.291.676.461 1.043.461s.752-.17 1.043-.46l.46-.464V62.305l-.46-.461c-.291-.291-.677-.463-1.043-.463m-6.018 6.02c-.366 0-.752.17-1.043.461l-.463.461V93.56l.463.46c.291.292.677.463 1.043.463.367 0 .752-.171 1.043-.462l.461-.461V68.322l-.46-.46c-.292-.292-.677-.462-1.044-.462m12.035 0c-.366 0-.751.17-1.042.461l-.461.461v12.594c0 13.59-.03 13.113.828 13.486.32.14.694.214.832.166s.329-.086.424-.086c.939 0 .925.209.925-13.457V68.322l-.463-.46c-.29-.292-.676-.462-1.043-.462m6.02 6.018c-.366 0-.752.17-1.043.46l-.463.464V87.54l.463.461c.291.29.677.46 1.043.46s.752-.17 1.043-.46l.46-.461v-13.2l-.46-.462c-.291-.291-.677-.461-1.043-.461m-24.074 3.01c-.367 0-.752.17-1.043.46l-.461.462v13.199l.46.463c.292.29.677.46 1.044.46.366 0 .752-.17 1.043-.46l.463-.463v-13.2l-.463-.46c-.291-.291-.677-.461-1.043-.461" style="fill:#ff7aa5;fill-opacity:1;stroke-width:.18807;filter:url(#j)" transform="translate(-18.273 -27.09)scale(1.26538)"/>
    <path d="M64.303 28.719c-13.097.095-26.176 6.77-33.106 21.119-2.883 5.97-4.773 15.908-3.304 17.377.593.593.451.604 5.277-.365 4.76-.957 4.793-.976 4.795-2.721.014-13.46 13.36-26.541 27.08-26.541 13.743 0 27.082 13.085 27.082 26.566 0 1.717.042 1.74 4.803 2.7 6.053 1.22 6.09 1.194 5.529-4.282-2.228-21.758-20.208-33.984-38.156-33.853M39.328 69.584c-3.101.043-6.14 1.997-7.127 5.69-.121.455-.2 3.096-.24 6.37v-4.583h-1.094c-4.172 0-4.926 1.512-4.92 9.894.005 7.378.195 8.02 2.723 9.215.674.318 1.273.446 2.115.447l1.176.002v-4.586c.04 3.275.119 5.918.24 6.373.724 2.711 2.703 4.72 5.385 5.467 3.453.961 7.077-.802 8.725-4.244l.585-1.223V75.273l-.585-1.222c-1.463-3.056-4.246-4.505-6.983-4.467m51.586.014c-3.248-.086-6.55 1.896-7.559 5.675-.195.732-.251 3.298-.251 11.567s.056 10.834.251 11.566c.725 2.711 2.705 4.72 5.387 5.467 4.002 1.114 8.312-1.564 9.192-5.71.141-.67.21-4.394.21-11.323 0-10.834-.047-11.577-.85-13.166-1.359-2.693-3.853-4.01-6.38-4.076m7.23 17.242v9.78l1.176-.005c1.924-.007 3.465-.906 4.344-2.535.393-.73.404-.95.404-7.24s-.01-6.511-.404-7.24c-.88-1.63-2.42-2.529-4.344-2.536l-1.175-.003z" style="mix-blend-mode:soft-light;fill:#0e0924;fill-opacity:1;stroke-width:.18807;filter:url(#k)" transform="translate(-2.358 -5.319)scale(1.02077)"/>
    <path d="M27.764 60.352c-1.434-1.434.41-11.138 3.225-16.966 16.037-33.207 65.813-24.313 69.576 12.433.547 5.345.512 5.373-5.399 4.18-4.648-.937-4.689-.96-4.689-2.636 0-13.162-13.023-25.937-26.44-25.937-13.395 0-26.427 12.772-26.44 25.913-.002 1.704-.034 1.722-4.68 2.655-4.712.947-4.574.938-5.153.358" style="fill:#797979;fill-opacity:1;stroke-width:.183618" transform="translate(0 -1)"/>
    <path d="M27.764 54.91c-1.434-1.434.41-11.138 3.225-16.966C47.026 4.736 96.802 13.63 100.565 50.376c.547 5.346.512 5.374-5.399 4.182-4.648-.938-4.689-.961-4.689-2.637 0-13.162-13.023-25.937-26.44-25.937-13.395 0-26.427 12.772-26.44 25.913-.002 1.704-.034 1.722-4.68 2.655-4.712.947-4.574.937-5.153.358" style="fill:#ececec;fill-opacity:1;stroke-width:.183618" transform="translate(0 -1)"/>
    <path d="M90.525 52.78h10.261v7.973H90.525zm-63.259 0h10.261v7.973H27.266z" style="fill:#9d9d9d;fill-opacity:1;stroke-width:8.02095" transform="translate(0 -1)"/>
    <path d="M96.353 69.963v13.655h-.011c-.015 2.507-.047 4.284-.092 5.442h.936v-.003l.315-.002c1.878-.007 3.381-.884 4.24-2.475.383-.711.396-.928.396-7.068s-.013-6.359-.397-7.07c-.858-1.591-2.36-2.468-4.239-2.475z" style="fill:#797979;fill-opacity:1;stroke-width:.183618" transform="translate(0 -1)"/>
    <path d="M87.172 96.142c-2.619-.73-4.552-2.691-5.259-5.338-.19-.715-.245-3.219-.245-11.292s.054-10.578.245-11.293c1.752-6.56 10.576-7.571 13.61-1.56.783 1.551.83 2.275.83 12.853 0 6.764-.068 10.4-.207 11.053-.859 4.05-5.067 6.664-8.974 5.577" style="fill:#9d9d9d;fill-opacity:1;stroke-width:.183618" transform="translate(0 -1)"/>
    <path d="M96.243 64.52c.097 1.72.11 4.492.11 9.55 0 4.721-.036 7.825-.103 9.548h.937v-.002l.314-.002c1.878-.007 3.381-.886 4.24-2.476.383-.712.396-.928.396-7.069 0-6.14-.013-6.357-.397-7.068-.858-1.591-2.36-2.468-4.239-2.475l-.314-.002v-.003h-.834z" style="fill:#ccc;fill-opacity:1;stroke-width:.183618" transform="translate(0 -1)"/>
    <path d="M87.172 90.7c-2.619-.73-4.552-2.692-5.259-5.338-.19-.715-.245-3.22-.245-11.293s.054-10.578.245-11.292c1.752-6.56 10.576-7.571 13.61-1.56.783 1.55.83 2.275.83 12.852 0 6.765-.068 10.401-.207 11.054-.859 4.049-5.067 6.664-8.974 5.576" style="fill:#f2f2f2;fill-opacity:1;stroke-width:.183618" transform="translate(0 -1)"/>
    <path d="M30.667 69.963c-4.074 0-4.808 1.479-4.802 9.662.005 7.204.189 7.83 2.657 8.996.658.311 1.244.434 2.067.436l.407.002v.002h.842c-.046-1.094-.08-2.596-.103-4.326V69.963z" style="fill:#797979;fill-opacity:1;stroke-width:.183618" transform="translate(0 -1)"/>
    <path d="M37.228 96.142c-2.618-.73-4.552-2.691-5.259-5.338-.356-1.333-.356-21.252 0-22.585 1.813-6.786 10.731-7.558 13.777-1.193l.571 1.193v22.585l-.57 1.193c-1.61 3.361-5.147 5.083-8.519 4.145" style="fill:#9d9d9d;fill-opacity:1;stroke-width:.183618" transform="translate(0 -1)"/>
    <path d="M30.159 64.52v.012c-3.626.131-4.3 1.821-4.294 9.65.005 7.204.189 7.832 2.657 8.999v-.002a4.3 4.3 0 0 0 1.637.42v.019h1.679c-.047-1.098-.08-2.637-.103-4.375v-10.35c.022-1.737.056-3.275.103-4.372h-1.171z" style="fill:#ccc;fill-opacity:1;stroke-width:.183618" transform="translate(0 -1)"/>
    <path d="M37.228 90.7c-2.618-.73-4.552-2.692-5.259-5.338-.356-1.333-.356-21.252 0-22.585 1.813-6.786 10.731-7.558 13.777-1.194l.571 1.194v22.585l-.57 1.193c-1.61 3.361-5.147 5.083-8.519 4.144" style="fill:#f2f2f2;fill-opacity:1;stroke-width:.183618" transform="translate(0 -1)"/>
    <g style="fill:#f5f5f5;fill-opacity:1">
        <path d="m76.038 88.002-.461-.462V74.341l.461-.461c.291-.291.677-.462 1.043-.462.367 0 .752.17 1.043.462l.462.461v13.2l-.462.461c-.29.291-.676.462-1.043.462s-.752-.171-1.043-.462m-24.072 3.009-.462-.462V77.35l.462-.461c.29-.291.676-.462 1.043-.462s.751.17 1.042.462l.462.461v13.2l-.462.461c-.29.291-.676.462-1.042.462-.367 0-.752-.17-1.043-.462m6.018 3.009-.462-.461V68.323l.462-.462c.29-.29.676-.461 1.043-.461s.752.17 1.043.461l.461.462V93.56l-.461.461c-.291.291-.677.462-1.043.462-.367 0-.752-.17-1.043-.462m12.402.381c-.857-.374-.827.104-.827-13.485V68.323l.461-.462c.291-.29.677-.461 1.043-.461.367 0 .752.17 1.043.461l.462.462v12.703c0 13.666.014 13.456-.925 13.456-.095 0-.286.039-.423.087-.138.048-.513-.027-.834-.167m-6.384 5.636-.462-.461V62.305l.462-.462c.291-.29.677-.461 1.043-.461s.752.17 1.043.461l.462.462v37.272l-.462.461c-.291.291-.677.462-1.043.462s-.752-.17-1.043-.462" style="fill:#f5f5f5;fill-opacity:1;stroke-width:.18807" transform="translate(-3.429 -8.617)scale(1.03716)"/>
    </g>
</svg>
