<svg xmlns="http://www.w3.org/2000/svg" xmlns:xlink="http://www.w3.org/1999/xlink" xml:space="preserve" width="128" height="128" viewBox="0 0 128 128">
    <defs>
        <linearGradient id="j">
            <stop offset="0" style="stop-color:#e9c6af;stop-opacity:1"/>
            <stop offset=".5" style="stop-color:#eed4c3;stop-opacity:1"/>
            <stop offset="1" style="stop-color:#dfac8b;stop-opacity:1"/>
        </linearGradient>
        <linearGradient id="f">
            <stop offset="0" style="stop-color:#e6e6e6;stop-opacity:1"/>
            <stop offset=".503" style="stop-color:#f0f0f0;stop-opacity:1"/>
            <stop offset="1" style="stop-color:#cbcbcb;stop-opacity:1"/>
        </linearGradient>
        <linearGradient id="e">
            <stop offset="0" style="stop-color:#ef829e;stop-opacity:1"/>
            <stop offset=".47" style="stop-color:#ef859f;stop-opacity:1"/>
            <stop offset="1" style="stop-color:#e53361;stop-opacity:1"/>
        </linearGradient>
        <linearGradient id="d">
            <stop offset="0" style="stop-color:#cacaca;stop-opacity:1"/>
            <stop offset="1" style="stop-color:#fbfbfb;stop-opacity:0"/>
        </linearGradient>
        <linearGradient id="c">
            <stop offset="0" style="stop-color:#afc6e9;stop-opacity:1"/>
            <stop offset="1" style="stop-color:#5f8dd3;stop-opacity:1"/>
        </linearGradient>
        <linearGradient id="a">
            <stop offset="0" style="stop-color:#f0f0f0;stop-opacity:1"/>
            <stop offset="1" style="stop-color:#fff;stop-opacity:1"/>
        </linearGradient>
        <linearGradient id="b">
            <stop offset="0" style="stop-color:#d3d3d3;stop-opacity:1"/>
            <stop offset=".05" style="stop-color:#dfdfdf;stop-opacity:1"/>
            <stop offset=".1" style="stop-color:#d3d3d3;stop-opacity:1"/>
            <stop offset=".9" style="stop-color:#d3d3d3;stop-opacity:1"/>
            <stop offset=".95" style="stop-color:#dfdfdf;stop-opacity:1"/>
            <stop offset="1" style="stop-color:#d3d3d3;stop-opacity:1"/>
        </linearGradient>
        <linearGradient xlink:href="#a" id="l" x1="64" x2="64" y1="31.779" y2="112.5" gradientUnits="userSpaceOnUse"/>
        <linearGradient xlink:href="#b" id="k" x1="11.5" x2="116.5" y1="120.5" y2="120.5" gradientTransform="matrix(.80737 0 0 1 12.328 0)" gradientUnits="userSpaceOnUse"/>
        <linearGradient xlink:href="#c" id="m" x1="64" x2="64" y1="7.5" y2="31.779" gradientUnits="userSpaceOnUse"/>
        <linearGradient xlink:href="#d" id="n" x1="91.146" x2="106.048" y1="97.259" y2="111.039" gradientTransform="translate(2 2)" gradientUnits="userSpaceOnUse"/>
        <linearGradient xlink:href="#e" id="r" x1="6.897" x2="13.503" y1="52.281" y2="52.281" gradientTransform="translate(193.492 -141.172)scale(1.13722)" gradientUnits="userSpaceOnUse"/>
        <linearGradient xlink:href="#f" id="s" x1="5.665" x2="14.736" y1="55.893" y2="55.893" gradientTransform="translate(193.492 -141.172)scale(1.13722)" gradientUnits="userSpaceOnUse"/>
        <linearGradient xlink:href="#j" id="q" x1="125.618" x2="166.882" y1="151.044" y2="151.044" gradientTransform="rotate(212.076 81.92 45.121)scale(-.20374 .4326)" gradientUnits="userSpaceOnUse"/>
        <filter id="p" width="1.186" height="1.197" x="-.093" y="-.061" style="color-interpolation-filters:sRGB">
            <feFlood flood-color="#000" flood-opacity=".21" result="flood"/>
            <feGaussianBlur in="SourceGraphic" result="blur" stdDeviation="1.5"/>
            <feOffset dy="4.45" in="blur" result="offset"/>
            <feComposite in="flood" in2="offset" operator="in" result="comp1"/>
            <feComposite in="SourceGraphic" in2="comp1" result="comp2"/>
        </filter>
    </defs>
    <rect width="84.774" height="105" x="21.613" y="17.5" rx="7.811" ry="8" style="fill:#2c5aa0;fill-opacity:1;stroke-width:.898537"/>
    <rect width="84.774" height="105" x="21.613" y="15.5" rx="7.811" ry="8" style="fill:url(#k);fill-opacity:1;stroke-width:.898537"/>
    <rect width="84.773" height="105" x="21.613" y="7.5" rx="8" ry="8" style="fill:url(#l);fill-opacity:1;stroke-width:.898537"/>
    <path d="M29.613 9.549c-3.332 0-5.95 2.619-5.95 5.951v89c0 3.332 2.618 5.951 5.95 5.951h68.774c3.332 0 5.95-2.619 5.95-5.951v-89c0-3.332-2.618-5.951-5.95-5.951z" style="fill:#f0f0f0;fill-opacity:1;stroke-width:.898537" transform="translate(-1.198)"/>
    <path d="M34.266 43.926c-.724 0-1.308.74-1.308 1.66s.584 1.662 1.308 1.662h57.07c.724 0 1.31-.742 1.31-1.662s-.586-1.66-1.31-1.66zm0 13.449c-.724 0-1.308.74-1.308 1.66s.584 1.662 1.308 1.662h57.07c.724 0 1.31-.741 1.31-1.662s-.586-1.66-1.31-1.66zm0 13.45c-.724 0-1.308.74-1.308 1.661 0 .92.584 1.66 1.308 1.66h57.07c.724 0 1.31-.74 1.31-1.66s-.586-1.662-1.31-1.662zm0 13.448c-.724 0-1.308.742-1.308 1.663 0 .92.584 1.662 1.308 1.662h57.07c.724 0 1.31-.742 1.31-1.662 0-.921-.586-1.663-1.31-1.663zm.159 13.45c-.812 0-1.467.741-1.467 1.662s.655 1.662 1.467 1.662h23.628c.812 0 1.467-.742 1.467-1.662s-.655-1.662-1.467-1.662z" style="fill:#d5d5d5;fill-opacity:1;fill-rule:evenodd;stroke:none;stroke-width:.425395;stroke-linecap:round;stroke-opacity:0"/>
    <path d="M29.613 7.5c-4.432 0-8 3.568-8 8v14.28h84.774V15.5c0-4.432-3.568-8-8-8z" style="fill:url(#m);fill-opacity:1;fill-rule:evenodd;stroke-width:1.99815;stroke-linecap:round;stroke-opacity:0"/>
    <path d="M98.41 9.502c-23.04.002-46.08-.011-69.12.006-3.01.09-5.637 2.756-5.67 5.767-.01 4.835-.006 9.67-.005 14.504h80.774c.004-4.934.016-9.87-.026-14.802-.184-3.005-2.943-5.54-5.953-5.475" style="fill:#5f8dd3;fill-opacity:1;fill-rule:evenodd;stroke-width:1.99815;stroke-linecap:round;stroke-opacity:0"/>
    <path d="M21.613 29.779h84.774v2H21.613z" style="fill:#2c5aa0;fill-opacity:1;fill-rule:evenodd;stroke-width:18.0944;stroke-linecap:round;stroke-opacity:0"/>
    <path d="M21.613 31.779h84.774v2H21.613z" style="fill:#d3d3d3;fill-opacity:1;fill-rule:evenodd;stroke-width:18.0944;stroke-linecap:round;stroke-opacity:0"/>
    <path d="m106.387 93.75-18.75 18.75h10.75c4.432 0 8-3.568 8-8z" style="fill:url(#n);fill-opacity:1;fill-rule:evenodd;stroke-width:3;stroke-linecap:round;stroke-opacity:0"/>
    <path d="M21.613 104.5v8c0 4.432 3.483 8 7.81 8h69.153c4.328 0 7.81-3.568 7.81-8v-8c0 4.432-3.482 8-7.81 8H29.424c-4.328 0-7.81-3.568-7.81-8" style="opacity:.328972;mix-blend-mode:soft-light;fill:#000;fill-opacity:1;stroke-width:.898537"/>
    <path d="m87.637 112.5 18.75-18.75h-10.75c-4.432 0-8 3.568-8 8z" style="fill:#c7c7c7;fill-opacity:1;stroke-width:.898537"/>
    <g style="filter:url(#p)" transform="translate(-150.216 -3.193)scale(1.13054)">
        <rect width="2.102" height="47.322" x="200.888" y="-80.542" rx="0" ry="0" style="fill:#ffb367;fill-opacity:1;fill-rule:evenodd;stroke:none;stroke-width:.20307;stroke-linejoin:bevel" transform="rotate(32.076)"/>
        <path d="m214.774 39.55-25.13 40.098 1.78 1.117 1.781 1.116 25.13-40.098-1.78-1.116z" style="fill:#ff881e;fill-opacity:1;fill-rule:evenodd;stroke:none;stroke-width:.20307;stroke-linejoin:bevel"/>
        <rect width="2.102" height="47.322" x="207.194" y="-80.542" rx="0" ry="0" style="fill:#e66100;fill-opacity:1;fill-rule:evenodd;stroke:none;stroke-width:.20307;stroke-linejoin:bevel" transform="rotate(32.076)"/>
        <path d="m187.862 78.532-3.892 12.843.007.005a.7.7 39.423 0 0-.047.25.69.69 39.423 0 0 .69.69.7.7 39.423 0 0 .395-.126l.005.004 9.966-9.2z" style="fill:url(#q);fill-opacity:1;fill-rule:evenodd;stroke:none;stroke-width:.29688;stroke-linejoin:bevel"/>
        <path d="m184.838 88.508-.868 2.867-.023.103.002.001a.7.7 0 0 0-.019.15.69.69 0 0 0 .69.69.7.7 0 0 0 .278-.059v.001l.123-.063 2.308-2.13z" style="fill:#333;fill-opacity:1;fill-rule:evenodd;stroke:none;stroke-width:.565866;stroke-linejoin:bevel"/>
        <rect width="7.513" height="14.082" x="201.335" y="-88.758" rx="3.756" ry="3.756" style="fill:url(#r);fill-opacity:1;fill-rule:evenodd;stroke:none;stroke-width:.812963;stroke-linejoin:bevel" transform="rotate(32.076)"/>
        <rect width="10.315" height="5.866" x="199.934" y="-80.542" rx=".952" ry="1.121" style="fill:url(#s);fill-opacity:1;fill-rule:evenodd;stroke:none;stroke-width:.952603;stroke-linejoin:bevel" transform="rotate(32.076)"/>
    </g>
</svg>
