<svg xmlns="http://www.w3.org/2000/svg" width="128" height="128" viewBox="0 0 128 128">
    <path d="M63.992 10.947a55 55 0 0 0-6.303.414 55 55 0 0 0-2.373.358 55 55 0 0 0-3.902.775 55 55 0 0 0-2.646.668 55 55 0 0 0-3.807 1.293 55 55 0 0 0-4.375 1.85 55 55 0 0 0-2.875 1.418 55 55 0 0 0-2.666 1.6l-.309.175-.148.098-.014.01a55 55 0 0 0-.992.664 55 55 0 0 0-.637.425l-.375.25a55 55 0 0 0-3.187 2.367l-.15.131-.003.002-.017.016.017.014-.207.152a55 55 0 0 0-1.584 1.39 55 55 0 0 0-3.427 3.296 55 55 0 0 0-1.477 1.685 55 55 0 0 0-2.933 3.62 55 55 0 0 0-1.311 1.958 55 55 0 0 0-2.396 3.846 55 55 0 0 0-1.133 2.295 55 55 0 0 0-1.83 3.949 55 55 0 0 0-.909 2.68 55 55 0 0 0-1.244 3.88 55 55 0 0 0-.675 3.383 55 55 0 0 0-.647 3.418 55 55 0 0 0-.453 6.92h.002a55 55 0 0 0 .453 6.92 55 55 0 0 0 .645 3.418 55 55 0 0 0 .675 3.383 55 55 0 0 0 1.244 3.88 55 55 0 0 0 .909 2.68 55 55 0 0 0 1.83 3.95 55 55 0 0 0 1.133 2.295 55 55 0 0 0 2.396 3.845 55 55 0 0 0 1.31 1.96 55 55 0 0 0 2.934 3.618 55 55 0 0 0 1.477 1.686 55 55 0 0 0 3.427 3.295 55 55 0 0 0 1.584 1.39l.227.169a55 55 0 0 1 13.377-8.006 27.5 55 0 0 1-1.236-3.336 27.5 55 0 0 1-.832-2.614 27.5 55 0 0 0 .832 2.614 27.5 55 0 0 0 1.216 3.248h-.002a27.5 55 0 0 0 21.387 20.605 27.5 55 0 0 0 1.752-.129 27.5 55 0 0 1-1.742.137l.002.002h.002a55 55 0 0 0 6.3-.414 55 55 0 0 0 2.374-.357 55 55 0 0 0 3.902-.776 55 55 0 0 0 2.647-.668 55 55 0 0 0 3.808-1.293 55 55 0 0 0 4.375-1.85 55 55 0 0 0 2.875-1.417 55 55 0 0 0 2.73-1.639l.256-.147.149-.097a55 55 0 0 0 1.008-.674 55 55 0 0 0 .636-.426l.362-.24a55 55 0 0 0 3.185-2.367l.149-.131.017-.012-.002-.002.006-.004-.017-.013.22-.162a55 55 0 0 0 1.586-1.391 55 55 0 0 0 3.424-3.295 55 55 0 0 0 1.479-1.686 55 55 0 0 0 2.935-3.619 55 55 0 0 0 1.307-1.959 55 55 0 0 0 2.398-3.845 55 55 0 0 0 1.131-2.295 55 55 0 0 0 1.832-3.95 55 55 0 0 0 .908-2.68 55 55 0 0 0 1.244-3.88 55 55 0 0 0 .674-3.383 55 55 0 0 0 .647-3.418 55 55 0 0 0 .453-6.92 55 55 0 0 0-.451-6.92 55 55 0 0 0-.649-3.418 55 55 0 0 0-.674-3.382 55 55 0 0 0-1.244-3.881 55 55 0 0 0-.908-2.68 55 55 0 0 0-1.832-3.95 55 55 0 0 0-1.13-2.294 55 55 0 0 0-2.4-3.846 55 55 0 0 0-1.306-1.959 55 55 0 0 0-2.935-3.619 55 55 0 0 0-1.479-1.686 55 55 0 0 0-3.424-3.294 55 55 0 0 0-1.586-1.391l-.216-.162.005-.004-.007-.008.011-.008-.133-.095-.04-.038a55 55 0 0 0-3.186-2.367l-.18-.12-.174-.13a55 55 0 0 0-.636-.425l.228.168a55 55 0 0 0-1.244-.833l-.475-.285.483.276-.149-.098a55 55 0 0 0-.693-.394 55 55 0 0 0-2.3-1.381 55 55 0 0 0-2.876-1.418 55 55 0 0 0-4.375-1.85 55 55 0 0 0-3.806-1.293 55 55 0 0 0-2.649-.668 55 55 0 0 0-3.9-.775 55 55 0 0 0-2.373-.358 55 55 0 0 0-6.303-.414l-.004.002zM29.25 108.436l-.02.013.051.037-.068.053.17.148a55 55 0 0 0 3.187 2.368 55 55 0 0 0 2.004 1.34 55 55 0 0 0 3.137 1.882 55 55 0 0 0 2.875 1.418 55 55 0 0 0 4.375 1.85 55 55 0 0 0 3.807 1.293 55 55 0 0 0 2.646.668 55 55 0 0 0 3.902.775 55 55 0 0 0 2.373.358 55 55 0 0 0 6.303.414l.002-.002a27.5 55 0 0 1-21.4-20.594 55 55 0 0 0-13.293 8.016zm32.803-97.334a27.5 55 0 0 0-.908.191 27.5 55 0 0 1 .908-.191m3.916.002a27.5 55 0 0 1 .63.132 27.5 55 0 0 0-.63-.132m-5.862.425a27.5 55 0 0 0-1.05.371 27.5 55 0 0 1 1.05-.37m7.83.012a27.5 55 0 0 1 .747.264 27.5 55 0 0 0-.746-.264m-9.732.684a27.5 55 0 0 0-1.117.552 27.5 55 0 0 1 1.117-.552m11.664.033a27.5 55 0 0 1 .799.394 27.5 55 0 0 0-.799-.394m-13.545.93a27.5 55 0 0 0-1.125.724 27.5 55 0 0 1 1.125-.725m15.46.064a27.5 55 0 0 1 .788.506 27.5 55 0 0 0-.789-.506m-17.307 1.166a27.5 55 0 0 0-1.143.914 27.5 55 0 0 1 1.143-.914m19.193.11a27.5 55 0 0 1 .767.615 27.5 55 0 0 0-.767-.616m-20.951 1.341a27.5 55 0 0 0-1.178 1.135 27.5 55 0 0 1 1.178-1.135m22.76.18a27.5 55 0 0 1 .767.74 27.5 55 0 0 0-.767-.74m-24.481 1.527a27.5 55 0 0 0-1.166 1.328 27.5 55 0 0 1 1.166-1.328m26.264.287a27.5 55 0 0 1 .705.801 27.5 55 0 0 0-.705-.8m-27.897 1.625a27.5 55 0 0 0-1.2 1.596 27.5 55 0 0 1 1.2-1.596m29.602.43a27.5 55 0 0 1 .676.898 27.5 55 0 0 0-.676-.898M47.875 21.51a27.5 55 0 0 0-1.283 1.972 27.5 55 0 0 1 1.283-1.972m32.701.68a27.5 55 0 0 1 .654 1.005 27.5 55 0 0 0-.654-1.006M46.53 23.591a27.5 55 0 0 0-3.894 7.894h-.002a27.5 55 0 0 0-.014.037 27.5 55 0 0 0-.014.032h.002a27.5 55 0 0 0-1.216 3.246 27.5 55 0 0 0-.832 2.613 27.5 55 0 0 1 .832-2.613 27.5 55 0 0 1 1.236-3.336 27.5 55 0 0 1 3.902-7.873m35.625 1.187a27.5 55 0 0 1 .555.98 27.5 55 0 0 0-.555-.98m1.598 3.057a27.5 55 0 0 1 .344.697 27.5 55 0 0 0-.344-.697m1.658 3.701a27.5 55 0 0 1 1.21 3.264 27.5 55 0 0 1 .831 2.613 27.5 55 0 0 0-.832-2.613 27.5 55 0 0 0-1.219-3.26zm-25.96 4.19.183.017zm9.11 0-.183.017zM40.22 38.512a27.5 55 0 0 0-.66 2.465 27.5 55 0 0 1 .66-2.465m47.572 0a27.5 55 0 0 1 .66 2.465 27.5 55 0 0 0-.66-2.465m-48.596 3.894a27.5 55 0 0 0-.523 2.367 27.5 55 0 0 1 .523-2.367m49.62 0a27.5 55 0 0 1 .523 2.367 27.5 55 0 0 0-.524-2.367m-50.5 4.137a27.5 55 0 0 0-.397 2.234 27.5 55 0 0 1 .396-2.234m51.38 0a27.5 55 0 0 1 .397 2.234 27.5 55 0 0 0-.397-2.234m-52.088 4.252a27.5 55 0 0 0-.294 2.16 27.5 55 0 0 1 .294-2.16m52.795 0a27.5 55 0 0 1 .295 2.16 27.5 55 0 0 0-.295-2.16m-53.326 4.33a27.5 55 0 0 0-.207 2.15 27.5 55 0 0 1 .207-2.15m53.858 0a27.5 55 0 0 1 .207 2.15 27.5 55 0 0 0-.207-2.15m-54.221 4.559a27.5 55 0 0 0-.111 1.9 27.5 55 0 0 1 .11-1.9m54.584 0a27.5 55 0 0 1 .111 1.902 27.5 55 0 0 0-.111-1.902m.111 10.625a27.5 55 0 0 1-.111 1.902 27.5 55 0 0 0 .111-1.902m-54.806.002a27.5 55 0 0 0 .11 1.9 27.5 55 0 0 1-.11-1.9m.267 4.308a27.5 55 0 0 0 .207 2.15 27.5 55 0 0 1-.207-2.15m.444 4.32a27.5 55 0 0 0 .294 2.16 27.5 55 0 0 1-.294-2.16m.605 4.178a27.5 55 0 0 0 .396 2.235 27.5 55 0 0 1-.396-2.235m.754 4.004a27.5 55 0 0 0 .523 2.367 27.5 55 0 0 1-.523-2.367m.887 3.797a27.5 55 0 0 0 .66 2.465 27.5 55 0 0 1-.66-2.465m48.892 0a27.5 55 0 0 1-.66 2.465 27.5 55 0 0 0 .66-2.465m-24.49 5.03.045.001-.016.002-.03-.002-.196.008zm.088 0 .29.013-.316-.012zm4.22.197.536.054zm-8.572.001-.392.041zm12.979.545.228.04zm5.652 16.102a27.5 55 0 0 1-1.562 1.78 27.5 55 0 0 0 1.562-1.78m-1.687 1.912a27.5 55 0 0 1-1.551 1.494 27.5 55 0 0 0 1.55-1.494m-1.76 1.676a27.5 55 0 0 1-1.52 1.215 27.5 55 0 0 0 1.52-1.215m-1.842 1.441a27.5 55 0 0 1-1.482.955 27.5 55 0 0 0 1.482-.955m-1.873 1.166a27.5 55 0 0 1-1.469.727 27.5 55 0 0 0 1.469-.727m-1.879.883a27.5 55 0 0 1-1.488.524 27.5 55 0 0 0 1.488-.524m-1.863.61a27.5 55 0 0 1-1.54.326 27.5 55 0 0 0 1.54-.327" style="fill:#5ac4b3;fill-opacity:1;stroke-width:0"/>
    <path d="M42.632 31.486a27.5 55 0 0 0-6.127 34.461h27.5V35.945l-.043.002a55 55 0 0 1-21.33-4.46" style="fill:#5ac4b3;fill-opacity:1;stroke-width:0"/>
    <path d="M63.991 10.947a55 55 0 0 0-6.303.414 55 55 0 0 0-2.373.358 55 55 0 0 0-3.9.775 55 55 0 0 0-2.648.668 55 55 0 0 0-3.807 1.293 55 55 0 0 0-4.375 1.85 55 55 0 0 0-2.875 1.418 55 55 0 0 0-3.135 1.883 55 55 0 0 0-2.006 1.34 55 55 0 0 0-3.185 2.367l-.17.148a55 55 0 0 0 13.379 8.082A27.5 55 0 0 1 63.995 10.95z" style="fill:#91eeb6;fill-opacity:1;stroke-width:0"/>
    <path d="M38.872 17.15a55 55 0 0 0-4.137 2.348l-.146.098a55 55 0 0 1 4.283-2.445m-5.29 3.12a55 55 0 0 0-.638.425 55 55 0 0 0-2.257 1.688 55 55 0 0 1 2.894-2.113m-2.895 2.113a55 55 0 0 0-1.456 1.062l.018.014a55 55 0 0 1 1.438-1.076m-1.438 1.076-.225.168a55 55 0 0 0-1.586 1.39 55 55 0 0 0-3.425 3.296 55 55 0 0 0-1.479 1.685 55 55 0 0 0-2.933 3.62 55 55 0 0 0-1.309 1.958 55 55 0 0 0-2.398 3.846 55 55 0 0 0-1.131 2.295 55 55 0 0 0-1.83 3.95 55 55 0 0 0-.91 2.679 55 55 0 0 0-1.245 3.88 55 55 0 0 0-.674 3.383 55 55 0 0 0-.646 3.418 55 55 0 0 0-.453 6.92h27.5a27.5 55 0 0 1 6.121-34.482 55 55 0 0 1-13.377-8.006" style="fill:#87deaa;fill-opacity:1;stroke-width:0"/>
    <path d="M38.872 114.744a55 55 0 0 1-4.137-2.347l-.146-.098a55 55 0 0 0 4.283 2.445m-5.29-3.119a55 55 0 0 1-.638-.426 55 55 0 0 1-2.257-1.687 55 55 0 0 0 2.894 2.113m-2.895-2.113a55 55 0 0 1-1.456-1.063l.018-.013a55 55 0 0 0 1.438 1.076m-1.438-1.076-.225-.168a55 55 0 0 1-1.586-1.39 55 55 0 0 1-3.425-3.296 55 55 0 0 1-1.479-1.685 55 55 0 0 1-2.933-3.62 55 55 0 0 1-1.309-1.959 55 55 0 0 1-2.398-3.845 55 55 0 0 1-1.131-2.295 55 55 0 0 1-1.83-3.95 55 55 0 0 1-.91-2.68 55 55 0 0 1-1.245-3.88 55 55 0 0 1-.674-3.383 55 55 0 0 1-.646-3.418 55 55 0 0 1-.453-6.92h27.5a27.5 55 0 0 0 6.121 34.483 55 55 0 0 0-13.377 8.006" style="fill:#5ac4b3;fill-opacity:1;stroke-width:0"/>
    <path d="M63.991 121.053a55 55 0 0 1-6.303-.414 55 55 0 0 1-2.373-.358 55 55 0 0 1-3.9-.775 55 55 0 0 1-2.648-.668 55 55 0 0 1-3.807-1.293 55 55 0 0 1-4.375-1.85 55 55 0 0 1-2.875-1.418 55 55 0 0 1-3.135-1.883 55 55 0 0 1-2.006-1.34 55 55 0 0 1-3.185-2.367l-.17-.148a55 55 0 0 1 13.379-8.082 27.5 55 0 0 0 21.402 20.594z" style="fill:#37abc8;fill-opacity:1;stroke:#37abc8;stroke-width:0;stroke-miterlimit:4;stroke-dasharray:none;stroke-opacity:1"/>
    <path d="M63.993 10.95a27.5 55 0 0 0-21.387 20.605 55 55 0 0 0 21.356 4.392l.043-.002V10.95z" style="fill:#87deaa;fill-opacity:1;stroke-width:0"/>
    <path d="M42.632 100.408a27.5 55 0 0 1-6.127-34.46h27.5v30.001l-.043-.002a55 55 0 0 0-21.33 4.461" style="fill:#37abc8;fill-opacity:1;stroke-width:0"/>
    <path d="M63.993 120.947a27.5 55 0 0 1-21.387-20.605 55 55 0 0 1 21.356-4.393l.043.002v24.996z" style="fill:#378bde;fill-opacity:1;stroke:#378bde;stroke-width:.2;stroke-miterlimit:4;stroke-dasharray:none;stroke-opacity:1"/>
    <path d="M64.017 10.95a27.5 55 0 0 1 21.386 20.605 55 55 0 0 1-21.355 4.392l-.043-.002V10.95z" style="fill:#5ac4b3;fill-opacity:1;stroke-width:0"/>
    <path d="M85.378 31.486a27.5 55 0 0 1 6.127 34.461h-27.5V35.945l.043.002a55 55 0 0 0 21.33-4.46" style="fill:#37abc8;fill-opacity:1;stroke-width:0"/>
    <path d="M85.378 100.408a27.5 55 0 0 0 6.127-34.46h-27.5v30.001l.043-.002a55 55 0 0 1 21.33 4.461" style="fill:#378bde;fill-opacity:1;stroke-width:0"/>
    <path d="M63.993 120.947a27.5 55 0 0 0 21.387-20.605 55 55 0 0 0-21.356-4.393l-.043.002v24.996z" style="fill:#266ec6;fill-opacity:1;stroke-width:0"/>
    <path d="M63.999 10.947a55 55 0 0 1 6.303.414 55 55 0 0 1 2.373.358 55 55 0 0 1 3.9.775 55 55 0 0 1 2.649.668 55 55 0 0 1 3.806 1.293 55 55 0 0 1 4.375 1.85 55 55 0 0 1 2.875 1.418 55 55 0 0 1 3.135 1.883 55 55 0 0 1 2.006 1.34 55 55 0 0 1 3.185 2.367l.17.148a55 55 0 0 1-13.379 8.082A27.5 55 0 0 0 63.995 10.95z" style="fill:#40a1c8;fill-opacity:1;stroke-width:0"/>
    <path d="M89.138 17.15a55 55 0 0 1 4.136 2.348l.147.098a55 55 0 0 0-4.283-2.445m5.29 3.12a55 55 0 0 1 .637.425 55 55 0 0 1 2.258 1.688 55 55 0 0 0-2.894-2.113m2.895 2.113a55 55 0 0 1 1.455 1.062l-.017.014a55 55 0 0 0-1.438-1.076m1.438 1.076.224.168a55 55 0 0 1 1.586 1.39 55 55 0 0 1 3.426 3.296 55 55 0 0 1 1.479 1.685 55 55 0 0 1 2.933 3.62 55 55 0 0 1 1.309 1.958 55 55 0 0 1 2.398 3.846 55 55 0 0 1 1.131 2.295 55 55 0 0 1 1.83 3.95 55 55 0 0 1 .91 2.679 55 55 0 0 1 1.244 3.88 55 55 0 0 1 .674 3.383 55 55 0 0 1 .647 3.418 55 55 0 0 1 .453 6.92h-27.5a27.5 55 0 0 0-6.121-34.482 55 55 0 0 0 13.377-8.006" style="fill:#378bde;fill-opacity:1;stroke-width:0"/>
    <path d="M89.138 114.744a55 55 0 0 0 4.136-2.347l.147-.098a55 55 0 0 1-4.283 2.445m5.29-3.119a55 55 0 0 0 .637-.426 55 55 0 0 0 2.258-1.687 55 55 0 0 1-2.894 2.113m2.895-2.113a55 55 0 0 0 1.455-1.063l-.017-.013a55 55 0 0 1-1.438 1.076m1.438-1.076.224-.168a55 55 0 0 0 1.586-1.39 55 55 0 0 0 3.426-3.296 55 55 0 0 0 1.479-1.685 55 55 0 0 0 2.933-3.62 55 55 0 0 0 1.309-1.959 55 55 0 0 0 2.398-3.845 55 55 0 0 0 1.131-2.295 55 55 0 0 0 1.83-3.95 55 55 0 0 0 .91-2.68 55 55 0 0 0 1.244-3.88 55 55 0 0 0 .674-3.383 55 55 0 0 0 .647-3.418 55 55 0 0 0 .453-6.92h-27.5a27.5 55 0 0 1-6.121 34.483 55 55 0 0 1 13.377 8.006" style="fill:#266ec6;fill-opacity:1;stroke-width:0"/>
    <path d="M64.005 120.957a55 55 0 0 0 6.303-.414 55 55 0 0 0 2.373-.357 55 55 0 0 0 3.9-.776 55 55 0 0 0 2.648-.668 55 55 0 0 0 3.807-1.293 55 55 0 0 0 4.375-1.85 55 55 0 0 0 2.875-1.417 55 55 0 0 0 3.135-1.883 55 55 0 0 0 2.006-1.34 55 55 0 0 0 3.185-2.367l.17-.149a55 55 0 0 0-13.379-8.082 27.5 55 0 0 1-21.402 20.594z" style="fill:#1e62b5;fill-opacity:1;stroke:#1e62b5;stroke-width:.1;stroke-miterlimit:4;stroke-dasharray:none;stroke-opacity:1"/>
    <path d="M8.996 58.05v8a55 55 0 0 0 54.998 55 55 55 0 0 0 55-55v-8a55 55 0 0 1-55 55 55 55 0 0 1-54.998-55" style="opacity:.3;fill:#3d3846;fill-opacity:1"/>
</svg>
