<svg xmlns="http://www.w3.org/2000/svg" xmlns:xlink="http://www.w3.org/1999/xlink" xml:space="preserve" width="128" height="128" viewBox="0 0 128 128">
    <defs>
        <linearGradient id="a">
            <stop offset="0" style="stop-color:gray;stop-opacity:1"/>
            <stop offset=".05" style="stop-color:#999;stop-opacity:1"/>
            <stop offset=".1" style="stop-color:gray;stop-opacity:1"/>
            <stop offset=".9" style="stop-color:gray;stop-opacity:1"/>
            <stop offset=".95" style="stop-color:#999;stop-opacity:1"/>
            <stop offset="1" style="stop-color:gray;stop-opacity:1"/>
        </linearGradient>
        <linearGradient xlink:href="#a" id="b" x1="11.5" x2="116.5" y1="120.5" y2="120.5" gradientTransform="translate(0 1)" gradientUnits="userSpaceOnUse"/>
        <filter id="c" width="1.304" height="1.302" x="-.152" y="-.096" style="color-interpolation-filters:sRGB">
            <feFlood flood-color="#000" flood-opacity=".251" result="flood"/>
            <feComposite in="flood" in2="SourceGraphic" operator="in" result="composite1"/>
            <feGaussianBlur in="composite1" result="blur" stdDeviation="2.1"/>
            <feOffset dy="5.792" result="offset"/>
            <feComposite in="SourceGraphic" in2="offset" result="composite2"/>
        </filter>
        <filter id="d" width="1.315" height="2.635" x="-.158" y="-.519" style="color-interpolation-filters:sRGB">
            <feFlood flood-color="#000" flood-opacity=".251" result="flood"/>
            <feComposite in="flood" in2="SourceGraphic" operator="in" result="composite1"/>
            <feGaussianBlur in="composite1" result="blur" stdDeviation="2.1"/>
            <feOffset dy="5.792" result="offset"/>
            <feComposite in="SourceGraphic" in2="offset" result="composite2"/>
        </filter>
    </defs>
    <rect width="105" height="105" x="11.5" y="16.5" rx="13" ry="13" style="fill:url(#b);fill-opacity:1"/>
    <rect width="105" height="105" x="11.5" y="6.5" rx="13" ry="13" style="fill:#ccc;fill-opacity:1"/>
    <rect width="100.324" height="100.324" x="13.838" y="8.838" rx="12" ry="12" style="fill:#333;fill-opacity:1;stroke-width:.955467"/>
    <path d="m34.768 30.653-6.866 6.867 19.416 19.416-19.416 19.417 6.866 6.867 26.284-26.284z" style="color:#000;fill:#e6e6e6;fill-opacity:1;stroke-width:.407808;-inkscape-stroke:none;filter:url(#c)"/>
    <path d="M70.32 73.51v9.71h31.987v-9.71z" style="color:#000;fill:#e6e6e6;fill-opacity:1;stroke-width:.407808;-inkscape-stroke:none;filter:url(#d)"/>
    <path d="M25.838 8.838c-6.648 0-12 5.352-12 12v4c0-6.648 5.352-12 12-12h76.324c6.648 0 12 5.352 12 12v-4c0-6.648-5.352-12-12-12z" style="fill:#1a1a1a;fill-opacity:.60298091;stroke-width:.955467"/>
</svg>
