<svg xmlns="http://www.w3.org/2000/svg" width="128" height="128" viewBox="0 0 128 128">
    <path d="m106.069 29.442-5.936 10.647a42 42 0 0 1 .489.983l-.489.878a42 42 0 0 1 .98 1.966l4.956-8.892v-3.721zm-84.236.098v5.581l5.027 9.024a42 42 0 0 1 .976-1.972l-.487-.875a42 42 0 0 1 .487-.985zM64 37.615a23.595 23.595 0 0 0-23.595 23.594 24 24 0 0 0 .093.93 24 24 0 0 0-.093.93 24 24 0 0 0 .184 1.861 24 24 0 0 1 .174-.928A23.595 23.595 0 0 1 64 43.196 23.595 23.595 0 0 1 87.515 64.93a24 24 0 0 0 .08-1.86 24 24 0 0 0-.037-1.018 24 24 0 0 0 .037-.843A23.595 23.595 0 0 0 64 37.615m38.948 8.42a42 42 0 0 1 1.495 4.407 42 42 0 0 0-1.495-4.408m-77.89.181a42 42 0 0 0-1.477 4.359 42 42 0 0 1 1.477-4.359m77.89 1.679a42 42 0 0 1 1.495 4.408 42 42 0 0 0-1.495-4.408m-77.89.182a42 42 0 0 0-1.477 4.358 42 42 0 0 1 1.477-4.358m15.531 16.855a23.6 23.6 0 0 0 .907 4.842 23.6 23.6 0 0 1-.907-4.842m.952 3.13a23.6 23.6 0 0 0 1.844 4.39 23.6 23.6 0 0 1-1.844-4.39m74.668.431-11.79 3.35a42 42 0 0 1-4.255 10.263l.487.874a42 42 0 0 1-.487.986l.976 1.75a42 42 0 0 0 3.28-8.29l11.79-3.351v-3.721Zm-104.418.14v5.581l11.822 3.36a42 42 0 0 0 3.318 8.29l.981-1.758a42 42 0 0 1-.49-.981l.49-.88a42 42 0 0 1-4.299-10.252Zm29.75 1.29a23.6 23.6 0 0 0 1.844 4.39 23.6 23.6 0 0 1-1.844-4.39m1.979 2.784a23.6 23.6 0 0 0 2.645 3.783 23.6 23.6 0 0 1-2.645-3.783m0 1.86a23.6 23.6 0 0 0 2.645 3.783 23.6 23.6 0 0 1-2.645-3.783m2.903 2.235a23.6 23.6 0 0 0 3.314 3.078 23.6 23.6 0 0 1-3.314-3.078m0 1.86a23.6 23.6 0 0 0 3.314 3.078 23.6 23.6 0 0 1-3.314-3.077m3.672 1.51a23.6 23.6 0 0 0 3.848 2.286 23.6 23.6 0 0 1-3.848-2.286m0 1.86a23.6 23.6 0 0 0 3.848 2.287 23.6 23.6 0 0 1-3.848-2.286m4.288.662a23.6 23.6 0 0 0 4.253 1.425 23.6 23.6 0 0 1-4.253-1.425m0 1.86a23.6 23.6 0 0 0 4.253 1.425 23.6 23.6 0 0 1-4.253-1.424m51.784 8.324-10.4 10.4-10.73-5.981a42 42 0 0 1-10.254 4.299l-3.36 11.822H56.717l-3.35-11.79a42 42 0 0 1-10.262-4.255l-10.773 6.003-10.4-10.4v5.581l10.4 10.4 10.773-6.002a42 42 0 0 0 10.262 4.255l3.35 11.79h14.708l3.36-11.823a42 42 0 0 0 10.252-4.299l10.731 5.982 10.4-10.4v-3.721z" style="fill:#666;fill-opacity:1;stroke-width:.930263"/>
    <path d="m106.167 92.878-10.4 10.4v5.581l10.4-10.4V96.6zm-84.236.098v5.581l10.4 10.4v-5.58zm34.785 20.442V119h14.708v-5.581z" style="fill:#b3b3b3;fill-opacity:1;stroke:none;stroke-width:.930263px;stroke-linecap:butt;stroke-linejoin:miter;stroke-opacity:1"/>
    <path d="m56.576 9-3.36 11.823a42 42 0 0 0-10.252 4.299L32.233 19.14l-10.4 10.4 6.003 10.773a42 42 0 0 0-4.255 10.262l-11.79 3.35v14.708l11.822 3.36a42 42 0 0 0 4.3 10.253l-5.982 10.73 10.4 10.4 10.773-6.003a42 42 0 0 0 10.262 4.255l3.35 11.79h14.708l3.36-11.822a42 42 0 0 0 10.252-4.3l10.731 5.982 10.4-10.4-6.003-10.772a42 42 0 0 0 4.255-10.262l11.79-3.35v-14.71l-11.766-3.343a42 42 0 0 0-4.31-10.353l5.936-10.647-10.4-10.4-10.685 5.956a42 42 0 0 0-10.368-4.273L71.284 9ZM64 37.615a23.595 23.595 0 0 1 23.595 23.594A23.595 23.595 0 0 1 64 84.804a23.595 23.595 0 0 1-23.595-23.595A23.595 23.595 0 0 1 64 37.615" style="fill:#e6e6e6;fill-opacity:1;stroke-width:.930263"/>
    <path d="m56.576 9-3.36 11.822a42 42 0 0 0-10.253 4.3l-10.73-5.981-10.401 10.4.715 1.285 9.685-9.685 10.73 5.98a42 42 0 0 1 10.255-4.299L56.577 11h14.706l3.334 11.725a42 42 0 0 1 10.367 4.273l10.684-5.955 9.684 9.684.716-1.286-10.4-10.398-10.684 5.955a42 42 0 0 0-10.367-4.273L71.283 9zm44.082 32.146-.525.944a42 42 0 0 1 4.31 10.351l11.766 3.344v-2l-11.766-3.344a42 42 0 0 0-3.785-9.295m-73.345.225a42 42 0 0 0-3.733 9.203l-11.789 3.352v2l11.79-3.352a42 42 0 0 1 4.255-10.261zm13.19 20.838a24 24 0 0 0-.097 1A23.595 23.595 0 0 0 64 86.805a23.595 23.595 0 0 0 23.594-23.596 24 24 0 0 0-.035-1A23.595 23.595 0 0 1 64 84.805a23.595 23.595 0 0 1-23.496-22.596m60.185 20.838a42 42 0 0 1-.524 1.058l5.29 9.489.714-.715zm-73.303.144-5.453 9.786.714.714 5.266-9.445a42 42 0 0 1-.527-1.055" style="fill:#fff;fill-opacity:1;stroke-width:.930263"/>
</svg>
