<svg xmlns="http://www.w3.org/2000/svg" xmlns:xlink="http://www.w3.org/1999/xlink" width="128" height="128" viewBox="0 0 128 128">
    <defs>
        <linearGradient id="e">
            <stop offset="0" style="stop-color:#d49200;stop-opacity:1"/>
            <stop offset=".05" style="stop-color:#fdae00;stop-opacity:.99607843"/>
            <stop offset=".096" style="stop-color:#d39100;stop-opacity:.98431373"/>
            <stop offset=".9" style="stop-color:#d49200;stop-opacity:1"/>
            <stop offset=".95" style="stop-color:#fdae00;stop-opacity:.99607843"/>
            <stop offset="1" style="stop-color:#d49200;stop-opacity:1"/>
        </linearGradient>
        <linearGradient id="d">
            <stop offset="0" style="stop-color:#d49200;stop-opacity:1"/>
            <stop offset="1" style="stop-color:#d49200;stop-opacity:0"/>
        </linearGradient>
        <linearGradient id="b">
            <stop offset="0" style="stop-color:#d49200;stop-opacity:1"/>
            <stop offset="1" style="stop-color:#fd5;stop-opacity:1"/>
        </linearGradient>
        <linearGradient id="a">
            <stop offset="0" style="stop-color:#d49200;stop-opacity:1"/>
            <stop offset="1" style="stop-color:#d49200;stop-opacity:.18762241"/>
        </linearGradient>
        <linearGradient id="g">
            <stop offset="0" style="stop-color:#fd5;stop-opacity:1"/>
            <stop offset="1" style="stop-color:#ffe585;stop-opacity:1"/>
        </linearGradient>
        <linearGradient id="c">
            <stop offset="0" style="stop-color:#d49200;stop-opacity:1"/>
            <stop offset="1" style="stop-color:#d49200;stop-opacity:.29551727"/>
        </linearGradient>
        <linearGradient id="f">
            <stop offset="0" style="stop-color:#ffe883;stop-opacity:1"/>
            <stop offset="1" style="stop-color:#fd5;stop-opacity:1"/>
        </linearGradient>
        <linearGradient xlink:href="#a" id="m" x1="100.195" x2="100.195" y1="35.913" y2="50.796" gradientTransform="translate(2)" gradientUnits="userSpaceOnUse"/>
        <linearGradient xlink:href="#a" id="n" x1="100.195" x2="100.195" y1="35.913" y2="50.796" gradientTransform="translate(-68.994 -4.481)scale(1.83905)" gradientUnits="userSpaceOnUse"/>
        <linearGradient xlink:href="#a" id="v" x1="100.195" x2="100.195" y1="35.913" y2="50.796" gradientTransform="translate(-137.421 19.959)scale(1.6791)" gradientUnits="userSpaceOnUse"/>
        <linearGradient xlink:href="#a" id="w" x1="100.195" x2="100.195" y1="35.913" y2="50.796" gradientTransform="translate(-55.656 36.943)scale(.76249)" gradientUnits="userSpaceOnUse"/>
        <linearGradient xlink:href="#b" id="B" x1="46.641" x2="11.5" y1="61.567" y2="27.25" gradientUnits="userSpaceOnUse"/>
        <linearGradient xlink:href="#a" id="C" x1="98.891" x2="100.195" y1="64.33" y2="44.739" gradientTransform="translate(-36.378 -26.71)scale(1.12352)" gradientUnits="userSpaceOnUse"/>
        <linearGradient xlink:href="#a" id="x" x1="100.195" x2="100.195" y1="35.913" y2="50.796" gradientTransform="translate(-10.722 55.77)scale(1.03274)" gradientUnits="userSpaceOnUse"/>
        <linearGradient xlink:href="#a" id="y" x1="100.195" x2="100.195" y1="35.913" y2="50.796" gradientTransform="translate(-28.76 8.856)scale(.76249)" gradientUnits="userSpaceOnUse"/>
        <linearGradient xlink:href="#a" id="z" x1="100.195" x2="100.195" y1="35.913" y2="45.662" gradientTransform="translate(-96.027 44.32)scale(1.59716)" gradientUnits="userSpaceOnUse"/>
        <linearGradient xlink:href="#c" id="j" x1="65.275" x2="65.275" y1="47.985" y2="92.05" gradientUnits="userSpaceOnUse"/>
        <linearGradient xlink:href="#d" id="k" x1="64.208" x2="64.208" y1="78.023" y2="92.05" gradientTransform="translate(-5.4 -6.58)scale(1.08437)" gradientUnits="userSpaceOnUse"/>
        <linearGradient xlink:href="#e" id="h" x1="138.666" x2="403.2" y1="370.937" y2="370.937" gradientUnits="userSpaceOnUse"/>
        <linearGradient xlink:href="#a" id="A" x1="100.195" x2="100.195" y1="35.913" y2="50.796" gradientTransform="translate(16.169 16.162)scale(.67335)" gradientUnits="userSpaceOnUse"/>
        <radialGradient xlink:href="#f" id="i" cx="64" cy="64" r="52.5" fx="64" fy="64" gradientTransform="matrix(1 0 0 .9 0 6.4)" gradientUnits="userSpaceOnUse"/>
        <radialGradient xlink:href="#g" id="l" cx="64" cy="70" r="15.959" fx="64" fy="70" gradientTransform="matrix(1.45069 0 0 1.4098 -28.844 -29.361)" gradientUnits="userSpaceOnUse"/>
    </defs>
    <g style="fill:#d49200;fill-opacity:1;stroke-width:.875191" transform="translate(-43.54 -29.984)scale(.39692)">
        <circle cx="270.933" cy="265.124" r="42.325" style="fill:#d49200;fill-opacity:1;stroke-width:.231561"/>
        <path d="m231.253 132.857-24.205 26.453H165.12c-14.55 0-26.454 11.904-26.454 26.453v158.721c0 14.55 11.904 26.453 26.454 26.453h211.627c14.55 0 26.453-11.904 26.453-26.453v-158.72c0-14.55-11.904-26.454-26.453-26.454h-41.929l-24.205-26.453zm39.68 198.4c-36.505 0-66.133-29.628-66.133-66.133 0-36.506 29.628-66.134 66.133-66.134 36.506 0 66.134 29.628 66.134 66.134s-29.628 66.133-66.134 66.133" style="fill:url(#h);fill-opacity:1;stroke-width:.231561"/>
    </g>
    <path d="M61.807 95.12v-5.289m0 5.289v-5.289" style="fill:#fff;fill-opacity:1;stroke-width:.319045"/>
    <path d="m48.25 16.75-9.607 10.5H22c-5.775 0-10.5 4.725-10.5 10.5v63c0 5.775 4.725 10.5 10.5 10.5h84c5.775 0 10.5-4.725 10.5-10.5v-63c0-5.775-4.725-10.5-10.5-10.5H89.357l-9.607-10.5Z" style="fill:url(#i);fill-opacity:1;stroke-width:.0919121"/>
    <ellipse cx="64" cy="70" rx="22.689" ry="22.05" style="opacity:1;fill:url(#j);stroke-width:1.78686;stroke-linecap:square;stroke-linejoin:round;fill-opacity:1"/>
    <path d="M64 66.212a14.362 13.958 0 0 0-14.362 13.957v6.506A14.362 13.958 0 0 0 64 100.632a14.362 13.958 0 0 0 14.362-13.957v-6.506A14.362 13.958 0 0 0 64 66.212" style="opacity:1;fill:url(#k);fill-opacity:1;stroke-width:1.13107;stroke-linecap:square;stroke-linejoin:round"/>
    <path d="M64 55.368a14.362 13.958 0 0 0-14.362 13.957v6.506A14.362 13.958 0 0 0 64 89.788a14.362 13.958 0 0 0 14.362-13.957v-6.506A14.362 13.958 0 0 0 64 55.368" style="opacity:1;fill:#d49200;fill-opacity:1;stroke-width:1.13107;stroke-linecap:square;stroke-linejoin:round"/>
    <ellipse cx="64" cy="69.325" rx="14.362" ry="13.958" style="opacity:1;fill:url(#l);fill-opacity:1;stroke-width:1.13107;stroke-linecap:square;stroke-linejoin:round"/>
    <circle cx="102.195" cy="43.355" r="7.441" style="opacity:1;fill:url(#m);fill-opacity:1;stroke-width:2;stroke-linecap:square;stroke-linejoin:round"/>
    <path d="M115.27 61.564a13.685 13.685 0 0 0-13.684 13.686 13.685 13.685 0 0 0 13.684 13.686 14 14 0 0 0 1.23-.088V61.623a14 14 0 0 0-1.23-.059" style="opacity:1;fill:url(#n);fill-opacity:1;stroke-width:3.67809;stroke-linecap:square;stroke-linejoin:round"/>
    <circle cx="30.816" cy="92.755" r="12.495" style="opacity:1;fill:url(#v);fill-opacity:1;stroke-width:3.35818;stroke-linecap:square;stroke-linejoin:round"/>
    <circle cx="20.741" cy="70" r="5.674" style="opacity:1;fill:url(#w);fill-opacity:1;stroke-width:1.52497;stroke-linecap:square;stroke-linejoin:round"/>
    <circle cx="92.754" cy="100.545" r="7.685" style="opacity:1;fill:url(#x);fill-opacity:1;stroke-width:2.06547;stroke-linecap:square;stroke-linejoin:round"/>
    <circle cx="47.638" cy="41.913" r="5.674" style="opacity:1;fill:url(#y);fill-opacity:1;stroke-width:1.52497;stroke-linecap:square;stroke-linejoin:round"/>
    <path d="M64 101.68a11.885 11.885 0 0 0-11.629 9.57h23.285A11.885 11.885 0 0 0 64 101.68" style="opacity:1;fill:url(#z);fill-opacity:1;stroke-width:3.19431;stroke-linecap:square;stroke-linejoin:round"/>
    <path d="M81.693 83.732A22.69 22.05 0 0 1 64 92.051a22.69 22.05 0 0 1-16.8-7.274v15.776h34.493z" style="fill:url(#i);fill-opacity:1;stroke-width:.0919121"/>
    <circle cx="83.635" cy="45.355" r="5.011" style="opacity:1;fill:url(#A);fill-opacity:1;stroke-width:1.34669;stroke-linecap:square;stroke-linejoin:round"/>
    <path d="m48.25 16.75-9.607 10.5H22c-5.775 0-10.5 4.725-10.5 10.5v2c0-5.775 4.725-10.5 10.5-10.5h16.643l9.607-10.5h20.254a8.4 8.4 0 0 1 1.203-2zm36.305 5.252a8.4 8.4 0 0 1-.211 1.768l5.013 5.48H106c5.775 0 10.5 4.725 10.5 10.5v-2c0-5.775-4.725-10.5-10.5-10.5H89.357z" style="fill:#fff6d1;fill-opacity:1;stroke-width:.0919121"/>
    <path d="M22 27.25c-5.775 0-10.5 4.725-10.5 10.5v9.78a14.87 14.87 0 0 0 9.24 3.257 14.874 14.874 0 0 0 14.875-14.873 14.87 14.87 0 0 0-2.789-8.664z" style="fill:url(#B);fill-opacity:1;stroke-width:.0919121"/>
    <path d="M69.707 16.75A8.36 8.36 0 0 0 67.832 22a8.36 8.36 0 0 0 8.361 8.361 8.36 8.36 0 0 0 8.362-8.359V22l-4.805-5.25z" style="opacity:1;fill:url(#C);fill-opacity:1;stroke-width:2.24704;stroke-linecap:square;stroke-linejoin:round"/>
    <path d="M69.707 16.75a8.4 8.4 0 0 0-1.191 2H79.75l4.594 5.02a8.4 8.4 0 0 0 .21-1.768V22l-4.804-5.25z" style="opacity:1;fill:#ffe680;fill-opacity:1;stroke-width:2.24704;stroke-linecap:square;stroke-linejoin:round"/>
    <path d="M22 27.25c-5.775 0-10.5 4.725-10.5 10.5v2c0-5.775 4.725-10.5 10.5-10.5h12.033a15 15 0 0 0-1.207-2z" style="fill:#ffe680;fill-opacity:1;stroke-width:.0919121"/>
    <path d="M64 55.367a14.362 13.958 0 0 0-14.361 13.957 14.362 13.958 0 0 0 .072 1A14.362 13.958 0 0 1 64 57.367a14.362 13.958 0 0 1 14.305 12.738 14.362 13.958 0 0 0 .056-.78A14.362 13.958 0 0 0 64 55.366" style="opacity:1;fill:#fff6d5;fill-opacity:1;stroke-width:1.13107;stroke-linecap:square;stroke-linejoin:round"/>
    <path d="M86.643 70.65A22.69 22.05 0 0 1 64 92.05 22.69 22.05 0 0 1 41.385 71a22.69 22.05 0 0 0-.074 1A22.69 22.05 0 0 0 64 94.05 22.69 22.05 0 0 0 86.69 72a22.69 22.05 0 0 0-.047-1.35" style="opacity:1;fill:#fff;fill-opacity:1;stroke-width:1.78686;stroke-linecap:square;stroke-linejoin:round"/>
    <path d="M101.652 76.25a14 14 0 0 0-.066 1 13.685 13.685 0 0 0 13.684 13.686 14 14 0 0 0 1.23-.088v-2a14 14 0 0 1-1.23.088 13.685 13.685 0 0 1-13.618-12.686" style="opacity:1;fill:#fff;fill-opacity:1;stroke-width:3.67809;stroke-linecap:square;stroke-linejoin:round"/>
    <path d="M100.37 101.527a7.685 7.685 0 0 1-7.616 6.703 7.685 7.685 0 0 1-7.613-6.685 8 8 0 0 0-.073 1 7.685 7.685 0 0 0 7.686 7.685 7.685 7.685 0 0 0 7.685-7.685 8 8 0 0 0-.07-1.018" style="opacity:1;fill:#fff;fill-opacity:1;stroke-width:2.06547;stroke-linecap:square;stroke-linejoin:round"/>
    <path d="M43.252 93.566a12.495 12.495 0 0 1-12.436 11.684 12.495 12.495 0 0 1-12.423-11.494 13 13 0 0 0-.073 1 12.495 12.495 0 0 0 12.496 12.494 12.495 12.495 0 0 0 12.495-12.494 13 13 0 0 0-.059-1.19" style="opacity:1;fill:#fff;fill-opacity:1;stroke-width:3.35818;stroke-linecap:square;stroke-linejoin:round"/>
    <path d="M26.32 70.975a5.674 5.674 0 0 1-5.58 4.699A5.674 5.674 0 0 1 15.168 71a5.7 5.7 0 0 0-.102 1 5.674 5.674 0 0 0 5.674 5.674A5.674 5.674 0 0 0 26.414 72a5.7 5.7 0 0 0-.094-1.025" style="opacity:1;fill:#fff;fill-opacity:1;stroke-width:1.52497;stroke-linecap:square;stroke-linejoin:round"/>
    <path d="M35.55 36.89a14.874 14.874 0 0 1-14.81 13.897 14.87 14.87 0 0 1-9.24-3.258v2a14.87 14.87 0 0 0 9.24 3.258 14.874 14.874 0 0 0 14.875-14.873 15 15 0 0 0-.064-1.023" style="fill:#fff;fill-opacity:1;stroke-width:.0919121"/>
    <path d="M109.566 44.342a7.44 7.44 0 0 1-7.37 6.453 7.44 7.44 0 0 1-7.37-6.44 7 7 0 0 0-.072 1 7.44 7.44 0 0 0 7.441 7.44 7.44 7.44 0 0 0 7.442-7.44 7 7 0 0 0-.07-1.013" style="opacity:1;fill:#fff;fill-opacity:1;stroke-width:2;stroke-linecap:square;stroke-linejoin:round"/>
    <path d="M88.537 46.326a5.01 5.01 0 0 1-4.902 4.04 5.01 5.01 0 0 1-4.897-4.01 5 5 0 0 0-.113 1 5.01 5.01 0 0 0 5.01 5.01 5.01 5.01 0 0 0 5.01-5.01 5 5 0 0 0-.108-1.03" style="opacity:1;fill:#fff;fill-opacity:1;stroke-width:1.34669;stroke-linecap:square;stroke-linejoin:round"/>
    <path d="M53.217 42.889a5.674 5.674 0 0 1-5.578 4.699 5.674 5.674 0 0 1-5.577-4.674 5.7 5.7 0 0 0-.1 1 5.674 5.674 0 0 0 5.677 5.674 5.674 5.674 0 0 0 5.673-5.674 5.7 5.7 0 0 0-.095-1.025" style="opacity:1;fill:#fff;fill-opacity:1;stroke-width:1.52497;stroke-linecap:square;stroke-linejoin:round"/>
    <path d="M67.904 22.988A8 8 0 0 0 67.832 24a8.36 8.36 0 0 0 8.361 8.361 8.36 8.36 0 0 0 8.362-8.359V24l-.211-.23a8.36 8.36 0 0 1-8.15 6.591 8.36 8.36 0 0 1-8.29-7.373" style="opacity:1;fill:#fff;fill-opacity:1;stroke-width:2.24704;stroke-linecap:square;stroke-linejoin:round"/>
</svg>
