<svg xmlns="http://www.w3.org/2000/svg" xmlns:xlink="http://www.w3.org/1999/xlink" xml:space="preserve" width="128" height="128" viewBox="0 0 128 128">
    <defs>
        <linearGradient id="c">
            <stop offset="0" style="stop-color:#b3b3b3;stop-opacity:1"/>
            <stop offset="1" style="stop-color:#dadada;stop-opacity:1"/>
        </linearGradient>
        <linearGradient id="b">
            <stop offset="0" style="stop-color:#f8e796;stop-opacity:1"/>
            <stop offset=".459" style="stop-color:#d1c09b;stop-opacity:1"/>
            <stop offset="1" style="stop-color:#d1c09b;stop-opacity:0"/>
        </linearGradient>
        <linearGradient id="d">
            <stop offset="0" style="stop-color:#fed406;stop-opacity:1"/>
            <stop offset=".556" style="stop-color:#e48658;stop-opacity:.44313726"/>
            <stop offset="1" style="stop-color:#d1c09b;stop-opacity:0"/>
        </linearGradient>
        <linearGradient id="a">
            <stop offset="0" style="stop-color:#845c32;stop-opacity:1"/>
            <stop offset=".05" style="stop-color:#a47240;stop-opacity:1"/>
            <stop offset=".1" style="stop-color:#845c32;stop-opacity:1"/>
            <stop offset=".9" style="stop-color:#845c32;stop-opacity:1"/>
            <stop offset=".95" style="stop-color:#a47240;stop-opacity:1"/>
            <stop offset="1" style="stop-color:#845c32;stop-opacity:1"/>
        </linearGradient>
        <linearGradient xlink:href="#a" id="e" x1="11.5" x2="116.5" y1="120.5" y2="120.5" gradientTransform="matrix(.76095 0 0 .9425 15.3 11.404)" gradientUnits="userSpaceOnUse"/>
        <linearGradient xlink:href="#b" id="g" x1="64" x2="64" y1="95.934" y2="76.852" gradientUnits="userSpaceOnUse"/>
        <linearGradient xlink:href="#c" id="f" x1="64.001" x2="64.001" y1="41.351" y2="72.584" gradientUnits="userSpaceOnUse"/>
        <radialGradient xlink:href="#d" id="h" cx="64" cy="69.233" r="17.16" fx="64" fy="69.233" gradientTransform="matrix(3.72957 0 0 1.1708 -174.693 -3.773)" gradientUnits="userSpaceOnUse"/>
    </defs>
    <rect width="79.899" height="98.963" x="24.05" y="26.013" rx="7.362" ry="7.54" style="fill:url(#e);fill-opacity:1;stroke-width:.846874"/>
    <rect width="79.899" height="98.963" x="24.05" y="14.473" rx="7.54" ry="7.54" style="fill:#cba074;fill-opacity:1;stroke-width:.846874"/>
    <path d="M96.286 18.281c-21.739.019-43.479-.01-65.218.03-2.084.23-3.516 2.415-3.202 4.427q-.007 41.783.015 83.564c.155 2.095 2.32 3.62 4.346 3.317 21.56-.004 43.124.02 64.682-.03 2.097-.2 3.542-2.409 3.225-4.425q.008-41.777-.015-83.555c-.157-1.894-1.945-3.419-3.833-3.328" style="fill:#2b2e27;fill-opacity:1;stroke-width:.846874"/>
    <ellipse cx="91.533" cy="92.996" rx="6.469" ry="5.87" style="fill:#1b1b1b;fill-opacity:1;fill-rule:evenodd;stroke:none;stroke-width:.330556;stroke-linecap:round;stroke-linejoin:round;stroke-dasharray:none;stroke-opacity:1;paint-order:stroke fill markers"/>
    <circle cx="91.533" cy="92.397" r="5.271" style="fill:#939393;fill-opacity:1;fill-rule:evenodd;stroke:none;stroke-width:.282751;stroke-linecap:round;stroke-linejoin:round;stroke-dasharray:none;stroke-opacity:1;paint-order:stroke fill markers"/>
    <rect width="11.966" height="5.592" x="58.647" y="102.722" rx="1.62" ry="1.225" style="fill:#1b1b1b;fill-opacity:1;fill-rule:evenodd;stroke:none;stroke-width:.22674;stroke-linecap:round;stroke-linejoin:round;stroke-dasharray:none;stroke-opacity:1;paint-order:stroke fill markers"/>
    <rect width="11.966" height="5.592" x="58.647" y="100.837" rx="1.62" ry="1.225" style="fill:#c32222;fill-opacity:1;fill-rule:evenodd;stroke:none;stroke-width:.22674;stroke-linecap:round;stroke-linejoin:round;stroke-dasharray:none;stroke-opacity:1;paint-order:stroke fill markers"/>
    <path d="m96.286 18.282-2.65.001c-17.386.013-34.772.006-52.159.024-3.476.003-6.952.003-10.428.01-2.073.258-3.496 2.576-3.183 4.715-.002 16.517.004 33.035.008 49.552h72.254c-.002-16.918 0-33.837-.009-50.755-.156-2.014-1.935-3.635-3.818-3.548z" style="fill:url(#f);fill-opacity:1;fill-rule:evenodd;stroke:none;stroke-width:2.10956;stroke-linecap:round;stroke-linejoin:round;paint-order:stroke fill markers"/>
    <g transform="translate(-5.52 -7.327)scale(1.0846)">
        <ellipse cx="-44.196" cy="65.352" rx="3.698" ry="3.587" style="fill:#999;fill-opacity:1;fill-rule:evenodd;stroke:none;stroke-width:.313837;stroke-linecap:round;stroke-linejoin:round;stroke-dasharray:none;stroke-opacity:1;paint-order:stroke fill markers" transform="scale(-1 1)"/>
        <path d="m34.638 59.092-2.346-6.589" style="fill:#4d4d4d;fill-opacity:1;fill-rule:evenodd;stroke:#2b2b2b;stroke-width:.377001;stroke-linecap:round;stroke-linejoin:round;stroke-dasharray:none;stroke-opacity:1;paint-order:stroke fill markers"/>
        <path d="m45.855 59.785 5.057 1.752" style="fill:#4d4d4d;fill-opacity:1;fill-rule:evenodd;stroke:#2b2b2b;stroke-width:.427386;stroke-linecap:round;stroke-linejoin:round;stroke-dasharray:none;stroke-opacity:1;paint-order:stroke fill markers"/>
        <ellipse cx="-36.669" cy="59.557" rx="2.4" ry="2.328" style="fill:#999;fill-opacity:1;fill-rule:evenodd;stroke:none;stroke-width:.203694;stroke-linecap:round;stroke-linejoin:round;stroke-dasharray:none;stroke-opacity:1;paint-order:stroke fill markers" transform="scale(-1 1)"/>
        <path d="m36.893 60.334 6.665-.866" style="fill:#4d4d4d;fill-opacity:1;fill-rule:evenodd;stroke:#2b2b2b;stroke-width:.448802;stroke-linecap:round;stroke-linejoin:round;stroke-dasharray:none;stroke-opacity:1;paint-order:stroke fill markers"/>
        <ellipse cx="36.669" cy="58.923" rx="2.4" ry="2.328" style="fill:#6d6d6d;fill-opacity:1;fill-rule:evenodd;stroke:none;stroke-width:.203694;stroke-linecap:round;stroke-linejoin:round;stroke-dasharray:none;stroke-opacity:1;paint-order:stroke fill markers"/>
        <ellipse cx="36.669" cy="58.28" rx="2.4" ry="2.328" style="fill:#fff;fill-opacity:1;fill-rule:evenodd;stroke:none;stroke-width:.203694;stroke-linecap:round;stroke-linejoin:round;stroke-dasharray:none;stroke-opacity:1;paint-order:stroke fill markers"/>
        <ellipse cx="44.196" cy="63.968" rx="3.698" ry="3.587" style="fill:#6d6d6d;fill-opacity:1;fill-rule:evenodd;stroke:none;stroke-width:.313837;stroke-linecap:round;stroke-linejoin:round;stroke-dasharray:none;stroke-opacity:1;paint-order:stroke fill markers"/>
        <ellipse cx="44.196" cy="62.791" rx="3.698" ry="3.587" style="fill:#fff;fill-opacity:1;fill-rule:evenodd;stroke:none;stroke-width:.313837;stroke-linecap:round;stroke-linejoin:round;stroke-dasharray:none;stroke-opacity:1;paint-order:stroke fill markers"/>
    </g>
    <path d="m96.286 18.281-2.65.003c-17.385.012-34.772.005-52.158.023-3.476.003-6.954.003-10.43.01-2.073.258-3.494 2.575-3.181 4.714v1.058c.202-1.774 1.46-3.413 3.181-3.627 3.476-.007 6.954-.007 10.43-.01 17.386-.019 34.773-.011 52.158-.024l2.65-.002h.014c1.883-.088 3.662 1.533 3.818 3.548v-2.145c-.156-2.014-1.935-3.635-3.818-3.548z" style="fill:#b9b9b9;fill-opacity:1;fill-rule:evenodd;stroke:none;stroke-width:2.10956;stroke-linecap:round;stroke-linejoin:round;paint-order:stroke fill markers"/>
    <g transform="translate(-6.904 -8.447)scale(1.10318)">
        <ellipse cx="-83.716" cy="65.352" rx="3.698" ry="3.587" style="fill:#999;fill-opacity:1;fill-rule:evenodd;stroke:none;stroke-width:.313837;stroke-linecap:round;stroke-linejoin:round;stroke-dasharray:none;stroke-opacity:1;paint-order:stroke fill markers" transform="scale(-1 1)"/>
        <ellipse cx="-91.258" cy="59.557" rx="2.4" ry="2.328" style="fill:#999;fill-opacity:1;fill-rule:evenodd;stroke:none;stroke-width:.203694;stroke-linecap:round;stroke-linejoin:round;stroke-dasharray:none;stroke-opacity:1;paint-order:stroke fill markers" transform="scale(-1 1)"/>
        <path d="m93.274 59.092 2.346-6.589" style="fill:#4d4d4d;fill-opacity:1;fill-rule:evenodd;stroke:#2b2b2b;stroke-width:.401883;stroke-linecap:round;stroke-linejoin:round;stroke-dasharray:none;stroke-opacity:1;paint-order:stroke fill markers"/>
        <path d="m91.02 60.334-6.666-.866" style="fill:#4d4d4d;fill-opacity:1;fill-rule:evenodd;stroke:#2b2b2b;stroke-width:.478423;stroke-linecap:round;stroke-linejoin:round;stroke-dasharray:none;stroke-opacity:1;paint-order:stroke fill markers"/>
        <path d="M82.057 59.785 77 61.537" style="fill:#4d4d4d;fill-opacity:1;fill-rule:evenodd;stroke:#2b2b2b;stroke-width:.455594;stroke-linecap:round;stroke-linejoin:round;stroke-dasharray:none;stroke-opacity:1;paint-order:stroke fill markers"/>
        <ellipse cx="-91.258" cy="58.923" rx="2.4" ry="2.328" style="fill:#6d6d6d;fill-opacity:1;fill-rule:evenodd;stroke:none;stroke-width:.203694;stroke-linecap:round;stroke-linejoin:round;stroke-dasharray:none;stroke-opacity:1;paint-order:stroke fill markers" transform="scale(-1 1)"/>
        <ellipse cx="-91.243" cy="58.28" rx="2.4" ry="2.328" style="fill:#fff;fill-opacity:1;fill-rule:evenodd;stroke:none;stroke-width:.203694;stroke-linecap:round;stroke-linejoin:round;stroke-dasharray:none;stroke-opacity:1;paint-order:stroke fill markers" transform="scale(-1 1)"/>
        <ellipse cx="-83.716" cy="63.968" rx="3.698" ry="3.587" style="fill:#6d6d6d;fill-opacity:1;fill-rule:evenodd;stroke:none;stroke-width:.313837;stroke-linecap:round;stroke-linejoin:round;stroke-dasharray:none;stroke-opacity:1;paint-order:stroke fill markers" transform="scale(-1 1)"/>
        <ellipse cx="-83.716" cy="62.791" rx="3.698" ry="3.587" style="fill:#fff;fill-opacity:1;fill-rule:evenodd;stroke:none;stroke-width:.313837;stroke-linecap:round;stroke-linejoin:round;stroke-dasharray:none;stroke-opacity:1;paint-order:stroke fill markers" transform="scale(-1 1)"/>
    </g>
    <path d="M89.437 6.645a24.34 24.34 0 0 0-24.342 24.342 24.34 24.34 0 0 0 24.342 24.34 24.34 24.34 0 0 0 24.34-24.34 24.34 24.34 0 0 0-24.34-24.342m-3.165 2.346h6.329c1.146 0 2.256.818 2.069 1.804l-1.379 7.265c-.187.986-.923 1.803-2.069 1.803h-3.571c-1.146 0-1.88-.817-2.067-1.803l-1.38-7.265c-.186-.986.922-1.804 2.068-1.804m-7.07 23.53a1.98 1.98 0 0 1 1.61.842l2.114 2.881c.677.924.453 2-.23 2.734l-5.043 5.41c-.683.734-1.998.322-2.676-.602l-3.744-5.101c-.678-.924-.675-2.303.23-2.735l6.673-3.187a2.4 2.4 0 0 1 1.066-.243m19.993.81a2.4 2.4 0 0 1 1.222.334l6.395 3.715c.867.504.758 1.879.008 2.745l-4.144 4.782c-.75.866-2.094 1.17-2.717.383l-4.587-5.8c-.622-.787-.76-1.877-.01-2.743l2.34-2.699c.422-.487.954-.707 1.493-.716z" style="opacity:.3;mix-blend-mode:darken;fill:#3f3f3f;fill-opacity:1;fill-rule:evenodd;stroke:none;stroke-width:1.73603;stroke-linecap:round;stroke-linejoin:round;paint-order:stroke fill markers" transform="translate(0 -2)"/>
    <path d="M89.437 4.76a24.34 24.34 0 0 0-24.342 24.342 24.34 24.34 0 0 0 24.342 24.34 24.34 24.34 0 0 0 24.34-24.34A24.34 24.34 0 0 0 89.438 4.76m-3.165 2.346h6.329c1.146 0 2.256.818 2.069 1.804l-1.379 7.265c-.187.986-.923 1.803-2.069 1.803h-3.571c-1.146 0-1.88-.817-2.067-1.803l-1.38-7.265c-.186-.986.922-1.804 2.068-1.804m-7.07 23.53a1.98 1.98 0 0 1 1.61.842l2.114 2.881c.677.924.453 2-.23 2.734l-5.043 5.41c-.683.734-1.998.322-2.676-.602L71.233 36.8c-.678-.924-.675-2.303.23-2.735l6.673-3.187a2.4 2.4 0 0 1 1.066-.243m19.993.81a2.4 2.4 0 0 1 1.222.334l6.395 3.715c.867.504.758 1.879.008 2.745l-4.144 4.782c-.75.866-2.095 1.17-2.717.383l-4.588-5.8c-.622-.787-.759-1.877-.009-2.743l2.34-2.699c.422-.487.953-.707 1.493-.716z" style="fill:#666;fill-opacity:1;fill-rule:evenodd;stroke:none;stroke-width:1.73603;stroke-linecap:round;stroke-linejoin:round;paint-order:stroke fill markers" transform="translate(0 -2)"/>
    <path d="M89.437 3.025a24.34 24.34 0 0 0-24.342 24.339 24.34 24.34 0 0 0 24.342 24.341 24.34 24.34 0 0 0 24.34-24.341 24.34 24.34 0 0 0-24.34-24.34m-3.165 4.08h6.329c1.146 0 2.256.82 2.069 1.805l-1.379 7.265c-.187.986-.923 1.803-2.069 1.803h-3.571c-1.146 0-1.88-.817-2.067-1.803l-1.38-7.265c-.186-.986.922-1.804 2.068-1.804m-7.07 23.53a1.98 1.98 0 0 1 1.61.843l2.114 2.881c.677.924.453 2-.23 2.734l-5.043 5.41c-.683.734-1.998.322-2.676-.602L71.233 36.8c-.678-.924-.675-2.303.23-2.735l6.673-3.187a2.4 2.4 0 0 1 1.066-.243m19.993.812a2.37 2.37 0 0 1 1.222.333l6.395 3.715c.867.504.758 1.879.008 2.745l-4.144 4.782c-.75.866-2.095 1.17-2.717.383l-4.588-5.8c-.622-.787-.759-1.877-.009-2.743l2.34-2.699c.422-.487.953-.707 1.493-.716" style="fill:#e9e9e9;fill-opacity:1;fill-rule:evenodd;stroke:none;stroke-width:1.73603;stroke-linecap:round;stroke-linejoin:round;paint-order:stroke fill markers" transform="translate(0 -2)"/>
    <path d="M89.436 24.256a5.253 5.253 0 0 0-5.252 5.254 5.253 5.253 0 0 0 5.252 5.252 5.253 5.253 0 0 0 5.254-5.252 5.253 5.253 0 0 0-5.254-5.254m0 2.208a3.046 3.046 0 0 1 3.047 3.046 3.046 3.046 0 0 1-3.047 3.047 3.046 3.046 0 0 1-3.045-3.047 3.046 3.046 0 0 1 3.045-3.046" style="fill:#ccc;fill-opacity:1;fill-rule:evenodd;stroke:none;stroke-width:1.73603;stroke-linecap:round;stroke-linejoin:round;paint-order:stroke fill markers" transform="translate(0 -2)"/>
    <path d="M89.436 22.112a5.253 5.253 0 0 0-5.252 5.254 5.253 5.253 0 0 0 5.252 5.252 5.253 5.253 0 0 0 5.254-5.252 5.253 5.253 0 0 0-5.254-5.254m0 2.207a3.046 3.046 0 0 1 3.047 3.047 3.046 3.046 0 0 1-3.047 3.046 3.046 3.046 0 0 1-3.045-3.046 3.046 3.046 0 0 1 3.045-3.047" style="fill:#666;fill-opacity:1;fill-rule:evenodd;stroke:none;stroke-width:1.73603;stroke-linecap:round;stroke-linejoin:round;paint-order:stroke fill markers" transform="translate(0 -2)"/>
    <path d="M89.436 20.376a5.253 5.253 0 0 0-5.252 5.254 5.253 5.253 0 0 0 5.252 5.252 5.253 5.253 0 0 0 5.254-5.252 5.253 5.253 0 0 0-5.254-5.254m0 2.207a3.046 3.046 0 0 1 3.047 3.047 3.046 3.046 0 0 1-3.047 3.046 3.046 3.046 0 0 1-3.045-3.046 3.046 3.046 0 0 1 3.045-3.047" style="fill:#fff;fill-opacity:1;fill-rule:evenodd;stroke:none;stroke-width:1.73603;stroke-linecap:round;stroke-linejoin:round;paint-order:stroke fill markers" transform="translate(0 -2)"/>
    <path d="M86.273 7.106c-1.146 0-2.256.817-2.069 1.802l.17.897c.34-.567 1.106-.963 1.899-.963H92.6c.793 0 1.558.396 1.899.963l.17-.897c.187-.985-.923-1.802-2.069-1.802ZM79.2 30.634a2.4 2.4 0 0 0-1.066.244l-6.673 3.188c-.747.356-.872 1.356-.514 2.214.117-.204.288-.37.514-.478l6.673-3.188c.34-.162.706-.248 1.066-.244a1.99 1.99 0 0 1 1.61.844l2.113 2.88q.124.171.209.345c.298-.646.288-1.403-.209-2.08l-2.112-2.88a1.99 1.99 0 0 0-1.61-.845m19.993.812a2 2 0 0 0-1.493.716l-2.338 2.699c-.594.685-.627 1.51-.309 2.215.08-.164.176-.326.309-.48l2.338-2.698a2 2 0 0 1 1.493-.716c.42-.007.845.114 1.224.334l6.394 3.715c.169.098.299.23.396.385.357-.8.283-1.727-.396-2.121l-6.394-3.715a2.4 2.4 0 0 0-1.224-.334" style="fill:#666;fill-opacity:1;fill-rule:evenodd;stroke-width:1.28721;stroke-linecap:round;stroke-linejoin:round;paint-order:stroke fill markers" transform="translate(0 -2)"/>
    <path d="M79.202 32.371a2.4 2.4 0 0 0-1.066.243l-6.673 3.188a1.15 1.15 0 0 0-.475.427q.1.222.245.422l.54.738 6.363-3.039a2.4 2.4 0 0 1 1.066-.243 1.98 1.98 0 0 1 1.61.843l1.648 2.248.235-.254a2.5 2.5 0 0 0 .4-.575 2 2 0 0 0-.171-.274l-2.112-2.88a1.98 1.98 0 0 0-1.61-.844m19.993.812c-.54.01-1.073.227-1.495.714l-2.338 2.699c-.113.13-.199.266-.272.405.078.159.169.312.281.454l.36.453 1.969-2.275a2 2 0 0 1 1.495-.714c.42-.007.845.113 1.224.333l3.53 2.05v-1.735l-3.53-2.05a2.37 2.37 0 0 0-1.224-.334" style="opacity:.3;mix-blend-mode:darken;fill:#3f3f3f;fill-opacity:1;fill-rule:evenodd;stroke-width:1.28721;stroke-linecap:round;stroke-linejoin:round;paint-order:stroke fill markers" transform="translate(0 -2)"/>
    <path d="M31.59 14.473a7.524 7.524 0 0 0-7.54 7.54v12.283l3.213-1.533a2.4 2.4 0 0 1 1.065-.243 1.98 1.98 0 0 1 1.611.843l2.113 2.881c.678.924.454 2-.23 2.734l-5.042 5.41c-.683.734-1.998.322-2.676-.602l-.054-.074v6.738a24.34 24.34 0 0 0 14.513 4.876 24.34 24.34 0 0 0 24.342-24.34 24.34 24.34 0 0 0-6.465-16.513H43.1l-.682 3.587c-.187.986-.923 1.803-2.069 1.803h-3.571c-1.146 0-1.88-.817-2.067-1.803l-.681-3.587Zm16.732 18.859a2.37 2.37 0 0 1 1.222.333l6.395 3.715c.867.504.758 1.879.007 2.745l-4.143 4.782c-.75.866-2.095 1.17-2.717.383l-4.588-5.8c-.622-.787-.76-1.877-.009-2.743l2.34-2.699c.422-.487.953-.707 1.493-.716" style="opacity:.299974;mix-blend-mode:darken;fill:#3f3f3f;fill-opacity:1;fill-rule:evenodd;stroke:none;stroke-width:1.73603;stroke-linecap:round;stroke-linejoin:round;paint-order:stroke fill markers" transform="translate(0 -2)"/>
    <path d="M38.563 4.76a24.34 24.34 0 0 0-24.34 24.342 24.34 24.34 0 0 0 24.34 24.34 24.34 24.34 0 0 0 24.342-24.34A24.34 24.34 0 0 0 38.563 4.76M35.4 7.106h6.329c1.146 0 2.256.818 2.069 1.804l-1.379 7.265c-.187.986-.923 1.803-2.069 1.803h-3.571c-1.146 0-1.88-.817-2.067-1.803L33.33 8.91c-.186-.986.922-1.804 2.068-1.804m-7.07 23.53a1.98 1.98 0 0 1 1.61.842l2.113 2.881c.678.924.454 2-.23 2.734l-5.042 5.41c-.683.734-1.998.322-2.676-.602L20.36 36.8c-.678-.924-.675-2.303.23-2.735l6.673-3.187a2.4 2.4 0 0 1 1.065-.243m19.993.81a2.4 2.4 0 0 1 1.222.334l6.395 3.715c.867.504.758 1.879.007 2.745l-4.143 4.782c-.75.866-2.095 1.17-2.717.383l-4.588-5.8c-.622-.787-.76-1.877-.009-2.743l2.34-2.699c.422-.487.953-.707 1.493-.716" style="fill:#666;fill-opacity:1;fill-rule:evenodd;stroke:none;stroke-width:1.73603;stroke-linecap:round;stroke-linejoin:round;paint-order:stroke fill markers" transform="translate(0 -2)"/>
    <path d="M38.563 3.025a24.34 24.34 0 0 0-24.34 24.339 24.34 24.34 0 0 0 24.34 24.341 24.34 24.34 0 0 0 24.342-24.341 24.34 24.34 0 0 0-24.342-24.34M35.4 7.105h6.329c1.146 0 2.256.82 2.069 1.805l-1.379 7.265c-.187.986-.923 1.803-2.069 1.803h-3.571c-1.146 0-1.88-.817-2.067-1.803L33.33 8.91c-.186-.986.922-1.804 2.068-1.804m-7.07 23.53a1.98 1.98 0 0 1 1.61.843l2.113 2.881c.678.924.454 2-.23 2.734l-5.042 5.41c-.683.734-1.998.322-2.676-.602L20.36 36.8c-.678-.924-.675-2.303.23-2.735l6.673-3.187a2.4 2.4 0 0 1 1.065-.243m19.993.812a2.37 2.37 0 0 1 1.222.333l6.395 3.715c.867.504.758 1.879.007 2.745l-4.143 4.782c-.75.866-2.095 1.17-2.717.383l-4.588-5.8c-.622-.787-.76-1.877-.009-2.743l2.34-2.699c.422-.487.953-.707 1.493-.716" style="fill:#e9e9e9;fill-opacity:1;fill-rule:evenodd;stroke:none;stroke-width:1.73603;stroke-linecap:round;stroke-linejoin:round;paint-order:stroke fill markers" transform="translate(0 -2)"/>
    <path d="M38.563 24.256a5.253 5.253 0 0 0-5.252 5.254 5.253 5.253 0 0 0 5.252 5.252 5.253 5.253 0 0 0 5.254-5.252 5.253 5.253 0 0 0-5.254-5.254m0 2.208a3.046 3.046 0 0 1 3.047 3.046 3.046 3.046 0 0 1-3.047 3.047 3.046 3.046 0 0 1-3.045-3.047 3.046 3.046 0 0 1 3.045-3.046" style="fill:#ccc;fill-opacity:1;fill-rule:evenodd;stroke:none;stroke-width:1.73603;stroke-linecap:round;stroke-linejoin:round;paint-order:stroke fill markers" transform="translate(0 -2)"/>
    <path d="M38.563 22.112a5.253 5.253 0 0 0-5.252 5.254 5.253 5.253 0 0 0 5.252 5.252 5.253 5.253 0 0 0 5.254-5.252 5.253 5.253 0 0 0-5.254-5.254m0 2.207a3.046 3.046 0 0 1 3.047 3.047 3.046 3.046 0 0 1-3.047 3.046 3.046 3.046 0 0 1-3.045-3.046 3.046 3.046 0 0 1 3.045-3.047" style="fill:#666;fill-opacity:1;fill-rule:evenodd;stroke:none;stroke-width:1.73603;stroke-linecap:round;stroke-linejoin:round;paint-order:stroke fill markers" transform="translate(0 -2)"/>
    <path d="M38.563 20.376a5.253 5.253 0 0 0-5.252 5.254 5.253 5.253 0 0 0 5.252 5.252 5.253 5.253 0 0 0 5.254-5.252 5.253 5.253 0 0 0-5.254-5.254m0 2.207a3.046 3.046 0 0 1 3.047 3.047 3.046 3.046 0 0 1-3.047 3.046 3.046 3.046 0 0 1-3.045-3.046 3.046 3.046 0 0 1 3.045-3.047" style="fill:#fff;fill-opacity:1;fill-rule:evenodd;stroke:none;stroke-width:1.73603;stroke-linecap:round;stroke-linejoin:round;paint-order:stroke fill markers" transform="translate(0 -2)"/>
    <path d="M35.4 7.106c-1.146 0-2.256.817-2.069 1.802l.17.897c.34-.567 1.106-.963 1.898-.963h6.33c.792 0 1.557.396 1.898.963l.17-.897c.187-.985-.923-1.802-2.069-1.802Zm-7.072 23.528a2.4 2.4 0 0 0-1.066.244l-6.673 3.188c-.747.356-.872 1.356-.514 2.214.117-.204.288-.37.514-.478l6.673-3.188c.34-.162.706-.248 1.066-.244a1.99 1.99 0 0 1 1.61.844l2.113 2.88q.124.171.209.345c.297-.646.288-1.403-.209-2.08l-2.112-2.88a1.99 1.99 0 0 0-1.61-.845m19.993.812a2 2 0 0 0-1.493.716L44.49 34.86c-.594.685-.627 1.51-.309 2.215.08-.164.176-.326.309-.48l2.338-2.698a2 2 0 0 1 1.493-.716c.42-.007.845.114 1.224.334l6.394 3.715c.169.098.299.23.396.385.357-.8.283-1.727-.396-2.121l-6.394-3.715a2.4 2.4 0 0 0-1.224-.334" style="fill:#666;fill-opacity:1;fill-rule:evenodd;stroke-width:1.28721;stroke-linecap:round;stroke-linejoin:round;paint-order:stroke fill markers" transform="translate(0 -2)"/>
    <path d="M28.328 32.371c-.36-.005-.726.08-1.065.243l-3.213 1.535v1.736l3.213-1.535a2.4 2.4 0 0 1 1.065-.243 1.98 1.98 0 0 1 1.611.843l1.708 2.33.175-.187c.181-.195.326-.415.435-.648a2 2 0 0 0-.206-.35l-2.112-2.88a1.98 1.98 0 0 0-1.61-.844m19.994.812a1.98 1.98 0 0 0-1.495.714l-2.338 2.7a2 2 0 0 0-.31.475c.085.187.189.367.32.532l.296.376 2.032-2.347a2 2 0 0 1 1.495-.714 2.36 2.36 0 0 1 1.224.333l5.979 3.474.421-.486c.164-.189.29-.404.389-.626a1.14 1.14 0 0 0-.396-.383l-6.393-3.715c-.38-.22-.805-.34-1.224-.333" style="opacity:.3;mix-blend-mode:darken;fill:#3f3f3f;fill-opacity:1;fill-rule:evenodd;stroke-width:1.28721;stroke-linecap:round;stroke-linejoin:round;paint-order:stroke fill markers" transform="translate(0 -2)"/>
    <g transform="translate(-6.716 -6.449)scale(1.10494)">
        <path d="M-115.271 55.006v9.647h.029l3.97 3.894h15.069l3.97-3.895h.03v-9.646z" style="color:#000;font-style:normal;font-variant:normal;font-weight:400;font-stretch:normal;font-size:medium;line-height:normal;font-family:sans-serif;font-variant-ligatures:normal;font-variant-position:normal;font-variant-caps:normal;font-variant-numeric:normal;font-variant-alternates:normal;font-variant-east-asian:normal;font-feature-settings:normal;font-variation-settings:normal;text-indent:0;text-align:start;text-decoration-line:none;text-decoration-style:solid;text-decoration-color:#000;letter-spacing:normal;word-spacing:normal;text-transform:none;writing-mode:lr-tb;direction:ltr;text-orientation:mixed;dominant-baseline:auto;baseline-shift:baseline;text-anchor:start;white-space:normal;shape-padding:0;shape-margin:0;inline-size:0;clip-rule:nonzero;display:inline;overflow:visible;visibility:visible;isolation:auto;mix-blend-mode:normal;color-interpolation:sRGB;color-interpolation-filters:linearRGB;solid-color:#000;solid-opacity:1;vector-effect:none;fill:#999;fill-opacity:1;fill-rule:evenodd;stroke:none;stroke-linecap:round;stroke-linejoin:round;stroke-miterlimit:4;stroke-dasharray:none;stroke-dashoffset:0;stroke-opacity:1;-inkscape-stroke:none;paint-order:stroke fill markers;color-rendering:auto;image-rendering:auto;shape-rendering:auto;text-rendering:auto;stop-color:#000" transform="translate(189.419 -11.346)scale(1.209)"/>
        <path d="M-115.271 55.006v9.647h.029l3.97 3.894h15.069l3.97-3.895h.03v-9.646z" style="color:#000;font-style:normal;font-variant:normal;font-weight:400;font-stretch:normal;font-size:medium;line-height:normal;font-family:sans-serif;font-variant-ligatures:normal;font-variant-position:normal;font-variant-caps:normal;font-variant-numeric:normal;font-variant-alternates:normal;font-variant-east-asian:normal;font-feature-settings:normal;font-variation-settings:normal;text-indent:0;text-align:start;text-decoration-line:none;text-decoration-style:solid;text-decoration-color:#000;letter-spacing:normal;word-spacing:normal;text-transform:none;writing-mode:lr-tb;direction:ltr;text-orientation:mixed;dominant-baseline:auto;baseline-shift:baseline;text-anchor:start;white-space:normal;shape-padding:0;shape-margin:0;inline-size:0;clip-rule:nonzero;display:inline;overflow:visible;visibility:visible;isolation:auto;mix-blend-mode:normal;color-interpolation:sRGB;color-interpolation-filters:linearRGB;solid-color:#000;solid-opacity:1;vector-effect:none;fill:#6d6d6d;fill-opacity:1;fill-rule:evenodd;stroke:none;stroke-linecap:round;stroke-linejoin:round;stroke-miterlimit:4;stroke-dasharray:none;stroke-dashoffset:0;stroke-opacity:1;-inkscape-stroke:none;paint-order:stroke fill markers;color-rendering:auto;image-rendering:auto;shape-rendering:auto;text-rendering:auto;stop-color:#000" transform="translate(189.419 -13.231)scale(1.209)"/>
        <path d="M-115.271 55.006v9.647h.029l3.97 3.894h15.069l3.97-3.895h.03v-9.646z" style="color:#000;font-style:normal;font-variant:normal;font-weight:400;font-stretch:normal;font-size:medium;line-height:normal;font-family:sans-serif;font-variant-ligatures:normal;font-variant-position:normal;font-variant-caps:normal;font-variant-numeric:normal;font-variant-alternates:normal;font-variant-east-asian:normal;font-feature-settings:normal;font-variation-settings:normal;text-indent:0;text-align:start;text-decoration-line:none;text-decoration-style:solid;text-decoration-color:#000;letter-spacing:normal;word-spacing:normal;text-transform:none;writing-mode:lr-tb;direction:ltr;text-orientation:mixed;dominant-baseline:auto;baseline-shift:baseline;text-anchor:start;white-space:normal;shape-padding:0;shape-margin:0;inline-size:0;clip-rule:nonzero;display:inline;overflow:visible;visibility:visible;isolation:auto;mix-blend-mode:normal;color-interpolation:sRGB;color-interpolation-filters:linearRGB;solid-color:#000;solid-opacity:1;vector-effect:none;fill:#ebebeb;fill-opacity:1;fill-rule:evenodd;stroke:none;stroke-linecap:round;stroke-linejoin:round;stroke-miterlimit:4;stroke-dasharray:none;stroke-dashoffset:0;stroke-opacity:1;-inkscape-stroke:none;paint-order:stroke fill markers;color-rendering:auto;image-rendering:auto;shape-rendering:auto;text-rendering:auto;stop-color:#000" transform="translate(189.419 -15.116)scale(1.209)"/>
        <path d="m51.2 62.435 3.777 3.943h18.018l3.777-3.943v-9.67H51.2z" style="color:#000;font-style:normal;font-variant:normal;font-weight:400;font-stretch:normal;font-size:medium;line-height:normal;font-family:sans-serif;font-variant-ligatures:normal;font-variant-position:normal;font-variant-caps:normal;font-variant-numeric:normal;font-variant-alternates:normal;font-variant-east-asian:normal;font-feature-settings:normal;font-variation-settings:normal;text-indent:0;text-align:start;text-decoration-line:none;text-decoration-style:solid;text-decoration-color:#000;letter-spacing:normal;word-spacing:normal;text-transform:none;writing-mode:lr-tb;direction:ltr;text-orientation:mixed;dominant-baseline:auto;baseline-shift:baseline;text-anchor:start;white-space:normal;shape-padding:0;shape-margin:0;inline-size:0;clip-rule:nonzero;display:inline;overflow:visible;visibility:visible;isolation:auto;mix-blend-mode:normal;color-interpolation:sRGB;color-interpolation-filters:linearRGB;solid-color:#000;solid-opacity:1;vector-effect:none;fill:#5a5a5a;fill-opacity:1;fill-rule:evenodd;stroke:none;stroke-width:1.38328;stroke-linecap:round;stroke-linejoin:round;stroke-miterlimit:4;stroke-dasharray:none;stroke-dashoffset:0;stroke-opacity:1;-inkscape-stroke:none;paint-order:stroke fill markers;color-rendering:auto;image-rendering:auto;shape-rendering:auto;text-rendering:auto;stop-color:#000"/>
        <rect width="9.881" height="4.94" x="59.183" y="55.091" rx="1.341" ry="1.341" style="fill:#383838;fill-opacity:1;fill-rule:evenodd;stroke:none;stroke-width:2.08217;stroke-linecap:round;stroke-linejoin:round;paint-order:stroke fill markers"/>
        <text xml:space="preserve" x="54.942" y="70.498" style="font-weight:700;font-size:3.4538px;font-family:Cantarell;-inkscape-font-specification:&quot;Cantarell Bold&quot;;text-align:start;writing-mode:lr-tb;direction:ltr;text-anchor:start;fill:#d4cccd;fill-opacity:1;fill-rule:evenodd;stroke:none;stroke-width:.323794;stroke-linecap:round;stroke-linejoin:round;paint-order:stroke fill markers" transform="scale(1.10252 .90701)"><tspan x="54.942" y="70.498" style="font-style:normal;font-variant:normal;font-weight:700;font-stretch:normal;font-family:&quot;Adwaita Mono&quot;;-inkscape-font-specification:&quot;Adwaita Mono Bold&quot;;fill:#d4cccd;fill-opacity:1;stroke-width:.323794">MIC</tspan></text>
        <circle cx="73.549" cy="57.561" r="1.156" style="fill:#e1e1e1;fill-opacity:1;fill-rule:evenodd;stroke:none;stroke-width:.410379;stroke-linecap:round;stroke-linejoin:round;stroke-dasharray:none;stroke-opacity:1;paint-order:stroke fill markers"/>
        <circle cx="54.699" cy="57.561" r="1.156" style="fill:#e1e1e1;fill-opacity:1;fill-rule:evenodd;stroke:none;stroke-width:.410379;stroke-linecap:round;stroke-linejoin:round;stroke-dasharray:none;stroke-opacity:1;paint-order:stroke fill markers"/>
    </g>
    <rect width="34.423" height="20.382" x="46.788" y="76.087" rx="0" ry="0" style="fill:#1b1b1b;fill-opacity:1;fill-rule:evenodd;stroke:none;stroke-width:6.70736;stroke-linecap:round;stroke-linejoin:round;paint-order:stroke fill markers"/>
    <rect width="34.32" height="19.082" x="46.84" y="76.852" rx="0" ry="0" style="fill:url(#g);fill-opacity:1;fill-rule:evenodd;stroke:none;stroke-width:6.48023;stroke-linecap:round;stroke-linejoin:round;paint-order:stroke fill markers" transform="translate(3.68 4.852)scale(.9425)"/>
    <rect width="32.347" height="17.985" x="47.827" y="77.286" rx="0" ry="0" style="fill:url(#h);fill-opacity:1;fill-rule:evenodd;stroke:none;stroke-width:6.10764;stroke-linecap:round;stroke-linejoin:round;paint-order:stroke fill markers"/>
    <text xml:space="preserve" x="60.609" y="92.452" style="font-style:normal;font-variant:normal;font-weight:700;font-stretch:normal;font-size:6.28836px;font-family:&quot;Adwaita Mono&quot;;-inkscape-font-specification:&quot;Adwaita Mono Bold&quot;;text-align:start;writing-mode:lr-tb;direction:ltr;text-anchor:start;fill:#2f3334;fill-opacity:1;fill-rule:evenodd;stroke:none;stroke-width:.589537;stroke-linecap:round;stroke-linejoin:round;paint-order:stroke fill markers"><tspan x="60.609" y="92.452" style="stroke-width:.589537">VU</tspan></text>
    <rect width="11.966" height="5.592" x="58.647" y="98.236" rx="1.62" ry="1.225" style="fill:#fe7070;fill-opacity:1;fill-rule:evenodd;stroke:none;stroke-width:.22674;stroke-linecap:round;stroke-linejoin:round;stroke-dasharray:none;stroke-opacity:1;paint-order:stroke fill markers"/>
    <circle cx="91.533" cy="90.512" r="5.271" style="fill:#f0f0f0;fill-opacity:1;fill-rule:evenodd;stroke:none;stroke-width:.282751;stroke-linecap:round;stroke-linejoin:round;stroke-dasharray:none;stroke-opacity:1;paint-order:stroke fill markers"/>
    <ellipse cx="36.467" cy="92.996" rx="6.469" ry="5.87" style="fill:#1b1b1b;fill-opacity:1;fill-rule:evenodd;stroke:none;stroke-width:.330556;stroke-linecap:round;stroke-linejoin:round;stroke-dasharray:none;stroke-opacity:1;paint-order:stroke fill markers"/>
    <path d="M63.986 84.687c-5.12 0-9.877.773-13.84 2.108v.861c3.913-1.358 8.686-2.163 13.84-2.163 5.42 0 10.419.89 14.437 2.377v-.863c-4.078-1.464-9.055-2.32-14.437-2.32Z" style="fill:#1b1b1b;fill-opacity:1;fill-rule:evenodd;stroke:#525252;stroke-width:0;stroke-linecap:round;stroke-linejoin:bevel;stroke-dasharray:none;stroke-opacity:1;paint-order:stroke fill markers"/>
    <circle cx="36.467" cy="92.397" r="5.271" style="fill:#939393;fill-opacity:1;fill-rule:evenodd;stroke:none;stroke-width:.282751;stroke-linecap:round;stroke-linejoin:round;stroke-dasharray:none;stroke-opacity:1;paint-order:stroke fill markers"/>
    <circle cx="36.467" cy="90.512" r="5.271" style="fill:#f0f0f0;fill-opacity:1;fill-rule:evenodd;stroke:none;stroke-width:.282751;stroke-linecap:round;stroke-linejoin:round;stroke-dasharray:none;stroke-opacity:1;paint-order:stroke fill markers"/>
    <path d="M27.874 72.584h72.252v1.577H27.874z" style="fill:#ededed;fill-opacity:1;fill-rule:evenodd;stroke:none;stroke-width:1.14659;stroke-linecap:round;stroke-linejoin:round;stroke-dasharray:none;stroke-opacity:1;paint-order:stroke fill markers"/>
    <path d="m50.823 85.993 7.155 9.906" style="fill:#1b1b1b;fill-opacity:1;fill-rule:evenodd;stroke:#1b1b1b;stroke-width:.712054;stroke-linecap:round;stroke-linejoin:round;stroke-dasharray:none;stroke-opacity:1;paint-order:stroke fill markers"/>
</svg>
