<svg xmlns="http://www.w3.org/2000/svg" xmlns:xlink="http://www.w3.org/1999/xlink" width="128" height="128" viewBox="0 0 128 128">
    <defs>
        <linearGradient id="b">
            <stop offset="0" style="stop-color:#e5e5e5;stop-opacity:1"/>
            <stop offset="1" style="stop-color:#fff;stop-opacity:1"/>
        </linearGradient>
        <linearGradient id="a">
            <stop offset="0" style="stop-color:#999;stop-opacity:1"/>
            <stop offset=".05" style="stop-color:#b3b3b3;stop-opacity:1"/>
            <stop offset=".1" style="stop-color:#999;stop-opacity:1"/>
            <stop offset=".9" style="stop-color:#999;stop-opacity:1"/>
            <stop offset=".95" style="stop-color:#b3b3b3;stop-opacity:1"/>
            <stop offset="1" style="stop-color:#999;stop-opacity:1"/>
        </linearGradient>
        <linearGradient xlink:href="#a" id="c" x1="11.5" x2="116.5" y1="120.5" y2="120.5" gradientUnits="userSpaceOnUse"/>
        <linearGradient xlink:href="#b" id="d" x1="64" x2="64" y1="112.5" y2="7.5" gradientUnits="userSpaceOnUse"/>
    </defs>
    <rect width="105" height="105" x="11.5" y="15.5" rx="13" ry="13" style="fill:url(#c);fill-opacity:1"/>
    <rect width="105" height="105" x="11.5" y="7.5" rx="13" ry="13" style="fill:url(#d);fill-opacity:1"/>
    <rect width="100.755" height="100.755" x="13.622" y="9.622" rx="12" ry="12" style="fill:#d7d7d7;fill-opacity:1;stroke-width:.959575"/>
    <path d="M63.31 24c-2.506-.004-4.989.906-6.787 2.747L26.597 57.37c-10.111 12.521 6.88 11.064 14.165 14.67 2.613 2.672-10.015 4.643-7.402 7.316 2.613 2.671 15.8 5.146 18.418 7.817 2.613 2.67-5.349 5.504-2.736 8.175s8.657.14 9.788 6.307c.807 4.406 10.891 1.893 15.823-1.716 2.613-2.673-4.999-2.421-2.386-5.092 6.498-6.645 12.549-2.415 14.772-9.073 1.098-3.29-9.566-5.072-6.948-7.743 7.518-4.39 33.503-7.249 21.173-19.579l-31.02-31.705c-1.896-1.821-4.427-2.742-6.934-2.747m.269 2.914c1.79.009 3.572.68 4.857 1.98l11.84 12.025c1.122 1.147 1.106 3.37.478 4.01l-5.879-4.703-1.156 6.963-4.912-2.592-7.865 4.97-2.604-10.477-4.226 7.31h-6.46c-2.633 0-2.943-3.34-.55-5.733 4.178-4.51 8.975-9.109 11.58-11.773 1.31-1.339 3.107-1.99 4.896-1.98zM49.36 73.698c.8.497 12.896 2.954 15.852 3.444 1.025.216.3 1.272-1.114 1.985-3.185.846-18.636-5.429-14.738-5.429m47.26 8.413c-2.51.008-5.041 1.259-5.723 3.663 0 1.52 11.193 2.515 11.193-.359-.772-2.236-3.112-3.315-5.47-3.304m-51.665 6.584c-3.482.024-7.476 2.56-4.483 5.152 2.651 2.292 6.746-.57 7.973-3.77-.743-.986-2.074-1.392-3.49-1.382m44.538.2c-3.417 3.065.384 6.175 3.751 4.194.751-.761-.02-3.432-3.75-4.194" style="fill:#333;fill-opacity:1;stroke-width:.0733011"/>
</svg>
