<svg xmlns="http://www.w3.org/2000/svg" xml:space="preserve" width="128" height="128" viewBox="0 0 128 128">
    <path d="M64.365 5.854c-2.437-.132-4.785.276-6.479 1.253h-.002L38.47 18.317l-.1.056-1.132.656h-.002l-15.744 9.092-2.41 1.39-.002.003c-4.084 2.359-7.371 7.404-7.371 11.314v44.805c0 4.717 2.726 10.088 6.113 12.043l19.414 11.209 1.232.71 18.157 10.483c4.084 2.358 10.097 2.683 13.484.729h.002l19.414-11.21.1-.056 1.132-.656h.002l1.334-.77 14.413-8.32 2.408-1.39.002-.003h.002c4.083-2.36 7.369-7.407 7.369-11.316V42.281c0-4.717-2.727-10.087-6.113-12.043L90.76 19.03l-1.233-.71L71.371 7.835c-2.043-1.18-4.568-1.851-7.006-1.982" style="fill:#99cd61;stroke-width:1.04561"/>
    <path d="M64 5.854v58.103l50.316 29.05c1.214-1.958 1.971-4.066 1.971-5.921V42.28c0-4.716-2.726-10.084-6.111-12.04l-.002-.003L90.76 19.03l-1.233-.71L71.371 7.835c-2.042-1.18-4.568-1.851-7.006-1.982-.123-.007-.242.003-.365 0" style="fill:#df6277;fill-opacity:1;stroke-width:1.04561"/>
    <path d="M90.145 18.674 64 63.957l50.316 29.05c1.214-1.958 1.971-4.066 1.971-5.921V42.28c0-4.716-2.726-10.084-6.111-12.04l-.002-.003L90.76 19.03z" style="fill:#fb9168;fill-opacity:1;stroke-width:1.04561"/>
    <path d="M114.316 34.906 64 63.957v58.104c2.302.072 4.503-.328 6.11-1.254h.001l19.414-11.21.008-.003.092-.053.422-.244.71-.412h.003l.447-.258.887-.512 16.82-9.71.002-.003.02-.011c4.075-2.364 7.351-7.402 7.351-11.305V42.28c0-2.478-.765-5.126-1.97-7.375" style="fill:#6f488c;fill-opacity:1;stroke-width:1.04561"/>
    <path d="M114.316 34.906 64 63.957l26.145 45.283.613-.355h.002l1.334-.77 8.642-4.99 5.77-3.33 2.408-1.39.002-.003.016-.007c4.077-2.363 7.355-7.404 7.355-11.31V42.282c0-2.478-.765-5.126-1.97-7.375" style="fill:#4b7cbc;fill-opacity:1;stroke-width:1.04561"/>
    <path d="M114.316 34.906 64 63.957h52.287V42.281c0-2.478-.765-5.126-1.97-7.375" style="fill:#f3db6c;fill-opacity:1;stroke-width:1.04561"/>
    <path d="m64 63.957 50.316 29.049c1.214-1.959 1.971-4.065 1.971-5.92V63.957Z" style="fill:#7ab392;fill-opacity:1;stroke-width:1.04561"/>
    <path d="M13.682 34.906c-1.215 1.96-1.973 4.066-1.973 5.922v44.805c0 4.711 2.72 10.074 6.102 12.035l19.425 11.217 1.233.71 18.156 10.483.004.002c2.147 1.239 4.82 1.9 7.371 1.98V63.958z" style="fill:#4d3f33;fill-opacity:1;stroke-width:1.04561"/>
    <path d="M13.682 34.906c-1.215 1.96-1.973 4.066-1.973 5.922v44.805c0 2.479.765 5.126 1.97 7.375L64 63.957z" style="fill:#7a573b;fill-opacity:1;stroke-width:1.04561"/>
    <path d="M64.002 36.388a5 5 0 0 0-.429.055 5 5 0 0 0-.675.09 4.8 4.8 0 0 0-1.032.387l-14.735 8.463-3.445 1.989-1.818 1.05-.005.003-.01.009a4.8 4.8 0 0 0-1.138.954 5 5 0 0 0-.268.352 4.8 4.8 0 0 0-.554.96 5 5 0 0 0-.17.413 4.8 4.8 0 0 0-.26 1.473V75.37a4.8 4.8 0 0 0 .26 1.475 5 5 0 0 0 .172.414 4.8 4.8 0 0 0 .552.957 5 5 0 0 0 .27.351 4.8 4.8 0 0 0 1.15.966l5.303 3.061 8.09 4.672 3.44 1.984.004.002 1.768 1.02 1.087.63.037.022h.002a4.8 4.8 0 0 0 1.414.514 5 5 0 0 0 .425.055 4.8 4.8 0 0 0 1.126 0 5 5 0 0 0 .427-.055 4.8 4.8 0 0 0 1.414-.514l.54-.313 11.78-6.802 3.443-1.986 1.313-.757 2.657-1.535a4.8 4.8 0 0 0 1.269-1.065l.013-.017a4.8 4.8 0 0 0 .825-1.426l.006-.02a4.8 4.8 0 0 0 .288-1.633V52.586a5 5 0 0 0-.01-.308l-.007-.083a5 5 0 0 0-.025-.22l-.015-.11a5 5 0 0 0-.033-.2l-.02-.104a5 5 0 0 0-.072-.283v-.005l-.02-.064a5 5 0 0 0-.073-.224l-.04-.105a5 5 0 0 0-.078-.194l-.038-.088a5 5 0 0 0-.09-.187l-.055-.105-.004-.007a5 5 0 0 0-.139-.24l-.055-.086-.108-.16-.081-.112-.11-.141-.08-.095-.116-.13-.092-.1-.027-.025a5 5 0 0 0-.182-.176l-.055-.05a5 5 0 0 0-.178-.15l-.088-.068-.159-.117-.092-.063a5 5 0 0 0-.202-.126l-.049-.033-.01-.004L72.74 40.69l-.026-.016-.057-.032-3.372-1.92-3.178-1.813-.002-.002-.01-.004a4.8 4.8 0 0 0-1.002-.372 5 5 0 0 0-.825-.11 5 5 0 0 0-.266-.033" style="fill:#fff;stroke-width:.491022"/>
    <path d="M87.883 50.17 64 63.956v27.536a5 5 0 0 0 .563 0 5 5 0 0 0 .427-.055 4.8 4.8 0 0 0 1.414-.515l12.32-7.114 3.443-1.986 1.313-.757 2.654-1.533.003-.002a4.8 4.8 0 0 0 1.269-1.065l.013-.017a4.8 4.8 0 0 0 .825-1.426l.006-.02a4.8 4.8 0 0 0 .288-1.633V52.586a5 5 0 0 0-.01-.308l-.007-.083a5 5 0 0 0-.025-.22l-.015-.11a5 5 0 0 0-.033-.2l-.02-.104a5 5 0 0 0-.072-.283v-.005l-.02-.064a5 5 0 0 0-.073-.224l-.04-.105a5 5 0 0 0-.078-.194l-.038-.088a5 5 0 0 0-.09-.187l-.055-.105-.004-.007z" style="fill:#dfdfdf;fill-opacity:1;stroke-width:.491022"/>
    <path d="M40.179 50.202a5 5 0 0 0-.286.497 5 5 0 0 0-.17.414 4.8 4.8 0 0 0-.26 1.473V75.37a4.8 4.8 0 0 0 .26 1.475 5 5 0 0 0 .172.414 4.8 4.8 0 0 0 .552.957 5 5 0 0 0 .27.351 4.8 4.8 0 0 0 1.148.964l.003.002 13.392 7.733 3.44 1.984.004.002 1.768 1.02 1.018.59.106.062h.002a4.8 4.8 0 0 0 1.414.514 5 5 0 0 0 .425.055 5 5 0 0 0 .563 0V63.957Z" style="fill:#d6d2d2;fill-opacity:1;stroke-width:.491022"/>
    <path d="M11.709 79.633v6c0 4.717 2.727 10.088 6.113 12.043l19.414 11.209 1.233.71 18.156 10.483c4.085 2.358 10.098 2.683 13.484.729h.002l19.414-11.21.1-.056 1.133-.656h.002l1.334-.77 14.412-8.32 2.408-1.39.002-.003h.002c4.083-2.36 7.37-7.407 7.37-11.316v-6c0 3.91-3.287 8.957-7.37 11.316h-.002l-.002.002-2.408 1.391-14.412 8.32-1.334.77h-.002l-1.133.656-.1.057-19.414 11.209h-.002c-3.386 1.954-9.4 1.63-13.484-.729l-18.156-10.482-1.233-.711-19.414-11.21c-3.386-1.954-6.113-7.325-6.113-12.042" style="fill:#333;fill-opacity:.45098;stroke-width:1.04561"/>
</svg>
