<svg xmlns="http://www.w3.org/2000/svg" xmlns:xlink="http://www.w3.org/1999/xlink" xml:space="preserve" width="128" height="128" viewBox="0 0 128 128">
    <defs>
        <linearGradient id="b">
            <stop offset="0" style="stop-color:#8aadf6;stop-opacity:1"/>
            <stop offset="1" style="stop-color:#dbe5fc;stop-opacity:1"/>
        </linearGradient>
        <linearGradient id="a">
            <stop offset="0" style="stop-color:#1257dd;stop-opacity:1"/>
            <stop offset=".05" style="stop-color:#2a6ef0;stop-opacity:1"/>
            <stop offset=".1" style="stop-color:#1257dd;stop-opacity:1"/>
            <stop offset=".9" style="stop-color:#1257dd;stop-opacity:1"/>
            <stop offset=".95" style="stop-color:#2a6ef0;stop-opacity:1"/>
            <stop offset="1" style="stop-color:#1257dd;stop-opacity:1"/>
        </linearGradient>
        <linearGradient xlink:href="#a" id="c" x1="11.5" x2="116.5" y1="120.5" y2="120.5" gradientUnits="userSpaceOnUse"/>
        <linearGradient xlink:href="#b" id="d" x1="64" x2="64" y1="112.5" y2="7.5" gradientUnits="userSpaceOnUse"/>
    </defs>
    <rect width="105" height="105" x="11.5" y="15.5" rx="13" ry="13" style="fill:url(#c);fill-opacity:1"/>
    <rect width="105" height="105" x="11.5" y="7.5" rx="13" ry="13" style="fill:url(#d);fill-opacity:1"/>
    <rect width="100.755" height="100.755" x="13.622" y="9.622" rx="12" ry="12" style="fill:#5186f2;fill-opacity:1;stroke-width:.959575"/>
    <path fill="#3a76f0" d="m57.734 30.562.775 3.132a31.1 31.1 0 0 0-8.653 3.578l-1.658-2.765a34.3 34.3 0 0 1 9.536-3.945m16.532 0-.775 3.132a31.1 31.1 0 0 1 8.653 3.578l1.669-2.765a34.3 34.3 0 0 0-9.547-3.945M36.509 46.195a34.3 34.3 0 0 0-3.945 9.536l3.133.775a31.1 31.1 0 0 1 3.578-8.653zm-1.722 17.802a31 31 0 0 1 .35-4.676l-3.191-.485a34.6 34.6 0 0 0 0 10.322l3.191-.485a31 31 0 0 1-.35-4.676m49.016 29.49-1.658-2.765a31.1 31.1 0 0 1-8.643 3.578l.775 3.132a34.3 34.3 0 0 0 9.526-3.945m13.41-29.49a31 31 0 0 1-.35 4.676l3.191.485a34.6 34.6 0 0 0 0-10.322l-3.19.485a31 31 0 0 1 .35 4.676m2.223 8.266-3.132-.775a31.1 31.1 0 0 1-3.579 8.653l2.766 1.669a34.3 34.3 0 0 0 3.945-9.547m-28.76 22.602a31.4 31.4 0 0 1-9.352 0l-.485 3.191a34.6 34.6 0 0 0 10.322 0zm20.45-12.35a31.3 31.3 0 0 1-6.613 6.608l1.916 2.6a34.5 34.5 0 0 0 7.297-7.276zm-6.613-43.643a31.3 31.3 0 0 1 6.613 6.614l2.6-1.938a34.5 34.5 0 0 0-7.276-7.276Zm-43.639 6.614a31.3 31.3 0 0 1 6.614-6.614l-1.937-2.6a34.5 34.5 0 0 0-7.276 7.276zm54.616.71-2.766 1.657a31.1 31.1 0 0 1 3.578 8.643l3.133-.775a34.3 34.3 0 0 0-3.945-9.525M61.323 33.135a31.4 31.4 0 0 1 9.353 0l.485-3.191a34.6 34.6 0 0 0-10.322 0zM42.531 92.579l-6.668 1.555 1.555-6.667-3.143-.738-1.555 6.668a3.23 3.23 0 0 0 3.88 3.88l6.663-1.528zm-7.583-8.728 3.143.731 1.076-4.622a31 31 0 0 1-3.47-8.471l-3.133.775a34.2 34.2 0 0 0 3.175 8.185zm15.068 6.995-4.622 1.077.731 3.143 3.402-.792a34.2 34.2 0 0 0 8.185 3.175l.775-3.132a31 31 0 0 1-8.45-3.492ZM66 36.016a27.984 27.984 0 0 0-23.678 42.875L39.63 90.37l11.479-2.692a27.984 27.984 0 1 0 14.89-51.66Z" style="fill:#fff;stroke-width:.428794"/>
</svg>
