<svg xmlns="http://www.w3.org/2000/svg" xmlns:xlink="http://www.w3.org/1999/xlink" xml:space="preserve" width="128" height="128" viewBox="0 0 128 128">
    <defs>
        <linearGradient id="b">
            <stop offset="0" style="stop-color:#f0bf9e;stop-opacity:1"/>
            <stop offset="1" style="stop-color:#fae8da;stop-opacity:1"/>
        </linearGradient>
        <linearGradient id="a">
            <stop offset="0" style="stop-color:#ba6833;stop-opacity:1"/>
            <stop offset=".05" style="stop-color:#cf814f;stop-opacity:1"/>
            <stop offset=".1" style="stop-color:#ba6833;stop-opacity:1"/>
            <stop offset=".9" style="stop-color:#ba6833;stop-opacity:1"/>
            <stop offset=".95" style="stop-color:#cf814f;stop-opacity:1"/>
            <stop offset="1" style="stop-color:#ba6833;stop-opacity:1"/>
        </linearGradient>
        <linearGradient xlink:href="#a" id="c" x1="11.5" x2="116.5" y1="120.5" y2="120.5" gradientUnits="userSpaceOnUse"/>
        <linearGradient xlink:href="#b" id="d" x1="64" x2="64" y1="112.5" y2="7.5" gradientUnits="userSpaceOnUse"/>
    </defs>
    <rect width="105" height="105" x="11.5" y="15.5" rx="13" ry="13" style="fill:url(#c);fill-opacity:1"/>
    <rect width="105" height="105" x="11.5" y="7.5" rx="13" ry="13" style="fill:url(#d);fill-opacity:1"/>
    <rect width="100.755" height="100.755" x="13.622" y="9.622" rx="12" ry="12" style="fill:#e1b597;fill-opacity:1;stroke-width:.959575"/>
    <path d="M52.459 22.645c-2.216 0-4 1.784-4 4v11.933l-7.297-4.103v2.138h-6.615c-3.232 0-5.893 2.663-5.893 5.895v13.571H21.78a3.99 3.99 0 0 0-4 4v16.378c0 2.216 1.784 4 4 4h9.875v10.324c0 3.428 2.824 6.25 6.252 6.25h25.328v2.022l7.295-4.106v6.409c0 2.215 1.784 4 4 4h23.21c2.216 0 4-1.785 4-4V89.43a2 2 0 0 0 .239.047h2.06c3.39 0 6.182-2.792 6.182-6.182V41.459c0-3.39-2.792-6.182-6.182-6.182h-6.205l-1.594-1.593a1.596 1.596 0 0 0-2.256 0l-2.527 2.527c-.31.312-.466.72-.467 1.127V26.645c0-2.216-1.784-4-4-4zM90.99 39.434c.01.395.165.788.467 1.091l2.527 2.528a1.596 1.596 0 0 0 2.256 0l1.655-1.655h6.144c1.16 0 2.06.9 2.06 2.061v37.836c0 1.16-.9 2.06-2.06 2.06h-2.06a2 2 0 0 0-.239.047V73.135c0-2.216-1.784-4-4-4H83.287v-1.086c0-3.056-2.517-5.572-5.572-5.572H56.037L54.24 60.68a1.596 1.596 0 0 0-2.256 0l-2.527 2.527c-.31.312-.466.72-.467 1.127v-4.256c0-2.216-1.784-4-4-4H32.582v-11.57c0-1.107.858-1.965 1.965-1.965h6.615v2.139l7.297-4.104v10.793c0 2.216 1.784 4 4 4H86.99c2.216 0 4-1.784 4-4zm-42 26.996c.01.395.165.788.467 1.091l2.527 2.528a1.596 1.596 0 0 0 2.256 0l1.858-1.858h21.617c.709 0 1.303.378 1.617.944h-4.803c-2.216 0-4 1.784-4 4v19.812l-7.295-4.103v2.02H37.906a2.054 2.054 0 0 1-2.084-2.083v-8.324h9.168c2.216 0 4-1.784 4-4zm19.787 27.504v.027l-.025-.014z" style="color:#000;fill:#db9e77;fill-opacity:1;stroke-linecap:round;stroke-linejoin:round;-inkscape-stroke:none"/>
    <path d="M31.654 76.928v9.853c0 3.428 2.824 6.25 6.252 6.25h25.329v2.022l7.294-4.106v-2h-1.751v1.014l-5.543-3.117v2.02H37.906a2.054 2.054 0 0 1-2.084-2.083v-9.853z" style="color:#000;fill:#618670;fill-opacity:1;stroke-linecap:round;stroke-linejoin:round;-inkscape-stroke:none"/>
    <rect width="31.211" height="21.008" x="17.779" y="55.45" rx="4" ry="4" style="fill:#0e7244;fill-opacity:1;stroke:none;stroke-width:12.4251;stroke-linecap:round;stroke-linejoin:round"/>
    <rect width="42.531" height="29.387" x="48.458" y="21.984" rx="4" ry="4" style="fill:#0e7244;fill-opacity:1;stroke:none;stroke-width:15.4332;stroke-linecap:round;stroke-linejoin:round"/>
    <rect width="42.531" height="29.387" x="48.458" y="18.645" rx="4" ry="4" style="fill:#5fd38d;fill-opacity:1;stroke:none;stroke-width:15.4332;stroke-linecap:round;stroke-linejoin:round"/>
    <path d="M41.162 32.475v2.138h-6.615c-3.232 0-5.893 2.663-5.893 5.895v12.441a1.964 1.964 0 0 0 1.963 1.965 1.964 1.964 0 0 0 1.965-1.965V40.508c0-1.107.858-1.965 1.965-1.965h6.615v2.139l7.297-4.104v-2h-3.436v.068z" style="color:#000;fill:#618670;fill-opacity:1;stroke-linecap:round;stroke-linejoin:round;-inkscape-stroke:none"/>
    <path d="M41.162 30.475v2.138h-6.615c-3.232 0-5.893 2.663-5.893 5.895v13.571h.362a1.96 1.96 0 0 0 1.601.835 1.96 1.96 0 0 0 1.606-.836h.36v-13.57c0-1.107.857-1.965 1.964-1.965h6.615v2.139l7.297-4.104z" style="color:#000;fill:#f2f2f2;fill-opacity:1;stroke-linecap:round;stroke-linejoin:round;-inkscape-stroke:none"/>
    <rect width="31.211" height="21.008" x="17.779" y="52.078" rx="4" ry="4" style="fill:#5fd38d;fill-opacity:1;stroke:none;stroke-width:12.4251;stroke-linecap:round;stroke-linejoin:round"/>
    <path d="M52.332 60.477a1.857 1.857 0 0 0-1.857 1.857 1.857 1.857 0 0 0 1.857 1.857h25.383c1.046 0 1.857.812 1.857 1.858v7.43a1.857 1.857 0 0 0 1.858 1.857 1.857 1.857 0 0 0 1.857-1.858v-7.43c0-3.055-2.517-5.571-5.572-5.571z" style="color:#000;fill:#618670;fill-opacity:1;stroke-linecap:round;stroke-linejoin:round;-inkscape-stroke:none"/>
    <path d="M53.114 58.27c-.408 0-.817.155-1.13.466l-1.597 1.598H48.99v2.058c0 .409.157.817.468 1.13l2.528 2.527a1.596 1.596 0 0 0 2.256 0l2.527-2.528c.311-.312.467-.72.467-1.129v-2.058h-1.397l-1.597-1.598a1.6 1.6 0 0 0-1.127-.467" style="fill:#618670;fill-opacity:1;stroke-width:.686842"/>
    <path d="M53.113 56.213c-.408 0-.816.155-1.129.467l-2.527 2.527a1.596 1.596 0 0 0 0 2.256l2.527 2.527a1.596 1.596 0 0 0 2.256 0l1.8-1.799h21.675c1.046 0 1.857.812 1.857 1.858v7.43a1.857 1.857 0 0 0 1.858 1.857 1.857 1.857 0 0 0 1.857-1.857v-7.43c0-3.056-2.517-5.572-5.572-5.572H56.037L54.24 56.68a1.6 1.6 0 0 0-1.127-.467" style="color:#000;fill:#f2f2f2;fill-opacity:1;stroke-linecap:round;stroke-linejoin:round;-inkscape-stroke:none"/>
    <path d="M95.113 31.273c-.408 0-.816.156-1.129.467l-1.597 1.598h-1.399v2.058c0 .409.158.817.469 1.13l2.527 2.527a1.596 1.596 0 0 0 2.256 0l1.655-1.655h6.144c1.16 0 2.06.9 2.06 2.061v39.836c0 1.16-.9 2.06-2.06 2.06h-2.06a2.06 2.06 0 0 0-2.061 2.061 2.06 2.06 0 0 0 2.06 2.06h2.061c3.39 0 6.182-2.791 6.182-6.181V39.459c0-3.39-2.792-6.182-6.182-6.182h-6.262L96.24 31.74a1.6 1.6 0 0 0-1.127-.467" style="color:#000;fill:#618670;fill-opacity:1;stroke-linecap:round;stroke-linejoin:round;-inkscape-stroke:none"/>
    <path d="M95.113 29.217c-.408 0-.816.155-1.129.467l-2.527 2.527a1.596 1.596 0 0 0 0 2.256l2.527 2.527a1.596 1.596 0 0 0 2.256 0l1.596-1.596h6.203c1.16 0 2.06.9 2.06 2.061v39.836c0 1.16-.9 2.06-2.06 2.06h-2.06a2.06 2.06 0 0 0-2.061 2.061 2.06 2.06 0 0 0 2.06 2.06h2.061c3.39 0 6.182-2.791 6.182-6.181V37.459c0-3.39-2.792-6.182-6.182-6.182h-6.205l-1.594-1.593a1.6 1.6 0 0 0-1.127-.467M31.654 74.928v9.853c0 3.428 2.824 6.25 6.252 6.25h25.329v2.022l7.294-4.106-7.294-4.103v2.02H37.906a2.054 2.054 0 0 1-2.084-2.083v-9.853z" style="color:#000;fill:#f2f2f2;fill-opacity:1;stroke-linecap:round;stroke-linejoin:round;-inkscape-stroke:none"/>
    <rect width="31.211" height="31.211" x="70.529" y="70.144" rx="4" ry="4" style="fill:#0e7244;fill-opacity:1;stroke:none;stroke-width:15.1448;stroke-linecap:round;stroke-linejoin:round"/>
    <rect width="31.211" height="31.211" x="70.529" y="65.135" rx="4" ry="4" style="fill:#5fd38d;fill-opacity:1;stroke:none;stroke-width:15.1448;stroke-linecap:round;stroke-linejoin:round"/>
    <path d="M75.056 69.037h22.158v4.432H75.056z" style="fill:#1d7b50;fill-opacity:1;stroke:none;stroke-width:12.0945;stroke-linecap:round;stroke-linejoin:round"/>
    <path d="M75.055 76.613v8.864h14.842v-4.432h7.316v-4.432Zm.001 12.008h22.158v4.432H75.056z" style="fill:#26a269;fill-opacity:1;stroke:none;stroke-width:12.0945;stroke-linecap:round;stroke-linejoin:round"/>
    <path d="M21.13 54.914h24.508v4.432H21.13z" style="fill:#1d7b50;fill-opacity:1;stroke:none;stroke-width:12.7199;stroke-linecap:round;stroke-linejoin:round"/>
    <path d="M21.131 61.346v8.863h12.254v-4.432h12.254v-4.431z" style="fill:#26a269;fill-opacity:1;stroke:none;stroke-width:12.7199;stroke-linecap:round;stroke-linejoin:round"/>
    <path d="M52.467 21.984h34.514v4.432H52.467z" style="fill:#1d7b50;fill-opacity:1;stroke:none;stroke-width:15.0947;stroke-linecap:round;stroke-linejoin:round"/>
    <path d="M52.467 29.373v8.863h24.697v-4.431h9.817v-4.432z" style="fill:#26a269;fill-opacity:1;stroke:none;stroke-width:15.0947;stroke-linecap:round;stroke-linejoin:round"/>
    <path d="M52.467 41.194h30.012v4.432H52.467z" style="fill:#26a269;fill-opacity:1;stroke:none;stroke-width:14.0759;stroke-linecap:round;stroke-linejoin:round"/>
</svg>
