<svg xmlns="http://www.w3.org/2000/svg" xmlns:xlink="http://www.w3.org/1999/xlink" width="128" height="128" viewBox="0 0 128 128">
    <defs>
        <linearGradient id="a">
            <stop offset="0" style="stop-color:#d2aa15;stop-opacity:1"/>
            <stop offset=".05" style="stop-color:#ebc43a;stop-opacity:1"/>
            <stop offset=".1" style="stop-color:#d2aa15;stop-opacity:1"/>
            <stop offset=".9" style="stop-color:#d2aa15;stop-opacity:1"/>
            <stop offset=".95" style="stop-color:#ebc43a;stop-opacity:1"/>
            <stop offset="1" style="stop-color:#d2aa15;stop-opacity:1"/>
        </linearGradient>
        <linearGradient xlink:href="#a" id="b" x1="11.5" x2="116.5" y1="120.5" y2="120.5" gradientTransform="matrix(.82689 0 0 1 11.08 -1)" gradientUnits="userSpaceOnUse"/>
    </defs>
    <path d="M20.588 65.21v46.29c0 4.432 3.568 8 8 8h70.824c4.432 0 8-3.568 8-8V65.21Z" style="fill:url(#b);fill-opacity:1;stroke-width:.909334"/>
    <path d="M29.115 8.5a16 16 0 0 0-1.054.018 7.98 7.98 0 0 0-6.7 4.537l-.047.209a8 8 0 0 0-.709 2.77 16 16 0 0 0-.007.415 16 16 0 0 0-.01 3.612V102a16 16 0 0 0 .01 3.61 16 16 0 0 0 .007.416c.064.988.322 1.916.71 2.772l.046.207a7.98 7.98 0 0 0 6.7 4.539 16 16 0 0 0 1.054.016h40.44a4 4 0 0 0 .304-.061h29.026a16 16 0 0 0 1.054-.018 7.98 7.98 0 0 0 7.11-5.584 16.1 16.1 0 0 0 .363-4.832v-84.07a16.1 16.1 0 0 0-.363-4.832 7.98 7.98 0 0 0-7.11-5.586 16 16 0 0 0-1.054-.017H69.857a4 4 0 0 0-.302-.061z" style="fill:#f1cf49;fill-opacity:1;stroke-width:.909334"/>
    <path d="M35.588 18.254a13 13 0 0 0-.86.014 6.5 6.5 0 0 0-5.457 3.695 13 13 0 0 0-.628 4.81 13 13 0 0 0 0 2.893v69.148a13 13 0 0 0 .013.86 6.5 6.5 0 0 0 4.242 5.683 13.1 13.1 0 0 0 4.567.4h54.937a13 13 0 0 0 .86-.013 6.5 6.5 0 0 0 5.789-4.549 13.1 13.1 0 0 0 .297-3.933v-.022a13 13 0 0 0 0-1.978V49.355a4.02 4.02 0 0 0-1.178-2.843L70.89 19.236a3.36 3.36 0 0 0-2.372-.982zm45.463 2.877L96.52 36.6a1.657 1.657 157.5 0 0 2.829-1.171v-2.63a79 79 90 0 1 0-5.978V26.8l-.297-3.934a6.99 6.99 16.922 0 0-6.649-4.562h-10.18a1.657 1.657 112.5 0 0-1.17 2.828" style="fill:#f9f9f9;fill-opacity:1;stroke-width:.7405"/>
    <g style="stroke:#b3b3b3;stroke-width:.86912914;stroke-dasharray:none;stroke-opacity:1;fill:#b3b3b3;fill-opacity:1">
        <path d="M42.625 41.402a1.25 1.25 0 0 0-1.25 1.25v21.871a1.25 1.25 0 0 0 1.25 1.25h21.871a1.25 1.25 0 0 0 1.25-1.25v-21.87a1.25 1.25 0 0 0-1.25-1.25zm1.25 2.5h19.371v19.371H43.875Z" style="color:#000;stroke:#b3b3b3;stroke-width:.86912914;stroke-linejoin:round;stroke-dasharray:none;stroke-opacity:1;fill:#b3b3b3;fill-opacity:1" transform="translate(-4.996 -.267)scale(1.15058)"/>
        <path d="M65.746 49.486c-8.981 0-16.287 7.306-16.287 16.287 0 8.982 7.306 16.29 16.287 16.29s16.29-7.308 16.29-16.29c0-8.98-7.309-16.287-16.29-16.287zm0 2.5c7.63 0 13.79 6.157 13.79 13.787s-6.16 13.79-13.79 13.79-13.787-6.16-13.787-13.79 6.157-13.787 13.787-13.787z" style="color:#000;stroke:#b3b3b3;stroke-width:.86912914;stroke-linejoin:round;stroke-dasharray:none;stroke-opacity:1;fill:#b3b3b3;fill-opacity:1" transform="translate(-4.996 -.267)scale(1.15058)"/>
    </g>
    <path d="M29.115 8.5a16 16 0 0 0-1.054.018 7.98 7.98 0 0 0-6.7 4.537l-.047.209a8 8 0 0 0-.709 2.77 16 16 0 0 0-.007.415 16 16 0 0 0-.01 3.612v2a16 16 0 0 1 .01-3.612 16 16 0 0 1 .007-.416 8 8 0 0 1 .71-2.77l.046-.208a7.98 7.98 0 0 1 6.7-4.537 16 16 0 0 1 1.054-.018h40.44a4 4 0 0 1 .302.06h29.028a16 16 0 0 1 1.054.018 7.98 7.98 0 0 1 7.11 5.586 16 16 0 0 1 .379 2.617 16.1 16.1 0 0 0-.38-4.617 7.98 7.98 0 0 0-7.109-5.586 16 16 0 0 0-1.054-.017H69.857a4 4 0 0 0-.302-.061zm78.297 94.566v2l.016.211a16 16 0 0 0-.016-2.21" style="fill:#fff;fill-opacity:.5035817;stroke-width:.909334"/>
</svg>
