<svg xmlns="http://www.w3.org/2000/svg" xmlns:xlink="http://www.w3.org/1999/xlink" width="128" height="128" viewBox="0 0 128 128">
    <defs>
        <linearGradient id="c">
            <stop offset="0" style="stop-color:#68b6f5;stop-opacity:1"/>
            <stop offset="1" style="stop-color:#bde0fd;stop-opacity:1"/>
        </linearGradient>
        <linearGradient id="a">
            <stop offset="0" style="stop-color:#1565c0;stop-opacity:1"/>
            <stop offset=".283" style="stop-color:#1565c0;stop-opacity:1"/>
            <stop offset=".5" style="stop-color:#0a76d8;stop-opacity:1"/>
            <stop offset=".706" style="stop-color:#1565c0;stop-opacity:1"/>
            <stop offset="1" style="stop-color:#1565c0;stop-opacity:1"/>
        </linearGradient>
        <linearGradient xlink:href="#a" id="d" x1="9" x2="119" y1="70" y2="70" gradientTransform="translate(0 -2)" gradientUnits="userSpaceOnUse"/>
        <linearGradient id="b">
            <stop offset="0" style="stop-color:#ccc;stop-opacity:1"/>
            <stop offset=".7" style="stop-color:#ccc;stop-opacity:1"/>
            <stop offset="1" style="stop-color:#fff;stop-opacity:1"/>
        </linearGradient>
        <linearGradient xlink:href="#b" id="f" x1="45.564" x2="102.92" y1="66" y2="66" gradientUnits="userSpaceOnUse"/>
        <linearGradient xlink:href="#c" id="e" x1="64" x2="64" y1="115" y2="5" gradientUnits="userSpaceOnUse"/>
    </defs>
    <path d="M64 5A55 55 0 0 0 9 60v8a55 55 0 0 0 55 55 55 55 0 0 0 55-55v-8A55 55 0 0 0 64 5" style="fill:url(#d);fill-opacity:1"/>
    <circle cx="64" cy="60" r="55" style="fill:url(#e);fill-opacity:1"/>
    <circle cx="64" cy="60" r="52.868" style="fill:#42a5f5;fill-opacity:1;stroke-width:.961244"/>
    <path d="M99.473 31.37c-.55 0-1.136.108-1.737.325L28.703 58.313v-.003c-2.466.965-3.611 2.139-3.611 3.213h-.012v4l.012.004c.002.986.966 1.89 2.8 2.471l17.672 5.512 36.374-22.9-26.325 23.78-1.271 18.217v4c1.85 0 2.655-.805 3.61-1.76l8.634-8.318 17.898 13.194c3.264 1.85 5.598.894 6.47-3.032l11.753-55.377-.006.008c.15-.702.211-1.336.211-1.916l.008-.004v-4l-.008-.007c-.005-2.662-1.485-4.028-3.44-4.026z" style="fill:url(#f);stroke-width:6.62952" transform="translate(10.157 9.929)scale(.81005)"/>
    <path fill="#fff" d="m28.703 58.312 69.034-26.617c3.204-1.158 6.002.782 4.964 5.626l.006-.006-11.754 55.376c-.872 3.926-3.204 4.88-6.468 3.03l-17.9-13.191-8.633 8.317c-.955.955-1.76 1.76-3.61 1.76l1.27-18.216 33.175-29.97c1.444-1.27-.322-1.987-2.225-.722L45.565 69.511l-17.673-5.513c-3.836-1.218-3.92-3.837.812-5.687z" style="stroke-width:6.62952" transform="translate(10.157 9.929)scale(.81005)"/>
    <path d="M-104.2 62.326v4l.011.004c.002.986.967 1.889 2.801 2.47l17.672 5.512v-4l-17.672-5.511c-1.837-.583-2.8-1.488-2.8-2.475zm41.506 21.006L-74.94 93.41v4c1.85 0 2.655-.805 3.61-1.76l8.635-8.318z" style="fill:#e6e6e6;fill-opacity:1" transform="translate(114.88 9.278)scale(.81005)"/>
</svg>
