<svg xmlns="http://www.w3.org/2000/svg" xmlns:xlink="http://www.w3.org/1999/xlink" width="128" height="128" viewBox="0 0 128 128">
    <defs>
        <linearGradient id="a">
            <stop offset="0" style="stop-color:#999;stop-opacity:1"/>
            <stop offset=".05" style="stop-color:#b3b3b3;stop-opacity:1"/>
            <stop offset=".1" style="stop-color:#999;stop-opacity:1"/>
            <stop offset=".9" style="stop-color:#999;stop-opacity:1"/>
            <stop offset=".95" style="stop-color:#b3b3b3;stop-opacity:1"/>
            <stop offset="1" style="stop-color:#999;stop-opacity:1"/>
        </linearGradient>
        <linearGradient xlink:href="#a" id="b" x1="11.5" x2="116.5" y1="120.5" y2="120.5" gradientTransform="matrix(1 0 0 .98434 0 .243)" gradientUnits="userSpaceOnUse"/>
    </defs>
    <path d="M11.5 103.793v8.707c0 4.432 3.568 8 8 8h89c4.432 0 8-3.568 8-8v-8.707c0 .391-.342.707-.766.707H12.266c-.424 0-.766-.316-.766-.707" style="fill:#af291f;fill-opacity:1"/>
    <rect width="105" height="103.355" x="11.5" y="15.5" rx="8" ry="7.875" style="fill:url(#b);fill-opacity:1;stroke-width:.992137"/>
    <rect width="105" height="104.646" x="11.5" y="7.5" rx="8" ry="7.973" style="fill:#f9f9f9;fill-opacity:1;stroke-width:.998315"/>
    <path d="M19.5 9.5c-4.432 0-8 3.568-8 8v13.842h105V17.5c0-4.432-3.568-8-8-8z" style="fill:#1565c0;stroke-width:.170301"/>
    <path d="M64 83.104V79.51" style="fill:#fff;fill-opacity:1;stroke-width:.216779"/>
    <path d="M19.5 7.5c-4.432 0-8 3.568-8 8v13.842h105V15.5c0-4.432-3.568-8-8-8z" style="fill:#448aff;stroke-width:.170301"/>
    <g style="stroke-width:1.11111" transform="translate(4.272 5.575)scale(.21019)">
        <rect width="47.637" height="47.637" x="149.201" y="187.513" rx="5.292" ry="5.292" style="fill:#ccc;fill-opacity:1;stroke-width:.293981"/>
        <rect width="47.637" height="47.637" x="223.296" y="187.513" rx="5.292" ry="5.292" style="fill:#ccc;fill-opacity:1;stroke-width:.293981"/>
        <rect width="47.637" height="47.637" x="297.392" y="187.513" rx="5.292" ry="5.292" style="fill:#ccc;fill-opacity:1;stroke-width:.293981"/>
        <rect width="47.637" height="47.637" x="371.487" y="187.513" rx="5.292" ry="5.292" style="fill:#ccc;fill-opacity:1;stroke-width:.293981"/>
        <rect width="47.637" height="47.637" x="445.582" y="187.513" rx="5.292" ry="5.292" style="fill:#ccc;fill-opacity:1;stroke-width:.293981"/>
    </g>
    <g style="stroke-width:1.11111" transform="translate(4.272 8.047)scale(.21019)">
        <rect width="47.637" height="47.637" x="75.106" y="270.933" rx="5.292" ry="5.292" style="fill:#ccc;fill-opacity:1;stroke-width:.293981"/>
        <rect width="47.637" height="47.637" x="149.201" y="270.933" rx="5.292" ry="5.292" style="fill:#ccc;fill-opacity:1;stroke-width:.293981"/>
        <rect width="63.353" height="63.353" x="215.438" y="263.075" rx="5.292" ry="5.292" style="fill:#f44336;fill-opacity:1;stroke-width:.39097"/>
        <rect width="47.637" height="47.637" x="297.392" y="270.933" rx="5.292" ry="5.292" style="fill:#ccc;fill-opacity:1;stroke-width:.293981"/>
        <rect width="47.637" height="47.637" x="371.487" y="270.933" rx="5.292" ry="5.292" style="fill:#ccc;fill-opacity:1;stroke-width:.293981"/>
        <rect width="47.637" height="47.637" x="445.582" y="270.933" rx="5.292" ry="5.292" style="fill:#ccc;fill-opacity:1;stroke-width:.293981"/>
    </g>
    <g style="stroke-width:1.11111" transform="translate(4.272 8.036)scale(.21019)">
        <rect width="47.637" height="47.637" x="75.106" y="366.166" rx="5.292" ry="5.292" style="fill:#ccc;fill-opacity:1;stroke-width:.293981"/>
        <rect width="47.637" height="47.637" x="149.201" y="366.166" rx="5.292" ry="5.292" style="fill:#ccc;fill-opacity:1;stroke-width:.293981"/>
        <rect width="47.637" height="47.637" x="223.296" y="366.166" rx="5.292" ry="5.292" style="fill:#ccc;fill-opacity:1;stroke-width:.293981"/>
    </g>
    <path d="M19.5 7.5c-4.432 0-8 3.568-8 8v3.379c0-4.432 3.568-8 8-8h89c4.432 0 8 3.568 8 8V15.5c0-4.432-3.568-8-8-8z" style="fill:#fff;stroke-width:.170301;fill-opacity:.4010987"/>
</svg>
