<svg xmlns="http://www.w3.org/2000/svg" xmlns:xlink="http://www.w3.org/1999/xlink" width="128" height="128" viewBox="0 0 128 128">
    <defs>
        <linearGradient id="a">
            <stop offset="0" stop-color="#f9f06b"/>
            <stop offset="1" stop-color="#f6d32d"/>
        </linearGradient>
        <linearGradient id="b">
            <stop offset="0" stop-color="#2dc0af"/>
            <stop offset="1" stop-color="#5ed9cb"/>
        </linearGradient>
        <linearGradient id="c">
            <stop offset="0" stop-color="#fff"/>
            <stop offset="1" stop-color="#fff" stop-opacity="0"/>
        </linearGradient>
        <linearGradient id="d">
            <stop offset="0" stop-color="#2dc0af"/>
            <stop offset="1" stop-color="#3584e4"/>
        </linearGradient>
        <linearGradient id="e">
            <stop offset="0" stop-color="#c061cb"/>
            <stop offset="1" stop-color="#8f58c8"/>
        </linearGradient>
        <linearGradient xlink:href="#a" id="s" x1="529.288" x2="543.341" y1="441.731" y2="408.599" gradientTransform="translate(-461.557 -35.819)" gradientUnits="userSpaceOnUse"/>
        <linearGradient xlink:href="#b" id="o" x1="529.288" x2="543.341" y1="441.731" y2="408.599" gradientTransform="rotate(-120 320.2 508.254)" gradientUnits="userSpaceOnUse"/>
        <linearGradient xlink:href="#c" id="q" x1="56" x2="0" y1="252" y2="244" gradientTransform="translate(42.443 122.181)" gradientUnits="userSpaceOnUse"/>
        <linearGradient xlink:href="#d" id="m" x1="64" x2="80" y1="260" y2="220" gradientTransform="translate(42.443 122.181)" gradientUnits="userSpaceOnUse"/>
        <linearGradient xlink:href="#e" id="j" x1="32" x2="56" y1="239.25" y2="196" gradientTransform="translate(42.443 122.181)" gradientUnits="userSpaceOnUse"/>
        <linearGradient xlink:href="#e" id="k" x1="32" x2="56" y1="239.25" y2="196" gradientTransform="translate(119.6 -168.437)scale(.97651)" gradientUnits="userSpaceOnUse"/>
        <linearGradient xlink:href="#d" id="n" x1="64" x2="80" y1="260" y2="220" gradientTransform="translate(119.6 -168.437)scale(.97651)" gradientUnits="userSpaceOnUse"/>
        <linearGradient xlink:href="#c" id="r" x1="56" x2="0" y1="252" y2="244" gradientTransform="translate(119.6 -168.437)scale(.97651)" gradientUnits="userSpaceOnUse"/>
        <linearGradient xlink:href="#a" id="t" x1="529.288" x2="543.341" y1="441.731" y2="408.599" gradientTransform="translate(-372.561 -322.726)scale(.97651)" gradientUnits="userSpaceOnUse"/>
        <linearGradient xlink:href="#b" id="p" x1="529.288" x2="543.341" y1="441.731" y2="408.599" gradientTransform="rotate(240 268.69 329.88)scale(.97651)" gradientUnits="userSpaceOnUse"/>
        <filter id="f" width="1.179" height="1.162" x="-.09" y="-.081" style="color-interpolation-filters:sRGB">
            <feFlood flood-color="#fff" flood-opacity="1" result="flood"/>
            <feComposite in="flood" in2="SourceGraphic" operator="out" result="composite1"/>
            <feGaussianBlur in="composite1" result="blur" stdDeviation="3.5"/>
            <feOffset result="offset"/>
            <feComposite in="offset" in2="SourceGraphic" operator="atop" result="composite2"/>
        </filter>
    </defs>
    <g style="filter:url(#f)" transform="translate(-120 3)">
        <path fill="#2dc0af" d="M155.123 45.375a15.626 15.626 0 0 0-15.993 15.62v36.082a15.626 15.626 0 0 0 23.436 13.531l31.249-18.044a15.626 15.626 0 0 0 0-27.062l-31.249-18.039a15.6 15.6 0 0 0-7.443-2.088" overflow="visible" style="color:#000;font-weight:400;line-height:normal;font-family:sans-serif;font-variant-ligatures:normal;font-variant-position:normal;font-variant-caps:normal;font-variant-numeric:normal;font-variant-alternates:normal;font-feature-settings:normal;text-indent:0;text-align:start;text-decoration-line:none;text-decoration-style:solid;text-decoration-color:#000;text-transform:none;text-orientation:mixed;white-space:normal;shape-padding:0;isolation:auto;mix-blend-mode:normal;solid-color:#000;solid-opacity:1;fill-rule:evenodd;stroke-width:1.33952"/>
        <path fill="url(#j)" d="M155.123 9.293a15.626 15.626 0 0 0-15.993 15.619v72.164h31.249V51.974l39.06 22.551 15.624-27.062-62.497-36.082a15.6 15.6 0 0 0-7.443-2.088" overflow="visible" style="color:#000;font-weight:400;line-height:normal;font-family:sans-serif;font-variant-ligatures:normal;font-variant-position:normal;font-variant-caps:normal;font-variant-numeric:normal;font-variant-alternates:normal;font-feature-settings:normal;text-indent:0;text-align:start;text-decoration-line:none;text-decoration-style:solid;text-decoration-color:#000;text-transform:none;text-orientation:mixed;white-space:normal;shape-padding:0;isolation:auto;mix-blend-mode:normal;solid-color:#000;solid-opacity:1;fill:url(#k);fill-rule:evenodd;stroke-width:1.33952"/>
        <path fill="url(#m)" d="M186.37 27.334a15.626 15.626 0 0 0-15.991 15.619v36.082a15.626 15.626 0 0 0 23.436 13.53l31.248-18.04a15.626 15.626 0 0 0 0-27.062l-31.248-18.04a15.6 15.6 0 0 0-7.444-2.089" overflow="visible" style="color:#000;font-weight:400;line-height:normal;font-family:sans-serif;font-variant-ligatures:normal;font-variant-position:normal;font-variant-caps:normal;font-variant-numeric:normal;font-variant-alternates:normal;font-feature-settings:normal;text-indent:0;text-align:start;text-decoration-line:none;text-decoration-style:solid;text-decoration-color:#000;text-transform:none;text-orientation:mixed;white-space:normal;shape-padding:0;isolation:auto;mix-blend-mode:normal;solid-color:#000;solid-opacity:1;fill:url(#n);fill-rule:evenodd;stroke-width:1.33952"/>
        <path fill="url(#o)" d="M193.437 92.71c10.56-6.046 21.08-12.163 31.625-18.237 6.884-3.806 9.824-13.117 6.32-20.168-1.601-3.658-4.82-6.207-8.27-8.022-8.342-3.276-19.06 1.768-20.999 10.845-.568 1.222-.498 2.502-.486 3.867-.046 6.515.095 13.036-.08 19.548-.479 5.072-3.613 9.773-8.11 12.167" overflow="visible" style="color:#000;font-weight:400;line-height:normal;font-family:sans-serif;font-variant-ligatures:normal;font-variant-position:normal;font-variant-caps:normal;font-variant-numeric:normal;font-variant-alternates:normal;font-feature-settings:normal;text-indent:0;text-align:start;text-decoration-line:none;text-decoration-style:solid;text-decoration-color:#000;text-transform:none;text-orientation:mixed;white-space:normal;shape-padding:0;isolation:auto;mix-blend-mode:normal;solid-color:#000;solid-opacity:1;fill:url(#p);fill-rule:evenodd;stroke-width:1.33952"/>
        <path fill="url(#q)" d="M139.147 25.528c-.04 11.822-.005 23.645-.017 35.467v36.082a15.626 15.626 0 0 0 23.436 13.531l31.249-18.043a15.626 15.626 0 0 0 0-27.06l-31.249-18.042a16 16 0 0 0-1.146-.588c-5.265-3.065-10.597-6.02-15.788-9.208-3.89-2.764-6.335-7.382-6.484-12.14z" opacity=".2" overflow="visible" style="color:#000;font-weight:400;line-height:normal;font-family:sans-serif;font-variant-ligatures:normal;font-variant-position:normal;font-variant-caps:normal;font-variant-numeric:normal;font-variant-alternates:normal;font-feature-settings:normal;text-indent:0;text-align:start;text-decoration-line:none;text-decoration-style:solid;text-decoration-color:#000;text-transform:none;text-orientation:mixed;white-space:normal;shape-padding:0;isolation:auto;mix-blend-mode:normal;solid-color:#000;solid-opacity:1;fill:url(#r);fill-rule:evenodd;stroke-width:1.33952"/>
        <path fill="url(#s)" d="M139.149 60.57c-.044 12.167-.007 24.338-.02 36.507-.144 7.863 6.45 15.065 14.307 15.557 3.969.442 7.785-1.072 11.084-3.153 7.007-5.585 7.997-17.39 1.106-23.607-.775-1.103-1.918-1.682-3.105-2.354-5.62-3.298-11.338-6.435-16.89-9.843-4.153-2.951-6.657-8.016-6.482-13.107" overflow="visible" style="color:#000;font-weight:400;line-height:normal;font-family:sans-serif;font-variant-ligatures:normal;font-variant-position:normal;font-variant-caps:normal;font-variant-numeric:normal;font-variant-alternates:normal;font-feature-settings:normal;text-indent:0;text-align:start;text-decoration-line:none;text-decoration-style:solid;text-decoration-color:#000;text-transform:none;text-orientation:mixed;white-space:normal;shape-padding:0;isolation:auto;mix-blend-mode:normal;solid-color:#000;solid-opacity:1;fill:url(#t);fill-rule:evenodd;stroke-width:1.33952"/>
    </g>
    <path d="M19.129 97.076q.002 3 0 6c-.145 7.863 6.449 15.065 14.307 15.557 3.968.442 7.785-1.07 11.084-3.15v-6c-.63.396-1.278.773-1.942 1.119l-.012.006-.011.006c-.928.481-1.887.9-2.871 1.238a16 16 0 0 1-.829.26c-1.749.504-3.567.728-5.42.521-2.848-.178-5.527-1.241-7.783-2.894a16 16 0 0 1-.45-.342 16.4 16.4 0 0 1-2.095-1.975 16 16 0 0 1-.554-.66 16 16 0 0 1-1.655-2.514l-.156-.3c-1.065-2.113-1.657-4.46-1.613-6.872m25.39 12.406.792-.459-.782.452z" style="color:#000;font-weight:400;line-height:normal;font-family:sans-serif;font-variant-ligatures:normal;font-variant-position:normal;font-variant-caps:normal;font-variant-numeric:normal;font-variant-alternates:normal;font-feature-settings:normal;text-indent:0;text-align:start;text-decoration-line:none;text-decoration-style:solid;text-decoration-color:#000;text-transform:none;text-orientation:mixed;white-space:normal;shape-padding:0;isolation:auto;mix-blend-mode:normal;solid-color:#000;solid-opacity:1;fill:#d6c625;fill-opacity:1;fill-rule:evenodd;stroke-width:1.34;stroke-miterlimit:4;stroke-dasharray:none" transform="translate(.057 .516)"/>
    <path d="m112.813 59.54.004.058v-.057zm.004 2.456c-.379 4.857-2.988 9.558-7.198 12.149v.06l-61.1 35.276v6l28.919-16.772 32.181-18.56v-.004c4.217-2.596 6.826-7.309 7.198-12.174z" style="fill:#299e90;fill-opacity:1" transform="translate(.057 .516)"/>
    <path d="M73.437 92.71v6L44.52 115.48v-6z" style="fill:#34afa0;fill-opacity:1;stroke-width:1.34;stroke-miterlimit:4;stroke-dasharray:none" transform="translate(.057 .516)"/>
</svg>
