<svg xmlns="http://www.w3.org/2000/svg" xmlns:xlink="http://www.w3.org/1999/xlink" width="128" height="128" viewBox="0 0 128 128">
    <defs>
        <linearGradient id="f">
            <stop offset="0" style="stop-color:#7f0e17;stop-opacity:1"/>
            <stop offset="1" style="stop-color:#d61727;stop-opacity:0"/>
        </linearGradient>
        <linearGradient id="e">
            <stop offset="0" style="stop-color:#49092a;stop-opacity:1"/>
            <stop offset="1" style="stop-color:#d69800;stop-opacity:1"/>
        </linearGradient>
        <linearGradient id="d">
            <stop offset="0" style="stop-color:#8b2408;stop-opacity:.12264067"/>
            <stop offset="1" style="stop-color:#9258fe;stop-opacity:0"/>
        </linearGradient>
        <linearGradient id="c">
            <stop offset="0" style="stop-color:#ad6600;stop-opacity:.55008012"/>
            <stop offset="1" style="stop-color:#ff9e12;stop-opacity:0"/>
        </linearGradient>
        <linearGradient id="b">
            <stop offset="0" style="stop-color:#8b2408;stop-opacity:.38552797"/>
            <stop offset="1" style="stop-color:#9258fe;stop-opacity:.03788283"/>
        </linearGradient>
        <linearGradient id="a">
            <stop offset="0" style="stop-color:#cb0c0c;stop-opacity:.36537349"/>
            <stop offset="1" style="stop-color:#fff44f;stop-opacity:0"/>
        </linearGradient>
        <linearGradient id="v" x1="1556.257" x2="311.881" y1="-951.675" y2="292.679" gradientTransform="translate(9.346 82.492)scale(.0625)" gradientUnits="userSpaceOnUse">
            <stop offset=".167" style="stop-color:#fff44f;stop-opacity:.8"/>
            <stop offset=".266" style="stop-color:#fff44f;stop-opacity:.634"/>
            <stop offset=".489" style="stop-color:#fff44f;stop-opacity:.217"/>
            <stop offset=".6" style="stop-color:#fff44f;stop-opacity:0"/>
        </linearGradient>
        <linearGradient id="k" x1="1573.784" x2="111.356" y1="-944.177" y2="466.791" gradientTransform="translate(9.346 82.492)scale(.0625)" gradientUnits="userSpaceOnUse">
            <stop offset=".048" style="stop-color:#fff44f"/>
            <stop offset=".111" style="stop-color:#ffe847"/>
            <stop offset=".225" style="stop-color:#ffc830"/>
            <stop offset=".368" style="stop-color:#ff980e"/>
            <stop offset=".401" style="stop-color:#ff8b16"/>
            <stop offset=".462" style="stop-color:#ff672a"/>
            <stop offset=".534" style="stop-color:#ff3647"/>
            <stop offset=".705" style="stop-color:#e31587"/>
        </linearGradient>
        <linearGradient xlink:href="#a" id="x" x1="71.892" x2="71.892" y1="82.867" y2="49.604" gradientTransform="translate(-19.616 -18.626)scale(1.31805)" gradientUnits="userSpaceOnUse"/>
        <linearGradient xlink:href="#b" id="y" x1="94.015" x2="89.217" y1="71.632" y2="51.677" gradientTransform="translate(-19.616 -18.626)scale(1.31805)" gradientUnits="userSpaceOnUse"/>
        <linearGradient xlink:href="#c" id="z" x1="45.721" x2="45.721" y1="45.342" y2="35.148" gradientTransform="translate(-19.616 -18.626)scale(1.31805)" gradientUnits="userSpaceOnUse"/>
        <linearGradient xlink:href="#d" id="A" x1="71.559" x2="98.562" y1="45.232" y2="45.232" gradientTransform="translate(-19.616 -18.626)scale(1.31805)" gradientUnits="userSpaceOnUse"/>
        <linearGradient xlink:href="#d" id="B" x1="71.559" x2="98.562" y1="45.232" y2="45.232" gradientTransform="translate(-19.616 -18.626)scale(1.31805)" gradientUnits="userSpaceOnUse"/>
        <linearGradient xlink:href="#e" id="j" x1="67.064" x2="67.064" y1="122.41" y2="19.771" gradientUnits="userSpaceOnUse"/>
        <linearGradient xlink:href="#f" id="q" x1="63.186" x2="63.186" y1="113.493" y2="26.909" gradientUnits="userSpaceOnUse"/>
        <radialGradient id="w" cx="-6734.321" cy="-9290.811" r="1834.005" gradientTransform="translate(507.783 615.241)scale(.0625)" gradientUnits="userSpaceOnUse">
            <stop offset=".094" style="stop-color:#fff44f"/>
            <stop offset=".231" style="stop-color:#ffe141"/>
            <stop offset=".509" style="stop-color:#ffaf1e"/>
            <stop offset=".626" style="stop-color:#ff980e"/>
        </radialGradient>
        <radialGradient id="t" cx="-7176.651" cy="-9388.88" r="1675.661" gradientTransform="translate(507.783 615.241)scale(.0625)" gradientUnits="userSpaceOnUse">
            <stop offset=".137" style="stop-color:#fff44f"/>
            <stop offset=".48" style="stop-color:#ff980e"/>
            <stop offset=".592" style="stop-color:#ff5634"/>
            <stop offset=".655" style="stop-color:#ff3647"/>
            <stop offset=".904" style="stop-color:#e31587"/>
        </radialGradient>
        <radialGradient id="s" cx="-11156.244" cy="-25211.904" r="1966.498" gradientTransform="rotate(83.968 -884.215 -87.883)scale(.06253 .04103)" gradientUnits="userSpaceOnUse">
            <stop offset="0" style="stop-color:#fff44f"/>
            <stop offset=".06" style="stop-color:#ffe847"/>
            <stop offset=".168" style="stop-color:#ffc830"/>
            <stop offset=".304" style="stop-color:#ff980e"/>
            <stop offset=".356" style="stop-color:#ff8b16"/>
            <stop offset=".455" style="stop-color:#ff672a"/>
            <stop offset=".57" style="stop-color:#ff3647"/>
            <stop offset=".737" style="stop-color:#e31587"/>
        </radialGradient>
        <radialGradient id="p" cx="-6667.365" cy="-10020.901" r="2683.987" gradientTransform="translate(507.783 615.241)scale(.0625)" gradientUnits="userSpaceOnUse">
            <stop offset=".113" style="stop-color:#fff44f"/>
            <stop offset=".456" style="stop-color:#ff980e"/>
            <stop offset=".622" style="stop-color:#ff5634"/>
            <stop offset=".716" style="stop-color:#ff3647"/>
            <stop offset=".904" style="stop-color:#e31587"/>
        </radialGradient>
        <radialGradient id="o" cx="-7161.836" cy="-9621.89" r="629.083" gradientTransform="translate(507.783 615.241)scale(.0625)" gradientUnits="userSpaceOnUse">
            <stop offset="0" style="stop-color:#ffe226"/>
            <stop offset=".121" style="stop-color:#ffdb27"/>
            <stop offset=".295" style="stop-color:#ffc82a"/>
            <stop offset=".502" style="stop-color:#ffa930"/>
            <stop offset=".732" style="stop-color:#ff7e37"/>
            <stop offset=".792" style="stop-color:#ff7139"/>
        </radialGradient>
        <radialGradient id="r" cx="-7341.787" cy="-8316.214" r="874.449" gradientTransform="translate(507.783 615.241)scale(.0625)" gradientUnits="userSpaceOnUse">
            <stop offset=".353" style="stop-color:#3a8ee6"/>
            <stop offset=".472" style="stop-color:#5c79f0"/>
            <stop offset=".669" style="stop-color:#9059ff"/>
            <stop offset="1" style="stop-color:#c139e6"/>
        </radialGradient>
        <radialGradient id="n" cx="-6917.211" cy="-9963.523" r="1330.439" gradientTransform="translate(507.783 615.241)scale(.0625)" gradientUnits="userSpaceOnUse">
            <stop offset=".132" style="stop-color:#fff44f"/>
            <stop offset=".252" style="stop-color:#ffdc3e"/>
            <stop offset=".506" style="stop-color:#ff9d12"/>
            <stop offset=".526" style="stop-color:#ff980e"/>
        </radialGradient>
        <radialGradient id="m" cx="-7138.649" cy="-8795.922" r="1836.528" gradientTransform="translate(507.783 615.241)scale(.0625)" gradientUnits="userSpaceOnUse">
            <stop offset=".3" style="stop-color:#960e18"/>
            <stop offset=".351" style="stop-color:#b11927;stop-opacity:.74"/>
            <stop offset=".435" style="stop-color:#db293d;stop-opacity:.343"/>
            <stop offset=".497" style="stop-color:#f5334b;stop-opacity:.094"/>
            <stop offset=".53" style="stop-color:#ff3750;stop-opacity:0"/>
        </radialGradient>
        <radialGradient id="l" cx="-6467.567" cy="-9546.747" r="1836.523" gradientTransform="translate(507.783 615.241)scale(.0625)" gradientUnits="userSpaceOnUse">
            <stop offset=".129" style="stop-color:#ffbd4f"/>
            <stop offset=".186" style="stop-color:#ffac31"/>
            <stop offset=".247" style="stop-color:#ff9d17"/>
            <stop offset=".283" style="stop-color:#ff980e"/>
            <stop offset=".403" style="stop-color:#ff563b"/>
            <stop offset=".467" style="stop-color:#ff3750"/>
            <stop offset=".71" style="stop-color:#f5156c"/>
            <stop offset=".782" style="stop-color:#eb0878"/>
            <stop offset=".86" style="stop-color:#e50080"/>
        </radialGradient>
    </defs>
    <path d="M30.295 26.882c-.644.263-1.263.588-1.838.976a40 40 0 0 0-5.38 4.613 48 48 0 0 0-5.17 6.163v-.008a46.5 46.5 0 0 0-7.388 16.687c-.025.112-1.982 8.663-1.02 13.1h.003c4.25 25.113 27.006 44.282 52.843 45.02 23.913.675 39.188-13.206 45.501-26.75a49.88 49.88 0 0 0 1.73-37.114c1.926 12.735-4.554 25.065-14.681 33.407l-.031.07C75.1 99.14 56.187 92.757 52.362 90.15c-.269-.125-.53-.262-.798-.4-11.519-5.505-16.282-16.006-15.263-25.006a14.14 14.14 0 0 1-13.044-8.207 20.77 20.77 0 0 1 20.244-.81 27.42 27.42 0 0 0 20.675.81l-.013-2.654-4.49-.366.054.672c-3.044-1.527-6.817-3.547-8.894-5.594-1.994-1.968-2.944-2.914-3.782-3.627a16 16 0 0 0-1.418-1.073c-.325-.225-.694-.463-1.138-.757-4.019-2.613-12.007-2.468-12.27-2.461H32.2c-2.181-2.769-2.03-11.89-1.905-13.796m79.281 22.688-.008-.062-.01-.093c-.007-.012 0 .005 0 .049v.052z" style="fill:#d01826;fill-opacity:1;stroke-width:.190866"/>
    <path d="M81.15 8.52c-13.83 8.1-18.526 23.095-18.957 30.595.644-.043 1.283-.1 1.939-.1 9.993.019 19.2 5.4 24.131 14.087a19.03 19.03 0 0 0-13.275-3.226c19.806 9.906 14.493 44.008-12.957 42.72-2.444-.1-4.855-.57-7.162-1.382-.537-.2-1.075-.424-1.619-.661-.312-.144-.625-.283-.932-.446l.039.026a21 21 0 0 1-.8-.4c.256.126.499.255.761.374-6.725-3.475-12.273-10.042-12.967-18.017 0 0 2.542-9.476 18.198-9.476 1.694 0 6.539-4.725 6.627-6.094-.02-.45-9.606-4.263-13.343-7.944-1.994-1.969-2.944-2.912-3.782-3.625a16 16 0 0 0-1.42-1.073 25.56 25.56 0 0 1-.155-13.464l-.013-2.628-1.92 3.092s-.05.297.012.53a40.8 40.8 0 0 0-11.337 9.25h-.023c-2.181-2.77-2.033-11.887-1.908-13.794-.643.263-1.263.588-1.838.976a40 40 0 0 0-5.38 4.613 48 48 0 0 0-5.149 6.173v-.005a46.5 46.5 0 0 0-7.388 16.687l-.075.363c-.106.487-.57 2.944-.638 3.475A63 63 0 0 0 9 66.828v.28c.025 30.413 24.707 55.05 55.119 55.018 26.788-.025 49.67-19.312 54.22-45.712.094-.712.168-1.412.25-2.131a56.6 56.6 0 0 0-3.57-27.65h.002c-1.653-3.976-4.48-8.138-7.324-11l.63-.32-4.357-5.254v2.636a57 57 0 0 1 5.576 16.712l.01.096C103.33 33.978 92.774 27.722 84.15 14.09a68 68 0 0 1-1.3-2.108 18 18 0 0 1-.605-1.135 10 10 0 0 1-.819-2.183.15.15 0 0 0-.126-.144.3.3 0 0 0-.106 0c-.006 0-.02.014-.025.02-.007 0-.024.018-.036.018z" style="fill:url(#j);fill-opacity:1;stroke-width:.190866"/>
    <path fill="url(#k)" d="M115.02 43.997c-2.394-5.756-7.244-11.975-11.05-13.938a57 57 0 0 1 5.575 16.713l.012.094C103.332 31.34 92.775 25.084 84.15 11.453a67 67 0 0 1-1.3-2.106 18 18 0 0 1-.606-1.137 10 10 0 0 1-.819-2.182.15.15 0 0 0-.125-.144.3.3 0 0 0-.106 0c-.006 0-.019.013-.025.02-.007 0-.025.018-.037.018l.018-.037c-13.83 8.1-18.525 23.093-18.956 30.593a27.5 27.5 0 0 0-15.156 5.844 16 16 0 0 0-1.419-1.075 25.56 25.56 0 0 1-.156-13.462 40.8 40.8 0 0 0-13.256 10.243h-.025C30 35.26 30.15 26.141 30.276 24.234c-.644.263-1.263.588-1.838.975a40 40 0 0 0-5.381 4.613 48 48 0 0 0-5.15 6.175v.006-.012a46.5 46.5 0 0 0-7.388 16.687l-.075.363c-.106.487-.475 2.912-.543 3.437a1 1 0 0 1-.013.119A53.4 53.4 0 0 0 9 64.19v.28c.025 30.413 24.706 55.051 55.119 55.02 26.787-.025 49.668-19.313 54.218-45.713.094-.712.169-1.412.25-2.131a56.6 56.6 0 0 0-3.568-27.65zm-63.469 43.1c.256.125.5.256.763.375l.037.025a14 14 0 0 1-.8-.4m58.013-40.219v-.05l.012.056z" style="fill:url(#k);stroke-width:.190866"/>
    <path fill="url(#l)" d="M115.02 43.997c-2.394-5.756-7.244-11.975-11.05-13.938a57 57 0 0 1 5.575 16.713v.05l.012.056a49.88 49.88 0 0 1-1.713 37.169c-6.312 13.544-21.587 27.425-45.5 26.75-25.837-.731-48.594-19.907-52.85-45.019-.775-3.963 0-5.969.388-9.187A41.4 41.4 0 0 0 9 64.19v.28c.025 30.413 24.707 55.05 55.119 55.02 26.788-.025 49.669-19.313 54.219-45.713.093-.712.168-1.412.25-2.131a56.6 56.6 0 0 0-3.569-27.65z" style="fill:url(#l);stroke-width:.190866"/>
    <path fill="url(#m)" d="M115.02 43.997c-2.394-5.756-7.244-11.975-11.05-13.938a57 57 0 0 1 5.575 16.713v.05l.012.056a49.88 49.88 0 0 1-1.713 37.169c-6.312 13.544-21.587 27.425-45.5 26.75-25.837-.731-48.594-19.907-52.85-45.019-.775-3.963 0-5.969.388-9.187A41.4 41.4 0 0 0 9 64.19v.28c.025 30.413 24.707 55.05 55.119 55.02 26.788-.025 49.669-19.313 54.219-45.713.093-.712.168-1.412.25-2.131a56.6 56.6 0 0 0-3.569-27.65z" style="fill:url(#m);stroke-width:.190866"/>
    <path fill="url(#n)" d="M88.257 50.465c.12.082.232.17.344.25a30 30 0 0 0-5.112-6.668C66.37 26.928 79 6.935 81.132 5.916l.02-.031c-13.832 8.1-18.526 23.093-18.957 30.593.644-.043 1.282-.1 1.938-.1 9.987.019 19.2 5.4 24.124 14.087" style="fill:url(#n);stroke-width:.190866"/>
    <path fill="url(#o)" d="M44.47 40.484c.444.281.813.532 1.137.757a25.56 25.56 0 0 1-.156-13.463 40.8 40.8 0 0 0-13.256 10.244c.275-.006 8.263-.15 12.275 2.462" style="fill:url(#o);stroke-width:.190866"/>
    <path fill="url(#p)" d="M9.502 68.414c4.25 25.113 27.006 44.281 52.843 45.019 23.912.675 39.187-13.206 45.5-26.75a49.88 49.88 0 0 0 1.713-37.169v-.05c0-.044-.007-.062 0-.05l.011.094c1.957 12.756-4.53 25.112-14.674 33.469l-.032.068c-19.762 16.094-38.675 9.713-42.5 7.107-.268-.125-.53-.263-.8-.4-11.519-5.507-16.28-16.007-15.262-25.007a14.14 14.14 0 0 1-13.044-8.206 20.76 20.76 0 0 1 20.244-.812 27.42 27.42 0 0 0 20.675.812c-.02-.45-9.607-4.262-13.344-7.944-1.994-1.968-2.944-2.912-3.781-3.625a16 16 0 0 0-1.42-1.075c-.324-.225-.693-.462-1.137-.756-4.018-2.612-12.006-2.469-12.268-2.462H32.2c-2.182-2.77-2.032-11.888-1.907-13.794-.643.262-1.262.587-1.837.975a40 40 0 0 0-5.381 4.612 48 48 0 0 0-5.169 6.163v.006-.013a46.5 46.5 0 0 0-7.388 16.688c-.025.113-1.98 8.663-1.018 13.1Z" style="fill:url(#q);fill-opacity:1;stroke-width:.190866"/>
    <path fill="url(#r)" d="M64.164 53.884c-.094 1.369-4.931 6.094-6.625 6.094-15.656 0-18.2 9.475-18.2 9.475.694 7.975 6.25 14.544 12.969 18.019a25 25 0 0 0 2.55 1.106 24.4 24.4 0 0 0 7.162 1.381c27.444 1.288 32.762-32.818 12.956-42.718a19 19 0 0 1 13.275 3.224 27.78 27.78 0 0 0-24.124-14.087c-.657 0-1.294.056-1.938.1a27.5 27.5 0 0 0-15.156 5.844c.837.712 1.787 1.662 3.781 3.625 3.743 3.681 13.33 7.493 13.35 7.937" style="fill:url(#r);stroke-width:.190866;opacity:.8"/>
    <path fill="none" d="M64.164 53.884c-.094 1.369-4.931 6.094-6.625 6.094-15.656 0-18.2 9.475-18.2 9.475.694 7.975 6.25 14.544 12.969 18.019a25 25 0 0 0 2.55 1.106 24.4 24.4 0 0 0 7.162 1.381c27.444 1.288 32.762-32.818 12.956-42.718a19 19 0 0 1 13.275 3.224 27.78 27.78 0 0 0-24.124-14.087c-.657 0-1.294.056-1.938.1a27.5 27.5 0 0 0-15.156 5.844c.837.712 1.787 1.662 3.781 3.625 3.743 3.681 13.33 7.493 13.35 7.937" style="fill:#000;stroke-width:.190866;fill-opacity:0"/>
    <path fill="url(#s)" d="M83.489 44.047a30 30 0 0 1 5.112 6.675c.3.231.588.456.825.675 12.488 11.506 5.944 27.775 5.456 28.937 10.144-8.356 16.625-20.712 14.675-33.468-6.23-15.532-16.787-21.788-25.412-35.419a68 68 0 0 1-1.3-2.106 18 18 0 0 1-.606-1.138 10 10 0 0 1-.82-2.181.15.15 0 0 0-.124-.144.3.3 0 0 0-.107 0c-.006 0-.018.012-.025.019-.006 0-.025.019-.037.019C79 6.934 66.37 26.928 83.489 44.046z" style="fill:url(#s);stroke-width:.190866"/>
    <path d="m64.176 56.54-6.086 3.589.89 1.475-.89.525.176.293c-.278.122-.525.191-.727.191-15.656 0-18.201 9.477-18.201 9.477.043.493.115.978.197 1.459-.134.331-.197.54-.197.54.056.648.155 1.283.273 1.911.957-2.2 4.895-8.75 17.928-8.75 1.694 0 6.535-4.725 6.623-6.094l.014-2.617-.01.006zm10.801-6.665.01 2.002-.01-.002.002.645v.001l.01 1.99.011.007q-.012 0-.023.002c7.66 3.83 11.546 11.28 11.865 18.902-.46 11.425-8.915 22.562-24.82 21.816a24.6 24.6 0 0 1-7.165-1.383c-.537-.2-1.073-.424-1.617-.662-.312-.143-.625-.28-.931-.443l.035.023c2.262 1.546 9.804 4.408 19.677 3.159-2.916.993-6.25 1.482-10 1.306a24.6 24.6 0 0 1-7.164-1.383c-.537-.2-1.073-.424-1.617-.662-.312-.143-.625-.28-.931-.443l.035.023c3.825 2.613 22.733 8.997 42.502-7.103l.031-.07c.27-.634 2.35-5.81 2.125-12.248.203-5.71-1.212-12.816-7.582-18.682-.238-.219-.524-.45-.824-.676-.113-.081-.227-.17-.346-.252a19 19 0 0 0-7.785-3.133l.103-1.386z" style="fill:#000;fill-opacity:.2;stroke-width:.190866"/>
    <path d="m74.977 47.24.01 2.636.014.005-.024.003c19.806 9.906 14.494 44.005-12.956 42.718a24.6 24.6 0 0 1-7.164-1.383 32 32 0 0 1-1.617-.661c-.313-.144-.626-.28-.932-.443l.036.023c3.825 2.613 22.733 8.995 42.502-7.105l.03-.07c.495-1.156 7.03-17.43-5.457-28.93a11 11 0 0 0-.824-.674c-.112-.081-.226-.171-.345-.252a19 19 0 0 0-7.784-3.133l.103-1.388z" style="fill:#b98300;fill-opacity:1;stroke-width:.190866"/>
    <path fill="url(#t)" d="M89.42 51.397c-.238-.219-.525-.45-.825-.675-.113-.082-.225-.169-.344-.25a19.03 19.03 0 0 0-13.275-3.225C94.782 57.153 89.47 91.253 62.02 89.966a24.6 24.6 0 0 1-7.162-1.382c-.538-.2-1.076-.425-1.62-.662-.312-.144-.624-.282-.93-.444l.037.025c3.825 2.613 22.731 8.994 42.5-7.106l.03-.069c.495-1.156 7.032-17.431-5.455-28.931" style="fill:url(#t);stroke-width:.190866"/>
    <path fill="url(#p)" d="M9.502 65.778c4.25 25.112 27.006 44.281 52.843 45.019 23.912.675 39.187-13.206 45.5-26.75a49.88 49.88 0 0 0 1.713-37.169v-.05c0-.044-.007-.062 0-.05l.011.094c1.957 12.756-4.53 25.112-14.674 33.469l-.032.068c-19.762 16.094-38.675 9.713-42.5 7.107-.268-.125-.53-.263-.8-.4-11.519-5.507-16.28-16.007-15.262-25.007a14.14 14.14 0 0 1-13.044-8.206 20.76 20.76 0 0 1 20.244-.813 27.42 27.42 0 0 0 20.675.813c-.02-.45-9.607-4.262-13.344-7.944-1.994-1.968-2.944-2.912-3.781-3.625a16 16 0 0 0-1.42-1.075c-.324-.225-.693-.462-1.137-.756-4.018-2.613-12.006-2.469-12.268-2.462H32.2c-2.182-2.77-2.032-11.888-1.907-13.794-.643.262-1.262.587-1.837.975a40 40 0 0 0-5.381 4.612 48 48 0 0 0-5.169 6.163v.006-.013a46.5 46.5 0 0 0-7.388 16.688c-.025.113-1.98 8.663-1.018 13.1z" style="fill:url(#p);stroke-width:.190866"/>
    <path fill="url(#v)" d="M115.02 43.997c-2.394-5.756-7.244-11.975-11.05-13.938a57 57 0 0 1 5.575 16.713l.012.094C103.332 31.34 92.775 25.084 84.15 11.453a67 67 0 0 1-1.3-2.106 18 18 0 0 1-.606-1.137 10 10 0 0 1-.819-2.182.15.15 0 0 0-.125-.144.3.3 0 0 0-.106 0c-.006 0-.019.013-.025.02-.007 0-.025.018-.037.018l.018-.037c-13.83 8.1-18.525 23.093-18.956 30.593.644-.043 1.282-.1 1.938-.1 9.993.02 19.2 5.4 24.131 14.088a19.03 19.03 0 0 0-13.275-3.225C94.794 57.147 89.48 91.247 62.032 89.96a24.6 24.6 0 0 1-7.163-1.381c-.537-.2-1.075-.426-1.619-.663-.312-.144-.625-.281-.93-.444l.037.025c-.27-.125-.532-.262-.8-.4.256.125.5.257.762.375-6.725-3.475-12.275-10.043-12.969-18.018 0 0 2.544-9.476 18.2-9.476 1.694 0 6.538-4.725 6.625-6.093-.019-.45-9.606-4.263-13.343-7.944-1.994-1.969-2.944-2.913-3.782-3.625a16 16 0 0 0-1.419-1.075 25.56 25.56 0 0 1-.156-13.463A40.8 40.8 0 0 0 32.22 38.022h-.025c-2.181-2.769-2.031-11.887-1.906-13.794a10 10 0 0 0-1.838.975 40 40 0 0 0-5.38 4.613 48 48 0 0 0-5.15 6.175v.006-.013a46.5 46.5 0 0 0-7.388 16.688l-.075.362c-.107.488-.569 2.944-.638 3.475 0 .038 0-.044 0 0A63 63 0 0 0 9 64.191v.28c.025 30.413 24.707 55.05 55.12 55.02 26.787-.025 49.668-19.313 54.218-45.713.093-.712.168-1.412.25-2.131a56.6 56.6 0 0 0-3.569-27.65zm-5.463 2.825.012.056z" style="fill:url(#v);stroke-width:.190866"/>
    <path d="m64.176 53.902-6.086 3.591 1.078 1.787c-.647.423-1.228.697-1.629.697-15.656 0-18.2 9.477-18.2 9.477.056.647.154 1.281.272 1.91.957-2.2 4.895-8.75 17.928-8.75 1.694 0 6.536-4.725 6.624-6.094z" style="fill:#ab7900;fill-opacity:1;stroke-width:.190866"/>
    <path fill="url(#w)" d="M39.339 69.453s2.544-9.475 18.2-9.475c1.694 0 6.537-4.725 6.625-6.094a27.42 27.42 0 0 1-20.675-.812 20.76 20.76 0 0 0-20.244.812 14.14 14.14 0 0 0 13.044 8.206c-1.02 9.007 3.737 19.5 15.262 25.007.256.125.5.256.763.375-6.725-3.475-12.282-10.044-12.975-18.019" style="fill:url(#w);stroke-width:.190866"/>
    <path fill="url(#t)" d="M89.42 51.397c-.238-.219-.525-.45-.825-.675-.113-.082-.225-.169-.344-.25a19.03 19.03 0 0 0-13.275-3.225C94.782 57.153 89.47 91.253 62.02 89.966a24.6 24.6 0 0 1-7.162-1.382c-.538-.2-1.076-.425-1.62-.662-.312-.144-.624-.282-.93-.444l.037.025c3.825 2.613 22.731 8.994 42.5-7.106l.03-.069c.495-1.156 7.032-17.431-5.455-28.931" style="fill:url(#x);fill-opacity:1;stroke-width:.190866"/>
    <path fill="url(#s)" d="M83.489 44.047a30 30 0 0 1 5.112 6.675c.3.231.588.456.825.675 12.488 11.506 5.944 27.775 5.456 28.937 10.144-8.356 16.625-20.712 14.675-33.468-6.23-15.532-16.787-21.788-25.412-35.419a68 68 0 0 1-1.3-2.106 18 18 0 0 1-.606-1.138 10 10 0 0 1-.82-2.181.15.15 0 0 0-.124-.144.3.3 0 0 0-.107 0c-.006 0-.018.012-.025.019-.006 0-.025.019-.037.019C79 6.934 66.37 26.928 83.489 44.046z" style="fill:url(#y);fill-opacity:1;stroke-width:.190866"/>
    <path fill="url(#o)" d="M44.47 40.484c.444.281.813.532 1.137.757a25.56 25.56 0 0 1-.156-13.463 40.8 40.8 0 0 0-13.256 10.244c.275-.006 8.263-.15 12.275 2.462" style="fill:url(#z);fill-opacity:1;stroke-width:.190866"/>
    <path fill="url(#s)" d="M83.489 44.047a30 30 0 0 1 5.112 6.675c.3.231.588.456.825.675 12.488 11.506 5.944 27.775 5.456 28.937 10.144-8.356 16.625-20.712 14.675-33.468-6.23-15.532-16.787-21.788-25.412-35.419a68 68 0 0 1-1.3-2.106 18 18 0 0 1-.606-1.138 10 10 0 0 1-.82-2.181.15.15 0 0 0-.124-.144.3.3 0 0 0-.107 0c-.006 0-.018.012-.025.019-.006 0-.025.019-.037.019C79 6.934 66.37 26.928 83.489 44.046z" style="fill:url(#A);fill-opacity:1;stroke-width:.190866"/>
    <path fill="url(#s)" d="M83.489 44.047a30 30 0 0 1 5.112 6.675c.3.231.588.456.825.675 12.488 11.506 5.944 27.775 5.456 28.937 10.144-8.356 16.625-20.712 14.675-33.468-6.23-15.532-16.787-21.788-25.412-35.419a68 68 0 0 1-1.3-2.106 18 18 0 0 1-.606-1.138 10 10 0 0 1-.82-2.181.15.15 0 0 0-.124-.144.3.3 0 0 0-.107 0c-.006 0-.018.012-.025.019-.006 0-.025.019-.037.019C79 6.934 66.37 26.928 83.489 44.046z" style="fill:url(#B);fill-opacity:1;stroke-width:.190866"/>
</svg>
