<svg xmlns="http://www.w3.org/2000/svg" xmlns:xlink="http://www.w3.org/1999/xlink" width="128" height="128" viewBox="0 0 128 128">
    <defs>
        <linearGradient id="b">
            <stop offset="0" style="stop-color:#e5dabf;stop-opacity:1"/>
            <stop offset="1" style="stop-color:#fffffe;stop-opacity:1"/>
        </linearGradient>
        <linearGradient id="a">
            <stop offset="0" style="stop-color:#9b968d;stop-opacity:1"/>
            <stop offset=".05" style="stop-color:#b7b2a6;stop-opacity:1"/>
            <stop offset=".1" style="stop-color:#9b968d;stop-opacity:1"/>
            <stop offset=".9" style="stop-color:#9b968d;stop-opacity:1"/>
            <stop offset=".95" style="stop-color:#b6b1a5;stop-opacity:1"/>
            <stop offset="1" style="stop-color:#9b968d;stop-opacity:1"/>
        </linearGradient>
        <linearGradient xlink:href="#a" id="c" x1="11.5" x2="116.5" y1="120.5" y2="120.5" gradientUnits="userSpaceOnUse"/>
        <linearGradient xlink:href="#b" id="f" x1="64" x2="64" y1="112.5" y2="7.5" gradientUnits="userSpaceOnUse"/>
    </defs>
    <rect width="105" height="105" x="11.5" y="15.5" rx="13" ry="13" style="fill:url(#c);fill-opacity:1"/>
    <rect width="105" height="105" x="11.5" y="7.5" rx="13" ry="13" style="fill:url(#f);fill-opacity:1"/>
    <rect width="100.755" height="100.755" x="13.622" y="9.622" rx="12" ry="12" style="fill:#d0c9b4;fill-opacity:1;stroke-width:.959575"/>
    <path d="M93.598 33.475c-.644-.1-1.221.257-1.569.66s-.589.901-.799 1.531c-.363 1.09-1.699 5.132-6.507 9.129-3.59 2.984-9.122 5.917-17.672 7.363a10.8 10.8 0 0 0-5.504-1.502 10.83 10.83 0 0 0-6.717 2.33c-11.534-1.019-16.445-11.24-16.445-11.24l-1.864-3.84-.097 4.268-.319 13.646a9.37 9.37 0 0 0-1.324 4.81q.002.147.008.292c-1.786-1.79-3.83-3.087-5.912-3.797-1.44-.491-2.916-.7-4.322-.574-1.406.125-2.744.584-3.905 1.422-2.322 1.675-3.421 4.495-3.398 7.539s1.133 6.372 3.285 9.353c2.15 2.982 4.96 5.083 7.84 6.065 1.756.598 3.564.772 5.234.44a55 55 0 0 0 4.823 3.109c7.42 4.255 16.922 7.618 26.156 7.775 5.997.102 11.904-1.204 16.951-4.512 2.553 1.384 5.311 2.71 7.955 3.647l.006.023.314 1.067 1.288-.487.15.147 7.123 2.6c.19 1.977 1.447 3.981 3.857 4.904 5.193 1.986 10.02 4.474 10.02 4.474-2.477-8.408-3.355-15.084-9.828-14.49a4.65 4.65 0 0 0-1.914.59l-6.385-4.09-.195-.018-.467-1.492-.983.615c-1.574-1.004-3.314-1.935-5.084-2.787a28 28 0 0 0 1.44-1.904c5.978-8.72 8.892-22.82 6.504-44.496v-.01l-.002-.008c-.076-.595-.21-1.103-.451-1.549s-.648-.904-1.291-1.003" style="color:#000;fill:#847e74;fill-opacity:1;fill-rule:evenodd;stroke-miterlimit:10;-inkscape-stroke:none"/>
    <path d="M34.603 33.243s6.991 14.416 23.346 14.009c34.273-.86 40.283-18.738 41.142-21.318s2.176-2.189 2.48.195C112.75 127.59 23.998 84.057 20.846 66.776 38.473 61.617 34.173 51.73 34.173 51.73Z" style="color:#000;display:inline;overflow:visible;visibility:visible;fill:#7f7356;fill-opacity:1;fill-rule:evenodd;stroke:#2e3436;stroke-width:2.432;stroke-linecap:butt;stroke-linejoin:miter;stroke-miterlimit:10;stroke-dasharray:none;stroke-dashoffset:0;stroke-opacity:1;marker:none;marker-start:none;marker-mid:none;marker-end:none" transform="translate(8.074 5.972)scale(.84908)"/>
    <path d="M47.647 76.041c16.39 3.278 24.735.239 29.62-3.533-1.29-1.666-3.493-3.493-3.493-3.493s5.723 1.59 7.738 4.192c2.01 2.594.747 4.192.22 7.51-1.17-2.914-3.355-4.007-3.651-5.166-4.393 6.073-15.338 5.82-30.434.49" style="color:#000;display:inline;overflow:visible;visibility:visible;fill:#2e3436;fill-opacity:1;fill-rule:evenodd;stroke:none;stroke-width:2.432;stroke-linecap:butt;stroke-linejoin:miter;stroke-miterlimit:10;stroke-dasharray:none;stroke-dashoffset:0;stroke-opacity:1;marker:none;marker-start:none;marker-mid:none;marker-end:none" transform="translate(8.074 5.972)scale(.84908)"/>
    <path d="M52.445 54.954a9.888 9.888 0 1 1-19.776 0 9.888 9.888 0 1 1 19.776 0z" style="color:#000;display:inline;overflow:visible;visibility:visible;fill:#fff;fill-opacity:1;fill-rule:evenodd;stroke:#acaea8;stroke-width:2.432;stroke-linecap:butt;stroke-linejoin:miter;stroke-miterlimit:10;stroke-dasharray:none;stroke-dashoffset:0;stroke-opacity:1;marker:none;marker-start:none;marker-mid:none;marker-end:none" transform="translate(8.074 5.972)scale(.84908)"/>
    <g style="fill:#2e3436;fill-opacity:1">
        <path d="M32.747 58.68a14.832 10.533 54.192 1 1-17.084 12.324A14.832 10.533 54.192 1 1 32.747 58.68" style="color:#000;fill:#2e3436;fill-opacity:1;fill-rule:evenodd;stroke-width:2.432;stroke-miterlimit:10;-inkscape-stroke:none" transform="translate(8.074 5.972)scale(.84908)"/>
        <path d="M19.41 50.148c-1.656.148-3.23.688-4.597 1.674-2.735 1.973-4.032 5.294-4.004 8.88.027 3.584 1.334 7.504 3.869 11.015 2.532 3.511 5.84 5.986 9.232 7.142 3.394 1.157 6.953.975 9.688-.998s4.031-5.294 4.004-8.879-1.334-7.503-3.868-11.013c-2.532-3.513-5.84-5.988-9.234-7.145-1.697-.578-3.434-.823-5.09-.676m.244 2.413c1.267-.11 2.64.08 4.06.564 2.841.968 5.788 3.132 8.048 6.266 2.261 3.132 3.385 6.61 3.408 9.611s-1.01 5.455-2.994 6.887-4.64 1.638-7.48.67c-2.841-.969-5.786-3.132-8.046-6.266h-.002c-2.261-3.133-3.385-6.61-3.408-9.611s1.01-5.456 2.994-6.887c.992-.716 2.153-1.125 3.42-1.234" style="color:#000;fill:#2e3436;fill-opacity:1;fill-rule:evenodd;stroke-miterlimit:10;-inkscape-stroke:none" transform="translate(8.074 5.972)scale(.84908)"/>
    </g>
    <g style="fill:#2e3436;fill-opacity:1">
        <path d="M49.63 56.419a4.761 4.761 0 1 1-9.522 0 4.761 4.761 0 1 1 9.522 0" style="color:#000;fill:#2e3436;fill-opacity:1;fill-rule:evenodd;stroke-width:2.43199;stroke-miterlimit:10;-inkscape-stroke:none" transform="translate(8.074 5.972)scale(.84908)"/>
        <path d="M44.867 50.44c-1.46 0-2.937.48-4.08 1.498-1.143 1.016-1.895 2.589-1.894 4.48-.001 3.287 2.689 5.978 5.976 5.978s5.978-2.69 5.977-5.978c0-1.891-.753-3.464-1.897-4.48-1.143-1.017-2.621-1.499-4.082-1.499m0 2.433c.92 0 1.825.312 2.467.883.642.57 1.08 1.378 1.08 2.662a3.527 3.527 0 0 1-3.545 3.547 3.527 3.527 0 0 1-3.545-3.547c0-1.284.437-2.091 1.078-2.662.642-.57 1.545-.883 2.465-.883" style="color:#000;fill:#2e3436;fill-opacity:1;fill-rule:evenodd;stroke-miterlimit:10;-inkscape-stroke:none" transform="translate(8.074 5.972)scale(.84908)"/>
    </g>
    <path d="M23.56 59.468a4.3 5.159 0 1 1-8.598 0 4.3 5.159 0 1 1 8.598 0" style="color:#000;display:inline;overflow:visible;visibility:visible;fill:#fff;fill-opacity:1;fill-rule:evenodd;stroke:none;stroke-width:2.432;stroke-linecap:butt;stroke-linejoin:miter;stroke-miterlimit:10;stroke-dasharray:none;stroke-dashoffset:0;stroke-opacity:1;marker:none;marker-start:none;marker-mid:none;marker-end:none" transform="translate(8.074 5.972)scale(.84908)"/>
    <path d="M45.235 54.221a2.197 2.197 0 1 1-4.394 0 2.197 2.197 0 1 1 4.394 0" style="color:#000;display:inline;overflow:visible;visibility:visible;fill:#fff;fill-opacity:1;fill-rule:evenodd;stroke:none;stroke-width:1.24268;stroke-linecap:butt;stroke-linejoin:miter;stroke-miterlimit:10;stroke-dasharray:none;stroke-dashoffset:0;stroke-opacity:1;marker:none;marker-start:none;marker-mid:none;marker-end:none" transform="translate(8.074 5.972)scale(.84908)"/>
    <path d="M74.586 56.028a11.608 11.608 0 1 1-23.216 0 11.608 11.608 0 1 1 23.216 0z" style="color:#000;display:inline;overflow:visible;visibility:visible;fill:#fff;fill-opacity:1;fill-rule:evenodd;stroke:#acaea8;stroke-width:2.432;stroke-linecap:butt;stroke-linejoin:miter;stroke-miterlimit:10;stroke-dasharray:none;stroke-dashoffset:0;stroke-opacity:1;marker:none;marker-start:none;marker-mid:none;marker-end:none" transform="translate(8.074 5.972)scale(.84908)"/>
    <g style="fill:#2e3436;fill-opacity:1">
        <path d="M71.281 57.748a5.589 5.589 0 1 1-11.177 0 5.589 5.589 0 1 1 11.177 0" style="color:#000;fill:#2e3436;fill-opacity:1;fill-rule:evenodd;stroke-width:2.432;stroke-miterlimit:10;-inkscape-stroke:none" transform="translate(8.074 5.972)scale(.84908)"/>
        <path d="M65.693 50.943c-3.744 0-6.806 3.061-6.806 6.805s3.062 6.805 6.806 6.805 6.805-3.061 6.805-6.805-3.06-6.805-6.805-6.805m0 2.432a4.355 4.355 0 0 1 4.373 4.373 4.355 4.355 0 0 1-4.373 4.373 4.355 4.355 0 0 1-4.373-4.373 4.355 4.355 0 0 1 4.373-4.373" style="color:#000;fill:#2e3436;fill-opacity:1;fill-rule:evenodd;stroke-miterlimit:10;-inkscape-stroke:none" transform="translate(8.074 5.972)scale(.84908)"/>
    </g>
    <path d="M65.95 55.169a2.408 2.408 0 1 1-4.815 0 2.408 2.408 0 1 1 4.815 0" style="color:#000;display:inline;overflow:visible;visibility:visible;fill:#fff;fill-opacity:1;fill-rule:evenodd;stroke:none;stroke-width:1.36192;stroke-linecap:butt;stroke-linejoin:miter;stroke-miterlimit:10;stroke-dasharray:none;stroke-dashoffset:0;stroke-opacity:1;marker:none;marker-start:none;marker-mid:none;marker-end:none" transform="translate(8.074 5.972)scale(.84908)"/>
    <path d="m98.352 90.695 2.253-4.487c-8.381-6.132-23.832-10.593-23.832-10.593-2.678-1.248-3.523 1.158-1.669 2.722 0 0 13.214 9.473 23.248 12.358z" style="color:#000;display:inline;overflow:visible;visibility:visible;fill:#d97712;fill-opacity:1;fill-rule:nonzero;stroke:#673907;stroke-width:2.432;stroke-linecap:round;stroke-linejoin:miter;stroke-miterlimit:4;stroke-dasharray:none;stroke-dashoffset:0;stroke-opacity:1;marker:none;marker-start:none;marker-mid:none;marker-end:none" transform="translate(8.074 5.972)scale(.84908)"/>
    <path d="m109.098 94.83 1.206-2.67-9.358-5.994-.746-.064-.322-1.032c-1.36.85-3.335 4.013-2.811 5.79l1.01-.381.548.529z" style="color:#000;display:inline;overflow:visible;visibility:visible;fill:#888a85;fill-opacity:1;fill-rule:nonzero;stroke:#888a85;stroke-width:2.432;stroke-linecap:round;stroke-linejoin:miter;stroke-miterlimit:4;stroke-dasharray:none;stroke-dashoffset:0;stroke-opacity:1;marker:none;marker-start:none;marker-mid:none;marker-end:none" transform="translate(8.074 5.972)scale(.84908)"/>
    <path d="m103.655 90.033 4.97 2.134" style="color:#000;display:inline;overflow:visible;visibility:visible;fill:none;fill-opacity:1;fill-rule:nonzero;stroke:#fff;stroke-width:1.94548;stroke-linecap:round;stroke-linejoin:round;stroke-miterlimit:4;stroke-dasharray:none;stroke-dashoffset:0;stroke-opacity:1;marker:none;marker-start:none;marker-mid:none;marker-end:none" transform="translate(8.074 5.972)scale(.84908)"/>
    <path d="M122.697 106.17c-2.917-9.903-3.952-17.766-11.576-17.066-6.143.564-6.573 9.366-.225 11.795 6.116 2.34 11.8 5.27 11.8 5.27" style="color:#000;display:inline;overflow:visible;visibility:visible;fill:#2e3436;fill-opacity:1;fill-rule:nonzero;stroke:none;stroke-width:.197687;stroke-linecap:round;stroke-linejoin:miter;stroke-miterlimit:4;stroke-dasharray:none;stroke-dashoffset:0;stroke-opacity:1;marker:none;marker-start:none;marker-mid:none;marker-end:none" transform="translate(8.074 5.972)scale(.84908)"/>
    <path d="M111.947 90.738a1.69 1.69 0 1 1 .955 3.242 1.69 1.69 0 1 1-.955-3.242" style="color:#000;display:inline;overflow:visible;visibility:visible;opacity:.527778;fill:#fff;fill-opacity:1;fill-rule:nonzero;stroke:none;stroke-width:1.35205;stroke-linecap:round;stroke-linejoin:miter;stroke-miterlimit:4;stroke-dasharray:none;stroke-dashoffset:0;stroke-opacity:1;marker:none;marker-start:none;marker-mid:none;marker-end:none" transform="translate(8.074 5.972)scale(.84908)"/>
    <path d="M100.482 86.454a1.53 1.53 0 1 1 .865 2.936 1.53 1.53 0 1 1-.865-2.936" style="color:#000;display:inline;overflow:visible;visibility:visible;fill:#fff;fill-opacity:1;fill-rule:nonzero;stroke:none;stroke-width:1.22445;stroke-linecap:round;stroke-linejoin:miter;stroke-miterlimit:4;stroke-dasharray:none;stroke-dashoffset:0;stroke-opacity:1;marker:none;marker-start:none;marker-mid:none;marker-end:none" transform="translate(8.074 5.972)scale(.84908)"/>
    <path d="M119.402 101.684s-1.188-4.445-3.81-6.758c-.928-.819.241-2.025 1.117-.966 1.89 2.287 2.693 7.724 2.693 7.724" style="color:#000;display:inline;overflow:visible;visibility:visible;fill:#878787;fill-opacity:1;fill-rule:nonzero;stroke:none;stroke-width:1.23599;stroke-linecap:round;stroke-linejoin:miter;stroke-miterlimit:4;stroke-dasharray:none;stroke-dashoffset:0;stroke-opacity:1;marker:none;marker-start:none;marker-mid:none;marker-end:none" transform="translate(8.074 5.972)scale(.84908)"/>
</svg>
