<svg xmlns="http://www.w3.org/2000/svg" xml:space="preserve" width="128" height="128" viewBox="0 0 128 128">
    <path d="M64 5A55 55 0 0 0 9 60v8a55 55 0 0 0 55 55 55 55 0 0 0 55-55v-8A55 55 0 0 0 64 5" style="fill:#b3b3b3;fill-opacity:1"/>
    <circle cx="64" cy="60" r="55" style="fill:#e73434;fill-opacity:1;stroke-width:1"/>
    <g style="display:inline" transform="translate(77.808 -207.438)">
        <path d="M-24.327 213.297q-2.12.39-4.204.945a55 55 0 0 0-5.218 1.736 55 55 0 0 0-9.784 4.983 55 55 0 0 0-4.474 3.206 55 55 0 0 0-4.131 3.63q-.253.268-.5.536c1.18 8.105 3.692 15.585 10.732 23.613a31.994 32.021 0 0 1 8.59-10.027c-.95-11.255 3.014-20.08 8.989-28.622zm24.78.894c-6.416 5.077-11.624 10.986-15.047 21.096a31.994 32.021 0 0 1 .775-.026 31.994 32.021 0 0 1 12.212 2.435c9.25-6.437 18.855-7.416 29.22-6.515a55 55 0 0 0-1.975-2.251 55 55 0 0 0-4.025-3.748 54.9 54.9 0 0 0-19.175-10.487 56 56 0 0 0-1.984-.505zm-66.232 35.222a58 58 0 0 0-.581 1.604 56 56 0 0 0-1.362 5.33 55 55 0 0 0-1.097 10.936c0 1.299.038 2.6.138 3.895.13 1.83.353 3.654.663 5.463q.433 2.43 1.081 4.814c7.612 3.035 15.348 4.595 25.832 2.497a31.994 32.021 0 0 1-4.392-12.447c-10.214-4.8-15.877-12.645-20.282-22.092zm88.683.297c-3.043-.061-6.139.241-9.442.893a31.994 32.021 0 0 1 4.397 12.462c10.214 4.8 15.876 12.64 20.282 22.087.203-.53.394-1.067.581-1.603a55 55 0 0 0 2.459-16.266c0-1.3-.039-2.595-.138-3.89a56 56 0 0 0-.663-5.464 55 55 0 0 0-1.081-4.84c-5.917-2.11-11.087-3.273-16.395-3.38zm-8.636 32.91a31.994 32.021 0 0 1-8.59 10.026c.95 11.255-3.014 20.08-8.989 28.622a55 55 0 0 0 4.204-.945 55 55 0 0 0 5.218-1.736 54.8 54.8 0 0 0 14.258-8.184 55 55 0 0 0 4.131-3.635c.17-.18.34-.356.505-.536-1.18-8.105-3.697-15.585-10.737-23.613zm-40.299 14.249c-9.25 6.436-18.85 7.42-29.214 6.52a54 54 0 0 0 1.969 2.246 55 55 0 0 0 8.402 7.08 55 55 0 0 0 4.687 2.875 55 55 0 0 0 10.116 4.284q.992.272 1.994.505c6.414-5.078 11.619-10.993 15.038-21.106a31.994 32.021 0 0 1-.78.03 31.994 32.021 0 0 1-12.212-2.434z" style="display:inline;opacity:1;fill:#f6f5f4;fill-opacity:1;stroke:#f6f5f4;stroke-width:.2;stroke-opacity:1;stroke-dasharray:none"/>
        <ellipse cx="-13.819" cy="267.283" rx="32.972" ry="33" style="display:inline;opacity:1;fill:#f6f5f4;fill-opacity:1;stroke:none;stroke-width:6.59718;stroke-linejoin:round;stroke-miterlimit:4;stroke-dasharray:.824648,.412324;stroke-dashoffset:0;stroke-opacity:1"/>
        <path d="M-66.937 281.456v7.836a55 55 0 0 0 11.692 22.293v-8a55 55 0 0 1-11.631-22.016z" style="fill:#b91616;fill-opacity:1;stroke:none;stroke-width:2;stroke-linejoin:round"/>
    </g>
    <g style="display:inline">
        <path d="M40 487h16v16H40z" style="color:#bebebe;display:inline;overflow:visible;visibility:visible;fill:none;stroke:none;stroke-width:1;marker:none" transform="matrix(2.74765 0 0 2.75 -66.067 -1301.406)"/>
        <path d="M84 609v10h1a1 1 0 0 0 .5-.125l7-4c.31-.172.469-.523.469-.875s-.158-.703-.469-.875l-7-4A1 1 0 0 0 85 609h-.094z" style="color:#000;font-style:normal;font-variant:normal;font-weight:400;font-stretch:normal;font-size:medium;line-height:normal;font-family:&quot;Bitstream Vera Sans&quot;;-inkscape-font-specification:&quot;Bitstream Vera Sans&quot;;text-indent:0;text-align:start;text-decoration:none;text-decoration-line:none;letter-spacing:normal;word-spacing:normal;text-transform:none;writing-mode:lr-tb;direction:ltr;text-anchor:start;display:inline;overflow:visible;visibility:visible;fill:#e73434;fill-opacity:1;fill-rule:nonzero;stroke:none;stroke-width:2;marker:none" transform="matrix(2.74765 0 0 2.75 -175.973 -1628.656)"/>
    </g>
    <path d="M49.73 113.04v8A55 55 0 0 0 64 123a55 55 0 0 0 10.496-1.14v-8A55 55 0 0 1 64 115a55 55 0 0 1-14.27-1.96m66.215-35.327a55 55 0 0 1-13.127 21.053l-.005.027v7.978a55 55 0 0 0 13.136-21.07v-7.988z" style="fill:#b91616;fill-opacity:1;stroke:none;stroke-width:2;stroke-linejoin:round"/>
</svg>
