<svg xmlns="http://www.w3.org/2000/svg" xmlns:xlink="http://www.w3.org/1999/xlink" id="svg5" width="128" height="128" viewBox="0 0 128 128">
    <defs id="defs2">
        <clipPath id="clipPath1609-7" clipPathUnits="userSpaceOnUse">
            <path id="path1611-5" d="m252 116 28-28v-8h-36v36z" style="fill:#e74747;stroke:none;stroke-width:.25px;stroke-linecap:butt;stroke-linejoin:miter;stroke-opacity:1"/>
        </clipPath>
        <clipPath id="clipPath961" clipPathUnits="userSpaceOnUse">
            <rect id="rect963" width="541.867" height="541.867" x="0" y="0" rx="79.375" ry="79.375" style="fill:#00c853;stroke:none;stroke-width:.529037"/>
        </clipPath>
        <clipPath id="clipPath1440" clipPathUnits="userSpaceOnUse">
            <circle id="circle1442" cx="-134.35" cy="193.747" r="24" style="display:inline;opacity:1;vector-effect:none;fill:none;fill-opacity:1;stroke:#000;stroke-width:2;stroke-linecap:butt;stroke-linejoin:miter;stroke-miterlimit:4;stroke-dasharray:none;stroke-dashoffset:0;stroke-opacity:1;marker:none;marker-start:none;marker-mid:none;marker-end:none;paint-order:normal" transform="rotate(-45)"/>
        </clipPath>
        <clipPath id="clipPath1430" clipPathUnits="userSpaceOnUse">
            <circle id="circle1432" cx="12" cy="232" r="24" style="display:inline;opacity:1;vector-effect:none;fill:none;fill-opacity:1;stroke:#000;stroke-width:2;stroke-linecap:butt;stroke-linejoin:miter;stroke-miterlimit:4;stroke-dasharray:none;stroke-dashoffset:0;stroke-opacity:1;marker:none;marker-start:none;marker-mid:none;marker-end:none;paint-order:normal"/>
        </clipPath>
        <clipPath id="clipPath1440-9" clipPathUnits="userSpaceOnUse">
            <circle id="circle1442-5" cx="-134.35" cy="193.747" r="24" style="display:inline;opacity:1;vector-effect:none;fill:none;fill-opacity:1;stroke:#000;stroke-width:2;stroke-linecap:butt;stroke-linejoin:miter;stroke-miterlimit:4;stroke-dasharray:none;stroke-dashoffset:0;stroke-opacity:1;marker:none;marker-start:none;marker-mid:none;marker-end:none;paint-order:normal" transform="rotate(-45)"/>
        </clipPath>
        <clipPath id="clipPath1430-1" clipPathUnits="userSpaceOnUse">
            <circle id="circle1432-8" cx="12" cy="232" r="24" style="display:inline;opacity:1;vector-effect:none;fill:none;fill-opacity:1;stroke:#000;stroke-width:2;stroke-linecap:butt;stroke-linejoin:miter;stroke-miterlimit:4;stroke-dasharray:none;stroke-dashoffset:0;stroke-opacity:1;marker:none;marker-start:none;marker-mid:none;marker-end:none;paint-order:normal"/>
        </clipPath>
        <clipPath id="clipPath2024" clipPathUnits="userSpaceOnUse">
            <path id="rect2026" d="M6 196h74v98H6z" style="opacity:1;vector-effect:none;fill:#63452c;fill-opacity:1;stroke:none;stroke-width:4;stroke-linecap:round;stroke-linejoin:round;stroke-miterlimit:4;stroke-dasharray:none;stroke-dashoffset:0;stroke-opacity:1"/>
        </clipPath>
        <clipPath id="clipPath11543" clipPathUnits="userSpaceOnUse">
            <rect id="rect11545" width="541.867" height="541.867" x="0" y="0" rx="79.375" ry="79.375" style="fill:#f0c04e;fill-opacity:1;stroke:none;stroke-width:.529037"/>
        </clipPath>
        <clipPath id="clipPath1260" clipPathUnits="userSpaceOnUse">
            <rect id="rect1262" width="541.867" height="541.867" x="0" y="0" rx="79.375" ry="79.375" style="fill:#bbdefb;fill-opacity:1;stroke:none;stroke-width:.529037"/>
        </clipPath>
        <clipPath id="clipPath16423" clipPathUnits="userSpaceOnUse">
            <rect id="rect16425" width="541.867" height="541.867" x="0" y="0" rx="79.375" ry="79.375" style="fill:#ffad34;fill-opacity:1;stroke:none;stroke-width:.529037"/>
        </clipPath>
        <clipPath id="clipPath5550" clipPathUnits="userSpaceOnUse">
            <rect id="rect5552" width="661.29" height="661.29" x="-99.047" y="-73.297" rx="96.869" ry="96.869" style="fill:#ffce85;fill-opacity:1;stroke:none;stroke-width:.529035;stroke-opacity:1"/>
        </clipPath>
        <clipPath id="clipPath5554" clipPathUnits="userSpaceOnUse">
            <rect id="rect5556" width="661.29" height="661.29" x="-99.047" y="-73.297" rx="96.869" ry="96.869" style="fill:#ffce85;fill-opacity:1;stroke:none;stroke-width:.529035;stroke-opacity:1"/>
        </clipPath>
        <clipPath id="clipPath5558" clipPathUnits="userSpaceOnUse">
            <rect id="rect5560" width="661.29" height="661.29" x="-99.047" y="-73.297" rx="96.869" ry="96.869" style="fill:#ffce85;fill-opacity:1;stroke:none;stroke-width:.529035;stroke-opacity:1"/>
        </clipPath>
        <clipPath id="clipPath5562" clipPathUnits="userSpaceOnUse">
            <rect id="rect5564" width="661.29" height="661.29" x="-99.047" y="-73.297" rx="96.869" ry="96.869" style="fill:#ffce85;fill-opacity:1;stroke:none;stroke-width:.529035;stroke-opacity:1"/>
        </clipPath>
        <clipPath id="clipPath5566" clipPathUnits="userSpaceOnUse">
            <rect id="rect5568" width="661.29" height="661.29" x="-99.047" y="-73.297" rx="96.869" ry="96.869" style="fill:#ffce85;fill-opacity:1;stroke:none;stroke-width:.529035;stroke-opacity:1"/>
        </clipPath>
        <clipPath id="clipPath5570" clipPathUnits="userSpaceOnUse">
            <rect id="rect5572" width="661.29" height="661.29" x="-99.047" y="-73.297" rx="96.869" ry="96.869" style="fill:#ffce85;fill-opacity:1;stroke:none;stroke-width:.529035;stroke-opacity:1"/>
        </clipPath>
        <clipPath id="clipPath5574" clipPathUnits="userSpaceOnUse">
            <rect id="rect5576" width="661.29" height="661.29" x="-99.047" y="-73.297" rx="96.869" ry="96.869" style="fill:#ffce85;fill-opacity:1;stroke:none;stroke-width:.529035;stroke-opacity:1"/>
        </clipPath>
        <clipPath id="clipPath5578" clipPathUnits="userSpaceOnUse">
            <rect id="rect5580" width="661.29" height="661.29" x="-99.047" y="-73.297" rx="96.869" ry="96.869" style="fill:#ffce85;fill-opacity:1;stroke:none;stroke-width:.529035;stroke-opacity:1"/>
        </clipPath>
        <clipPath id="clipPath5582" clipPathUnits="userSpaceOnUse">
            <rect id="rect5584" width="661.29" height="661.29" x="-99.047" y="-73.297" rx="96.869" ry="96.869" style="fill:#ffce85;fill-opacity:1;stroke:none;stroke-width:.529035;stroke-opacity:1"/>
        </clipPath>
        <clipPath id="clipPath5586" clipPathUnits="userSpaceOnUse">
            <rect id="rect5588" width="661.29" height="661.29" x="-99.047" y="-73.297" rx="96.869" ry="96.869" style="fill:#ffce85;fill-opacity:1;stroke:none;stroke-width:.529035;stroke-opacity:1"/>
        </clipPath>
        <clipPath id="clipPath5590" clipPathUnits="userSpaceOnUse">
            <rect id="rect5592" width="661.29" height="661.29" x="-99.047" y="-73.297" rx="96.869" ry="96.869" style="fill:#ffce85;fill-opacity:1;stroke:none;stroke-width:.529035;stroke-opacity:1"/>
        </clipPath>
        <clipPath id="clipPath5594" clipPathUnits="userSpaceOnUse">
            <rect id="rect5596" width="661.29" height="661.29" x="-99.047" y="-73.297" rx="96.869" ry="96.869" style="fill:#ffce85;fill-opacity:1;stroke:none;stroke-width:.529035;stroke-opacity:1"/>
        </clipPath>
        <clipPath id="clipPath5598" clipPathUnits="userSpaceOnUse">
            <rect id="rect5600" width="661.29" height="661.29" x="-99.047" y="-73.297" rx="96.869" ry="96.869" style="fill:#ffce85;fill-opacity:1;stroke:none;stroke-width:.529035;stroke-opacity:1"/>
        </clipPath>
        <clipPath id="clipPath5602" clipPathUnits="userSpaceOnUse">
            <rect id="rect5604" width="661.29" height="661.29" x="-99.047" y="-73.297" rx="96.869" ry="96.869" style="fill:#ffce85;fill-opacity:1;stroke:none;stroke-width:.529035;stroke-opacity:1"/>
        </clipPath>
        <clipPath id="clipPath5606" clipPathUnits="userSpaceOnUse">
            <rect id="rect5608" width="661.29" height="661.29" x="-99.047" y="-73.297" rx="96.869" ry="96.869" style="fill:#ffce85;fill-opacity:1;stroke:none;stroke-width:.529035;stroke-opacity:1"/>
        </clipPath>
        <clipPath id="clipPath5610" clipPathUnits="userSpaceOnUse">
            <rect id="rect5612" width="661.29" height="661.29" x="-90.645" y="-83.998" rx="96.869" ry="96.869" style="fill:#ffce85;fill-opacity:1;stroke:none;stroke-width:.529035;stroke-opacity:1"/>
        </clipPath>
        <clipPath id="clipPath5614" clipPathUnits="userSpaceOnUse">
            <rect id="rect5616" width="487.68" height="487.68" x="27.093" y="27.093" rx="71.438" ry="71.438" style="fill:#ffce85;fill-opacity:1;stroke:none;stroke-width:.529037;stroke-opacity:1"/>
        </clipPath>
        <clipPath id="clipPath5618" clipPathUnits="userSpaceOnUse">
            <rect id="rect5620" width="541.867" height="541.867" x="0" y="0" rx="79.375" ry="79.375" style="fill:#ffce85;fill-opacity:1;stroke:none;stroke-width:.529037;stroke-opacity:1"/>
        </clipPath>
        <clipPath id="clipPath5622" clipPathUnits="userSpaceOnUse">
            <rect id="rect5624" width="487.68" height="487.68" x="27.093" y="27.093" rx="71.438" ry="71.438" style="fill:#ffce85;fill-opacity:1;stroke:none;stroke-width:.529037;stroke-opacity:1"/>
        </clipPath>
        <clipPath id="clipPath6298" clipPathUnits="userSpaceOnUse">
            <rect id="rect6300" width="487.68" height="487.68" x="27.093" y="27.093" clip-path="url(#clipPath5622)" rx="71.438" ry="71.438" style="fill:#009e71;fill-opacity:1;stroke:none;stroke-width:.529036;stroke-opacity:1"/>
        </clipPath>
        <clipPath id="clipPath8220" clipPathUnits="userSpaceOnUse">
            <rect id="rect8222" width="487.68" height="487.68" x="27.093" y="27.093" clip-path="url(#clipPath5622)" rx="71.438" ry="71.438" style="fill:#a00;fill-opacity:1;stroke:none;stroke-width:.529036;stroke-opacity:1"/>
        </clipPath>
        <clipPath id="clip-path">
            <path id="Body" d="M38.11 28.39H46a1.35 1.35 0 0 1 1.35 1.35V37a5 5 0 0 1-5 5 5 5 0 0 1-5-5v-7.9a.71.71 0 0 1 .71-.71Z" class="cls-1"/>
        </clipPath>
        <clipPath id="clip-path-2">
            <path id="path1206" d="M28.39 22.08a4.51 4.51 0 1 1 4.51 4.51 4.51 4.51 0 0 1-4.51-4.51m11.27 6.31H26.14a1.37 1.37 0 0 0-1.35 1.39v8.32a8.11 8.11 0 1 0 16.21 0v-8.32a1.37 1.37 0 0 0-1.34-1.39" class="cls-1"/>
        </clipPath>
        <clipPath id="clipPath1017" clipPathUnits="userSpaceOnUse">
            <path id="path1015" d="M2619 5238c1446.43 0 2619-1172.57 2619-2619S4065.43 0 2619 0 0 1172.57 0 2619s1172.57 2619 2619 2619"/>
        </clipPath>
        <clipPath id="clipPath1027" clipPathUnits="userSpaceOnUse">
            <path id="path1025" d="M2619 5187c1418.27 0 2568-1149.73 2568-2568S4037.27 51 2619 51 50.996 1200.73 50.996 2619 1200.73 5187 2619 5187"/>
        </clipPath>
        <clipPath id="clipPath1037" clipPathUnits="userSpaceOnUse">
            <path id="path1035" d="M2619 4981c1304.5 0 2362-1057.5 2362-2362S3923.5 257 2619 257 257 1314.5 257 2619s1057.5 2362 2362 2362"/>
        </clipPath>
        <clipPath id="clipPath1047" clipPathUnits="userSpaceOnUse">
            <path id="path1045" d="M1078 3359V2249c1-251 206-453 456-452h1618c46 0 83 37 83 82v1110c-1 251-206 453-456 452H1161c-46 0-83-37-83-82m2260-433 668 488c58 48 103 36 103-51V1875c0-99-55-87-103-51l-668 487z"/>
        </clipPath>
        <clipPath id="clip1">
            <path id="path1127" d="M7 46h50v47H7Zm0 0"/>
        </clipPath>
        <clipPath id="clip2">
            <path id="path1130" d="M32.25 46.957c-12.562.012-23.164 9.68-24.746 22.574 1.559 12.914 12.164 22.614 24.746 22.63 12.566-.013 23.164-9.68 24.75-22.575-1.559-12.914-12.164-22.613-24.75-22.629m0 0"/>
        </clipPath>
        <clipPath id="clip3">
            <path id="rect1169" d="M0 0h192v152H0z"/>
        </clipPath>
        <linearGradient id="linearGradient8">
            <stop id="stop8" offset="0" style="stop-color:#ececec;stop-opacity:1"/>
            <stop id="stop9" offset="1" style="stop-color:#ececec;stop-opacity:1"/>
        </linearGradient>
        <linearGradient id="linearGradient1">
            <stop id="stop1" offset="0" style="stop-color:#b3b3b3;stop-opacity:1"/>
            <stop id="stop3" offset=".068" style="stop-color:#ccc;stop-opacity:.96862745"/>
            <stop id="stop6" offset=".137" style="stop-color:#b3b3b3;stop-opacity:.96862745"/>
            <stop id="stop7" offset=".863" style="stop-color:#b3b3b3;stop-opacity:.99607843"/>
            <stop id="stop5" offset=".926" style="stop-color:#ccc;stop-opacity:.96862745"/>
            <stop id="stop2" offset="1" style="stop-color:#b3b3b3;stop-opacity:1"/>
        </linearGradient>
        <linearGradient id="linearGradient560">
            <stop id="stop556" offset="0" style="stop-color:#f7b400;stop-opacity:1"/>
            <stop id="stop558" offset="1" style="stop-color:#f8d447;stop-opacity:1"/>
        </linearGradient>
        <linearGradient id="linearGradient583">
            <stop id="stop579" offset="0" style="stop-color:#fea;stop-opacity:1"/>
            <stop id="stop581" offset="1" style="stop-color:#f8c628;stop-opacity:1"/>
        </linearGradient>
        <linearGradient xlink:href="#linearGradient1036" id="linearGradient1099" x1="32" x2="96" y1="236" y2="236" gradientTransform="translate(604.817 170.586)" gradientUnits="userSpaceOnUse"/>
        <linearGradient id="linearGradient1036">
            <stop id="stop1032" offset="0" style="stop-color:#d5d3cf;stop-opacity:1"/>
            <stop id="stop1034" offset="1" style="stop-color:#f6f5f4;stop-opacity:1"/>
        </linearGradient>
        <linearGradient id="linearGradient1069">
            <stop id="stop1065" offset="0" style="stop-color:#d5d3cf;stop-opacity:1"/>
            <stop id="stop1067-1" offset="1" style="stop-color:#949390;stop-opacity:1"/>
        </linearGradient>
        <linearGradient xlink:href="#linearGradient1025" id="linearGradient1027" x1="64" x2="64" y1="262.5" y2="232" gradientTransform="translate(-470.586 432.817)" gradientUnits="userSpaceOnUse"/>
        <linearGradient id="linearGradient1025">
            <stop id="stop1021" offset="0" style="stop-color:#9a9996;stop-opacity:1"/>
            <stop id="stop1023" offset="1" style="stop-color:#77767b;stop-opacity:1"/>
        </linearGradient>
        <linearGradient id="linearGradient914">
            <stop id="stop910" offset="0" style="stop-color:#f6f5f4;stop-opacity:.43700787"/>
            <stop id="stop912" offset="1" style="stop-color:#deddda;stop-opacity:0"/>
        </linearGradient>
        <linearGradient id="linear-gradient" x1="63.33" x2="241.67" y1="84.03" y2="84.03" gradientTransform="matrix(1 0 0 -1 0 266)" gradientUnits="userSpaceOnUse">
            <stop id="stop376" offset="0" stop-color="#0c59a4"/>
            <stop id="stop378" offset="1" stop-color="#114a8b"/>
        </linearGradient>
        <linearGradient id="linear-gradient-2" x1="157.35" x2="45.96" y1="161.39" y2="40.06" gradientTransform="matrix(1 0 0 -1 0 266)" gradientUnits="userSpaceOnUse">
            <stop id="stop388" offset="0" stop-color="#1b9de2"/>
            <stop id="stop390" offset=".16" stop-color="#1595df"/>
            <stop id="stop392" offset=".67" stop-color="#0680d7"/>
            <stop id="stop394" offset="1" stop-color="#0078d4"/>
        </linearGradient>
        <linearGradient id="linearGradient9795">
            <stop id="stop9797" offset="0" style="stop-color:#fff;stop-opacity:1"/>
            <stop id="stop9799" offset="1" style="stop-color:#fff;stop-opacity:0"/>
        </linearGradient>
        <linearGradient xlink:href="#linearGradient9795" id="linearGradient9801" x1="30.438" x2="29.742" y1="31.829" y2="27.454" gradientUnits="userSpaceOnUse"/>
        <linearGradient id="linearGradient7212">
            <stop id="stop7214" offset="0" style="stop-color:#000;stop-opacity:1"/>
        </linearGradient>
        <linearGradient id="linear-gradient-6" x1="18.59" x2="29.18" y1="22.83" y2="41.17" gradientUnits="userSpaceOnUse">
            <stop id="stop1209" offset="0" stop-color="#fff" stop-opacity=".5"/>
            <stop id="stop1211" offset="1" stop-opacity=".7"/>
        </linearGradient>
        <linearGradient id="linearGradient1458">
            <stop id="stop1452" offset="0" style="stop-color:#deddda;stop-opacity:1"/>
            <stop id="stop1454" offset=".511" style="stop-color:#fff;stop-opacity:1"/>
            <stop id="stop1456" offset="1" style="stop-color:#c0bfbc;stop-opacity:1"/>
        </linearGradient>
        <linearGradient xlink:href="#linearGradient1458" id="linearGradient1053-2" x1="384" x2="416" y1="120" y2="120" gradientTransform="translate(0 640)" gradientUnits="userSpaceOnUse"/>
        <linearGradient id="linear0" x1="22" x2="62" y1="37" y2="37" gradientTransform="matrix(1.4 0 0 1.4 -26.8 2.492)" gradientUnits="userSpaceOnUse">
            <stop id="stop1143" offset="0" style="stop-color:#949390;stop-opacity:1"/>
            <stop id="stop1145" offset=".091" style="stop-color:#deddda;stop-opacity:1"/>
            <stop id="stop1147" offset=".336" style="stop-color:#9a9996;stop-opacity:1"/>
            <stop id="stop1149" offset=".844" style="stop-color:#c3c0ba;stop-opacity:1"/>
            <stop id="stop1151" offset=".931" style="stop-color:#deddda;stop-opacity:1"/>
            <stop id="stop1153" offset="1" style="stop-color:#c0bfbc;stop-opacity:1"/>
        </linearGradient>
        <linearGradient id="linearGradient1078">
            <stop id="stop1066" offset="0" style="stop-color:#77767b;stop-opacity:1"/>
            <stop id="stop1068" offset=".036" style="stop-color:#c0bfbc;stop-opacity:1"/>
            <stop id="stop1070" offset=".071" style="stop-color:#9a9996;stop-opacity:1"/>
            <stop id="stop1072" offset=".929" style="stop-color:#9a9996;stop-opacity:1"/>
            <stop id="stop1074" offset=".964" style="stop-color:#c0bfbc;stop-opacity:1"/>
            <stop id="stop1076" offset="1" style="stop-color:#77767b;stop-opacity:1"/>
        </linearGradient>
        <linearGradient id="linearGradient1044">
            <stop id="stop1040" offset="0" style="stop-color:#1a5fb4;stop-opacity:1"/>
            <stop id="stop1042" offset="1" style="stop-color:#98c1f1;stop-opacity:0"/>
        </linearGradient>
        <linearGradient id="linearGradient1034">
            <stop id="stop1030" offset="0" style="stop-color:#98c1f1;stop-opacity:1"/>
            <stop id="stop1032-3" offset="1" style="stop-color:#2dc0af;stop-opacity:.13779527"/>
        </linearGradient>
        <linearGradient id="linearGradient6826">
            <stop id="stop6822" offset="0" style="stop-color:#50dbb5;stop-opacity:1"/>
            <stop id="stop6824" offset="1" style="stop-color:#4a86cf;stop-opacity:1"/>
        </linearGradient>
        <linearGradient xlink:href="#linearGradient1078" id="linearGradient1064" x1="88.596" x2="536.596" y1="-449.394" y2="-449.394" gradientTransform="translate(-528.272 807.01)scale(.76033)" gradientUnits="userSpaceOnUse"/>
        <linearGradient id="b" x1="85" x2="85" y1="107.162" y2="86" gradientTransform="translate(-23.094 -11.65)scale(1.14592)" gradientUnits="userSpaceOnUse">
            <stop id="stop1368" offset="0" stop-color="#eef4fc"/>
            <stop id="stop1370" offset="1" stop-color="#fff"/>
        </linearGradient>
        <linearGradient xlink:href="#linearGradient583" id="linearGradient585" x1="55.591" x2="55.591" y1="10.578" y2="100.97" gradientUnits="userSpaceOnUse"/>
        <linearGradient xlink:href="#linearGradient560" id="linearGradient562" x1="66.412" x2="51.865" y1="92.315" y2="38.026" gradientUnits="userSpaceOnUse"/>
        <linearGradient xlink:href="#linearGradient1" id="linearGradient2" x1="25.415" x2="119" y1="92.189" y2="92.189" gradientUnits="userSpaceOnUse"/>
        <linearGradient xlink:href="#linearGradient8" id="linearGradient9" x1="75.634" x2="75.634" y1="110.445" y2="59.141" gradientUnits="userSpaceOnUse"/>
        <radialGradient xlink:href="#linearGradient1069" id="radialGradient1103" cx="-244" cy="-76" r="32" fx="-244" fy="-76" gradientTransform="translate(-460.35 463.12)scale(.88333)" gradientUnits="userSpaceOnUse"/>
        <radialGradient xlink:href="#linearGradient1069" id="radialGradient1103-5" cx="-244" cy="-76" r="32" fx="-244" fy="-76" gradientTransform="translate(-460.35 463.12)scale(.88333)" gradientUnits="userSpaceOnUse"/>
        <radialGradient xlink:href="#linearGradient914" id="radialGradient916" cx="64" cy="296" r="46" fx="64" fy="296" gradientTransform="matrix(2.6087 0 0 1.84104 -102.957 -748.947)" gradientUnits="userSpaceOnUse"/>
        <radialGradient id="radial-gradient" cx="161.83" cy="68.91" r="95.38" gradientTransform="matrix(1 0 0 -.95 0 248.84)" gradientUnits="userSpaceOnUse">
            <stop id="stop381" offset=".72" stop-opacity="0"/>
            <stop id="stop383" offset=".95" stop-opacity=".53"/>
            <stop id="stop385" offset="1"/>
        </radialGradient>
        <radialGradient id="radial-gradient-2" cx="-340.29" cy="62.99" r="143.24" gradientTransform="matrix(.15 -.99 -.8 -.12 176.64 -125.4)" gradientUnits="userSpaceOnUse">
            <stop id="stop397" offset=".76" stop-opacity="0"/>
            <stop id="stop399" offset=".95" stop-opacity=".5"/>
            <stop id="stop401" offset="1"/>
        </radialGradient>
        <radialGradient id="radial-gradient-3" cx="113.37" cy="570.21" r="202.43" gradientTransform="matrix(-.04 1 2.13 .08 -1179.54 -106.69)" gradientUnits="userSpaceOnUse">
            <stop id="stop404" offset="0" stop-color="#35c1f1"/>
            <stop id="stop406" offset=".11" stop-color="#34c1ed"/>
            <stop id="stop408" offset=".23" stop-color="#2fc2df"/>
            <stop id="stop410" offset=".31" stop-color="#2bc3d2"/>
            <stop id="stop412" offset=".67" stop-color="#36c752"/>
        </radialGradient>
        <radialGradient id="radial-gradient-4" cx="376.52" cy="567.97" r="97.34" gradientTransform="matrix(.28 .96 .78 -.23 -303.76 -148.5)" gradientUnits="userSpaceOnUse">
            <stop id="stop415" offset="0" stop-color="#66eb6e"/>
            <stop id="stop417" offset="1" stop-color="#66eb6e" stop-opacity="0"/>
        </radialGradient>
        <radialGradient id="radial0" cx="131.915" cy="55.927" r="160" fx="131.915" fy="55.927" gradientTransform="matrix(.23203 -.54148 -.3688 -.02984 4.278 118.958)" gradientUnits="userSpaceOnUse">
            <stop id="stop1117" offset="0" style="stop-color:#ed333b;stop-opacity:1"/>
            <stop id="stop1119" offset="1" style="stop-color:#a347ba;stop-opacity:1"/>
        </radialGradient>
        <radialGradient id="radial1" cx="525.588" cy="638.592" r="192" fx="525.588" fy="638.592" gradientTransform="matrix(-.10766 -.22517 -.32775 .25834 373.88 30.205)" gradientUnits="userSpaceOnUse">
            <stop id="stop1122" offset="0" style="stop-color:#1c71d8;stop-opacity:1"/>
            <stop id="stop1124" offset="1" style="stop-color:#3584e4;stop-opacity:.00829876"/>
        </radialGradient>
        <radialGradient id="radial2" cx="131.915" cy="55.927" r="160" fx="131.915" fy="55.927" gradientTransform="matrix(.48516 -1.14858 -.77111 -.0633 -47.125 203.989)" gradientUnits="userSpaceOnUse">
            <stop id="stop1133" offset="0" style="stop-color:#ed333b;stop-opacity:1"/>
            <stop id="stop1135" offset="1" style="stop-color:#a347ba;stop-opacity:1"/>
        </radialGradient>
        <radialGradient id="radial3" cx="525.588" cy="638.592" r="192" fx="525.588" fy="638.592" gradientTransform="matrix(-.2251 -.47764 -.6853 .548 725.68 15.724)" gradientUnits="userSpaceOnUse">
            <stop id="stop1138" offset="0" style="stop-color:#1c71d8;stop-opacity:1"/>
            <stop id="stop1140" offset="1" style="stop-color:#3584e4;stop-opacity:.00829876"/>
        </radialGradient>
        <radialGradient id="radial4" cx="-172.561" cy="28.569" r="15.857" fx="-172.561" fy="28.569" gradientTransform="matrix(1.56071 0 0 1.4252 300.694 13.35)" gradientUnits="userSpaceOnUse">
            <stop id="stop1156" offset="0" style="stop-color:#fff;stop-opacity:.358268"/>
            <stop id="stop1158" offset="1" style="stop-color:#fff;stop-opacity:.0944882"/>
        </radialGradient>
        <radialGradient id="radial5" cx="40" cy="227" r="28" fx="40" fy="227" gradientTransform="matrix(.57555 0 0 1.5407 8.978 -280.781)" gradientUnits="userSpaceOnUse">
            <stop id="stop1175" offset="0" style="stop-color:#fff;stop-opacity:1"/>
            <stop id="stop1177" offset=".745" style="stop-color:#fafafa;stop-opacity:1"/>
            <stop id="stop1179" offset="1" style="stop-color:#dfdfdf;stop-opacity:1"/>
        </radialGradient>
        <radialGradient xlink:href="#linearGradient6826" id="radialGradient1018" cx="106.667" cy="-60.348" r="225" fx="106.667" fy="-60.348" gradientTransform="matrix(.65171 0 0 .98043 -457.434 336.334)" gradientUnits="userSpaceOnUse"/>
        <radialGradient xlink:href="#linearGradient1034" id="radialGradient1020" cx="276.588" cy="218.278" r="225" fx="276.588" fy="218.278" gradientTransform="matrix(1.18177 0 0 1.5932 -593.129 39.705)" gradientUnits="userSpaceOnUse"/>
        <radialGradient xlink:href="#linearGradient1044" id="radialGradient1038" cx="317.765" cy="86.748" r="225" fx="317.765" fy="86.748" gradientTransform="matrix(1.18177 0 0 .83857 -593.129 -446.422)" gradientUnits="userSpaceOnUse"/>
        <radialGradient id="a" cx="280.994" cy="488.848" r="224" fx="280.994" fy="488.848" gradientTransform="matrix(.347 0 0 .34223 -33.506 -129.482)" gradientUnits="userSpaceOnUse">
            <stop id="stop1361" offset="0" stop-color="#fdfacf"/>
            <stop id="stop1363" offset=".4" stop-color="#f9f06b" style="stop-color:#ffb74d;stop-opacity:1"/>
            <stop id="stop1365" offset="1" stop-color="#e5a50a" style="stop-color:#f29312;stop-opacity:1"/>
        </radialGradient>
        <style id="style374">
            .cls-1{fill:none}
        </style>
        <mask id="mask0">
            <g id="g1166" filter="url(#alpha)">
                <path id="rect1164" d="M0 0h128v128H0z" style="fill:#000;fill-opacity:.1;stroke:none"/>
            </g>
        </mask>
        <g id="surface382" clip-path="url(#clip3)">
            <path id="path1172" d="M40 59.957c-13.809 0-25 11.195-25 25 .012 1.04.086 1.82.223 2.848 0-11.848 12.199-21.836 24.777-21.848 12.598.016 24.777 10 24.777 21.902.141-1.043.215-1.847.223-2.902 0-13.805-11.191-25-25-25m0 0" style="stroke:none;fill-rule:nonzero;fill:#453637;fill-opacity:1"/>
        </g>
    </defs>
    <g id="layer2">
        <path id="path3565" fill="url(#a)" d="M105.115 65.473c0 26.54-21.518 48.057-48.057 48.057S9 92.013 9 65.473s21.518-48.058 48.058-48.058 48.057 21.518 48.057 48.058zm0 0" style="fill:#e68b00;fill-opacity:1;stroke-width:.00831007;stroke:#ececec;stroke-opacity:1"/>
        <path id="path1379" fill="url(#a)" d="M105.115 57.473c0 26.54-21.518 48.057-48.057 48.057S9 84.013 9 57.473 30.518 9.415 57.058 9.415s48.057 21.518 48.057 48.058m0 0" style="fill:url(#linearGradient585);fill-opacity:1;stroke-width:.00831007"/>
        <path id="path1381" fill="#dceafa" d="M85.405 65.793a23.99 23.99 0 0 0-21.783 14 18 18 0 0 0-8.212-2.002c-9.467.01-17.308 7.354-17.937 16.797h-.06c-4.917 0-9.14 2.963-10.99 7.2h-1.008v4.799c0 6.626 5.371 11.998 11.998 11.998h67.19c7.953 0 14.397-6.445 14.397-14.398v-4.8h-.848a14.39 14.39 0 0 0-8.792-8.774q.027-.411.042-.824c0-13.254-10.742-23.996-23.997-23.996m0 0" style="fill:url(#linearGradient2);fill-opacity:1;stroke-width:.00995859"/>
        <path id="path491" fill="url(#a)" d="M102.754 57.473c0 25.236-20.46 45.697-45.696 45.697-25.237 0-45.697-20.461-45.697-45.697s20.46-45.697 45.697-45.697c25.236 0 45.696 20.46 45.696 45.697m0 0" style="fill:url(#linearGradient562);fill-opacity:1;stroke-width:.00790188"/>
        <path id="path1383" fill="url(#b)" d="M85.405 58.994a23.99 23.99 0 0 0-21.783 14 18 18 0 0 0-8.212-2.002c-9.467.01-17.308 7.353-17.937 16.797h-.06c-6.627 0-11.998 5.372-11.998 11.998 0 6.627 5.371 11.998 11.998 11.998h67.19c7.953 0 14.397-6.444 14.397-14.397a14.39 14.39 0 0 0-9.64-13.574q.027-.412.042-.824c0-13.254-10.742-23.996-23.997-23.996m0 0" style="fill:url(#linearGradient9);fill-opacity:1;stroke-width:.00995859"/>
        <path id="path8" d="M85.404 58.994a23.99 23.99 0 0 0-21.783 13.998 18 18 0 0 0-8.21-2c-9.467.01-17.31 7.353-17.938 16.797h-.06c-6.627 0-11.999 5.372-11.999 11.998 0 6.627 5.372 11.998 11.998 11.998h67.19c7.953 0 14.398-6.443 14.398-14.396a14.39 14.39 0 0 0-9.64-13.575q.027-.412.042-.824c0-13.253-10.742-23.995-23.996-23.996zm-.765 1.533c12.484 0 22.601 10.118 22.601 22.602q-.014.388-.039.777a13.56 13.56 0 0 1 9.08 12.785c0 7.492-6.069 13.56-13.56 13.56H39.436c-6.242 0-11.301-5.058-11.301-11.3 0-6.241 5.06-11.3 11.3-11.3h.057c.592-8.896 7.978-15.814 16.895-15.823a17 17 0 0 1 7.734 1.885A22.6 22.6 0 0 1 84.64 60.527" style="fill:#f9f9f9;fill-opacity:1;stroke-width:.00995859"/>
    </g>
</svg>
