<svg xmlns="http://www.w3.org/2000/svg" xmlns:xlink="http://www.w3.org/1999/xlink" xml:space="preserve" width="128" height="128" viewBox="0 0 128 128">
    <defs>
        <linearGradient id="b">
            <stop offset="0" style="stop-color:#ffe1cd;stop-opacity:1"/>
            <stop offset="1" style="stop-color:#fff6f0;stop-opacity:1"/>
        </linearGradient>
        <linearGradient id="a">
            <stop offset="0" style="stop-color:#fd8638;stop-opacity:1"/>
            <stop offset=".05" style="stop-color:#fda56a;stop-opacity:1"/>
            <stop offset=".1" style="stop-color:#fd8638;stop-opacity:1"/>
            <stop offset=".9" style="stop-color:#fd8638;stop-opacity:1"/>
            <stop offset=".95" style="stop-color:#fda56a;stop-opacity:1"/>
            <stop offset="1" style="stop-color:#fd8638;stop-opacity:1"/>
        </linearGradient>
        <linearGradient xlink:href="#a" id="d" x1="11.5" x2="116.5" y1="120.5" y2="120.5" gradientTransform="matrix(1 0 0 .94017 0 5.71)" gradientUnits="userSpaceOnUse"/>
        <linearGradient xlink:href="#b" id="e" x1="64" x2="64" y1="112.5" y2="7.5" gradientTransform="matrix(1 0 0 .94017 0 1.949)" gradientUnits="userSpaceOnUse"/>
        <filter id="c" width="1.111" height="1.136" x="-.055" y="-.068" style="color-interpolation-filters:sRGB">
            <feGaussianBlur result="blur" stdDeviation="2 2"/>
        </filter>
        <filter id="f" width="1.43" height="1.746" x="-.215" y="-.237" style="color-interpolation-filters:sRGB">
            <feFlood flood-color="#000" flood-opacity=".333" result="flood"/>
            <feComposite in="SourceGraphic" in2="flood" operator="in" result="composite1"/>
            <feGaussianBlur in="composite1" result="blur" stdDeviation="2.1"/>
            <feOffset dy="5.792" result="offset"/>
            <feComposite in="SourceGraphic" in2="offset" result="composite2"/>
        </filter>
        <filter id="g" width="1.03" height="1.037" x="-.014" y="-.017" style="color-interpolation-filters:sRGB">
            <feFlood flood-color="#fff" flood-opacity="1" result="flood"/>
            <feComposite in="flood" in2="SourceGraphic" operator="out" result="composite1"/>
            <feGaussianBlur in="composite1" result="blur" stdDeviation=".5"/>
            <feOffset dx=".2" dy=".2" result="offset"/>
            <feComposite in="offset" in2="SourceGraphic" operator="in" result="composite2"/>
        </filter>
    </defs>
    <path d="M47.205 70.228c.02 1.132.381 3.33.923 5.048 1.137 3.635 3.067 6.998 5.752 9.962 2.756 3.046 6.15 5.492 10.069 7.23 4.12 1.824 8.584 2.754 13.22 2.746 4.63-.006 9.093-.954 13.213-2.792 3.92-1.754 7.31-4.212 10.06-7.26 2.684-2.975 4.611-6.344 5.752-9.98.573-1.836.936-3.7 1.081-5.57a25.4 25.4 0 0 0-.179-5.533 25.7 25.7 0 0 0-3.668-10.039c-1.751-2.824-4.009-5.297-6.692-7.378l.006-.005-27.084-20.796c-.025-.018-.045-.038-.07-.055-1.778-1.364-4.766-1.36-6.72.008-1.976 1.382-2.202 3.668-.444 5.11l-.007.008 11.296 9.186-34.43.037h-.046c-2.846.003-5.582 1.87-6.123 4.23-.557 2.403 1.376 4.398 4.335 4.408l-.005.01 17.452-.033-31.141 23.903c-.04.03-.083.06-.12.09-2.937 2.249-3.887 5.989-2.036 8.356 1.877 2.407 5.87 2.412 8.838.014l16.996-13.91s-.247 1.878-.228 3.005m43.674 6.288c-3.502 3.568-8.405 5.591-13.71 5.602-5.312.01-10.215-1.996-13.717-5.557-1.711-1.736-2.968-3.733-3.744-5.86a15.2 15.2 0 0 1-.859-6.548 15.5 15.5 0 0 1 1.876-6.165c1.022-1.856 2.429-3.534 4.166-4.953 3.404-2.774 7.738-4.275 12.27-4.281C81.7 48.747 86.03 50.235 89.438 53c1.734 1.413 3.14 3.085 4.16 4.938a15.5 15.5 0 0 1 1.885 6.161 15.25 15.25 0 0 1-.863 6.544c-.777 2.133-2.03 4.13-3.74 5.873" style="clip-rule:evenodd;fill:#ea7600;fill-rule:nonzero;stroke-width:1.52923;stroke-linejoin:round;stroke-miterlimit:2;filter:url(#c)"/>
    <rect width="105" height="98.718" x="11.5" y="20.282" rx="12" ry="11.282" style="fill:url(#d);fill-opacity:1;stroke-width:.969624"/>
    <rect width="105" height="98.718" x="11.5" y="9" rx="12" ry="11.282" style="fill:url(#e);fill-opacity:1;stroke-width:.969624"/>
    <rect width="100.032" height="94.047" x="13.984" y="11.335" rx="11.914" ry="11.201" style="fill:#ffd6bc;fill-opacity:1;stroke-width:.923748"/>
    <path d="M52.755 62.966c.316-5.636 3.076-10.6 7.24-14.12 4.083-3.458 9.578-5.57 15.575-5.57 5.99 0 11.486 2.112 15.572 5.57 4.16 3.52 6.92 8.484 7.24 14.114.315 5.79-2.012 11.17-6.095 15.158-4.164 4.056-10.086 6.601-16.717 6.601s-12.565-2.545-16.726-6.601c-4.086-3.988-6.408-9.367-6.089-15.152" style="clip-rule:evenodd;fill:#fff;fill-rule:nonzero;stroke-width:2.98032;stroke-linejoin:round;stroke-miterlimit:2;filter:url(#f)"/>
    <path d="M63.847 63.475c.162-2.891 1.578-5.439 3.714-7.245 2.095-1.774 4.915-2.858 7.992-2.858 3.074 0 5.894 1.084 7.99 2.858 2.135 1.806 3.551 4.354 3.715 7.242.162 2.972-1.033 5.732-3.128 7.778-2.136 2.081-5.175 3.387-8.577 3.387s-6.447-1.306-8.582-3.387c-2.097-2.046-3.288-4.806-3.124-7.775" style="clip-rule:evenodd;fill:#306daa;fill-rule:nonzero;stroke-width:1.52923;stroke-linejoin:round;stroke-miterlimit:2;filter:url(#f);fill-opacity:1"/>
    <path d="M45.205 69.332c.02 1.132.381 3.33.922 5.048 1.138 3.635 3.068 6.998 5.753 9.962 2.756 3.046 6.15 5.492 10.069 7.23 4.12 1.824 8.583 2.754 13.22 2.746 4.63-.006 9.093-.954 13.213-2.792 3.92-1.754 7.31-4.212 10.06-7.26 2.684-2.975 4.611-6.344 5.752-9.979a25.2 25.2 0 0 0 1.081-5.571 25.4 25.4 0 0 0-.179-5.533 25.7 25.7 0 0 0-3.668-10.039c-1.751-2.824-4.009-5.297-6.692-7.378l.006-.005-27.084-20.796c-.025-.018-.045-.038-.07-.055-1.778-1.364-4.766-1.36-6.72.008-1.976 1.382-2.202 3.668-.444 5.11l-.007.008 11.296 9.186-34.43.037h-.046c-2.846.003-5.582 1.87-6.123 4.23-.557 2.403 1.376 4.398 4.335 4.408l-.005.011 17.452-.034-31.141 23.903c-.04.03-.083.06-.12.09-2.937 2.249-3.887 5.989-2.037 8.356 1.878 2.407 5.871 2.412 8.84.014l16.995-13.91s-.247 1.878-.228 3.005M88.88 75.62c-3.502 3.568-8.405 5.591-13.71 5.602-5.312.01-10.215-1.996-13.717-5.557-1.711-1.736-2.968-3.733-3.744-5.86a15.2 15.2 0 0 1-.86-6.548 15.5 15.5 0 0 1 1.877-6.164c1.022-1.857 2.429-3.534 4.166-4.954 3.404-2.774 7.738-4.275 12.27-4.281 4.538-.006 8.868 1.481 12.276 4.246 1.734 1.413 3.14 3.085 4.16 4.938a15.5 15.5 0 0 1 1.885 6.161 15.25 15.25 0 0 1-.863 6.544c-.777 2.133-2.03 4.13-3.74 5.873" style="clip-rule:evenodd;fill:#f98107;fill-rule:nonzero;stroke-width:1.52923;stroke-linejoin:round;stroke-miterlimit:2;filter:url(#f);fill-opacity:1"/>
    <path d="M45.205 69.332c.02 1.132.381 3.33.922 5.048 1.138 3.635 3.068 6.998 5.753 9.962 2.756 3.046 6.15 5.492 10.069 7.23 4.12 1.824 8.583 2.754 13.22 2.746 4.63-.006 9.093-.954 13.213-2.792 3.92-1.754 7.31-4.212 10.06-7.26 2.684-2.975 4.611-6.344 5.752-9.979a25.2 25.2 0 0 0 1.081-5.571 25.4 25.4 0 0 0-.179-5.533 25.7 25.7 0 0 0-3.668-10.039c-1.751-2.824-4.009-5.297-6.692-7.378l.006-.005-27.084-20.796c-.025-.018-.045-.038-.07-.055-1.778-1.364-4.766-1.36-6.72.008-1.976 1.382-2.202 3.668-.444 5.11l-.007.008 11.296 9.186-34.43.037h-.046c-2.846.003-5.582 1.87-6.123 4.23-.557 2.403 1.376 4.398 4.335 4.408l-.005.011 17.452-.034-31.141 23.903c-.04.03-.083.06-.12.09-2.937 2.249-3.887 5.989-2.037 8.356 1.878 2.407 5.871 2.412 8.84.014l16.995-13.91s-.247 1.878-.228 3.005M88.88 75.62c-3.502 3.568-8.405 5.591-13.71 5.602-5.312.01-10.215-1.996-13.717-5.557-1.711-1.736-2.968-3.733-3.744-5.86a15.2 15.2 0 0 1-.86-6.548 15.5 15.5 0 0 1 1.877-6.164c1.022-1.857 2.429-3.534 4.166-4.954 3.404-2.774 7.738-4.275 12.27-4.281 4.538-.006 8.868 1.481 12.276 4.246 1.734 1.413 3.14 3.085 4.16 4.938a15.5 15.5 0 0 1 1.885 6.161 15.25 15.25 0 0 1-.863 6.544c-.777 2.133-2.03 4.13-3.74 5.873" style="clip-rule:evenodd;fill:#f98107;fill-rule:nonzero;stroke-width:1.52923;stroke-linejoin:round;stroke-miterlimit:2;fill-opacity:1;filter:url(#g)"/>
</svg>
