<svg xmlns="http://www.w3.org/2000/svg" xmlns:xlink="http://www.w3.org/1999/xlink" width="128" height="128" viewBox="0 0 128 128">
    <defs>
        <linearGradient id="b">
            <stop offset="0" style="stop-color:#f6b4b2;stop-opacity:1"/>
            <stop offset="1" style="stop-color:#e54f4b;stop-opacity:1"/>
        </linearGradient>
        <linearGradient id="a">
            <stop offset="0" style="stop-color:#b71c1c;stop-opacity:1"/>
            <stop offset=".3" style="stop-color:#b71c1c;stop-opacity:1"/>
            <stop offset=".5" style="stop-color:#d32f2f;stop-opacity:1"/>
            <stop offset=".7" style="stop-color:#b71c1c;stop-opacity:1"/>
            <stop offset="1" style="stop-color:#b71c1c;stop-opacity:1"/>
        </linearGradient>
        <linearGradient xlink:href="#a" id="c" x1="9" x2="119" y1="70" y2="70" gradientTransform="translate(0 -2)" gradientUnits="userSpaceOnUse"/>
        <linearGradient xlink:href="#b" id="d" x1="64" x2="64" y1="5" y2="115" gradientUnits="userSpaceOnUse"/>
    </defs>
    <path d="M64 5A55 55 0 0 0 9 60v8a55 55 0 0 0 55 55 55 55 0 0 0 55-55v-8A55 55 0 0 0 64 5" style="fill:url(#c);fill-opacity:1"/>
    <circle cx="64" cy="60" r="55" style="fill:url(#d);fill-opacity:1"/>
    <circle cx="64" cy="60" r="52.54" style="fill:#e53935;fill-opacity:1;stroke-width:.955275"/>
    <path d="M68.564 26.723c-9.13-.115-19.444 5.344-24.453 12.754-3.117 4.12-4.349 9.125-4.15 14.062-.014.419-.03.837-.023 1.256-.016.669.005 1.336.042 2.004a25 25 0 0 0-.02 2.22c-.013.42-.03.838-.023 1.256-.138 5.852 1.823 11.734 5.145 16.09-5.105 2.86-11.602 5.722-16.885 8.582v8.328c.104.082 3.433-1.116 7.623-2.748l.207-.074v-.006c5.929-2.313 13.53-5.481 16.625-7.351 25.288 14.128 51.611 3.147 62.23-2.535A55 55 0 0 0 119 60a55 55 0 0 0-.275-5.467c-6.102 6.295-28.559 23.477-51.42 19.77 13.803-9.739 18.035-18.004 17.802-24.274.02-.513.003-1.013-.033-1.502q.07-1.14-.033-2.203a14 14 0 0 0 .066-1.775c.02-.514.003-1.011-.033-1.5.095-1.516-.047-2.935-.4-4.235-2.62-8.54-9.007-12.002-16.11-12.091m-1.603 12.752c5.607-.116 9.469 2.367 11.465 5.74.168.322.31.647.441.974-3.384 10.23-17.403 20.628-24.763 24.082-5.154-3.84-8.006-8.343-9.067-12.902 2.062-9.373 10.91-17.307 21.924-17.894" style="fill:#333;fill-opacity:.3;stroke:none;stroke-width:.056708;stroke-miterlimit:4;stroke-dasharray:none;stroke-opacity:1"/>
    <path d="M68.564 26.723c-9.13-.115-19.444 5.344-24.453 12.754-3.117 4.12-4.349 9.125-4.15 14.062-.014.419-.03.837-.023 1.256-.18 7.608 3.172 15.29 8.474 19.572-5.302 3.527-13.7 7.053-20.215 10.58v2.848c.104.082 3.433-1.115 7.623-2.746l.207-.076v-.006c5.929-2.313 13.53-5.48 16.625-7.35 27.331 15.27 55.879 1.214 64.48-3.783A55 55 0 0 0 119 60a55 55 0 0 0-.275-5.463c-6.665 6.868-32.689 26.624-57.498 18.285C79.908 61.337 85.37 51.66 85.107 44.55c.02-.514.003-1.011-.033-1.5.095-1.516-.047-2.935-.4-4.235-2.62-8.54-9.007-12.002-16.11-12.091m-1.603 7.273c5.607-.116 9.469 2.366 11.465 5.738a10.4 10.4 0 0 1 1.11 3.569C78.198 54.393 62.158 66.49 54.103 70.27c-6.169-4.595-9.05-10.14-9.497-15.595.75-10.54 10.261-20.035 22.354-20.68" style="fill:#ccc;fill-opacity:1;stroke:none;stroke-width:.056708;stroke-miterlimit:4;stroke-dasharray:none;stroke-opacity:1"/>
    <path d="M68.564 26.723c-9.13-.115-19.444 5.346-24.453 12.756-8.16 10.785-3.48 27.637 6.293 33.439-4.957 4.01-14.801 8.02-22.207 12.03.252.197 19.121-6.956 24.453-10.178 28.114 15.707 57.541.372 65.192-4.2A55 55 0 0 0 119 60a55 55 0 0 0-.275-5.463c-6.915 7.13-34.737 28.196-60.39 17.192 23.925-13.924 28.403-25.317 26.34-32.915-2.62-8.54-9.007-12.002-16.11-12.091m-1.603 4.425c5.607-.116 9.469 2.366 11.465 5.739C84.903 49.26 63.759 65.74 54.104 70.27 34.794 55.885 47.6 32.181 66.96 31.148" style="fill:#fff;fill-opacity:1;stroke:none;stroke-width:.056708;stroke-miterlimit:4;stroke-dasharray:none;stroke-opacity:1"/>
</svg>
