<svg xmlns="http://www.w3.org/2000/svg" xmlns:xlink="http://www.w3.org/1999/xlink" width="128" height="128" viewBox="0 0 128 128">
    <defs>
        <linearGradient id="c">
            <stop offset="0" style="stop-color:#fff;stop-opacity:1"/>
            <stop offset="1" style="stop-color:#e6e6e6;stop-opacity:1"/>
        </linearGradient>
        <linearGradient id="b">
            <stop offset="0" style="stop-color:#87cb6f;stop-opacity:1"/>
            <stop offset="1" style="stop-color:#8dd374;stop-opacity:0"/>
        </linearGradient>
        <linearGradient id="a">
            <stop offset="0" style="stop-color:#999;stop-opacity:1"/>
            <stop offset=".05" style="stop-color:#b3b3b3;stop-opacity:1"/>
            <stop offset=".1" style="stop-color:#999;stop-opacity:1"/>
            <stop offset=".9" style="stop-color:#999;stop-opacity:1"/>
            <stop offset=".95" style="stop-color:#b3b3b3;stop-opacity:1"/>
            <stop offset="1" style="stop-color:#999;stop-opacity:1"/>
        </linearGradient>
        <linearGradient xlink:href="#a" id="d" x1="11.5" x2="116.5" y1="120.5" y2="120.5" gradientTransform="matrix(.80737 0 0 1 12.328 0)" gradientUnits="userSpaceOnUse"/>
        <linearGradient xlink:href="#b" id="f" x1="64" x2="64" y1="39.555" y2="15.5" gradientTransform="matrix(.9764 0 0 1 1.51 -4)" gradientUnits="userSpaceOnUse"/>
        <linearGradient xlink:href="#c" id="e" x1="64" x2="64" y1="7.5" y2="112.5" gradientUnits="userSpaceOnUse"/>
    </defs>
    <rect width="84.774" height="105" x="21.613" y="15.5" rx="7.811" ry="8" style="fill:url(#d);fill-opacity:1;stroke-width:.898537"/>
    <rect width="84.773" height="105" x="21.613" y="7.5" rx="7.811" ry="8" style="fill:url(#e);fill-opacity:1;stroke-width:.898537"/>
    <rect width="80.096" height="99.207" x="23.952" y="10.397" rx="7.38" ry="7.559" style="fill:#e6e6e6;fill-opacity:1;stroke-width:.84896"/>
    <rect width="67.593" height="14.945" x="30.204" y="20.61" rx="2.869" ry="3.448" style="fill:#427455;fill-opacity:1;stroke:none;stroke-width:.522783;stroke-miterlimit:4;stroke-dasharray:none;stroke-opacity:1"/>
    <rect width="67.593" height="13.531" x="30.204" y="22.024" rx="2.869" ry="3.448" style="fill:url(#f);fill-opacity:1;stroke-width:4.08517"/>
    <rect width="16.69" height="10.597" x="34.083" y="52.487" rx="1.688" ry="2.112" style="opacity:.3;fill:#999;stroke-width:1.79645"/>
    <rect width="16.69" height="10.597" x="34.083" y="50.254" rx="1.688" ry="2.112" style="fill:gray;stroke-width:1.79645"/>
    <rect width="16.69" height="10.597" x="34.083" y="48.417" rx="1.688" ry="2.112" style="fill:#b3b3b3;stroke-width:1.79645"/>
    <rect width="16.69" height="10.597" x="34.083" y="92.986" rx="1.688" ry="2.112" style="opacity:.3;fill:#4d4d4d;stroke-width:1.79645"/>
    <rect width="16.69" height="10.597" x="34.083" y="90.753" rx="1.688" ry="2.112" style="fill:#4d4d4d;stroke-width:1.79645"/>
    <rect width="16.69" height="10.597" x="34.083" y="88.916" rx="1.688" ry="2.112" style="fill:gray;stroke-width:1.79645"/>
    <g style="opacity:.3;stroke-width:1.11111" transform="matrix(.25837 0 0 .32342 -3.545 -13.446)">
        <rect width="90.264" height="45.783" x="111.246" y="248.042" rx="9.127" ry="9.127" style="fill:#4d4d4d;stroke-width:8.68377" transform="translate(66.02 88.964)scale(.71565)"/>
    </g>
    <g style="fill:#4d4d4d;stroke-width:1.11111" transform="matrix(.25837 0 0 .32342 -3.545 -15.679)">
        <rect width="90.264" height="45.783" x="111.246" y="248.042" rx="9.127" ry="9.127" style="fill:#4d4d4d;stroke-width:8.68377" transform="translate(66.02 88.964)scale(.71565)"/>
    </g>
    <rect width="16.69" height="10.597" x="34.083" y="68.667" rx="1.688" ry="2.112" style="fill:gray;stroke-width:1.79645"/>
    <rect width="16.69" height="10.597" x="55.655" y="52.487" rx="1.688" ry="2.112" style="opacity:.3;fill:#999;stroke-width:1.79645"/>
    <rect width="16.69" height="10.597" x="55.655" y="50.254" rx="1.688" ry="2.112" style="fill:gray;stroke-width:1.79645"/>
    <rect width="16.69" height="10.597" x="55.655" y="48.417" rx="1.688" ry="2.112" style="fill:#b3b3b3;stroke-width:1.79645"/>
    <rect width="16.69" height="10.597" x="55.655" y="92.986" rx="1.688" ry="2.112" style="opacity:.3;fill:#4d4d4d;stroke-width:1.79645"/>
    <rect width="16.69" height="10.597" x="55.655" y="90.753" rx="1.688" ry="2.112" style="fill:#4d4d4d;stroke-width:1.79645"/>
    <rect width="16.69" height="10.597" x="55.655" y="88.916" rx="1.688" ry="2.112" style="fill:gray;stroke-width:1.79645"/>
    <g style="opacity:.3;stroke-width:1.11111" transform="matrix(.25837 0 0 .32342 -6.002 -13.446)">
        <rect width="90.264" height="45.783" x="241.198" y="248.042" rx="9.127" ry="9.127" style="fill:#4d4d4d;stroke-width:8.68377" transform="translate(66.02 88.964)scale(.71565)"/>
    </g>
    <g style="fill:#4d4d4d;stroke-width:1.11111" transform="matrix(.25837 0 0 .32342 -6.002 -15.679)">
        <rect width="90.264" height="45.783" x="241.198" y="248.042" rx="9.127" ry="9.127" style="fill:#4d4d4d;stroke-width:8.68377" transform="translate(66.02 88.964)scale(.71565)"/>
    </g>
    <rect width="16.69" height="10.597" x="55.655" y="68.667" rx="1.688" ry="2.112" style="fill:gray;stroke-width:1.79645"/>
    <rect width="16.69" height="10.597" x="77.227" y="52.487" rx="1.688" ry="2.112" style="opacity:.3;fill:#999;stroke-width:1.79645"/>
    <rect width="16.69" height="10.597" x="77.227" y="50.254" rx="1.688" ry="2.112" style="fill:gray;stroke-width:1.79645"/>
    <rect width="16.69" height="10.597" x="77.227" y="48.417" rx="1.688" ry="2.112" style="fill:#b3b3b3;stroke-width:1.79645"/>
    <rect width="16.69" height="30.791" x="77.227" y="72.792" rx="2.528" ry="3.208" style="opacity:.3;fill:#4d4d4d;fill-opacity:1;stroke-width:3.06223"/>
    <rect width="16.69" height="30.791" x="77.227" y="70.529" rx="2.528" ry="3.208" style="fill:#bb4b00;fill-opacity:1;stroke-width:3.06223"/>
    <rect width="16.69" height="30.791" x="77.227" y="68.667" rx="2.528" ry="3.208" style="fill:#ff7f2a;stroke-width:3.06222"/>
    <path d="M79.756 68.666c-1.4 0-2.53 1.432-2.53 3.209v2c0-1.777 1.13-3.209 2.53-3.209h11.633c1.4 0 2.529 1.432 2.529 3.209v-2c0-1.777-1.129-3.209-2.53-3.209z" style="fill:#fca;stroke-width:3.06222"/>
    <path d="M57.342 68.666c-.935 0-1.688.943-1.688 2.113v2c0-1.17.753-2.113 1.688-2.113h13.316c.935 0 1.688.943 1.688 2.113v-2c0-1.17-.753-2.113-1.688-2.113zm0 20.25c-.935 0-1.688.943-1.688 2.113v2c0-1.17.753-2.113 1.688-2.113h13.316c.935 0 1.688.943 1.688 2.113v-2c0-1.17-.753-2.113-1.688-2.113zM35.77 68.666c-.935 0-1.688.943-1.688 2.113v2c0-1.17.753-2.113 1.688-2.113h13.316c.935 0 1.687.943 1.687 2.113v-2c0-1.17-.752-2.113-1.687-2.113zm0 20.25c-.935 0-1.688.943-1.688 2.113v2c0-1.17.753-2.113 1.688-2.113h13.316c.935 0 1.687.943 1.687 2.113v-2c0-1.17-.752-2.113-1.687-2.113z" style="fill:#b3b3b3;stroke-width:1.79645;fill-opacity:1"/>
    <path d="M57.342 48.418c-.935 0-1.688.941-1.688 2.111v2c0-1.17.753-2.111 1.688-2.111h13.316c.935 0 1.688.941 1.688 2.111v-2c0-1.17-.753-2.111-1.688-2.111z" style="fill:#f9f9f9;stroke-width:1.79645"/>
    <path d="M78.914 48.418c-.935 0-1.687.941-1.687 2.111v2c0-1.17.752-2.111 1.687-2.111H92.23c.935 0 1.688.941 1.688 2.111v-2c0-1.17-.753-2.111-1.688-2.111zm-43.144 0c-.935 0-1.688.941-1.688 2.111v2c0-1.17.753-2.111 1.688-2.111h13.316c.935 0 1.687.941 1.687 2.111v-2c0-1.17-.752-2.111-1.687-2.111z" style="fill:#f9f9f9;stroke-width:1.79645;fill-opacity:1"/>
    <path d="M30.203 32.107v2c0 1.91 1.28 3.448 2.87 3.448h61.855c1.589 0 2.869-1.537 2.869-3.448v-2c0 1.91-1.28 3.448-2.87 3.448H33.073c-1.589 0-2.869-1.537-2.869-3.448" style="fill:#fff;fill-opacity:1;stroke-width:4.08517"/>
</svg>
