<svg xmlns="http://www.w3.org/2000/svg" xmlns:xlink="http://www.w3.org/1999/xlink" width="128" height="128" viewBox="0 0 128 128">
    <defs>
        <linearGradient id="a">
            <stop offset="0" style="stop-color:#dd3e3e;stop-opacity:1"/>
            <stop offset=".05" style="stop-color:#ec5656;stop-opacity:1"/>
            <stop offset=".1" style="stop-color:#dd3e3e;stop-opacity:1"/>
            <stop offset=".9" style="stop-color:#dd3e3e;stop-opacity:1"/>
            <stop offset=".95" style="stop-color:#ec5656;stop-opacity:1"/>
            <stop offset="1" style="stop-color:#dd3e3e;stop-opacity:1"/>
        </linearGradient>
        <linearGradient xlink:href="#a" id="b" x1="11.5" x2="116.5" y1="120.5" y2="120.5" gradientTransform="matrix(.82689 0 0 1 11.08 -1)" gradientUnits="userSpaceOnUse"/>
    </defs>
    <path d="M20.588 65.21v46.29c0 4.432 3.568 8 8 8h70.824c4.432 0 8-3.568 8-8V65.21Z" style="fill:url(#b);fill-opacity:1;stroke-width:.909334"/>
    <path d="M29.115 8.5a16 16 0 0 0-1.054.018 7.98 7.98 0 0 0-6.7 4.537l-.047.209a8 8 0 0 0-.709 2.77 16 16 0 0 0-.007.415 16 16 0 0 0-.01 3.612V102a16 16 0 0 0 .01 3.61 16 16 0 0 0 .007.416c.064.988.322 1.916.71 2.772l.046.207a7.98 7.98 0 0 0 6.7 4.539 16 16 0 0 0 1.054.016h40.44a4 4 0 0 0 .304-.061h29.026a16 16 0 0 0 1.054-.018 7.98 7.98 0 0 0 7.11-5.584 16.1 16.1 0 0 0 .363-4.832v-84.07a16.1 16.1 0 0 0-.363-4.832 7.98 7.98 0 0 0-7.11-5.586 16 16 0 0 0-1.054-.017H69.857a4 4 0 0 0-.302-.061z" style="fill:#ed6363;fill-opacity:1;stroke-width:.909334"/>
    <path d="M35.588 18.254a13 13 0 0 0-.86.014 6.5 6.5 0 0 0-5.457 3.695 13 13 0 0 0-.628 4.81 13 13 0 0 0 0 2.893v69.148a13 13 0 0 0 .013.86 6.5 6.5 0 0 0 4.242 5.683 13.1 13.1 0 0 0 4.567.4h54.937a13 13 0 0 0 .86-.013 6.5 6.5 0 0 0 5.789-4.549 13.1 13.1 0 0 0 .297-3.933v-.022a13 13 0 0 0 0-1.978V49.355a4.02 4.02 0 0 0-1.178-2.843L70.89 19.236a3.36 3.36 0 0 0-2.372-.982zm45.463 2.877L96.52 36.6a1.657 1.657 157.5 0 0 2.829-1.171v-2.63a79 79 90 0 1 0-5.978V26.8l-.297-3.934a6.99 6.99 16.922 0 0-6.649-4.562h-10.18a1.657 1.657 112.5 0 0-1.17 2.828" style="fill:#f9f9f9;fill-opacity:1;stroke-width:.7405"/>
    <g stroke="none" aria-label="√x" style="font-weight:700;font-size:43.2068px;font-family:&quot;Liberation Mono&quot;;-inkscape-font-specification:&quot;Liberation Mono Bold&quot;;fill:#b3b3b3;stroke:#999;stroke-width:0;stroke-linejoin:round">
        <g style="fill:#b3b3b3">
            <path d="M56.273 79.383h-4.515l-4.303-12.954h-1.477q-.401 0-.76-.105-.358-.127-.633-.38-.274-.274-.443-.675-.168-.422-.168-1.013V62.57h6.645q.57 0 .97.295.402.274.528.696l1.308 5.844q.274.886.443 1.793.169.908.274 1.836.127-.717.275-1.435.168-.738.4-1.519l6.477-24.41q.148-.421.507-.695.38-.296.928-.296h3.544z" style="color:#000;-inkscape-font-specification:&quot;Carlito Bold&quot;;fill:#b3b3b3;stroke:none;stroke-linejoin:miter;-inkscape-stroke:none" transform="translate(0 6)"/>
            <path d="M56.273 79.383h-4.515l-4.303-12.954h-1.477q-.4 0-.76-.105a1.8 1.8 0 0 1-.633-.38 2.1 2.1 0 0 1-.443-.675q-.168-.422-.168-1.013V62.57h6.645q.57 0 .97.295.402.274.528.696l1.308 5.844q.274.886.443 1.793.17.907.274 1.836.127-.717.275-1.435.169-.738.4-1.519l6.477-24.41a1.47 1.47 0 0 1 1.435-.99h3.544z" style="color:#000;-inkscape-font-specification:&quot;Carlito Bold&quot;;fill:#b3b3b3;stroke:none;stroke-linejoin:miter;-inkscape-stroke:none" transform="translate(0 6)"/>
        </g>
        <g style="fill:#b3b3b3">
            <path d="M70.872 68.581 65.05 58.434h5.147q.57 0 .823.168.274.148.485.507l3.313 6.413q.105-.253.232-.506.126-.274.295-.549l2.278-5.274q.465-.76 1.182-.76h4.916l-5.844 9.874 6.097 11.076h-5.148q-.57 0-.928-.295-.359-.317-.57-.675l-3.333-6.646q-.085.232-.19.443-.084.211-.19.38l-2.637 5.823q-.232.358-.57.675-.316.295-.844.295h-4.768z" style="color:#000;-inkscape-font-specification:&quot;Carlito Bold&quot;;fill:#b3b3b3;stroke:none;stroke-linejoin:miter;-inkscape-stroke:none" transform="translate(0 6)"/>
            <path d="M70.872 68.581 65.05 58.434h5.147q.57 0 .823.168.275.148.485.507l3.313 6.413q.105-.253.232-.506.126-.275.295-.549l2.278-5.274q.465-.76 1.182-.76h4.916l-5.844 9.874 6.097 11.076h-5.148q-.57 0-.928-.295a2.8 2.8 0 0 1-.57-.675l-3.333-6.646q-.084.232-.19.443a2.4 2.4 0 0 1-.19.38l-2.637 5.823a3.6 3.6 0 0 1-.57.675q-.316.295-.844.295h-4.768z" style="color:#000;-inkscape-font-specification:&quot;Carlito Bold&quot;;fill:#b3b3b3;stroke:none;stroke-linejoin:miter;-inkscape-stroke:none" transform="translate(0 6)"/>
        </g>
    </g>
    <path d="M29.115 8.5a16 16 0 0 0-1.054.018 7.98 7.98 0 0 0-6.7 4.537l-.047.209a8 8 0 0 0-.709 2.77 16 16 0 0 0-.007.415 16 16 0 0 0-.01 3.612v2a16 16 0 0 1 .01-3.612 16 16 0 0 1 .007-.416 8 8 0 0 1 .71-2.77l.046-.208a7.98 7.98 0 0 1 6.7-4.537 16 16 0 0 1 1.054-.018h40.44a4 4 0 0 1 .302.06h29.028a16 16 0 0 1 1.054.018 7.98 7.98 0 0 1 7.11 5.586 16 16 0 0 1 .379 2.617 16.1 16.1 0 0 0-.38-4.617 7.98 7.98 0 0 0-7.109-5.586 16 16 0 0 0-1.054-.017H69.857a4 4 0 0 0-.302-.061zm78.297 94.566v2l.016.211a16 16 0 0 0-.016-2.21" style="fill:#fff;fill-opacity:.39700949;stroke-width:.909334"/>
</svg>
