<svg xmlns="http://www.w3.org/2000/svg" xmlns:xlink="http://www.w3.org/1999/xlink" id="svg5" width="128" height="128" viewBox="0 0 128 128">
    <defs id="defs2">
        <clipPath id="clipPath1609-7" clipPathUnits="userSpaceOnUse">
            <path id="path1611-5" d="m252 116 28-28v-8h-36v36z" style="fill:#e74747;stroke:none;stroke-width:.25px;stroke-linecap:butt;stroke-linejoin:miter;stroke-opacity:1"/>
        </clipPath>
        <clipPath id="clipPath1609-7-7" clipPathUnits="userSpaceOnUse">
            <path id="path1611-5-0" d="m252 116 28-28v-8h-36v36z" style="fill:#e74747;stroke:none;stroke-width:.25px;stroke-linecap:butt;stroke-linejoin:miter;stroke-opacity:1"/>
        </clipPath>
        <clipPath id="clipPath744" clipPathUnits="userSpaceOnUse">
            <rect id="rect746" width="541.867" height="541.867" x="0" y="0" rx="79.375" ry="79.375" style="fill:#1e88e5;fill-opacity:1;stroke-width:.264583"/>
        </clipPath>
        <clipPath id="clipPath62" clipPathUnits="userSpaceOnUse">
            <rect id="rect64" width="541.867" height="541.867" x="0" y="-.422" rx="79.375" ry="79.375" style="fill:#1e88e5;fill-opacity:1;stroke-width:.264583"/>
        </clipPath>
        <clipPath id="clipPath1609-7-2" clipPathUnits="userSpaceOnUse">
            <path id="path1611-5-3" d="m252 116 28-28v-8h-36v36z" style="fill:#e74747;stroke:none;stroke-width:.25px;stroke-linecap:butt;stroke-linejoin:miter;stroke-opacity:1"/>
        </clipPath>
        <clipPath id="clipPath961" clipPathUnits="userSpaceOnUse">
            <rect id="rect963" width="541.867" height="541.867" x="0" y="0" rx="79.375" ry="79.375" style="fill:#00c853;stroke:none;stroke-width:.529037"/>
        </clipPath>
        <clipPath id="clipPath1440" clipPathUnits="userSpaceOnUse">
            <circle id="circle1442" cx="-134.35" cy="193.747" r="24" style="display:inline;opacity:1;vector-effect:none;fill:none;fill-opacity:1;stroke:#000;stroke-width:2;stroke-linecap:butt;stroke-linejoin:miter;stroke-miterlimit:4;stroke-dasharray:none;stroke-dashoffset:0;stroke-opacity:1;marker:none;marker-start:none;marker-mid:none;marker-end:none;paint-order:normal" transform="rotate(-45)"/>
        </clipPath>
        <clipPath id="clipPath1430" clipPathUnits="userSpaceOnUse">
            <circle id="circle1432" cx="12" cy="232" r="24" style="display:inline;opacity:1;vector-effect:none;fill:none;fill-opacity:1;stroke:#000;stroke-width:2;stroke-linecap:butt;stroke-linejoin:miter;stroke-miterlimit:4;stroke-dasharray:none;stroke-dashoffset:0;stroke-opacity:1;marker:none;marker-start:none;marker-mid:none;marker-end:none;paint-order:normal"/>
        </clipPath>
        <clipPath id="clipPath1440-9" clipPathUnits="userSpaceOnUse">
            <circle id="circle1442-5" cx="-134.35" cy="193.747" r="24" style="display:inline;opacity:1;vector-effect:none;fill:none;fill-opacity:1;stroke:#000;stroke-width:2;stroke-linecap:butt;stroke-linejoin:miter;stroke-miterlimit:4;stroke-dasharray:none;stroke-dashoffset:0;stroke-opacity:1;marker:none;marker-start:none;marker-mid:none;marker-end:none;paint-order:normal" transform="rotate(-45)"/>
        </clipPath>
        <clipPath id="clipPath1430-1" clipPathUnits="userSpaceOnUse">
            <circle id="circle1432-8" cx="12" cy="232" r="24" style="display:inline;opacity:1;vector-effect:none;fill:none;fill-opacity:1;stroke:#000;stroke-width:2;stroke-linecap:butt;stroke-linejoin:miter;stroke-miterlimit:4;stroke-dasharray:none;stroke-dashoffset:0;stroke-opacity:1;marker:none;marker-start:none;marker-mid:none;marker-end:none;paint-order:normal"/>
        </clipPath>
        <clipPath id="clipPath2024" clipPathUnits="userSpaceOnUse">
            <path id="rect2026" d="M6 196h74v98H6z" style="opacity:1;vector-effect:none;fill:#63452c;fill-opacity:1;stroke:none;stroke-width:4;stroke-linecap:round;stroke-linejoin:round;stroke-miterlimit:4;stroke-dasharray:none;stroke-dashoffset:0;stroke-opacity:1"/>
        </clipPath>
        <clipPath id="clipPath11543" clipPathUnits="userSpaceOnUse">
            <rect id="rect11545" width="541.867" height="541.867" x="0" y="0" rx="79.375" ry="79.375" style="fill:#f0c04e;fill-opacity:1;stroke:none;stroke-width:.529037"/>
        </clipPath>
        <clipPath id="clipPath1260" clipPathUnits="userSpaceOnUse">
            <rect id="rect1262" width="541.867" height="541.867" x="0" y="0" rx="79.375" ry="79.375" style="fill:#bbdefb;fill-opacity:1;stroke:none;stroke-width:.529037"/>
        </clipPath>
        <clipPath id="clipPath3338" clipPathUnits="userSpaceOnUse">
            <rect id="rect3340" width="541.867" height="541.867" x="0" y="0" rx="79.375" ry="79.375" style="fill:#ff7f2a;fill-opacity:1;stroke:none;stroke-width:.529037"/>
        </clipPath>
        <clipPath id="clipPath2140" clipPathUnits="userSpaceOnUse">
            <rect id="rect2142" width="487.68" height="487.68" x="27.093" y="27.093" rx="71.438" ry="71.438" style="fill:#ffad76;fill-opacity:1;stroke:none;stroke-width:.529037"/>
        </clipPath>
        <clipPath id="clipPath961-5" clipPathUnits="userSpaceOnUse">
            <rect id="rect963-3" width="541.867" height="541.867" x="0" y="0" rx="79.375" ry="79.375" style="fill:#00c853;stroke:none;stroke-width:.529037"/>
        </clipPath>
        <clipPath id="clipPath1440-93" clipPathUnits="userSpaceOnUse">
            <circle id="circle1442-6" cx="-134.35" cy="193.747" r="24" style="display:inline;opacity:1;vector-effect:none;fill:none;fill-opacity:1;stroke:#000;stroke-width:2;stroke-linecap:butt;stroke-linejoin:miter;stroke-miterlimit:4;stroke-dasharray:none;stroke-dashoffset:0;stroke-opacity:1;marker:none;marker-start:none;marker-mid:none;marker-end:none;paint-order:normal" transform="rotate(-45)"/>
        </clipPath>
        <clipPath id="clipPath1430-0" clipPathUnits="userSpaceOnUse">
            <circle id="circle1432-6" cx="12" cy="232" r="24" style="display:inline;opacity:1;vector-effect:none;fill:none;fill-opacity:1;stroke:#000;stroke-width:2;stroke-linecap:butt;stroke-linejoin:miter;stroke-miterlimit:4;stroke-dasharray:none;stroke-dashoffset:0;stroke-opacity:1;marker:none;marker-start:none;marker-mid:none;marker-end:none;paint-order:normal"/>
        </clipPath>
        <clipPath id="clipPath1440-9-2" clipPathUnits="userSpaceOnUse">
            <circle id="circle1442-5-6" cx="-134.35" cy="193.747" r="24" style="display:inline;opacity:1;vector-effect:none;fill:none;fill-opacity:1;stroke:#000;stroke-width:2;stroke-linecap:butt;stroke-linejoin:miter;stroke-miterlimit:4;stroke-dasharray:none;stroke-dashoffset:0;stroke-opacity:1;marker:none;marker-start:none;marker-mid:none;marker-end:none;paint-order:normal" transform="rotate(-45)"/>
        </clipPath>
        <clipPath id="clipPath1430-1-1" clipPathUnits="userSpaceOnUse">
            <circle id="circle1432-8-8" cx="12" cy="232" r="24" style="display:inline;opacity:1;vector-effect:none;fill:none;fill-opacity:1;stroke:#000;stroke-width:2;stroke-linecap:butt;stroke-linejoin:miter;stroke-miterlimit:4;stroke-dasharray:none;stroke-dashoffset:0;stroke-opacity:1;marker:none;marker-start:none;marker-mid:none;marker-end:none;paint-order:normal"/>
        </clipPath>
        <clipPath id="clipPath2024-7" clipPathUnits="userSpaceOnUse">
            <path id="rect2026-9" d="M6 196h74v98H6z" style="opacity:1;vector-effect:none;fill:#63452c;fill-opacity:1;stroke:none;stroke-width:4;stroke-linecap:round;stroke-linejoin:round;stroke-miterlimit:4;stroke-dasharray:none;stroke-dashoffset:0;stroke-opacity:1"/>
        </clipPath>
        <clipPath id="clipPath11543-3" clipPathUnits="userSpaceOnUse">
            <rect id="rect11545-7" width="541.867" height="541.867" x="0" y="0" rx="79.375" ry="79.375" style="fill:#f0c04e;fill-opacity:1;stroke:none;stroke-width:.529037"/>
        </clipPath>
        <clipPath id="clipPath1260-6" clipPathUnits="userSpaceOnUse">
            <rect id="rect1262-3" width="541.867" height="541.867" x="0" y="0" rx="79.375" ry="79.375" style="fill:#bbdefb;fill-opacity:1;stroke:none;stroke-width:.529037"/>
        </clipPath>
        <clipPath id="clipPath16423" clipPathUnits="userSpaceOnUse">
            <rect id="rect16425" width="541.867" height="541.867" x="0" y="0" rx="79.375" ry="79.375" style="fill:#ffad34;fill-opacity:1;stroke:none;stroke-width:.529037"/>
        </clipPath>
        <clipPath id="clipPath5550" clipPathUnits="userSpaceOnUse">
            <rect id="rect5552" width="661.29" height="661.29" x="-99.047" y="-73.297" rx="96.869" ry="96.869" style="fill:#ffce85;fill-opacity:1;stroke:none;stroke-width:.529035;stroke-opacity:1"/>
        </clipPath>
        <clipPath id="clipPath5554" clipPathUnits="userSpaceOnUse">
            <rect id="rect5556" width="661.29" height="661.29" x="-99.047" y="-73.297" rx="96.869" ry="96.869" style="fill:#ffce85;fill-opacity:1;stroke:none;stroke-width:.529035;stroke-opacity:1"/>
        </clipPath>
        <clipPath id="clipPath5558" clipPathUnits="userSpaceOnUse">
            <rect id="rect5560" width="661.29" height="661.29" x="-99.047" y="-73.297" rx="96.869" ry="96.869" style="fill:#ffce85;fill-opacity:1;stroke:none;stroke-width:.529035;stroke-opacity:1"/>
        </clipPath>
        <clipPath id="clipPath5562" clipPathUnits="userSpaceOnUse">
            <rect id="rect5564" width="661.29" height="661.29" x="-99.047" y="-73.297" rx="96.869" ry="96.869" style="fill:#ffce85;fill-opacity:1;stroke:none;stroke-width:.529035;stroke-opacity:1"/>
        </clipPath>
        <clipPath id="clipPath5566" clipPathUnits="userSpaceOnUse">
            <rect id="rect5568" width="661.29" height="661.29" x="-99.047" y="-73.297" rx="96.869" ry="96.869" style="fill:#ffce85;fill-opacity:1;stroke:none;stroke-width:.529035;stroke-opacity:1"/>
        </clipPath>
        <clipPath id="clipPath5570" clipPathUnits="userSpaceOnUse">
            <rect id="rect5572" width="661.29" height="661.29" x="-99.047" y="-73.297" rx="96.869" ry="96.869" style="fill:#ffce85;fill-opacity:1;stroke:none;stroke-width:.529035;stroke-opacity:1"/>
        </clipPath>
        <clipPath id="clipPath5574" clipPathUnits="userSpaceOnUse">
            <rect id="rect5576" width="661.29" height="661.29" x="-99.047" y="-73.297" rx="96.869" ry="96.869" style="fill:#ffce85;fill-opacity:1;stroke:none;stroke-width:.529035;stroke-opacity:1"/>
        </clipPath>
        <clipPath id="clipPath5578" clipPathUnits="userSpaceOnUse">
            <rect id="rect5580" width="661.29" height="661.29" x="-99.047" y="-73.297" rx="96.869" ry="96.869" style="fill:#ffce85;fill-opacity:1;stroke:none;stroke-width:.529035;stroke-opacity:1"/>
        </clipPath>
        <clipPath id="clipPath5582" clipPathUnits="userSpaceOnUse">
            <rect id="rect5584" width="661.29" height="661.29" x="-99.047" y="-73.297" rx="96.869" ry="96.869" style="fill:#ffce85;fill-opacity:1;stroke:none;stroke-width:.529035;stroke-opacity:1"/>
        </clipPath>
        <clipPath id="clipPath5586" clipPathUnits="userSpaceOnUse">
            <rect id="rect5588" width="661.29" height="661.29" x="-99.047" y="-73.297" rx="96.869" ry="96.869" style="fill:#ffce85;fill-opacity:1;stroke:none;stroke-width:.529035;stroke-opacity:1"/>
        </clipPath>
        <clipPath id="clipPath5590" clipPathUnits="userSpaceOnUse">
            <rect id="rect5592" width="661.29" height="661.29" x="-99.047" y="-73.297" rx="96.869" ry="96.869" style="fill:#ffce85;fill-opacity:1;stroke:none;stroke-width:.529035;stroke-opacity:1"/>
        </clipPath>
        <clipPath id="clipPath5594" clipPathUnits="userSpaceOnUse">
            <rect id="rect5596" width="661.29" height="661.29" x="-99.047" y="-73.297" rx="96.869" ry="96.869" style="fill:#ffce85;fill-opacity:1;stroke:none;stroke-width:.529035;stroke-opacity:1"/>
        </clipPath>
        <clipPath id="clipPath5598" clipPathUnits="userSpaceOnUse">
            <rect id="rect5600" width="661.29" height="661.29" x="-99.047" y="-73.297" rx="96.869" ry="96.869" style="fill:#ffce85;fill-opacity:1;stroke:none;stroke-width:.529035;stroke-opacity:1"/>
        </clipPath>
        <clipPath id="clipPath5602" clipPathUnits="userSpaceOnUse">
            <rect id="rect5604" width="661.29" height="661.29" x="-99.047" y="-73.297" rx="96.869" ry="96.869" style="fill:#ffce85;fill-opacity:1;stroke:none;stroke-width:.529035;stroke-opacity:1"/>
        </clipPath>
        <clipPath id="clipPath5606" clipPathUnits="userSpaceOnUse">
            <rect id="rect5608" width="661.29" height="661.29" x="-99.047" y="-73.297" rx="96.869" ry="96.869" style="fill:#ffce85;fill-opacity:1;stroke:none;stroke-width:.529035;stroke-opacity:1"/>
        </clipPath>
        <clipPath id="clipPath5610" clipPathUnits="userSpaceOnUse">
            <rect id="rect5612" width="661.29" height="661.29" x="-90.645" y="-83.998" rx="96.869" ry="96.869" style="fill:#ffce85;fill-opacity:1;stroke:none;stroke-width:.529035;stroke-opacity:1"/>
        </clipPath>
        <clipPath id="clipPath5614" clipPathUnits="userSpaceOnUse">
            <rect id="rect5616" width="487.68" height="487.68" x="27.093" y="27.093" rx="71.438" ry="71.438" style="fill:#ffce85;fill-opacity:1;stroke:none;stroke-width:.529037;stroke-opacity:1"/>
        </clipPath>
        <clipPath id="clipPath5618" clipPathUnits="userSpaceOnUse">
            <rect id="rect5620" width="541.867" height="541.867" x="0" y="0" rx="79.375" ry="79.375" style="fill:#ffce85;fill-opacity:1;stroke:none;stroke-width:.529037;stroke-opacity:1"/>
        </clipPath>
        <clipPath id="clipPath5622" clipPathUnits="userSpaceOnUse">
            <rect id="rect5624" width="487.68" height="487.68" x="27.093" y="27.093" rx="71.438" ry="71.438" style="fill:#ffce85;fill-opacity:1;stroke:none;stroke-width:.529037;stroke-opacity:1"/>
        </clipPath>
        <clipPath id="clipPath6298" clipPathUnits="userSpaceOnUse">
            <rect id="rect6300" width="487.68" height="487.68" x="27.093" y="27.093" clip-path="url(#clipPath5622)" rx="71.438" ry="71.438" style="fill:#009e71;fill-opacity:1;stroke:none;stroke-width:.529036;stroke-opacity:1"/>
        </clipPath>
        <clipPath id="clipPath8220" clipPathUnits="userSpaceOnUse">
            <rect id="rect8222" width="487.68" height="487.68" x="27.093" y="27.093" clip-path="url(#clipPath5622)" rx="71.438" ry="71.438" style="fill:#a00;fill-opacity:1;stroke:none;stroke-width:.529036;stroke-opacity:1"/>
        </clipPath>
        <clipPath id="clip-path">
            <path id="Body" d="M38.11 28.39H46a1.35 1.35 0 0 1 1.35 1.35V37a5 5 0 0 1-5 5 5 5 0 0 1-5-5v-7.9a.71.71 0 0 1 .71-.71Z" class="cls-1"/>
        </clipPath>
        <clipPath id="clip-path-2">
            <path id="path1206" d="M28.39 22.08a4.51 4.51 0 1 1 4.51 4.51 4.51 4.51 0 0 1-4.51-4.51m11.27 6.31H26.14a1.37 1.37 0 0 0-1.35 1.39v8.32a8.11 8.11 0 1 0 16.21 0v-8.32a1.37 1.37 0 0 0-1.34-1.39" class="cls-1"/>
        </clipPath>
        <clipPath id="clipPath1017" clipPathUnits="userSpaceOnUse">
            <path id="path1015" d="M2619 5238c1446.43 0 2619-1172.57 2619-2619S4065.43 0 2619 0 0 1172.57 0 2619s1172.57 2619 2619 2619"/>
        </clipPath>
        <clipPath id="clipPath1027" clipPathUnits="userSpaceOnUse">
            <path id="path1025" d="M2619 5187c1418.27 0 2568-1149.73 2568-2568S4037.27 51 2619 51 50.996 1200.73 50.996 2619 1200.73 5187 2619 5187"/>
        </clipPath>
        <clipPath id="clipPath1037" clipPathUnits="userSpaceOnUse">
            <path id="path1035" d="M2619 4981c1304.5 0 2362-1057.5 2362-2362S3923.5 257 2619 257 257 1314.5 257 2619s1057.5 2362 2362 2362"/>
        </clipPath>
        <clipPath id="clipPath1047" clipPathUnits="userSpaceOnUse">
            <path id="path1045" d="M1078 3359V2249c1-251 206-453 456-452h1618c46 0 83 37 83 82v1110c-1 251-206 453-456 452H1161c-46 0-83-37-83-82m2260-433 668 488c58 48 103 36 103-51V1875c0-99-55-87-103-51l-668 487z"/>
        </clipPath>
        <clipPath id="clip1">
            <path id="path1127" d="M7 46h50v47H7Zm0 0"/>
        </clipPath>
        <clipPath id="clip2">
            <path id="path1130" d="M32.25 46.957c-12.562.012-23.164 9.68-24.746 22.574 1.559 12.914 12.164 22.614 24.746 22.63 12.566-.013 23.164-9.68 24.75-22.575-1.559-12.914-12.164-22.613-24.75-22.629m0 0"/>
        </clipPath>
        <clipPath id="clip3">
            <path id="rect1169" d="M0 0h192v152H0z"/>
        </clipPath>
        <clipPath id="clipPath2023" clipPathUnits="userSpaceOnUse">
            <path id="path2025" d="M276.181-123.204 398.568-.5 395.6 294.002l-309.4.9L88-124Z" style="fill:#e74747;stroke:none;stroke-width:1px;stroke-linecap:butt;stroke-linejoin:miter;stroke-opacity:1"/>
        </clipPath>
        <clipPath id="clipPath17445" clipPathUnits="userSpaceOnUse">
            <path id="path17447" d="M672-180.056c-17.728 0-32 14.272-32 32v384.112c0 17.728 14.272 32 32 32h256c17.728 0 32-14.272 32-32v-303.98L848.158-180.057Z" clip-path="none" style="display:inline;opacity:1;fill:#26a269;fill-opacity:1;stroke:none;stroke-width:2;stroke-linejoin:round;stroke-miterlimit:4;stroke-dasharray:none;stroke-opacity:1"/>
        </clipPath>
        <clipPath id="clipPath18689" clipPathUnits="userSpaceOnUse">
            <rect id="rect18691" width="362.943" height="362.943" x="486.037" y="123.999" clip-path="none" rx="32" ry="32" style="display:inline;opacity:1;vector-effect:none;fill:#4a86cf;fill-opacity:1;stroke:none;stroke-width:26.06693268;stroke-linecap:butt;stroke-linejoin:miter;stroke-miterlimit:4;stroke-dasharray:none;stroke-dashoffset:0;stroke-opacity:1;marker:none;marker-start:none;marker-mid:none;marker-end:none;paint-order:normal" transform="rotate(45)"/>
        </clipPath>
        <clipPath id="clipPath17445-6" clipPathUnits="userSpaceOnUse">
            <path id="path17447-9" d="M672-180.056c-17.728 0-32 14.272-32 32v384.112c0 17.728 14.272 32 32 32h256c17.728 0 32-14.272 32-32v-303.98L848.158-180.057Z" clip-path="none" style="display:inline;opacity:1;fill:#26a269;fill-opacity:1;stroke:none;stroke-width:2;stroke-linejoin:round;stroke-miterlimit:4;stroke-dasharray:none;stroke-opacity:1"/>
        </clipPath>
        <clipPath id="clipPath1366" clipPathUnits="userSpaceOnUse">
            <path id="path1368" d="M64-116c-17.728 0-32 14.272-32 32v256c0 17.728 14.272 32 32 32h320l96-95.998V-84c0-17.728-14.272-32-32-32z" style="fill:#9b6fe2;stroke:none;stroke-width:1px;stroke-linecap:butt;stroke-linejoin:miter;stroke-opacity:1"/>
        </clipPath>
        <clipPath id="clipPath17445-6-2" clipPathUnits="userSpaceOnUse">
            <path id="path17447-9-7" d="M672-180.056c-17.728 0-32 14.272-32 32v384.112c0 17.728 14.272 32 32 32h256c17.728 0 32-14.272 32-32v-303.98L848.158-180.057Z" clip-path="none" style="display:inline;opacity:1;fill:#26a269;fill-opacity:1;stroke:none;stroke-width:2;stroke-linejoin:round;stroke-miterlimit:4;stroke-dasharray:none;stroke-opacity:1"/>
        </clipPath>
        <clipPath id="clipPath17445-6-2-9" clipPathUnits="userSpaceOnUse">
            <path id="path17447-9-7-0" d="M672-180.056c-17.728 0-32 14.272-32 32v384.112c0 17.728 14.272 32 32 32h256c17.728 0 32-14.272 32-32v-303.98L848.158-180.057Z" clip-path="none" style="display:inline;opacity:1;fill:#26a269;fill-opacity:1;stroke:none;stroke-width:2;stroke-linejoin:round;stroke-miterlimit:4;stroke-dasharray:none;stroke-opacity:1"/>
        </clipPath>
        <clipPath id="clipPath18689-3" clipPathUnits="userSpaceOnUse">
            <rect id="rect18691-6" width="362.943" height="362.943" x="486.037" y="123.999" clip-path="none" rx="32" ry="32" style="display:inline;opacity:1;vector-effect:none;fill:#4a86cf;fill-opacity:1;stroke:none;stroke-width:26.06693268;stroke-linecap:butt;stroke-linejoin:miter;stroke-miterlimit:4;stroke-dasharray:none;stroke-dashoffset:0;stroke-opacity:1;marker:none;marker-start:none;marker-mid:none;marker-end:none;paint-order:normal" transform="rotate(45)"/>
        </clipPath>
        <clipPath id="clipPath2023-6" clipPathUnits="userSpaceOnUse">
            <path id="path2025-0" d="M276.181-123.204 398.568-.5 395.6 294.002l-309.4.9L88-124Z" style="fill:#e74747;stroke:none;stroke-width:1px;stroke-linecap:butt;stroke-linejoin:miter;stroke-opacity:1"/>
        </clipPath>
        <clipPath id="clipPath2250" clipPathUnits="userSpaceOnUse">
            <path id="path2248" d="M276.181-123.204 398.568-.5 395.6 294.002l-309.4.9L88-124Z" style="fill:#e74747;stroke:none;stroke-width:1px;stroke-linecap:butt;stroke-linejoin:miter;stroke-opacity:1"/>
        </clipPath>
        <clipPath id="clipPath2019-7" clipPathUnits="userSpaceOnUse">
            <path id="path2021-5" d="M280 124 400 4l-8-280H88v400z" style="fill:#e74747;stroke:none;stroke-width:1px;stroke-linecap:butt;stroke-linejoin:miter;stroke-opacity:1"/>
        </clipPath>
        <clipPath id="clipPath1599" clipPathUnits="userSpaceOnUse">
            <path id="path1601" d="M492.308-59.385 393.846-197.23H147.692v482.462h344.616z" style="fill:#1c71d8;stroke:none;stroke-width:1px;stroke-linecap:butt;stroke-linejoin:miter;stroke-opacity:1"/>
        </clipPath>
        <linearGradient id="linearGradient1554">
            <stop id="stop1550" offset="0" style="stop-color:#cb6bdc;stop-opacity:1"/>
            <stop id="stop1552" offset="1" style="stop-color:#f3b4ff;stop-opacity:1"/>
        </linearGradient>
        <linearGradient xlink:href="#linearGradient1036" id="linearGradient1099" x1="32" x2="96" y1="236" y2="236" gradientTransform="translate(604.817 170.586)" gradientUnits="userSpaceOnUse"/>
        <linearGradient id="linearGradient1036">
            <stop id="stop1032" offset="0" style="stop-color:#d5d3cf;stop-opacity:1"/>
            <stop id="stop1034" offset="1" style="stop-color:#f6f5f4;stop-opacity:1"/>
        </linearGradient>
        <linearGradient id="linearGradient1069">
            <stop id="stop1065" offset="0" style="stop-color:#d5d3cf;stop-opacity:1"/>
            <stop id="stop1067-1" offset="1" style="stop-color:#949390;stop-opacity:1"/>
        </linearGradient>
        <linearGradient xlink:href="#linearGradient1025" id="linearGradient1027" x1="64" x2="64" y1="262.5" y2="232" gradientTransform="translate(-470.586 432.817)" gradientUnits="userSpaceOnUse"/>
        <linearGradient id="linearGradient1025">
            <stop id="stop1021" offset="0" style="stop-color:#9a9996;stop-opacity:1"/>
            <stop id="stop1023" offset="1" style="stop-color:#77767b;stop-opacity:1"/>
        </linearGradient>
        <linearGradient id="linearGradient8241">
            <stop id="stop8237" offset="0" style="stop-color:#8e24aa;stop-opacity:1"/>
            <stop id="stop9349" offset=".05" style="stop-color:#a74abc;stop-opacity:1"/>
            <stop id="stop21746" offset=".1" style="stop-color:#8e24aa;stop-opacity:1"/>
            <stop id="stop21940" offset=".9" style="stop-color:#8e24aa;stop-opacity:1"/>
            <stop id="stop9351" offset=".95" style="stop-color:#a74abc;stop-opacity:1"/>
            <stop id="stop8239" offset="1" style="stop-color:#8e24aa;stop-opacity:1"/>
        </linearGradient>
        <linearGradient xlink:href="#linearGradient8241" id="linearGradient8243" x1="11.5" x2="116.5" y1="120.5" y2="120.5" gradientUnits="userSpaceOnUse"/>
        <linearGradient id="linearGradient914">
            <stop id="stop910" offset="0" style="stop-color:#f6f5f4;stop-opacity:.43700787"/>
            <stop id="stop912" offset="1" style="stop-color:#deddda;stop-opacity:0"/>
        </linearGradient>
        <linearGradient id="linear-gradient" x1="63.33" x2="241.67" y1="84.03" y2="84.03" gradientTransform="matrix(1 0 0 -1 0 266)" gradientUnits="userSpaceOnUse">
            <stop id="stop376" offset="0" stop-color="#0c59a4"/>
            <stop id="stop378" offset="1" stop-color="#114a8b"/>
        </linearGradient>
        <linearGradient id="linear-gradient-2" x1="157.35" x2="45.96" y1="161.39" y2="40.06" gradientTransform="matrix(1 0 0 -1 0 266)" gradientUnits="userSpaceOnUse">
            <stop id="stop388" offset="0" stop-color="#1b9de2"/>
            <stop id="stop390" offset=".16" stop-color="#1595df"/>
            <stop id="stop392" offset=".67" stop-color="#0680d7"/>
            <stop id="stop394" offset="1" stop-color="#0078d4"/>
        </linearGradient>
        <linearGradient id="linearGradient-1" x1="0" x2="235.777" y1="119.552" y2="119.552" gradientTransform="matrix(1.45119 0 0 1.70377 99.854 80.416)" gradientUnits="userSpaceOnUse">
            <stop id="stop6" offset="0%" stop-color="#f50"/>
            <stop id="stop8" offset="40.988%" stop-color="#f50"/>
            <stop id="stop10" offset="58.198%" stop-color="#ff2000"/>
            <stop id="stop12" offset="100%" stop-color="#ff2000"/>
        </linearGradient>
        <linearGradient id="linearGradient-2" x1=".021" x2="1" y1=".507" y2=".507" gradientTransform="translate(54.425 49.22)scale(7.10701)" gradientUnits="userSpaceOnUse">
            <stop id="stop15" offset="0%" stop-color="#ff452a"/>
            <stop id="stop17" offset="100%" stop-color="#ff2000"/>
        </linearGradient>
        <linearGradient xlink:href="#linearGradient1357" id="linearGradient1329" x1="11.823" x2="115.823" y1="268" y2="268" gradientTransform="translate(-344.808 -258.296)scale(2.27497)" gradientUnits="userSpaceOnUse"/>
        <linearGradient id="linearGradient1357">
            <stop id="stop1345" offset="0" style="stop-color:#986a44;stop-opacity:1"/>
            <stop id="stop1347" offset=".029" style="stop-color:#cdab8f;stop-opacity:1"/>
            <stop id="stop1349" offset=".058" style="stop-color:#b5835a;stop-opacity:1"/>
            <stop id="stop1351" offset=".942" style="stop-color:#b5835a;stop-opacity:1"/>
            <stop id="stop1353" offset=".971" style="stop-color:#cdab8f;stop-opacity:1"/>
            <stop id="stop1355" offset="1" style="stop-color:#986a44;stop-opacity:1"/>
        </linearGradient>
        <linearGradient xlink:href="#linearGradient1656" id="linearGradient1610" x1="70.586" x2="60" y1="53.255" y2="23" gradientTransform="translate(0 170)" gradientUnits="userSpaceOnUse"/>
        <linearGradient id="linearGradient1656">
            <stop id="stop1652" offset="0" style="stop-color:#fff;stop-opacity:1"/>
            <stop id="stop1654" offset="1" style="stop-color:#deddda;stop-opacity:1"/>
        </linearGradient>
        <linearGradient xlink:href="#linearGradient1270" id="linearGradient1612" x1="60" x2="68" y1="268" y2="268" gradientUnits="userSpaceOnUse"/>
        <linearGradient id="linearGradient1270">
            <stop id="stop1258" offset="0" style="stop-color:#949390;stop-opacity:1"/>
            <stop id="stop1260" offset=".083" style="stop-color:#d5d3cf;stop-opacity:1"/>
            <stop id="stop1262" offset=".167" style="stop-color:#949390;stop-opacity:1"/>
            <stop id="stop1264" offset=".833" style="stop-color:#949390;stop-opacity:1"/>
            <stop id="stop1266" offset=".917" style="stop-color:#d5d3cf;stop-opacity:1"/>
            <stop id="stop1268" offset="1" style="stop-color:#949390;stop-opacity:1"/>
        </linearGradient>
        <linearGradient id="linearGradient9795">
            <stop id="stop9797" offset="0" style="stop-color:#fff;stop-opacity:1"/>
            <stop id="stop9799" offset="1" style="stop-color:#fff;stop-opacity:0"/>
        </linearGradient>
        <linearGradient xlink:href="#linearGradient9795" id="linearGradient9801" x1="30.438" x2="29.742" y1="31.829" y2="27.454" gradientUnits="userSpaceOnUse"/>
        <linearGradient id="linearGradient7212">
            <stop id="stop7214" offset="0" style="stop-color:#000;stop-opacity:1"/>
        </linearGradient>
        <linearGradient id="linear-gradient-6" x1="18.59" x2="29.18" y1="22.83" y2="41.17" gradientUnits="userSpaceOnUse">
            <stop id="stop1209" offset="0" stop-color="#fff" stop-opacity=".5"/>
            <stop id="stop1211" offset="1" stop-opacity=".7"/>
        </linearGradient>
        <linearGradient id="linearGradient1458">
            <stop id="stop1452" offset="0" style="stop-color:#deddda;stop-opacity:1"/>
            <stop id="stop1454" offset=".511" style="stop-color:#fff;stop-opacity:1"/>
            <stop id="stop1456" offset="1" style="stop-color:#c0bfbc;stop-opacity:1"/>
        </linearGradient>
        <linearGradient xlink:href="#linearGradient1458" id="linearGradient1053-2" x1="384" x2="416" y1="120" y2="120" gradientTransform="translate(0 640)" gradientUnits="userSpaceOnUse"/>
        <linearGradient id="linear0" x1="22" x2="62" y1="37" y2="37" gradientTransform="matrix(1.4 0 0 1.4 -26.8 2.492)" gradientUnits="userSpaceOnUse">
            <stop id="stop1143" offset="0" style="stop-color:#949390;stop-opacity:1"/>
            <stop id="stop1145" offset=".091" style="stop-color:#deddda;stop-opacity:1"/>
            <stop id="stop1147" offset=".336" style="stop-color:#9a9996;stop-opacity:1"/>
            <stop id="stop1149" offset=".844" style="stop-color:#c3c0ba;stop-opacity:1"/>
            <stop id="stop1151" offset=".931" style="stop-color:#deddda;stop-opacity:1"/>
            <stop id="stop1153" offset="1" style="stop-color:#c0bfbc;stop-opacity:1"/>
        </linearGradient>
        <linearGradient id="linearGradient1078">
            <stop id="stop1066" offset="0" style="stop-color:#77767b;stop-opacity:1"/>
            <stop id="stop1068" offset=".036" style="stop-color:#c0bfbc;stop-opacity:1"/>
            <stop id="stop1070" offset=".071" style="stop-color:#9a9996;stop-opacity:1"/>
            <stop id="stop1072" offset=".929" style="stop-color:#9a9996;stop-opacity:1"/>
            <stop id="stop1074" offset=".964" style="stop-color:#c0bfbc;stop-opacity:1"/>
            <stop id="stop1076" offset="1" style="stop-color:#77767b;stop-opacity:1"/>
        </linearGradient>
        <linearGradient id="linearGradient1044">
            <stop id="stop1040" offset="0" style="stop-color:#1a5fb4;stop-opacity:1"/>
            <stop id="stop1042" offset="1" style="stop-color:#98c1f1;stop-opacity:0"/>
        </linearGradient>
        <linearGradient id="linearGradient1034">
            <stop id="stop1030" offset="0" style="stop-color:#98c1f1;stop-opacity:1"/>
            <stop id="stop1032-3" offset="1" style="stop-color:#2dc0af;stop-opacity:.13779527"/>
        </linearGradient>
        <linearGradient id="linearGradient6826">
            <stop id="stop6822" offset="0" style="stop-color:#50dbb5;stop-opacity:1"/>
            <stop id="stop6824" offset="1" style="stop-color:#4a86cf;stop-opacity:1"/>
        </linearGradient>
        <linearGradient xlink:href="#linearGradient1078" id="linearGradient1064" x1="88.596" x2="536.596" y1="-449.394" y2="-449.394" gradientTransform="translate(-528.272 807.01)scale(.76033)" gradientUnits="userSpaceOnUse"/>
        <linearGradient xlink:href="#linearGradient988" id="linearGradient990" x1="64" x2="64" y1="202.385" y2="444.5" gradientTransform="translate(590.994 -772.683)scale(4.39977)" gradientUnits="userSpaceOnUse"/>
        <linearGradient id="linearGradient988">
            <stop id="stop984" offset="0" style="stop-color:#a347ba;stop-opacity:1"/>
            <stop id="stop986" offset="1" style="stop-color:#c061cb;stop-opacity:1"/>
        </linearGradient>
        <linearGradient xlink:href="#linearGradient1879" id="linearGradient1053" x1="384" x2="416" y1="120" y2="120" gradientTransform="translate(643.791 199.667)scale(1.09994)" gradientUnits="userSpaceOnUse"/>
        <linearGradient id="linearGradient1879">
            <stop id="stop1873" offset="0" style="stop-color:#e8e7e4;stop-opacity:1"/>
            <stop id="stop1875" offset=".511" style="stop-color:#fff;stop-opacity:1"/>
            <stop id="stop1877" offset="1" style="stop-color:#c2bfba;stop-opacity:1"/>
        </linearGradient>
        <linearGradient xlink:href="#linearGradient1554" id="linearGradient1556" x1="64" x2="64" y1="112.5" y2="7.5" gradientUnits="userSpaceOnUse"/>
        <radialGradient xlink:href="#linearGradient1069" id="radialGradient1103" cx="-244" cy="-76" r="32" fx="-244" fy="-76" gradientTransform="translate(-460.35 463.12)scale(.88333)" gradientUnits="userSpaceOnUse"/>
        <radialGradient xlink:href="#linearGradient1069" id="radialGradient1103-5" cx="-244" cy="-76" r="32" fx="-244" fy="-76" gradientTransform="translate(-460.35 463.12)scale(.88333)" gradientUnits="userSpaceOnUse"/>
        <radialGradient xlink:href="#linearGradient1069" id="radialGradient1103-6" cx="-244" cy="-76" r="32" fx="-244" fy="-76" gradientTransform="translate(-460.35 463.12)scale(.88333)" gradientUnits="userSpaceOnUse"/>
        <radialGradient xlink:href="#linearGradient1069" id="radialGradient1103-56" cx="-244" cy="-76" r="32" fx="-244" fy="-76" gradientTransform="translate(-460.35 463.12)scale(.88333)" gradientUnits="userSpaceOnUse"/>
        <radialGradient xlink:href="#linearGradient914" id="radialGradient916" cx="64" cy="296" r="46" fx="64" fy="296" gradientTransform="matrix(2.6087 0 0 1.84104 -102.957 -748.947)" gradientUnits="userSpaceOnUse"/>
        <radialGradient id="radial-gradient" cx="161.83" cy="68.91" r="95.38" gradientTransform="matrix(1 0 0 -.95 0 248.84)" gradientUnits="userSpaceOnUse">
            <stop id="stop381" offset=".72" stop-opacity="0"/>
            <stop id="stop383" offset=".95" stop-opacity=".53"/>
            <stop id="stop385" offset="1"/>
        </radialGradient>
        <radialGradient id="radial-gradient-2" cx="-340.29" cy="62.99" r="143.24" gradientTransform="matrix(.15 -.99 -.8 -.12 176.64 -125.4)" gradientUnits="userSpaceOnUse">
            <stop id="stop397" offset=".76" stop-opacity="0"/>
            <stop id="stop399" offset=".95" stop-opacity=".5"/>
            <stop id="stop401" offset="1"/>
        </radialGradient>
        <radialGradient id="radial-gradient-3" cx="113.37" cy="570.21" r="202.43" gradientTransform="matrix(-.04 1 2.13 .08 -1179.54 -106.69)" gradientUnits="userSpaceOnUse">
            <stop id="stop404" offset="0" stop-color="#35c1f1"/>
            <stop id="stop406" offset=".11" stop-color="#34c1ed"/>
            <stop id="stop408" offset=".23" stop-color="#2fc2df"/>
            <stop id="stop410" offset=".31" stop-color="#2bc3d2"/>
            <stop id="stop412" offset=".67" stop-color="#36c752"/>
        </radialGradient>
        <radialGradient id="radial-gradient-4" cx="376.52" cy="567.97" r="97.34" gradientTransform="matrix(.28 .96 .78 -.23 -303.76 -148.5)" gradientUnits="userSpaceOnUse">
            <stop id="stop415" offset="0" stop-color="#66eb6e"/>
            <stop id="stop417" offset="1" stop-color="#66eb6e" stop-opacity="0"/>
        </radialGradient>
        <radialGradient xlink:href="#linearGradient1069" id="radialGradient1103-2" cx="-244" cy="-76" r="32" fx="-244" fy="-76" gradientTransform="translate(-460.35 463.12)scale(.88333)" gradientUnits="userSpaceOnUse"/>
        <radialGradient xlink:href="#linearGradient914" id="radialGradient916-2" cx="64" cy="296" r="46" fx="64" fy="296" gradientTransform="matrix(2.6087 0 0 1.84104 -102.957 -748.947)" gradientUnits="userSpaceOnUse"/>
        <radialGradient id="radial-gradient-28" cx="161.83" cy="68.91" r="95.38" gradientTransform="matrix(1 0 0 -.95 0 248.84)" gradientUnits="userSpaceOnUse">
            <stop id="stop381-9" offset=".72" stop-opacity="0"/>
            <stop id="stop383-7" offset=".95" stop-opacity=".53"/>
            <stop id="stop385-3" offset="1"/>
        </radialGradient>
        <radialGradient id="radial-gradient-2-3" cx="-340.29" cy="62.99" r="143.24" gradientTransform="matrix(.15 -.99 -.8 -.12 176.64 -125.4)" gradientUnits="userSpaceOnUse">
            <stop id="stop397-1" offset=".76" stop-opacity="0"/>
            <stop id="stop399-9" offset=".95" stop-opacity=".5"/>
            <stop id="stop401-4" offset="1"/>
        </radialGradient>
        <radialGradient id="radial-gradient-3-7" cx="113.37" cy="570.21" r="202.43" gradientTransform="matrix(-.04 1 2.13 .08 -1179.54 -106.69)" gradientUnits="userSpaceOnUse">
            <stop id="stop404-8" offset="0" stop-color="#35c1f1"/>
            <stop id="stop406-4" offset=".11" stop-color="#34c1ed"/>
            <stop id="stop408-5" offset=".23" stop-color="#2fc2df"/>
            <stop id="stop410-0" offset=".31" stop-color="#2bc3d2"/>
            <stop id="stop412-3" offset=".67" stop-color="#36c752"/>
        </radialGradient>
        <radialGradient id="radial-gradient-4-6" cx="376.52" cy="567.97" r="97.34" gradientTransform="matrix(.28 .96 .78 -.23 -303.76 -148.5)" gradientUnits="userSpaceOnUse">
            <stop id="stop415-1" offset="0" stop-color="#66eb6e"/>
            <stop id="stop417-0" offset="1" stop-color="#66eb6e" stop-opacity="0"/>
        </radialGradient>
        <radialGradient id="radial0" cx="131.915" cy="55.927" r="160" fx="131.915" fy="55.927" gradientTransform="matrix(.23203 -.54148 -.3688 -.02984 4.278 118.958)" gradientUnits="userSpaceOnUse">
            <stop id="stop1117" offset="0" style="stop-color:#ed333b;stop-opacity:1"/>
            <stop id="stop1119" offset="1" style="stop-color:#a347ba;stop-opacity:1"/>
        </radialGradient>
        <radialGradient id="radial1" cx="525.588" cy="638.592" r="192" fx="525.588" fy="638.592" gradientTransform="matrix(-.10766 -.22517 -.32775 .25834 373.88 30.205)" gradientUnits="userSpaceOnUse">
            <stop id="stop1122" offset="0" style="stop-color:#1c71d8;stop-opacity:1"/>
            <stop id="stop1124" offset="1" style="stop-color:#3584e4;stop-opacity:.00829876"/>
        </radialGradient>
        <radialGradient id="radial2" cx="131.915" cy="55.927" r="160" fx="131.915" fy="55.927" gradientTransform="matrix(.48516 -1.14858 -.77111 -.0633 -47.125 203.989)" gradientUnits="userSpaceOnUse">
            <stop id="stop1133" offset="0" style="stop-color:#ed333b;stop-opacity:1"/>
            <stop id="stop1135" offset="1" style="stop-color:#a347ba;stop-opacity:1"/>
        </radialGradient>
        <radialGradient id="radial3" cx="525.588" cy="638.592" r="192" fx="525.588" fy="638.592" gradientTransform="matrix(-.2251 -.47764 -.6853 .548 725.68 15.724)" gradientUnits="userSpaceOnUse">
            <stop id="stop1138" offset="0" style="stop-color:#1c71d8;stop-opacity:1"/>
            <stop id="stop1140" offset="1" style="stop-color:#3584e4;stop-opacity:.00829876"/>
        </radialGradient>
        <radialGradient id="radial4" cx="-172.561" cy="28.569" r="15.857" fx="-172.561" fy="28.569" gradientTransform="matrix(1.56071 0 0 1.4252 300.694 13.35)" gradientUnits="userSpaceOnUse">
            <stop id="stop1156" offset="0" style="stop-color:#fff;stop-opacity:.358268"/>
            <stop id="stop1158" offset="1" style="stop-color:#fff;stop-opacity:.0944882"/>
        </radialGradient>
        <radialGradient id="radial5" cx="40" cy="227" r="28" fx="40" fy="227" gradientTransform="matrix(.57555 0 0 1.5407 8.978 -280.781)" gradientUnits="userSpaceOnUse">
            <stop id="stop1175" offset="0" style="stop-color:#fff;stop-opacity:1"/>
            <stop id="stop1177" offset=".745" style="stop-color:#fafafa;stop-opacity:1"/>
            <stop id="stop1179" offset="1" style="stop-color:#dfdfdf;stop-opacity:1"/>
        </radialGradient>
        <radialGradient xlink:href="#linearGradient6826" id="radialGradient1018" cx="106.667" cy="-60.348" r="225" fx="106.667" fy="-60.348" gradientTransform="matrix(.65171 0 0 .98043 -457.434 336.334)" gradientUnits="userSpaceOnUse"/>
        <radialGradient xlink:href="#linearGradient1034" id="radialGradient1020" cx="276.588" cy="218.278" r="225" fx="276.588" fy="218.278" gradientTransform="matrix(1.18177 0 0 1.5932 -593.129 39.705)" gradientUnits="userSpaceOnUse"/>
        <radialGradient xlink:href="#linearGradient1044" id="radialGradient1038" cx="317.765" cy="86.748" r="225" fx="317.765" fy="86.748" gradientTransform="matrix(1.18177 0 0 .83857 -593.129 -446.422)" gradientUnits="userSpaceOnUse"/>
        <mask id="mask-4" fill="#fff">
            <path id="use25" d="M45.051 6.703 39.15 0H18.423l-5.9 6.703s-5.182-1.44-7.63 1.01c0 0 6.91-.625 9.284 3.242 0 0 6.405 1.225 7.27 1.225.863 0 2.734-.72 4.461-1.297s2.879-.58 2.879-.58 1.151.003 2.878.58c1.728.576 3.599 1.297 4.462 1.297.864 0 7.269-1.225 7.269-1.225 2.375-3.867 9.284-3.243 9.284-3.243-2.447-2.45-7.629-1.009-7.629-1.009" style="stroke-width:.264583"/>
        </mask>
        <mask id="mask0">
            <g id="g1166" filter="url(#alpha)">
                <path id="rect1164" d="M0 0h128v128H0z" style="fill:#000;fill-opacity:.1;stroke:none"/>
            </g>
        </mask>
        <style id="style374">
            .cls-1{fill:none}
        </style>
        <g id="surface382" clip-path="url(#clip3)">
            <path id="path1172" d="M40 59.957c-13.809 0-25 11.195-25 25 .012 1.04.086 1.82.223 2.848 0-11.848 12.199-21.836 24.777-21.848 12.598.016 24.777 10 24.777 21.902.141-1.043.215-1.847.223-2.902 0-13.805-11.191-25-25-25m0 0" style="stroke:none;fill-rule:nonzero;fill:#453637;fill-opacity:1"/>
        </g>
    </defs>
    <g id="layer2">
        <rect id="rect440" width="105" height="105" x="11.5" y="15.5" ry="13" style="fill:url(#linearGradient8243);fill-opacity:1"/>
        <rect id="rect358" width="105" height="105" x="11.5" y="7.5" rx="12.9" ry="13" style="fill:url(#linearGradient1556);fill-opacity:1"/>
        <path id="path42913" d="M64 83.104V79.51" style="fill:#fff;fill-opacity:1;stroke-width:.216779"/>
        <rect id="rect926" width="99.551" height="99.551" x="14.225" y="10.225" rx="12" ry="12" style="fill:#b660c5;fill-opacity:1;stroke-width:.948101"/>
        <g id="g1567" transform="translate(-140.16 7.916)scale(.22838)">
            <g id="g985" aria-label="a" style="font-style:normal;font-variant:normal;font-weight:700;font-stretch:normal;font-size:322.102px;line-height:1.25;font-family:Montserrat;-inkscape-font-specification:&quot;Montserrat, Bold&quot;;font-variant-ligatures:normal;font-variant-caps:normal;font-variant-numeric:normal;font-feature-settings:normal;text-align:start;letter-spacing:0;word-spacing:0;writing-mode:lr-tb;text-anchor:start;fill:#fff;fill-opacity:1;stroke:none;stroke-width:.0601357" transform="translate(462.376 -709.764)scale(.61872)">
                <path id="path983" d="M812.203 1309.793c-27.701 0-55.724 7.408-74.728 20.937l18.038 35.109c12.562-9.985 31.566-16.105 49.925-16.105 27.057 0 42.192 14.417 42.192 35.997l-50.01-.235c-52.824-.249-74.402 26.624-74.402 57.224 0 29.955 22.046 51.657 62.631 51.657 25.446 0 52.44-7.53 61.781-23.312l.003 21.343 53.33-.01-.005-104.013c-.003-52.503-35.93-78.592-88.755-78.592m-11.68 151.609c-17.716 0-28.345-8.375-28.345-20.937 0-11.596 7.405-23.12 30.918-22.969l44.534.235.003 16.15c.003 16.814-30.361 27.52-47.11 27.52z" style="fill:#fff;stroke-width:.0601357"/>
            </g>
            <g id="text993" aria-label="a" style="font-style:normal;font-weight:400;font-size:40px;line-height:1000%;font-family:sans-serif;letter-spacing:0;word-spacing:0;fill:#000;fill-opacity:1;stroke:none;stroke-width:.0601357px;stroke-linecap:butt;stroke-linejoin:miter;stroke-opacity:1" transform="translate(602.847 -781.148)scale(4.39977)">
                <path id="path995" d="M55.306 221.924c-.945.774-1.612 1.05-2.446 1.05-1.278 0-1.668-.774-1.668-3.208V208.98c0-2.876-.277-4.48-1.111-5.808-1.223-1.992-4.574-3.043-7.853-3.043-5.225 0-9.339 2.71-9.339 6.196a2.4 2.4 0 0 0 2.39 2.379c1.334 0 2.502-1.107 2.502-2.324 0-.221-.056-.498-.111-.885a6.2 6.2 0 0 1-.167-1.328c0-1.493 1.779-2.71 4.002-2.71 2.724 0 4.673 1.604 4.673 4.591v4.399c-7.656 2.249-9.954 2.848-12.344 4.95-1.223 1.107-2.001 2.987-2.001 4.813 0 3.485 2.446 5.92 5.837 5.92 2.445 0 5.173-1.163 8.563-4.04.278 2.933 1.791 4.04 4.07 4.04 1.89 0 3.057-.665 5.003-2.767zm-9.128-3.153c0 1.66-.278 2.268-1.445 2.932-1.39.774-3.339 1.217-4.506 1.217-1.946 0-3.502-1.881-3.502-4.26v-.221c.055-3.32 2.95-4.397 9.453-6.665z" style="font-style:normal;font-variant:normal;font-weight:400;font-stretch:normal;font-family:&quot;Nimbus Roman&quot;;-inkscape-font-specification:&quot;Nimbus Roman, &quot;;fill:#fff;stroke-width:.0833673px"/>
            </g>
            <path id="path1011" d="M970.751 277.428q-6.031-.524-15.21 4.196t-18.62 14.162q-9.441 9.179-17.571 22.291-7.868 13.113-11.54 29.11-2.884 11.802-2.097 20.456.786 8.391 3.671 13.899 2.885 5.245 7.081 7.605 4.196 2.623 7.868 2.623 7.868-.525 15.735-3.41 6.818-2.622 14.423-8.13 7.606-5.769 13.9-16.259-.263 7.08.787 11.801 1.311 4.72 2.622 7.606 1.573 3.409 3.934 5.245 2.36 1.573 5.507 2.098 3.147.787 6.556.524a31.7 31.7 0 0 0 7.081-1.311q3.41-1.05 6.032-2.622 3.934-2.623 9.703-8.917 6.032-6.555 12.064-14.162a763 763 0 0 0 12.063-15.472q5.77-7.868 9.441-13.113 3.148-4.196 3.672-7.343.786-3.148-.262-4.72-1.05-1.575-3.147-1.05-2.099.264-4.196 2.623-1.575 2.098-5.245 6.556a2584 2584 0 0 1-7.868 10.228 421 421 0 0 1-9.703 12.064 352 352 0 0 1-9.703 11.276q-4.721 4.983-8.917 8.392-4.195 3.147-6.819 3.147-3.147 0-4.982-1.31-1.575-1.575-2.36-3.935a23 23 0 0 1-1.05-4.982q0-2.886.263-5.245l1.31-6.557a83 83 0 0 0 .788-4.458q.525-2.098.786-3.934.525-2.097 1.05-4.458a2085 2085 0 0 0 4.195-19.669q1.575-7.605 2.36-12.063.787-4.459.787-6.032 0-1.835-.262-2.36-.525-.264-2.098-.263-1.311 0-3.933.263-2.361.262-6.032 1.049 5.507-8.392 4.196-13.375-1.05-5.246-4.72-7.868-4.46-2.885-11.54-4.196m-6.176 16.404c.667.035 1.237.25 1.718.643q.786 1.048 1.049 2.884.262 1.574-.262 4.459-.263 2.621-2.36 6.818a36 36 0 0 1 4.195-.787q2.098-.263 3.41-.786 1.573-.525 2.884-.787 1.05-.262.263 4.196-.525 4.195-1.836 10.752a249 249 0 0 1-3.147 13.637q-1.836 7.081-3.147 12.326-.263 1.311-2.36 4.196-1.836 2.885-4.983 6.294-2.885 3.41-6.819 6.556-3.671 3.147-7.605 5.245-3.671 1.836-7.343 2.098-3.672 0-6.556-2.884-1.575-1.575-2.098-6.557-.525-5.245.262-12.063 1.05-6.819 3.41-14.424 2.359-7.867 6.293-14.686 9.44-16.522 16.522-22.554 5.509-4.722 8.51-4.576" style="font-style:normal;font-variant:normal;font-weight:400;font-stretch:normal;font-size:medium;line-height:1000%;font-family:Satisfy;-inkscape-font-specification:Satisfy;letter-spacing:0;word-spacing:0;fill:#fff;fill-opacity:1;stroke:none;stroke-width:.403728px;stroke-linecap:butt;stroke-linejoin:miter;stroke-opacity:1"/>
            <g id="g1022" style="stroke-width:.0601357" transform="translate(598.9 -772.348)scale(4.39977)">
                <path id="path1016" d="M37 68c-2.705-.038-2.705 4.038 0 4h9.88c.012.001.286.033.587.197.306.168.486.189.537.94v-.02l.246 5.194a7 7 0 0 0-.77-.252L47.244 78H38c-4.333 0-5.896 4.367-5.896 4.367l-.104.309V85c0 3.033 1.431 5.128 2.94 6.07S38 92 38 92h7.592l3.392-2.203.02.32c.09 2.736 4.223 2.493 3.992-.234l-1-17.01v-.01c-.14-2.065-1.462-3.546-2.607-4.174a5.85 5.85 0 0 0-2.258-.685L47.064 68Zm1 14h8.645c.106.031.525.141 1.037.482.558.373.877.69.894 1.356l.139 1.363L44.408 88H38s-.448-.013-.94-.32C36.57 87.372 36 86.967 36 85v-1.564c.103-.305.535-1.436 2-1.436" style="color:#000;font-style:normal;font-variant:normal;font-weight:400;font-stretch:normal;font-size:medium;line-height:normal;font-family:sans-serif;font-variant-ligatures:normal;font-variant-position:normal;font-variant-caps:normal;font-variant-numeric:normal;font-variant-alternates:normal;font-feature-settings:normal;text-indent:0;text-align:start;text-decoration:none;text-decoration-line:none;text-decoration-style:solid;text-decoration-color:#000;letter-spacing:normal;word-spacing:normal;text-transform:none;writing-mode:lr-tb;direction:ltr;text-orientation:mixed;dominant-baseline:auto;baseline-shift:baseline;text-anchor:start;white-space:normal;shape-padding:0;clip-rule:nonzero;display:inline;overflow:visible;visibility:visible;opacity:1;isolation:auto;mix-blend-mode:normal;color-interpolation:sRGB;color-interpolation-filters:linearRGB;solid-color:#000;solid-opacity:1;vector-effect:none;fill:#fff;fill-opacity:1;fill-rule:evenodd;stroke:none;stroke-width:.240543;stroke-linecap:round;stroke-linejoin:miter;stroke-miterlimit:4;stroke-dasharray:none;stroke-dashoffset:0;stroke-opacity:1;color-rendering:auto;image-rendering:auto;shape-rendering:auto;text-rendering:auto" transform="translate(0 172)"/>
            </g>
        </g>
    </g>
</svg>
