<svg xmlns="http://www.w3.org/2000/svg" xmlns:xlink="http://www.w3.org/1999/xlink" xml:space="preserve" width="128" height="128" viewBox="0 0 128 128">
    <defs>
        <linearGradient id="a">
            <stop offset="0" style="stop-color:#c7c6e9;stop-opacity:1"/>
            <stop offset="1" style="stop-color:#b14ae6;stop-opacity:.99607843"/>
        </linearGradient>
        <linearGradient id="b">
            <stop offset="0" style="stop-color:#5748a7;stop-opacity:1"/>
            <stop offset=".3" style="stop-color:#783ba6;stop-opacity:1"/>
            <stop offset=".5" style="stop-color:#8838c1;stop-opacity:1"/>
            <stop offset=".7" style="stop-color:#75379f;stop-opacity:1"/>
            <stop offset="1" style="stop-color:#67318c;stop-opacity:1"/>
        </linearGradient>
        <linearGradient id="c">
            <stop offset="0" style="stop-color:#8381c5;stop-opacity:1"/>
            <stop offset="1" style="stop-color:#953ec1;stop-opacity:.99607843"/>
        </linearGradient>
        <linearGradient xlink:href="#a" id="e" x1="25.109" x2="106.685" y1="21.109" y2="102.685" gradientUnits="userSpaceOnUse"/>
        <linearGradient xlink:href="#b" id="d" x1="9" x2="119" y1="115" y2="115" gradientUnits="userSpaceOnUse"/>
        <linearGradient xlink:href="#c" id="f" x1="25.109" x2="106.685" y1="21.109" y2="102.685" gradientTransform="translate(2.921 2.739)scale(.95435)" gradientUnits="userSpaceOnUse"/>
    </defs>
    <path d="M64 5A55 55 0 0 0 9 60v8a55 55 0 0 0 55 55 55 55 0 0 0 55-55v-8A55 55 0 0 0 64 5" style="fill:url(#d);fill-opacity:1"/>
    <circle cx="64" cy="60" r="55" style="fill:url(#e);fill-opacity:1;stroke-width:1"/>
    <circle cx="64" cy="60" r="52.489" style="fill:url(#f);fill-opacity:1;stroke-width:.954354"/>
    <path d="M77.047 30.998a11.4 11.4 0 0 0-1.926.184c-4.826.88-16.457 4.26-16.457 4.26v2c12.653-.11 16.031.063 17.393 1.13-.647.474-1.808.915-3.659 1.217-4.174.682-12.851 1.504-12.851 1.504-8.325.494-14.189.526-15.947 4.25a3.06 3.06 0 0 0-.297 1.492l-.01-.002v1.92l.006.004c.048 1.842 1.733 3.437 2.566 4.516 4.398 4.89 10.75 7.528 14.838 9.47.066.031.196.076.272.11-10.29.537-17.905 4.058-22.664 8.035-2.19 2.025-3.29 4.185-3.258 6.322h-.002v2.076l.008.002c.112 4.03 4.252 7.975 12.716 10.78 7.682 2.545 11.493 3.742 22.952 2.71 2.175-.117 3.712-.168 4.863-.173-2.335.758-5.355 1.549-6.553 1.894-5.272 1.521-19.093 4.593-19.162 4.608v2s3.975.28 9.088-.17c2.07-.183 9.931-.955 15.808-2.244 0 0 7.167-1.533 11-2.946 4.012-1.478 6.194-2.734 7.176-4.511-.011-.098.002-.263-.004-.465l.006-.002v-1.957c-.007-.554-.161-1.426-1.549-2.008-4.73-1.984-10.214-1.625-21.068-1.856-12.036-.413-16.039-2.428-18.172-4.05a2.33 2.33 0 0 1-.717-1.01c.628-2.073 3.083-4.738 8.463-7.201 4.415-2.136 21.72-6.078 21.72-6.078v-2c-5.827-2.881-16.695-7.946-18.929-9.04-1.806-.884-4.609-2.181-5.568-3.748.656-.941 2.105-1.664 3.06-1.937 4.66-1.344 11.24-2.18 17.227-2.274 3.01-.047 3.498-.242 3.498-.242 3.856-.64 6.483-3.136 5.928-7.091.137-.88.093-1.86-.18-2.938-.895-4.019-5.136-6.588-9.615-6.541z" style="fill:#000;fill-opacity:.3;fill-rule:evenodd;stroke:#000;stroke-width:0;stroke-linecap:butt;stroke-linejoin:miter;stroke-miterlimit:4;stroke-dasharray:none;stroke-opacity:1" transform="translate(0 -3.195)"/>
    <path d="M77.047 28.998a11.4 11.4 0 0 0-1.926.184c-4.826.88-16.457 4.26-16.457 4.26v2c12.653-.11 16.031.063 17.393 1.13-.647.474-1.808.915-3.659 1.217-4.174.682-12.851 1.504-12.851 1.504-8.325.494-14.189.526-15.947 4.25a3.06 3.06 0 0 0-.297 1.492l-.01-.002v1.92l.006.004c.048 1.842 1.733 3.437 2.566 4.516 4.398 4.89 10.75 7.528 14.838 9.47.066.031.196.076.272.11-10.29.537-17.905 4.058-22.664 8.035-2.19 2.025-3.29 4.185-3.258 6.322h-.002v2.076l.008.002c.112 4.03 4.252 7.975 12.716 10.78 7.682 2.545 11.493 3.742 22.952 2.71 2.175-.117 3.712-.168 4.863-.173-2.335.758-5.355 1.549-6.553 1.894-5.272 1.521-19.093 4.593-19.162 4.608v2s3.975.28 9.088-.17c2.07-.183 9.931-.955 15.808-2.244 0 0 7.167-1.533 11-2.946 4.012-1.478 6.194-2.734 7.176-4.511-.011-.098.002-.263-.004-.465l.006-.002v-1.957c-.007-.554-.161-1.426-1.549-2.008-4.73-1.984-10.214-1.625-21.068-1.856-12.036-.413-16.039-2.428-18.172-4.05a2.33 2.33 0 0 1-.717-1.01c.628-2.073 3.083-4.738 8.463-7.201 4.415-2.136 21.72-6.078 21.72-6.078v-2c-5.827-2.881-16.695-7.946-18.929-9.04-1.806-.884-4.609-2.181-5.568-3.748.656-.941 2.105-1.664 3.06-1.937 4.66-1.344 11.24-2.18 17.227-2.274 3.01-.047 3.498-.242 3.498-.242 3.856-.64 6.483-3.136 5.928-7.091.137-.88.093-1.86-.18-2.938-.895-4.019-5.136-6.588-9.615-6.541z" style="fill:#c6afe9;fill-opacity:1;fill-rule:evenodd;stroke:#000;stroke-width:0;stroke-linecap:butt;stroke-linejoin:miter;stroke-miterlimit:4;stroke-dasharray:none;stroke-opacity:1" transform="translate(0 -3.195)"/>
    <path d="M49.875 97.306s3.974.282 9.087-.169c2.07-.182 9.932-.955 15.81-2.244 0 0 7.166-1.533 11-2.946 4.01-1.478 6.194-2.733 7.176-4.51-.043-.365.303-1.657-1.547-2.433-4.73-1.983-10.215-1.625-21.068-1.855-12.036-.413-16.04-2.428-18.173-4.05-2.045-1.647-1.017-6.2 7.747-10.212 4.414-2.136 21.72-6.078 21.72-6.078-5.829-2.88-16.696-7.945-18.93-9.039-1.96-.959-5.095-2.403-5.775-4.15-.77-1.678 1.82-3.123 3.267-3.536 4.66-1.345 11.24-2.18 17.227-2.274 3.01-.047 3.498-.24 3.498-.24 4.152-.69 6.886-3.53 5.747-8.03-1.022-4.593-6.415-7.292-11.54-6.358-4.826.88-16.458 4.259-16.458 4.259 14.378-.124 16.785.115 17.86 1.618.634.888-.29 2.104-4.124 2.73-4.174.682-12.852 1.504-12.852 1.504-8.325.494-14.189.527-15.948 4.25-1.149 2.433 1.226 4.584 2.266 5.93 4.398 4.89 10.75 7.528 14.839 9.47 1.538.732 6.052 2.112 6.052 2.112-13.264-.73-22.833 3.343-28.446 8.033-6.348 5.872-3.54 12.87 9.466 17.18 7.682 2.546 11.492 3.743 22.95 2.711 6.75-.364 7.813-.147 7.88.407.095.78-7.496 2.716-9.568 3.314-5.273 1.52-19.094 4.592-19.163 4.606z" style="fill:#fff;fill-opacity:1;fill-rule:evenodd;stroke:#000;stroke-width:0;stroke-linecap:butt;stroke-linejoin:miter;stroke-miterlimit:4;stroke-dasharray:none;stroke-opacity:1" transform="translate(0 -3.195)"/>
</svg>
