<svg xmlns="http://www.w3.org/2000/svg" xmlns:xlink="http://www.w3.org/1999/xlink" xml:space="preserve" width="128" height="128" viewBox="0 0 128 128">
    <defs>
        <linearGradient id="f">
            <stop offset="0" style="stop-color:#f60;stop-opacity:1"/>
            <stop offset="1" style="stop-color:#f95;stop-opacity:1"/>
        </linearGradient>
        <linearGradient id="e">
            <stop offset="0" style="stop-color:#c75b0a;stop-opacity:1"/>
            <stop offset=".047" style="stop-color:#d96914;stop-opacity:1"/>
            <stop offset=".1" style="stop-color:#c75b0a;stop-opacity:1"/>
            <stop offset=".896" style="stop-color:#c75b0a;stop-opacity:1"/>
            <stop offset=".953" style="stop-color:#d96914;stop-opacity:1"/>
            <stop offset="1" style="stop-color:#c75b0a;stop-opacity:1"/>
        </linearGradient>
        <linearGradient id="d">
            <stop offset="0" style="stop-color:#d45500;stop-opacity:1"/>
            <stop offset=".498" style="stop-color:#ee791d;stop-opacity:1"/>
            <stop offset="1" style="stop-color:#f95;stop-opacity:1"/>
        </linearGradient>
        <linearGradient id="c">
            <stop offset="0" style="stop-color:#d45500;stop-opacity:1"/>
            <stop offset=".504" style="stop-color:#ee791d;stop-opacity:1"/>
            <stop offset="1" style="stop-color:#f95;stop-opacity:1"/>
        </linearGradient>
        <linearGradient id="b">
            <stop offset="0" style="stop-color:#b3b3b3;stop-opacity:1"/>
            <stop offset="1" style="stop-color:#fff;stop-opacity:1"/>
        </linearGradient>
        <linearGradient id="a">
            <stop offset="0" style="stop-color:#b3b3b3;stop-opacity:1"/>
            <stop offset="1" style="stop-color:#fff;stop-opacity:1"/>
        </linearGradient>
        <linearGradient xlink:href="#a" id="l" x1="47.499" x2="80.503" y1="38.786" y2="38.786" gradientTransform="matrix(.99171 0 0 .95508 .535 4.477)" gradientUnits="userSpaceOnUse"/>
        <linearGradient xlink:href="#b" id="j" x1="34.299" x2="93.701" y1="87.026" y2="87.026" gradientTransform="matrix(.99171 0 0 .95508 .535 4.477)" gradientUnits="userSpaceOnUse"/>
        <linearGradient xlink:href="#c" id="k" x1="39.577" x2="88.425" y1="63.342" y2="63.342" gradientTransform="matrix(.99171 0 0 .95508 .535 4.477)" gradientUnits="userSpaceOnUse"/>
        <linearGradient xlink:href="#d" id="g" x1="54.096" x2="73.906" y1="19.229" y2="19.229" gradientTransform="matrix(.99171 0 0 .95508 .535 4.477)" gradientUnits="userSpaceOnUse"/>
        <linearGradient xlink:href="#e" id="h" x1="-54.173" x2="34.292" y1="104.235" y2="104.235" gradientTransform="matrix(1.10863 0 0 1.19337 75.02 -28.952)" gradientUnits="userSpaceOnUse"/>
        <linearGradient xlink:href="#f" id="i" x1="64.001" x2="64.001" y1="69.872" y2="112.684" gradientTransform="translate(-8.542 -15.882)scale(1.13347)" gradientUnits="userSpaceOnUse"/>
    </defs>
    <path d="M64.004 13.073a5.225 1.796 0 0 0-5.139 1.49l-.086.306-.17.527-4.197 13.075a9.824 3.425 0 0 0-.23.715 9.824 3.425 0 0 0 9.824 3.424 9.824 3.425 0 0 0 9.82-3.419 9.824 3.425 0 0 0 .002 0v-.002a9.824 3.425 0 0 0 0-.002 9.824 3.425 0 0 0 0-.001 9.824 3.425 0 0 0-.246-.76L69.4 15.396l-.17-.527-.085-.304a5.225 1.796 0 0 0-5.141-1.492" style="fill:url(#g);fill-opacity:1;stroke-width:3.717;stroke-linecap:round;stroke-linejoin:round;paint-order:markers stroke fill"/>
    <path d="M28.414 74.265c-2.457 0-3.827 2.211-4.435 4.774l-8.918 28.027a3.3 3.3 0 0 0-.085.877c-.001-.04-.006-.08-.006-.12h-.009v7.161h.009c-.001 2.225 2.306 4.016 4.516 4.016h89.024c2.21 0 4.517-1.791 4.517-4.016h.011v-7.16h-.002c0-.248-.021-.5-.082-.758l-8.919-28.027c-.608-2.563-1.978-4.774-4.434-4.774zm-13.357 34.284c.01.05.027.1.04.149-.013-.05-.03-.099-.04-.15m.292.801q.031.058.065.115-.034-.057-.065-.115m96.32 1.241q-.106.092-.218.179.112-.087.218-.18m-.671.503c-.107.067-.219.123-.331.182.112-.058.224-.116.331-.182m-.784.401c-.137.055-.279.09-.42.133.141-.042.283-.079.42-.133m-.831.252" style="fill:url(#h);stroke-width:1.72532;stroke-linecap:round;stroke-linejoin:round;paint-order:markers stroke fill"/>
    <path d="M28.406 74.264h71.188c2.456 0 3.636 2.264 4.434 4.774l8.919 28.029c.798 2.51-1.978 4.773-4.435 4.773H19.488c-2.457 0-5.233-2.264-4.435-4.773l8.919-28.03c.798-2.509 1.978-4.773 4.434-4.773" style="fill:url(#i);fill-opacity:1;stroke-width:1.72532;stroke-linecap:round;stroke-linejoin:round;paint-order:markers stroke fill"/>
    <path d="M39.785 74.024 34.55 90.322a29.455 11.362 0 0 0 29.455 11.362A29.455 11.362 0 0 0 93.46 90.322l-5.234-16.298a24.222 6.37 0 0 1-24.22 6.37 24.222 6.37 0 0 1-24.22-6.37" style="fill:url(#j);fill-opacity:1;stroke-width:3.717;stroke-linecap:round;stroke-linejoin:round;paint-order:markers stroke fill"/>
    <path d="m47.638 49.553-7.552 23.525a24.222 6.37 0 0 0-.302.947 24.222 6.37 0 0 0 24.223 6.37 24.222 6.37 0 0 0 24.22-6.37 24.222 6.37 0 0 0-.351-1.08L80.37 49.568A29.455 11.362 0 0 1 64 51.483a29.455 11.362 0 0 1-16.363-1.93" style="fill:url(#k);fill-opacity:1;stroke-width:3.717;stroke-linecap:round;stroke-linejoin:round;paint-order:markers stroke fill"/>
    <path d="M54.182 29.186 47.85 48.907a16.365 4.303 0 0 0-.209.646 16.365 4.303 0 0 0 16.367 4.303 16.365 4.303 0 0 0 16.36-4.288 29.455 11.362 0 0 0 .004 0l-.002-.006a16.365 4.303 0 0 0 .002-.01 16.365 4.303 0 0 0-.24-.73l-6.302-19.63a9.824 3.425 0 0 0-.002 0 9.824 3.425 0 0 1-9.82 3.419 9.824 3.425 0 0 1-9.824-3.425z" style="fill:url(#l);fill-opacity:1;stroke-width:3.717;stroke-linecap:round;stroke-linejoin:round;paint-order:markers stroke fill"/>
    <path d="M34.62 90.037a29.455 12.093 0 0 0-.072.454l5.235 17.345a24.222 6.779 0 0 0 .301 1.01l.213.701.42 1.691h.005l.15.603h46.264l.138-.554h-.005l.43-1.713.004-.018.002-.01.17-.56a24.222 6.779 0 0 0 .353-1.15L93.46 90.49a29.455 12.093 0 0 0-.046-.27 29.455 12.093 0 0 1-29.41 11.465 29.455 12.093 0 0 1-29.384-11.65" style="fill:#f07e25;fill-opacity:1;stroke-width:3.83472;stroke-linecap:round;stroke-linejoin:round;paint-order:markers stroke fill"/>
    <path d="M15.03 107.203c-.485 2.503 2.047 4.638 4.459 4.638h89.024c2.412 0 4.942-2.135 4.457-4.638-.394 1.913-2.467 3.362-4.457 3.362H19.489c-1.99 0-4.065-1.45-4.459-3.362" style="fill:#ffb380;fill-opacity:1;stroke-width:1.72532;stroke-linecap:round;stroke-linejoin:round;paint-order:markers stroke fill"/>
    <ellipse cx="64.005" cy="14.525" rx="5.119" ry="1.453" style="fill:#f95;fill-opacity:1;stroke-width:1.96308;stroke-linecap:round;stroke-linejoin:round;paint-order:markers stroke fill"/>
</svg>
