<svg xmlns="http://www.w3.org/2000/svg" xmlns:xlink="http://www.w3.org/1999/xlink" xml:space="preserve" width="128" height="128" viewBox="0 0 128 128">
    <defs>
        <linearGradient xlink:href="#a" id="b" x1="9" x2="119" y1="64" y2="64" gradientTransform="translate(59 9)" gradientUnits="userSpaceOnUse"/>
        <linearGradient id="a">
            <stop offset="0" style="stop-color:#999;stop-opacity:1"/>
            <stop offset=".4" style="stop-color:#999;stop-opacity:1"/>
            <stop offset=".5" style="stop-color:#b3b3b3;stop-opacity:1"/>
            <stop offset=".6" style="stop-color:#999;stop-opacity:1"/>
            <stop offset="1" style="stop-color:#999;stop-opacity:1"/>
        </linearGradient>
    </defs>
    <g transform="translate(-59 -9)">
        <path d="M123 14a55 55 0 0 0-55 55v8a55 55 0 0 0 55 55 55 55 0 0 0 55-55v-8a55 55 0 0 0-55-55" style="fill:url(#b);fill-opacity:1;stroke-width:1"/>
        <path d="M145.045 119.28a55 55 0 0 0 5.455-2.649 55 55 0 0 0 25.554-61.834l-51.179 29.548z" style="fill:#5fbcd3;fill-opacity:1;stroke-width:1"/>
        <path d="M84.174 107.844a55 55 0 0 0 46.509 15.493l-18.336-31.759Z" style="fill:#c8b7b7;fill-opacity:1;stroke-width:1"/>
        <path d="M79.784 35.178A55 55 0 0 0 75.37 96.5a55 55 0 0 0 .674.996l-.193-.335a1.05 1.05 0 0 1 .384-1.436l28.88-16.674Z" style="fill:#b7c8be;fill-opacity:1;stroke-width:1"/>
        <path d="M124.971 14.04a55 55 0 0 0-29.47 7.33 55 55 0 0 0-2.27 1.534l-.041-.072-2.742 1.941-.004-.005-.08.064-.149.105.006.01a55 55 0 0 0-10.473 10.23l25.33 43.874 11.93-6.887.002.004.63-.357.003.007.916-.529 1.606-.91-.008-.012 50.351-29.07a55 55 0 0 0-45.537-27.258" style="fill:#5fd38d;fill-opacity:1;stroke-width:1"/>
        <path d="M76.234 95.725a1.05 1.05 0 0 0-.384 1.436l.193.335a55 55 0 0 0 8.13 10.348l91.88-53.047a55 55 0 0 0-5.421-13.297l-.125-.203z" style="fill:#e5e5e5;fill-opacity:1;stroke-width:6.29291;stroke-linecap:square;stroke-linejoin:round;paint-order:markers stroke fill"/>
        <path d="m100.041 19.078 12.287 21.282 27.008-15.593-5.546-9.606a55 55 0 0 0-8.819-1.122 55 55 0 0 0-24.93 5.039" style="fill:#4fc77f;fill-opacity:1;stroke-width:10.4194;stroke-linecap:square;stroke-linejoin:round;paint-order:markers stroke fill"/>
        <rect width="31.185" height="20.804" x="77.099" y="95.666" rx="0" ry="0" style="fill:#4fc77f;fill-opacity:1;stroke-width:8.51022;stroke-linecap:square;stroke-linejoin:round;paint-order:markers stroke fill" transform="rotate(-30)"/>
        <path d="m143.556 18.025 14.54 25.184 9.9-5.716a55 55 0 0 0-24.44-19.468" style="fill:#4fc77f;fill-opacity:1;stroke-width:14.0293;stroke-linecap:square;stroke-linejoin:round;paint-order:markers stroke fill"/>
        <path d="M133.367 27.777c-8.712 0-15.758 7.046-15.758 15.758 0 11.818 15.758 29.263 15.758 29.263s15.758-17.445 15.758-29.263c0-8.712-7.046-15.758-15.758-15.758m0 7.688a7.81 7.81 0 0 1 7.812 7.812 7.81 7.81 0 0 1-7.812 7.81 7.81 7.81 0 0 1-7.812-7.81 7.81 7.81 0 0 1 7.812-7.812" style="fill:#d32f2f;fill-opacity:1;stroke-width:2.25107"/>
        <path d="M133.367 22.355c-8.712 0-15.758 7.047-15.758 15.758 0 11.819 15.758 29.264 15.758 29.264s15.758-17.445 15.758-29.264c0-8.711-7.046-15.758-15.758-15.758m0 7.689a7.81 7.81 0 0 1 7.812 7.812 7.81 7.81 0 0 1-7.812 7.81 7.81 7.81 0 0 1-7.812-7.81 7.81 7.81 0 0 1 7.812-7.812" style="fill:#ef5350;fill-opacity:1;stroke-width:2.25107"/>
        <path d="M145.045 119.281a55 55 0 0 1-14.363 4.057v8.111a55 55 0 0 0 14.363-4.12zM75.85 97.16v7.961a55 55 0 0 0 8.324 10.637v-7.914a55 55 0 0 1-8.13-10.348Z" style="fill:#8c8c8c;fill-opacity:1;stroke-width:6.29291;stroke-linecap:square;stroke-linejoin:round;paint-order:markers stroke fill"/>
        <path d="m68.131 68.574-.13.426v8a55 55 0 0 0 7.849 28.121v-7.91a55 55 0 0 1-.48-.711 55 55 0 0 1-7.239-27.926m7.6 27.858a1.04 1.04 0 0 0 .119.728z" style="fill:#55705f;fill-opacity:1;stroke-width:6.29291;stroke-linecap:square;stroke-linejoin:round;paint-order:markers stroke fill"/>
        <path d="M176.053 54.797A55 55 0 0 1 150.5 116.63a55 55 0 0 1-5.455 2.65v8.047h.002A55 55 0 0 0 178 77v-8a55 55 0 0 0-1.875-14.203z" style="fill:#236a7c;fill-opacity:1;stroke-width:6.29291;stroke-linecap:square;stroke-linejoin:round;paint-order:markers stroke fill"/>
        <path d="M84.174 107.844v7.914A55 55 0 0 0 123 132a55 55 0 0 0 7.68-.55h.002v-8.112a55 55 0 0 1-46.508-15.494" style="fill:#766;fill-opacity:1;stroke-width:6.29291;stroke-linecap:square;stroke-linejoin:round;paint-order:markers stroke fill"/>
        <path d="m124.875 84.346-12.529 7.232 18.336 31.76a55 55 0 0 0 14.363-4.057zm-45.11-49.141a55 55 0 0 0-8.193 14.743L92.55 86.282l12.53-7.232Z" style="fill:#f2f2f2;fill-opacity:1;stroke-width:6.29291;stroke-linecap:square;stroke-linejoin:round;paint-order:markers stroke fill"/>
        <path d="m93.19 22.832-2.742 1.942-.004-.007-.08.065-.149.106.006.01a55 55 0 0 0-5.487 4.754l24.21 41.934 9.998-5.77-25.058-43.402a55 55 0 0 0-.653.44z" style="fill:#4fc77f;fill-opacity:1;stroke-width:5.93773;stroke-linecap:square;stroke-linejoin:round;paint-order:markers stroke fill"/>
        <path d="M123 14a55 55 0 0 0-55 55v2.5a55 55 0 0 1 55-55 55 55 0 0 1 55 55V69a55 55 0 0 0-55-55" style="fill:#fff;fill-opacity:.504585;stroke-width:1"/>
        <path d="M133.367 22.355c-8.712 0-15.758 7.047-15.758 15.758q.001.562.047 1.139c.599-8.163 7.394-14.588 15.711-14.588 8.319 0 15.114 6.427 15.711 14.592q.046-.579.047-1.143c0-8.711-7.046-15.758-15.758-15.758m7.7 16.5a7.81 7.81 0 0 1-7.7 6.811 7.81 7.81 0 0 1-7.683-6.654 8 8 0 0 0-.13 1.154 7.81 7.81 0 0 0 7.813 7.809 7.81 7.81 0 0 0 7.813-7.809 8 8 0 0 0-.114-1.31" style="fill:#ff8080;fill-opacity:1;stroke-width:2.25107"/>
    </g>
</svg>
