<svg xmlns="http://www.w3.org/2000/svg" xmlns:xlink="http://www.w3.org/1999/xlink" xml:space="preserve" width="128" height="128" viewBox="0 0 128 128">
    <defs>
        <linearGradient id="b">
            <stop offset="0" style="stop-color:#fc7845;stop-opacity:1"/>
            <stop offset=".5" style="stop-color:#ffa480;stop-opacity:1"/>
            <stop offset="1" style="stop-color:#faebe5;stop-opacity:1"/>
        </linearGradient>
        <linearGradient id="a">
            <stop offset="0" style="stop-color:#7b2503;stop-opacity:1"/>
            <stop offset=".3" style="stop-color:#ba4516;stop-opacity:1"/>
            <stop offset=".5" style="stop-color:#ee6d46;stop-opacity:1"/>
            <stop offset=".7" style="stop-color:#bd4213;stop-opacity:1"/>
            <stop offset="1" style="stop-color:#802a05;stop-opacity:1"/>
        </linearGradient>
        <linearGradient xlink:href="#a" id="c" x1="9" x2="119" y1="115" y2="115" gradientUnits="userSpaceOnUse"/>
        <linearGradient xlink:href="#b" id="d" x1="64" x2="64" y1="115" y2="7.511" gradientUnits="userSpaceOnUse"/>
        <filter id="e" width="1.095" height="1.097" x="-.047" y="-.049" style="color-interpolation-filters:sRGB">
            <feGaussianBlur stdDeviation="1.428"/>
        </filter>
    </defs>
    <path d="M64 5A55 55 0 0 0 9 60v8a55 55 0 0 0 55 55 55 55 0 0 0 55-55v-8A55 55 0 0 0 64 5" style="fill:url(#c);fill-opacity:1"/>
    <circle cx="64" cy="60" r="55" style="display:inline;fill:url(#d);fill-opacity:1;stroke-width:1"/>
    <ellipse cx="64" cy="60.187" rx="52.489" ry="52.676" style="display:inline;fill:#ff6d38;fill-opacity:1;stroke-width:.956048"/>
    <g style="fill:#ae2600;fill-opacity:1;filter:url(#e)" transform="translate(61.02 3.06)scale(.93587)">
        <path fill="#fff" d="M-14.517 70.532a.23.23 0 0 0 .264.118l9.6-2.035-4.038-4.024-5.754 5.658a.217.217 0 0 0-.072.283M30.435 30a9.1 9.1 0 0 0-3.864.867 8.9 8.9 0 0 0-3.104 2.424 8.7 8.7 0 0 0-1.734 3.505 8.65 8.65 0 0 0-.024 3.898 8.74 8.74 0 0 0 1.69 3.525 8.9 8.9 0 0 0 3.075 2.46 9.07 9.07 0 0 0 7.73.1l-6.085-5.982a.74.74 0 0 1-.22-.522.73.73 0 0 1 .22-.522l7.95-7.812A9.04 9.04 0 0 0 30.435 30" style="fill:#ae2600;fill-opacity:1;stroke-width:3.71862"/>
        <path fill="#fff" d="m37.161 32.956-7.452 7.298L35.553 46a8.5 8.5 0 0 0 1.2-1.003 8.78 8.78 0 0 0 2.61-5.942 8.76 8.76 0 0 0-2.202-6.1M22.25 46.426h-.131a2.4 2.4 0 0 0-.462.04h-.054a4 4 0 0 0-.492.143l-.126.059q-.181.073-.348.177l-.132.082q-.218.15-.408.33L-2.001 68.994l2.736 2.69 23.4-20.195q.198-.171.36-.378l.102-.13q.12-.173.216-.36a3.3 3.3 0 0 0 .198-.501c0-.07.042-.142.06-.212q.045-.22.06-.443v-.513c0-.106 0-.142-.03-.213a2.86 2.86 0 0 0-.795-1.47 2.93 2.93 0 0 0-1.491-.79H22.7a3 3 0 0 0-.45-.052m-29.91 17.12 4.537 4.437 22.158-21.789a4.47 4.47 0 0 1 2.664-1.221c-3.918-2.95-8.19-2.177-29.358 18.573m33.042-11.21-.27.26-23.4 20.19 3.978 3.906c9.864-9.175 18.618-17.913 19.692-24.356m-58.368 47.3a.21.21 0 0 0 .192.153l10.2.69-5.718-5.622-4.626 4.543a.22.22 0 0 0-.048.236m5.742-5.823 6.03 5.93a.46.46 0 0 0 .57.076.45.45 0 0 0 .21-.215.44.44 0 0 0 .024-.298l-1.014-4.26a1.25 1.25 0 0 1 .085-.824c.12-.257.325-.468.58-.598 10.573-5.21 19.099-10.573 25.357-15.93l-4.2-4.13-9 1.906Zm26.353-21.5-2.257-2.218-3.12 3.062a.146.146 0 0 0 0 .189.14.14 0 0 0 .072.07.15.15 0 0 0 .102.007z" style="fill:#ae2600;fill-opacity:1;stroke-width:3.71862"/>
        <path fill="#ff6c37" d="M37.371 37.711a.68.68 0 0 0-.389-.417.705.705 0 0 0-.808.192.68.68 0 0 0-.152.546.7.7 0 0 0 .107.27 2.02 2.02 0 0 1-.258 2.218.678.678 0 0 0 .162 1.013.7.7 0 0 0 .667.041.7.7 0 0 0 .24-.181 3.37 3.37 0 0 0 .432-3.682" style="fill:#ae2600;fill-opacity:1;stroke-width:3.71862"/>
    </g>
    <path fill="#fff" d="M-14.517 70.532a.23.23 0 0 0 .264.118l9.6-2.035-4.038-4.024-5.754 5.658a.217.217 0 0 0-.072.283M30.435 30a9.1 9.1 0 0 0-3.864.867 8.9 8.9 0 0 0-3.104 2.424 8.7 8.7 0 0 0-1.734 3.505 8.65 8.65 0 0 0-.024 3.898 8.74 8.74 0 0 0 1.69 3.525 8.9 8.9 0 0 0 3.075 2.46 9.07 9.07 0 0 0 7.73.1l-6.085-5.982a.74.74 0 0 1-.22-.522.73.73 0 0 1 .22-.522l7.95-7.812A9.04 9.04 0 0 0 30.435 30" style="stroke-width:3.71862" transform="translate(61.02 -.87)scale(.93587)"/>
    <path fill="#fff" d="m37.161 32.956-7.452 7.298L35.553 46a8.5 8.5 0 0 0 1.2-1.003 8.78 8.78 0 0 0 2.61-5.942 8.76 8.76 0 0 0-2.202-6.1M22.25 46.426h-.131a2.4 2.4 0 0 0-.462.04h-.054a4 4 0 0 0-.492.143l-.126.059q-.181.073-.348.177l-.132.082q-.218.15-.408.33L-2.001 68.994l2.736 2.69 23.4-20.195q.198-.171.36-.378l.102-.13q.12-.173.216-.36a3.3 3.3 0 0 0 .198-.501c0-.07.042-.142.06-.212q.045-.22.06-.443v-.513c0-.106 0-.142-.03-.213a2.86 2.86 0 0 0-.795-1.47 2.93 2.93 0 0 0-1.491-.79H22.7a3 3 0 0 0-.45-.052m-29.91 17.12 4.537 4.437 22.158-21.789a4.47 4.47 0 0 1 2.664-1.221c-3.918-2.95-8.19-2.177-29.358 18.573m33.042-11.21-.27.26-23.4 20.19 3.978 3.906c9.864-9.175 18.618-17.913 19.692-24.356m-58.368 47.3a.21.21 0 0 0 .192.153l10.2.69-5.718-5.622-4.626 4.543a.22.22 0 0 0-.048.236m5.742-5.823 6.03 5.93a.46.46 0 0 0 .57.076.45.45 0 0 0 .21-.215.44.44 0 0 0 .024-.298l-1.014-4.26a1.25 1.25 0 0 1 .085-.824c.12-.257.325-.468.58-.598 10.573-5.21 19.099-10.573 25.357-15.93l-4.2-4.13-9 1.906Zm26.353-21.5-2.257-2.218-3.12 3.062a.146.146 0 0 0 0 .189.14.14 0 0 0 .072.07.15.15 0 0 0 .102.007z" style="stroke-width:3.71862" transform="translate(61.02 -.87)scale(.93587)"/>
    <path fill="#ff6c37" d="M37.371 37.711a.68.68 0 0 0-.389-.417.705.705 0 0 0-.808.192.68.68 0 0 0-.152.546.7.7 0 0 0 .107.27 2.02 2.02 0 0 1-.258 2.218.678.678 0 0 0 .162 1.013.7.7 0 0 0 .667.041.7.7 0 0 0 .24-.181 3.37 3.37 0 0 0 .432-3.682" style="stroke-width:3.71862" transform="translate(61.02 -.87)scale(.93587)"/>
</svg>
