<?xml version="1.0" encoding="UTF-8" standalone="no"?>
<!-- Created with Inkscape (http://www.inkscape.org/) -->
<svg width="128" height="128" viewBox="0 0 128 128" version="1.1" id="svg5" inkscape:version="1.4.2 (ebf0e940d0, 2025-05-08)" sodipodi:docname="postman.svg" inkscape:export-filename="/home/retro/.icons/skeuowaita/scalable/apps/skeuowaita.png" inkscape:export-xdpi="1536" inkscape:export-ydpi="1536" xml:space="preserve" xmlns:inkscape="http://www.inkscape.org/namespaces/inkscape" xmlns:sodipodi="http://sodipodi.sourceforge.net/DTD/sodipodi-0.dtd" xmlns:xlink="http://www.w3.org/1999/xlink" xmlns="http://www.w3.org/2000/svg" xmlns:svg="http://www.w3.org/2000/svg">
  <sodipodi:namedview id="namedview7" pagecolor="#ffffff" bordercolor="#666666" borderopacity="1" inkscape:pageshadow="2" inkscape:pageopacity="0.0" inkscape:pagecheckerboard="true" inkscape:document-units="px" showgrid="false" inkscape:showpageshadow="false" showborder="true" inkscape:snap-page="true" inkscape:zoom="3.3400291" inkscape:cx="15.269328" inkscape:cy="51.496557" inkscape:window-width="1920" inkscape:window-height="1011" inkscape:window-x="0" inkscape:window-y="0" inkscape:window-maximized="1" inkscape:current-layer="layer2" inkscape:snap-bbox="true" inkscape:snap-bbox-midpoints="true" inkscape:snap-bbox-edge-midpoints="true" inkscape:bbox-nodes="true" inkscape:bbox-paths="true" inkscape:snap-intersection-paths="true" inkscape:object-paths="true" inkscape:snap-smooth-nodes="true" inkscape:snap-midpoints="true" inkscape:deskcolor="#d1d1d1" />
  <defs id="defs2">
    <linearGradient inkscape:collect="always" id="linearGradient4539">
      <stop style="stop-color:#fc7845;stop-opacity:1;" offset="0" id="stop4535" />
      <stop style="stop-color:#ffa480;stop-opacity:1;" offset="0.5" id="stop4543" />
      <stop style="stop-color:#faebe5;stop-opacity:1;" offset="1" id="stop4537" />
    </linearGradient>
    <linearGradient inkscape:collect="always" id="linearGradient5042">
      <stop style="stop-color:#7b2503;stop-opacity:1;" offset="0" id="stop5038" />
      <stop style="stop-color:#ba4516;stop-opacity:1;" offset="0.29999998" id="stop12907" />
      <stop style="stop-color:#ee6d46;stop-opacity:1;" offset="0.49999997" id="stop7880" />
      <stop style="stop-color:#bd4213;stop-opacity:1;" offset="0.69999999" id="stop12905" />
      <stop style="stop-color:#802a05;stop-opacity:1;" offset="1" id="stop5040" />
    </linearGradient>
    <linearGradient y2="236" x2="96" y1="236" x1="32" gradientTransform="translate(604.81684,170.58641)" gradientUnits="userSpaceOnUse" id="linearGradient1099" xlink:href="#linearGradient1036" />
    <linearGradient id="linearGradient1036">
      <stop id="stop1032" offset="0" style="stop-color:#d5d3cf;stop-opacity:1;" />
      <stop id="stop1034" offset="1" style="stop-color:#f6f5f4;stop-opacity:1" />
    </linearGradient>
    <radialGradient r="32" fy="-76" fx="-244" cy="-76" cx="-244" gradientTransform="matrix(0.88333331,0,0,0.88333331,-460.35018,463.11973)" gradientUnits="userSpaceOnUse" id="radialGradient1103" xlink:href="#linearGradient1069" />
    <linearGradient id="linearGradient1069">
      <stop id="stop1065" offset="0" style="stop-color:#d5d3cf;stop-opacity:1" />
      <stop id="stop1067-1" offset="1" style="stop-color:#949390;stop-opacity:1" />
    </linearGradient>
    <linearGradient gradientUnits="userSpaceOnUse" y2="232" x2="64" y1="262.5" x1="64" id="linearGradient1027" xlink:href="#linearGradient1025" gradientTransform="translate(-470.5864,432.81685)" />
    <linearGradient id="linearGradient1025">
      <stop id="stop1021" offset="0" style="stop-color:#9a9996;stop-opacity:1" />
      <stop id="stop1023" offset="1" style="stop-color:#77767b;stop-opacity:1" />
    </linearGradient>
    <inkscape:path-effect effect="spiro" id="path-effect35304-9" is_visible="true" />
    <clipPath clipPathUnits="userSpaceOnUse" id="clipPath1609-7">
      <path sodipodi:nodetypes="cccccc" inkscape:connector-curvature="0" id="path1611-5" d="m 252,116 28,-28 v -8 h -36 v 36 z" style="fill:#e74747;stroke:none;stroke-width:0.25px;stroke-linecap:butt;stroke-linejoin:miter;stroke-opacity:1" />
    </clipPath>
    <radialGradient r="32" fy="-76" fx="-244" cy="-76" cx="-244" gradientTransform="matrix(0.88333331,0,0,0.88333331,-460.35018,463.11973)" gradientUnits="userSpaceOnUse" id="radialGradient1103-5" xlink:href="#linearGradient1069" />
    <inkscape:path-effect effect="spiro" id="path-effect35304-9-2" is_visible="true" />
    <clipPath clipPathUnits="userSpaceOnUse" id="clipPath1609-7-7">
      <path sodipodi:nodetypes="cccccc" inkscape:connector-curvature="0" id="path1611-5-0" d="m 252,116 28,-28 v -8 h -36 v 36 z" style="fill:#e74747;stroke:none;stroke-width:0.25px;stroke-linecap:butt;stroke-linejoin:miter;stroke-opacity:1" />
    </clipPath>
    <clipPath clipPathUnits="userSpaceOnUse" id="clipPath744">
      <rect style="fill:#1e88e5;fill-opacity:1;stroke-width:0.264583" id="rect746" width="541.86664" height="541.86664" x="0" y="1.5987212e-14" rx="79.375" ry="79.375" />
    </clipPath>
    <clipPath clipPathUnits="userSpaceOnUse" id="clipPath62">
      <rect style="fill:#1e88e5;fill-opacity:1;stroke-width:0.264583" id="rect64" width="541.86664" height="541.86664" x="2.2507105e-05" y="-0.42205024" rx="79.375" ry="79.375" />
    </clipPath>
    <radialGradient r="32" fy="-76" fx="-244" cy="-76" cx="-244" gradientTransform="matrix(0.88333331,0,0,0.88333331,-460.35018,463.11973)" gradientUnits="userSpaceOnUse" id="radialGradient1103-6" xlink:href="#linearGradient1069" />
    <inkscape:path-effect effect="spiro" id="path-effect35304-9-20" is_visible="true" />
    <clipPath clipPathUnits="userSpaceOnUse" id="clipPath1609-7-2">
      <path sodipodi:nodetypes="cccccc" inkscape:connector-curvature="0" id="path1611-5-3" d="m 252,116 28,-28 v -8 h -36 v 36 z" style="fill:#e74747;stroke:none;stroke-width:0.25px;stroke-linecap:butt;stroke-linejoin:miter;stroke-opacity:1" />
    </clipPath>
    <clipPath clipPathUnits="userSpaceOnUse" id="clipPath961">
      <rect style="fill:#00c853;stroke:none;stroke-width:0.529037" id="rect963" width="541.86664" height="541.86664" x="1.4210855e-14" y="2.717972e-05" rx="79.375" ry="79.375" />
    </clipPath>
    <radialGradient r="32" fy="-76" fx="-244" cy="-76" cx="-244" gradientTransform="matrix(0.88333331,0,0,0.88333331,-460.35018,463.11973)" gradientUnits="userSpaceOnUse" id="radialGradient1103-56" xlink:href="#linearGradient1069" />
    <inkscape:path-effect effect="spiro" id="path-effect35304-9-7" is_visible="true" />
    <clipPath clipPathUnits="userSpaceOnUse" id="clipPath1440">
      <circle style="display:inline;opacity:1;vector-effect:none;fill:none;fill-opacity:1;stroke:#000000;stroke-width:2;stroke-linecap:butt;stroke-linejoin:miter;stroke-miterlimit:4;stroke-dasharray:none;stroke-dashoffset:0;stroke-opacity:1;marker:none;marker-start:none;marker-mid:none;marker-end:none;paint-order:normal;enable-background:new" id="circle1442" cx="-134.35028" cy="193.74727" r="24" transform="rotate(-45)" />
    </clipPath>
    <clipPath clipPathUnits="userSpaceOnUse" id="clipPath1430">
      <circle style="display:inline;opacity:1;vector-effect:none;fill:none;fill-opacity:1;stroke:#000000;stroke-width:2;stroke-linecap:butt;stroke-linejoin:miter;stroke-miterlimit:4;stroke-dasharray:none;stroke-dashoffset:0;stroke-opacity:1;marker:none;marker-start:none;marker-mid:none;marker-end:none;paint-order:normal;enable-background:new" id="circle1432" cx="12" cy="232" r="24" />
    </clipPath>
    <clipPath clipPathUnits="userSpaceOnUse" id="clipPath1440-9">
      <circle style="display:inline;opacity:1;vector-effect:none;fill:none;fill-opacity:1;stroke:#000000;stroke-width:2;stroke-linecap:butt;stroke-linejoin:miter;stroke-miterlimit:4;stroke-dasharray:none;stroke-dashoffset:0;stroke-opacity:1;marker:none;marker-start:none;marker-mid:none;marker-end:none;paint-order:normal;enable-background:new" id="circle1442-5" cx="-134.35028" cy="193.74727" r="24" transform="rotate(-45)" />
    </clipPath>
    <clipPath clipPathUnits="userSpaceOnUse" id="clipPath1430-1">
      <circle style="display:inline;opacity:1;vector-effect:none;fill:none;fill-opacity:1;stroke:#000000;stroke-width:2;stroke-linecap:butt;stroke-linejoin:miter;stroke-miterlimit:4;stroke-dasharray:none;stroke-dashoffset:0;stroke-opacity:1;marker:none;marker-start:none;marker-mid:none;marker-end:none;paint-order:normal;enable-background:new" id="circle1432-8" cx="12" cy="232" r="24" />
    </clipPath>
    <clipPath clipPathUnits="userSpaceOnUse" id="clipPath2024">
      <rect style="opacity:1;vector-effect:none;fill:#63452c;fill-opacity:1;stroke:none;stroke-width:4;stroke-linecap:round;stroke-linejoin:round;stroke-miterlimit:4;stroke-dasharray:none;stroke-dashoffset:0;stroke-opacity:1" id="rect2026" width="74" height="98" x="6" y="196" />
    </clipPath>
    <linearGradient id="linearGradient914" inkscape:collect="always">
      <stop id="stop910" offset="0" style="stop-color:#f6f5f4;stop-opacity:0.43700787" />
      <stop id="stop912" offset="1" style="stop-color:#deddda;stop-opacity:0;" />
    </linearGradient>
    <radialGradient gradientTransform="matrix(2.6086955,0,0,1.8410361,-102.95652,-748.94671)" gradientUnits="userSpaceOnUse" r="46" fy="296" fx="64.000008" cy="296" cx="64.000008" id="radialGradient916" xlink:href="#linearGradient914" inkscape:collect="always" />
    <clipPath clipPathUnits="userSpaceOnUse" id="clipPath11543">
      <rect style="fill:#f0c04e;fill-opacity:1;stroke:none;stroke-width:0.529037" id="rect11545" width="541.86664" height="541.86664" x="1.4746095e-06" y="6.4330168e-05" rx="79.375" ry="79.375" />
    </clipPath>
    <style id="style374">
      .cls-1 {
        fill: url(#linear-gradient);
      }

      .cls-2 {
        opacity: 0.35;
        fill: url(#radial-gradient);
      }

      .cls-2,
      .cls-4 {
        isolation: isolate;
      }

      .cls-3 {
        fill: url(#linear-gradient-2);
      }

      .cls-4 {
        opacity: 0.41;
        fill: url(#radial-gradient-2);
      }

      .cls-5 {
        fill: url(#radial-gradient-3);
      }

      .cls-6 {
        fill: url(#radial-gradient-4);
      }
    </style>
    <linearGradient id="linear-gradient" x1="63.33" y1="84.03" x2="241.67" y2="84.03" gradientTransform="matrix(1,0,0,-1,0,266)" gradientUnits="userSpaceOnUse">
      <stop offset="0" stop-color="#0c59a4" id="stop376" />
      <stop offset="1" stop-color="#114a8b" id="stop378" />
    </linearGradient>
    <radialGradient id="radial-gradient" cx="161.83" cy="68.91" r="95.38" gradientTransform="matrix(1,0,0,-0.95,0,248.84)" gradientUnits="userSpaceOnUse">
      <stop offset="0.72" stop-opacity="0" id="stop381" />
      <stop offset="0.95" stop-opacity="0.53" id="stop383" />
      <stop offset="1" id="stop385" />
    </radialGradient>
    <linearGradient id="linear-gradient-2" x1="157.35" y1="161.39" x2="45.96" y2="40.06" gradientTransform="matrix(1,0,0,-1,0,266)" gradientUnits="userSpaceOnUse">
      <stop offset="0" stop-color="#1b9de2" id="stop388" />
      <stop offset="0.16" stop-color="#1595df" id="stop390" />
      <stop offset="0.67" stop-color="#0680d7" id="stop392" />
      <stop offset="1" stop-color="#0078d4" id="stop394" />
    </linearGradient>
    <radialGradient id="radial-gradient-2" cx="-340.29" cy="62.99" r="143.24" gradientTransform="matrix(0.15,-0.99,-0.8,-0.12,176.64,-125.4)" gradientUnits="userSpaceOnUse">
      <stop offset="0.76" stop-opacity="0" id="stop397" />
      <stop offset="0.95" stop-opacity="0.5" id="stop399" />
      <stop offset="1" id="stop401" />
    </radialGradient>
    <radialGradient id="radial-gradient-3" cx="113.37" cy="570.21" r="202.43" gradientTransform="matrix(-0.04,1,2.13,0.08,-1179.54,-106.69)" gradientUnits="userSpaceOnUse">
      <stop offset="0" stop-color="#35c1f1" id="stop404" />
      <stop offset="0.11" stop-color="#34c1ed" id="stop406" />
      <stop offset="0.23" stop-color="#2fc2df" id="stop408" />
      <stop offset="0.31" stop-color="#2bc3d2" id="stop410" />
      <stop offset="0.67" stop-color="#36c752" id="stop412" />
    </radialGradient>
    <radialGradient id="radial-gradient-4" cx="376.52" cy="567.97" r="97.34" gradientTransform="matrix(0.28,0.96,0.78,-0.23,-303.76,-148.5)" gradientUnits="userSpaceOnUse">
      <stop offset="0" stop-color="#66eb6e" id="stop415" />
      <stop offset="1" stop-color="#66eb6e" stop-opacity="0" id="stop417" />
    </radialGradient>
    <clipPath clipPathUnits="userSpaceOnUse" id="clipPath1260">
      <rect style="fill:#bbdefb;fill-opacity:1;stroke:none;stroke-width:0.529037" id="rect1262" width="541.86664" height="541.86664" x="2.9492187e-06" y="3.9968629e-05" rx="79.375" ry="79.375" />
    </clipPath>
    <clipPath clipPathUnits="userSpaceOnUse" id="clipPath16285">
      <rect style="fill:#bbdefb;fill-opacity:1;stroke:none;stroke-width:0.529037" id="rect16287" width="541.86664" height="541.86664" x="0" y="6.4807005e-05" rx="79.375" ry="79.375" />
    </clipPath>
    <clipPath clipPathUnits="userSpaceOnUse" id="clipPath990">
      <rect style="fill:#bbdefb;fill-opacity:1;stroke:none;stroke-width:0.529037" id="rect992" width="487.67996" height="487.67996" x="27.093349" y="27.093338" rx="71.4375" ry="71.4375" />
    </clipPath>
    <linearGradient id="linearGradient4292">
      <stop id="stop4294" offset="0" style="stop-color:#411f5d;stop-opacity:1" />
      <stop id="stop4296" offset="1" style="stop-color:#5b2a85;stop-opacity:1" />
    </linearGradient>
    <linearGradient id="linearGradient4284">
      <stop offset="0" style="stop-color:#8381c5;stop-opacity:1" id="stop4286" />
      <stop id="stop4290" style="stop-color:#7e55b3;stop-opacity:0.99607843" offset="0.56639391" />
      <stop offset="1" style="stop-color:#a52ecb;stop-opacity:0.99215686" id="stop4288" />
    </linearGradient>
    <linearGradient id="linearGradient4898">
      <stop id="stop4278" style="stop-color:#bab8db;stop-opacity:1" offset="0" />
      <stop id="stop4280" style="stop-color:#5955a9;stop-opacity:0.99159664" offset="1" />
    </linearGradient>
    <linearGradient id="linearGradient3294">
      <stop offset="0" style="stop-color:#6376e6;stop-opacity:1" id="stop3296" />
      <stop offset="0.50094414" style="stop-color:#222989;stop-opacity:1" id="stop3302" />
      <stop offset="1" style="stop-color:#00003d;stop-opacity:1" id="stop3298" />
    </linearGradient>
    <linearGradient id="linearGradient3284">
      <stop offset="0" style="stop-color:#000000;stop-opacity:1" id="stop3286" />
      <stop offset="0.84845906" style="stop-color:#000000;stop-opacity:0.49803922" id="stop3292" />
      <stop offset="1" style="stop-color:#000000;stop-opacity:0" id="stop3288" />
    </linearGradient>
    <linearGradient id="linearGradient3274">
      <stop offset="0" style="stop-color:#000000;stop-opacity:1" id="stop3276" />
      <stop offset="1" style="stop-color:#000000;stop-opacity:0" id="stop3278" />
    </linearGradient>
    <linearGradient id="linearGradient3242">
      <stop offset="0" style="stop-color:#282828;stop-opacity:1" id="stop3244" />
      <stop offset="0.39253417" style="stop-color:#808080;stop-opacity:1" id="stop3252" />
      <stop offset="1" style="stop-color:#d9d9d9;stop-opacity:1" id="stop3246" />
    </linearGradient>
    <linearGradient id="linearGradient3202">
      <stop offset="0" style="stop-color:#2b2b2b;stop-opacity:1" id="stop3204" />
      <stop offset="0.5" style="stop-color:#828383;stop-opacity:1" id="stop3250" />
      <stop offset="1" style="stop-color:#dadbdb;stop-opacity:1" id="stop3206" />
    </linearGradient>
    <linearGradient id="linearGradient4966">
      <stop offset="0" style="stop-color:#b6b3d8;stop-opacity:1" id="stop4968" />
      <stop offset="1" style="stop-color:#b6b3d8;stop-opacity:0" id="stop4970" />
    </linearGradient>
    <linearGradient id="linearGradient4876">
      <stop offset="0" style="stop-color:#d3d2e8;stop-opacity:1" id="stop4878" />
      <stop offset="1" style="stop-color:#5955a9;stop-opacity:0.99159664" id="stop4880" />
    </linearGradient>
    <radialGradient gradientTransform="matrix(0.6817439,0,0,0.5905355,-3.8523706,-28.935273)" gradientUnits="userSpaceOnUse" xlink:href="#linearGradient4898" id="radialGradient4892" fy="-108.96888" fx="20.951529" r="266.76535" cy="-108.96888" cx="20.951529" />
    <radialGradient gradientTransform="matrix(1,0,0,0.1854103,0,383.88493)" gradientUnits="userSpaceOnUse" xlink:href="#linearGradient3274" id="radialGradient4944" fy="471.26172" fx="233.8876" r="170.49393" cy="471.26172" cx="233.8876" />
    <radialGradient gradientTransform="matrix(1,0,0,0.9121621,0,32.654948)" gradientUnits="userSpaceOnUse" xlink:href="#linearGradient4966" id="radialGradient4972" fy="371.76376" fx="299.70135" r="76.696358" cy="371.76376" cx="299.70135" />
    <radialGradient gradientTransform="matrix(0.414705,0.3300575,-0.5059004,0.6356454,346.95314,49.479585)" gradientUnits="userSpaceOnUse" xlink:href="#linearGradient3202" id="radialGradient3210" fy="390.45248" fx="289.44067" r="17.67668" cy="390.45248" cx="289.44067" />
    <radialGradient gradientTransform="matrix(0.414705,0.3300575,-0.5059004,0.6356454,448.41009,-65.398074)" gradientUnits="userSpaceOnUse" xlink:href="#linearGradient3202" id="radialGradient3238" fy="382.14804" fx="283.50717" r="17.67668" cy="382.14804" cx="283.50717" />
    <radialGradient gradientTransform="matrix(-6.5565014e-2,-5.9721765e-2,1.6871024,-1.8521705,171.90774,540.51473)" gradientUnits="userSpaceOnUse" xlink:href="#linearGradient3242" id="radialGradient3248" fy="181.18982" fx="418.45551" r="63.068935" cy="181.18982" cx="418.45551" />
    <radialGradient gradientTransform="matrix(0.4055116,-3.3440123e-2,0.1034174,4.3988695,177.23251,-1191.6649)" gradientUnits="userSpaceOnUse" xlink:href="#linearGradient3274" id="radialGradient3268" fy="357.33591" fx="354.51709" r="33.712105" cy="357.33591" cx="354.51709" />
    <radialGradient gradientTransform="matrix(-0.1339874,-0.1146812,0.3079048,-0.3597394,444.23592,395.03849)" gradientUnits="userSpaceOnUse" xlink:href="#linearGradient3274" id="radialGradient3280" fy="223.55537" fx="510.58469" r="132.28336" cy="223.55537" cx="510.58469" />
    <radialGradient gradientTransform="matrix(-1.2497569,1.3798305,-9.6289463e-2,-7.2974479e-2,674.3826,-70.590682)" gradientUnits="userSpaceOnUse" xlink:href="#linearGradient3284" id="radialGradient3290" fy="-158.17821" fx="284.4671" r="110.2972" cy="-158.17821" cx="284.4671" />
    <radialGradient gradientTransform="matrix(-0.1008165,-8.0872321e-2,1.0745309,-1.3395252,13.843287,784.79288)" gradientUnits="userSpaceOnUse" xlink:href="#linearGradient3294" id="radialGradient3300" fy="356.62274" fx="425.51019" r="143.34167" cy="356.62274" cx="425.51019" />
    <filter height="1.1062305" y="-0.053115233" width="1.1073157" x="-0.053657864" id="filter4350" style="color-interpolation-filters:sRGB">
      <feGaussianBlur id="feGaussianBlur4352" stdDeviation="8.7848425" />
    </filter>
    <linearGradient y2="300.73987" x2="236.61363" y1="-161.8512" x1="-122.20192" spreadMethod="pad" gradientTransform="matrix(0.17595114,0,0,0.16675393,-57.890895,62.668437)" gradientUnits="userSpaceOnUse" id="linearGradient4245" xlink:href="#linearGradient4284" />
    <linearGradient y2="66.018341" x2="173.94518" y1="396.6066" x1="447.80933" gradientTransform="matrix(0.19870189,0,0,0.19870189,-106.81348,12.782767)" gradientUnits="userSpaceOnUse" id="linearGradient4247" xlink:href="#linearGradient4292" />
    <linearGradient inkscape:collect="always" xlink:href="#linearGradient5042" id="linearGradient5044" x1="9" y1="115" x2="119" y2="115" gradientUnits="userSpaceOnUse" />
    <linearGradient inkscape:collect="always" xlink:href="#linearGradient4539" id="linearGradient4541" x1="64" y1="115" x2="64" y2="7.5105515" gradientUnits="userSpaceOnUse" />
    <filter inkscape:collect="always" style="color-interpolation-filters:sRGB" id="filter17" x="-0.047374215" y="-0.048642537" width="1.0947484" height="1.0972851">
      <feGaussianBlur inkscape:collect="always" stdDeviation="1.428484" id="feGaussianBlur17" />
    </filter>
  </defs>
  <g inkscape:groupmode="layer" id="layer2" inkscape:label="Layer 1">
    <path id="circle1035" style="fill:url(#linearGradient5044);fill-opacity:1" d="M 64 5 A 55 55 0 0 0 9 60 L 9 68 A 55 55 0 0 0 64 123 A 55 55 0 0 0 119 68 L 119 60 A 55 55 0 0 0 64 5 z " />
    <circle style="display:inline;fill:url(#linearGradient4541);fill-opacity:1;stroke-width:1" id="path953" cx="64" cy="60" r="55" inkscape:export-filename="/home/retro/.icons/skeuowaita/scalable/apps/skeuwaita.png" inkscape:export-xdpi="1536" inkscape:export-ydpi="1536" />
    <text xml:space="preserve" style="font-style:normal;font-variant:normal;font-weight:normal;font-stretch:normal;font-size:40px;line-height:1.25;font-family:'DejaVu Math TeX Gyre';-inkscape-font-specification:'DejaVu Math TeX Gyre';fill:#000000;fill-opacity:1;stroke:none" x="57.303368" y="70.244858" id="text3441">
      <tspan sodipodi:role="line" id="tspan3439" x="57.303368" y="70.244858" />
    </text>
    <text xml:space="preserve" style="font-size:40px;line-height:1.25;font-family:Caladea;-inkscape-font-specification:Caladea" x="43.168587" y="70.812454" id="text13903">
      <tspan sodipodi:role="line" id="tspan13901" x="43.168587" y="70.812454" />
    </text>
    <rect style="display:none;fill:none;stroke-width:0.20135" id="rect4772" y="12.314822" x="-107.39003" height="103.09106" width="103.09106" inkscape:label="rect4772" />
    <ellipse style="display:inline;fill:#ff6d38;fill-opacity:1;stroke-width:0.956048" id="circle466" cx="64" cy="60.186546" inkscape:export-filename="/home/retro/.icons/skeuowaita/scalable/apps/skeuwaita.png" inkscape:export-xdpi="1536" inkscape:export-ydpi="1536" ry="52.675995" rx="52.489449" />
    <g id="g17" transform="matrix(0.9358736,0,0,0.9358736,61.020333,3.0603596)" style="fill:#ae2600;fill-opacity:1;filter:url(#filter17)">
      <path d="m -14.517301,70.532317 c 0.02326,0.04683 0.06262,0.08407 0.110623,0.105457 0.048,0.02175 0.102377,0.02618 0.153374,0.01254 l 9.599995,-2.0355 -4.037998,-4.023801 -5.753997,5.658101 c -0.04538,0.03024 -0.07762,0.0756 -0.09112,0.127957 -0.01312,0.05236 -0.0063,0.107675 0.01912,0.155243 z" fill="#ffffff" id="path1" style="fill:#ae2600;fill-opacity:1;stroke-width:3.71862" />
      <path d="m 30.435428,30.000045 c -1.337999,0.0013 -2.658374,0.297729 -3.864373,0.867337 -1.206,0.569609 -2.266499,1.397932 -3.103874,2.424016 -0.837374,1.026047 -1.429874,2.22371 -1.733999,3.504785 -0.3045,1.281074 -0.31275,2.612926 -0.02438,3.897541 0.288751,1.284614 0.866625,2.489247 1.690874,3.525214 0.824625,1.035929 1.875,1.876679 3.073874,2.460779 1.198874,0.584101 2.515499,0.896064 3.853498,0.913395 1.337625,0.01733 2.662124,-0.260706 3.876374,-0.813463 l -6.083998,-5.982601 c -0.06976,-0.06852 -0.12525,-0.149897 -0.163124,-0.239504 -0.03788,-0.0896 -0.05738,-0.185628 -0.05738,-0.282646 0,-0.09702 0.0195,-0.193078 0.05738,-0.282684 0.03788,-0.08957 0.09338,-0.170953 0.163124,-0.239467 l 7.949999,-7.811601 C 34.472676,30.67884 32.484052,29.993629 30.435428,30.000045 Z" fill="#ffffff" id="path2" style="fill:#ae2600;fill-opacity:1;stroke-width:3.71862" />
      <path d="m 37.16105,32.955576 -7.451997,7.298303 5.843997,5.746601 c 0.4305,-0.297213 0.832125,-0.633143 1.2,-1.003 1.601622,-1.585625 2.533872,-3.708446 2.609622,-5.942149 0.0757,-2.233667 -0.711,-4.412796 -2.201622,-6.099755 z" fill="#ffffff" id="path3" style="fill:#ae2600;fill-opacity:1;stroke-width:3.71862" />
      <path d="m 22.250682,46.425649 h -0.132 c -0.154875,-0.0014 -0.30975,0.01254 -0.462,0.0413 h -0.054 c -0.16725,0.0354 -0.3315,0.0826 -0.492,0.1416 l -0.126,0.059 c -0.120749,0.04942 -0.236999,0.108407 -0.347999,0.177 l -0.132,0.0826 c -0.145126,0.09845 -0.281626,0.209082 -0.408,0.3304 L -2.001306,68.992785 0.734693,71.683187 24.13468,51.48785 c 0.132376,-0.114312 0.252751,-0.240794 0.360001,-0.3776 l 0.102,-0.1298 c 0.07988,-0.115419 0.15225,-0.235632 0.216,-0.3599 0.036,-0.0708 0.066,-0.1416 0.096,-0.2124 0.0405,-0.0944 0.07462,-0.191012 0.102,-0.2891 0,-0.0708 0.042,-0.1416 0.06,-0.2124 0.02962,-0.146394 0.04988,-0.293894 0.06,-0.4425 v -0.194701 c 0,-0.1062 0,-0.2124 0,-0.3186 0,-0.1062 0,-0.1416 -0.03,-0.2124 -0.111,-0.556812 -0.387376,-1.069006 -0.79425,-1.471312 -0.406875,-0.401938 -0.925875,-0.676657 -1.49175,-0.788388 h -0.114 c -0.1485,-0.0284 -0.298874,-0.0461 -0.449999,-0.0531 z" fill="#ffffff" id="path5" style="fill:#ae2600;fill-opacity:1;stroke-width:3.71862" />
      <path d="m -7.659303,63.547084 4.535998,4.436801 22.157988,-21.788705 c 0.721125,-0.69325 1.660874,-1.12395 2.663999,-1.2213 -3.917998,-2.950001 -8.189996,-2.1771 -29.357985,18.573204 z" fill="#ffffff" id="path7" style="fill:#ae2600;fill-opacity:1;stroke-width:3.71862" />
      <path d="m 25.383055,52.33745 -0.27,0.2596 -23.399988,20.189806 3.977998,3.9058 C 15.55506,67.518154 24.309056,58.780252 25.383055,52.33745 Z" fill="#ffffff" id="path9" style="fill:#ae2600;fill-opacity:1;stroke-width:3.71862" />
      <path d="m -32.984654,99.637024 c 0.01215,0.04204 0.03712,0.07892 0.07143,0.106571 0.03435,0.02729 0.07642,0.04388 0.120562,0.04683 l 10.199958,0.690305 -5.71796,-5.622706 -4.625998,4.543001 c -0.03,0.03097 -0.05043,0.06933 -0.05896,0.110994 -0.0084,0.04204 -0.0047,0.08518 0.011,0.125006 z" fill="#ffffff" id="path11" style="fill:#ae2600;fill-opacity:1;stroke-width:3.71862" />
      <path d="m -27.243181,93.813723 6.029959,5.929501 c 0.07159,0.07522 0.167363,0.1239 0.271163,0.137912 0.1038,0.01401 0.209362,-0.0078 0.298836,-0.06122 0.09349,-0.04573 0.167964,-0.121688 0.210638,-0.21535 0.04279,-0.09367 0.05103,-0.199125 0.02337,-0.29795 l -1.014,-4.259802 c -0.06567,-0.276193 -0.03581,-0.56603 0.08482,-0.823418 0.1206,-0.257387 0.325125,-0.467944 0.581174,-0.598482 C -10.1853,88.415213 -1.659304,83.052112 4.598692,77.694911 L 0.398694,73.56491 -8.6013,75.47061 Z" fill="#ffffff" id="path13" style="fill:#ae2600;fill-opacity:1;stroke-width:3.71862" />
      <path d="m -0.890557,72.314487 -2.255998,-2.2184 -3.119999,3.0621 c -0.0225,0.02655 -0.03488,0.0601 -0.03488,0.0944 0,0.03467 0.01238,0.06785 0.03488,0.0944 0.01424,0.03135 0.04012,0.05678 0.072,0.0708 0.03224,0.01402 0.06824,0.01623 0.102,0.0059 z" fill="#ffffff" id="path15" style="fill:#ae2600;fill-opacity:1;stroke-width:3.71862" />
      <path d="m 37.371049,37.711384 c -0.03074,-0.09285 -0.08138,-0.178144 -0.1485,-0.25016 -0.06676,-0.07201 -0.148875,-0.1291 -0.240375,-0.167376 -0.09112,-0.03827 -0.18975,-0.0569 -0.289124,-0.05461 -0.09938,0.0023 -0.196876,0.02548 -0.2865,0.06796 -0.08926,0.04248 -0.168375,0.103283 -0.232125,0.178328 -0.06338,0.07508 -0.109878,0.162618 -0.136125,0.256797 -0.02624,0.09418 -0.03188,0.192783 -0.01612,0.28921 0.01576,0.09643 0.05212,0.188469 0.106878,0.269852 0.17925,0.354848 0.2505,0.753098 0.20475,1.146702 -0.04576,0.393641 -0.206626,0.765857 -0.46275,1.071698 -0.084,0.09993 -0.137625,0.221324 -0.154125,0.350018 -0.01688,0.128694 0.0041,0.259416 0.06,0.376899 0.05588,0.117522 0.144749,0.216937 0.256125,0.286704 0.111,0.06977 0.240374,0.107009 0.372,0.10738 0.102,-0.0011 0.2025,-0.02374 0.294749,-0.06652 0.09226,-0.04277 0.173625,-0.104615 0.23925,-0.181277 0.424874,-0.507732 0.6915,-1.125131 0.768,-1.778187 0.0765,-0.65302 -0.04012,-1.313931 -0.336,-1.903414 z" fill="#ff6c37" id="path17" style="fill:#ae2600;fill-opacity:1;stroke-width:3.71862" />
    </g>
    <g id="g1" transform="matrix(0.9358736,0,0,0.9358736,61.020333,-0.8701891)">
      <path d="m -14.517301,70.532317 c 0.02326,0.04683 0.06262,0.08407 0.110623,0.105457 0.048,0.02175 0.102377,0.02618 0.153374,0.01254 l 9.599995,-2.0355 -4.037998,-4.023801 -5.753997,5.658101 c -0.04538,0.03024 -0.07762,0.0756 -0.09112,0.127957 -0.01312,0.05236 -0.0063,0.107675 0.01912,0.155243 z" fill="#ffffff" id="path4" style="stroke-width:3.71862" />
      <path d="m 30.435428,30.000045 c -1.337999,0.0013 -2.658374,0.297729 -3.864373,0.867337 -1.206,0.569609 -2.266499,1.397932 -3.103874,2.424016 -0.837374,1.026047 -1.429874,2.22371 -1.733999,3.504785 -0.3045,1.281074 -0.31275,2.612926 -0.02438,3.897541 0.288751,1.284614 0.866625,2.489247 1.690874,3.525214 0.824625,1.035929 1.875,1.876679 3.073874,2.460779 1.198874,0.584101 2.515499,0.896064 3.853498,0.913395 1.337625,0.01733 2.662124,-0.260706 3.876374,-0.813463 l -6.083998,-5.982601 c -0.06976,-0.06852 -0.12525,-0.149897 -0.163124,-0.239504 -0.03788,-0.0896 -0.05738,-0.185628 -0.05738,-0.282646 0,-0.09702 0.0195,-0.193078 0.05738,-0.282684 0.03788,-0.08957 0.09338,-0.170953 0.163124,-0.239467 l 7.949999,-7.811601 C 34.472676,30.67884 32.484052,29.993629 30.435428,30.000045 Z" fill="#ffffff" id="path6" style="stroke-width:3.71862" />
      <path d="m 37.16105,32.955576 -7.451997,7.298303 5.843997,5.746601 c 0.4305,-0.297213 0.832125,-0.633143 1.2,-1.003 1.601622,-1.585625 2.533872,-3.708446 2.609622,-5.942149 0.0757,-2.233667 -0.711,-4.412796 -2.201622,-6.099755 z" fill="#ffffff" id="path8" style="stroke-width:3.71862" />
      <path d="m 22.250682,46.425649 h -0.132 c -0.154875,-0.0014 -0.30975,0.01254 -0.462,0.0413 h -0.054 c -0.16725,0.0354 -0.3315,0.0826 -0.492,0.1416 l -0.126,0.059 c -0.120749,0.04942 -0.236999,0.108407 -0.347999,0.177 l -0.132,0.0826 c -0.145126,0.09845 -0.281626,0.209082 -0.408,0.3304 L -2.001306,68.992785 0.734693,71.683187 24.13468,51.48785 c 0.132376,-0.114312 0.252751,-0.240794 0.360001,-0.3776 l 0.102,-0.1298 c 0.07988,-0.115419 0.15225,-0.235632 0.216,-0.3599 0.036,-0.0708 0.066,-0.1416 0.096,-0.2124 0.0405,-0.0944 0.07462,-0.191012 0.102,-0.2891 0,-0.0708 0.042,-0.1416 0.06,-0.2124 0.02962,-0.146394 0.04988,-0.293894 0.06,-0.4425 v -0.194701 c 0,-0.1062 0,-0.2124 0,-0.3186 0,-0.1062 0,-0.1416 -0.03,-0.2124 -0.111,-0.556812 -0.387376,-1.069006 -0.79425,-1.471312 -0.406875,-0.401938 -0.925875,-0.676657 -1.49175,-0.788388 h -0.114 c -0.1485,-0.0284 -0.298874,-0.0461 -0.449999,-0.0531 z" fill="#ffffff" id="path10" style="stroke-width:3.71862" />
      <path d="m -7.659303,63.547084 4.535998,4.436801 22.157988,-21.788705 c 0.721125,-0.69325 1.660874,-1.12395 2.663999,-1.2213 -3.917998,-2.950001 -8.189996,-2.1771 -29.357985,18.573204 z" fill="#ffffff" id="path12" style="stroke-width:3.71862" />
      <path d="m 25.383055,52.33745 -0.27,0.2596 -23.399988,20.189806 3.977998,3.9058 C 15.55506,67.518154 24.309056,58.780252 25.383055,52.33745 Z" fill="#ffffff" id="path14" style="stroke-width:3.71862" />
      <path d="m -32.984654,99.637024 c 0.01215,0.04204 0.03712,0.07892 0.07143,0.106571 0.03435,0.02729 0.07642,0.04388 0.120562,0.04683 l 10.199958,0.690305 -5.71796,-5.622706 -4.625998,4.543001 c -0.03,0.03097 -0.05043,0.06933 -0.05896,0.110994 -0.0084,0.04204 -0.0047,0.08518 0.011,0.125006 z" fill="#ffffff" id="path16" style="stroke-width:3.71862" />
      <path d="m -27.243181,93.813723 6.029959,5.929501 c 0.07159,0.07522 0.167363,0.1239 0.271163,0.137912 0.1038,0.01401 0.209362,-0.0078 0.298836,-0.06122 0.09349,-0.04573 0.167964,-0.121688 0.210638,-0.21535 0.04279,-0.09367 0.05103,-0.199125 0.02337,-0.29795 l -1.014,-4.259802 c -0.06567,-0.276193 -0.03581,-0.56603 0.08482,-0.823418 0.1206,-0.257387 0.325125,-0.467944 0.581174,-0.598482 C -10.1853,88.415213 -1.659304,83.052112 4.598692,77.694911 L 0.398694,73.56491 -8.6013,75.47061 Z" fill="#ffffff" id="path18" style="stroke-width:3.71862" />
      <path d="m -0.890557,72.314487 -2.255998,-2.2184 -3.119999,3.0621 c -0.0225,0.02655 -0.03488,0.0601 -0.03488,0.0944 0,0.03467 0.01238,0.06785 0.03488,0.0944 0.01424,0.03135 0.04012,0.05678 0.072,0.0708 0.03224,0.01402 0.06824,0.01623 0.102,0.0059 z" fill="#ffffff" id="path20" style="stroke-width:3.71862" />
      <path d="m 37.371049,37.711384 c -0.03074,-0.09285 -0.08138,-0.178144 -0.1485,-0.25016 -0.06676,-0.07201 -0.148875,-0.1291 -0.240375,-0.167376 -0.09112,-0.03827 -0.18975,-0.0569 -0.289124,-0.05461 -0.09938,0.0023 -0.196876,0.02548 -0.2865,0.06796 -0.08926,0.04248 -0.168375,0.103283 -0.232125,0.178328 -0.06338,0.07508 -0.109878,0.162618 -0.136125,0.256797 -0.02624,0.09418 -0.03188,0.192783 -0.01612,0.28921 0.01576,0.09643 0.05212,0.188469 0.106878,0.269852 0.17925,0.354848 0.2505,0.753098 0.20475,1.146702 -0.04576,0.393641 -0.206626,0.765857 -0.46275,1.071698 -0.084,0.09993 -0.137625,0.221324 -0.154125,0.350018 -0.01688,0.128694 0.0041,0.259416 0.06,0.376899 0.05588,0.117522 0.144749,0.216937 0.256125,0.286704 0.111,0.06977 0.240374,0.107009 0.372,0.10738 0.102,-0.0011 0.2025,-0.02374 0.294749,-0.06652 0.09226,-0.04277 0.173625,-0.104615 0.23925,-0.181277 0.424874,-0.507732 0.6915,-1.125131 0.768,-1.778187 0.0765,-0.65302 -0.04012,-1.313931 -0.336,-1.903414 z" fill="#ff6c37" id="path22" style="stroke-width:3.71862" />
    </g>
  </g>
</svg>
