<svg xmlns="http://www.w3.org/2000/svg" xmlns:xlink="http://www.w3.org/1999/xlink" xml:space="preserve" width="128" height="128" viewBox="0 0 128 128">
    <defs>
        <linearGradient id="b">
            <stop offset="0" style="stop-color:#f4f4f4;stop-opacity:1"/>
            <stop offset="1" style="stop-color:#fff;stop-opacity:1"/>
        </linearGradient>
        <linearGradient id="a">
            <stop offset="0" style="stop-color:#999;stop-opacity:1"/>
            <stop offset=".05" style="stop-color:#b3b3b3;stop-opacity:1"/>
            <stop offset=".1" style="stop-color:#999;stop-opacity:1"/>
            <stop offset=".9" style="stop-color:#999;stop-opacity:1"/>
            <stop offset=".95" style="stop-color:#b3b3b3;stop-opacity:1"/>
            <stop offset="1" style="stop-color:#999;stop-opacity:1"/>
        </linearGradient>
        <linearGradient xlink:href="#a" id="c" x1="11.5" x2="116.5" y1="120.5" y2="120.5" gradientUnits="userSpaceOnUse"/>
        <linearGradient xlink:href="#b" id="d" x1="64" x2="64" y1="112.5" y2="7.5" gradientUnits="userSpaceOnUse"/>
        <linearGradient id="e" x1="14.649" x2="15.292" y1="11.048" y2="23.524" gradientTransform="translate(6.87 7.897)scale(3.44387)" gradientUnits="userSpaceOnUse">
            <stop stop-color="#6d4aff"/>
            <stop offset=".989" stop-color="#2ae0ca"/>
        </linearGradient>
        <linearGradient id="g" x1="19.579" x2="7.661" y1="26.309" y2="5.119" gradientTransform="translate(6.87 7.897)scale(3.44387)" gradientUnits="userSpaceOnUse">
            <stop offset=".066" stop-color="#abffef"/>
            <stop offset=".45" stop-color="#cac9ff"/>
            <stop offset="1" stop-color="#6d4aff"/>
        </linearGradient>
    </defs>
    <rect width="105" height="105" x="11.5" y="15.5" rx="13" ry="13" style="fill:url(#c);fill-opacity:1"/>
    <rect width="105" height="105" x="11.5" y="7.5" rx="13" ry="13" style="fill:url(#d);fill-opacity:1"/>
    <rect width="100.755" height="100.755" x="13.622" y="9.622" rx="12" ry="12" style="fill:#f4f4f4;fill-opacity:1;stroke-width:.959575"/>
    <path d="M32.32 33.58c-4.822.136-8.345 4.386-7.999 8.912v.002a8.3 8.3 0 0 0 1.025 3.386l.248.45L53.27 96.47l2.922 5.296q.256.457.555.866.074.102.15.2.288.378.609.713l.03.033q.288.296.596.557v-.002c.034.028.071.05.106.078.098.08.201.153.303.227q.246.184.505.349a8 8 0 0 0 .878.474q.157.076.316.144.342.14.695.25c.068.022.135.05.204.07q.462.132.936.21c.069.012.138.015.206.025q.37.053.74.074.165.006.33.006a8.5 8.5 0 0 0 1.58-.13c.117-.02.234-.038.35-.064q.392-.088.774-.214c.048-.015.097-.025.144-.041a8 8 0 0 0 .887-.371c.084-.041.164-.09.247-.134.208-.11.412-.225.61-.353q.14-.092.275-.19a8 8 0 0 0 1.289-1.132c.082-.089.168-.172.247-.266q.336-.391.631-.837l31.948-48.686c1.905-2.903 1.712-6.364.089-8.962v-.002a8.3 8.3 0 0 0-2.077-2.256 8 8 0 0 0-1.843-1.029 8.4 8.4 0 0 0-2.157-.54l-62.795-7.2a9 9 0 0 0-1.23-.054" style="fill:#d5d5d5;fill-opacity:1;stroke-width:3.97371"/>
    <g fill-rule="evenodd" clip-rule="evenodd">
        <path fill="url(#e)" d="M57.234 91.692c2.615 4.738 9.331 4.995 12.301.47l27.688-42.195c2.936-4.474.127-10.473-5.19-11.083l-54.422-6.24c-5.802-.666-9.933 5.5-7.11 10.613z" style="fill:url(#e);stroke-width:3.44387" transform="translate(-5.944 -8.13)scale(1.09288)"/>
        <path fill="url(#g)" d="m61.25 83.579-2.457 3.694c-.996 1.496-3.224 1.404-4.092-.17l2.533 4.59a7.2 7.2 0 0 0 1.68 2.051c3.143 2.632 8.164 2.161 10.621-1.582l27.688-42.195c2.936-4.474.127-10.474-5.19-11.083l-54.422-6.24c-5.802-.666-9.933 5.5-7.11 10.613l.214.389 46.322 5.36c2.952.341 4.51 3.674 2.878 6.158z" style="fill:url(#g);stroke-width:3.44387" transform="translate(-5.944 -8.13)scale(1.09288)"/>
    </g>
</svg>
