<svg xmlns="http://www.w3.org/2000/svg" xmlns:xlink="http://www.w3.org/1999/xlink" xml:space="preserve" width="128" height="128" viewBox="0 0 128 128">
    <defs>
        <linearGradient id="d">
            <stop offset="0" style="stop-color:#6f35c5;stop-opacity:1"/>
            <stop offset="1" style="stop-color:#205;stop-opacity:1"/>
        </linearGradient>
        <linearGradient id="c">
            <stop offset="0" style="stop-color:#150034;stop-opacity:1"/>
            <stop offset="1" style="stop-color:#532891;stop-opacity:1"/>
        </linearGradient>
        <linearGradient id="b">
            <stop offset="0" style="stop-color:#e3e3e3;stop-opacity:1"/>
            <stop offset="1" style="stop-color:#fff;stop-opacity:1"/>
        </linearGradient>
        <linearGradient id="a">
            <stop offset="0" style="stop-color:#999;stop-opacity:1"/>
            <stop offset=".3" style="stop-color:#999;stop-opacity:1"/>
            <stop offset=".5" style="stop-color:#b9b9b9;stop-opacity:1"/>
            <stop offset=".7" style="stop-color:#999;stop-opacity:1"/>
            <stop offset="1" style="stop-color:#999;stop-opacity:1"/>
        </linearGradient>
        <linearGradient xlink:href="#a" id="e" x1="9" x2="119" y1="115" y2="115" gradientUnits="userSpaceOnUse"/>
        <linearGradient xlink:href="#b" id="f" x1="64" x2="64" y1="115" y2="5" gradientUnits="userSpaceOnUse"/>
        <linearGradient xlink:href="#c" id="g" x1="27.234" x2="96.375" y1="34.494" y2="103.635" gradientTransform="translate(12.25 13.52)scale(.80858)" gradientUnits="userSpaceOnUse"/>
        <radialGradient xlink:href="#d" id="h" cx="66.34" cy="63.182" r="42.442" fx="66.34" fy="63.182" gradientTransform="matrix(1.45022 0 0 1.45538 -29.758 -28.62)" gradientUnits="userSpaceOnUse"/>
    </defs>
    <path d="M64 5A55 55 0 0 0 9 60v8a55 55 0 0 0 55 55 55 55 0 0 0 55-55v-8A55 55 0 0 0 64 5" style="fill:url(#e);fill-opacity:1"/>
    <circle cx="64" cy="60" r="55" style="fill:url(#f);fill-opacity:1;stroke-width:1"/>
    <ellipse cx="64" cy="60.187" rx="52.45" ry="52.637" style="fill:#e3e3e3;fill-opacity:1;stroke-width:.955332"/>
    <ellipse cx="64" cy="62.187" rx="42.442" ry="42.593" style="fill:url(#g);fill-opacity:1;stroke-width:.773046"/>
    <ellipse cx="64" cy="60.187" rx="44.435" ry="44.593" style="fill:url(#h);fill-opacity:1;stroke-width:.809345"/>
    <path d="M57.453 16.096a44.435 44.593 0 0 0-37.889 44.092 44.435 44.593 0 0 0 .442 6.183 32 32 0 0 0 2.797 1.77 44.435 44.593 0 0 0 .006.037 31.5 31.5 0 0 0 19.27 6.703A31.49 31.49 0 0 0 73.57 43.389a31.49 31.49 0 0 0-16.117-27.293" style="fill:#270c4f;fill-opacity:1;stroke-width:1.1574"/>
    <path d="M49.91 9.531a52.45 52.637 0 0 0-37.887 44.024A31.49 31.49 0 0 0 40.078 70.88 31.49 31.49 0 0 0 71.57 39.389 31.49 31.49 0 0 0 49.91 9.53" style="fill:#e3e3e3;fill-opacity:1;stroke-width:1.1574"/>
    <path d="M-5.962 35.582c0 .895-3.294 1.515-3.927 2.148-.632.633-1.252 3.927-2.147 3.927s-1.515-3.294-2.148-3.927-3.927-1.253-3.927-2.148 3.294-1.515 3.927-2.147c.633-.633 1.253-3.927 2.148-3.927s1.515 3.294 2.147 3.927c.633.632 3.927 1.252 3.927 2.147" style="fill:#e6e6e6;fill-opacity:1" transform="translate(93.338 5.375)scale(.81156)"/>
    <path d="M-5.962 35.582c0 .895-3.294 1.515-3.927 2.148-.632.633-1.252 3.927-2.147 3.927s-1.515-3.294-2.148-3.927-3.927-1.253-3.927-2.148 3.294-1.515 3.927-2.147c.633-.633 1.253-3.927 2.148-3.927s1.515 3.294 2.147 3.927c.633.632 3.927 1.252 3.927 2.147" style="fill:#e6e6e6;fill-opacity:1" transform="translate(83.677 41.02)scale(.66847)"/>
    <path d="M-5.962 35.582c0 .895-3.294 1.515-3.927 2.148-.632.633-1.252 3.927-2.147 3.927s-1.515-3.294-2.148-3.927-3.927-1.253-3.927-2.148 3.294-1.515 3.927-2.147c.633-.633 1.253-3.927 2.148-3.927s1.515 3.294 2.147 3.927c.633.632 3.927 1.252 3.927 2.147" style="fill:#e6e6e6;fill-opacity:1" transform="translate(45.16 61.227)scale(.65592)"/>
    <path d="M-5.962 35.582c0 .895-3.294 1.515-3.927 2.148-.632.633-1.252 3.927-2.147 3.927s-1.515-3.294-2.148-3.927-3.927-1.253-3.927-2.148 3.294-1.515 3.927-2.147c.633-.633 1.253-3.927 2.148-3.927s1.515 3.294 2.147 3.927c.633.632 3.927 1.252 3.927 2.147" style="fill:#e6e6e6;fill-opacity:1" transform="translate(85.594 68.566)scale(.6401)"/>
    <path d="M-5.962 35.582c0 .895-3.294 1.515-3.927 2.148-.632.633-1.252 3.927-2.147 3.927s-1.515-3.294-2.148-3.927-3.927-1.253-3.927-2.148 3.294-1.515 3.927-2.147c.633-.633 1.253-3.927 2.148-3.927s1.515 3.294 2.147 3.927c.633.632 3.927 1.252 3.927 2.147" style="fill:#e6e6e6;fill-opacity:1" transform="translate(59.016 69.468)scale(.33014)"/>
    <path d="M-5.962 35.582c0 .895-3.294 1.515-3.927 2.148-.632.633-1.252 3.927-2.147 3.927s-1.515-3.294-2.148-3.927-3.927-1.253-3.927-2.148 3.294-1.515 3.927-2.147c.633-.633 1.253-3.927 2.148-3.927s1.515 3.294 2.147 3.927c.633.632 3.927 1.252 3.927 2.147" style="fill:#e6e6e6;fill-opacity:1" transform="translate(94.822 48.907)scale(.69622)"/>
    <path d="M-5.962 35.582c0 .895-3.294 1.515-3.927 2.148-.632.633-1.252 3.927-2.147 3.927s-1.515-3.294-2.148-3.927-3.927-1.253-3.927-2.148 3.294-1.515 3.927-2.147c.633-.633 1.253-3.927 2.148-3.927s1.515 3.294 2.147 3.927c.633.632 3.927 1.252 3.927 2.147" style="fill:#e6e6e6;fill-opacity:1" transform="translate(67.156 77.778)scale(.54776)"/>
    <path d="M-5.962 35.582c0 .895-3.294 1.515-3.927 2.148-.632.633-1.252 3.927-2.147 3.927s-1.515-3.294-2.148-3.927-3.927-1.253-3.927-2.148 3.294-1.515 3.927-2.147c.633-.633 1.253-3.927 2.148-3.927s1.515 3.294 2.147 3.927c.633.632 3.927 1.252 3.927 2.147" style="fill:#e6e6e6;fill-opacity:1" transform="translate(96.038 39.72)scale(.33014)"/>
</svg>
