<svg xmlns="http://www.w3.org/2000/svg" xmlns:xlink="http://www.w3.org/1999/xlink" xml:space="preserve" width="128" height="128" viewBox="0 0 128 128">
    <defs>
        <linearGradient id="d">
            <stop offset="0" style="stop-color:#fff;stop-opacity:0"/>
            <stop offset="1" style="stop-color:#fff;stop-opacity:.66526365"/>
        </linearGradient>
        <linearGradient id="c">
            <stop offset="0" style="stop-color:#ff2a7f;stop-opacity:1"/>
            <stop offset=".5" style="stop-color:#ff8080;stop-opacity:1"/>
            <stop offset="1" style="stop-color:#fca;stop-opacity:1"/>
        </linearGradient>
        <linearGradient id="b">
            <stop offset="0" style="stop-color:#a04;stop-opacity:1"/>
            <stop offset=".5" style="stop-color:#ff2a2a;stop-opacity:1"/>
            <stop offset="1" style="stop-color:#f95;stop-opacity:1"/>
        </linearGradient>
        <linearGradient id="a">
            <stop offset="0" style="stop-color:#7b032d;stop-opacity:1"/>
            <stop offset=".3" style="stop-color:#a01227;stop-opacity:1"/>
            <stop offset=".5" style="stop-color:#f4252d;stop-opacity:1"/>
            <stop offset=".7" style="stop-color:#de2100;stop-opacity:1"/>
            <stop offset="1" style="stop-color:#ff7216;stop-opacity:1"/>
        </linearGradient>
        <linearGradient xlink:href="#a" id="e" x1="9" x2="119" y1="115" y2="115" gradientUnits="userSpaceOnUse"/>
        <linearGradient xlink:href="#b" id="g" x1="11.511" x2="116.489" y1="60" y2="60" gradientTransform="matrix(1 0 0 1.00355 0 -.027)" gradientUnits="userSpaceOnUse"/>
        <linearGradient xlink:href="#c" id="f" x1="9" x2="119" y1="60" y2="60" gradientUnits="userSpaceOnUse"/>
        <linearGradient xlink:href="#d" id="h" x1="64" x2="64" y1="115" y2="5" gradientUnits="userSpaceOnUse"/>
    </defs>
    <path d="M64 5A55 55 0 0 0 9 60v8a55 55 0 0 0 55 55 55 55 0 0 0 55-55v-8A55 55 0 0 0 64 5" style="fill:url(#e);fill-opacity:1"/>
    <circle cx="64" cy="60" r="55" style="fill:url(#f);fill-opacity:1;stroke-width:1"/>
    <ellipse cx="64" cy="60.187" rx="52.489" ry="52.676" style="fill:url(#g);fill-opacity:1;stroke-width:.956048"/>
    <g style="fill:#fff">
        <path d="m376.57 31.116-17.35 15.847-13.648 23.64h-28.44zm-54.453 0h33.815c3.36 0 5.905.858 6.38 3.69l-17.845 11.856 1.14-2.019c.812-1.434.434-2.674-1.42-2.674h-15.725l-14.35 24.86-20.457 13.59z" style="fill:#fff;fill-rule:evenodd;stroke-width:.340588" transform="translate(-271.578 7.166)"/>
    </g>
    <path d="M64 5A55 55 0 0 0 9 60a55 55 0 0 0 55 55 55 55 0 0 0 55-55A55 55 0 0 0 64 5m0 2.51a52.49 52.676 0 0 1 52.49 52.677A52.49 52.676 0 0 1 64 112.864a52.49 52.676 0 0 1-52.49-52.675A52.49 52.676 0 0 1 64 7.51" style="mix-blend-mode:luminosity;fill:url(#h);fill-opacity:1;stroke-width:1"/>
</svg>
