<svg width="128" height="128" viewBox="0 0 128 128" fill="none" xmlns="http://www.w3.org/2000/svg">
<path d="M103.5 15.5H24.5C17.3203 15.5 11.5 21.3203 11.5 28.5V107.5C11.5 114.68 17.3203 120.5 24.5 120.5H103.5C110.68 120.5 116.5 114.68 116.5 107.5V28.5C116.5 21.3203 110.68 15.5 103.5 15.5Z" fill="url(#paint0_linear_12_14527)"/>
<path d="M103.5 7.5H24.5C17.3203 7.5 11.5 13.3203 11.5 20.5V99.5C11.5 106.68 17.3203 112.5 24.5 112.5H103.5C110.68 112.5 116.5 106.68 116.5 99.5V20.5C116.5 13.3203 110.68 7.5 103.5 7.5Z" fill="url(#paint1_linear_12_14527)"/>
<path d="M102.378 9.62231H25.6223C18.9949 9.62231 13.6223 14.9949 13.6223 21.6223V98.3776C13.6223 105.005 18.9949 110.378 25.6223 110.378H102.378C109.005 110.378 114.378 105.005 114.378 98.3776V21.6223C114.378 14.9949 109.005 9.62231 102.378 9.62231Z" fill="#E6E6E6"/>
<g filter="url(#filter0_d_12_14527)">
<path d="M78.9182 55.5H97.7743C99.5558 55.5 101 56.9461 101 58.73V75.9289C101 82.4851 95.6923 87.8 89.145 87.8H89.089C82.5417 87.8009 77.2334 82.4868 77.2324 75.9306C77.2324 75.93 77.2324 75.9295 77.2324 75.9289V57.1881C77.2325 56.2558 77.9872 55.5 78.9182 55.5Z" fill="#5059C9"/>
</g>
<g filter="url(#filter1_d_12_14527)">
<path d="M91.6627 52.1C95.8819 52.1 99.3023 48.675 99.3023 44.45C99.3023 40.225 95.8819 36.8 91.6627 36.8C87.4435 36.8 84.0232 40.225 84.0232 44.45C84.0232 48.675 87.4435 52.1 91.6627 52.1Z" fill="#5059C9"/>
</g>
<g filter="url(#filter2_d_12_14527)">
<path d="M67.8952 52.1C73.9897 52.1 78.9301 47.1528 78.9301 41.05C78.9301 34.9473 73.9897 30 67.8952 30C61.8008 30 56.8604 34.9473 56.8604 41.05C56.8604 47.1528 61.8008 52.1 67.8952 52.1Z" fill="#7B83EB"/>
</g>
<g filter="url(#filter3_d_12_14527)">
<path d="M82.609 55.5H51.4838C49.7236 55.5436 48.3311 57.0064 48.372 58.7691V78.3854C48.1262 88.9632 56.4834 97.7412 67.0464 98C77.6094 97.7412 85.9666 88.9632 85.7208 78.3854V58.7691C85.7616 57.0064 84.3692 55.5436 82.609 55.5Z" fill="#7B83EB"/>
</g>
<path opacity="0.1" d="M68.7441 55.5V82.989C68.7356 84.2496 67.9728 85.382 66.8088 85.862C66.4381 86.019 66.0398 86.0999 65.6374 86.1H49.8659C49.6453 85.539 49.4415 84.978 49.2717 84.4C48.6775 82.4493 48.3743 80.4215 48.372 78.382V58.764C48.3312 57.0041 49.7213 55.5436 51.4787 55.5H68.7441Z" fill="black"/>
<path opacity="0.2" d="M67.0464 55.5V84.689C67.0464 85.092 66.9655 85.4909 66.8088 85.862C66.3294 87.0276 65.1985 87.7916 63.9397 87.8H50.6639C50.3752 87.239 50.1036 86.678 49.8659 86.1C49.6283 85.522 49.4415 84.978 49.2717 84.4C48.6775 82.4494 48.3743 80.4215 48.372 78.382V58.764C48.3312 57.0041 49.7213 55.5436 51.4787 55.5H67.0464Z" fill="black"/>
<path opacity="0.2" d="M67.0466 55.5V81.289C67.0337 83.0018 65.6503 84.3871 63.9399 84.4H49.272C48.6777 82.4494 48.3745 80.4215 48.3722 78.382V58.764C48.3314 57.0041 49.7216 55.5436 51.479 55.5H67.0466Z" fill="black"/>
<path opacity="0.2" d="M65.3489 55.5V81.289C65.336 83.0018 63.9526 84.3871 62.2422 84.4H49.272C48.6777 82.4494 48.3745 80.4215 48.3722 78.382V58.764C48.3314 57.0041 49.7216 55.5436 51.479 55.5H65.3489Z" fill="black"/>
<path opacity="0.1" d="M68.7442 46.711V52.066C68.4556 52.083 68.1839 52.1 67.8953 52.1C67.6067 52.1 67.3351 52.083 67.0465 52.066C66.4734 52.0279 65.9051 51.9369 65.3488 51.794C61.911 50.9788 59.0708 48.5645 57.7093 45.3C57.475 44.7518 57.2931 44.1826 57.166 43.6H65.6374C67.3505 43.6065 68.7377 44.9955 68.7442 46.711Z" fill="black"/>
<path opacity="0.2" d="M67.0464 48.411V52.066C66.4734 52.0279 65.9051 51.9369 65.3488 51.794C61.911 50.9788 59.0708 48.5645 57.7092 45.3H63.9397C65.6528 45.3065 67.0399 46.6956 67.0464 48.411Z" fill="black"/>
<path opacity="0.2" d="M67.0464 48.411V52.066C66.4734 52.0279 65.9051 51.9369 65.3488 51.794C61.911 50.9788 59.0708 48.5645 57.7092 45.3H63.9397C65.6528 45.3065 67.0399 46.6956 67.0464 48.411Z" fill="black"/>
<path opacity="0.2" d="M65.3488 48.411V51.794C61.911 50.9787 59.0708 48.5644 57.7092 45.3H62.242C63.9551 45.3065 65.3422 46.6956 65.3488 48.411Z" fill="black"/>
<path d="M31.1118 45.3H62.237C63.9556 45.3 65.3488 46.6951 65.3488 48.4161V79.5839C65.3488 81.3048 63.9556 82.7 62.237 82.7H31.1118C29.3932 82.7 28 81.3048 28 79.5839V48.4161C28 46.6951 29.3932 45.3 31.1118 45.3Z" fill="url(#paint2_linear_12_14527)"/>
<path d="M54.864 57.1626H48.642V74.1286H44.678V57.1626H38.4849V53.8714H54.864V57.1626Z" fill="white"/>
<defs>
<filter id="filter0_d_12_14527" x="77.2324" y="55.5" width="24.2676" height="33.8" filterUnits="userSpaceOnUse" color-interpolation-filters="sRGB">
<feFlood flood-opacity="0" result="BackgroundImageFix"/>
<feColorMatrix in="SourceAlpha" type="matrix" values="0 0 0 0 0 0 0 0 0 0 0 0 0 0 0 0 0 0 127 0" result="hardAlpha"/>
<feOffset dx="0.5" dy="1.5"/>
<feComposite in2="hardAlpha" operator="out"/>
<feColorMatrix type="matrix" values="0 0 0 0 0.482353 0 0 0 0 0.513726 0 0 0 0 0.921569 0 0 0 0.11 0"/>
<feBlend mode="normal" in2="BackgroundImageFix" result="effect1_dropShadow_12_14527"/>
<feBlend mode="normal" in="SourceGraphic" in2="effect1_dropShadow_12_14527" result="shape"/>
</filter>
<filter id="filter1_d_12_14527" x="84.0232" y="36.8" width="15.7791" height="16.8" filterUnits="userSpaceOnUse" color-interpolation-filters="sRGB">
<feFlood flood-opacity="0" result="BackgroundImageFix"/>
<feColorMatrix in="SourceAlpha" type="matrix" values="0 0 0 0 0 0 0 0 0 0 0 0 0 0 0 0 0 0 127 0" result="hardAlpha"/>
<feOffset dx="0.5" dy="1.5"/>
<feComposite in2="hardAlpha" operator="out"/>
<feColorMatrix type="matrix" values="0 0 0 0 0.482353 0 0 0 0 0.513726 0 0 0 0 0.921569 0 0 0 0.11 0"/>
<feBlend mode="normal" in2="BackgroundImageFix" result="effect1_dropShadow_12_14527"/>
<feBlend mode="normal" in="SourceGraphic" in2="effect1_dropShadow_12_14527" result="shape"/>
</filter>
<filter id="filter2_d_12_14527" x="56.8604" y="30" width="22.5698" height="23.6" filterUnits="userSpaceOnUse" color-interpolation-filters="sRGB">
<feFlood flood-opacity="0" result="BackgroundImageFix"/>
<feColorMatrix in="SourceAlpha" type="matrix" values="0 0 0 0 0 0 0 0 0 0 0 0 0 0 0 0 0 0 127 0" result="hardAlpha"/>
<feOffset dx="0.5" dy="1.5"/>
<feComposite in2="hardAlpha" operator="out"/>
<feColorMatrix type="matrix" values="0 0 0 0 0.482353 0 0 0 0 0.513726 0 0 0 0 0.921569 0 0 0 0.11 0"/>
<feBlend mode="normal" in2="BackgroundImageFix" result="effect1_dropShadow_12_14527"/>
<feBlend mode="normal" in="SourceGraphic" in2="effect1_dropShadow_12_14527" result="shape"/>
</filter>
<filter id="filter3_d_12_14527" x="48.3667" y="55.5" width="37.8594" height="44" filterUnits="userSpaceOnUse" color-interpolation-filters="sRGB">
<feFlood flood-opacity="0" result="BackgroundImageFix"/>
<feColorMatrix in="SourceAlpha" type="matrix" values="0 0 0 0 0 0 0 0 0 0 0 0 0 0 0 0 0 0 127 0" result="hardAlpha"/>
<feOffset dx="0.5" dy="1.5"/>
<feComposite in2="hardAlpha" operator="out"/>
<feColorMatrix type="matrix" values="0 0 0 0 0.482353 0 0 0 0 0.513726 0 0 0 0 0.921569 0 0 0 0.11 0"/>
<feBlend mode="normal" in2="BackgroundImageFix" result="effect1_dropShadow_12_14527"/>
<feBlend mode="normal" in="SourceGraphic" in2="effect1_dropShadow_12_14527" result="shape"/>
</filter>
<linearGradient id="paint0_linear_12_14527" x1="11.5" y1="120.5" x2="116.5" y2="120.5" gradientUnits="userSpaceOnUse">
<stop stop-color="#999999"/>
<stop offset="0.05" stop-color="#B3B3B3"/>
<stop offset="0.1" stop-color="#999999"/>
<stop offset="0.9" stop-color="#999999"/>
<stop offset="0.95" stop-color="#B3B3B3"/>
<stop offset="1" stop-color="#999999"/>
</linearGradient>
<linearGradient id="paint1_linear_12_14527" x1="64" y1="112.5" x2="64" y2="7.5" gradientUnits="userSpaceOnUse">
<stop stop-color="#E6E6E6"/>
<stop offset="1" stop-color="white"/>
</linearGradient>
<linearGradient id="paint2_linear_12_14527" x1="34.4883" y1="42.8651" x2="58.9107" y2="85.1059" gradientUnits="userSpaceOnUse">
<stop stop-color="#5A62C3"/>
<stop offset="0.5" stop-color="#4D55BD"/>
<stop offset="1" stop-color="#3940AB"/>
</linearGradient>
</defs>
</svg>
