<svg xmlns="http://www.w3.org/2000/svg" width="128" height="128" fill="none" viewBox="0 0 128 128">
    <path fill="url(#a)" d="M64 5A55 55 0 0 0 9 60v8a55 55 0 0 0 110 0v-8A55 55 0 0 0 64 5"/>
    <path fill="url(#b)" d="M64 115c30.376 0 55-24.624 55-55S94.376 5 64 5 9 29.624 9 60s24.624 55 55 55"/>
    <path fill="url(#c)" d="M64 112.614c29.058 0 52.614-23.556 52.614-52.614S93.058 7.386 64 7.386 11.386 30.942 11.386 60 34.942 112.614 64 112.614"/>
    <g filter="url(#d)">
        <path fill="#fff" d="m52 77.967 12-12 12 12-12 12zm24-24 12-12 12 12-12 12zm-24 0 12-12 12 12-12 12zm-24 0 12-12 12 12-12 12z"/>
    </g>
    <defs>
        <linearGradient id="a" x1="9" x2="119" y1="64" y2="64" gradientUnits="userSpaceOnUse">
            <stop stop-color="#2b2b2b"/>
            <stop offset=".301" stop-color="#454545" stop-opacity=".973"/>
            <stop offset=".502" stop-color="#4d4d4d" stop-opacity=".965"/>
            <stop offset=".751" stop-color="#454545" stop-opacity=".973"/>
            <stop offset="1" stop-color="#2b2b2b" stop-opacity=".467"/>
        </linearGradient>
        <linearGradient id="b" x1="25.346" x2="101.579" y1="22.674" y2="98.907" gradientUnits="userSpaceOnUse">
            <stop stop-color="#646464"/>
            <stop offset="1" stop-color="#707070"/>
        </linearGradient>
        <linearGradient id="c" x1="27.023" x2="99.949" y1="24.293" y2="97.22" gradientUnits="userSpaceOnUse">
            <stop stop-color="#3f3f3f"/>
            <stop offset="1" stop-color="#545454"/>
        </linearGradient>
        <filter id="d" width="72" height="52" x="28" y="41.967" color-interpolation-filters="sRGB" filterUnits="userSpaceOnUse">
            <feFlood flood-opacity="0" result="BackgroundImageFix"/>
            <feColorMatrix in="SourceAlpha" result="hardAlpha" values="0 0 0 0 0 0 0 0 0 0 0 0 0 0 0 0 0 0 127 0"/>
            <feOffset dy="4"/>
            <feComposite in2="hardAlpha" operator="out"/>
            <feColorMatrix values="0 0 0 0 0 0 0 0 0 0 0 0 0 0 0 0 0 0 0.25 0"/>
            <feBlend in2="BackgroundImageFix" result="effect1_dropShadow_2030_15883"/>
            <feBlend in="SourceGraphic" in2="effect1_dropShadow_2030_15883" result="shape"/>
        </filter>
    </defs>
</svg>
