<svg xmlns="http://www.w3.org/2000/svg" xmlns:xlink="http://www.w3.org/1999/xlink" xml:space="preserve" width="128" height="128" viewBox="0 0 128 128">
    <defs>
        <linearGradient id="b">
            <stop offset="0" style="stop-color:#e26e6e;stop-opacity:1"/>
            <stop offset=".5" style="stop-color:#ff8080;stop-opacity:1"/>
            <stop offset="1" style="stop-color:#fae5e5;stop-opacity:1"/>
        </linearGradient>
        <linearGradient id="a">
            <stop offset="0" style="stop-color:#7b032d;stop-opacity:1"/>
            <stop offset=".3" style="stop-color:#a01227;stop-opacity:1"/>
            <stop offset=".5" style="stop-color:#ca0942;stop-opacity:1"/>
            <stop offset=".7" style="stop-color:#a01227;stop-opacity:1"/>
            <stop offset="1" style="stop-color:#80052c;stop-opacity:1"/>
        </linearGradient>
        <linearGradient xlink:href="#a" id="c" x1="9" x2="119" y1="115" y2="115" gradientUnits="userSpaceOnUse"/>
        <linearGradient xlink:href="#b" id="d" x1="64" x2="64" y1="115" y2="7.511" gradientUnits="userSpaceOnUse"/>
        <filter id="e" width="1.093" height="1.1" x="-.046" y="-.05" style="color-interpolation-filters:sRGB">
            <feGaussianBlur stdDeviation="1.286"/>
        </filter>
    </defs>
    <path d="M64 5A55 55 0 0 0 9 60v8a55 55 0 0 0 55 55 55 55 0 0 0 55-55v-8A55 55 0 0 0 64 5" style="fill:url(#c);fill-opacity:1"/>
    <circle cx="64" cy="60" r="55" style="fill:url(#d);fill-opacity:1;stroke-width:1"/>
    <ellipse cx="64" cy="60.187" rx="52.489" ry="52.676" style="fill:#e34c4c;fill-opacity:1;stroke-width:.956048"/>
    <path d="M73.341 98.84c-3.271-.374-5.701-1.083-11.162-3.257-4.6-1.831-6.61-2.463-8.747-2.75-.81-.11-1.072-.12-2.492-.09-.872.017-1.818.058-2.102.09-1.098.123-2.807.793-4.525 1.772-1.487.849-2.137 1.279-4.12 2.727-.46.335-.857.595-.885.579-.027-.017-.066-.154-.086-.305s-.112-.566-.206-.922c-.17-.647-.17-.647.043-.838.476-.425 2.87-2.407 3.612-2.988 3.925-3.08 7.23-5.248 11.13-7.3l1.358-.716c.187-.1.409-.105 4.078-.107 3.88 0 3.88 0 4.39-.57 1.635-1.823 2.018-2.581 2.029-4.016.004-.542-.017-.713-.125-1.018-.243-.69-.853-1.588-2.025-2.984-.485-.577-2.906-3.015-4.862-4.894-2.732-2.626-4.266-4.478-5.574-6.729-.712-1.225-.683-1.02-.25-1.828a51 51 0 0 1 1.804-3.023c2.395-3.655 5.088-6.755 8.504-9.787.734-.652 1.026-.969.94-1.021-.06-.037-2.453-.498-3.867-.746a266 266 0 0 1-1.756-.312 215 215 0 0 0-2.464-.42 157 157 0 0 1-3.058-.536c-4.258-.814-5.745-.997-8.072-.997-1.349 0-1.666.017-2.366.13-1.078.172-1.826.4-2.646.802a7.2 7.2 0 0 0-2.146 1.597c-.909.973-1.155 1.725-1.05 3.203.12 1.684.578 2.535 2.284 4.242.954.955 1.22 1.169 2.61 2.1.468.313.897.621.953.684.057.064.137.26.178.436.074.32.074.32-.777 1.06-1.402 1.216-4.975 4.163-5.914 4.878-.192.147-.386.266-.43.266-.122 0-1.21-1.002-2.194-2.023-.672-.697-.962-1.046-1.238-1.49-.732-1.18-1.145-2.187-1.352-3.3-.075-.404-.097-.841-.097-1.938 0-1.37.005-1.436.16-2.039.353-1.375 1.06-3.004 1.85-4.265 1.535-2.45 4.133-5.023 7.033-6.966 4.418-2.961 9.631-4.91 14.658-5.482 1.779-.202 3.752-.164 6.344.123 2.406.266 6.19.802 9.77 1.384 2.707.44 3.296.531 4.954.766 3.394.481 5.632.707 8.186.825 4.034.186 6.823-.355 9.998-1.94.871-.435 2.31-1.328 2.869-1.78.178-.144.178-.144.5.836l.345 1.056c.035.108-1.097 1.248-3.491 3.516-1.14 1.08-3.248 3.094-4.686 4.477-2.614 2.515-2.614 2.515-3.82 2.814-2.382.59-3.678.755-6.281.797a41 41 0 0 1-4.977-.185c-1.525-.148-3.614-.424-4.758-.63-1.641-.294-1.466-.29-1.908-.045-1.701.943-3.156 2.399-3.922 3.925-.594 1.184-.865 2.78-.677 3.992.195 1.257 1.165 3.007 2.613 4.712.7.825 2.851 3.034 4.481 4.602 3.107 2.99 4.466 4.573 5.137 5.98.55 1.154.523 1.927-.114 3.237-.882 1.815-3.19 4.28-7.523 8.04-1.568 1.36-1.496 1.197-.693 1.573 4.38 2.05 9.203 3.848 10.762 4.014.632.067 1.631.066 2.412-.003.906-.08 2.257-.545 4.32-1.485 1.694-.772 4.52-2.308 5.672-3.084.108-.073.227-.132.264-.132s.276.42.53.933c.46.934.46.934.217 1.217-.931 1.08-6.646 5.586-11.036 8.7-1.738 1.233-3.396 2.373-3.775 2.595-.675.395-1.165.442-2.739.262z" style="fill:#a81d3f;fill-opacity:1;filter:url(#e)"/>
    <path d="M73.341 94.84c-3.271-.374-5.701-1.083-11.162-3.257-4.6-1.831-6.61-2.463-8.747-2.75-.81-.11-1.072-.12-2.492-.09-.872.017-1.818.058-2.102.09-1.098.123-2.807.793-4.525 1.772-1.487.849-2.137 1.279-4.12 2.727-.46.335-.857.595-.885.579-.027-.017-.066-.154-.086-.305s-.112-.566-.206-.922c-.17-.647-.17-.647.043-.838.476-.425 2.87-2.407 3.612-2.988 3.925-3.08 7.23-5.248 11.13-7.3l1.358-.716c.187-.1.409-.105 4.078-.107 3.88 0 3.88 0 4.39-.57 1.635-1.823 2.018-2.581 2.029-4.016.004-.542-.017-.713-.125-1.018-.243-.69-.853-1.588-2.025-2.984-.485-.577-2.906-3.015-4.862-4.894-2.732-2.626-4.266-4.478-5.574-6.729-.712-1.225-.683-1.02-.25-1.828a51 51 0 0 1 1.804-3.023c2.395-3.655 5.088-6.755 8.504-9.787.734-.652 1.026-.969.94-1.021-.06-.037-2.453-.498-3.867-.746a266 266 0 0 1-1.756-.312 215 215 0 0 0-2.464-.42 157 157 0 0 1-3.058-.536c-4.258-.814-5.745-.997-8.072-.997-1.349 0-1.666.017-2.366.13-1.078.172-1.826.4-2.646.802a7.2 7.2 0 0 0-2.146 1.597c-.909.973-1.155 1.725-1.05 3.203.12 1.684.578 2.535 2.284 4.242.954.955 1.22 1.169 2.61 2.1.468.313.897.621.953.684.057.064.137.26.178.436.074.32.074.32-.777 1.06-1.402 1.216-4.975 4.163-5.914 4.878-.192.147-.386.266-.43.266-.122 0-1.21-1.002-2.194-2.023-.672-.697-.962-1.046-1.238-1.49-.732-1.18-1.145-2.187-1.352-3.3-.075-.404-.097-.841-.097-1.938 0-1.37.005-1.436.16-2.039.353-1.375 1.06-3.004 1.85-4.265 1.535-2.45 4.133-5.023 7.033-6.966 4.418-2.961 9.631-4.91 14.658-5.482 1.779-.202 3.752-.164 6.344.123 2.406.266 6.19.802 9.77 1.384 2.707.44 3.296.531 4.954.766 3.394.481 5.632.707 8.186.825 4.034.186 6.823-.355 9.998-1.94.871-.435 2.31-1.328 2.869-1.78.178-.144.178-.144.5.836l.345 1.056c.035.108-1.097 1.248-3.491 3.516-1.14 1.08-3.248 3.094-4.686 4.477-2.614 2.515-2.614 2.515-3.82 2.814-2.382.59-3.678.755-6.281.797a41 41 0 0 1-4.977-.185c-1.525-.148-3.614-.424-4.758-.63-1.641-.294-1.466-.29-1.908-.045-1.701.943-3.156 2.399-3.922 3.925-.594 1.184-.865 2.78-.677 3.992.195 1.257 1.165 3.007 2.613 4.712.7.825 2.851 3.034 4.481 4.602 3.107 2.99 4.466 4.573 5.137 5.98.55 1.154.523 1.927-.114 3.237-.882 1.815-3.19 4.28-7.523 8.04-1.568 1.36-1.496 1.197-.693 1.573 4.38 2.05 9.203 3.848 10.762 4.014.632.067 1.631.066 2.412-.003.906-.08 2.257-.545 4.32-1.485 1.694-.772 4.52-2.308 5.672-3.084.108-.073.227-.132.264-.132s.276.42.53.933c.46.934.46.934.217 1.217-.931 1.08-6.646 5.586-11.036 8.7-1.738 1.233-3.396 2.373-3.775 2.595-.675.395-1.165.442-2.739.262z" style="fill:#404040;fill-opacity:1"/>
</svg>
