<svg xmlns="http://www.w3.org/2000/svg" width="128" height="128" fill="none" viewBox="0 0 128 128">
    <path fill="url(#a)" d="M61.772 14.01c-.473.017-.948.064-1.421.126-8.82.814-14.325 7.902-15.673 14.623l-2.179 10.84-4.348-9.622c-2.868-6.346-9.465-11.36-17.364-10.26-3.947.55-6.341-2.654-8.239.626-1.05 2.114-3.676 2.315-2.006 15.53C12.214 49.087 29.79 77.98 29.79 77.98c3.04 6.653 9.954 10.916 17.539 9.858 7.517-1.046 13.386-6.56 15.152-13.792l11.146-45.642c.904-3.698.202-7.908-2.461-10.818-2.329-2.546-5.799-3.71-9.393-3.577"/>
    <path fill="url(#b)" d="M40.026 114.64c7.236 4.043 19.381 6.572 31.89 4.769 30.038-4.331 50.875-32.004 46.505-61.763-4.369-29.757-32.3-50.402-62.338-46.072C26.046 15.902 5.21 43.577 9.58 73.334c.885 6.035 2.74 11.694 3.826 13.81.861 1.675.484 4.43 0 6.248l-2.834 8.267c-2.16 8.107 2.771 17.686 10.939 15.487l12.208-3.286c1.829-.493 4.656-.143 6.308.78"/>
    <path fill="url(#c)" d="M88.298 50.006A33.78 33.78 0 0 0 58.296 67.15a33.2 33.2 0 0 0-3.92 11.387 33.1 33.1 0 0 0 7.57 26.484l5.398 5.091 3.313 1.889 1.894.945 9.997-1.955-.22 5.733c4.77.697 9.862.009 14.487-1.335l.002-.001h.003a34 34 0 0 0 8.405-3.752c4.292-2.662 6.36-5.504 5.704-15.885-.873-4.905-4.742-5.496-9.698-6.576a12.8 12.8 0 0 0-9.476 1.621l-.003.002-.003.001c-.65.405-1.353.72-2.09.934a8 8 0 0 1-2.229.316h-.01a8.04 8.04 0 0 1-3.94-1.018 8.3 8.3 0 0 1-2.228-1.831 8.73 8.73 0 0 1-2.09-5.665v-.002a9.2 9.2 0 0 1 1.163-4.46 8.9 8.9 0 0 1 1.947-2.362l.001-.002h.002a8.6 8.6 0 0 1 2.56-1.517 8.08 8.08 0 0 1 7.331.84 8.4 8.4 0 0 1 2.472 2.58c3.542 5.795 11.358 7.713 17.265 4.235l.002-.001c1.947-1.144 3.51-3.095 4.201-4.043l.586-1.102c1.619-3.644 1.965-11.358-.287-15.048l-.002-.003-.002-.003c-2.488-4.064-6.022-4.282-10.006-6.964l-.003-.004-.004-.002a33.5 33.5 0 0 0-13.842-5.323 34 34 0 0 0-4.248-.348"/>
    <path fill="#eb7396" stroke="url(#d)" stroke-width="2" d="M56.225 7.563c29.502-4.251 56.92 16.026 61.207 45.228 4.288 29.203-16.158 56.375-45.657 60.628-12.318 1.775-24.234-.729-31.253-4.647l-.005-.003c-.979-.548-2.24-.895-3.473-1.047s-2.543-.124-3.627.169l-12.216 3.29c-3.878 1.043-6.703.36-8.315-1.225-1.609-1.583-2.316-4.368-1.292-8.208l3.462-12.98c.285-1.07.325-2.373.193-3.603-.115-1.077-.372-2.18-.774-3.098l-.181-.384c-1.02-1.985-2.85-7.529-3.726-13.494C6.28 38.99 26.726 11.815 56.225 7.563Z"/>
    <path fill="#3e353a" d="M61.788 10.01a16 16 0 0 0-1.42.124c-8.808.803-14.306 7.796-15.654 14.425L42.54 35.253l-4.342-9.492c-2.864-6.26-9.453-11.206-17.34-10.121-3.944.542-7.403 2.747-9.297 5.98-1.676 2.861-2.024 6.681-.936 9.958 1.087 3.275 19.221 41.538 19.221 41.538 3.037 6.564 9.943 10.769 17.517 9.726 7.508-1.033 13.37-6.472 15.133-13.607L73.627 24.21c.902-3.648.201-7.8-2.459-10.672-2.326-2.511-5.789-3.66-9.38-3.528"/>
    <path fill="#fff6fc" d="m15.675 30.018 19.221 40.21c2.006 4.198 7.334 7.356 12.39 6.68 5.056-.672 9.897-5.085 11.046-9.58l11.425-44.74c1.149-4.494-1.829-8.277-7.803-7.482-6.443.515-10.448 5.627-11.4 10.167L45.81 47.845c-.429 2.042-1.502 2.164-2.394.273L33.731 27.62c-1.989-4.206-6.962-7.751-12.203-7.053-5.24.696-7.86 5.25-5.853 9.446z"/>
    <path fill="#fff6fc" d="M88.307 46.006c-4.27-.08-8.516.656-12.508 2.169a33.83 33.83 0 0 0-17.503 15.046 33.5 33.5 0 0 0-3.92 11.433 33.32 33.32 0 0 0 7.573 26.594c2.55 3 5.613 5.526 9.047 7.459l.002.001.002.001a33.4 33.4 0 0 0 11.555 3.935h.003c4.771.701 9.642.364 14.268-.985l.003-.001h.002a33.8 33.8 0 0 0 8.408-3.768c4.293-2.672 6.541-7.668 5.668-12.594s-4.706-8.875-9.662-9.96a12.77 12.77 0 0 0-9.48 1.629l-.004.002h-.002a8.4 8.4 0 0 1-2.09.939 8 8 0 0 1-2.23.317h-.011a8.03 8.03 0 0 1-3.939-1.023 8.3 8.3 0 0 1-2.23-1.838 8.8 8.8 0 0 1-2.091-5.689v-.002a9.25 9.25 0 0 1 1.164-4.479 8.9 8.9 0 0 1 1.948-2.37v-.003h.003a8.6 8.6 0 0 1 2.56-1.523 8.06 8.06 0 0 1 7.334.843 8.4 8.4 0 0 1 2.471 2.592c3.543 5.818 11.362 7.744 17.27 4.251h.002c5.899-3.492 7.852-11.175 4.316-16.99l-.001-.003-.002-.003a33.4 33.4 0 0 0-9.823-10.28l-.004-.003-.004-.002a33.4 33.4 0 0 0-13.846-5.346 34 34 0 0 0-4.249-.35"/>
    <path fill="#3e353a" d="M94.567 90.587a7.7 7.7 0 0 1 5.623-.946c2.949.632 5.21 2.914 5.73 5.785.519 2.87-.808 5.757-3.36 7.314a28.97 28.97 0 0 1-19.27 3.963 28.8 28.8 0 0 1-9.81-3.272c-5.03-2.778-9.08-6.99-11.609-12.076a27.36 27.36 0 0 1-2.546-16.398 27.7 27.7 0 0 1 3.35-9.573c3.314-5.776 8.595-10.227 14.92-12.575a29.04 29.04 0 0 1 14.226-1.513 28.7 28.7 0 0 1 11.751 4.444 28.2 28.2 0 0 1 8.367 8.58c2.115 3.41.97 7.826-2.56 9.873-3.533 2.047-8.118.94-10.236-2.468a13.5 13.5 0 0 0-4.007-4.113 13.5 13.5 0 0 0-5.913-2.134 13.7 13.7 0 0 0-6.265.76 13.94 13.94 0 0 0-7.223 6.102 13.9 13.9 0 0 0-1.813 6.825 13.45 13.45 0 0 0 3.311 8.821 13.5 13.5 0 0 0 3.652 2.952 13.56 13.56 0 0 0 6.55 1.668c1.26 0 2.512-.175 3.721-.52 1.2-.346 2.349-.85 3.41-1.499"/>
    <defs>
        <linearGradient id="a" x1="9.918" x2="74" y1="51" y2="51" gradientUnits="userSpaceOnUse">
            <stop stop-color="#887786"/>
            <stop offset=".414" stop-color="#e2c3de"/>
            <stop offset=".813" stop-color="#887786"/>
            <stop offset="1" stop-color="#e2c3de"/>
        </linearGradient>
        <linearGradient id="b" x1="64" x2="64" y1="11" y2="120" gradientUnits="userSpaceOnUse">
            <stop stop-color="#eb7396"/>
            <stop offset="1" stop-color="#854155"/>
        </linearGradient>
        <linearGradient id="c" x1="54" x2="117.984" y1="83.362" y2="83.362" gradientUnits="userSpaceOnUse">
            <stop stop-color="#887786"/>
            <stop offset=".414" stop-color="#e2c3de"/>
            <stop offset=".813" stop-color="#887786"/>
            <stop offset="1" stop-color="#e2c3de"/>
        </linearGradient>
        <linearGradient id="d" x1="64" x2="64" y1="5.951" y2="115.049" gradientUnits="userSpaceOnUse">
            <stop stop-color="#ffcddb"/>
            <stop offset="1" stop-color="#fc95b2"/>
        </linearGradient>
    </defs>
</svg>
