<svg xmlns="http://www.w3.org/2000/svg" width="128" height="128" fill="none" viewBox="0 0 128 128">
    <path fill="url(#a)" d="M61.36 20.01c-.45.016-.903.06-1.354.119-8.396.77-13.637 7.475-14.92 13.832l-2.074 10.254-4.139-9.102c-2.73-6.002-9.01-10.745-16.53-9.705-3.758.52-6.037-2.51-7.843.592-1 2-3.5 2.19-1.91 14.69 1.592 12.501 18.322 39.832 18.322 39.832 2.895 6.294 9.476 10.326 16.697 9.326 7.156-.99 12.743-6.206 14.424-13.047l10.611-43.175c.86-3.498.192-7.48-2.343-10.233-2.217-2.408-5.52-3.51-8.942-3.383"/>
    <path fill="url(#b)" d="M40.616 115.886c6.907 3.857 18.5 6.27 30.44 4.55 28.673-4.132 48.563-30.536 44.391-58.93-4.17-28.392-30.832-48.09-59.504-43.959-28.672 4.13-48.562 30.535-44.39 58.928.845 5.758 2.615 11.157 3.652 13.176.822 1.598.462 4.227 0 5.961L12.5 103.5c-2.063 7.735 2.645 16.875 10.44 14.777l11.654-3.135c1.746-.471 4.445-.137 6.022.744"/>
    <path fill="url(#c)" d="M86.69 54.006a31.9 31.9 0 0 0-11.919 2.072A32.25 32.25 0 0 0 58.094 70.45a32 32 0 0 0-3.736 10.922 31.87 31.87 0 0 0 7.216 25.403l5.144 4.883 3.158 1.812 1.805.907 9.529-1.876L81 118c4.547.669 9.4.009 13.808-1.28l.002-.001h.003a32.2 32.2 0 0 0 8.011-3.599c4.091-2.553 6.062-5.279 5.436-15.236-.832-4.705-4.519-5.272-9.243-6.308a12.14 12.14 0 0 0-9.032 1.555l-.003.002-.003.001c-.62.388-1.29.69-1.991.896a7.6 7.6 0 0 1-2.125.303h-.01a7.63 7.63 0 0 1-3.754-.977 7.9 7.9 0 0 1-2.124-1.756 8.4 8.4 0 0 1-1.993-5.434v-.002a8.85 8.85 0 0 1 1.109-4.278 8.5 8.5 0 0 1 1.856-2.265l.001-.002h.002a8.2 8.2 0 0 1 2.439-1.455 7.66 7.66 0 0 1 6.988.805 8 8 0 0 1 2.356 2.476c3.376 5.558 10.826 7.397 16.456 4.061l.002-.001c1.855-1.097 3.345-2.968 4.004-3.877 0 0 .553-1.045.558-1.057 1.543-3.496 1.873-10.895-.273-14.434l-.002-.003-.002-.003c-2.371-3.898-5.74-4.107-9.537-6.68l-.003-.003-.004-.002a31.8 31.8 0 0 0-13.193-5.106 32 32 0 0 0-4.049-.334"/>
    <path fill="#eb7396" stroke="url(#d)" stroke-width="2" d="M56.085 13.537c28.136-4.053 54.285 15.277 58.373 43.114 4.09 27.838-15.41 53.741-43.543 57.795-11.748 1.692-23.112-.695-29.806-4.43l-.005-.003c-.933-.522-2.137-.853-3.312-.998s-2.425-.118-3.459.161l-11.651 3.136c-3.698.995-6.392.344-7.93-1.167-1.534-1.509-2.208-4.164-1.232-7.825l3.302-12.373c.272-1.02.31-2.262.184-3.435-.11-1.026-.355-2.077-.738-2.953l-.173-.366c-.972-1.892-2.718-7.177-3.553-12.863-4.09-27.836 15.41-53.74 43.543-57.793Z"/>
    <path fill="#3e353a" d="M61.36 16.01c-.45.016-.902.06-1.353.119-8.395.77-13.636 7.475-14.92 13.832l-2.073 10.254-4.139-9.102c-2.73-6.002-9.01-10.745-16.528-9.705-3.758.52-7.055 2.634-8.86 5.735-1.598 2.743-1.929 6.406-.892 9.548 1.036 3.141 18.32 39.831 18.32 39.831 2.894 6.294 9.476 10.326 16.695 9.326 7.156-.99 12.743-6.206 14.424-13.047l10.61-43.175c.86-3.498.192-7.48-2.343-10.233-2.217-2.408-5.518-3.51-8.94-3.383"/>
    <path fill="#fff6fc" d="M17.638 35.29 35.81 73.555c1.896 3.995 6.934 7 11.714 6.358 4.78-.64 9.357-4.84 10.443-9.118L68.77 28.22c1.086-4.277-1.73-7.877-7.377-7.12-6.092.49-9.878 5.355-10.78 9.675l-4.483 21.48c-.405 1.943-1.42 2.059-2.263.26l-9.158-19.507c-1.88-4.002-6.582-7.376-11.537-6.712-4.954.663-7.431 4.997-5.534 8.99z"/>
    <path fill="#fff6fc" d="M86.699 50.006a31.9 31.9 0 0 0-11.922 2.072A32.26 32.26 0 0 0 58.095 66.45a32 32 0 0 0-3.737 10.922A31.87 31.87 0 0 0 70.199 109.9l.002.001.002.001a31.8 31.8 0 0 0 11.014 3.759h.002c4.548.669 9.19.348 13.6-.941l.002-.001h.002a32.2 32.2 0 0 0 8.014-3.599c4.092-2.553 6.235-7.325 5.403-12.03-.833-4.706-4.486-8.478-9.21-9.514a12.15 12.15 0 0 0-9.036 1.555l-.003.002-.002.001c-.62.388-1.29.69-1.992.896a7.6 7.6 0 0 1-2.126.303h-.01a7.64 7.64 0 0 1-3.754-.977 7.9 7.9 0 0 1-2.125-1.756 8.4 8.4 0 0 1-1.994-5.434v-.002a8.85 8.85 0 0 1 1.11-4.278 8.5 8.5 0 0 1 1.856-2.265l.001-.002h.002a8.2 8.2 0 0 1 2.44-1.455 7.67 7.67 0 0 1 6.99.805 8.05 8.05 0 0 1 2.356 2.476c3.377 5.558 10.829 7.397 16.46 4.061l.002-.001c5.623-3.335 7.484-10.674 4.114-16.228l-.001-.003-.002-.003a31.9 31.9 0 0 0-9.363-9.82l-.003-.003-.004-.002a31.8 31.8 0 0 0-13.197-5.106 32 32 0 0 0-4.05-.334"/>
    <path fill="#3e353a" d="M92.589 93.174a7.15 7.15 0 0 1 5.31-.912c2.786.609 4.922 2.81 5.413 5.578.49 2.767-.763 5.552-3.173 7.053a26.9 26.9 0 0 1-18.2 3.822 26.8 26.8 0 0 1-9.265-3.156 26.87 26.87 0 0 1-13.37-27.457 27.1 27.1 0 0 1 3.165-9.232 27.23 27.23 0 0 1 14.09-12.126 26.9 26.9 0 0 1 13.437-1.459c3.98.58 7.777 2.047 11.098 4.286a26.9 26.9 0 0 1 7.903 8.274c1.997 3.287.916 7.546-2.418 9.52-3.337 1.974-7.667.907-9.668-2.38a12.9 12.9 0 0 0-3.784-3.966 12.6 12.6 0 0 0-5.585-2.058 12.66 12.66 0 0 0-5.917.733 13.1 13.1 0 0 0-3.898 2.319 13.3 13.3 0 0 0-2.924 3.565 13.6 13.6 0 0 0-1.712 6.581 13.13 13.13 0 0 0 3.127 8.507 12.8 12.8 0 0 0 3.449 2.846 12.6 12.6 0 0 0 6.186 1.609c1.19 0 2.373-.169 3.515-.502a13 13 0 0 0 3.22-1.445"/>
    <defs>
        <linearGradient id="a" x1="11.996" x2="73" y1="55" y2="55" gradientUnits="userSpaceOnUse">
            <stop stop-color="#887786"/>
            <stop offset=".414" stop-color="#e2c3de"/>
            <stop offset=".813" stop-color="#887786"/>
            <stop offset="1" stop-color="#e2c3de"/>
        </linearGradient>
        <linearGradient id="b" x1="63.5" x2="63.5" y1="17" y2="121" gradientUnits="userSpaceOnUse">
            <stop stop-color="#eb7396"/>
            <stop offset="1" stop-color="#854155"/>
        </linearGradient>
        <linearGradient id="c" x1="54" x2="114.985" y1="86" y2="86" gradientUnits="userSpaceOnUse">
            <stop stop-color="#887786"/>
            <stop offset=".414" stop-color="#e2c3de"/>
            <stop offset=".813" stop-color="#887786"/>
            <stop offset="1" stop-color="#e2c3de"/>
        </linearGradient>
        <linearGradient id="d" x1="63.5" x2="63.5" y1="12" y2="116" gradientUnits="userSpaceOnUse">
            <stop stop-color="#ffcddb"/>
            <stop offset="1" stop-color="#fc95b2"/>
        </linearGradient>
    </defs>
</svg>
