<svg xmlns="http://www.w3.org/2000/svg" width="128" height="128" fill="none" viewBox="0 0 128 128">
    <path fill="url(#a)" d="M40.026 115.64c7.236 4.043 19.381 6.572 31.891 4.769 30.037-4.33 50.875-32.004 46.504-61.764-4.369-29.756-32.3-50.4-62.338-46.071-30.037 4.329-50.875 32.003-46.504 61.76.886 6.035 2.74 11.694 3.827 13.81.86 1.675.484 4.43 0 6.248l-2.835 8.267c-2.161 8.107 2.771 17.686 10.939 15.487l12.207-3.286c1.83-.493 4.659-.143 6.31.78"/>
    <path fill="#fff" d="M40.026 110.64c7.236 4.043 19.381 6.572 31.891 4.769 30.037-4.33 50.875-32.004 46.504-61.764-4.369-29.756-32.3-50.4-62.338-46.071-30.037 4.329-50.875 32.003-46.504 61.76.886 6.035 2.74 11.694 3.827 13.81.86 1.675 1.165 4.51.681 6.329l-3.458 12.968c-2.162 8.107 2.713 12.904 10.881 10.705l12.207-3.286c1.83-.493 4.659-.143 6.31.78"/>
    <path fill="url(#b)" d="M43.513 102.476c6.184 3.412 16.562 5.547 27.253 4.025 25.667-3.655 43.474-27.013 39.739-52.13-3.733-25.116-27.602-42.54-53.27-38.887-25.668 3.654-43.475 27.012-39.74 52.128.757 5.094 2.341 9.87 3.27 11.656.735 1.414.996 3.807.582 5.342l-2.955 10.945c-1.848 6.843 2.319 10.892 9.298 9.036l10.432-2.773c1.563-.417 3.98-.121 5.392.658"/>
    <path fill="#fff" fill-rule="evenodd" d="M49.747 37.415c-1.07-2.296-2.195-2.343-3.211-2.383L43.8 35c-.951 0-2.498.345-3.805 1.726C38.688 38.106 35 41.443 35 48.23s5.114 13.345 5.826 14.266c.713.922 9.873 15.293 24.378 20.823C77.258 87.914 79.711 87 82.328 86.771c2.618-.23 8.443-3.337 9.632-6.559 1.188-3.22 1.189-5.98.833-6.558s-1.308-.92-2.737-1.61c-1.428-.69-8.443-4.027-9.75-4.488-1.308-.46-2.26-.69-3.212.691s-3.684 4.486-4.517 5.407c-.833.92-1.664 1.037-3.092.347s-6.024-2.147-11.476-6.846c-4.242-3.657-7.106-8.173-7.94-9.553-.833-1.38-.088-2.127.628-2.814.64-.619 1.427-1.611 2.142-2.416.715-.806.95-1.381 1.425-2.3.475-.92.238-1.727-.119-2.416-.357-.69-3.13-7.513-4.398-10.242" clip-rule="evenodd"/>
    <defs>
        <linearGradient id="a" x1="64" x2="64" y1="12" y2="121" gradientUnits="userSpaceOnUse">
            <stop stop-color="#e7e7e7"/>
            <stop offset="1" stop-color="#dbdbdb"/>
        </linearGradient>
        <linearGradient id="b" x1="12.524" x2="109.804" y1="7.923" y2="108.161" gradientUnits="userSpaceOnUse">
            <stop stop-color="#46c756"/>
            <stop offset="1" stop-color="#2cb13c"/>
        </linearGradient>
    </defs>
</svg>
