<svg xmlns="http://www.w3.org/2000/svg" width="128" height="128" fill="none" viewBox="0 0 128 128">
    <path fill="url(#a)" d="M40.616 115.886c6.907 3.857 18.5 6.27 30.441 4.55 28.672-4.132 48.562-30.536 44.39-58.93-4.17-28.392-30.832-48.09-59.504-43.959-28.672 4.13-48.562 30.535-44.39 58.928.845 5.758 2.615 11.157 3.652 13.176.822 1.598.462 4.227 0 5.961L12.5 103.5c-2.063 7.735 2.645 16.875 10.441 14.777l11.653-3.135c1.746-.471 4.446-.137 6.023.744z"/>
    <path fill="#fff" d="M40.616 110.886c6.907 3.857 18.5 6.27 30.441 4.55 28.672-4.132 48.562-30.536 44.39-58.93-4.17-28.392-30.832-48.09-59.504-43.959-28.672 4.13-48.562 30.535-44.39 58.928.845 5.758 2.615 11.157 3.652 13.176.822 1.598 1.113 4.304.65 6.038l-3.3 12.374c-2.064 7.735 2.59 12.312 10.386 10.214l11.653-3.135c1.746-.471 4.446-.137 6.023.744z"/>
    <path fill="url(#b)" d="M44.103 103.673c5.855 3.264 15.68 5.305 25.803 3.85 24.302-3.496 41.162-25.838 37.625-49.864-3.534-24.024-26.133-40.691-50.437-37.196C32.792 23.958 15.932 46.3 19.47 70.325c.716 4.872 2.216 9.44 3.096 11.149.696 1.352.942 3.642.55 5.11l-2.797 10.47c-1.75 6.544 2.195 10.417 8.804 8.642l9.876-2.653c1.48-.398 3.77-.116 5.106.63z"/>
    <path fill="#fff" fill-rule="evenodd" d="M49.984 41.323c-1.014-2.209-2.082-2.254-3.045-2.292L44.345 39c-.902 0-2.369.332-3.608 1.66C39.497 41.987 36 45.196 36 51.722s4.85 12.832 5.525 13.718 9.362 14.705 23.117 20.022c11.43 4.418 13.756 3.54 16.238 3.318 2.482-.22 8.007-3.208 9.134-6.305 1.127-3.098 1.127-5.752.79-6.306-.338-.555-1.24-.885-2.595-1.549s-8.007-3.872-9.247-4.315-2.142-.663-3.045.664c-.903 1.328-3.493 4.314-4.283 5.2-.79.885-1.579.996-2.933.333s-5.712-2.064-10.882-6.583c-4.023-3.516-6.738-7.858-7.529-9.185s-.084-2.046.595-2.706c.607-.595 1.353-1.55 2.03-2.324.679-.774.902-1.327 1.352-2.211s.226-1.66-.112-2.323c-.339-.663-2.968-7.224-4.17-9.848" clip-rule="evenodd"/>
    <defs>
        <linearGradient id="a" x1="63.5" x2="63.5" y1="17" y2="121" gradientUnits="userSpaceOnUse">
            <stop stop-color="#e7e7e7"/>
            <stop offset="1" stop-color="#dbdbdb"/>
        </linearGradient>
        <linearGradient id="b" x1="14.762" x2="107.836" y1="13.231" y2="108.161" gradientUnits="userSpaceOnUse">
            <stop stop-color="#46c756"/>
            <stop offset="1" stop-color="#2cb13c"/>
        </linearGradient>
    </defs>
</svg>
