<svg xmlns="http://www.w3.org/2000/svg" width="128" height="128" fill="none" viewBox="0 0 128 128">
    <path fill="url(#a)" d="M103.5 16.5h-79c-7.18 0-13 5.82-13 13v79c0 7.18 5.82 13 13 13h79c7.18 0 13-5.82 13-13v-79c0-7.18-5.82-13-13-13"/>
    <path fill="#ccc" d="M103.5 6.5h-79c-7.18 0-13 5.82-13 13v79c0 7.18 5.82 13 13 13h79c7.18 0 13-5.82 13-13v-79c0-7.18-5.82-13-13-13"/>
    <path fill="url(#b)" d="M102.162 8.838H25.838c-6.628 0-12 5.373-12 12v76.324c0 6.627 5.373 12 12 12h76.324c6.627 0 12-5.373 12-12V20.838c0-6.628-5.373-12-12-12"/>
    <path fill="#fff" fill-opacity=".05" d="M21.847 7v2.968H16.99V7.87a6 6 0 0 0-1.086.878v1.221h-.936q-.335.571-.558 1.193h1.494v5.33H14v1.194h1.904v5.333H14v1.192h1.904v5.33H14v1.194h1.904v5.333H14v1.193h1.904v5.333H14v1.192h1.904v5.329H14v1.193h1.904v5.335H14v1.193h1.904v5.333H14v1.193h1.904v5.33H14v1.193h1.904v5.33H14v1.193h1.904v5.331H14v1.193h1.904v5.335H14v1.193h1.904v5.333H14v1.193h1.904v5.33H14v1.193h1.904v5.331H14.41q.225.633.558 1.193h.936v1.221q.496.504 1.087.878v-2.099h4.856V112h1.086v-2.968h4.858V112h1.087v-2.968h4.856V112h1.087v-2.968h4.858V112h1.087v-2.968h4.858V112h1.087v-2.968h4.856V112h1.087v-2.968h4.858V112h1.086v-2.968h4.859V112h1.086v-2.968H69.4V112h1.087v-2.968h4.858V112h1.087v-2.968h4.856V112h1.087v-2.968h4.858V112h1.087v-2.968h4.858V112h1.087v-2.968h4.856V112h1.086v-2.968h4.859V112h1.086v-2.968h4.859v2.099a6 6 0 0 0 1.086-.878v-1.221h.936a6.7 6.7 0 0 0 .558-1.193h-1.494v-5.331H114v-1.193h-1.904v-5.33H114v-1.193h-1.904v-5.333H114v-1.193h-1.904v-5.335H114v-1.193h-1.904v-5.33H114v-1.193h-1.904v-5.331H114v-1.193h-1.904v-5.33H114v-1.193h-1.904v-5.333H114v-1.193h-1.904v-5.335H114v-1.193h-1.904v-5.329H114v-1.192h-1.904V37.26H114v-1.193h-1.904v-5.333H114V29.54h-1.904v-5.33H114v-1.194h-1.904v-5.332H114v-1.193h-1.904V11.16h1.494a7 7 0 0 0-.558-1.193h-.936v-1.22a6 6 0 0 0-1.086-.879v2.1h-4.859V7h-1.086v2.968h-4.859V7H99.12v2.968h-4.856V7h-1.087v2.968h-4.858V7h-1.087v2.968h-4.858V7h-1.087v2.968h-4.856V7h-1.087v2.968h-4.858V7H69.4v2.968h-4.856V7h-1.086v2.968h-4.859V7h-1.086v2.968h-4.858V7h-1.087v2.968H46.71V7h-1.087v2.968h-4.858V7h-1.087v2.968H34.82V7h-1.087v2.968h-4.856V7H27.79v2.968h-4.858V7zm-4.857 4.161h4.857v5.33H16.99zm5.943 0h4.858v5.33h-4.858zm5.945 0h4.856v5.33h-4.856zm5.943 0h4.858v5.33h-4.858zm5.945 0h4.858v5.33h-4.858zm5.945 0h4.856v5.33H46.71zm5.943 0h4.858v5.33h-4.858zm5.944 0h4.859v5.33h-4.859zm5.945 0H69.4v5.33h-4.856zm5.943 0h4.858v5.33h-4.858zm5.945 0h4.856v5.33h-4.856zm5.943 0h4.858v5.33h-4.858zm5.945 0h4.858v5.33h-4.858zm5.945 0h4.856v5.33h-4.856zm5.942 0h4.859v5.33h-4.859zm5.945 0h4.859v5.33h-4.859zm-89.16 6.524h4.856v5.333H16.99zm5.942 0h4.858v5.333h-4.858zm5.945 0h4.856v5.333h-4.856zm5.943 0h4.858v5.333h-4.858zm5.945 0h4.858v5.333h-4.858zm5.945 0h4.856v5.333H46.71zm5.943 0h4.858v5.333h-4.858zm5.944 0h4.859v5.333h-4.859zm5.945 0H69.4v5.333h-4.856zm5.943 0h4.858v5.333h-4.858zm5.945 0h4.856v5.333h-4.856zm5.943 0h4.858v5.333h-4.858zm5.945 0h4.858v5.333h-4.858zm5.945 0h4.856v5.333h-4.856zm5.942 0h4.859v5.333h-4.859zm5.945 0h4.859v5.333h-4.859zm-89.16 6.525h4.856v5.33H16.99zm5.942 0h4.858v5.33h-4.858zm5.945 0h4.856v5.33h-4.856zm5.943 0h4.858v5.33h-4.858zm5.945 0h4.858v5.33h-4.858zm5.945 0h4.856v5.33H46.71zm5.943 0h4.858v5.33h-4.858zm5.944 0h4.859v5.33h-4.859zm5.945 0H69.4v5.33h-4.856zm5.943 0h4.858v5.33h-4.858zm5.945 0h4.856v5.33h-4.856zm5.943 0h4.858v5.33h-4.858zm5.945 0h4.858v5.33h-4.858zm5.945 0h4.856v5.33h-4.856zm5.942 0h4.859v5.33h-4.859zm5.945 0h4.859v5.33h-4.859zm-89.16 6.524h4.856v5.333H16.99zm5.942 0h4.858v5.333h-4.858zm5.945 0h4.856v5.333h-4.856zm5.943 0h4.858v5.333h-4.858zm5.945 0h4.858v5.333h-4.858zm5.945 0h4.856v5.333H46.71zm5.943 0h4.858v5.333h-4.858zm5.944 0h4.859v5.333h-4.859zm5.945 0H69.4v5.333h-4.856zm5.943 0h4.858v5.333h-4.858zm5.945 0h4.856v5.333h-4.856zm5.943 0h4.858v5.333h-4.858zm5.945 0h4.858v5.333h-4.858zm5.945 0h4.856v5.333h-4.856zm5.942 0h4.859v5.333h-4.859zm5.945 0h4.859v5.333h-4.859zm-89.16 6.526h4.856v5.333H16.99zm5.942 0h4.858v5.333h-4.858zm5.945 0h4.856v5.333h-4.856zm5.943 0h4.858v5.333h-4.858zm5.945 0h4.858v5.333h-4.858zm5.945 0h4.856v5.333H46.71zm5.943 0h4.858v5.333h-4.858zm5.944 0h4.859v5.333h-4.859zm5.945 0H69.4v5.333h-4.856zm5.943 0h4.858v5.333h-4.858zm5.945 0h4.856v5.333h-4.856zm5.943 0h4.858v5.333h-4.858zm5.945 0h4.858v5.333h-4.858zm5.945 0h4.856v5.333h-4.856zm5.942 0h4.859v5.333h-4.859zm5.945 0h4.859v5.333h-4.859zm-89.16 6.525h4.856v5.329H16.99zm5.942 0h4.858v5.329h-4.858zm5.945 0h4.856v5.329h-4.856zm5.943 0h4.858v5.329h-4.858zm5.945 0h4.858v5.329h-4.858zm5.945 0h4.856v5.329H46.71zm5.943 0h4.858v5.329h-4.858zm5.944 0h4.859v5.329h-4.859zm5.945 0H69.4v5.329h-4.856zm5.943 0h4.858v5.329h-4.858zm5.945 0h4.856v5.329h-4.856zm5.943 0h4.858v5.329h-4.858zm5.945 0h4.858v5.329h-4.858zm5.945 0h4.856v5.329h-4.856zm5.942 0h4.859v5.329h-4.859zm5.945 0h4.859v5.329h-4.859zm-89.16 6.522h4.856v5.335H16.99zm5.942 0h4.858v5.335h-4.858zm5.945 0h4.856v5.335h-4.856zm5.943 0h4.858v5.335h-4.858zm5.945 0h4.858v5.335h-4.858zm5.945 0h4.856v5.335H46.71zm5.943 0h4.858v5.335h-4.858zm5.944 0h4.859v5.335h-4.859zm5.945 0H69.4v5.335h-4.856zm5.943 0h4.858v5.335h-4.858zm5.945 0h4.856v5.335h-4.856zm5.943 0h4.858v5.335h-4.858zm5.945 0h4.858v5.335h-4.858zm5.945 0h4.856v5.335h-4.856zm5.942 0h4.859v5.335h-4.859zm5.945 0h4.859v5.335h-4.859zm-89.16 6.528h4.856v5.333H16.99zm5.942 0h4.858v5.333h-4.858zm5.945 0h4.856v5.333h-4.856zm5.943 0h4.858v5.333h-4.858zm5.945 0h4.858v5.333h-4.858zm5.945 0h4.856v5.333H46.71zm5.943 0h4.858v5.333h-4.858zm5.944 0h4.859v5.333h-4.859zm5.945 0H69.4v5.333h-4.856zm5.943 0h4.858v5.333h-4.858zm5.945 0h4.856v5.333h-4.856zm5.943 0h4.858v5.333h-4.858zm5.945 0h4.858v5.333h-4.858zm5.945 0h4.856v5.333h-4.856zm5.942 0h4.859v5.333h-4.859zm5.945 0h4.859v5.333h-4.859zm-89.16 6.526h4.856v5.33H16.99zm5.942 0h4.858v5.33h-4.858zm5.945 0h4.856v5.33h-4.856zm5.943 0h4.858v5.33h-4.858zm5.945 0h4.858v5.33h-4.858zm5.945 0h4.856v5.33H46.71zm5.943 0h4.858v5.33h-4.858zm5.944 0h4.859v5.33h-4.859zm5.945 0H69.4v5.33h-4.856zm5.943 0h4.858v5.33h-4.858zm5.945 0h4.856v5.33h-4.856zm5.943 0h4.858v5.33h-4.858zm5.945 0h4.858v5.33h-4.858zm5.945 0h4.856v5.33h-4.856zm5.942 0h4.859v5.33h-4.859zm5.945 0h4.859v5.33h-4.859zm-89.16 6.523h4.856v5.33H16.99zm5.942 0h4.858v5.33h-4.858zm5.945 0h4.856v5.33h-4.856zm5.943 0h4.858v5.33h-4.858zm5.945 0h4.858v5.33h-4.858zm5.945 0h4.856v5.33H46.71zm5.943 0h4.858v5.33h-4.858zm5.944 0h4.859v5.33h-4.859zm5.945 0H69.4v5.33h-4.856zm5.943 0h4.858v5.33h-4.858zm5.945 0h4.856v5.33h-4.856zm5.943 0h4.858v5.33h-4.858zm5.945 0h4.858v5.33h-4.858zm5.945 0h4.856v5.33h-4.856zm5.942 0h4.859v5.33h-4.859zm5.945 0h4.859v5.33h-4.859zm-89.16 6.523h4.856v5.331H16.99zm5.942 0h4.858v5.331h-4.858zm5.945 0h4.856v5.331h-4.856zm5.943 0h4.858v5.331h-4.858zm5.945 0h4.858v5.331h-4.858zm5.945 0h4.856v5.331H46.71zm5.943 0h4.858v5.331h-4.858zm5.944 0h4.859v5.331h-4.859zm5.945 0H69.4v5.331h-4.856zm5.943 0h4.858v5.331h-4.858zm5.945 0h4.856v5.331h-4.856zm5.943 0h4.858v5.331h-4.858zm5.945 0h4.858v5.331h-4.858zm5.945 0h4.856v5.331h-4.856zm5.942 0h4.859v5.331h-4.859zm5.945 0h4.859v5.331h-4.859zm-89.16 6.524h4.856v5.335H16.99zm5.942 0h4.858v5.335h-4.858zm5.945 0h4.856v5.335h-4.856zm5.943 0h4.858v5.335h-4.858zm5.945 0h4.858v5.335h-4.858zm5.945 0h4.856v5.335H46.71zm5.943 0h4.858v5.335h-4.858zm5.944 0h4.859v5.335h-4.859zm5.945 0H69.4v5.335h-4.856zm5.943 0h4.858v5.335h-4.858zm5.945 0h4.856v5.335h-4.856zm5.943 0h4.858v5.335h-4.858zm5.945 0h4.858v5.335h-4.858zm5.945 0h4.856v5.335h-4.856zm5.942 0h4.859v5.335h-4.859zm5.945 0h4.859v5.335h-4.859zm-89.16 6.528h4.856v5.333H16.99zm5.942 0h4.858v5.333h-4.858zm5.945 0h4.856v5.333h-4.856zm5.943 0h4.858v5.333h-4.858zm5.945 0h4.858v5.333h-4.858zm5.945 0h4.856v5.333H46.71zm5.943 0h4.858v5.333h-4.858zm5.944 0h4.859v5.333h-4.859zm5.945 0H69.4v5.333h-4.856zm5.943 0h4.858v5.333h-4.858zm5.945 0h4.856v5.333h-4.856zm5.943 0h4.858v5.333h-4.858zm5.945 0h4.858v5.333h-4.858zm5.945 0h4.856v5.333h-4.856zm5.942 0h4.859v5.333h-4.859zm5.945 0h4.859v5.333h-4.859zm-89.16 6.526h4.856v5.33H16.99zm5.942 0h4.858v5.33h-4.858zm5.945 0h4.856v5.33h-4.856zm5.943 0h4.858v5.33h-4.858zm5.945 0h4.858v5.33h-4.858zm5.945 0h4.856v5.33H46.71zm5.943 0h4.858v5.33h-4.858zm5.944 0h4.859v5.33h-4.859zm5.945 0H69.4v5.33h-4.856zm5.943 0h4.858v5.33h-4.858zm5.945 0h4.856v5.33h-4.856zm5.943 0h4.858v5.33h-4.858zm5.945 0h4.858v5.33h-4.858zm5.945 0h4.856v5.33h-4.856zm5.942 0h4.859v5.33h-4.859zm5.945 0h4.859v5.33h-4.859zm-89.16 6.523h4.856v5.331H16.99zm5.942 0h4.858v5.331h-4.858zm5.945 0h4.856v5.331h-4.856zm5.943 0h4.858v5.331h-4.858zm5.945 0h4.858v5.331h-4.858zm5.945 0h4.856v5.331H46.71zm5.943 0h4.858v5.331h-4.858zm5.944 0h4.859v5.331h-4.859zm5.945 0H69.4v5.331h-4.856zm5.943 0h4.858v5.331h-4.858zm5.945 0h4.856v5.331h-4.856zm5.943 0h4.858v5.331h-4.858zm5.945 0h4.858v5.331h-4.858zm5.945 0h4.856v5.331h-4.856zm5.942 0h4.859v5.331h-4.859zm5.945 0h4.859v5.331h-4.859z"/>
    <path fill="#e5e5e5" stroke="#e5e5e5" stroke-width=".5" d="M93.31 24.75c3.062 0 4.596 3.703 2.43 5.868L61.1 65.258h9.025v-4.383h4.75v5.695a3.44 3.44 0 0 1-3.437 3.438H56.35l-6.805 6.805h32.267V50.25h4.75v26.813a4.5 4.5 0 0 1-4.5 4.5H44.796L37.858 88.5h53.767c1.036 0 1.875-.84 1.875-1.875v-47h4.75v47a6.625 6.625 0 0 1-6.625 6.625H34.69c-3.062 0-4.596-3.703-2.43-5.868l34.507-34.507h-8.892v4.25h-4.75v-5.562a3.44 3.44 0 0 1 3.438-3.438h14.954l6.937-6.937H46.188V67.75h-4.75V40.938a4.5 4.5 0 0 1 4.5-4.5h37.266l6.938-6.938H36.375c-1.035 0-1.875.84-1.875 1.875v47h-4.75v-47a6.625 6.625 0 0 1 6.625-6.625z"/>
    <defs>
        <radialGradient id="b" cx="0" cy="0" r="1" gradientTransform="matrix(96.6554 0 0 102.662 65.07 109.162)" gradientUnits="userSpaceOnUse">
            <stop stop-color="#0e85eb"/>
            <stop offset="1" stop-color="#0955cc"/>
        </radialGradient>
        <linearGradient id="a" x1="11.5" x2="116.5" y1="121.5" y2="121.5" gradientUnits="userSpaceOnUse">
            <stop stop-color="#bfbfbf"/>
            <stop offset=".05" stop-color="#c1c1c1"/>
            <stop offset=".1" stop-color="#9c9c9c"/>
            <stop offset=".9" stop-color="#9c9c9c"/>
            <stop offset=".95" stop-color="#c1c1c1"/>
            <stop offset="1" stop-color="#a7a7a7"/>
        </linearGradient>
    </defs>
</svg>
