<svg xmlns="http://www.w3.org/2000/svg" xmlns:xlink="http://www.w3.org/1999/xlink" xml:space="preserve" width="128" height="128" viewBox="0 0 128 128">
    <defs>
        <linearGradient id="b">
            <stop offset="0" style="stop-color:#72dea3;stop-opacity:1"/>
            <stop offset="1" style="stop-color:#def9eb;stop-opacity:1"/>
        </linearGradient>
        <linearGradient id="a">
            <stop offset="0" style="stop-color:#209a57;stop-opacity:1"/>
            <stop offset=".05" style="stop-color:#27b667;stop-opacity:1"/>
            <stop offset=".1" style="stop-color:#209a57;stop-opacity:1"/>
            <stop offset=".9" style="stop-color:#209a57;stop-opacity:1"/>
            <stop offset=".95" style="stop-color:#27b667;stop-opacity:1"/>
            <stop offset="1" style="stop-color:#209a57;stop-opacity:1"/>
        </linearGradient>
        <linearGradient xlink:href="#a" id="c" x1="11.5" x2="116.5" y1="120.5" y2="120.5" gradientUnits="userSpaceOnUse"/>
        <linearGradient xlink:href="#b" id="d" x1="64" x2="64" y1="112.5" y2="7.5" gradientUnits="userSpaceOnUse"/>
    </defs>
    <rect width="105" height="105" x="11.5" y="15.5" rx="13" ry="13" style="fill:url(#c);fill-opacity:1;stroke:#000;stroke-opacity:0"/>
    <rect width="105" height="105" x="11.5" y="7.5" rx="13" ry="13" style="fill:url(#d);fill-opacity:1"/>
    <rect width="100.755" height="100.755" x="13.622" y="9.622" rx="12" ry="12" style="fill:#21bd67;fill-opacity:1;stroke-width:.959575"/>
    <path d="M39.918 35c-3.818 0-6.94 3.126-6.94 6.946v45.96c0 3.816 3.12 6.94 6.94 6.94h32.924a2.97 2.97 0 0 0 2.956-2.956 2.964 2.964 0 0 0-2.948-2.948H58.815v-28.11h28.184v13.963a2.96 2.96 0 0 0 2.946 2.946 2.96 2.96 0 0 0 2.948-2.946V41.943c0-3.817-3.121-6.943-6.94-6.943zm0 5.906H85.96c.583 0 1.039.457 1.039 1.04v12.993H58.815v-9.014a2.964 2.964 0 0 0-2.948-2.948 2.96 2.96 0 0 0-2.946 2.948v9.014h-8.946a2.964 2.964 0 0 0-2.949 2.948 2.96 2.96 0 0 0 2.949 2.946h8.946v28.11H39.918a1.024 1.024 0 0 1-1.037-1.038v-45.96c0-.582.454-1.039 1.037-1.039M77.757 76.8a2.95 2.95 0 0 0-2.083.863 2.95 2.95 0 0 0-.761 2.85l5.973 22.303h.003a2.96 2.96 0 0 0 2.085 2.086v.002h.003a2.99 2.99 0 0 0 2.841-.748l.008-.008 16.334-16.334a2.95 2.95 0 0 0 .76-2.852 2.96 2.96 0 0 0-2.085-2.085h-.003L78.525 76.9h-.003a3 3 0 0 0-.765-.102zm4.178 7.12 12.434 3.33-9.103 9.106z" style="fill:#1b834a;fill-opacity:1;stroke:none;stroke-width:1.90909"/>
    <path d="M39.918 33c-3.818 0-6.94 3.126-6.94 6.946v45.96c0 3.816 3.12 6.94 6.94 6.94h32.924a2.97 2.97 0 0 0 2.956-2.956 2.964 2.964 0 0 0-2.948-2.948H58.815v-28.11h28.184v13.963a2.96 2.96 0 0 0 2.946 2.946 2.96 2.96 0 0 0 2.948-2.946V39.943c0-3.817-3.121-6.943-6.94-6.943zm0 5.906H85.96c.583 0 1.039.457 1.039 1.04v12.993H58.815v-9.014a2.964 2.964 0 0 0-2.948-2.948 2.96 2.96 0 0 0-2.946 2.948v9.014h-8.946a2.964 2.964 0 0 0-2.949 2.948 2.96 2.96 0 0 0 2.949 2.946h8.946v28.11H39.918a1.024 1.024 0 0 1-1.037-1.038v-45.96c0-.582.454-1.039 1.037-1.039M77.757 74.8a2.95 2.95 0 0 0-2.083.863 2.95 2.95 0 0 0-.761 2.85l5.973 22.303h.003a2.96 2.96 0 0 0 2.085 2.086v.002h.003a2.99 2.99 0 0 0 2.841-.748l.008-.008 16.334-16.334a2.95 2.95 0 0 0 .76-2.852 2.96 2.96 0 0 0-2.085-2.085h-.003L78.525 74.9h-.003a3 3 0 0 0-.765-.102zm4.178 7.12 12.434 3.33-9.103 9.106z" style="fill:#eafcf2;fill-opacity:1;stroke:none;stroke-width:1.90909"/>
</svg>
