<svg xmlns="http://www.w3.org/2000/svg" xmlns:xlink="http://www.w3.org/1999/xlink" xml:space="preserve" width="128" height="128" viewBox="0 0 128 128">
    <defs>
        <linearGradient id="b">
            <stop offset="0" style="stop-color:#85b8e8;stop-opacity:1"/>
            <stop offset="1" style="stop-color:#e7f1fa;stop-opacity:1"/>
        </linearGradient>
        <linearGradient id="a">
            <stop offset="0" style="stop-color:#226fb7;stop-opacity:1"/>
            <stop offset=".05" style="stop-color:#2982d7;stop-opacity:1"/>
            <stop offset=".1" style="stop-color:#226fb7;stop-opacity:1"/>
            <stop offset=".9" style="stop-color:#226fb7;stop-opacity:1"/>
            <stop offset=".95" style="stop-color:#2982d7;stop-opacity:1"/>
            <stop offset="1" style="stop-color:#226fb7;stop-opacity:1"/>
        </linearGradient>
        <linearGradient xlink:href="#a" id="c" x1="11.5" x2="116.5" y1="120.5" y2="120.5" gradientUnits="userSpaceOnUse"/>
        <linearGradient xlink:href="#b" id="d" x1="64" x2="64" y1="112.5" y2="7.5" gradientUnits="userSpaceOnUse"/>
    </defs>
    <rect width="105" height="105" x="11.5" y="15.5" rx="13" ry="13" style="fill:url(#c);fill-opacity:1"/>
    <rect width="105" height="105" x="11.5" y="7.5" rx="13" ry="13" style="fill:url(#d);fill-opacity:1"/>
    <rect width="100.755" height="100.755" x="13.622" y="9.622" rx="12" ry="12" style="fill:#559cdf;fill-opacity:1;stroke-width:.959575"/>
    <path d="M40.834 36c-3.695 0-6.717 3.023-6.717 6.717v46.566c0 3.694 3.022 6.717 6.717 6.717h45.48c3.695 0 6.715-3.023 6.715-6.72V69.65a2.864 2.864 0 0 0-2.85-2.851 2.866 2.866 0 0 0-2.851 2.852v19.63a1.01 1.01 0 0 1-1.014 1.013h-45.48a1.01 1.01 0 0 1-1.014-1.014V42.717a1.01 1.01 0 0 1 1.014-1.014h49.324a2.866 2.866 0 0 0 2.852-2.851A2.866 2.866 0 0 0 90.158 36zm58.181 3.113a2.84 2.84 0 0 0-1.43.394l-10.49 6.178-10.749 6.176h-.002v.003a2.85 2.85 0 0 0-1.43 2.476v.01a2.87 2.87 0 0 0 1.453 2.464l10.71 6.036h.014l10.568 5.815.002.003a2.86 2.86 0 0 0 2.816-.036l.005-.002.005-.003a2.86 2.86 0 0 0 1.396-2.453V41.96c0-1.021-.55-1.965-1.436-2.472v-.002h-.002a2.9 2.9 0 0 0-1.43-.373m-2.828 7.828v14.404l-6.523-3.59-.002-.003-.005-.002-6.126-3.45 6.528-3.747.007-.007zm-47.589 4.524a2.866 2.866 0 0 0-2.851 2.852 2.866 2.866 0 0 0 2.851 2.851h7.19a2.866 2.866 0 0 0 2.852-2.851 2.866 2.866 0 0 0-2.852-2.852zM66.934 63.21l-18.4.022a2.865 2.865 0 0 0-2.852 2.849 2.866 2.866 0 0 0 2.852 2.852l18.402-.02a2.866 2.866 0 0 0 2.852-2.851 2.866 2.866 0 0 0-2.852-2.852zm0 11.561-18.4.02a2.867 2.867 0 0 0-2.852 2.851 2.866 2.866 0 0 0 2.852 2.852l18.402-.022a2.866 2.866 0 0 0 2.852-2.851 2.864 2.864 0 0 0-2.852-2.85z" style="fill:#3d77ad;fill-opacity:1;stroke:none;stroke-width:1.82358"/>
    <path d="M40.834 34c-3.695 0-6.717 3.023-6.717 6.717v46.566c0 3.694 3.022 6.717 6.717 6.717h45.48c3.695 0 6.715-3.023 6.715-6.72V67.65a2.864 2.864 0 0 0-2.85-2.851 2.866 2.866 0 0 0-2.851 2.852v19.63a1.01 1.01 0 0 1-1.014 1.013h-45.48a1.01 1.01 0 0 1-1.014-1.014V40.717a1.01 1.01 0 0 1 1.014-1.014h49.324a2.866 2.866 0 0 0 2.852-2.851A2.866 2.866 0 0 0 90.158 34zm58.181 3.113a2.84 2.84 0 0 0-1.43.394l-10.49 6.178-10.749 6.176h-.002v.003a2.85 2.85 0 0 0-1.43 2.476v.01a2.87 2.87 0 0 0 1.453 2.464l10.71 6.036h.014l10.568 5.815.002.003a2.86 2.86 0 0 0 2.816-.036l.005-.002.005-.003a2.86 2.86 0 0 0 1.396-2.453V39.96c0-1.021-.55-1.965-1.436-2.472v-.002h-.002a2.9 2.9 0 0 0-1.43-.373m-2.828 7.828v14.404l-6.523-3.59-.002-.003-.005-.002-6.126-3.45 6.528-3.747.007-.007zm-47.589 4.524a2.866 2.866 0 0 0-2.851 2.852 2.866 2.866 0 0 0 2.851 2.851h7.19a2.866 2.866 0 0 0 2.852-2.851 2.866 2.866 0 0 0-2.852-2.852zM66.934 61.21l-18.4.022a2.865 2.865 0 0 0-2.852 2.849 2.866 2.866 0 0 0 2.852 2.852l18.402-.02a2.866 2.866 0 0 0 2.852-2.851 2.866 2.866 0 0 0-2.852-2.852zm0 11.561-18.4.02a2.867 2.867 0 0 0-2.852 2.851 2.866 2.866 0 0 0 2.852 2.852l18.402-.022a2.866 2.866 0 0 0 2.852-2.851 2.864 2.864 0 0 0-2.852-2.85z" style="fill:#e7f0fd;fill-opacity:1;stroke:none;stroke-width:1.82358"/>
</svg>
