<svg xmlns="http://www.w3.org/2000/svg" xmlns:xlink="http://www.w3.org/1999/xlink" xml:space="preserve" width="128" height="128" viewBox="0 0 128 128">
    <defs>
        <linearGradient id="b">
            <stop offset="0" style="stop-color:#f99597;stop-opacity:1"/>
            <stop offset="1" style="stop-color:#fee2e2;stop-opacity:1"/>
        </linearGradient>
        <linearGradient id="a">
            <stop offset="0" style="stop-color:#dd3f43;stop-opacity:1"/>
            <stop offset=".05" style="stop-color:#f54f51;stop-opacity:1"/>
            <stop offset=".1" style="stop-color:#dd3f43;stop-opacity:1"/>
            <stop offset=".9" style="stop-color:#dd3f43;stop-opacity:1"/>
            <stop offset=".95" style="stop-color:#f54f51;stop-opacity:1"/>
            <stop offset="1" style="stop-color:#dd3f43;stop-opacity:1"/>
        </linearGradient>
        <linearGradient xlink:href="#a" id="c" x1="11.5" x2="116.5" y1="120.5" y2="120.5" gradientUnits="userSpaceOnUse"/>
        <linearGradient xlink:href="#b" id="d" x1="64" x2="64" y1="112.5" y2="7.5" gradientUnits="userSpaceOnUse"/>
    </defs>
    <rect width="105" height="105" x="11.5" y="15.5" rx="13" ry="13" style="fill:url(#c);fill-opacity:1"/>
    <rect width="105" height="105" x="11.5" y="7.5" rx="13" ry="13" style="fill:url(#d);fill-opacity:1"/>
    <rect width="100.755" height="100.755" x="13.622" y="9.622" rx="12" ry="12" style="fill:#f15c5e;fill-opacity:1;stroke-width:.959575"/>
    <path d="M42.67 36c-.047 0-.093.006-.14.007H29.903A3.12 3.12 0 0 0 26.8 39.11a3.12 3.12 0 0 0 3.103 3.103h5.516a7.4 7.4 0 0 0-.095 1.137v40.99a3.117 3.117 0 0 0 3.1 3.103 3.123 3.123 0 0 0 3.106-3.104V43.347c0-.608.453-1.087 1.048-1.134h55.524a3.116 3.116 0 0 0 3.098-3.103 3.117 3.117 0 0 0-3.1-3.103H42.807q-.067-.005-.136-.007m47.023 8.464a3.117 3.117 0 0 0-3.101 3.104v41.068c0 .641-.503 1.143-1.143 1.143q-.16 0-.316.017h-55.23a3.117 3.117 0 0 0-3.103 3.1A3.12 3.12 0 0 0 29.903 96h68.2a3.116 3.116 0 0 0 3.097-3.103c0-1.702-1.399-3.1-3.1-3.1h-5.407c.06-.38.103-.767.103-1.163V47.568a3.12 3.12 0 0 0-3.103-3.104m-32.817 6.233a3.1 3.1 0 0 0-1.552.415 3.11 3.11 0 0 0-1.551 2.688v24.52a3.11 3.11 0 0 0 3.105 3.105c.533 0 1.072-.136 1.554-.418l21.242-12.252v-.003a3.11 3.11 0 0 0 1.552-2.688 3.11 3.11 0 0 0-1.552-2.687L58.428 51.112a3.1 3.1 0 0 0-1.552-.415m3.103 8.479 11.938 6.888-11.938 6.89z" style="fill:#b72c2f;fill-opacity:1;stroke:none;stroke-width:1.95197"/>
    <path d="M42.67 34c-.047 0-.093.006-.14.007H29.903A3.12 3.12 0 0 0 26.8 37.11a3.12 3.12 0 0 0 3.103 3.103h5.516a7.4 7.4 0 0 0-.095 1.137v40.99a3.117 3.117 0 0 0 3.1 3.103 3.123 3.123 0 0 0 3.106-3.104V41.347c0-.608.453-1.087 1.048-1.134h55.524a3.116 3.116 0 0 0 3.098-3.103 3.117 3.117 0 0 0-3.1-3.103H42.807q-.067-.005-.136-.007m47.023 8.464a3.117 3.117 0 0 0-3.101 3.104v41.068c0 .641-.503 1.143-1.143 1.143q-.16 0-.316.017h-55.23a3.117 3.117 0 0 0-3.103 3.1A3.12 3.12 0 0 0 29.903 94h68.2a3.116 3.116 0 0 0 3.097-3.103c0-1.702-1.399-3.1-3.1-3.1h-5.407c.06-.38.103-.767.103-1.163V45.568a3.12 3.12 0 0 0-3.103-3.104m-32.817 6.233a3.1 3.1 0 0 0-1.552.415 3.11 3.11 0 0 0-1.551 2.688v24.52a3.11 3.11 0 0 0 3.105 3.105c.533 0 1.072-.136 1.554-.418l21.242-12.252v-.003a3.11 3.11 0 0 0 1.552-2.688 3.11 3.11 0 0 0-1.552-2.687L58.428 49.112a3.1 3.1 0 0 0-1.552-.415m3.103 8.479 11.938 6.888-11.938 6.89z" style="fill:#fde5e5;fill-opacity:1;stroke:none;stroke-width:1.95197"/>
</svg>
