<svg xmlns="http://www.w3.org/2000/svg" xml:space="preserve" width="128" height="128" viewBox="0 0 128 128">
    <path d="M21.977 12C16.449 12 12 16.46 12 22v86.031c0 5.543 4.45 10 9.977 10h84.043a9.965 9.965 0 0 0 9.98-10V35.945c0-6.629-5.36-12-11.973-12H58a6.49 6.49 0 0 1-5.797-3.582L50.7 17.371A9.74 9.74 0 0 0 42 12z" style="fill:#93ac9d;fill-opacity:1"/>
    <path fill="#a4caee" d="M65.977 32a9.93 9.93 0 0 0-7.028 2.89C56.676 37.146 53.566 40 50.316 40h-28.34C16.45 40 12 44.46 12 50v55.977c0 5.539 4.45 10 9.977 10h84.043c5.53 0 9.98-4.461 9.98-10V42c0-5.54-4.45-10-9.98-10zm0 0" style="fill:#dbe3e2;fill-opacity:1"/>
    <path d="M200-120q-33 0-56.5-23.5T120-200v-560q0-33 23.5-56.5T200-840h407q16 0 30.5 6t25.5 17l154 154q11 11 17 25.5t6 30.5v407q0 33-23.5 56.5T760-120Zm0-80h560v-400H640q-17 0-28.5-11.5T600-640v-120H200Zm440-80q17 0 28.5-11.5T680-320t-11.5-28.5T640-360H320q-17 0-28.5 11.5T280-320t11.5 28.5T320-280ZM440-600q17 0 28.5-11.5T480-640t-11.5-28.5T440-680H320q-17 0-28.5 11.5T280-640t11.5 28.5T320-600zm200 160q17 0 28.5-11.5T680-480t-11.5-28.5T640-520H320q-17 0-28.5 11.5T280-480t11.5 28.5T320-440ZM200-760v160zv560z" style="fill:#93ac9d;fill-opacity:1" transform="translate(44.897 96.118)scale(.0398)"/>
</svg>
