<svg xmlns="http://www.w3.org/2000/svg" xml:space="preserve" width="128" height="128" viewBox="0 0 128 128">
    <path d="M21.977 12C16.449 12 12 16.46 12 22v86.031c0 5.543 4.45 10 9.977 10h84.043a9.965 9.965 0 0 0 9.98-10V35.945c0-6.629-5.36-12-11.973-12H58a6.49 6.49 0 0 1-5.797-3.582L50.7 17.371A9.74 9.74 0 0 0 42 12z" style="fill:#93ac9d;fill-opacity:1"/>
    <path fill="#a4caee" d="M65.977 32a9.93 9.93 0 0 0-7.028 2.89C56.676 37.146 53.566 40 50.316 40h-28.34C16.45 40 12 44.46 12 50v55.977c0 5.539 4.45 10 9.977 10h84.043c5.53 0 9.98-4.461 9.98-10V42c0-5.54-4.45-10-9.98-10zm0 0" style="fill:#dbe3e2;fill-opacity:1"/>
    <path d="M77.005 68.346q-1.788 0-3.062-1.274-1.273-1.273-1.273-3.061t1.273-3.062 3.062-1.273 3.062 1.273 1.273 3.062-1.273 3.061q-1.274 1.274-3.062 1.274m-13.005 0q-1.788 0-3.062-1.274-1.273-1.273-1.273-3.061t1.273-3.062T64 59.676t3.062 1.273 1.273 3.062-1.273 3.061Q65.788 68.346 64 68.346m-13.005 0q-1.788 0-3.062-1.274-1.273-1.273-1.273-3.061t1.273-3.062 3.062-1.273 3.062 1.273 1.273 3.062-1.273 3.061-3.062 1.274m26.01 13.004q-1.788 0-3.062-1.273t-1.273-3.061 1.273-3.062 3.062-1.273 3.062 1.273 1.273 3.062-1.273 3.061-3.062 1.274M64 81.35q-1.788 0-3.062-1.273t-1.273-3.061 1.273-3.062T64 72.681t3.062 1.273 1.273 3.062-1.273 3.061T64 81.351m-13.005-.001q-1.788 0-3.062-1.273t-1.273-3.061 1.273-3.062 3.062-1.273 3.062 1.273 1.273 3.062-1.273 3.061-3.062 1.274m26.01 13.005q-1.788 0-3.062-1.274-1.273-1.273-1.273-3.061t1.273-3.062 3.062-1.273 3.062 1.273 1.273 3.062-1.273 3.061q-1.274 1.274-3.062 1.274m-13.005 0q-1.788 0-3.062-1.274-1.273-1.273-1.273-3.061t1.273-3.062T64 85.686t3.062 1.273 1.273 3.062-1.273 3.061Q65.788 94.356 64 94.356m-13.005 0q-1.788 0-3.062-1.274-1.273-1.273-1.273-3.061t1.273-3.062 3.062-1.273 3.062 1.273 1.273 3.062-1.273 3.061-3.062 1.274" style="fill:#93ac9d;fill-opacity:1;stroke-width:.0541877"/>
</svg>
