<svg xmlns="http://www.w3.org/2000/svg" xml:space="preserve" width="128" height="128" viewBox="0 0 128 128">
    <linearGradient id="a" x1="2689.252" x2="2918.07" y1="-1106.803" y2="-1106.803" gradientTransform="matrix(.45451 0 0 .45552 -1210.292 616.173)" gradientUnits="userSpaceOnUse">
        <stop offset="0" stop-color="#62a0ea"/>
        <stop offset=".058" stop-color="#afd4ff"/>
        <stop offset=".122" stop-color="#62a0ea"/>
        <stop offset=".873" stop-color="#62a0ea"/>
        <stop offset=".956" stop-color="#c0d5ea"/>
        <stop offset="1" stop-color="#62a0ea"/>
    </linearGradient>
    <path fill="#438de6" d="M21.977 12C16.449 12 12 16.46 12 22v86.031c0 5.543 4.45 10 9.977 10h84.043a9.965 9.965 0 0 0 9.98-10V35.945c0-6.629-5.36-12-11.973-12H58a6.49 6.49 0 0 1-5.797-3.582L50.7 17.371A9.74 9.74 0 0 0 42 12Zm0 0" style="fill:#f68f4c;fill-opacity:1"/>
    <path fill="url(#a)" d="M65.977 36a9.93 9.93 0 0 0-7.028 2.89C56.676 41.146 53.566 44 50.316 44h-28.34C16.45 44 12 48.46 12 54v54.031c0 5.543 4.45 10 9.977 10h84.043a9.965 9.965 0 0 0 9.98-10V46c0-5.54-4.45-10-9.98-10zm0 0" style="fill:#f68f4c;fill-opacity:1"/>
    <path fill="#a4caee" d="M65.977 32a9.93 9.93 0 0 0-7.028 2.89C56.676 37.146 53.566 40 50.316 40h-28.34C16.45 40 12 44.46 12 50v55.977c0 5.539 4.45 10 9.977 10h84.043c5.53 0 9.98-4.461 9.98-10V42c0-5.54-4.45-10-9.98-10zm0 0" style="fill:#ffe3d1;fill-opacity:1"/>
    <path d="M64.146 55.604q-1.476 0-2.513 1.037l-4.4 4.4q-1.038 1.037-1.038 2.514t1.037 2.513l4.4 4.4q1.038 1.038 2.514 1.038 1.478 0 2.514-1.037l4.4-4.4q1.038-1.038 1.038-2.514 0-1.477-1.037-2.514l-4.4-4.4q-1.038-1.037-2.515-1.037M50.947 68.803q-1.477 0-2.515 1.037l-4.399 4.4q-1.037 1.038-1.037 2.514 0 1.477 1.037 2.514l4.399 4.4q1.037 1.037 2.515 1.037t2.514-1.037l4.4-4.4q1.038-1.038 1.037-2.514 0-1.477-1.037-2.514l-4.4-4.4q-1.036-1.037-2.514-1.037m26.399 0q-1.478 0-2.514 1.037l-4.4 4.4q-1.037 1.038-1.037 2.514 0 1.477 1.037 2.514l4.4 4.4q1.036 1.037 2.514 1.037 1.476 0 2.513-1.037l4.4-4.4q1.038-1.038 1.038-2.514 0-1.477-1.037-2.514l-4.4-4.4q-1.038-1.037-2.514-1.037m-13.2 13.199q-1.476 0-2.513 1.037l-4.4 4.4q-1.038 1.038-1.038 2.514 0 1.478 1.037 2.516l4.4 4.398a3.42 3.42 0 0 0 2.514 1.04q1.478-.001 2.514-1.04l4.4-4.398q1.038-1.038 1.038-2.516T71.06 87.44l-4.4-4.4q-1.038-1.037-2.515-1.037" style="fill:#f68f4c;fill-opacity:1;stroke-width:.0444458"/>
</svg>
