<svg xmlns="http://www.w3.org/2000/svg" xml:space="preserve" width="128" height="128" viewBox="0 0 128 128">
    <linearGradient id="a" x1="-280.624" x2="-287.765" y1="-66.117" y2="-66.117" gradientTransform="matrix(0 -.93287 -1 0 0 -158.918)" gradientUnits="userSpaceOnUse">
        <stop offset="0" stop-color="#313133"/>
        <stop offset="1" stop-color="#9a9996"/>
    </linearGradient>
    <linearGradient id="b" x1="-271.975" x2="-266.415" y1="-62.938" y2="-62.938" gradientTransform="matrix(0 -1 -1 0 0 -160)" gradientUnits="userSpaceOnUse">
        <stop offset="0" stop-color="#aeadab"/>
        <stop offset="1" stop-color="#aeadab" stop-opacity="0"/>
    </linearGradient>
    <linearGradient id="c" x1="1202" x2="1246" y1="-735" y2="-735" gradientTransform="matrix(2.38179 0 0 2.0835 -2851.153 1648.157)" gradientUnits="userSpaceOnUse">
        <stop offset="0" stop-color="#9a9996" stop-opacity="0"/>
        <stop offset=".091" stop-color="#9a9996"/>
        <stop offset=".909" stop-color="#9a9996"/>
        <stop offset="1" stop-color="#9a9996" stop-opacity="0"/>
    </linearGradient>
    <linearGradient id="d" x1="904" x2="904" y1="-340" y2="-385.948" gradientTransform="matrix(.25 0 0 .16667 -164 180.667)" gradientUnits="userSpaceOnUse">
        <stop offset="0" stop-color="#77767b"/>
        <stop offset=".603" stop-color="#c0bfbc"/>
        <stop offset="1" stop-color="#aeadab"/>
    </linearGradient>
    <linearGradient id="e" x1="2689.252" x2="2918.07" y1="-1106.803" y2="-1106.803" gradientTransform="matrix(.45451 0 0 .45552 -1210.292 616.173)" gradientUnits="userSpaceOnUse">
        <stop offset="0" stop-color="#62a0ea"/>
        <stop offset=".058" stop-color="#afd4ff"/>
        <stop offset=".122" stop-color="#62a0ea"/>
        <stop offset=".873" stop-color="#62a0ea"/>
        <stop offset=".956" stop-color="#c0d5ea"/>
        <stop offset="1" stop-color="#62a0ea"/>
    </linearGradient>
    <path fill="#438de6" d="M21.977 12C16.449 12 12 16.46 12 22v76c0 5.54 4.45 10 9.977 10h84.043c5.53 0 9.98-4.46 9.98-10V34c0-6.629-5.36-12-11.973-12H58a7.08 7.08 0 0 1-6.062-3.437l-.844-1.41A10.62 10.62 0 0 0 42 12zm0 0" style="fill:#bba985;fill-opacity:1"/>
    <path fill="url(#a)" d="M68 117.21V87.36h-8v29.85zm0 0"/>
    <path fill="url(#b)" d="M63.797 117.21V87.36H62v29.85zm0 0"/>
    <path fill="url(#c)" d="M8.18 117.832h111.945V122H8.18zm0 0"/>
    <path fill="url(#d)" d="M51.73 116h24.54a3.73 3.73 0 0 1 3.73 3.73v.54a3.73 3.73 0 0 1-3.73 3.73H51.73a3.73 3.73 0 0 1-3.73-3.73v-.54a3.73 3.73 0 0 1 3.73-3.73m0 0"/>
    <path fill="url(#e)" d="M65.977 36a9.93 9.93 0 0 0-7.028 2.89C56.676 41.146 53.566 44 50.316 44h-28.34C16.45 44 12 48.46 12 54v44c0 5.54 4.45 10 9.977 10h84.043c5.53 0 9.98-4.46 9.98-10V46c0-5.54-4.45-10-9.98-10zm0 0" style="fill:#bba985;fill-opacity:1"/>
    <path fill="#a4caee" d="M65.977 32a9.93 9.93 0 0 0-7.028 2.89C56.676 37.146 53.566 40 50.316 40h-28.34C16.45 40 12 44.46 12 50v46c0 5.54 4.45 10 9.977 10h84.043c5.53 0 9.98-4.46 9.98-10V42c0-5.54-4.45-10-9.98-10zm0 0" style="fill:#e3d1b6;fill-opacity:1"/>
</svg>
