<svg xmlns="http://www.w3.org/2000/svg" xml:space="preserve" width="128" height="128" viewBox="0 0 128 128">
    <linearGradient id="a" x1="2689.252" x2="2918.07" y1="-1106.803" y2="-1106.803" gradientTransform="matrix(.45451 0 0 .45552 -1210.292 616.173)" gradientUnits="userSpaceOnUse">
        <stop offset="0" stop-color="#62a0ea"/>
        <stop offset=".058" stop-color="#afd4ff"/>
        <stop offset=".122" stop-color="#62a0ea"/>
        <stop offset=".873" stop-color="#62a0ea"/>
        <stop offset=".956" stop-color="#c0d5ea"/>
        <stop offset="1" stop-color="#62a0ea"/>
    </linearGradient>
    <path fill="#438de6" d="M21.977 12C16.449 12 12 16.46 12 22v86.031c0 5.543 4.45 10 9.977 10h84.043a9.965 9.965 0 0 0 9.98-10V35.945c0-6.629-5.36-12-11.973-12H58a6.49 6.49 0 0 1-5.797-3.582L50.7 17.371A9.74 9.74 0 0 0 42 12Zm0 0" style="fill:#4195d4;fill-opacity:1"/>
    <path fill="url(#a)" d="M65.977 36a9.93 9.93 0 0 0-7.028 2.89C56.676 41.146 53.566 44 50.316 44h-28.34C16.45 44 12 48.46 12 54v54.031c0 5.543 4.45 10 9.977 10h84.043a9.965 9.965 0 0 0 9.98-10V46c0-5.54-4.45-10-9.98-10zm0 0" style="fill:#4195d4;fill-opacity:1"/>
    <path fill="#a4caee" d="M65.977 32a9.93 9.93 0 0 0-7.028 2.89C56.676 37.146 53.566 40 50.316 40h-28.34C16.45 40 12 44.46 12 50v55.977c0 5.539 4.45 10 9.977 10h84.043c5.53 0 9.98-4.461 9.98-10V42c0-5.54-4.45-10-9.98-10zm0 0" style="fill:#c1d6eb;fill-opacity:1"/>
    <path d="M64 52.088c-.695 0-1.39.154-1.918.459L43.768 63.119c-1.056.61-1.918 2.104-1.918 3.322V87.59c0 .61.214 1.286.562 1.889.348.602.828 1.129 1.356 1.433l18.314 10.574c1.055.61 2.781.61 3.836 0l18.314-10.574c.528-.304 1.008-.831 1.356-1.433.347-.603.562-1.28.562-1.89V66.442c0-.609-.214-1.286-.562-1.888-.348-.603-.828-1.13-1.356-1.434L65.918 52.547c-.528-.305-1.223-.46-1.918-.46m0 10.16a14.82 14.82 0 0 1 12.79 7.379l-6.394 3.7A7.41 7.41 0 0 0 64 69.632c-4.071 0-7.383 3.311-7.383 7.383 0 4.07 3.312 7.382 7.383 7.382a7.42 7.42 0 0 0 6.398-3.693l6.391 3.7A14.82 14.82 0 0 1 64 91.782c-8.143 0-14.768-6.625-14.768-14.767 0-8.143 6.625-14.768 14.768-14.768m11.486 12.307h1.641v1.64h1.64v1.64h-1.64v1.642h-1.64v-1.641h-1.641v-1.64h1.64zm6.153 0h1.64v1.64h1.64v1.64h-1.64v1.642h-1.64v-1.641h-1.641v-1.64h1.64z" style="stroke-width:.144775;fill:#4195d4;fill-opacity:1"/>
</svg>
