<svg xmlns="http://www.w3.org/2000/svg" xml:space="preserve" width="128" height="128" viewBox="0 0 128 128">
    <linearGradient id="a" x1="2689.252" x2="2918.07" y1="-1106.803" y2="-1106.803" gradientTransform="matrix(.45451 0 0 .45552 -1210.292 616.173)" gradientUnits="userSpaceOnUse">
        <stop offset="0" stop-color="#62a0ea"/>
        <stop offset=".058" stop-color="#afd4ff"/>
        <stop offset=".122" stop-color="#62a0ea"/>
        <stop offset=".873" stop-color="#62a0ea"/>
        <stop offset=".956" stop-color="#c0d5ea"/>
        <stop offset="1" stop-color="#62a0ea"/>
    </linearGradient>
    <path fill="#438de6" d="M21.977 12C16.449 12 12 16.46 12 22v86.031c0 5.543 4.45 10 9.977 10h84.043a9.965 9.965 0 0 0 9.98-10V35.945c0-6.629-5.36-12-11.973-12H58a6.49 6.49 0 0 1-5.797-3.582L50.7 17.371A9.74 9.74 0 0 0 42 12Zm0 0" style="fill:#8758ff;fill-opacity:1"/>
    <path fill="url(#a)" d="M65.977 36a9.93 9.93 0 0 0-7.028 2.89C56.676 41.146 53.566 44 50.316 44h-28.34C16.45 44 12 48.46 12 54v54.031c0 5.543 4.45 10 9.977 10h84.043a9.965 9.965 0 0 0 9.98-10V46c0-5.54-4.45-10-9.98-10zm0 0" style="fill:#8758ff;fill-opacity:1"/>
    <path fill="#a4caee" d="M65.977 32a9.93 9.93 0 0 0-7.028 2.89C56.676 37.146 53.566 40 50.316 40h-28.34C16.45 40 12 44.46 12 50v55.977c0 5.539 4.45 10 9.977 10h84.043c5.53 0 9.98-4.461 9.98-10V42c0-5.54-4.45-10-9.98-10zm0 0" style="fill:#dcdcf5;fill-opacity:1"/>
    <path d="M64.523 82.84c-1.204-.006-2.496.122-3.885.38l-1.048.195-.002 2.61c-.004 3.667-.63 6.431-2.293 10.124-.336.747-.622 1.412-.636 1.477-.028.13.577.204 4.04.49 3.068.255 3.61.374 9.303 2.05 1.343.396 2.179.442 2.99.166 1.31-.447 2.183-1.68 2.482-3.507.22-1.342.601-2.814.978-3.77l.297-.757-.667-1.33c-2.773-5.531-6.342-8.098-11.559-8.127m-13.662-8.997c-.255.028-.405.45-.835 1.425a988 988 0 0 1-2.597 5.77l-1.945 4.293.06.85c.084 1.173.064 1.148 4.833 6.057 4.838 4.98 4.21 4.604 4.934 2.957 3.92-8.93 2.755-16.061-3.38-20.691-.476-.359-.752-.591-.953-.648a.3.3 0 0 0-.117-.013" style="fill:#8758ff;fill-opacity:1;stroke-width:.12321"/>
    <path d="M69.776 56.644a.06.06 0 0 0-.04.005c-.077.042-.034.308-.005.66.154 1.845-.246 3.222-1.923 6.622-2.6 5.273-2.91 7.91-1.548 13.184.937 3.626 1.04 3.793 2.545 4.175 3.99 1.012 7.056 3.717 9.37 8.263.439.864.217 1.048 1.915-1.593 3.261-5.071 3.189-4.814 1.87-6.665-3.5-4.912-4.512-7.973-4.557-13.778-.01-1.348-.166-1.6-3.997-6.478-2.578-3.282-3.398-4.351-3.63-4.395" style="fill:#8758ff;fill-opacity:1;stroke-width:.12321"/>
    <path d="M65.258 53.647c-1.121.01-1.302.146-6.79 5.083-6.041 5.435-5.41 4.485-6.082 9.142-.278 1.93-.534 3.604-.569 3.718-.044.149.149.35.678.71 3.328 2.26 5.303 4.833 6.603 8.601.07.201.154.197 1.818-.088a32 32 0 0 1 2.723-.326c.721-.046 1.31-.122 1.31-.168s-.14-.495-.312-.998c-2.216-6.48-2.001-10.444.882-16.255 2.06-4.153 2.31-5.555 1.467-8.223-.366-1.156-.44-1.207-1.728-1.196" style="fill:#8758ff;fill-opacity:1;stroke-width:.12321"/>
</svg>
