<svg xmlns="http://www.w3.org/2000/svg" xml:space="preserve" width="128" height="128" viewBox="0 0 128 128">
    <linearGradient id="a" x1="2689.252" x2="2918.07" y1="-1106.803" y2="-1106.803" gradientTransform="matrix(.45451 0 0 .45552 -1210.292 616.173)" gradientUnits="userSpaceOnUse">
        <stop offset="0" stop-color="#62a0ea"/>
        <stop offset=".058" stop-color="#afd4ff"/>
        <stop offset=".122" stop-color="#62a0ea"/>
        <stop offset=".873" stop-color="#62a0ea"/>
        <stop offset=".956" stop-color="#c0d5ea"/>
        <stop offset="1" stop-color="#62a0ea"/>
    </linearGradient>
    <path fill="#438de6" d="M21.977 12C16.449 12 12 16.46 12 22v86.031c0 5.543 4.45 10 9.977 10h84.043a9.965 9.965 0 0 0 9.98-10V35.945c0-6.629-5.36-12-11.973-12H58a6.49 6.49 0 0 1-5.797-3.582L50.7 17.371A9.74 9.74 0 0 0 42 12zm0 0" style="fill:#b3b3b3;fill-opacity:1"/>
    <path fill="url(#a)" d="M65.977 36a9.93 9.93 0 0 0-7.028 2.89C56.676 41.146 53.566 44 50.316 44h-28.34C16.45 44 12 48.46 12 54v54.031c0 5.543 4.45 10 9.977 10h84.043a9.965 9.965 0 0 0 9.98-10V46c0-5.54-4.45-10-9.98-10zm0 0" style="fill:#b3b3b3;fill-opacity:1"/>
    <path fill="#a4caee" d="M65.977 32a9.93 9.93 0 0 0-7.028 2.89C56.676 37.146 53.566 40 50.316 40h-28.34C16.45 40 12 44.46 12 50v55.977c0 5.539 4.45 10 9.977 10h84.043c5.53 0 9.98-4.461 9.98-10V42c0-5.54-4.45-10-9.98-10zm0 0" style="fill:#ececec;fill-opacity:1"/>
    <path d="M260-320q47 0 91.5 10.5T440-278v-394q-41-24-87-36t-93-12q-36 0-71.5 7T120-692v396q35-12 69.5-18t70.5-6m260 42q44-21 88.5-31.5T700-320q36 0 70.5 6t69.5 18v-396q-33-14-68.5-21t-71.5-7q-47 0-93 12t-87 36zm-40 97q-14 0-26.5-3.5T430-194q-39-23-82-34.5T260-240q-42 0-82.5 11T100-198q-21 11-40.5-1T40-234v-482q0-11 5.5-21T62-752q46-24 96-36t102-12q58 0 113.5 15T480-740q51-30 106.5-45T700-800q52 0 102 12t96 36q11 5 16.5 15t5.5 21v482q0 23-19.5 35t-40.5 1q-37-20-77.5-31T700-240q-45 0-88 11.5T530-194q-11 6-23.5 9.5T480-181m80-428q0-9 6.5-18.5T581-640q29-10 58-15t61-5q20 0 39.5 2.5T778-651q9 2 15.5 10t6.5 18q0 17-11 25t-28 4q-14-3-29.5-4.5T700-600q-26 0-51 5t-48 13q-18 7-29.5-1T560-609m0 220q0-9 6.5-18.5T581-420q29-10 58-15t61-5q20 0 39.5 2.5T778-431q9 2 15.5 10t6.5 18q0 17-11 25t-28 4q-14-3-29.5-4.5T700-380q-26 0-51 4.5T601-363q-18 7-29.5-.5T560-389m0-110q0-9 6.5-18.5T581-530q29-10 58-15t61-5q20 0 39.5 2.5T778-541q9 2 15.5 10t6.5 18q0 17-11 25t-28 4q-14-3-29.5-4.5T700-490q-26 0-51 5t-48 13q-18 7-29.5-1T560-499" style="fill:#b3b3b3;fill-opacity:1" transform="translate(37.459 104.137)scale(.0553)"/>
</svg>
