<svg xmlns="http://www.w3.org/2000/svg" xml:space="preserve" width="128" height="128" viewBox="0 0 128 128">
    <path d="M21.977 12C16.449 12 12 16.46 12 22v86.031c0 5.543 4.45 10 9.977 10h84.043a9.965 9.965 0 0 0 9.98-10V35.945c0-6.629-5.36-12-11.973-12H58a6.49 6.49 0 0 1-5.797-3.582L50.7 17.371A9.74 9.74 0 0 0 42 12z" style="fill:#93ac9d;fill-opacity:1"/>
    <path fill="#a4caee" d="M65.977 32a9.93 9.93 0 0 0-7.028 2.89C56.676 37.146 53.566 40 50.316 40h-28.34C16.45 40 12 44.46 12 50v55.977c0 5.539 4.45 10 9.977 10h84.043c5.53 0 9.98-4.461 9.98-10V42c0-5.54-4.45-10-9.98-10zm0 0" style="fill:#dbe3e2;fill-opacity:1"/>
    <path d="M242-249q-20-11-31-29.5T200-320v-192l-96-53q-11-6-16-15t-5-20 5-20 16-15l338-184q9-5 18.5-7.5T480-829t19.5 2.5T518-819l381 208q10 5 15.5 14.5T920-576v256q0 17-11.5 28.5T880-280t-28.5-11.5T840-320v-236l-80 44v192q0 23-11 41.5T718-249L518-141q-9 5-18.5 7.5T480-131t-19.5-2.5T442-141Zm238-203 274-148-274-148-274 148Zm0 241 200-108v-151l-161 89q-9 5-19 7.5t-20 2.5-20-2.5-19-7.5l-161-89v151zm0-120" style="fill:#93ac9d;fill-opacity:1" transform="translate(39.043 100.903)scale(.04977)"/>
</svg>
