<svg xmlns="http://www.w3.org/2000/svg" xml:space="preserve" width="128" height="128" viewBox="0 0 128 128">
    <linearGradient id="a" x1="2689.252" x2="2918.07" y1="-1106.803" y2="-1106.803" gradientTransform="matrix(.45451 0 0 .45552 -1210.292 616.173)" gradientUnits="userSpaceOnUse">
        <stop offset="0" stop-color="#62a0ea"/>
        <stop offset=".058" stop-color="#afd4ff"/>
        <stop offset=".122" stop-color="#62a0ea"/>
        <stop offset=".873" stop-color="#62a0ea"/>
        <stop offset=".956" stop-color="#c0d5ea"/>
        <stop offset="1" stop-color="#62a0ea"/>
    </linearGradient>
    <path fill="#438de6" d="M21.977 12C16.449 12 12 16.46 12 22v86.031c0 5.543 4.45 10 9.977 10h84.043a9.965 9.965 0 0 0 9.98-10V35.945c0-6.629-5.36-12-11.973-12H58a6.49 6.49 0 0 1-5.797-3.582L50.7 17.371A9.74 9.74 0 0 0 42 12zm0 0" style="fill:#37abc8;fill-opacity:1"/>
    <path fill="url(#a)" d="M65.977 36a9.93 9.93 0 0 0-7.028 2.89C56.676 41.146 53.566 44 50.316 44h-28.34C16.45 44 12 48.46 12 54v54.031c0 5.543 4.45 10 9.977 10h84.043a9.965 9.965 0 0 0 9.98-10V46c0-5.54-4.45-10-9.98-10zm0 0" style="fill:#2c89a0;fill-opacity:1"/>
    <path fill="#a4caee" d="M65.977 32a9.93 9.93 0 0 0-7.028 2.89C56.676 37.146 53.566 40 50.316 40h-28.34C16.45 40 12 44.46 12 50v55.977c0 5.539 4.45 10 9.977 10h84.043c5.53 0 9.98-4.461 9.98-10V42c0-5.54-4.45-10-9.98-10zm0 0" style="fill:#afdde9;fill-opacity:1"/>
    <path d="M78.222 63.014c-1.247.028-3.188.692-12.419 4.545-3.243 1.359-9.7 4.158-19.402 8.371-1.552.638-2.385 1.248-2.468 1.858-.139 1.164 1.525 1.525 3.604 2.19 1.719.555 3.992 1.19 5.184 1.218 1.081.028 2.272-.415 3.603-1.33 9.064-6.125 13.721-9.23 14.026-9.285.222-.056.499-.11.693.056s.194.498.166.58c-.166.694-8.675 8.456-9.174 8.955-1.885 1.94-4.02 3.132-.721 5.294 2.855 1.885 4.49 3.077 7.429 4.99 1.857 1.22 3.325 2.66 5.266 2.494.887-.083 1.8-.914 2.272-3.409 1.109-5.876 3.271-18.656 3.77-23.923a4.7 4.7 0 0 0-.056-1.302c-.055-.277-.138-.637-.47-.914-.417-.333-1.026-.388-1.303-.388" style="fill:#37abc8;fill-opacity:1;stroke-width:.27719"/>
</svg>
