<svg xmlns="http://www.w3.org/2000/svg" xml:space="preserve" width="128" height="128" viewBox="0 0 128 128">
    <linearGradient id="a" x1="2689.252" x2="2918.07" y1="-1106.803" y2="-1106.803" gradientTransform="matrix(.45451 0 0 .45552 -1210.292 616.173)" gradientUnits="userSpaceOnUse">
        <stop offset="0" stop-color="#62a0ea"/>
        <stop offset=".058" stop-color="#afd4ff"/>
        <stop offset=".122" stop-color="#62a0ea"/>
        <stop offset=".873" stop-color="#62a0ea"/>
        <stop offset=".956" stop-color="#c0d5ea"/>
        <stop offset="1" stop-color="#62a0ea"/>
    </linearGradient>
    <path fill="#438de6" d="M21.977 12C16.449 12 12 16.46 12 22v86.031c0 5.543 4.45 10 9.977 10h84.043a9.965 9.965 0 0 0 9.98-10V35.945c0-6.629-5.36-12-11.973-12H58a6.49 6.49 0 0 1-5.797-3.582L50.7 17.371A9.74 9.74 0 0 0 42 12Zm0 0" style="fill:#f49300;fill-opacity:1"/>
    <path fill="url(#a)" d="M65.977 36a9.93 9.93 0 0 0-7.028 2.89C56.676 41.146 53.566 44 50.316 44h-28.34C16.45 44 12 48.46 12 54v54.031c0 5.543 4.45 10 9.977 10h84.043a9.965 9.965 0 0 0 9.98-10V46c0-5.54-4.45-10-9.98-10zm0 0" style="fill:#f49300;fill-opacity:1"/>
    <path fill="#a4caee" d="M65.977 32a9.93 9.93 0 0 0-7.028 2.89C56.676 37.146 53.566 40 50.316 40h-28.34C16.45 40 12 44.46 12 50v55.977c0 5.539 4.45 10 9.977 10h84.043c5.53 0 9.98-4.461 9.98-10V42c0-5.54-4.45-10-9.98-10zm0 0" style="fill:#831515;fill-opacity:1"/>
    <path fill="#ff9a00" d="M63.28 84.224H52.934l-2.114 6.537a.487.487 0 0 1-.529.39h-5.23c-.305 0-.389-.167-.305-.501l8.957-25.786c.083-.279.167-.585.278-.918a9.7 9.7 0 0 0 .167-1.808c-.028-.14.083-.279.222-.306h7.205c.222 0 .334.083.361.222L72.1 90.705c.083.306 0 .446-.279.446h-5.813a.42.42 0 0 1-.445-.306zm-8.734-5.647h7.066c-.167-.584-.39-1.28-.64-2.003-.25-.75-.5-1.557-.751-2.392-.278-.862-.529-1.697-.807-2.559a60 60 0 0 1-.75-2.476c-.223-.778-.418-1.502-.613-2.17h-.056a34 34 0 0 1-.945 3.589c-.418 1.335-.835 2.726-1.28 4.117a55 55 0 0 1-1.224 3.894M78.302 66.7a3.44 3.44 0 0 1-2.476-.973 3.6 3.6 0 0 1-.946-2.56 3.27 3.27 0 0 1 1.002-2.475 3.56 3.56 0 0 1 2.475-.974c1.085 0 1.92.334 2.532.974.612.668.946 1.558.918 2.476a3.52 3.52 0 0 1-.974 2.559 3.26 3.26 0 0 1-2.531.973m-3.116 24.146v-21.42c0-.278.112-.389.362-.389h5.508c.25 0 .361.14.361.39v21.419c0 .306-.111.445-.361.445h-5.452c-.279 0-.418-.167-.418-.445" style="stroke-width:.278168"/>
</svg>
