<svg xmlns="http://www.w3.org/2000/svg" xmlns:xlink="http://www.w3.org/1999/xlink" width="128" height="128" viewBox="0 0 128 128">
    <clipPath id="c">
        <path d="M32 51h36v39H32zm0 0"/>
    </clipPath>
    <clipPath id="d">
        <path d="M31.352 39.563h37.296v51.05H31.352zm28.242 31.855c0-5.023-4.29-9.102-9.582-9.102-5.29 0-9.578 4.079-9.578 9.102 0 5.027 4.289 9.102 9.578 9.102 5.293 0 9.582-4.075 9.582-9.102m0 0"/>
    </clipPath>
    <linearGradient id="a" gradientUnits="userSpaceOnUse">
        <stop offset="0" stop-color="#9a9996"/>
        <stop offset=".041" stop-color="#c0bfbc"/>
        <stop offset=".082" stop-color="#9a9996"/>
        <stop offset=".899" stop-color="#77767b"/>
        <stop offset=".953" stop-color="#c0bfbc"/>
        <stop offset="1" stop-color="#77767b"/>
    </linearGradient>
    <linearGradient xlink:href="#a" id="e" x1="403.496" x2="678.909" y1="793.566" y2="793.566" gradientTransform="matrix(.12952 0 0 .12304 -20.173 -8.277)"/>
    <clipPath id="f">
        <path d="M32 50h36v39H32zm0 0"/>
    </clipPath>
    <clipPath id="g">
        <path d="M31.352 39.563h37.296v51.05H31.352zm28.242 31.855c0-5.023-4.29-9.102-9.582-9.102-5.29 0-9.578 4.079-9.578 9.102 0 5.027 4.289 9.102 9.578 9.102 5.293 0 9.582-4.075 9.582-9.102m0 0"/>
    </clipPath>
    <clipPath id="h">
        <path d="M32 40h36v40H32zm0 0"/>
    </clipPath>
    <clipPath id="i">
        <path d="M31.352 39.563h37.296v51.05H31.352zm28.242 31.855c0-5.023-4.29-9.102-9.582-9.102-5.29 0-9.578 4.079-9.578 9.102 0 5.027 4.289 9.102 9.578 9.102 5.293 0 9.582-4.075 9.582-9.102m0 0"/>
    </clipPath>
    <linearGradient id="b" gradientUnits="userSpaceOnUse">
        <stop offset="0" stop-color="#3d3846"/>
        <stop offset=".028" stop-color="#79718e"/>
        <stop offset=".065" stop-color="#4e475a"/>
        <stop offset=".938" stop-color="#716881"/>
        <stop offset=".972" stop-color="#847a96"/>
        <stop offset="1" stop-color="#3d3846"/>
    </linearGradient>
    <linearGradient xlink:href="#b" id="j" x1="928.742" x2="1302.49" y1="216.639" y2="216.639" gradientTransform="matrix(.22486 0 0 .22209 -200.94 25.115)"/>
    <linearGradient id="k" x1="2831.385" x2="2732.763" y1="-1295.16" y2="-1196.756" gradientTransform="matrix(.45451 0 0 .45552 -1210.292 612.173)" gradientUnits="userSpaceOnUse">
        <stop offset="0" stop-color="#1a5fb4"/>
        <stop offset="1" stop-color="#14498a"/>
    </linearGradient>
    <clipPath id="l">
        <path d="M60 81h36v39H60zm0 0"/>
    </clipPath>
    <clipPath id="m">
        <path d="M59.352 69.563h37.296v51.05H59.352zm28.242 31.855c0-5.023-4.29-9.102-9.582-9.102-5.29 0-9.578 4.079-9.578 9.102 0 5.027 4.289 9.102 9.578 9.102 5.293 0 9.582-4.075 9.582-9.102m0 0"/>
    </clipPath>
    <linearGradient xlink:href="#a" id="n" x1="403.496" x2="678.909" y1="793.566" y2="793.566" gradientTransform="matrix(.12952 0 0 .12304 7.827 21.723)"/>
    <clipPath id="o">
        <path d="M60 80h36v39H60zm0 0"/>
    </clipPath>
    <clipPath id="p">
        <path d="M59.352 69.563h37.296v51.05H59.352zm28.242 31.855c0-5.023-4.29-9.102-9.582-9.102-5.29 0-9.578 4.079-9.578 9.102 0 5.027 4.289 9.102 9.578 9.102 5.293 0 9.582-4.075 9.582-9.102m0 0"/>
    </clipPath>
    <clipPath id="q">
        <path d="M60 70h36v40H60zm0 0"/>
    </clipPath>
    <clipPath id="r">
        <path d="M59.352 69.563h37.296v51.05H59.352zm28.242 31.855c0-5.023-4.29-9.102-9.582-9.102-5.29 0-9.578 4.079-9.578 9.102 0 5.027 4.289 9.102 9.578 9.102 5.293 0 9.582-4.075 9.582-9.102m0 0"/>
    </clipPath>
    <linearGradient xlink:href="#b" id="s" x1="928.742" x2="1302.49" y1="216.639" y2="216.639" gradientTransform="matrix(.22486 0 0 .22209 -172.94 55.115)"/>
    <linearGradient id="t" x1="2704.463" x2="2868.168" y1="-1148.187" y2="-1311.529" gradientTransform="matrix(.33706 0 0 .3308 -867.056 477.292)" gradientUnits="userSpaceOnUse">
        <stop offset="0" stop-color="#1c71d8"/>
        <stop offset="1" stop-color="#62a0ea"/>
    </linearGradient>
    <g clip-path="url(#c)">
        <g clip-path="url(#d)">
            <path fill="url(#e)" d="M34.563 51.777h30.874A2.55 2.55 0 0 1 68 54.32v33.137A2.547 2.547 0 0 1 65.438 90H34.561A2.547 2.547 0 0 1 32 87.457V54.32a2.55 2.55 0 0 1 2.563-2.543m0 0"/>
        </g>
    </g>
    <g clip-path="url(#f)">
        <g clip-path="url(#g)">
            <path fill="#77767b" d="M34.563 50.29h30.874A2.547 2.547 0 0 1 68 52.831v33.133a2.547 2.547 0 0 1-2.562 2.543H34.561A2.547 2.547 0 0 1 32 85.965V52.832a2.547 2.547 0 0 1 2.563-2.543m0 0"/>
        </g>
    </g>
    <g clip-path="url(#h)">
        <g clip-path="url(#i)">
            <path fill="#434348" fill-opacity=".51" d="M32 40.176h36v39.816H32zm0 0"/>
        </g>
    </g>
    <path fill="url(#j)" d="M92 15.105v53.79C92 72.816 88.824 76 84.91 76H15.09C11.176 76 8 72.816 8 68.895v-53.79C8 11.184 11.176 8 15.09 8h69.82C88.824 8 92 11.184 92 15.105m0 0"/>
    <path fill="#241f31" d="M92 15.105v50.832c0 3.926-3.176 7.106-7.09 7.106H15.09c-3.914 0-7.09-3.18-7.09-7.106V15.106C8 11.184 11.176 8 15.09 8h69.82C88.824 8 92 11.184 92 15.105m0 0"/>
    <path fill="url(#k)" d="M15.363 10h69.184C87.559 10 90 12.45 90 15.465v50.07C90 68.551 87.559 71 84.547 71H15.363a5.46 5.46 0 0 1-5.457-5.465v-50.07A5.46 5.46 0 0 1 15.363 10m0 0"/>
    <g clip-path="url(#l)">
        <g clip-path="url(#m)">
            <path fill="url(#n)" d="M62.563 81.777h30.874A2.55 2.55 0 0 1 96 84.32v33.137A2.547 2.547 0 0 1 93.438 120H62.561A2.547 2.547 0 0 1 60 117.457V84.32a2.55 2.55 0 0 1 2.563-2.543m0 0"/>
        </g>
    </g>
    <g clip-path="url(#o)">
        <g clip-path="url(#p)">
            <path fill="#77767b" d="M62.563 80.29h30.874A2.547 2.547 0 0 1 96 82.831v33.133a2.547 2.547 0 0 1-2.562 2.543H62.561A2.547 2.547 0 0 1 60 115.965V82.832a2.547 2.547 0 0 1 2.563-2.543m0 0"/>
        </g>
    </g>
    <g clip-path="url(#q)">
        <g clip-path="url(#r)">
            <path fill="#434348" fill-opacity=".51" d="M60 70.176h36v39.816H60zm0 0"/>
        </g>
    </g>
    <path fill="url(#s)" d="M120 45.105v53.79c0 3.921-3.176 7.105-7.09 7.105H43.09c-3.914 0-7.09-3.184-7.09-7.105v-53.79C36 41.184 39.176 38 43.09 38h69.82c3.914 0 7.09 3.184 7.09 7.105m0 0"/>
    <path fill="#241f31" d="M120 45.105v50.833c0 3.925-3.176 7.105-7.09 7.105H43.09c-3.914 0-7.09-3.18-7.09-7.106V45.106C36 41.184 39.176 38 43.09 38h69.82c3.914 0 7.09 3.184 7.09 7.105m0 0"/>
    <path fill="url(#t)" d="M43.363 40h69.184c3.012 0 5.453 2.45 5.453 5.465v50.07c0 3.016-2.441 5.465-5.453 5.465H43.363a5.46 5.46 0 0 1-5.457-5.465v-50.07A5.46 5.46 0 0 1 43.363 40m0 0"/>
</svg>
