<svg xmlns="http://www.w3.org/2000/svg" xmlns:xlink="http://www.w3.org/1999/xlink" width="128" height="128" viewBox="0 0 128 128">
    <linearGradient id="c" x1="18" x2="110" y1="71" y2="71" gradientUnits="userSpaceOnUse">
        <stop offset="0" stop-color="#26a269"/>
        <stop offset=".039" stop-color="#42d390"/>
        <stop offset=".087" stop-color="#2ec27e"/>
        <stop offset=".957" stop-color="#2ec27e"/>
        <stop offset="1" stop-color="#26a168"/>
    </linearGradient>
    <clipPath id="d">
        <path d="M18 32h92v82H18zm0 0"/>
    </clipPath>
    <clipPath id="e">
        <path d="M26.656 32h74.688A8.656 8.656 0 0 1 110 40.656v64.688a8.656 8.656 0 0 1-8.656 8.656H26.656A8.656 8.656 0 0 1 18 105.344V40.656A8.656 8.656 0 0 1 26.656 32m0 0"/>
    </clipPath>
    <filter id="a" width="100%" height="100%" x="0%" y="0%">
        <feColorMatrix in="SourceGraphic" values="0 0 0 0 1 0 0 0 0 1 0 0 0 0 1 0 0 0 1 0"/>
    </filter>
    <mask id="g">
        <g filter="url(#a)">
            <path fill-opacity=".2" d="M0 0h128v128H0z"/>
        </g>
    </mask>
    <clipPath id="f">
        <path d="M0 0h192v152H0z"/>
    </clipPath>
    <linearGradient id="h" x1="22" x2="114" y1="206" y2="206" gradientTransform="matrix(1.04348 0 0 .9091 -6.957 -159.273)" gradientUnits="userSpaceOnUse">
        <stop offset="0" stop-color="#deddda"/>
        <stop offset=".056" stop-color="#eeedec"/>
        <stop offset=".118" stop-color="#deddda"/>
        <stop offset=".892" stop-color="#deddda"/>
        <stop offset=".946" stop-color="#efeeed"/>
        <stop offset="1" stop-color="#c3c2bc"/>
    </linearGradient>
    <clipPath id="i">
        <path d="M20 12h6v24h-6zm0 0"/>
    </clipPath>
    <clipPath id="j">
        <path d="M24 12h80c2.21 0 4 1.79 4 4v16c0 2.21-1.79 4-4 4H24c-2.21 0-4-1.79-4-4V16c0-2.21 1.79-4 4-4m0 0"/>
    </clipPath>
    <linearGradient id="k" x1="63.917" x2="75.417" y1="79.03" y2="79.03" gradientTransform="matrix(1.04348 0 0 .8733 -46.696 -45.017)" gradientUnits="userSpaceOnUse">
        <stop offset="0" stop-color="#77767b"/>
        <stop offset="1" stop-color="#77767b" stop-opacity="0"/>
    </linearGradient>
    <clipPath id="l">
        <path d="M20 12h88v24H20zm0 0"/>
    </clipPath>
    <clipPath id="m">
        <path d="M24 12h80c2.21 0 4 1.79 4 4v16c0 2.21-1.79 4-4 4H24c-2.21 0-4-1.79-4-4V16c0-2.21 1.79-4 4-4m0 0"/>
    </clipPath>
    <mask id="o">
        <g filter="url(#a)">
            <path fill-opacity=".317" d="M0 0h128v128H0z"/>
        </g>
    </mask>
    <linearGradient id="p" x1="63.917" x2="75.417" y1="76.74" y2="76.74" gradientTransform="matrix(-1.04348 0 0 .8733 182.696 -29.017)" gradientUnits="userSpaceOnUse">
        <stop offset="0" stop-color="#fff"/>
        <stop offset="1" stop-color="#e8e7e8" stop-opacity="0"/>
    </linearGradient>
    <clipPath id="n">
        <path d="M0 0h192v152H0z"/>
    </clipPath>
    <linearGradient id="b" gradientUnits="userSpaceOnUse">
        <stop offset="0" stop-color="#deddda"/>
        <stop offset="1" stop-color="#fff"/>
    </linearGradient>
    <linearGradient xlink:href="#b" id="q" x1="80.429" x2="80.499" y1="90.759" y2="83.384"/>
    <linearGradient xlink:href="#b" id="r" x1="45.609" x2="53.124" y1="89.5" y2="94"/>
    <linearGradient xlink:href="#b" id="s" x1="64.374" x2="57.932" y1="60" y2="62.778"/>
    <path fill="#26a269" d="M26 34h76a8 8 0 0 1 8 8v66a8 8 0 0 1-8 8H26a8 8 0 0 1-8-8V42a8 8 0 0 1 8-8m0 0"/>
    <path fill="url(#c)" d="M26 30h76a8 8 0 0 1 8 8v68a8 8 0 0 1-8 8H26a8 8 0 0 1-8-8V38a8 8 0 0 1 8-8m0 0"/>
    <g clip-path="url(#d)">
        <g clip-path="url(#e)">
            <g clip-path="url(#f)" mask="url(#g)" transform="translate(-8 -16)">
                <path d="M31.883 26h80.234A7.88 7.88 0 0 1 120 33.883v24.234A7.88 7.88 0 0 1 112.117 66H31.883A7.88 7.88 0 0 1 24 58.117V33.883A7.88 7.88 0 0 1 31.883 26m0 0"/>
            </g>
        </g>
    </g>
    <path fill="url(#h)" d="M24 8h80a8 8 0 0 1 8 8v24a8 8 0 0 1-8 8H24a8 8 0 0 1-8-8V16a8 8 0 0 1 8-8m0 0"/>
    <path fill="#f6f5f4" d="M24 8h80a8 8 0 0 1 8 8v16a8 8 0 0 1-8 8H24a8 8 0 0 1-8-8V16a8 8 0 0 1 8-8m0 0"/>
    <path fill="#9a9996" d="M24 12h80c2.21 0 4 1.79 4 4v16c0 2.21-1.79 4-4 4H24c-2.21 0-4-1.79-4-4V16c0-2.21 1.79-4 4-4m0 0"/>
    <g clip-path="url(#i)">
        <g clip-path="url(#j)">
            <path fill="url(#k)" d="M26 12h-6v24h6zm0 0"/>
        </g>
    </g>
    <g clip-path="url(#l)">
        <g clip-path="url(#m)">
            <g clip-path="url(#n)" mask="url(#o)" transform="translate(-8 -16)">
                <path fill="url(#p)" d="M110 28v24h6V28zm0 0"/>
            </g>
        </g>
    </g>
    <g fill-rule="evenodd">
        <path fill="url(#q)" d="m73.805 81.41 10.39-6 3 5.2a6.01 6.01 0 0 1 0 6l-3 5.195-2.195 3.8-6.93-11.996zm0 0"/>
        <path fill="url(#r)" d="M58 88v12h-6a6 6 0 0 1-5.195-3l-3-5.195L41.609 88zm0 0"/>
        <path fill="url(#s)" d="m60.195 72.195-10.39-6 3-5.195c1.07-1.855 3.05-3 5.195-3h10.39l-6.925 12zm0 0"/>
        <path fill="#fff" d="m64 58-4.39.004L66.534 70l1.27 2.195-3.465 2L77 76.125l4.66-11.93-3.465 2-3-5.195A6 6 0 0 0 70 58zm6 26-8 10 8 10v-4h6a6 6 0 0 0 5.195-3l3-5.195L86.391 88H70zM53 71.484 40.34 73.41l3.465 2-3 5.195a6.01 6.01 0 0 0 0 6l2.996 5.2 2.199 3.8 6.926-12 1.27-2.195 3.464 2zm0 0"/>
    </g>
</svg>
