<svg xmlns="http://www.w3.org/2000/svg" xml:space="preserve" width="128" height="128" viewBox="0 0 128 128">
    <path d="M21.977 12C16.449 12 12 16.46 12 22v86.031c0 5.543 4.45 10 9.977 10h84.043a9.965 9.965 0 0 0 9.98-10V35.945c0-6.629-5.36-12-11.973-12H58a6.49 6.49 0 0 1-5.797-3.582L50.7 17.371A9.74 9.74 0 0 0 42 12z" style="fill:#bba985;fill-opacity:1"/>
    <path fill="#a4caee" d="M65.977 32a9.93 9.93 0 0 0-7.028 2.89C56.676 37.146 53.566 40 50.316 40h-28.34C16.45 40 12 44.46 12 50v55.977c0 5.539 4.45 10 9.977 10h84.043c5.53 0 9.98-4.461 9.98-10V42c0-5.54-4.45-10-9.98-10zm0 0" style="fill:#e3d1b6;fill-opacity:1"/>
    <path fill="#438de6" d="M64.875 64c-.414 0-.82.133-1.164.367l-14.879 10a2 2 0 0 0-.469 2.79 1.98 1.98 0 0 0 1.633.835V86c0 3.29 2.711 6 6 6H74c3.29 0 6-2.64 6-6v-8.008a1.98 1.98 0 0 0 1.633-.836c.64-.898.43-2.14-.469-2.789l-15.125-10A2.1 2.1 0 0 0 64.875 64m0 4.453L76 75.593V86c0 1.125-.875 2-2 2h-8.004v-8c0-1.11-.89-2-2-2h-2c-1.11 0-2 .89-2 2v8h-4c-1.125 0-2-.875-2-2V75.594zm0 0" style="fill:#bba985;fill-opacity:1"/>
</svg>
