<svg xmlns="http://www.w3.org/2000/svg" xml:space="preserve" width="128" height="128" viewBox="0 0 128 128">
    <path d="M21.977 12C16.449 12 12 16.46 12 22v86.031c0 5.543 4.45 10 9.977 10h84.043a9.965 9.965 0 0 0 9.98-10V35.945c0-6.629-5.36-12-11.973-12H58a6.49 6.49 0 0 1-5.797-3.582L50.7 17.371A9.74 9.74 0 0 0 42 12z" style="fill:#ac939d;fill-opacity:1"/>
    <path fill="#a4caee" d="M65.977 32a9.93 9.93 0 0 0-7.028 2.89C56.676 37.146 53.566 40 50.316 40h-28.34C16.45 40 12 44.46 12 50v55.977c0 5.539 4.45 10 9.977 10h84.043c5.53 0 9.98-4.461 9.98-10V42c0-5.54-4.45-10-9.98-10zm0 0" style="fill:#e3dbde;fill-opacity:1"/>
    <path fill="#438de6" d="M57.938 64c-2.665 0-4.547 1.633-5.29 3.11-.742 1.476-.71 2.89-.71 2.89L52 94.945l11.992-4.804L76 94.945l-.062-24.953c0-.008.023-1.414-.711-2.883-.743-1.476-2.625-3.109-5.29-3.109zm0 4h12c1.39.023 2.007.734 2 2l.046 19.04-7.992-3.204-8.008 3.203-.047-19.047c-.015-1.297.797-1.992 2-1.992m0 0" style="fill:#ac939d;fill-opacity:1"/>
</svg>
