<svg xmlns="http://www.w3.org/2000/svg" xml:space="preserve" width="128" height="128" viewBox="0 0 128 128">
    <path d="M21.977 12C16.449 12 12 16.46 12 22v86.031c0 5.543 4.45 10 9.977 10h84.043a9.965 9.965 0 0 0 9.98-10V35.945c0-6.629-5.36-12-11.973-12H58a6.49 6.49 0 0 1-5.797-3.582L50.7 17.371A9.74 9.74 0 0 0 42 12z" style="fill:#93ac9d;fill-opacity:1"/>
    <path fill="#a4caee" d="M65.977 32a9.93 9.93 0 0 0-7.028 2.89C56.676 37.146 53.566 40 50.316 40h-28.34C16.45 40 12 44.46 12 50v55.977c0 5.539 4.45 10 9.977 10h84.043c5.53 0 9.98-4.461 9.98-10V42c0-5.54-4.45-10-9.98-10zm0 0" style="fill:#dbe3e2;fill-opacity:1"/>
    <path d="M56 64c-3.29 0-6 2.71-6 6v16c0 3.29 2.71 6 6 6h20c3.29 0 6-2.71 6-6V74c0-3.29-2.71-6-6-6h-7.172l-3.414-3.414A2 2 0 0 0 64 64Zm0 4h7.172l3.414 3.414c.375.375.883.586 1.414.586h8c1.125 0 2 .875 2 2v12c0 1.133-.875 2-2 2H56c-1.125 0-2-.867-2-2V70c0-1.125.875-2 2-2" style="fill:#93ac9d;fill-opacity:1"/>
</svg>
