<svg xmlns="http://www.w3.org/2000/svg" xml:space="preserve" width="128" height="128" viewBox="0 0 128 128">
    <path d="M30 12.451c-3.324 0-6 2.676-6 6v92.002c0 3.324 2.676 6 6 6h68c3.324 0 6-2.676 6-6V42.984L80.957 12.998h1.115l-.42-.547z" style="fill:#999;fill-opacity:1;fill-rule:evenodd;stroke-width:1.34773"/>
    <path d="M30 11.548c-3.324 0-6 2.676-6 6v92c0 3.324 2.676 6 6 6h68c3.324 0 6-2.676 6-6V41.534L80.957 11.548Z" style="fill:#f9f9f9;fill-opacity:1;fill-rule:evenodd;stroke-width:1.34773"/>
    <path d="M30 12.999a4.507 4.507 0 0 0-4.549 4.549v92A4.507 4.507 0 0 0 30 114.097h68a4.507 4.507 0 0 0 4.549-4.55v-69.9L82.072 12.999Z" style="fill:#eee;fill-opacity:1;fill-rule:evenodd;stroke-width:1.34773"/>
    <path d="M80.957 11.548v24.89c0 3.324 2.676 6 6 6H104v-.904z" style="fill:#999;fill-opacity:1;fill-rule:evenodd;stroke-width:1.4"/>
    <path d="M104 41.534 80.957 11.548v23.986c0 3.324 2.676 6 6 6z" style="fill:#ddd;fill-opacity:1;fill-rule:evenodd;stroke-width:1.4"/>
    <text xml:space="preserve" x="34.628" y="60.076" style="font-weight:700;font-size:12.2383px;font-family:&quot;Adwaita Mono&quot;;-inkscape-font-specification:&quot;Adwaita Mono Bold&quot;;text-align:start;writing-mode:lr-tb;direction:ltr;text-anchor:start;fill:#b2b2b2;fill-opacity:1;fill-rule:evenodd;stroke:none;stroke-width:.203971;stroke-dasharray:8.33172;stroke-dashoffset:0;stroke-opacity:1"><tspan x="34.628" y="60.076" style="font-style:normal;font-variant:normal;font-weight:700;font-stretch:normal;font-family:&quot;Adwaita Mono&quot;;-inkscape-font-specification:&quot;Adwaita Mono Bold&quot;;fill:#b2b2b2;fill-opacity:1;stroke:none;stroke-width:.203971;stroke-dasharray:8.33172;stroke-dashoffset:0;stroke-opacity:1">01001101</tspan><tspan x="34.628" y="75.373" style="font-style:normal;font-variant:normal;font-weight:700;font-stretch:normal;font-family:&quot;Adwaita Mono&quot;;-inkscape-font-specification:&quot;Adwaita Mono Bold&quot;;fill:#b2b2b2;fill-opacity:1;stroke:none;stroke-width:.203971;stroke-dasharray:8.33172;stroke-dashoffset:0;stroke-opacity:1">01100011</tspan><tspan x="34.628" y="90.671" style="font-style:normal;font-variant:normal;font-weight:700;font-stretch:normal;font-family:&quot;Adwaita Mono&quot;;-inkscape-font-specification:&quot;Adwaita Mono Bold&quot;;fill:#b2b2b2;fill-opacity:1;stroke:none;stroke-width:.203971;stroke-dasharray:8.33172;stroke-dashoffset:0;stroke-opacity:1">10001001</tspan><tspan x="34.628" y="105.969" style="font-style:normal;font-variant:normal;font-weight:700;font-stretch:normal;font-family:&quot;Adwaita Mono&quot;;-inkscape-font-specification:&quot;Adwaita Mono Bold&quot;;fill:#b2b2b2;fill-opacity:1;stroke:none;stroke-width:.203971;stroke-dasharray:8.33172;stroke-dashoffset:0;stroke-opacity:1">00110100</tspan></text>
</svg>
