<svg xmlns="http://www.w3.org/2000/svg" xmlns:xlink="http://www.w3.org/1999/xlink" xml:space="preserve" width="128" height="128" viewBox="0 0 128 128">
    <defs>
        <linearGradient id="a">
            <stop offset="0" style="stop-color:#ffa82e;stop-opacity:1"/>
            <stop offset="1" style="stop-color:#ffa82e;stop-opacity:1"/>
        </linearGradient>
        <linearGradient xlink:href="#a" id="b" x1="24" x2="104" y1="63.548" y2="63.548" gradientUnits="userSpaceOnUse"/>
    </defs>
    <path d="M30 12.451c-3.324 0-6 2.676-6 6v92.002c0 3.324 2.676 6 6 6h68c3.324 0 6-2.676 6-6V42.984L80.957 12.998h1.115l-.42-.547z" style="fill:#704201;fill-opacity:1;fill-rule:evenodd;stroke-width:1.34773"/>
    <path d="M30 11.548c-3.324 0-6 2.676-6 6v92c0 3.324 2.676 6 6 6h68c3.324 0 6-2.676 6-6V41.534L80.957 11.548Z" style="fill:url(#b);fill-opacity:1;fill-rule:evenodd;stroke-width:1.34773"/>
    <path d="M30 12.999a4.507 4.507 0 0 0-4.549 4.549v92A4.507 4.507 0 0 0 30 114.097h68a4.507 4.507 0 0 0 4.549-4.55v-69.9L82.072 12.999Z" style="fill:#670f0f;fill-opacity:1;fill-rule:evenodd;stroke-width:1.34773"/>
    <path d="M80.957 11.548v24.89c0 3.324 2.676 6 6 6H104v-.904z" style="fill:#fee3ba;fill-opacity:1;fill-rule:evenodd;stroke-width:1.4"/>
    <path d="M104 41.534 80.957 11.548v23.986c0 3.324 2.676 6 6 6z" style="fill:#ffa82e;fill-opacity:1;fill-rule:evenodd;stroke-width:1.4"/>
    <path fill="#ff9a00" d="M64.016 91.167H52.545L50.2 98.414a.54.54 0 0 1-.586.432h-5.797c-.34 0-.432-.185-.34-.555l9.93-28.586c.093-.309.185-.648.308-1.018a11 11 0 0 0 .185-2.004c-.03-.154.093-.309.247-.34h7.987c.247 0 .37.093.4.247L73.79 98.352c.093.34 0 .494-.308.494h-6.445c-.216.03-.432-.124-.493-.34zm-9.683-6.26h7.833a44 44 0 0 0-.71-2.22 93 93 0 0 1-.832-2.652c-.308-.956-.586-1.88-.894-2.837a67 67 0 0 1-.833-2.744c-.247-.864-.462-1.665-.678-2.406h-.062a38 38 0 0 1-1.048 3.978c-.463 1.48-.926 3.022-1.419 4.564a61 61 0 0 1-1.357 4.317M80.668 71.74a3.82 3.82 0 0 1-2.745-1.08 4 4 0 0 1-1.048-2.836 3.63 3.63 0 0 1 1.11-2.745A3.95 3.95 0 0 1 80.73 64c1.202 0 2.127.37 2.806 1.08a3.9 3.9 0 0 1 1.017 2.744 3.9 3.9 0 0 1-1.079 2.837c-.71.74-1.758 1.14-2.806 1.08m-3.454 26.767V74.762c0-.308.124-.432.401-.432h6.106c.277 0 .4.155.4.432v23.745c0 .339-.123.493-.4.493h-6.044c-.309 0-.463-.185-.463-.493" style="stroke-width:.30837"/>
</svg>
