<svg xmlns="http://www.w3.org/2000/svg" xmlns:xlink="http://www.w3.org/1999/xlink" xml:space="preserve" width="128" height="128" viewBox="0 0 128 128">
    <defs>
        <linearGradient id="a">
            <stop offset="0" style="stop-color:#fafafa;stop-opacity:1"/>
            <stop offset="1" style="stop-color:#fff;stop-opacity:1"/>
        </linearGradient>
        <linearGradient xlink:href="#a" id="b" x1="64" x2="64" y1="115.548" y2="11.548" gradientUnits="userSpaceOnUse"/>
    </defs>
    <path d="M30 12.451c-3.324 0-6 2.676-6 6v92.002c0 3.324 2.676 6 6 6h68c3.324 0 6-2.676 6-6V42.984L80.957 12.998h1.115l-.42-.547z" style="fill:#999;fill-opacity:1;fill-rule:evenodd;stroke-width:1.34773"/>
    <path d="M30 11.548c-3.324 0-6 2.676-6 6v92c0 3.324 2.676 6 6 6h68c3.324 0 6-2.676 6-6V41.534L80.957 11.548Z" style="fill:url(#b);fill-opacity:1;fill-rule:evenodd;stroke-width:1.34773"/>
    <path d="M30 12.999a4.507 4.507 0 0 0-4.549 4.549v92A4.507 4.507 0 0 0 30 114.097h68a4.507 4.507 0 0 0 4.549-4.55v-69.9L82.072 12.999Z" style="fill:#ececec;fill-opacity:1;fill-rule:evenodd;stroke-width:1.34773"/>
    <path d="M80.957 11.548v24.89c0 3.324 2.676 6 6 6H104v-.904z" style="fill:#787878;fill-opacity:1;fill-rule:evenodd;stroke-width:1.4"/>
    <path d="M104 41.534 80.957 11.548v23.986c0 3.324 2.676 6 6 6z" style="fill:#dedede;fill-opacity:1;fill-rule:evenodd;stroke-width:1.4"/>
    <path d="M-1520.596-80.822v47.908h118.049v-47.908zm-58.283 95.816v47.908h176.332V14.994Zm-47.344 95.818v47.909h223.676v-47.909zm71.627 95.817v47.908h152.049V206.63z" style="fill:#648bb9;fill-opacity:1;fill-rule:evenodd;stroke:none;stroke-width:1.0646;stroke-opacity:.176079" transform="translate(199.688 75.866)scale(.10095)"/>
    <path d="m-1427.798-233.32 73.16 89.174v444.085h47.908v-444.082l73.163-89.177z" style="fill:#ff8b3d;fill-opacity:1;fill-rule:evenodd;stroke:none;stroke-width:1.14787;stroke-opacity:.176079" transform="translate(199.688 75.866)scale(.10095)"/>
    <path d="M-1250.25 104.35h-475.5L-1488-307.444z" style="fill:#648bb9;fill-opacity:1;fill-rule:evenodd;stroke:none;stroke-width:.3;stroke-opacity:.176079" transform="matrix(0 .0731 -.04824 0 77.646 193.497)"/>
</svg>
