<svg xmlns="http://www.w3.org/2000/svg" xmlns:xlink="http://www.w3.org/1999/xlink" xml:space="preserve" width="128" height="128" viewBox="0 0 128 128">
    <defs>
        <linearGradient id="a">
            <stop offset="0" style="stop-color:#fafafa;stop-opacity:1"/>
            <stop offset="1" style="stop-color:#fff;stop-opacity:1"/>
        </linearGradient>
        <linearGradient xlink:href="#a" id="b" x1="64" x2="64" y1="115.548" y2="11.548" gradientUnits="userSpaceOnUse"/>
    </defs>
    <path d="M30 12.451c-3.324 0-6 2.676-6 6v92.002c0 3.324 2.676 6 6 6h68c3.324 0 6-2.676 6-6V42.984L80.957 12.998h1.115l-.42-.547z" style="fill:#999;fill-opacity:1;fill-rule:evenodd;stroke-width:1.34773"/>
    <path d="M30 11.548c-3.324 0-6 2.676-6 6v92c0 3.324 2.676 6 6 6h68c3.324 0 6-2.676 6-6V41.534L80.957 11.548Z" style="fill:url(#b);fill-opacity:1;fill-rule:evenodd;stroke-width:1.34773"/>
    <path d="M30 12.999a4.507 4.507 0 0 0-4.549 4.549v92A4.507 4.507 0 0 0 30 114.097h68a4.507 4.507 0 0 0 4.549-4.55v-69.9L82.072 12.999Z" style="fill:#ececec;fill-opacity:1;fill-rule:evenodd;stroke-width:1.34773"/>
    <path d="M80.957 11.548v24.89c0 3.324 2.676 6 6 6H104v-.904z" style="fill:#787878;fill-opacity:1;fill-rule:evenodd;stroke-width:1.4"/>
    <path d="M104 41.534 80.957 11.548v23.986c0 3.324 2.676 6 6 6z" style="fill:#dedede;fill-opacity:1;fill-rule:evenodd;stroke-width:1.4"/>
    <path d="M60.401 52.994c-3.097-.027-6.163.79-9.131 2.954-11.195 8.158-12.336 28.996 3.057 33.247 5.535 1.53 11.111-.37 14.189-5.34 2.87-4.637 1.879-10.993-4.517-10.933 5.996 6.694-1.503 12.904-8.247 7.98-5.524-4.032-4.714-10.423-.918-15.434 4.34-5.73 10.613-8.061 17.519-8.813v-.44c-3.939-1.757-7.97-3.187-11.952-3.22m9.66 10.102c-4.844-.073-9.32 2.77-11.401 7.202-2.315 4.926-.02 10.133 5.779 9.658-6.692-5.89.56-12.931 7.416-8.353 5.066 3.383 4.556 8.769 1.947 13.627-3.713 6.913-10.672 10.096-18.156 10.994v.44c7.077 3.084 14.227 5.025 21.082.173 12.257-8.675 11.882-32.006-5.694-33.688q-.489-.046-.973-.053" style="fill:#eb232d;fill-opacity:1;stroke-width:3.29742"/>
</svg>
