<svg xmlns="http://www.w3.org/2000/svg" xmlns:xlink="http://www.w3.org/1999/xlink" xml:space="preserve" width="128" height="128" viewBox="0 0 128 128">
    <defs>
        <linearGradient id="a">
            <stop offset="0" style="stop-color:#fafafa;stop-opacity:1"/>
            <stop offset="1" style="stop-color:#fff;stop-opacity:1"/>
        </linearGradient>
        <linearGradient xlink:href="#a" id="b" x1="64" x2="64" y1="115.548" y2="11.548" gradientUnits="userSpaceOnUse"/>
    </defs>
    <path d="M30 12.451c-3.324 0-6 2.676-6 6v92.002c0 3.324 2.676 6 6 6h68c3.324 0 6-2.676 6-6V42.984L80.957 12.998h1.115l-.42-.547z" style="fill:#999;fill-opacity:1;fill-rule:evenodd;stroke-width:1.34773"/>
    <path d="M30 11.548c-3.324 0-6 2.676-6 6v92c0 3.324 2.676 6 6 6h68c3.324 0 6-2.676 6-6V41.534L80.957 11.548Z" style="fill:url(#b);fill-opacity:1;fill-rule:evenodd;stroke-width:1.34773"/>
    <path d="M30 12.999a4.507 4.507 0 0 0-4.549 4.549v92A4.507 4.507 0 0 0 30 114.097h68a4.507 4.507 0 0 0 4.549-4.55v-69.9L82.072 12.999Z" style="fill:#ececec;fill-opacity:1;fill-rule:evenodd;stroke-width:1.34773"/>
    <path d="M80.957 11.548v24.89c0 3.324 2.676 6 6 6H104v-.904z" style="fill:#787878;fill-opacity:1;fill-rule:evenodd;stroke-width:1.4"/>
    <path d="M104 41.534 80.957 11.548v23.986c0 3.324 2.676 6 6 6z" style="fill:#dedede;fill-opacity:1;fill-rule:evenodd;stroke-width:1.4"/>
    <g fill="#d70751">
        <path d="M67.873 75.797c-.898.012.169.461 1.34.642q.488-.382.88-.757c-.73.178-1.472.182-2.22.115m4.816-1.201c.536-.739.926-1.546 1.063-2.381-.12.595-.442 1.108-.747 1.651-1.678 1.057-.159-.627-.001-1.268-1.804 2.273-.249 1.363-.315 1.998m1.78-4.629c.11-1.616-.318-1.104-.461-.489.167.088.3 1.14.461.49M64.468 47.871c.479.085 1.035.151.955.266.527-.116.645-.22-.955-.266m.956.266-.337.07.314-.028z" style="stroke-width:.600759" transform="translate(-4.792 -3.19)scale(1.08123)"/>
        <path d="M80.364 70.58c.054 1.452-.423 2.157-.855 3.404l-.777.386c-.635 1.234.063.784-.392 1.765-.992.881-3.007 2.757-3.652 2.929-.472-.01.319-.557.422-.77-1.327.91-1.065 1.367-3.095 1.922l-.059-.133C66.952 82.438 60 77.772 60.091 71.406c-.053.404-.152.303-.262.465-.259-3.275 1.512-6.564 4.5-7.909 2.92-1.445 6.346-.853 8.437 1.099-1.149-1.506-3.437-3.102-6.147-2.954-2.656.043-5.141 1.73-5.97 3.564-1.36.856-1.52 3.302-2.112 3.75-.798 5.863 1.5 8.395 5.39 11.376.61.412.171.475.253.789-1.292-.605-2.474-1.518-3.447-2.636.516.755 1.073 1.49 1.794 2.066-1.22-.412-2.847-2.952-3.32-3.055 2.099 3.76 8.517 6.593 11.88 5.187-1.557.058-3.533.032-5.28-.614-.736-.378-1.732-1.16-1.554-1.305 4.588 1.712 9.325 1.296 13.294-1.885 1.01-.787 2.113-2.125 2.432-2.143-.48.722.083.347-.286.985 1.004-1.623-.438-.661 1.039-2.802l.545.75c-.204-1.347 1.674-2.983 1.483-5.113.43-.651.48.702.023 2.2.634-1.662.168-1.93.33-3.302.175.462.407.951.525 1.439-.413-1.607.423-2.706.63-3.64-.205-.09-.637.71-.736-1.187.015-.824.23-.432.312-.635-.161-.093-.586-.725-.844-1.937.186-.285.5.739.755.78-.164-.963-.446-1.698-.458-2.437-.745-1.556-.264.208-.867-.668-.793-2.472.658-.574.756-1.696 1.2 1.739 1.885 4.436 2.2 5.553a22.7 22.7 0 0 0-1.102-3.958c.366.154-.588-2.802.475-.844-1.134-4.173-4.852-8.072-8.274-9.9.418.382.946.863.757.939-1.702-1.013-1.403-1.092-1.647-1.52-1.385-.564-1.477.046-2.394.001-2.613-1.387-3.116-1.24-5.521-2.107l.11.512c-1.732-.577-2.018.217-3.888.001-.113-.088.6-.322 1.187-.407-1.673.222-1.595-.33-3.233.061.403-.283.83-.47 1.261-.711-1.364.083-3.258.794-2.674.146-2.226.994-6.18 2.388-8.398 4.469l-.07-.466c-1.016 1.22-4.433 3.644-4.705 5.226l-.272.063c-.528.896-.871 1.91-1.29 2.831-.692 1.18-1.014.454-.916.64-1.36 2.758-2.038 5.076-2.621 6.978.416.622.01 3.744.167 6.242-.682 12.342 8.662 24.324 18.876 27.09 1.497.537 3.723.518 5.616.57-2.233-.639-2.522-.338-4.699-1.096-1.57-.74-1.913-1.585-3.026-2.55l.44.778c-2.18-.772-1.268-.955-3.042-1.517l.47-.613c-.707-.055-1.872-1.191-2.19-1.823l-.775.031c-.928-1.145-1.424-1.972-1.387-2.613l-.25.446c-.283-.486-3.42-4.3-1.792-3.413-.303-.275-.704-.449-1.14-1.24l.331-.379c-.782-1.007-1.44-2.298-1.39-2.728.417.563.707.669.994.766-1.977-4.905-2.088-.27-3.585-4.993l.316-.025c-.242-.367-.39-.763-.585-1.153l.138-1.373c-1.422-1.643-.397-6.995-.191-9.93.14-1.193 1.187-2.464 1.982-4.457l-.484-.083c.926-1.614 5.288-6.487 7.309-6.237.979-1.23-.195-.005-.386-.314 2.15-2.224 2.826-1.571 4.276-1.972 1.564-.928-1.342.363-.6-.354 2.704-.69 1.915-1.57 5.444-1.92.372.21-.864.326-1.174.6 2.253-1.102 7.13-.85 10.3.612 3.675 1.72 7.807 6.797 7.97 11.575l.186.05c-.094 1.9.29 4.097-.377 6.114z" style="stroke-width:.600759" transform="translate(-4.792 -3.19)scale(1.08123)"/>
        <path d="m58.074 77.028-.127.63c.59.801 1.06 1.67 1.812 2.295-.542-1.057-.944-1.494-1.685-2.925m1.394-.054c-.312-.346-.496-.762-.704-1.175.198.728.604 1.353.981 1.99zM84.15 71.61l-.132.332a16 16 0 0 1-1.565 4.992 15.7 15.7 0 0 0 1.697-5.324M64.646 47.441c.606-.221 1.491-.122 2.136-.268-.84.07-1.675.113-2.5.218zm-21.31 11.332c.14 1.294-.973 1.797.247.942.655-1.474-.255-.406-.247-.942m-1.434 5.992c.282-.863.332-1.381.44-1.882-.777.994-.358 1.206-.44 1.882" style="stroke-width:.600759" transform="translate(-4.792 -3.19)scale(1.08123)"/>
    </g>
</svg>
