<svg xmlns="http://www.w3.org/2000/svg" xml:space="preserve" width="128" height="128" viewBox="0 0 128 128">
    <defs>
        <clipPath id="a" clipPathUnits="userSpaceOnUse">
            <path d="M0 324h576V0H0z"/>
        </clipPath>
    </defs>
    <path d="M30 12.451c-3.324 0-6 2.676-6 6v92.002c0 3.324 2.676 6 6 6h68c3.324 0 6-2.676 6-6V42.984L80.957 12.998h1.115l-.42-.547z" style="fill:#33365c;fill-opacity:1;fill-rule:evenodd;stroke-width:1.34773"/>
    <path d="M30 11.548c-3.324 0-6 2.676-6 6v92c0 3.324 2.676 6 6 6h68c3.324 0 6-2.676 6-6V41.534L80.957 11.548Z" style="fill:#c8cae0;fill-opacity:1;fill-rule:evenodd;stroke-width:1.34773"/>
    <path d="M30 12.999a4.507 4.507 0 0 0-4.549 4.549v92A4.507 4.507 0 0 0 30 114.097h68a4.507 4.507 0 0 0 4.549-4.55v-69.9L82.072 12.999Z" style="fill:#777bb3;fill-opacity:1;fill-rule:evenodd;stroke-width:1.34773"/>
    <path d="M80.957 11.548v24.89c0 3.324 2.676 6 6 6H104v-.904z" style="fill:#33365c;fill-opacity:1;fill-rule:evenodd;stroke-width:1.4"/>
    <path d="M104 41.534 80.957 11.548v23.986c0 3.324 2.676 6 6 6z" style="fill:#c9cae1;fill-opacity:1;fill-rule:evenodd;stroke-width:1.4"/>
    <g clip-path="url(#a)" style="fill:#f9f9f9;fill-opacity:1" transform="matrix(.11002 0 0 -.11002 32.315 96.636)">
        <g style="fill:#f9f9f9;fill-opacity:1">
            <path d="M0 0c146.729 0 265.68 60.281 265.68 134.641S146.729 269.282 0 269.282-265.68 209-265.68 134.641C-265.68 60.281-146.729 0 0 0" style="fill:#f9f9f9;fill-opacity:1;fill-rule:nonzero;stroke:none" transform="translate(288 27.36)"/>
        </g>
    </g>
    <path d="M-66.892 82.326c1.328 0 2.319-.244 2.946-.727.62-.478 1.048-1.305 1.273-2.46.21-1.078.13-1.831-.237-2.238-.375-.415-1.185-.626-2.409-.626h-2.12l-1.177 6.051zm-6.938 7.454a.33.33 0 0 1-.324-.393l3.117-16.035a.33.33 0 0 1 .324-.267h6.717c2.111 0 3.682.573 4.67 1.704.993 1.136 1.3 2.725.911 4.722a7.5 7.5 0 0 1-.807 2.245 7.5 7.5 0 0 1-1.487 1.863 6.5 6.5 0 0 1-2.446 1.466c-.88.286-2.011.432-3.361.432h-2.72l-.777 3.996a.33.33 0 0 1-.323.267zm23.425-4.263a.33.33 0 0 1-.324-.393l1.378-7.095c.131-.675.099-1.16-.09-1.364-.117-.125-.466-.335-1.498-.335h-2.497l-1.734 8.92a.33.33 0 0 1-.324.267h-3.465a.33.33 0 0 1-.324-.393l3.116-16.035a.33.33 0 0 1 .324-.267h3.466a.33.33 0 0 1 .324.393l-.752 3.87h2.687c2.046 0 3.434.36 4.243 1.103.824.757 1.081 1.968.764 3.6l-1.45 7.462a.33.33 0 0 1-.324.267zm10.778-3.191c1.327 0 2.318-.244 2.945-.727.62-.477 1.049-1.305 1.273-2.46.21-1.078.13-1.831-.237-2.238-.375-.415-1.185-.626-2.408-.626h-2.122l-1.176 6.051zm-6.938 7.454a.33.33 0 0 1-.324-.393l3.116-16.035a.33.33 0 0 1 .324-.267h6.717c2.112 0 3.683.573 4.67 1.704.993 1.136 1.3 2.725.912 4.722a7.5 7.5 0 0 1-.808 2.245 7.5 7.5 0 0 1-1.486 1.863 6.5 6.5 0 0 1-2.447 1.466c-.88.286-2.011.432-3.36.432h-2.72l-.777 3.996a.33.33 0 0 1-.324.267z" style="fill:#777bb3;fill-opacity:1;fill-rule:nonzero;stroke:#fff;stroke-width:.893064;stroke-dasharray:none;stroke-opacity:1" transform="translate(117 -1.677)"/>
</svg>
