<svg xmlns="http://www.w3.org/2000/svg" xmlns:xlink="http://www.w3.org/1999/xlink" xml:space="preserve" width="128" height="128" viewBox="0 0 128 128">
    <defs>
        <linearGradient id="a">
            <stop offset="0" style="stop-color:#fafafa;stop-opacity:1"/>
            <stop offset="1" style="stop-color:#fff;stop-opacity:1"/>
        </linearGradient>
        <linearGradient xlink:href="#a" id="b" x1="64" x2="64" y1="115.548" y2="11.548" gradientUnits="userSpaceOnUse"/>
    </defs>
    <path d="M30 12.451c-3.324 0-6 2.676-6 6v92.002c0 3.324 2.676 6 6 6h68c3.324 0 6-2.676 6-6V42.984L80.957 12.998h1.115l-.42-.547z" style="fill:#3771c8;fill-opacity:1;fill-rule:evenodd;stroke-width:1.34773"/>
    <path d="M30 11.548c-3.324 0-6 2.676-6 6v92c0 3.324 2.676 6 6 6h68c3.324 0 6-2.676 6-6V41.534L80.957 11.548Z" style="fill:url(#b);fill-opacity:1;fill-rule:evenodd;stroke-width:1.34773"/>
    <path d="M30 12.999a4.507 4.507 0 0 0-4.549 4.549v92A4.507 4.507 0 0 0 30 114.097h68a4.507 4.507 0 0 0 4.549-4.55v-69.9L82.072 12.999Z" style="fill:#d7e3f4;fill-opacity:1;fill-rule:evenodd;stroke-width:1.34773"/>
    <path d="M80.957 11.548v24.89c0 3.324 2.676 6 6 6H104v-.904z" style="fill:#2c5aa0;fill-opacity:1;fill-rule:evenodd;stroke-width:1.4"/>
    <path d="M104 41.534 80.957 11.548v23.986c0 3.324 2.676 6 6 6z" style="fill:#9cb9e3;fill-opacity:1;fill-rule:evenodd;stroke-width:1.4"/>
    <path d="M53.794 86.347 48.66 65.109 64 50.949l15.339 14.16-5.133 21.238Zm-8.672 11.799 1.297-3.835q.472-1.475 1.711-2.36t2.773-.884h26.194q1.534 0 2.773.884 1.239.885 1.71 2.36l1.298 3.835z" style="fill:#3771c8;stroke-width:.0589951"/>
    <path d="M57.51 81.627h12.98l3.598-14.926-7.728-7.138v6.254q.826.59 1.298 1.474.472.885.472 1.947 0 1.711-1.21 2.92-1.21 1.21-2.92 1.21t-2.92-1.21-1.21-2.92q0-1.062.472-1.947.472-.884 1.298-1.474v-6.254l-7.728 7.138z" style="fill:#d7e3f4;fill-opacity:1;stroke-width:.0589951"/>
</svg>
