<svg xmlns="http://www.w3.org/2000/svg" xmlns:xlink="http://www.w3.org/1999/xlink" xml:space="preserve" width="128" height="128" viewBox="0 0 128 128">
    <defs>
        <clipPath id="c" clipPathUnits="userSpaceOnUse">
            <path d="M471.43 685.929c0 22.097-12.841 40.01-12.841 40.01s-12.842-17.913-12.842-40.01 12.842-40.01 12.842-40.01 12.842 17.913 12.842 40.01" style="color:#000;display:inline;overflow:visible;visibility:visible;fill:#edd400;fill-opacity:1;fill-rule:evenodd;stroke:none;stroke-width:12;marker:none"/>
        </clipPath>
        <clipPath id="d" clipPathUnits="userSpaceOnUse">
            <path d="M401.43 865.802c0 22.097-12.841 40.01-12.841 40.01s-12.842-17.914-12.842-40.01c0-22.097 12.842-40.01 12.842-40.01s12.842 17.913 12.842 40.01" style="color:#000;display:inline;overflow:visible;visibility:visible;fill:#3465a4;fill-opacity:1;fill-rule:evenodd;stroke:none;stroke-width:12;marker:none"/>
        </clipPath>
        <clipPath id="e" clipPathUnits="userSpaceOnUse">
            <path d="M348.71 698.726c-22.064 0-39.95-12.86-39.95-12.86s17.886-12.862 39.95-12.862 39.952 12.861 39.952 12.861-17.887 12.861-39.951 12.861" style="color:#000;display:inline;overflow:visible;visibility:visible;fill:#ef2929;fill-opacity:1;fill-rule:evenodd;stroke:none;stroke-width:12;marker:none"/>
        </clipPath>
        <clipPath id="f" clipPathUnits="userSpaceOnUse">
            <path d="M299.471 763.199c-15.601 15.624-37.33 19.197-37.33 19.197s3.567-21.76 19.17-37.385c15.601-15.625 37.33-19.198 37.33-19.198s-3.568 21.76-19.17 37.386" style="color:#000;display:inline;overflow:visible;visibility:visible;fill:#75507b;fill-opacity:1;fill-rule:evenodd;stroke:none;stroke-width:12;marker:none"/>
        </clipPath>
        <clipPath id="g" clipPathUnits="userSpaceOnUse">
            <path d="M538.467 738.726c-22.065 0-39.951-12.86-39.951-12.86s17.886-12.862 39.95-12.862 39.952 12.861 39.952 12.861-17.887 12.861-39.951 12.861" style="color:#000;display:inline;overflow:visible;visibility:visible;fill:#65c808;fill-opacity:1;fill-rule:evenodd;stroke:none;stroke-width:12;marker:none"/>
        </clipPath>
        <clipPath id="h" clipPathUnits="userSpaceOnUse">
            <path d="M515.867 706.72c-15.601 15.625-37.33 19.197-37.33 19.197s3.567-21.76 19.17-37.385c15.601-15.625 37.33-19.197 37.33-19.197s-3.568 21.76-19.17 37.385" style="color:#000;display:inline;overflow:visible;visibility:visible;fill:#afea2c;fill-opacity:1;fill-rule:evenodd;stroke:none;stroke-width:12;marker:none"/>
        </clipPath>
        <clipPath id="i" clipPathUnits="userSpaceOnUse">
            <path d="M515.867 745.01c15.602 15.625 19.17 37.386 19.17 37.386s-21.729-3.573-37.33-19.197c-15.603-15.625-19.17-37.386-19.17-37.386s21.729 3.573 37.33 19.198" style="color:#000;display:inline;overflow:visible;visibility:visible;fill:#729fcf;fill-opacity:1;fill-rule:evenodd;stroke:none;stroke-width:12;marker:none"/>
        </clipPath>
        <clipPath id="j" clipPathUnits="userSpaceOnUse">
            <path d="M269.471 688.532c15.602 15.625 19.17 37.385 19.17 37.385s-21.729-3.572-37.33-19.197c-15.603-15.625-19.17-37.385-19.17-37.385s21.729 3.572 37.33 19.197" style="color:#000;display:inline;overflow:visible;visibility:visible;fill:#f57900;fill-opacity:1;fill-rule:evenodd;stroke:none;stroke-width:12;marker:none"/>
        </clipPath>
        <linearGradient id="a">
            <stop offset="0" style="stop-color:#fafafa;stop-opacity:1"/>
            <stop offset="1" style="stop-color:#fff;stop-opacity:1"/>
        </linearGradient>
        <linearGradient xlink:href="#a" id="b" x1="64" x2="64" y1="115.548" y2="11.548" gradientUnits="userSpaceOnUse"/>
    </defs>
    <path d="M30 12.451c-3.324 0-6 2.676-6 6v92.002c0 3.324 2.676 6 6 6h68c3.324 0 6-2.676 6-6V42.984L80.957 12.998h1.115l-.42-.547z" style="fill:#999;fill-opacity:1;fill-rule:evenodd;stroke-width:1.34773"/>
    <path d="M30 11.548c-3.324 0-6 2.676-6 6v92c0 3.324 2.676 6 6 6h68c3.324 0 6-2.676 6-6V41.534L80.957 11.548Z" style="fill:url(#b);fill-opacity:1;fill-rule:evenodd;stroke-width:1.34773"/>
    <path d="M30 12.999a4.507 4.507 0 0 0-4.549 4.549v92A4.507 4.507 0 0 0 30 114.097h68a4.507 4.507 0 0 0 4.549-4.55v-69.9L82.072 12.999Z" style="fill:#ececec;fill-opacity:1;fill-rule:evenodd;stroke-width:1.34773"/>
    <path d="M80.957 11.548v24.89c0 3.324 2.676 6 6 6H104v-.904z" style="fill:#787878;fill-opacity:1;fill-rule:evenodd;stroke-width:1.4"/>
    <path d="M104 41.534 80.957 11.548v23.986c0 3.324 2.676 6 6 6z" style="fill:#dedede;fill-opacity:1;fill-rule:evenodd;stroke-width:1.4"/>
    <path d="M68.371 60.926c0 7.51-4.371 13.598-4.371 13.598s-4.371-6.088-4.371-13.598S64 47.328 64 47.328s4.371 6.088 4.371 13.598" style="color:#000;display:inline;overflow:visible;visibility:visible;fill:#d5be00;fill-opacity:1;fill-rule:evenodd;stroke:none;stroke-width:3.28148;marker:none" transform="translate(1.307 2.636)"/>
    <path d="M471.43 685.929c0 22.097-12.841 40.01-12.841 40.01s-12.842-17.913-12.842-40.01 12.842-40.01 12.842-40.01 12.842 17.913 12.842 40.01" clip-path="url(#c)" style="color:#000;display:inline;overflow:visible;visibility:visible;fill:#e8d009;fill-opacity:1;fill-rule:evenodd;stroke:none;stroke-width:12;marker:none" transform="matrix(.34037 0 0 .33987 -90.784 -169.567)"/>
    <path d="M68.371 88.073c0 7.51-4.371 13.598-4.371 13.598s-4.371-6.088-4.371-13.598S64 74.475 64 74.475s4.371 6.088 4.371 13.598" style="color:#000;display:inline;overflow:visible;visibility:visible;fill:#23446e;fill-opacity:1;fill-rule:evenodd;stroke:none;stroke-width:3.28148;marker:none" transform="translate(1.307 2.636)"/>
    <path d="M77.573 78.87c-7.51 0-13.598-4.37-13.598-4.37s6.088-4.372 13.598-4.372S91.172 74.5 91.172 74.5s-6.089 4.372-13.599 4.372" style="color:#000;display:inline;overflow:visible;visibility:visible;fill:#56aa07;fill-opacity:1;fill-rule:evenodd;stroke:none;stroke-width:3.28148;marker:none" transform="translate(1.307 2.636)"/>
    <path d="M50.427 78.87c-7.51 0-13.599-4.37-13.599-4.37s6.089-4.372 13.599-4.372S64.025 74.5 64.025 74.5s-6.088 4.372-13.598 4.372" style="color:#000;display:inline;overflow:visible;visibility:visible;fill:#ca0f0f;fill-opacity:1;fill-rule:evenodd;stroke:none;stroke-width:3.28148;marker:none" transform="translate(1.307 2.636)"/>
    <path d="M76.689 67.992c-5.31 5.31-12.707 6.525-12.707 6.525s1.215-7.396 6.525-12.706 12.706-6.525 12.706-6.525S82 62.682 76.69 67.992" style="color:#000;display:inline;overflow:visible;visibility:visible;fill:#85b912;fill-opacity:1;fill-rule:evenodd;stroke:none;stroke-width:3.28148;marker:none" transform="translate(1.307 2.636)"/>
    <path d="M401.43 865.802c0 22.097-12.841 40.01-12.841 40.01s-12.842-17.914-12.842-40.01c0-22.097 12.842-40.01 12.842-40.01s12.842 17.913 12.842 40.01" clip-path="url(#d)" style="color:#000;display:inline;overflow:visible;visibility:visible;fill:#6392ce;fill-opacity:1;fill-rule:evenodd;stroke:none;stroke-width:12;marker:none" transform="matrix(.34037 0 0 .33987 -66.958 -203.554)"/>
    <path d="M348.71 698.726c-22.064 0-39.95-12.86-39.95-12.86s17.886-12.862 39.95-12.862 39.952 12.861 39.952 12.861-17.887 12.861-39.951 12.861" clip-path="url(#e)" style="color:#000;display:inline;overflow:visible;visibility:visible;fill:#e43d3d;fill-opacity:1;fill-rule:evenodd;stroke:none;stroke-width:12;marker:none" transform="matrix(.34037 0 0 .33987 -66.958 -155.972)"/>
    <path d="M57.493 87.188c-5.31 5.31-12.706 6.525-12.706 6.525S46 86.317 51.31 81.006c5.31-5.31 12.707-6.524 12.707-6.524s-1.215 7.396-6.525 12.706" style="color:#000;display:inline;overflow:visible;visibility:visible;fill:#593d5e;fill-opacity:1;fill-rule:evenodd;stroke:none;stroke-width:3.28148;marker:none" transform="translate(1.307 2.636)"/>
    <path d="M57.493 61.81c5.31 5.311 6.525 12.707 6.525 12.707s-7.396-1.214-12.707-6.525c-5.31-5.31-6.524-12.706-6.524-12.706s7.396 1.214 12.706 6.525" style="color:#000;display:inline;overflow:visible;visibility:visible;fill:#c96300;fill-opacity:1;fill-rule:evenodd;stroke:none;stroke-width:3.28148;marker:none" transform="translate(1.307 2.636)"/>
    <path d="M299.471 763.199c-15.601 15.624-37.33 19.197-37.33 19.197s3.567-21.76 19.17-37.385c15.601-15.625 37.33-19.198 37.33-19.198s-3.568 21.76-19.17 37.386" clip-path="url(#f)" style="color:#000;display:inline;overflow:visible;visibility:visible;fill:#a078a7;fill-opacity:1;fill-rule:evenodd;stroke:none;stroke-width:12;marker:none" transform="matrix(.34037 0 0 .33987 -43.132 -169.567)"/>
    <path d="M76.689 81.006c5.31 5.31 6.524 12.707 6.524 12.707s-7.396-1.215-12.706-6.525-6.525-12.706-6.525-12.706 7.396 1.214 12.707 6.524" style="color:#000;display:inline;overflow:visible;visibility:visible;fill:#3f7bba;fill-opacity:1;fill-rule:evenodd;stroke:none;stroke-width:3.28148;marker:none" transform="translate(1.307 2.636)"/>
    <path d="M538.467 738.726c-22.065 0-39.951-12.86-39.951-12.86s17.886-12.862 39.95-12.862 39.952 12.861 39.952 12.861-17.887 12.861-39.951 12.861" clip-path="url(#g)" style="color:#000;display:inline;overflow:visible;visibility:visible;fill:#69b820;fill-opacity:1;fill-rule:evenodd;stroke:none;stroke-width:12;marker:none" transform="matrix(.34037 0 0 .33987 -104.398 -169.567)"/>
    <path d="M515.867 706.72c-15.601 15.625-37.33 19.197-37.33 19.197s3.567-21.76 19.17-37.385c15.601-15.625 37.33-19.197 37.33-19.197s-3.568 21.76-19.17 37.385" clip-path="url(#h)" style="color:#000;display:inline;overflow:visible;visibility:visible;fill:#bde468;fill-opacity:1;fill-rule:evenodd;stroke:none;stroke-width:12;marker:none" transform="matrix(.34037 0 0 .33987 -97.591 -169.567)"/>
    <path d="M515.867 745.01c15.602 15.625 19.17 37.386 19.17 37.386s-21.729-3.573-37.33-19.197c-15.603-15.625-19.17-37.386-19.17-37.386s21.729 3.573 37.33 19.198" clip-path="url(#i)" style="color:#000;display:inline;overflow:visible;visibility:visible;fill:#8fb2d9;fill-opacity:1;fill-rule:evenodd;stroke:none;stroke-width:12;marker:none" transform="matrix(.34037 0 0 .33987 -97.591 -169.567)"/>
    <path d="M269.471 688.532c15.602 15.625 19.17 37.385 19.17 37.385s-21.729-3.572-37.33-19.197c-15.603-15.625-19.17-37.385-19.17-37.385s21.729 3.572 37.33 19.197" clip-path="url(#j)" style="color:#000;display:inline;overflow:visible;visibility:visible;fill:#ff942b;fill-opacity:1;fill-rule:evenodd;stroke:none;stroke-width:12;marker:none" transform="matrix(.34037 0 0 .33987 -32.92 -169.567)"/>
</svg>
