<svg xmlns="http://www.w3.org/2000/svg" xmlns:xlink="http://www.w3.org/1999/xlink" xml:space="preserve" width="128" height="128" viewBox="0 0 128 128">
    <defs>
        <linearGradient id="a">
            <stop offset="0" style="stop-color:#fafafa;stop-opacity:1"/>
            <stop offset="1" style="stop-color:#fff;stop-opacity:1"/>
        </linearGradient>
        <linearGradient xlink:href="#a" id="b" x1="64" x2="64" y1="115.548" y2="11.548" gradientUnits="userSpaceOnUse"/>
    </defs>
    <path d="M30 12.451c-3.324 0-6 2.676-6 6v92.002c0 3.324 2.676 6 6 6h68c3.324 0 6-2.676 6-6V42.984L80.957 12.998h1.115l-.42-.547z" style="fill:#999;fill-opacity:1;fill-rule:evenodd;stroke-width:1.34773"/>
    <path d="M30 11.548c-3.324 0-6 2.676-6 6v92c0 3.324 2.676 6 6 6h68c3.324 0 6-2.676 6-6V41.534L80.957 11.548Z" style="fill:url(#b);fill-opacity:1;fill-rule:evenodd;stroke-width:1.34773"/>
    <path d="M30 12.999a4.507 4.507 0 0 0-4.549 4.549v92A4.507 4.507 0 0 0 30 114.097h68a4.507 4.507 0 0 0 4.549-4.55v-69.9L82.072 12.999Z" style="fill:#ececec;fill-opacity:1;fill-rule:evenodd;stroke-width:1.34773"/>
    <path d="M80.957 11.548v24.89c0 3.324 2.676 6 6 6H104v-.904z" style="fill:#787878;fill-opacity:1;fill-rule:evenodd;stroke-width:1.4"/>
    <path d="M104 41.534 80.957 11.548v23.986c0 3.324 2.676 6 6 6z" style="fill:#dedede;fill-opacity:1;fill-rule:evenodd;stroke-width:1.4"/>
    <path d="M80.354 91.502q-.827 0-1.607-.275-.78-.23-1.378-.781-.551-.597-.827-1.378-.23-.78-.23-1.607t.23-1.607q.276-.827.827-1.378.597-.597 1.378-.827t1.607-.23 1.607.23 1.332.827q.597.551.827 1.378.275.78.275 1.607t-.275 1.607q-.23.781-.827 1.378-.55.551-1.332.78-.78.276-1.607.276m-2.709-13.409V57.38h5.419v20.712z" style="-inkscape-font-specification:&quot;Adwaita Mono Bold&quot;;fill:#768ece;fill-rule:evenodd;stroke-width:3.82696;fill-opacity:1"/>
    <path d="m52.788 58.207-1.652 7.303h-5.098v4.638h4.041l-1.883 8.22h-4.591v4.638h3.535l-1.653 7.303h5.006l1.653-7.303h5.74l-1.652 7.303h5.005l1.653-7.303h5.097v-4.639h-4.04l1.882-8.219h4.592V65.51h-3.535l1.652-7.303h-5.006l-1.652 7.303h-5.74l1.652-7.303zm2.297 11.941h5.74l-1.882 8.22h-5.74z" style="-inkscape-font-specification:&quot;Adwaita Mono Bold&quot;;fill:#5f5f5f;fill-rule:evenodd;stroke-width:3.82696;fill-opacity:1"/>
</svg>
