<svg xmlns="http://www.w3.org/2000/svg" xml:space="preserve" width="128" height="128" viewBox="0 0 128 128">
    <path d="M30 12.451c-3.324 0-6 2.676-6 6v92.002c0 3.324 2.676 6 6 6h68c3.324 0 6-2.676 6-6V42.984L80.957 12.998h1.115l-.42-.547z" style="fill:#1c1f24;fill-opacity:1;fill-rule:evenodd;stroke-width:1.34773"/>
    <path d="M30 11.548c-3.324 0-6 2.676-6 6v92c0 3.324 2.676 6 6 6h68c3.324 0 6-2.676 6-6V41.534L80.957 11.548Z" style="fill:#b5bcc0;fill-opacity:1;fill-rule:evenodd;stroke-width:1.34773"/>
    <path d="M30 12.999a4.507 4.507 0 0 0-4.549 4.549v92A4.507 4.507 0 0 0 30 114.097h68a4.507 4.507 0 0 0 4.549-4.55v-69.9L82.072 12.999Z" style="fill:#4b5562;fill-opacity:1;fill-rule:evenodd;stroke-width:1.34773"/>
    <path d="M80.957 11.548v24.89c0 3.324 2.676 6 6 6H104v-.904z" style="fill:#1c1f24;fill-opacity:1;fill-rule:evenodd;stroke-width:1.4"/>
    <path d="M104 41.534 80.957 11.548v23.986c0 3.324 2.676 6 6 6z" style="fill:#939dac;fill-opacity:1;fill-rule:evenodd;stroke-width:1.4"/>
    <path d="M63.675 46.738c-2.243.01-4.386.203-6.271.537-5.554.981-6.564 3.035-6.564 6.822V59.1h13.126v1.667H45.915c-3.815 0-7.155 2.294-8.2 6.656-1.205 5-1.258 8.12 0 13.34.934 3.886 3.16 6.653 6.976 6.653h4.512V81.42c0-4.333 3.75-8.155 8.201-8.155h13.11c3.65 0 6.562-3.005 6.562-6.67V54.097c0-3.557-3-6.228-6.562-6.822a41 41 0 0 0-6.839-.537m-7.098 4.024c1.355 0 2.464 1.126 2.464 2.51 0 1.378-1.109 2.493-2.464 2.493-1.361 0-2.463-1.115-2.463-2.493 0-1.384 1.102-2.51 2.463-2.51m22.136 10.005v5.828c0 4.52-3.83 8.323-8.199 8.323h-13.11c-3.591 0-6.564 3.074-6.564 6.67v12.498c0 3.557 3.094 5.65 6.564 6.67 4.155 1.222 8.139 1.443 13.11 0 3.304-.957 6.562-2.882 6.562-6.67v-5.002h-13.11v-1.668H83.64c3.815 0 5.236-2.66 6.562-6.653 1.37-4.112 1.312-8.066 0-13.34-.942-3.798-2.742-6.656-6.562-6.656zM71.34 92.42c1.36 0 2.462 1.116 2.462 2.495 0 1.383-1.102 2.507-2.462 2.507-1.356 0-2.463-1.124-2.463-2.507 0-1.379 1.107-2.495 2.463-2.495" style="fill:#99a1a3;fill-opacity:1;stroke:none;stroke-width:.489542"/>
</svg>
