<svg xmlns="http://www.w3.org/2000/svg" xml:space="preserve" width="128" height="128" viewBox="0 0 128 128">
    <path d="M30 12.451c-3.324 0-6 2.676-6 6v92.002c0 3.324 2.676 6 6 6h68c3.324 0 6-2.676 6-6V42.984L80.957 12.998h1.115l-.42-.547z" style="fill:#673398;fill-opacity:1;fill-rule:evenodd;stroke-width:1.34773"/>
    <path d="M30 11.548c-3.324 0-6 2.676-6 6v92c0 3.324 2.676 6 6 6h68c3.324 0 6-2.676 6-6V41.534L80.957 11.548Z" style="fill:#f3edf9;fill-opacity:1;fill-rule:evenodd;stroke-width:1.34773"/>
    <path d="M30 12.999a4.507 4.507 0 0 0-4.549 4.549v92A4.507 4.507 0 0 0 30 114.097h68a4.507 4.507 0 0 0 4.549-4.55v-69.9L82.072 12.999Z" style="fill:#dccaee;fill-opacity:1;fill-rule:evenodd;stroke-width:1.34773"/>
    <path d="M80.957 11.548v24.89c0 3.324 2.676 6 6 6H104v-.904z" style="fill:#673398;fill-opacity:1;fill-rule:evenodd;stroke-width:1.4"/>
    <path d="M104 41.534 80.957 11.548v23.986c0 3.324 2.676 6 6 6z" style="fill:#b68fda;fill-opacity:1;fill-rule:evenodd;stroke-width:1.4"/>
    <path fill="#673398" d="M64.335 55.02h.191l-.604.06c3.76.02 7.527.936 10.826 2.757 4.278 2.333 7.758 6.102 9.727 10.563 1.287 2.91 1.966 6.099 1.898 9.285.018 5.17-1.922 10.298-5.258 14.237-4.818.61-9.807.98-14.554-.282-2.816-.7-5.32-2.516-6.922-4.928-1.628-2.882-1.071-6.87 1.397-9.11 1.718-1.558 4.198-2.226 6.466-1.72 2.008.41 3.791 1.719 4.82 3.486 1.007-.529 2.005-1.07 3.013-1.597-.71-1.194-1.586-2.303-2.68-3.167-1.842-1.458-4.177-2.249-6.517-2.314a10.84 10.84 0 0 0-6.274 1.905c-3.71 2.522-5.545 7.524-4.262 11.834.819 2.924 2.967 5.327 5.474 6.957 1.994 1.281 4.303 1.976 6.619 2.395 3.182.563 6.43.356 9.63.083-.32.33-.804.311-1.226.387-3.415.506-6.936.523-10.31-.27-3.238-.75-6.32-2.346-8.62-4.772-3.379-3.648-4.17-9.579-1.515-13.85 1.386-2.274 3.42-4.229 5.95-5.158 2.76-1.03 5.906-1.02 8.652.055.452-1.047.944-2.077 1.387-3.127-4.53-1.852-9.942-1.372-14.056 1.288-2.252 1.457-4.105 3.494-5.453 5.806-1.502 2.66-1.988 5.833-1.53 8.838.607 4.054 2.822 7.848 6.069 10.351 1.58 1.248 3.446 2.088 5.367 2.655 2.483.738 5.074 1.06 7.66 1.118.365.006.732.021 1.097.067-.52.27-1.123.188-1.687.205-3.071.063-6.166-.414-9.046-1.49-2.191-.824-4.26-2.056-5.884-3.756-1.706-1.694-3.14-3.698-3.97-5.964-.977-2.683-1.282-5.633-.76-8.446.635-3.347 2.546-6.356 5.048-8.628 3.002-2.742 7.065-4.3 11.133-4.232.002-1.15-.001-2.301.003-3.45-3.511 0-7.023.918-10.059 2.69-4.012 2.333-7.164 6.082-8.837 10.405-1.228 3.239-1.687 6.847-.853 10.241.954 4.145 3.587 7.834 7.112 10.193.55.403 1.178.683 1.717 1.102-.249-.016-.502-.046-.726-.165-1.136-.543-2.198-1.23-3.207-1.982-1.816-1.373-3.529-2.927-4.828-4.81-1.625-2.256-2.906-4.782-3.615-7.48-.672-2.495-.825-5.105-.647-7.675.428-5.511 3.024-10.809 7.09-14.55 3.308-3.075 7.563-5.115 12.04-5.738 1.163-.187 2.345-.17 3.514-.301" style="stroke-width:.148143"/>
</svg>
