<svg xmlns="http://www.w3.org/2000/svg" xmlns:xlink="http://www.w3.org/1999/xlink" xml:space="preserve" width="128" height="128" viewBox="0 0 128 128">
    <defs>
        <linearGradient id="a">
            <stop offset="0" style="stop-color:#fafafa;stop-opacity:1"/>
            <stop offset="1" style="stop-color:#fff;stop-opacity:1"/>
        </linearGradient>
        <linearGradient xlink:href="#a" id="b" x1="64" x2="64" y1="115.548" y2="11.548" gradientUnits="userSpaceOnUse"/>
    </defs>
    <path d="M30 12.451c-3.324 0-6 2.676-6 6v92.002c0 3.324 2.676 6 6 6h68c3.324 0 6-2.676 6-6V42.984L80.957 12.998h1.115l-.42-.547z" style="fill:#999;fill-opacity:1;fill-rule:evenodd;stroke-width:1.34773"/>
    <path d="M30 11.548c-3.324 0-6 2.676-6 6v92c0 3.324 2.676 6 6 6h68c3.324 0 6-2.676 6-6V41.534L80.957 11.548Z" style="fill:url(#b);fill-opacity:1;fill-rule:evenodd;stroke-width:1.34773"/>
    <path d="M30 12.999a4.507 4.507 0 0 0-4.549 4.549v92A4.507 4.507 0 0 0 30 114.097h68a4.507 4.507 0 0 0 4.549-4.55v-69.9L82.072 12.999Z" style="fill:#ececec;fill-opacity:1;fill-rule:evenodd;stroke-width:1.34773"/>
    <path d="M80.957 11.548v24.89c0 3.324 2.676 6 6 6H104v-.904z" style="fill:#787878;fill-opacity:1;fill-rule:evenodd;stroke-width:1.4"/>
    <path d="M104 41.534 80.957 11.548v23.986c0 3.324 2.676 6 6 6z" style="fill:#dedede;fill-opacity:1;fill-rule:evenodd;stroke-width:1.4"/>
    <path fill="#d10" d="m-86.01 87.262-7.178-8.241 7.178-8.242-10.634-2.126 1.063-10.9-9.836 4.253-5.583-9.304-5.583 9.304-9.836-4.253 1.063 10.9-10.634 2.126 7.178 8.242-7.178 8.241 10.634 2.127-1.063 10.9 9.836-4.254 5.583 9.305 5.583-9.305 9.836 4.254-1.063-10.9" style="fill:#eb232d;fill-opacity:1;stroke-width:.265851" transform="translate(175)"/>
    <text xml:space="preserve" x="-117.879" y="96.09" style="font-weight:700;font-size:40.4434px;font-family:&quot;Liberation Sans&quot;;-inkscape-font-specification:&quot;Liberation Sans Bold&quot;;text-align:start;writing-mode:lr-tb;direction:ltr;text-anchor:start;fill:#ececec;fill-opacity:1;stroke-width:25.2772" transform="matrix(1.04658 0 0 .9555 175 0)"><tspan x="-117.879" y="96.09" style="fill:#ececec;fill-opacity:1;stroke-width:25.2772">=</tspan></text>
</svg>
