<svg xmlns="http://www.w3.org/2000/svg" xmlns:xlink="http://www.w3.org/1999/xlink" xml:space="preserve" width="128" height="128" viewBox="0 0 128 128">
    <defs>
        <linearGradient id="b">
            <stop offset="0" style="stop-color:#82adf1;stop-opacity:1"/>
            <stop offset="1" style="stop-color:#d3e0f5;stop-opacity:1"/>
        </linearGradient>
        <linearGradient id="a">
            <stop offset="0" style="stop-color:#659cef;stop-opacity:1"/>
            <stop offset="1" style="stop-color:#4177d7;stop-opacity:1"/>
        </linearGradient>
        <linearGradient xlink:href="#a" id="d" x1="64" x2="65.75" y1="119.648" y2="44.773" gradientTransform="translate(-4.694 -19.155)scale(1.07334)" gradientUnits="userSpaceOnUse"/>
        <linearGradient xlink:href="#b" id="c" x1="64" x2="64" y1="115.548" y2="35.548" gradientTransform="translate(-4.694 -19.155)scale(1.07334)" gradientUnits="userSpaceOnUse"/>
        <filter id="e" width="1.059" height="1.05" x="-.029" y="-.025" style="color-interpolation-filters:sRGB">
            <feGaussianBlur stdDeviation=".702"/>
        </filter>
    </defs>
    <g transform="translate(-13.385 -11.474)scale(1.20914)">
        <rect width="85.867" height="85.867" x="21.067" y="19.972" rx="14.219" ry="14.219" style="fill:#1450ab;fill-opacity:1;fill-rule:evenodd;stroke:none;stroke-width:5.02897"/>
        <rect width="85.867" height="85.867" x="21.067" y="19" rx="14.219" ry="14.219" style="fill:url(#c);fill-rule:evenodd;stroke:none;stroke-width:5.02897"/>
        <path d="M35.285 21.85c-6.869 0-12.34 5.47-12.34 12.34v57.43a12.27 12.27 0 0 0 12.34 12.339h57.43c6.869 0 12.34-5.47 12.34-12.34V34.19c0-6.869-5.471-12.34-12.34-12.34z" style="fill:url(#d);fill-opacity:1;fill-rule:evenodd;stroke:none;stroke-width:5.02897" transform="translate(-.177 -1.148)"/>
        <path d="M60.795 98.793c-.243-.066-.298-.117-.824-.768l-1.34-1.658c-.427-.53-.457-.56-.616-.639l-.134-.066-.581-.012a15 15 0 0 1-1.954-.148 2 2 0 0 0-.403-.033.9.9 0 0 0-.332.117c-.046.032-.728.659-1.05.965l-.88.826-.448.422c-.229.214-.309.272-.445.32a.9.9 0 0 1-.515 0c-.053-.02-.913-.444-1.91-.941-1.697-.846-1.818-.91-1.904-.997a1 1 0 0 1-.153-.218c-.091-.184-.093-.265-.019-.96.337-3.148.323-2.959.23-3.166-.044-.099-.102-.167-.418-.491-.42-.431-.835-.907-1.144-1.31-.338-.441-.351-.456-.451-.526-.193-.135-.122-.129-2-.188a77 77 0 0 1-1.815-.069.8.8 0 0 1-.598-.41c-.02-.042-.326-.939-.68-1.994-.693-2.063-.69-2.055-.642-2.262a.9.9 0 0 1 .156-.328 6 6 0 0 1 .43-.37l1.984-1.605c.36-.291.433-.362.49-.471.076-.15.085-.235.095-.83.013-.75.046-1.184.145-1.887.049-.35.043-.45-.036-.623-.049-.107-.082-.15-.253-.332l-.601-.641-.38-.405c-.877-.924-1.258-1.346-1.308-1.448a.77.77 0 0 1-.043-.602c.017-.048.408-.844.869-1.768s.869-1.742.906-1.819a.81.81 0 0 1 .591-.454c.097-.016.2-.01.72.046l2.832.298a.8.8 0 0 0 .38-.075c.099-.046.17-.106.445-.375a14.5 14.5 0 0 1 1.633-1.4c.205-.15.315-.306.356-.507.01-.047.041-.845.07-1.774s.061-1.74.072-1.802a.77.77 0 0 1 .382-.543c.087-.046.973-.348 3.525-1.202a4 4 0 0 1 .52-.15.8.8 0 0 1 .58.187c.051.045.209.235.771.932l1.166 1.443c.306.38.387.46.537.53l.127.059.563.012a15 15 0 0 1 1.952.149c.203.029.35.041.409.035a.9.9 0 0 0 .353-.13c.038-.026.385-.344.771-.706l1.317-1.234c.58-.548.621-.577.864-.616.247-.04.186-.066 2.226.947 1.484.737 1.857.93 1.925.992a.8.8 0 0 1 .246.414c.034.152.058-.126-.205 2.353-.154 1.46-.153 1.426-.05 1.638a.9.9 0 0 0 .176.229c.53.52 1.218 1.31 1.605 1.848a.8.8 0 0 0 .46.334c.062.017.588.04 1.769.077.924.029 1.738.06 1.808.069a.78.78 0 0 1 .562.356c.069.116 1.35 3.92 1.368 4.064a.8.8 0 0 1-.223.626c-.051.05-.244.212-.428.36-2.391 1.929-2.331 1.879-2.409 2.011-.084.143-.095.229-.105.794-.014.745-.052 1.26-.143 1.9a5 5 0 0 0-.043.37c0 .107.049.27.11.37.047.074.608.686 1.351 1.474 1.018 1.077 1.089 1.156 1.152 1.284.075.153.1.3.077.46-.014.11-.102.295-.935 1.975-.855 1.724-.927 1.861-1.022 1.965a.75.75 0 0 1-.436.24c-.095.016-.191.01-.64-.037l-1.751-.185c-1.358-.144-1.356-.144-1.559-.044-.089.044-.176.119-.433.371-.53.521-.999.928-1.512 1.312a3 3 0 0 0-.3.247.8.8 0 0 0-.171.322c-.011.044-.045.836-.079 1.845-.065 1.944-.057 1.857-.182 2.05a.7.7 0 0 1-.26.247c-.07.042-3.64 1.253-3.912 1.328a.76.76 0 0 1-.4.006zm-2.722-11.706a5.8 5.8 0 0 0 2.815-1.22 7.5 7.5 0 0 0 .838-.839 5.9 5.9 0 0 0 1.166-2.466c.088-.431.106-.622.106-1.149s-.018-.718-.106-1.148a5.8 5.8 0 0 0-1.108-2.397 7.4 7.4 0 0 0-.958-.957 5.85 5.85 0 0 0-2.973-1.208 7.5 7.5 0 0 0-1.134 0 5.8 5.8 0 0 0-2.065.617 5.6 5.6 0 0 0-2.136 1.912 5.8 5.8 0 0 0-.922 2.46c-.044.3-.043 1.122.001 1.434q.181 1.289.837 2.332a5.79 5.79 0 0 0 4.241 2.655 7.5 7.5 0 0 0 1.399-.026zM78.981 74.44a.64.64 0 0 1-.379-.324c-.022-.05-.243-.636-.491-1.302a88 88 0 0 0-.47-1.249.6.6 0 0 0-.199-.214 4 4 0 0 0-.398-.156 11 11 0 0 1-1.388-.58l-.29-.143h-.317l-.607.28c-.657.302-1.56.715-1.785.817a.54.54 0 0 1-.308.064c-.28 0-.2.067-1.514-1.253-.897-.9-1.163-1.176-1.196-1.245-.037-.075-.043-.113-.043-.255v-.167l.313-.684.647-1.41.2-.44v-.318l-.178-.368a10.4 10.4 0 0 1-.569-1.38c-.1-.294-.16-.4-.279-.482-.038-.027-.614-.25-1.298-.505a82 82 0 0 1-1.315-.496.66.66 0 0 1-.286-.28l-.05-.093v-1.698c0-1.697 0-1.698.038-1.779a.7.7 0 0 1 .242-.27c.04-.023.636-.252 1.325-.509.689-.256 1.27-.475 1.29-.486a.8.8 0 0 0 .21-.2c.019-.032.083-.2.142-.372.173-.506.311-.84.565-1.366l.164-.34-.001-.158-.002-.158-.185-.405-.727-1.583c-.251-.546-.26-.573-.252-.73.015-.253-.033-.197 1.235-1.466a49 49 0 0 1 1.204-1.181.63.63 0 0 1 .379-.09c.102.01.266.08 1.119.472.994.459 1.507.685 1.587.701.14.028.243 0 .533-.142.508-.25.893-.41 1.388-.58.36-.123.42-.151.506-.241.09-.094.109-.138.337-.754.526-1.42.703-1.888.736-1.953a.6.6 0 0 1 .37-.298c.086-.025.272-.028 1.731-.023l1.635.005.118.058a.6.6 0 0 1 .268.25c.013.025.227.59.474 1.258.508 1.367.492 1.327.56 1.412.088.111.176.158.499.269.45.154.874.327 1.308.536.208.1.418.191.467.202.16.035.23.012.87-.283 1.301-.599 1.895-.864 1.971-.88a.7.7 0 0 1 .183-.009c.213.027.192.01 1.423 1.238a46 46 0 0 1 1.182 1.202.63.63 0 0 1 .09.378c-.007.09-.042.182-.184.494-.285.626-.638 1.397-.811 1.773-.175.379-.204.482-.176.63.01.051.095.252.191.452.248.515.41.912.565 1.381.031.097.073.208.092.246a.7.7 0 0 0 .242.255c.053.028.63.245 2.178.82.497.184.569.232.67.447l.046.097.004 1.636c.005 1.597.004 1.639-.03 1.753a.64.64 0 0 1-.253.33c-.032.02-.528.21-1.103.424-1.457.542-1.46.543-1.54.59a.6.6 0 0 0-.21.218 4 4 0 0 0-.106.293c-.16.483-.321.874-.584 1.419-.163.34-.167.35-.167.475 0 .097.01.153.043.233.038.09.71 1.565 1.009 2.211.117.255.139.337.124.476-.024.233.009.195-1.256 1.458-.917.915-1.174 1.162-1.244 1.196-.075.035-.114.042-.264.041h-.176l-.308-.143a226 226 0 0 0-1.574-.722l-.52-.24a.5.5 0 0 0-.272-.054l-.159-.001-.369.18a11 11 0 0 1-1.308.54 3 3 0 0 0-.416.169c-.14.095-.173.156-.344.614l-.786 2.11a.74.74 0 0 1-.289.31l-.093.053-1.68.003c-.924.002-1.7-.003-1.724-.01zm2.463-9.295a4.45 4.45 0 0 0 3.489-3.09 4 4 0 0 0 .178-1.285 4 4 0 0 0-.201-1.359 4.46 4.46 0 0 0-3.308-2.994 4.6 4.6 0 0 0-2.155.072 4.45 4.45 0 0 0-3.194 3.83 6.4 6.4 0 0 0 .026 1.11 4.46 4.46 0 0 0 1.329 2.547q1.074 1.03 2.64 1.216c.033.004.26.005.501.002.38-.004.474-.01.695-.05zm-25.391-1.192a.7.7 0 0 1-.295-.186 59 59 0 0 1-.94-1.282 129 129 0 0 0-.947-1.304.74.74 0 0 0-.312-.23 3 3 0 0 0-.447-.05 14 14 0 0 1-1.838-.23c-.236-.047-.337-.06-.431-.054-.223.014-.275.045-.776.465-1.08.905-1.747 1.465-1.888 1.585-.202.172-.326.232-.506.244a.6.6 0 0 1-.244-.02q-.103-.03-1.74-.957c-1.741-.986-1.764-1-1.857-1.183a.8.8 0 0 1-.087-.326c0-.04.111-.76.248-1.6.157-.963.25-1.581.25-1.67.004-.233-.048-.34-.298-.618a11 11 0 0 1-.488-.568c-.228-.283-.483-.63-.704-.954-.207-.305-.266-.366-.427-.441-.11-.051-.113-.052-1.602-.181-1.907-.166-1.8-.154-1.93-.218a.8.8 0 0 1-.316-.29c-.033-.056-.16-.489-.417-1.423l-.5-1.807a9 9 0 0 1-.14-.554.74.74 0 0 1 .214-.574 46 46 0 0 1 1.325-.974c.682-.492 1.278-.93 1.325-.975.163-.156.202-.274.224-.68.035-.645.108-1.233.238-1.913.098-.515.084-.558-.34-1.065l-1.014-1.208c-.662-.786-.781-.934-.824-1.016a.73.73 0 0 1-.002-.635c.025-.049.192-.347.371-.662a854 854 0 0 0 1.346-2.374c.14-.245.205-.325.33-.406.198-.127.34-.134.88-.045 2.103.346 2.687.434 2.815.428.176-.01.319-.076.483-.226a13 13 0 0 1 1.565-1.235c.146-.096.29-.2.322-.23a.8.8 0 0 0 .187-.301c.018-.058.076-.639.168-1.7.153-1.754.146-1.706.271-1.878a.65.65 0 0 1 .254-.212c.042-.02.52-.161 1.064-.311l1.816-.502c.824-.228.827-.229.981-.221.182.01.327.07.444.186.038.038.488.648 1 1.355.564.78.962 1.315 1.014 1.361.142.128.233.153.668.181.7.045 1.25.114 1.839.23.368.073.508.073.664.002.057-.026.26-.183.532-.411l1.24-1.042c.882-.741.927-.772 1.15-.789.215-.016.283.008.736.265.225.129.967.55 1.648.935.785.445 1.269.73 1.323.779.056.05.108.121.149.203.098.2.098.271-.008.918-.468 2.873-.447 2.712-.371 2.915.037.1.077.151.423.545.384.436.711.863 1.052 1.373q.162.243.249.31c.176.14.126.132 1.873.285.871.076 1.613.143 1.648.15a.8.8 0 0 1 .366.2c.112.115.16.22.245.529l.776 2.814c.076.276.144.538.15.581a.74.74 0 0 1-.217.584c-.045.044-.64.481-1.323.973-.682.49-1.278.93-1.324.974a.8.8 0 0 0-.138.19c-.062.123-.073.206-.104.718-.032.542-.09.994-.213 1.642-.066.349-.07.383-.05.49.034.202.03.196.66.947l.783.932c.828.984.795.939.837 1.137a.6.6 0 0 1 .007.251c-.023.146-.027.154-.37.758-.44.773-.796 1.403-1.17 2.066-.389.69-.454.778-.65.872-.203.096-.212.095-1.944-.185-1.728-.279-1.717-.278-1.918-.183a1.2 1.2 0 0 0-.255.183c-.515.47-.98.836-1.561 1.229-.162.11-.323.232-.357.272a.8.8 0 0 0-.157.311 125 125 0 0 0-.15 1.655c-.151 1.735-.145 1.689-.271 1.86a.65.65 0 0 1-.252.212c-.04.02-.764.228-1.61.46l-1.815.502c-.322.09-.45.099-.615.042m-1.492-10.897a5.3 5.3 0 0 0 3.055-1.495c1.08-1.074 1.663-2.636 1.538-4.117-.132-1.575-.904-2.961-2.158-3.879a5.35 5.35 0 0 0-2.476-.978 6.2 6.2 0 0 0-1.25 0 5.4 5.4 0 0 0-1.767.54 4.8 4.8 0 0 0-1.32.948 5.28 5.28 0 0 0-1.55 3.279c-.043.467 0 1.114.107 1.594a5.28 5.28 0 0 0 3.238 3.788c.454.179.979.301 1.484.347.23.02.865.005 1.1-.027" style="fill:#1861cf;fill-opacity:1;stroke-width:.0175918;filter:url(#e)" transform="translate(8.393 8.246)scale(.87283)"/>
        <path d="M61.457 92.73c-.213-.058-.26-.102-.72-.67l-1.169-1.448c-.373-.462-.399-.488-.537-.557l-.117-.058-.508-.01a13 13 0 0 1-1.705-.13 2 2 0 0 0-.352-.029.8.8 0 0 0-.29.103c-.04.027-.635.574-.916.842l-.768.721-.392.368c-.199.187-.269.237-.388.28a.77.77 0 0 1-.449 0c-.047-.018-.797-.388-1.667-.822-1.481-.739-1.587-.794-1.662-.87a1 1 0 0 1-.134-.19c-.08-.161-.08-.231-.016-.838.294-2.748.282-2.583.2-2.764-.038-.086-.088-.145-.364-.428a14 14 0 0 1-.999-1.143c-.295-.386-.307-.399-.394-.46-.168-.118-.106-.112-1.746-.164a68 68 0 0 1-1.583-.06.7.7 0 0 1-.522-.358c-.018-.037-.285-.82-.594-1.74-.605-1.8-.603-1.794-.56-1.975a.8.8 0 0 1 .136-.286 5 5 0 0 1 .376-.323l1.73-1.4c.315-.255.38-.317.428-.412.067-.13.075-.205.084-.725.011-.654.04-1.033.126-1.646.043-.307.038-.393-.031-.544-.043-.094-.072-.131-.22-.29-.17-.179-.309-.327-.526-.56l-.331-.353c-.766-.807-1.098-1.174-1.142-1.264a.68.68 0 0 1-.037-.525c.014-.042.355-.737.758-1.543l.791-1.588a.7.7 0 0 1 .516-.396c.084-.014.174-.009.628.04l2.472.26a.7.7 0 0 0 .332-.065c.086-.04.147-.093.388-.328.5-.49.96-.885 1.425-1.222.18-.13.275-.267.311-.443.008-.04.036-.737.061-1.548.026-.81.054-1.518.063-1.573a.67.67 0 0 1 .333-.473c.076-.04.85-.304 3.077-1.05.2-.067.403-.125.454-.13a.7.7 0 0 1 .506.163c.045.04.182.205.673.813l1.018 1.26c.267.33.338.401.468.462l.111.051.492.011c.709.016 1.13.048 1.704.13.176.025.305.036.357.03a.8.8 0 0 0 .307-.113c.034-.023.337-.3.674-.616l1.149-1.077c.507-.479.542-.504.754-.538.216-.035.163-.057 1.943.827 1.296.644 1.62.811 1.68.865.11.102.185.227.216.362.029.132.05-.11-.18 2.054-.135 1.274-.134 1.244-.044 1.43.03.06.082.13.154.2a14.5 14.5 0 0 1 1.4 1.612.7.7 0 0 0 .403.292c.054.015.513.034 1.543.067a68 68 0 0 1 1.58.06.68.68 0 0 1 .49.311c.06.101 1.178 3.422 1.193 3.547a.7.7 0 0 1-.194.546 8 8 0 0 1-.374.315c-2.087 1.684-2.034 1.64-2.102 1.755-.074.125-.084.2-.093.693-.011.65-.045 1.1-.124 1.66-.02.144-.038.29-.038.322 0 .093.043.235.097.322.04.065.53.6 1.179 1.287.888.94.95 1.009 1.005 1.12a.67.67 0 0 1 .068.403c-.013.095-.09.257-.817 1.723-.746 1.505-.808 1.625-.891 1.715a.65.65 0 0 1-.381.21c-.084.014-.167.009-.559-.033l-1.528-.161c-1.186-.125-1.184-.125-1.36-.038-.079.038-.155.103-.379.324-.462.454-.872.81-1.32 1.145-.112.084-.23.18-.261.215a.7.7 0 0 0-.15.281c-.01.038-.039.73-.068 1.61-.057 1.697-.05 1.622-.16 1.79a.6.6 0 0 1-.227.216c-.061.036-3.176 1.093-3.414 1.159a.66.66 0 0 1-.35.005m-2.376-10.217a5.1 5.1 0 0 0 2.457-1.066 6.5 6.5 0 0 0 .732-.732 5.2 5.2 0 0 0 1.017-2.152c.077-.377.093-.543.093-1.003s-.016-.626-.093-1.002a5.05 5.05 0 0 0-.967-2.092 6.4 6.4 0 0 0-.836-.836 5.1 5.1 0 0 0-2.595-1.054 6.5 6.5 0 0 0-.99 0 5.1 5.1 0 0 0-1.802.539 4.9 4.9 0 0 0-1.864 1.669 5.1 5.1 0 0 0-.805 2.147c-.038.261-.038.98 0 1.251q.16 1.124.731 2.036a5.05 5.05 0 0 0 3.702 2.317c.287.033.938.02 1.22-.022m18.25-11.04A.56.56 0 0 1 77 71.19a69 69 0 0 1-.43-1.136 58 58 0 0 0-.41-1.09.5.5 0 0 0-.173-.187 3 3 0 0 0-.348-.136 9.4 9.4 0 0 1-1.21-.506l-.254-.126h-.277l-.53.244c-.573.264-1.361.625-1.558.714a.47.47 0 0 1-.268.056c-.245 0-.174.058-1.322-1.093-.783-.787-1.015-1.028-1.044-1.087-.032-.065-.037-.1-.037-.223v-.146l.273-.596.565-1.231.175-.384v-.278l-.156-.321a9 9 0 0 1-.497-1.205c-.086-.257-.14-.35-.243-.42a23 23 0 0 0-1.133-.441c-.59-.22-1.107-.414-1.148-.433a.57.57 0 0 1-.25-.244l-.043-.082v-1.482c0-1.48 0-1.482.033-1.552a.6.6 0 0 1 .211-.237c.035-.02.555-.22 1.156-.443a77 77 0 0 0 1.126-.425.7.7 0 0 0 .183-.175 3 3 0 0 0 .125-.324 9.5 9.5 0 0 1 .493-1.193l.143-.296-.001-.138-.001-.138-.162-.353-.635-1.382c-.219-.477-.227-.5-.22-.638.013-.22-.029-.17 1.079-1.279a43 43 0 0 1 1.05-1.03.55.55 0 0 1 .331-.08c.09.01.232.07.977.413.867.4 1.315.598 1.385.612.122.024.212 0 .465-.124.443-.218.78-.358 1.212-.506.314-.107.366-.133.441-.211.078-.082.095-.12.295-.658.459-1.239.613-1.648.642-1.704a.54.54 0 0 1 .322-.26c.076-.023.238-.025 1.512-.021l1.427.004.103.05c.1.05.189.134.234.22.011.021.198.515.414 1.098.443 1.193.43 1.158.488 1.231.077.098.154.14.436.235.393.135.763.286 1.142.469.181.087.365.166.407.176.14.03.2.01.76-.247 1.135-.523 1.654-.755 1.72-.769a.6.6 0 0 1 .16-.007c.185.023.167.008 1.242 1.08a42 42 0 0 1 1.032 1.05c.058.09.089.22.079.33-.008.077-.038.159-.162.43-.249.547-.557 1.22-.708 1.548-.153.331-.178.42-.153.55.008.045.082.22.166.395.217.45.359.796.493 1.205.028.085.064.181.08.215a.6.6 0 0 0 .212.222c.047.025.55.214 1.902.716.433.16.495.202.584.39l.04.085.004 1.428c.004 1.394.003 1.43-.027 1.53a.56.56 0 0 1-.22.288 26 26 0 0 1-.963.37c-1.272.473-1.274.474-1.345.515a.5.5 0 0 0-.182.19 3 3 0 0 0-.093.256c-.14.422-.28.763-.51 1.238-.142.297-.146.306-.146.415a.5.5 0 0 0 .038.203c.033.079.62 1.366.88 1.93.103.223.122.295.11.416-.022.203.006.17-1.098 1.272-.8.8-1.024 1.015-1.085 1.044-.066.031-.1.037-.23.036h-.154l-.269-.125a199 199 0 0 0-1.374-.63l-.453-.21a.43.43 0 0 0-.238-.047h-.139l-.322.156a10 10 0 0 1-1.142.473 2.4 2.4 0 0 0-.363.146c-.121.084-.151.137-.3.536l-.686 1.842a.65.65 0 0 1-.252.271l-.082.046-1.466.002a49 49 0 0 1-1.505-.009zm2.149-8.113a3.89 3.89 0 0 0 3.045-2.698c.115-.381.156-.675.156-1.12 0-.466-.047-.783-.176-1.187a3.9 3.9 0 0 0-2.887-2.613 4 4 0 0 0-1.88.063 3.88 3.88 0 0 0-2.789 3.343c-.023.23-.01.758.023.97a3.9 3.9 0 0 0 1.16 2.222q.937.899 2.304 1.061c.03.004.226.005.437.002.332-.004.414-.01.607-.044zm-22.162-1.04a.6.6 0 0 1-.258-.163c-.03-.032-.4-.536-.82-1.119a113 113 0 0 0-.827-1.138.65.65 0 0 0-.272-.2 2.4 2.4 0 0 0-.39-.045 12 12 0 0 1-1.604-.2c-.206-.041-.294-.053-.377-.047-.194.012-.24.04-.677.406a575 575 0 0 0-1.647 1.383c-.177.15-.286.203-.442.213a.6.6 0 0 1-.213-.018q-.09-.025-1.52-.835c-1.52-.86-1.539-.873-1.62-1.032a.7.7 0 0 1-.076-.284c0-.035.097-.664.217-1.398.136-.84.217-1.38.218-1.457.003-.203-.042-.297-.26-.539a9 9 0 0 1-.426-.496 14 14 0 0 1-.614-.833c-.181-.266-.233-.319-.373-.385-.096-.045-.099-.045-1.398-.158-1.665-.145-1.572-.134-1.686-.19a.7.7 0 0 1-.275-.253c-.029-.05-.14-.427-.364-1.242l-.436-1.578a8 8 0 0 1-.122-.483.64.64 0 0 1 .186-.5c.04-.04.561-.422 1.156-.851a42 42 0 0 0 1.157-.85c.143-.137.177-.24.196-.594.03-.564.094-1.077.207-1.67.086-.45.074-.487-.297-.93l-.885-1.054c-.577-.686-.681-.815-.718-.887a.64.64 0 0 1-.002-.554c.022-.043.167-.303.323-.578l1.176-2.072c.12-.214.178-.284.288-.355.172-.11.296-.117.767-.04 1.836.303 2.346.38 2.458.375.153-.009.277-.067.42-.198.458-.418.902-.768 1.367-1.077a4 4 0 0 0 .282-.201.7.7 0 0 0 .162-.263c.016-.05.066-.558.147-1.484.133-1.53.127-1.49.237-1.639a.6.6 0 0 1 .221-.185c.036-.018.455-.14.93-.272.474-.13 1.187-.328 1.584-.438.72-.199.722-.2.856-.193a.57.57 0 0 1 .387.162c.034.034.427.566.873 1.183.493.682.84 1.148.885 1.189.125.112.204.133.584.158.61.04 1.09.1 1.605.2.32.064.443.064.58.002.049-.023.226-.16.464-.36l1.082-.908c.77-.647.81-.674 1.003-.689.189-.014.248.007.643.232l1.438.816c.686.388 1.108.637 1.156.68a.6.6 0 0 1 .129.177c.086.174.086.236-.006.8-.409 2.509-.391 2.368-.325 2.545.033.087.068.132.37.476.335.38.62.754.918 1.198.095.143.166.23.217.272.154.12.11.114 1.636.248.76.066 1.407.125 1.438.13a.7.7 0 0 1 .32.175c.097.1.139.191.213.461l.677 2.457c.067.24.126.47.131.507a.65.65 0 0 1-.19.51c-.039.038-.558.42-1.154.849a41 41 0 0 0-1.156.85.7.7 0 0 0-.12.166c-.054.108-.064.18-.09.627-.028.473-.08.867-.187 1.433-.057.304-.06.334-.044.428.03.176.027.17.577.826l.683.814c.723.858.694.819.73.992.02.093.021.132.007.22-.02.127-.024.134-.323.66-.384.675-.695 1.225-1.021 1.804-.34.603-.397.68-.568.761-.177.084-.185.083-1.697-.161-1.507-.244-1.498-.243-1.673-.16-.06.029-.149.092-.223.16-.45.41-.855.729-1.363 1.072a2.5 2.5 0 0 0-.311.238.7.7 0 0 0-.137.271c-.005.03-.064.68-.131 1.445-.132 1.514-.127 1.474-.237 1.624a.6.6 0 0 1-.22.184c-.035.018-.667.2-1.404.402l-1.585.438c-.281.079-.392.086-.536.037zm-1.302-9.512a4.6 4.6 0 0 0 2.666-1.305c.943-.937 1.452-2.3 1.343-3.593a4.62 4.62 0 0 0-1.884-3.386 4.7 4.7 0 0 0-2.161-.853 5.4 5.4 0 0 0-1.09 0c-.567.076-1.04.22-1.543.471a4.2 4.2 0 0 0-1.153.828 4.6 4.6 0 0 0-1.352 2.861c-.038.408 0 .973.093 1.392a4.6 4.6 0 0 0 2.826 3.306c.397.156.854.263 1.296.303.2.018.754.004.96-.024" style="fill:#fff;fill-opacity:1;stroke-width:.0153547"/>
    </g>
</svg>
