<svg xmlns="http://www.w3.org/2000/svg" xml:space="preserve" width="128" height="128" viewBox="0 0 128 128">
    <path d="M30 12.451c-3.324 0-6 2.676-6 6v92.002c0 3.324 2.676 6 6 6h68c3.324 0 6-2.676 6-6V42.984L80.957 12.998h1.115l-.42-.547z" style="fill:#8c1910;fill-opacity:1;fill-rule:evenodd;stroke-width:1.34773"/>
    <path d="M30 11.548c-3.324 0-6 2.676-6 6v92c0 3.324 2.676 6 6 6h68c3.324 0 6-2.676 6-6V41.534L80.957 11.548Z" style="fill:#ffd1ce;fill-opacity:1;fill-rule:evenodd;stroke-width:1.34773"/>
    <path d="M30 12.999a4.507 4.507 0 0 0-4.549 4.549v92A4.507 4.507 0 0 0 30 114.097h68a4.507 4.507 0 0 0 4.549-4.55v-69.9L82.072 12.999Z" style="fill:#e84133;fill-opacity:1;fill-rule:evenodd;stroke-width:1.34773"/>
    <path d="M80.957 11.548v24.89c0 3.324 2.676 6 6 6H104v-.904z" style="fill:#8c1910;fill-opacity:1;fill-rule:evenodd;stroke-width:1.4"/>
    <path d="M104 41.534 80.957 11.548v23.986c0 3.324 2.676 6 6 6z" style="fill:#ffa59e;fill-opacity:1;fill-rule:evenodd;stroke-width:1.4"/>
    <path fill="#fff" d="M68.388 60.588s-.502-2.938-.84-4.027c2.267-2.189 2.605-2.52 4.788-4.619.17 4.196.085 6.379-.17 11.506-1.257-1.264-3.778-2.86-3.778-2.86m-9.825 14.444s-2.352-1.426-4.118-1.674c.508-1.18 1.85-2.69 2.19-3.108-.678.248-5.545 2.43-6.053 4.28 1.378.34 2.726.788 4.033 1.343a12.75 12.75 0 0 0-3.108 7.14s7.727-1.179 13.526-.423c.1.06.215.089.332.085l3.023.085 9.603 15.988.079.124q-.018.011-.026.013c-18.113 6.548-31.202-5.506-33.997-9.72a1 1 0 0 0 .026-.112c2.515-10.633 5.616-23.357 10.626-27.116 2.606-4.542 3.362-11.259 8.06-14.784 1.179 3.525 3.03 10.835 4.287 14.36 5.544 5.545 13.942 12.431 19.565 15.285.587.339 1.342 2.69 1.342 2.69l-2.267 2.855-24.185-2.437a19 19 0 0 0-1.622-.065c-1.68.023-3.356.185-5.01.482 1.172-2.939 3.694-5.29 3.694-5.29m7.812-3.107c1.342-.163 2.769.338 4.365 1.264 1.511-.424 1.68-.509 3.192-.926-1.935-1.426-4.033-2.938-6.886-2.521q-.41 1.067-.671 2.183" style="fill:#ffd1ce;fill-opacity:1;fill-rule:evenodd;stroke:none;stroke-width:.331687"/>
</svg>
