<svg xmlns="http://www.w3.org/2000/svg" xmlns:xlink="http://www.w3.org/1999/xlink" xml:space="preserve" width="128" height="128" viewBox="0 0 128 128">
    <defs>
        <linearGradient id="a">
            <stop offset="0" style="stop-color:#fafafa;stop-opacity:1"/>
            <stop offset="1" style="stop-color:#fff;stop-opacity:1"/>
        </linearGradient>
        <linearGradient xlink:href="#a" id="b" x1="64" x2="64" y1="115.548" y2="11.548" gradientUnits="userSpaceOnUse"/>
    </defs>
    <path d="M30 12.451c-3.324 0-6 2.676-6 6v92.002c0 3.324 2.676 6 6 6h68c3.324 0 6-2.676 6-6V42.984L80.957 12.998h1.115l-.42-.547z" style="fill:#999;fill-opacity:1;fill-rule:evenodd;stroke-width:1.34773"/>
    <path d="M30 11.548c-3.324 0-6 2.676-6 6v92c0 3.324 2.676 6 6 6h68c3.324 0 6-2.676 6-6V41.534L80.957 11.548Z" style="fill:url(#b);fill-opacity:1;fill-rule:evenodd;stroke-width:1.34773"/>
    <path d="M30 12.999a4.507 4.507 0 0 0-4.549 4.549v92A4.507 4.507 0 0 0 30 114.097h68a4.507 4.507 0 0 0 4.549-4.55v-69.9L82.072 12.999Z" style="fill:#ececec;fill-opacity:1;fill-rule:evenodd;stroke-width:1.34773"/>
    <path d="M80.957 11.548v24.89c0 3.324 2.676 6 6 6H104v-.904z" style="fill:#787878;fill-opacity:1;fill-rule:evenodd;stroke-width:1.4"/>
    <path d="M104 41.534 80.957 11.548v23.986c0 3.324 2.676 6 6 6z" style="fill:#dedede;fill-opacity:1;fill-rule:evenodd;stroke-width:1.4"/>
    <path d="M60.077 84.687h7.846l-1.504-8.435q1.308-.654 2.06-1.896.752-1.243.752-2.747 0-2.158-1.536-3.694T64 66.378t-3.695 1.537-1.536 3.694q0 1.504.752 2.747t2.06 1.896zM64 102.997q-9.09-2.289-15.007-10.43-5.918-8.141-5.918-18.08V58.53L64 50.684l20.925 7.847v15.955q0 9.94-5.918 18.08-5.918 8.142-15.007 10.43" style="fill:#e3752c;fill-opacity:1;stroke-width:.0653906"/>
</svg>
