<svg xmlns="http://www.w3.org/2000/svg" xmlns:xlink="http://www.w3.org/1999/xlink" xml:space="preserve" width="128" height="128" viewBox="0 0 128 128">
    <defs>
        <linearGradient id="e">
            <stop offset="0" style="stop-color:#a47b50;stop-opacity:1"/>
            <stop offset="1" style="stop-color:#c19b74;stop-opacity:1"/>
        </linearGradient>
        <linearGradient id="d">
            <stop offset="0" style="stop-color:#c2a180;stop-opacity:1"/>
            <stop offset="1" style="stop-color:#f2dcc5;stop-opacity:1"/>
        </linearGradient>
        <linearGradient id="c">
            <stop offset="0" style="stop-color:#b28555;stop-opacity:1"/>
            <stop offset="1" style="stop-color:#dac0a6;stop-opacity:1"/>
        </linearGradient>
        <linearGradient id="b">
            <stop offset="0" style="stop-color:#e5c9ae;stop-opacity:1"/>
            <stop offset="1" style="stop-color:#f1e3d5;stop-opacity:1"/>
        </linearGradient>
        <linearGradient id="a">
            <stop offset="0" style="stop-color:#c69463;stop-opacity:1"/>
            <stop offset=".702" style="stop-color:#c5a17d;stop-opacity:1"/>
            <stop offset=".748" style="stop-color:#c59f76;stop-opacity:1"/>
            <stop offset=".929" style="stop-color:#ebded2;stop-opacity:1"/>
            <stop offset="1" style="stop-color:#f2eae2;stop-opacity:1"/>
        </linearGradient>
        <linearGradient xlink:href="#a" id="f" x1="64" x2="64" y1="112.5" y2="7.5" gradientTransform="translate(0 4)" gradientUnits="userSpaceOnUse"/>
        <linearGradient xlink:href="#b" id="i" x1="64" x2="64" y1="40.768" y2="9.622" gradientTransform="matrix(1 0 0 .59526 0 7.895)" gradientUnits="userSpaceOnUse"/>
        <linearGradient xlink:href="#c" id="j" x1="64" x2="64" y1="41.354" y2="9.624" gradientTransform="matrix(.9828 0 0 .59528 1.101 7.894)" gradientUnits="userSpaceOnUse"/>
        <linearGradient xlink:href="#d" id="h" x1="63.999" x2="63.999" y1="30.635" y2="4.259" gradientTransform="translate(0 4)" gradientUnits="userSpaceOnUse"/>
        <linearGradient xlink:href="#e" id="g" x1="64" x2="64" y1="110.377" y2="30.635" gradientTransform="translate(0 6)" gradientUnits="userSpaceOnUse"/>
    </defs>
    <rect width="105" height="105" x="11.5" y="11.5" rx="13" ry="13" style="fill:url(#f);fill-opacity:1"/>
    <path d="M19.623 34.635c-3.324 0-6 2.676-6 6v63.742c0 6.648 5.352 12 12 12h76.754c6.648 0 12-5.352 12-12V40.635c0-3.324-2.676-6-6-6z" style="fill:url(#g);fill-opacity:1;stroke-width:.781906"/>
    <path d="M25.623 13.623c-6.029 0-10.972 4.58-11.844 10.584l-.156 2.305c0 3.324 2.676 6 6 6h88.754a5.984 5.984 0 0 0 5.994-5.875l-.15-2.43c-.872-6.004-5.815-10.584-11.844-10.584z" style="fill:url(#h);fill-opacity:1;stroke-width:.538528"/>
    <path d="M47.656 34.635v16.103l4.998-4.386 5 4.386 5.477-4.808 5.476 4.808 5.868-5.148 5.865 5.148h.004V34.635Z" style="fill:#dec0a4;fill-opacity:1;fill-rule:evenodd;stroke-width:.834683"/>
    <path d="M49.654 13.622h28.69l2 18.89h-32.69Z" style="opacity:.8;fill:url(#i);fill-rule:evenodd;stroke-width:1.54307"/>
    <path d="M62.938 13.622h2.124v18.89h-2.124z" style="opacity:.658994;fill:url(#j);fill-opacity:1;fill-rule:evenodd;stroke-width:.823535"/>
    <path d="M47.654 32.512h32.69v2.123h-32.69z" style="fill:#eedcc9;fill-opacity:1;fill-rule:evenodd;stroke-width:.834738"/>
    <path d="m74.475 45.59-5.868 5.149-5.476-4.809-5.477 4.809-5-4.387-4.998 4.387v1.367l4.998-4.387 5 4.387 5.477-4.808 5.476 4.808 5.868-5.148 5.865 5.148h.004V50.74h-.004z" style="fill:#b1865b;fill-opacity:1;fill-rule:evenodd;stroke-width:.834683"/>
    <path d="m43.03 86.113.024-10.481 4.458.008c4.699.01 5.756.077 7.84.501 5.11 1.042 8.5 3.49 9.166 6.62.675 3.171-1.837 6.068-6.916 7.977-1.826.687-4.304 1.225-6.275 1.365l-.844.06-.025 1.683-.025 1.685-.3.053c-.165.03-1.7.245-3.41.478-1.712.233-3.247.448-3.414.478l-.302.053zm8.132 4.043c.24-.057.853-.303 1.364-.548 1.921-.92 3.324-2.229 4.078-3.806.584-1.218.628-2.362.14-3.666-.56-1.495-2.156-3.12-3.956-4.027-.592-.3-1.772-.665-2.14-.665h-.211v6.407c0 5.738.015 6.408.144 6.408.08 0 .341-.046.58-.103zm-27.37-6.35v-8.219h7.429v.198c0 .173.036.19.301.135 1.744-.359 4.373-.52 5.5-.339a10 10 0 0 1 1.344.33c.736.25 2.044.816 2.043.883 0 .026-.344.252-.764.504-.42.25-1.317.807-1.992 1.235l-1.228.778-.348-.236c-.7-.475-1.448-.656-2.72-.656-.672 0-1.366.053-1.648.126l-.488.125v13.353h-7.429zm45.689-.007v-8.225l14.552.04c14.769.042 15.216.052 17.1.398 1.41.258 2.24.571 2.68 1.013l.395.394v14.607H96.78V77.65l-.394-.17c-.346-.148-.734-.174-3.111-.203l-2.717-.033v14.782H83.13l-.048-14.417-.37-.143c-.296-.113-.932-.15-3.089-.179l-2.717-.036v14.783h-7.429z" style="fill:#534b43;fill-opacity:1;stroke-width:.0928551"/>
</svg>
