<svg xmlns="http://www.w3.org/2000/svg" xmlns:xlink="http://www.w3.org/1999/xlink" xml:space="preserve" width="128" height="128" viewBox="0 0 128 128">
    <defs>
        <linearGradient id="a">
            <stop offset="0" style="stop-color:#fafafa;stop-opacity:1"/>
            <stop offset="1" style="stop-color:#fff;stop-opacity:1"/>
        </linearGradient>
        <linearGradient xlink:href="#a" id="b" x1="64" x2="64" y1="115.548" y2="11.548" gradientUnits="userSpaceOnUse"/>
    </defs>
    <path d="M30 12.451c-3.324 0-6 2.676-6 6v92.002c0 3.324 2.676 6 6 6h68c3.324 0 6-2.676 6-6V42.984L80.957 12.998h1.115l-.42-.547z" style="fill:#999;fill-opacity:1;fill-rule:evenodd;stroke-width:1.34773"/>
    <path d="M30 11.548c-3.324 0-6 2.676-6 6v92c0 3.324 2.676 6 6 6h68c3.324 0 6-2.676 6-6V41.534L80.957 11.548Z" style="fill:url(#b);fill-opacity:1;fill-rule:evenodd;stroke-width:1.34773"/>
    <path d="M30 12.999a4.507 4.507 0 0 0-4.549 4.549v92A4.507 4.507 0 0 0 30 114.097h68a4.507 4.507 0 0 0 4.549-4.55v-69.9L82.072 12.999Z" style="fill:#ececec;fill-opacity:1;fill-rule:evenodd;stroke-width:1.34773"/>
    <path d="M61.175 52.506q-3.931 0-7.396 1.474t-6.061 4.003q-2.598 2.527-4.12 5.944-1.52 3.417-1.52 7.303-.001 3.838 1.474 7.255 1.474 3.418 4.025 5.968 2.55 2.551 5.968 4.026 3.417 1.474 7.256 1.474 2.106 0 3.394-1.123 1.287-1.124 1.287-3.464 0-1.358-.702-2.41-.702-1.054-.702-1.616 0-.28.163-.514.165-.235.585-.235h3.464q4.682 0 7.958-2.878 3.276-2.88 3.277-8.262 0-3.605-1.475-6.717a17 17 0 0 0-3.979-5.383q-2.505-2.271-5.827-3.558-3.324-1.287-7.069-1.287m-5.055 7.49q1.217 0 2.013.795.795.796.795 2.013t-.795 2.013-2.013.795-2.013-.795-.796-2.013.796-2.013 2.013-.796m9.362 0q1.216 0 2.013.795.795.796.795 2.013t-.795 2.013-2.013.795q-1.218 0-2.013-.795-.795-.796-.796-2.013 0-1.217.796-2.013.795-.796 2.013-.796m-14.98 7.489q1.218 0 2.014.796.795.795.795 2.012t-.795 2.013-2.013.796-2.013-.796q-.795-.795-.796-2.013 0-1.217.796-2.012.795-.796 2.013-.796m20.597 0q1.217 0 2.013.796.795.795.795 2.012t-.795 2.013q-.796.796-2.013.796t-2.013-.796-.796-2.013.796-2.012 2.013-.796" style="fill:#cd8c62;fill-opacity:1;stroke-width:.0468095"/>
    <path d="m74.853 94.132-3.838-3.838 12.491-12.491q.384-.384.96-.401t.994.4l1.884 1.885q.42.419.42.977t-.42.977z" style="fill:#5d8cd2;fill-opacity:1;stroke-width:.0348913"/>
    <path d="M66.828 102.506q-1.57 0-3.105-.768-1.535-.767-2.477-2.023.907 0 1.85-.716.941-.715.941-2.076 0-1.744 1.221-2.966 1.222-1.22 2.966-1.22t2.966 1.22 1.221 2.966q0 2.303-1.64 3.943t-3.943 1.64" style="fill:#4d4d4d;stroke-width:.0348913"/>
    <path d="M80.957 11.548v24.89c0 3.324 2.676 6 6 6H104v-.904z" style="fill:#787878;fill-opacity:1;fill-rule:evenodd;stroke-width:1.4"/>
    <path d="M104 41.534 80.957 11.548v23.986c0 3.324 2.676 6 6 6z" style="fill:#dedede;fill-opacity:1;fill-rule:evenodd;stroke-width:1.4"/>
</svg>
