<svg xmlns="http://www.w3.org/2000/svg" xmlns:xlink="http://www.w3.org/1999/xlink" xml:space="preserve" width="128" height="128" viewBox="0 0 128 128">
    <defs>
        <linearGradient id="e">
            <stop offset="0" style="stop-color:#a47b50;stop-opacity:1"/>
            <stop offset="1" style="stop-color:#c19b74;stop-opacity:1"/>
        </linearGradient>
        <linearGradient id="d">
            <stop offset="0" style="stop-color:#c2a180;stop-opacity:1"/>
            <stop offset="1" style="stop-color:#f2dcc5;stop-opacity:1"/>
        </linearGradient>
        <linearGradient id="c">
            <stop offset="0" style="stop-color:#b28555;stop-opacity:1"/>
            <stop offset="1" style="stop-color:#dac0a6;stop-opacity:1"/>
        </linearGradient>
        <linearGradient id="b">
            <stop offset="0" style="stop-color:#e5c9ae;stop-opacity:1"/>
            <stop offset="1" style="stop-color:#f1e3d5;stop-opacity:1"/>
        </linearGradient>
        <linearGradient id="a">
            <stop offset="0" style="stop-color:#c69463;stop-opacity:1"/>
            <stop offset=".702" style="stop-color:#c5a17d;stop-opacity:1"/>
            <stop offset=".748" style="stop-color:#c59f76;stop-opacity:1"/>
            <stop offset=".929" style="stop-color:#ebded2;stop-opacity:1"/>
            <stop offset="1" style="stop-color:#f2eae2;stop-opacity:1"/>
        </linearGradient>
        <linearGradient xlink:href="#a" id="f" x1="64" x2="64" y1="112.5" y2="7.5" gradientTransform="translate(0 4)" gradientUnits="userSpaceOnUse"/>
        <linearGradient xlink:href="#b" id="i" x1="64" x2="64" y1="40.768" y2="9.622" gradientTransform="matrix(1 0 0 .59526 0 7.895)" gradientUnits="userSpaceOnUse"/>
        <linearGradient xlink:href="#c" id="j" x1="64" x2="64" y1="41.354" y2="9.624" gradientTransform="matrix(.9828 0 0 .59528 1.101 7.894)" gradientUnits="userSpaceOnUse"/>
        <linearGradient xlink:href="#d" id="h" x1="63.999" x2="63.999" y1="30.635" y2="4.259" gradientTransform="translate(0 4)" gradientUnits="userSpaceOnUse"/>
        <linearGradient xlink:href="#e" id="g" x1="64" x2="64" y1="110.377" y2="30.635" gradientTransform="translate(0 6)" gradientUnits="userSpaceOnUse"/>
    </defs>
    <rect width="105" height="105" x="11.5" y="11.5" rx="13" ry="13" style="fill:url(#f);fill-opacity:1"/>
    <path d="M19.623 34.635c-3.324 0-6 2.676-6 6v63.742c0 6.648 5.352 12 12 12h76.754c6.648 0 12-5.352 12-12V40.635c0-3.324-2.676-6-6-6z" style="fill:url(#g);fill-opacity:1;stroke-width:.781906"/>
    <path d="M25.623 13.623c-6.029 0-10.972 4.58-11.844 10.584l-.156 2.305c0 3.324 2.676 6 6 6h88.754a5.984 5.984 0 0 0 5.994-5.875l-.15-2.43c-.872-6.004-5.815-10.584-11.844-10.584z" style="fill:url(#h);fill-opacity:1;stroke-width:.538528"/>
    <path d="M47.656 34.635v16.103l4.998-4.386 5 4.386 5.477-4.808 5.476 4.808 5.868-5.148 5.865 5.148h.004V34.635Z" style="fill:#dec0a4;fill-opacity:1;fill-rule:evenodd;stroke-width:.834683"/>
    <path d="M49.654 13.622h28.69l2 18.89h-32.69Z" style="opacity:.8;fill:url(#i);fill-rule:evenodd;stroke-width:1.54307"/>
    <path d="M62.938 13.622h2.124v18.89h-2.124z" style="opacity:.658994;fill:url(#j);fill-opacity:1;fill-rule:evenodd;stroke-width:.823535"/>
    <path d="M47.654 32.512h32.69v2.123h-32.69z" style="fill:#eedcc9;fill-opacity:1;fill-rule:evenodd;stroke-width:.834738"/>
    <path d="m74.475 45.59-5.868 5.149-5.476-4.809-5.477 4.809-5-4.387-4.998 4.387v1.367l4.998-4.387 5 4.387 5.477-4.808 5.476 4.808 5.868-5.148 5.865 5.148h.004V50.74h-.004z" style="fill:#b1865b;fill-opacity:1;fill-rule:evenodd;stroke-width:.834683"/>
    <g style="fill:#534b43;fill-opacity:1;stroke:#534b43;stroke-width:1.1898;stroke-dasharray:none;stroke-opacity:1">
        <path fill="#5382a1" d="M56.164 87.602s-2.612 1.519 1.859 2.033c5.417.618 8.185.53 14.154-.6 0 0 1.57.983 3.762 1.836-13.382 5.735-30.286-.333-19.775-3.27m-1.635-7.483s-2.93 2.168 1.545 2.631c5.786.597 10.355.646 18.263-.877 0 0 1.093 1.11 2.813 1.716-16.18 4.73-34.2.373-22.621-3.47" style="fill:#534b43;fill-opacity:1;stroke:#534b43;stroke-width:1.1898;stroke-dasharray:none;stroke-opacity:1" transform="translate(16.198 30.264)scale(.7339)"/>
        <path fill="#e76f00" d="M68.314 67.422c3.297 3.797-.866 7.213-.866 7.213s8.371-4.322 4.527-9.734c-3.591-5.048-6.345-7.555 8.563-16.202 0 0-23.401 5.845-12.224 18.723" style="fill:#534b43;fill-opacity:1;stroke:#534b43;stroke-width:1.1898;stroke-dasharray:none;stroke-opacity:1" transform="translate(16.198 30.264)scale(.7339)"/>
        <path fill="#5382a1" d="M86.012 93.137s1.933 1.593-2.129 2.825c-7.724 2.34-32.148 3.047-38.933.094-2.44-1.062 2.135-2.534 3.573-2.843 1.5-.325 2.358-.265 2.358-.265-2.712-1.91-17.532 3.752-7.527 5.374 27.283 4.424 49.735-1.993 42.658-5.185M57.42 72.363s-12.424 2.951-4.4 4.023c3.389.453 10.143.35 16.434-.176 5.141-.434 10.304-1.356 10.304-1.356s-1.813.776-3.125 1.672c-12.616 3.318-36.987 1.774-29.971-1.62 5.934-2.868 10.758-2.543 10.758-2.543m22.287 12.458c12.825-6.664 6.895-13.069 2.756-12.206-1.014.211-1.467.394-1.467.394s.377-.59 1.096-.845c8.188-2.879 14.485 8.49-2.643 12.993 0 0 .199-.177.258-.336" style="fill:#534b43;fill-opacity:1;stroke:#534b43;stroke-width:1.1898;stroke-dasharray:none;stroke-opacity:1" transform="translate(16.198 30.264)scale(.7339)"/>
        <path fill="#e76f00" d="M71.975 34.738s7.102 7.105-6.737 18.03c-11.097 8.764-2.53 13.761-.004 19.47-6.478-5.844-11.232-10.989-8.042-15.777 4.68-7.03 17.649-10.437 14.783-21.723" style="fill:#534b43;fill-opacity:1;stroke:#534b43;stroke-width:1.1898;stroke-dasharray:none;stroke-opacity:1" transform="translate(16.198 30.264)scale(.7339)"/>
        <path fill="#5382a1" d="M58.68 102.88c12.31.787 31.214-.438 31.662-6.262 0 0-.86 2.208-10.174 3.961-10.507 1.977-23.466 1.747-31.152.48 0 0 1.574 1.302 9.664 1.82" style="fill:#534b43;fill-opacity:1;stroke:#534b43;stroke-width:1.1898;stroke-dasharray:none;stroke-opacity:1" transform="translate(16.198 30.264)scale(.7339)"/>
    </g>
</svg>
