<svg xmlns="http://www.w3.org/2000/svg" xmlns:xlink="http://www.w3.org/1999/xlink" xml:space="preserve" width="128" height="128" viewBox="0 0 128 128">
    <defs>
        <linearGradient id="d">
            <stop offset="0" style="stop-color:#bab2c9;stop-opacity:0"/>
            <stop offset=".282" style="stop-color:#bab2c9;stop-opacity:0"/>
            <stop offset=".319" style="stop-color:#bab2c9;stop-opacity:.19515903"/>
            <stop offset=".5" style="stop-color:#0ab0ff;stop-opacity:.2523647"/>
            <stop offset=".664" style="stop-color:#bab2c9;stop-opacity:.19684012"/>
            <stop offset=".718" style="stop-color:#bab2c9;stop-opacity:0"/>
            <stop offset="1" style="stop-color:#bab2c9;stop-opacity:0"/>
        </linearGradient>
        <linearGradient id="c">
            <stop offset="0" style="stop-color:#bab2c9;stop-opacity:0"/>
            <stop offset=".282" style="stop-color:#bab2c9;stop-opacity:0"/>
            <stop offset=".319" style="stop-color:#bab2c9;stop-opacity:.19515903"/>
            <stop offset=".5" style="stop-color:#ff4a4a;stop-opacity:.2523647"/>
            <stop offset=".664" style="stop-color:#bab2c9;stop-opacity:.19684012"/>
            <stop offset=".718" style="stop-color:#bab2c9;stop-opacity:0"/>
            <stop offset="1" style="stop-color:#bab2c9;stop-opacity:0"/>
        </linearGradient>
        <linearGradient id="b">
            <stop offset="0" style="stop-color:#bab2c9;stop-opacity:0"/>
            <stop offset=".282" style="stop-color:#bab2c9;stop-opacity:0"/>
            <stop offset=".319" style="stop-color:#bab2c9;stop-opacity:.19515903"/>
            <stop offset=".5" style="stop-color:#08ff02;stop-opacity:.2523647"/>
            <stop offset=".664" style="stop-color:#bab2c9;stop-opacity:.19684012"/>
            <stop offset=".718" style="stop-color:#bab2c9;stop-opacity:0"/>
            <stop offset="1" style="stop-color:#bab2c9;stop-opacity:0"/>
        </linearGradient>
        <linearGradient id="a">
            <stop offset="0" style="stop-color:#bab2c9;stop-opacity:0"/>
            <stop offset=".198" style="stop-color:#bab2c9;stop-opacity:0"/>
            <stop offset=".297" style="stop-color:#bab2c9;stop-opacity:.19515903"/>
            <stop offset=".5" style="stop-color:#fff;stop-opacity:.49996486"/>
            <stop offset=".699" style="stop-color:#bab2c9;stop-opacity:.19684012"/>
            <stop offset=".8" style="stop-color:#bab2c9;stop-opacity:0"/>
            <stop offset="1" style="stop-color:#bab2c9;stop-opacity:0"/>
        </linearGradient>
        <linearGradient xlink:href="#a" id="e" x1="11.5" x2="116.5" y1="64" y2="64" gradientTransform="rotate(60 64 64)" gradientUnits="userSpaceOnUse"/>
        <linearGradient xlink:href="#b" id="h" x1="11.5" x2="116.5" y1="64" y2="64" gradientTransform="rotate(-30 64 64)" gradientUnits="userSpaceOnUse"/>
        <linearGradient xlink:href="#c" id="f" x1="11.5" x2="116.5" y1="64" y2="64" gradientTransform="rotate(-15 64 64)" gradientUnits="userSpaceOnUse"/>
        <linearGradient xlink:href="#d" id="g" x1="11.5" x2="116.5" y1="64" y2="64" gradientTransform="rotate(-45 64 64)" gradientUnits="userSpaceOnUse"/>
    </defs>
    <path d="M64 11.5A52.5 52.5 0 0 0 11.5 64 52.5 52.5 0 0 0 64 116.5 52.5 52.5 0 0 0 116.5 64 52.5 52.5 0 0 0 64 11.5M64 45a19 19 0 0 1 19 19 19 19 0 0 1-19 19 19 19 0 0 1-19-19 19 19 0 0 1 19-19" style="fill:#b2bcc9;fill-opacity:1;fill-rule:evenodd;stroke-width:.502817"/>
    <path d="M109.466 37.75A52.5 52.5 0 0 0 37.75 18.534 52.5 52.5 0 0 0 18.534 90.25a52.5 52.5 0 0 0 71.716 19.216 52.5 52.5 0 0 0 19.216-71.716M80.454 54.5A19 19 0 0 1 73.5 80.454 19 19 0 0 1 47.546 73.5 19 19 0 0 1 54.5 47.546 19 19 0 0 1 80.454 54.5" style="mix-blend-mode:normal;fill:url(#e);fill-opacity:1;fill-rule:evenodd;stroke-width:.502817"/>
    <path d="M64 11.5A52.5 52.5 0 0 0 11.5 64H45a19 19 0 0 1 19-19 19 19 0 0 1 19 19h33.5A52.5 52.5 0 0 0 64 11.5" style="fill:#fff;fill-opacity:.14789012;fill-rule:evenodd;stroke-width:.3;stroke-opacity:.176079"/>
    <path d="M64 45a19 19 0 0 0-19 19 19 19 0 0 0 19 19 19 19 0 0 0 19-19 19 19 0 0 0-19-19m0 9.28A9.72 9.72 0 0 1 73.72 64 9.72 9.72 0 0 1 64 73.72 9.72 9.72 0 0 1 54.28 64 9.72 9.72 0 0 1 64 54.28" style="opacity:.65;fill:#c3d6e0;fill-opacity:1;fill-rule:evenodd;stroke-width:.181979"/>
    <path d="M64 45a19 19 0 0 0-19 19 19 19 0 0 0 19 19 19 19 0 0 0 19-19 19 19 0 0 0-19-19m0 1.75A17.25 17.25 0 0 1 81.25 64 17.25 17.25 0 0 1 64 81.25 17.25 17.25 0 0 1 46.75 64 17.25 17.25 0 0 1 64 46.75m0 5.625A11.625 11.625 0 0 0 52.375 64 11.625 11.625 0 0 0 64 75.625 11.625 11.625 0 0 0 75.625 64 11.625 11.625 0 0 0 64 52.375m0 1.904A9.72 9.72 0 0 1 73.72 64 9.72 9.72 0 0 1 64 73.72 9.72 9.72 0 0 1 54.28 64 9.72 9.72 0 0 1 64 54.28" style="opacity:.098;mix-blend-mode:lighten;fill:#000;fill-opacity:1;fill-rule:evenodd;stroke-width:.181979"/>
    <path d="M50.412 13.289a52.5 52.5 0 0 0-37.123 64.299 52.5 52.5 0 0 0 64.299 37.123 52.5 52.5 0 0 0 37.123-64.299 52.5 52.5 0 0 0-64.299-37.123m8.67 32.358a19 19 0 0 1 23.27 13.435 19 19 0 0 1-13.434 23.27 19 19 0 0 1-23.27-13.434 19 19 0 0 1 13.434-23.27" style="mix-blend-mode:normal;fill:url(#f);fill-opacity:1;fill-rule:evenodd;stroke-width:.502817"/>
    <path d="M26.877 26.877a52.5 52.5 0 0 0 0 74.246 52.5 52.5 0 0 0 74.246 0 52.5 52.5 0 0 0 0-74.246 52.5 52.5 0 0 0-74.246 0m23.688 23.688a19 19 0 0 1 26.87 0 19 19 0 0 1 0 26.87 19 19 0 0 1-26.87 0 19 19 0 0 1 0-26.87" style="mix-blend-mode:normal;fill:url(#g);fill-opacity:1;fill-rule:evenodd;stroke-width:.502817"/>
    <path d="M37.75 18.534A52.5 52.5 0 0 0 18.534 90.25a52.5 52.5 0 0 0 71.716 19.216 52.5 52.5 0 0 0 19.216-71.716A52.5 52.5 0 0 0 37.75 18.534M54.5 47.546A19 19 0 0 1 80.454 54.5 19 19 0 0 1 73.5 80.454 19 19 0 0 1 47.546 73.5 19 19 0 0 1 54.5 47.546" style="mix-blend-mode:normal;fill:url(#h);fill-opacity:1;fill-rule:evenodd;stroke-width:.502817"/>
    <path d="M64 41.133A22.867 22.867 0 0 0 41.133 64 22.867 22.867 0 0 0 64 86.867 22.867 22.867 0 0 0 86.867 64 22.867 22.867 0 0 0 64 41.133M64 45a19 19 0 0 1 19 19 19 19 0 0 1-19 19 19 19 0 0 1-19-19 19 19 0 0 1 19-19" style="opacity:.35;mix-blend-mode:overlay;fill:#000;fill-opacity:1;fill-rule:evenodd;stroke-width:.219006"/>
    <path d="M64 11.5A52.5 52.5 0 0 0 11.5 64 52.5 52.5 0 0 0 64 116.5 52.5 52.5 0 0 0 116.5 64 52.5 52.5 0 0 0 64 11.5m0 1A51.5 51.5 0 0 1 115.5 64 51.5 51.5 0 0 1 64 115.5 51.5 51.5 0 0 1 12.5 64 51.5 51.5 0 0 1 64 12.5" style="opacity:.5;mix-blend-mode:overlay;fill:#1a1a1a;fill-rule:evenodd;stroke-width:.502817"/>
</svg>
