<svg xmlns="http://www.w3.org/2000/svg" xml:space="preserve" width="128" height="128" viewBox="0 0 128 128">
    <path d="M22.093 22.686q-4.322 0-7.4 3.077-3.077 3.078-3.077 7.4v62.86q0 4.322 3.078 7.4 3.077 3.077 7.399 3.077h83.814q4.322 0 7.4-3.078 3.077-3.077 3.077-7.399v-62.86q0-4.322-3.078-7.4-3.077-3.077-7.399-3.077z" style="fill:#999;fill-opacity:1;stroke-width:.13096"/>
    <path d="M22.093 21.5q-4.322 0-7.4 3.078-3.077 3.077-3.077 7.399v62.86q0 4.322 3.078 7.4t7.399 3.077h83.814q4.322 0 7.4-3.077 3.077-3.078 3.077-7.4v-62.86q0-4.322-3.078-7.4-3.077-3.077-7.399-3.077Z" style="fill:#fdfdfd;fill-opacity:1;stroke-width:.13096"/>
    <path d="M29 76.998c-1.03 0-1.767.304-2.506 1.043s-1.043 1.475-1.043 2.506v30c0 1.03.304 1.767 1.043 2.506.74.739 1.475 1.043 2.506 1.043h40c1.03 0 1.767-.304 2.506-1.043.739-.74 1.043-1.476 1.043-2.506v-30c0-1.03-.304-1.767-1.043-2.506-.74-.739-1.475-1.043-2.506-1.043Z" style="fill:#f2f2f2;fill-opacity:1;stroke-width:.95448942;stroke:#f2f2f2;stroke-opacity:1;stroke-dasharray:none" transform="translate(-38.673 -136.798)scale(2.09536)"/>
    <path d="M32.57 52.93v10.477h10.476V52.93Zm20.953 0v10.477H95.43V52.93ZM32.57 73.884v10.477h41.907V73.884Zm52.384 0v10.477H95.43V73.884Z" style="fill:#999;fill-rule:evenodd;stroke:none;stroke-width:2.09536;stroke-linejoin:bevel;fill-opacity:1"/>
</svg>
