<svg xmlns="http://www.w3.org/2000/svg" xmlns:xlink="http://www.w3.org/1999/xlink" xml:space="preserve" width="128" height="128" viewBox="0 0 128 128">
    <defs>
        <linearGradient id="b">
            <stop offset="0" style="stop-color:#b3b3b3;stop-opacity:1"/>
            <stop offset=".982" style="stop-color:#c4c4c4;stop-opacity:1"/>
            <stop offset=".991" style="stop-color:#c9c9c9;stop-opacity:1"/>
            <stop offset="1" style="stop-color:#b3b3b3;stop-opacity:1"/>
        </linearGradient>
        <linearGradient id="a">
            <stop offset="0" style="stop-color:#ebb;stop-opacity:1"/>
            <stop offset=".064" style="stop-color:#f4d7d7;stop-opacity:1"/>
            <stop offset=".977" style="stop-color:#f4d7d7;stop-opacity:1"/>
            <stop offset="1" style="stop-color:#f9e6e6;stop-opacity:1"/>
        </linearGradient>
        <linearGradient xlink:href="#a" id="d" x1="110.363" x2="192.688" y1="69.114" y2="69.114" gradientTransform="translate(-87.525 -5.833)" gradientUnits="userSpaceOnUse"/>
        <linearGradient xlink:href="#b" id="c" x1="22.838" x2="105.162" y1="65.437" y2="65.437" gradientUnits="userSpaceOnUse"/>
    </defs>
    <path d="M25.162 12.938v102.125a2.324 1.437 0 0 0-2.324 1.437 2.324 1.437 0 0 0 2.324 1.436h78.586a1.414 1.414 0 0 0 1.414-1.415V12.938Z" style="fill:url(#c);fill-opacity:1;fill-rule:evenodd;stroke-width:.915188"/>
    <path d="M25.162 10.064a2.324 1.436 0 0 0-2.324 1.436v104.998a2.324 1.437 0 0 1 2.324-1.435h78.586a1.414 1.414 0 0 0 1.414-1.415V11.478a1.414 1.414 0 0 0-1.414-1.414H25.266Z" style="fill:url(#d);fill-opacity:1;fill-rule:evenodd;stroke-width:.915188"/>
    <g style="fill:#4d4d4d" transform="translate(1.867 -.562)">
        <rect width="10.936" height="2.106" x="29.62" y="88.924" rx="1.053" ry="1.053" style="opacity:1;fill:#4d4d4d;fill-opacity:1;stroke-width:.2"/>
        <rect width="10.936" height="1.519" x="29.62" y="92.605" rx=".759" ry=".759" style="opacity:1;fill:#4d4d4d;fill-opacity:1;stroke-width:.2"/>
        <rect width="10.936" height="3.281" x="29.62" y="95.7" rx="1.64" ry="1.64" style="opacity:1;fill:#4d4d4d;fill-opacity:1;stroke-width:.2"/>
        <rect width="10.936" height="2.575" x="29.62" y="100.556" rx="1.287" ry="1.287" style="opacity:1;fill:#4d4d4d;fill-opacity:1;stroke-width:.2"/>
        <rect width="10.936" height="1.519" x="29.62" y="104.707" rx=".759" ry=".759" style="opacity:1;fill:#4d4d4d;fill-opacity:1;stroke-width:.2"/>
        <rect width="10.936" height="2.106" x="29.62" y="107.801" rx="1.053" ry="1.053" style="opacity:1;fill:#4d4d4d;fill-opacity:1;stroke-width:.2"/>
    </g>
    <path d="m43.74 50.893 3.523 9.058-9.114 1.901 7.772 7.604-4.082 8.443 9.226-.447-.671 8.33 11.015-7.156 6.485 9.002 6.542-8.667 11.965 3.914-2.628-9.896 9.17-6.878-9.281-4.92 2.74-12.412-10.68 5.144-1.51-6.933-8.498 7.38-8.499-9.952-1.845 11.07z" style="fill:#ff5f09;fill-opacity:1;fill-rule:evenodd;stroke-width:.174893"/>
    <path d="m43.517 39.767 3.187-1.957 4.64 11.294z" style="fill:#fa9d00;fill-opacity:1;fill-rule:evenodd;stroke-width:.174893"/>
    <path d="m51.065 38.928 2.013 3.41.838-4.249z" style="fill:#ff5f09;fill-opacity:1;fill-rule:evenodd;stroke-width:.174893"/>
    <path d="m68.845 33.505-2.125 12.86 5.703-11.966z" style="fill:#fa9d00;fill-opacity:1;fill-rule:evenodd;stroke-width:.174893"/>
    <path d="m80.586 44.408-2.068 4.696 4.193-3.858z" style="fill:#ff5f09;fill-opacity:1;fill-rule:evenodd;stroke-width:.174893"/>
    <path d="m99.54 50.67 1.622 3.466-11.518 4.026zM86.29 87.28l4.249 6.375 2.404-2.46Z" style="fill:#fa9d00;fill-opacity:1;fill-rule:evenodd;stroke-width:.174893"/>
    <path d="m77.232 85.95 2.628 12.47 4.081-1.51z" style="fill:#ff5f09;fill-opacity:1;fill-rule:evenodd;stroke-width:.174893"/>
    <path d="m59.787 84.944-5.256 8.33 3.467.895zM31.328 66.018l-.95 3.215 9.728.055z" style="fill:#fa9d00;fill-opacity:1;fill-rule:evenodd;stroke-width:.174893"/>
    <path d="m60.402 54.248-1.51 7.38-6.318-1.9 3.635 5.032-4.641 2.18 5.2 2.18-5.256 3.635 7.828-.727-1.398 4.305 6.654-3.41 4.025 4.081 1.398-5.032 6.654 2.46-2.684-6.038 6.374-3.131-6.095-2.293 3.746-4.473-7.995 1.398.895-4.36-7.269 4.584z" style="fill:#ff9e00;fill-opacity:1;fill-rule:evenodd;stroke-width:.174893"/>
    <path d="M74.944 29.938q-1.204.185-2.263-.193-1.053-.378-1.777-1.305-.726-.932-.95-2.397-.227-1.476.186-2.583t1.305-1.777q.897-.678 2.1-.863.848-.13 1.598.01t1.353.515q.61.374 1.04.963.436.588.645 1.357l-2.484.381q-.102-.306-.276-.534-.169-.229-.397-.37t-.508-.189q-.276-.055-.596-.006-.598.092-.97.44-.365.348-.495.926-.13.572-.012 1.349.119.77.409 1.278.296.507.755.728.458.22 1.057.129.32-.05.567-.178.248-.13.423-.332.174-.209.267-.472.098-.27.11-.587l2.484-.381q.025.797-.208 1.488-.235.685-.705 1.224-.469.54-1.142.898-.668.351-1.516.481m-7.773-9.153 1.377 8.83-2.465.384-1.377-8.83zm-14.526 4.448 1.252 8.848 2.423-.342-.484-3.42a23 23 0 0 0-.129-.782q-.08-.48-.178-1.047l-.165-.952-.003-.008h.002v.008q.195.456.384.909a56 56 0 0 0 .778 1.774l1.529 3.272 1.995-.282.543-3.566q.049-.333.113-.833.062-.5.125-1.084l.123-1.084q0-.007-.002-.013h.004l-.002.013q.066.536.122 1.061.063.573.113 1.057.056.482.1.785l.483 3.42 2.423-.342-1.252-8.848-3.7.523-.392 2.878q-.05.371-.114.907l-.12 1.113c-.022.198-.039.379-.058.568l-.024.003q-.104-.26-.216-.529a80 80 0 0 0-.792-1.874L56.34 24.71zM37.871 36.169q-1.21.127-2.25-.3-1.035-.428-1.715-1.388-.68-.965-.835-2.439-.156-1.485.308-2.571.465-1.086 1.388-1.714.928-.634 2.14-.762.852-.09 1.594.086.742.175 1.327.578.592.402.993 1.01.408.61.58 1.387l-2.499.263q-.087-.31-.25-.546-.158-.237-.379-.389-.22-.151-.499-.213-.272-.067-.594-.034-.603.064-.99.394-.381.33-.538.901-.158.565-.076 1.347.082.775.348 1.296.271.52.72.763.447.242 1.05.179.321-.034.574-.151.253-.118.438-.312.184-.2.29-.458.11-.265.137-.582l2.5-.263q-.013.798-.28 1.477-.266.673-.76 1.19-.495.516-1.185.842-.684.32-1.537.409M46.38 23.82q-1.207.155-2.121.81a3.85 3.85 0 0 0-1.348 1.746q-.44 1.096-.25 2.578.19 1.47.892 2.419a3.9 3.9 0 0 0 1.746 1.348q1.05.403 2.257.248t2.116-.804a3.9 3.9 0 0 0 1.348-1.746q.445-1.097.255-2.572-.19-1.482-.899-2.43a3.85 3.85 0 0 0-1.745-1.348q-1.044-.405-2.251-.25m.275 2.141q.583-.075 1.025.165.441.234.72.754t.377 1.288q.098.761-.04 1.335-.137.569-.506.912-.368.337-.95.412-.577.075-1.019-.16-.441-.239-.725-.752-.278-.521-.377-1.282-.098-.768.04-1.342.143-.575.511-.912.368-.343.944-.418" style="-inkscape-font-specification:&quot;Adwaita Sans Heavy&quot;;fill:#8e3e19;fill-opacity:1;fill-rule:evenodd;stroke:none;stroke-width:.800442;stroke-opacity:1"/>
    <g transform="translate(-2.145 1.501)">
        <rect width="14.259" height="24.32" x="89.048" y="12.563" rx="2.281" ry="2.281" style="fill:#825473;fill-opacity:1;stroke-width:.278852"/>
        <rect width="6.961" height="2.32" x="92.697" y="16.975" rx="1.16" ry="1.16" style="fill:#ffeee3;fill-opacity:1;stroke-width:.2"/>
        <rect width="4.336" height="2.32" x="94.009" y="21.398" rx="1.16" ry="1.16" style="fill:#ffeee3;fill-opacity:1;stroke-width:.157845"/>
        <text xml:space="preserve" x="91.731" y="32.864" style="font-style:normal;font-variant:normal;font-weight:700;font-stretch:normal;font-size:8.70963px;font-family:&quot;Noto Sans&quot;;-inkscape-font-specification:&quot;Noto Sans Bold&quot;;text-align:start;writing-mode:lr-tb;direction:ltr;text-anchor:start;fill:#ffeee3;fill-opacity:1;fill-rule:evenodd;stroke:#ffeee3;stroke-width:.5;stroke-dasharray:none;stroke-opacity:1"><tspan x="91.731" y="32.864" style="font-style:normal;font-variant:normal;font-weight:700;font-stretch:normal;font-family:&quot;Product Sans&quot;;-inkscape-font-specification:&quot;Product Sans Bold&quot;;fill:#ffeee3;fill-opacity:1;stroke:#ffeee3;stroke-width:.5;stroke-dasharray:none;stroke-opacity:1">01</tspan></text>
    </g>
</svg>
