<svg xmlns="http://www.w3.org/2000/svg" xml:space="preserve" width="128" height="128" viewBox="0 0 128 128">
    <path d="M30 12.451c-3.324 0-6 2.676-6 6v92.002c0 3.324 2.676 6 6 6h68c3.324 0 6-2.676 6-6V42.984L80.957 12.998h1.115l-.42-.547z" style="fill:#d77276;fill-opacity:1;fill-rule:evenodd;stroke-width:1.34773"/>
    <path d="M30 11.548c-3.324 0-6 2.676-6 6v92c0 3.324 2.676 6 6 6h68c3.324 0 6-2.676 6-6V41.534L80.957 11.548Z" style="fill:#fef7f7;fill-opacity:1;fill-rule:evenodd;stroke-width:1.34773"/>
    <path d="M30 12.999a4.507 4.507 0 0 0-4.549 4.549v92A4.507 4.507 0 0 0 30 114.097h68a4.507 4.507 0 0 0 4.549-4.55v-69.9L82.072 12.999Z" style="fill:#fde8e8;fill-opacity:1;fill-rule:evenodd;stroke-width:1.34773"/>
    <path d="M80.957 11.548v24.89c0 3.324 2.676 6 6 6H104v-.904z" style="fill:#ca373d;fill-opacity:1;fill-rule:evenodd;stroke-width:1.4"/>
    <path d="M104 41.534 80.957 11.548v23.986c0 3.324 2.676 6 6 6z" style="fill:#fccacc;fill-opacity:1;fill-rule:evenodd;stroke-width:1.4"/>
    <path d="M87.702 224.949v-87.275L0 0h63.25l55.768 88.646L175.243 0h60.55l-91.815 137.674v87.275z" style="fill:#4d4d4d" transform="translate(42.243 55.256)scale(.08499)"/>
    <path fill="#cb171e" d="M70.314 70.167h-8.657l-1.76 4.252h-3.834L64.169 55.3h3.921l7.778 19.119H71.77zm-1.438-3.817-2.654-7.016-2.96 7.016z" style="stroke-width:.0849894;fill:#e93e45;fill-opacity:1"/>
    <path d="M149.021 250.177h-61.32v220.47h47.303V318.569l49.505 102.22h37.234l51.196-105.813v155.626h45.379V250.177h-61.96l-54.977 99.706zM512 469.647v-46.912H395.638v-172.61h-48.196v219.522z" style="fill:#4d4d4d" transform="translate(42.243 55.256)scale(.08499)"/>
</svg>
