<svg xmlns="http://www.w3.org/2000/svg" xmlns:xlink="http://www.w3.org/1999/xlink" xml:space="preserve" width="128" height="128" viewBox="0 0 128 128">
    <defs>
        <linearGradient id="a">
            <stop offset="0" style="stop-color:#ffb0b0;stop-opacity:1"/>
            <stop offset="1" style="stop-color:#ffb0b0;stop-opacity:1"/>
        </linearGradient>
        <linearGradient xlink:href="#a" id="b" x1="64" x2="64" y1="115.548" y2="11.548" gradientUnits="userSpaceOnUse"/>
    </defs>
    <path d="M30 12.451c-3.324 0-6 2.676-6 6v92.002c0 3.324 2.676 6 6 6h68c3.324 0 6-2.676 6-6V42.984L80.957 12.998h1.115l-.42-.547z" style="fill:maroon;fill-opacity:1;fill-rule:evenodd;stroke-width:1.34773"/>
    <path d="M30 11.548c-3.324 0-6 2.676-6 6v92c0 3.324 2.676 6 6 6h68c3.324 0 6-2.676 6-6V41.534L80.957 11.548Z" style="fill:url(#b);fill-opacity:1;fill-rule:evenodd;stroke-width:1.34773"/>
    <path d="M30 12.999a4.507 4.507 0 0 0-4.549 4.549v92A4.507 4.507 0 0 0 30 114.097h68a4.507 4.507 0 0 0 4.549-4.55v-69.9L82.072 12.999Z" style="fill:#e74444;fill-opacity:1;fill-rule:evenodd;stroke-width:1.34773"/>
    <path d="M80.957 11.548v24.89c0 3.324 2.676 6 6 6H104v-.904z" style="fill:maroon;fill-opacity:1;fill-rule:evenodd;stroke-width:1.4"/>
    <path d="M104 41.534 80.957 11.548v23.986c0 3.324 2.676 6 6 6z" style="fill:#ffd5d5;fill-opacity:1;fill-rule:evenodd;stroke-width:1.4"/>
    <g fill="#e60220" style="fill:#ffe9e9;fill-opacity:1">
        <path d="M-127.392-1.912c2.453.688 3.727 1.281 5.273 2.366l-29.96 34.878c8.178 5.321 16.762 18.565 12.11 29.363 2.29-14.638-12.87-25.618-21.779-26.997z" style="fill:#ffe9e9;fill-opacity:1;stroke-width:3.77953" transform="translate(131.954 57.815)scale(.50563)"/>
        <path d="M-151.312 78.698c5.563.25 11.108.378 16.917.378 12.518 0 24.529-.605 35.796-1.69 4.135-.4 7.495-3.635 8.012-7.88.915-7.529 1.342-15.413 1.342-23.524 0-8.11-.427-15.998-1.342-23.527-.517-4.245-3.877-7.48-8.012-7.88a370 370 0 0 0-15.175-1.138s-21.48 46.492-23.645 51.28c-3.186 7.06-7.555 12.231-13.893 13.981" style="fill:#ffe9e9;fill-opacity:1;stroke-width:3.77953" transform="translate(131.954 57.815)scale(.50563)"/>
        <path d="M-170.191 77.386c-4.169-.684-7.427-3.072-8.013-7.88-.914-7.529-1.341-15.413-1.341-23.524 0-8.11.427-15.998 1.341-23.527.518-4.245 3.878-7.48 8.013-7.88 5.79-.556 11.777-.987 17.934-1.278L-141.3 1.044c-.068.019 2.589-.476 4.91.098l-38.208 44.459c8.27-3.942 32.5 2.203 32.5 16.573 0 15.36-16.675 17.083-28.093 15.212" style="fill:#ffe9e9;fill-opacity:1;stroke-width:3.77953" transform="translate(131.954 57.815)scale(.50563)"/>
    </g>
</svg>
