<svg xmlns="http://www.w3.org/2000/svg" xml:space="preserve" width="128" height="128" viewBox="0 0 128 128">
    <path d="M30 12.451c-3.324 0-6 2.676-6 6v92.002c0 3.324 2.676 6 6 6h68c3.324 0 6-2.676 6-6V42.984L80.957 12.998h1.115l-.42-.547z" style="fill:#265372;fill-opacity:1;fill-rule:evenodd;stroke-width:1.34773"/>
    <path d="M30 11.548c-3.324 0-6 2.676-6 6v92c0 3.324 2.676 6 6 6h68c3.324 0 6-2.676 6-6V41.534L80.957 11.548Z" style="fill:#c3daea;fill-opacity:1;fill-rule:evenodd;stroke-width:1.34773"/>
    <path d="M30 12.999a4.507 4.507 0 0 0-4.549 4.549v92A4.507 4.507 0 0 0 30 114.097h68a4.507 4.507 0 0 0 4.549-4.55v-69.9L82.072 12.999Z" style="fill:#68a0ca;fill-opacity:1;fill-rule:evenodd;stroke-width:1.34773"/>
    <path d="M80.957 11.548v24.89c0 3.324 2.676 6 6 6H104v-.904z" style="fill:#265372;fill-opacity:1;fill-rule:evenodd;stroke-width:1.4"/>
    <path d="M104 41.534 80.957 11.548v23.986c0 3.324 2.676 6 6 6z" style="fill:#accbe2;fill-opacity:1;fill-rule:evenodd;stroke-width:1.4"/>
    <path d="M58.646 51.404c-2.402.534-4.78 1.278-7.007 2.4.051 1.968.177 3.852.435 5.768-.866.554-1.775 1.032-2.583 1.681-.822.632-1.662 1.236-2.406 1.975a46 46 0 0 0-4.678-2.722c-1.747 1.88-3.38 3.909-4.714 6.179a50 50 0 0 0 3.185 4.59l.033-.002v13.932q.037 0 .075.004l8.544.825a.92.92 0 0 1 .828.85l.263 3.771 7.45.533.514-3.481a.92.92 0 0 1 .91-.786h9.012c.456 0 .842.335.908.786l.514 3.48 7.452-.532.263-3.77a.92.92 0 0 1 .83-.851l8.538-.825.075-.004v-1.112h.004V71.276h.033a51 51 0 0 0 3.183-4.591c-1.334-2.27-2.97-4.3-4.716-6.179a46 46 0 0 0-4.678 2.722c-.744-.739-1.582-1.343-2.406-1.975-.808-.649-1.718-1.127-2.583-1.681.257-1.916.383-3.8.435-5.768-2.23-1.122-4.607-1.866-7.011-2.4a50 50 0 0 0-2.604 5.069 18 18 0 0 0-2.73-.219v-.002l-.016.002-.018-.002v.002c-.914.011-1.824.067-2.73.219-.765-1.708-1.643-3.455-2.604-5.069m-6.754 20.38a5.148 5.148 0 1 1-5.148 5.144 5.147 5.147 0 0 1 5.148-5.144m24.212 0a5.146 5.146 0 1 1 0 10.293 5.15 5.15 0 0 1-5.148-5.15 5.145 5.145 0 0 1 5.148-5.143M64.008 74.79c.915 0 1.657.675 1.657 1.506v4.738c0 .831-.742 1.506-1.657 1.506s-1.657-.675-1.657-1.506v-4.738c0-.83.742-1.506 1.657-1.506M40.895 87.038c.003.825.014 1.73.014 1.91 0 8.11 10.29 12.011 23.075 12.056h.03c12.786-.045 23.073-3.944 23.073-12.057 0-.183.01-1.084.014-1.91l-7.676.741-.263 3.79a.92.92 0 0 1-.853.852l-9.098.649q-.034.004-.067.004a.92.92 0 0 1-.908-.786l-.523-3.538H60.29l-.52 3.538a.92.92 0 0 1-.976.782l-9.1-.649a.92.92 0 0 1-.851-.853l-.265-3.789Z" style="color:#000;font-style:normal;font-variant:normal;font-weight:400;font-stretch:normal;font-size:medium;line-height:normal;font-family:sans-serif;font-variant-ligatures:normal;font-variant-position:normal;font-variant-caps:normal;font-variant-numeric:normal;font-variant-alternates:normal;font-variant-east-asian:normal;font-feature-settings:normal;font-variation-settings:normal;text-indent:0;text-align:start;text-decoration-line:none;text-decoration-style:solid;text-decoration-color:#000;letter-spacing:normal;word-spacing:normal;text-transform:none;writing-mode:lr-tb;direction:ltr;text-orientation:mixed;dominant-baseline:auto;baseline-shift:baseline;text-anchor:start;white-space:normal;shape-padding:0;shape-margin:0;inline-size:0;clip-rule:nonzero;display:inline;overflow:visible;visibility:visible;isolation:auto;mix-blend-mode:normal;color-interpolation:sRGB;color-interpolation-filters:linearRGB;solid-color:#000;solid-opacity:1;vector-effect:none;fill:#d4e4f0;fill-opacity:1;fill-rule:nonzero;stroke:none;stroke-width:.208628;stroke-linecap:butt;stroke-linejoin:miter;stroke-miterlimit:4;stroke-dasharray:none;stroke-dashoffset:0;stroke-opacity:1;-inkscape-stroke:none;color-rendering:auto;image-rendering:auto;shape-rendering:auto;text-rendering:auto;stop-color:#000"/>
</svg>
