<svg xmlns="http://www.w3.org/2000/svg" xmlns:xlink="http://www.w3.org/1999/xlink" xml:space="preserve" width="128" height="128" viewBox="0 0 128 128">
    <defs>
        <linearGradient id="a">
            <stop offset="0" style="stop-color:#fafafa;stop-opacity:1"/>
            <stop offset="1" style="stop-color:#fff;stop-opacity:1"/>
        </linearGradient>
        <linearGradient xlink:href="#a" id="b" x1="64" x2="64" y1="115.548" y2="11.548" gradientUnits="userSpaceOnUse"/>
    </defs>
    <path d="M30 12.451c-3.324 0-6 2.676-6 6v92.002c0 3.324 2.676 6 6 6h68c3.324 0 6-2.676 6-6V42.984L80.957 12.998h1.115l-.42-.547z" style="fill:#999;fill-opacity:1;fill-rule:evenodd;stroke-width:1.34773"/>
    <path d="M30 11.548c-3.324 0-6 2.676-6 6v92c0 3.324 2.676 6 6 6h68c3.324 0 6-2.676 6-6V41.534L80.957 11.548Z" style="fill:url(#b);fill-opacity:1;fill-rule:evenodd;stroke-width:1.34773"/>
    <path d="M30 12.999a4.507 4.507 0 0 0-4.549 4.549v92A4.507 4.507 0 0 0 30 114.097h68a4.507 4.507 0 0 0 4.549-4.55v-69.9L82.072 12.999Z" style="fill:#ececec;fill-opacity:1;fill-rule:evenodd;stroke-width:1.34773"/>
    <path d="M80.957 11.548v24.89c0 3.324 2.676 6 6 6H104v-.904z" style="fill:#787878;fill-opacity:1;fill-rule:evenodd;stroke-width:1.4"/>
    <path d="M104 41.534 80.957 11.548v23.986c0 3.324 2.676 6 6 6z" style="fill:#dedede;fill-opacity:1;fill-rule:evenodd;stroke-width:1.4"/>
    <path d="M71.766 53.583q-3.569 0-5.933 3.922-2.365 3.92-2.365 9.896 0 1.245.104 2.323.104 1.08.312 1.992-.997.54-2.055 1.016a30 30 0 0 1-2.219.893l1.162 3.11q1.16-.456 2.26-.912 1.1-.457 2.137-1.037.746 1.08 1.784 1.556a5.4 5.4 0 0 0 2.282.477q1.204 0 2.407-.54 1.203-.539 2.365-1.577.456 1.08 1.142 1.598.684.519 1.556.52 1.203 0 2.613-.913 1.41-.914 2.489-2.408l-2.614-2.033a9.3 9.3 0 0 1-1.14 1.245q-.561.498-.975.706-.208-.747-.042-1.743t.456-1.7l-3.028-1.412q-1.163 2.24-2.594 3.61t-2.51 1.369q-.332 0-.643-.146a2.1 2.1 0 0 1-.602-.435q4.025-2.78 6.286-6.265t2.26-7.053q.001-2.864-1.367-4.462-1.37-1.596-3.528-1.597m0 3.32q.748 0 1.183.622t.436 1.95q0 2.656-1.701 5.332-1.703 2.676-4.731 4.917a7 7 0 0 1-.104-.975q-.02-.519-.02-1.1 0-4.148 1.493-7.448 1.494-3.298 3.444-3.298M49.237 78.479l-2.324-2.324 2.655-2.655-2.655-2.656 2.324-2.323 2.655 2.655 2.655-2.655 2.324 2.323-2.656 2.656 2.656 2.655-2.324 2.324-2.655-2.656z" style="fill:#3771c8;stroke-width:.0414915" transform="translate(-.227 .67)"/>
    <path d="m77.441 93.258-2.402-1.386 1.57-2.772h-3.141v-2.773h3.142l-1.571-2.68 2.402-1.386 1.571 2.68 1.571-2.68 2.403 1.386-1.571 2.68h3.142V89.1h-3.142l1.57 2.772-2.402 1.386-1.57-2.772zm-14.785 0-2.403-1.386 1.57-2.772h-3.141v-2.773h3.142l-1.571-2.68 2.403-1.386 1.57 2.68 1.572-2.68 2.402 1.386-1.57 2.68h3.141V89.1H66.63l1.571 2.772-2.402 1.386-1.571-2.772zm-14.786 0-2.403-1.386 1.571-2.772h-3.142v-2.773h3.142l-1.57-2.68 2.402-1.386 1.57 2.68 1.572-2.68 2.403 1.386-1.571 2.68h3.142V89.1h-3.142l1.57 2.772-2.402 1.386-1.571-2.772zm-2.125 6.179v-3.696h36.964v3.696z" style="fill:#4d4d4d;fill-opacity:1;stroke-width:.0462051" transform="translate(-.227 .67)"/>
</svg>
