<svg xmlns="http://www.w3.org/2000/svg" xml:space="preserve" width="128" height="128" viewBox="0 0 128 128">
    <path d="M30 12.451c-3.324 0-6 2.676-6 6v92.002c0 3.324 2.676 6 6 6h68c3.324 0 6-2.676 6-6V42.984L80.957 12.998h1.115l-.42-.547z" style="fill:#1b2e39;fill-opacity:1;fill-rule:evenodd;stroke-width:1.34773"/>
    <path d="M30 11.548c-3.324 0-6 2.676-6 6v92c0 3.324 2.676 6 6 6h68c3.324 0 6-2.676 6-6V41.534L80.957 11.548Z" style="fill:#cadce6;fill-opacity:1;fill-rule:evenodd;stroke-width:1.34773"/>
    <path d="M30 12.999a4.507 4.507 0 0 0-4.549 4.549v92A4.507 4.507 0 0 0 30 114.097h68a4.507 4.507 0 0 0 4.549-4.55v-69.9L82.072 12.999Z" style="fill:#5890b0;fill-opacity:1;fill-rule:evenodd;stroke-width:1.34773"/>
    <path d="M80.957 11.548v24.89c0 3.324 2.676 6 6 6H104v-.904z" style="fill:#1b2e39;fill-opacity:1;fill-rule:evenodd;stroke-width:1.4"/>
    <path d="M104 41.534 80.957 11.548v23.986c0 3.324 2.676 6 6 6z" style="fill:#bfd4e1;fill-opacity:1;fill-rule:evenodd;stroke-width:1.4"/>
    <path fill="#004065" d="M70.314 78.026a68 68 0 0 1 .843 7.383 7.28 7.28 0 0 1-1.284 4.323c-.206.736-.824 0-1.265 0-1.088 0-1.49-1.176-2.079-1.902-.588-.725-.166-1.382.226-1.96.421-.304.588-.98 1.196-.98s.53-.834.441-1.275c.402-.618.157-1.53.55-2.206.705-.314.5-1.412.744-2.03.196-.441 0-1.284.56-1.47 0 0 .068 0 .058.098m-.677-25.177c-.921-.108-1.617.52-2.392.872a18 18 0 0 1-1.96.53c-.48.98-1.589 1.559-2.187 2.48a9.8 9.8 0 0 1-3.274 4.628c-2.177 1.127-3.275 3.578-3.99 5.882-.246.52-.207 1.284-.471 1.726-.863.245-.402-.883-.5-1.422-.128-.804.578-1.323.627-2.108a3.23 3.23 0 0 0 .353-1.814c-.098-1.402.324-3.107-.667-4.255-.588-.343-.402-1.068-.617-1.627a7.1 7.1 0 0 0-2.187-1.96c-.705-.07-1.352-.981-2.078-.56-.451.53-1.284.52-1.549 1.226-.167.882-1.157.647-1.804.863-.824.323-1.882 0-2.559.656-.676.657-1.784 1.618-1.45 2.726.774 1.52 2.774.755 3.862 1.677a31 31 0 0 1-1.186 3 17.7 17.7 0 0 0-.079 4.01c.206 1.333-.137 3.049.98 3.99.638.235.599.98.844 1.53.245.548.715-.197.912.332.568.314.058.98.372 1.373a2.7 2.7 0 0 1 1.382.735 11.6 11.6 0 0 1 1.677 1.422c.392.804.892-.784 1.324-.186a.98.98 0 0 0 1.382.49 5 5 0 0 0 2.196-.951c.422 1.5.098 3.127.284 4.676a20.5 20.5 0 0 1 .49 3.442 16.5 16.5 0 0 1 .51 3.49 12.45 12.45 0 0 1-1.196 7.147 1.73 1.73 0 0 1-1.362 1.373c-.49.225-1.51.627-1.167 1.333 1.137.98 2.941.873 4.245.373.863-.422.118-1.471.559-2.108.578-2.236.294-4.628.98-6.863a6.6 6.6 0 0 0 .579-3.618c.137-.755-.177-1.667.313-2.284a3.15 3.15 0 0 1 .795-2.06 26 26 0 0 0 .245-3.48A5.3 5.3 0 0 1 64 79.301c0 .647-.46 1.392-.324 2.117a3.4 3.4 0 0 1-.44 2.363c-.305 1.275-.51 2.843.284 3.922 1.313 1.441 3.029 2.46 4.274 4a.902.902 0 0 1 .059 1.353 2.61 2.61 0 0 1-1.667 1.774c-.52.206-1.353.98-.745 1.52a6.5 6.5 0 0 0 3.677-.245c.804-.294.51-1.265.823-1.873a19 19 0 0 1 1.196 1.834c.5.745 1.363.127 1.961-.108a6.2 6.2 0 0 0-.637-3.157c-.275-.647-1.343-.667-1.294-1.46.53-1.962 1.843-3.491 2.882-5.148.863-.823.216-2.049.265-3.088a11.77 11.77 0 0 1 1.833-7.608 28 28 0 0 0 1.167 3.676 10.8 10.8 0 0 0 1.823 3.883c.402 1.392.295 2.941.56 4.382a18.3 18.3 0 0 1-.412 7.47c.068.893-.775 1.55-.697 2.423.236.803 1.177.156 1.667.5a1.86 1.86 0 0 0 2.235-.98 11 11 0 0 1-.411-2.09 13.05 13.05 0 0 1-.432-6.391c.079-1.157.775-2.57-.127-3.56-.245-1.058.176-2.205-.079-3.293a22.6 22.6 0 0 1-.205-8.481c.156-.392 0-1.118.421-1.333a3.23 3.23 0 0 1 .53 2.117 6.5 6.5 0 0 1 .137 3.579c-.716.912-.275 2.147-.186 3.176.117.726.872.206.98-.245a20.5 20.5 0 0 0 1.588-3.853c.451-.608 0-1.323 0-1.96.696-.089.432-.873.059-1.216-.373-1.255-.284-2.706-1.127-3.775a18.1 18.1 0 0 1-3.275-4.686c-.892-2.814-3.441-4.687-4.304-7.53a6.1 6.1 0 0 0-2.735-3.99 13 13 0 0 0-1.961-.716 11 11 0 0 1-1.736.216" style="fill:#e2eef6;fill-opacity:1;stroke-width:.980405"/>
</svg>
