<svg xmlns="http://www.w3.org/2000/svg" xmlns:xlink="http://www.w3.org/1999/xlink" xml:space="preserve" width="128" height="128" viewBox="0 0 128 128">
    <defs>
        <linearGradient id="a">
            <stop offset="0" style="stop-color:#fafafa;stop-opacity:1"/>
            <stop offset="1" style="stop-color:#fff;stop-opacity:1"/>
        </linearGradient>
        <linearGradient xlink:href="#a" id="c" x1="64" x2="64" y1="115.548" y2="11.548" gradientUnits="userSpaceOnUse"/>
        <linearGradient id="b">
            <stop offset="0"/>
            <stop offset="1" stop-color="#fff"/>
        </linearGradient>
        <linearGradient xlink:href="#b" id="e" x1="-553.27" x2="-666.12" y1="525.91" y2="413.05" gradientTransform="matrix(.33412 0 0 .33408 267.721 -80.14)" gradientUnits="userSpaceOnUse"/>
        <linearGradient xlink:href="#b" id="d" x1="-666.12" x2="-553.27" y1="413.04" y2="525.91" gradientTransform="matrix(.33412 0 0 .33408 267.721 -80.14)" gradientUnits="userSpaceOnUse"/>
    </defs>
    <path d="M30 12.451c-3.324 0-6 2.676-6 6v92.002c0 3.324 2.676 6 6 6h68c3.324 0 6-2.676 6-6V42.984L80.957 12.998h1.115l-.42-.547z" style="fill:#999;fill-opacity:1;fill-rule:evenodd;stroke-width:1.34773"/>
    <path d="M30 11.548c-3.324 0-6 2.676-6 6v92c0 3.324 2.676 6 6 6h68c3.324 0 6-2.676 6-6V41.534L80.957 11.548Z" style="fill:url(#c);fill-opacity:1;fill-rule:evenodd;stroke-width:1.34773"/>
    <path d="M30 12.999a4.507 4.507 0 0 0-4.549 4.549v92A4.507 4.507 0 0 0 30 114.097h68a4.507 4.507 0 0 0 4.549-4.55v-69.9L82.072 12.999Z" style="fill:#ececec;fill-opacity:1;fill-rule:evenodd;stroke-width:1.34773"/>
    <path d="M80.957 11.548v24.89c0 3.324 2.676 6 6 6H104v-.904z" style="fill:#787878;fill-opacity:1;fill-rule:evenodd;stroke-width:1.4"/>
    <path d="M104 41.534 80.957 11.548v23.986c0 3.324 2.676 6 6 6z" style="fill:#dedede;fill-opacity:1;fill-rule:evenodd;stroke-width:1.4"/>
    <g color="#000">
        <path fill="url(#d)" d="M65.594 73.316c11.427 15.578 22.61-4.348 22.594-16.331-.02-14.167-14.379-22.086-22.603-22.086-13.201 0-25.773 10.91-25.773 25.838 0 16.592 14.41 25.782 25.773 25.782-2.571-.37-11.14-2.206-11.255-21.941-.077-13.348 4.354-18.68 11.236-16.335.154.057 7.59 2.991 7.59 12.575 0 9.542-7.562 12.498-7.562 12.498" style="fill:#51808b;fill-opacity:1;fill-rule:evenodd;stroke-width:.322824" transform="translate(-1.638 17.25)"/>
        <path fill="url(#e)" d="M65.58 48.233c-7.55-2.603-16.8 3.62-16.8 16.086 0 20.353 15.082 22.2 16.91 22.2 13.202 0 25.774-10.91 25.774-25.837 0-16.592-14.411-25.783-25.773-25.783 3.147-.435 16.961 3.406 16.961 22.287 0 12.313-10.315 19.016-17.024 16.152-.154-.057-7.59-2.99-7.59-12.574 0-9.543 7.543-12.532 7.543-12.532z" style="fill:#9ec5cd;fill-opacity:1;fill-rule:evenodd;stroke-width:.322824" transform="translate(-1.638 17.25)"/>
    </g>
</svg>
