<svg xmlns="http://www.w3.org/2000/svg" xmlns:xlink="http://www.w3.org/1999/xlink" xml:space="preserve" width="128" height="128" viewBox="0 0 128 128">
    <defs>
        <linearGradient id="e">
            <stop offset="0" style="stop-color:#a47b50;stop-opacity:1"/>
            <stop offset="1" style="stop-color:#c19b74;stop-opacity:1"/>
        </linearGradient>
        <linearGradient id="d">
            <stop offset="0" style="stop-color:#c2a180;stop-opacity:1"/>
            <stop offset="1" style="stop-color:#f2dcc5;stop-opacity:1"/>
        </linearGradient>
        <linearGradient id="c">
            <stop offset="0" style="stop-color:#b28555;stop-opacity:1"/>
            <stop offset="1" style="stop-color:#dac0a6;stop-opacity:1"/>
        </linearGradient>
        <linearGradient id="b">
            <stop offset="0" style="stop-color:#e5c9ae;stop-opacity:1"/>
            <stop offset="1" style="stop-color:#f1e3d5;stop-opacity:1"/>
        </linearGradient>
        <linearGradient id="a">
            <stop offset="0" style="stop-color:#c69463;stop-opacity:1"/>
            <stop offset=".702" style="stop-color:#c5a17d;stop-opacity:1"/>
            <stop offset=".748" style="stop-color:#c59f76;stop-opacity:1"/>
            <stop offset=".929" style="stop-color:#ebded2;stop-opacity:1"/>
            <stop offset="1" style="stop-color:#f2eae2;stop-opacity:1"/>
        </linearGradient>
        <linearGradient xlink:href="#a" id="f" x1="64" x2="64" y1="112.5" y2="7.5" gradientTransform="translate(0 4)" gradientUnits="userSpaceOnUse"/>
        <linearGradient xlink:href="#b" id="i" x1="64" x2="64" y1="40.768" y2="9.622" gradientTransform="matrix(1 0 0 .59526 0 7.895)" gradientUnits="userSpaceOnUse"/>
        <linearGradient xlink:href="#c" id="j" x1="64" x2="64" y1="41.354" y2="9.624" gradientTransform="matrix(.9828 0 0 .59528 1.101 7.894)" gradientUnits="userSpaceOnUse"/>
        <linearGradient xlink:href="#d" id="h" x1="63.999" x2="63.999" y1="30.635" y2="4.259" gradientTransform="translate(0 4)" gradientUnits="userSpaceOnUse"/>
        <linearGradient xlink:href="#e" id="g" x1="64" x2="64" y1="110.377" y2="30.635" gradientTransform="translate(0 6)" gradientUnits="userSpaceOnUse"/>
    </defs>
    <rect width="105" height="105" x="11.5" y="11.5" rx="13" ry="13" style="fill:url(#f);fill-opacity:1"/>
    <path d="M19.623 34.635c-3.324 0-6 2.676-6 6v63.742c0 6.648 5.352 12 12 12h76.754c6.648 0 12-5.352 12-12V40.635c0-3.324-2.676-6-6-6z" style="fill:url(#g);fill-opacity:1;stroke-width:.781906"/>
    <path d="M25.623 13.623c-6.029 0-10.972 4.58-11.844 10.584l-.156 2.305c0 3.324 2.676 6 6 6h88.754a5.984 5.984 0 0 0 5.994-5.875l-.15-2.43c-.872-6.004-5.815-10.584-11.844-10.584z" style="fill:url(#h);fill-opacity:1;stroke-width:.538528"/>
    <path d="M49.654 13.622h28.69l2 18.89h-32.69Z" style="opacity:.8;fill:url(#i);fill-rule:evenodd;stroke-width:1.54307"/>
    <path d="M62.938 13.622h2.124v18.89h-2.124z" style="opacity:.658994;fill:url(#j);fill-opacity:1;fill-rule:evenodd;stroke-width:.823535"/>
    <path d="M47.654 32.512h32.69v2.123h-32.69z" style="fill:#eedcc9;fill-opacity:1;fill-rule:evenodd;stroke-width:.834738"/>
    <path d="M64 59.414c-1.08 0-2.162.28-3.131.84l-14.787 8.537a6.26 6.26 0 0 0-3.131 5.425v17.073a6.26 6.26 0 0 0 3.131 5.423l14.787 8.538a6.26 6.26 0 0 0 6.262 0l14.787-8.538a6.26 6.26 0 0 0 3.131-5.423V74.216a6.26 6.26 0 0 0-3.131-5.425L67.13 60.255c-.97-.56-2.05-.84-3.131-.84M64 64c.29 0 .58.075.839.224l14.786 8.537c.258.15.469.365.614.616L64 82.752v18.75c-.29 0-.58-.073-.839-.222l-14.786-8.538a1.69 1.69 0 0 1-.84-1.453V74.216c0-.299.081-.587.226-.839L64 82.752Z" style="mix-blend-mode:normal;fill:#3c3c3c;fill-opacity:.8;fill-rule:nonzero;stroke:none;stroke-width:.143261px;stroke-linecap:butt;stroke-linejoin:miter;stroke-opacity:1"/>
    <path d="M47.655 34.635V50.74l4.998-4.387 5 4.387 5.477-4.809 5.476 4.809 5.868-5.148 5.865 5.148h.004V34.635Z" style="fill:#dec0a4;fill-opacity:1;fill-rule:evenodd;stroke-width:.834683"/>
    <path d="m74.474 45.591-5.868 5.149-5.476-4.809-5.477 4.809-5-4.387-4.998 4.387v1.367l4.998-4.387 5 4.387 5.477-4.809 5.476 4.809 5.868-5.149 5.865 5.149h.004V50.74h-.004z" style="fill:#b1865b;fill-opacity:1;fill-rule:evenodd;stroke-width:.834683"/>
</svg>
