<svg xmlns="http://www.w3.org/2000/svg" xmlns:xlink="http://www.w3.org/1999/xlink" xml:space="preserve" width="128" height="128" viewBox="0 0 128 128">
    <defs>
        <linearGradient id="a">
            <stop offset="0" style="stop-color:#fafafa;stop-opacity:1"/>
            <stop offset="1" style="stop-color:#fff;stop-opacity:1"/>
        </linearGradient>
        <linearGradient xlink:href="#a" id="b" x1="64" x2="64" y1="115.548" y2="11.548" gradientUnits="userSpaceOnUse"/>
    </defs>
    <path d="M30 12.451c-3.324 0-6 2.676-6 6v92.002c0 3.324 2.676 6 6 6h68c3.324 0 6-2.676 6-6V42.984L80.957 12.998h1.115l-.42-.547z" style="fill:#999;fill-opacity:1;fill-rule:evenodd;stroke-width:1.34773"/>
    <path d="M30 11.548c-3.324 0-6 2.676-6 6v92c0 3.324 2.676 6 6 6h68c3.324 0 6-2.676 6-6V41.534L80.957 11.548Z" style="fill:url(#b);fill-opacity:1;fill-rule:evenodd;stroke-width:1.34773"/>
    <path d="M30 12.999a4.507 4.507 0 0 0-4.549 4.549v92A4.507 4.507 0 0 0 30 114.097h68a4.507 4.507 0 0 0 4.549-4.55v-69.9L82.072 12.999Z" style="fill:#ececec;fill-opacity:1;fill-rule:evenodd;stroke-width:1.34773"/>
    <path d="M80.957 11.548v24.89c0 3.324 2.676 6 6 6H104v-.904z" style="fill:#787878;fill-opacity:1;fill-rule:evenodd;stroke-width:1.4"/>
    <path d="M104 41.534 80.957 11.548v23.986c0 3.324 2.676 6 6 6z" style="fill:#dedede;fill-opacity:1;fill-rule:evenodd;stroke-width:1.4"/>
    <path d="M61.653 96.42V80.342l-14.084-8.157v16.079Zm4.694 0 14.084-8.156V72.185l-14.084 8.157zM64 76.293l13.907-8.04L64 60.216l-13.907 8.039ZM45.222 92.371q-1.115-.645-1.73-1.701-.617-1.057-.617-2.347v-18.66q0-1.292.616-2.348t1.731-1.702l16.43-9.447q1.116-.646 2.348-.646t2.347.646l16.43 9.447q1.116.646 1.732 1.702t.616 2.347v18.66q0 1.291-.616 2.348t-1.731 1.701l-16.43 9.448q-1.116.646-2.348.646t-2.347-.646zM64 78.992" style="fill:#939dac;stroke-width:.0586805"/>
</svg>
