<svg xmlns="http://www.w3.org/2000/svg" xmlns:xlink="http://www.w3.org/1999/xlink" xml:space="preserve" width="128" height="128" viewBox="0 0 128 128">
    <defs>
        <path id="a" d="M6.03 2.836A3.018 3.018 0 1 1 2.889.005a2.98 2.98 0 0 1 3.143 2.83"/>
        <path id="b" d="M18.696 7.122C10.684 7.122 3.641 4.247 0 0a19.934 19.934 0 0 0 37.393 0c-3.633 4.247-10.65 7.122-18.697 7.122"/>
        <path id="c" d="M18.696 5.897c8.013 0 15.055 2.876 18.696 7.123A19.934 19.934 0 0 0 0 13.02c3.641-4.256 10.648-7.123 18.696-7.123"/>
        <path id="d" d="M7.596 3.567A3.802 3.802 0 1 1 3.634.005a3.766 3.766 0 0 1 3.962 3.562"/>
        <path id="e" d="M2.25 4.38A2.19 2.19 0 1 1 4.379 2.1a2.217 2.217 0 0 1-2.127 2.28"/>
    </defs>
    <path d="M30 12.451c-3.324 0-6 2.676-6 6v92.002c0 3.324 2.676 6 6 6h68c3.324 0 6-2.676 6-6V42.984L80.957 12.998h1.115l-.42-.547z" style="fill:#813707;fill-opacity:1;fill-rule:evenodd;stroke-width:1.34773"/>
    <path d="M30 11.548c-3.324 0-6 2.676-6 6v92c0 3.324 2.676 6 6 6h68c3.324 0 6-2.676 6-6V41.534L80.957 11.548Z" style="fill:#fac9a9;fill-opacity:1;fill-rule:evenodd;stroke-width:1.34773"/>
    <path d="M30 12.999a4.507 4.507 0 0 0-4.549 4.549v92A4.507 4.507 0 0 0 30 114.097h68a4.507 4.507 0 0 0 4.549-4.55v-69.9L82.072 12.999Z" style="fill:#f37726;fill-opacity:1;fill-rule:evenodd;stroke-width:1.34773"/>
    <path d="M80.957 11.548v24.89c0 3.324 2.676 6 6 6H104v-.904z" style="fill:#813707;fill-opacity:1;fill-rule:evenodd;stroke-width:1.4"/>
    <path d="M104 41.534 80.957 11.548v23.986c0 3.324 2.676 6 6 6z" style="fill:#fdc29c;fill-opacity:1;fill-rule:evenodd;stroke-width:1.4"/>
    <g style="opacity:.5;mix-blend-mode:normal;fill:#f9f9f9">
        <use xlink:href="#a" fill="#767677" style="mix-blend-mode:normal;fill:#f9f9f9" transform="translate(77.802 49.769)scale(1.12727)"/>
    </g>
    <use xlink:href="#b" fill="#f37726" style="mix-blend-mode:normal;fill:#f9f9f9" transform="translate(43.68 84.24)scale(1.12727)"/>
    <use xlink:href="#c" fill="#f37726" style="mix-blend-mode:normal;fill:#f9f9f9" transform="translate(43.68 54.492)scale(1.12727)"/>
    <g style="opacity:.5;mix-blend-mode:normal;fill:#f9f9f9">
        <use xlink:href="#d" fill="#9e9e9e" style="mix-blend-mode:normal;fill:#f9f9f9" transform="translate(43.759 97.565)scale(1.12727)"/>
    </g>
    <g style="opacity:.5;mix-blend-mode:normal;fill:#f9f9f9">
        <use xlink:href="#e" fill="#616262" style="mix-blend-mode:normal;fill:#f9f9f9" transform="translate(42.17 55.112)scale(1.12727)"/>
    </g>
</svg>
