<svg xmlns="http://www.w3.org/2000/svg" xmlns:xlink="http://www.w3.org/1999/xlink" xml:space="preserve" width="128" height="128" viewBox="0 0 128 128">
    <defs>
        <linearGradient id="e">
            <stop offset="0" style="stop-color:#a47b50;stop-opacity:1"/>
            <stop offset="1" style="stop-color:#c19b74;stop-opacity:1"/>
        </linearGradient>
        <linearGradient id="d">
            <stop offset="0" style="stop-color:#c2a180;stop-opacity:1"/>
            <stop offset="1" style="stop-color:#f2dcc5;stop-opacity:1"/>
        </linearGradient>
        <linearGradient id="c">
            <stop offset="0" style="stop-color:#b28555;stop-opacity:1"/>
            <stop offset="1" style="stop-color:#dac0a6;stop-opacity:1"/>
        </linearGradient>
        <linearGradient id="b">
            <stop offset="0" style="stop-color:#e5c9ae;stop-opacity:1"/>
            <stop offset="1" style="stop-color:#f1e3d5;stop-opacity:1"/>
        </linearGradient>
        <linearGradient id="a">
            <stop offset="0" style="stop-color:#c69463;stop-opacity:1"/>
            <stop offset=".702" style="stop-color:#c5a17d;stop-opacity:1"/>
            <stop offset=".748" style="stop-color:#c59f76;stop-opacity:1"/>
            <stop offset=".929" style="stop-color:#ebded2;stop-opacity:1"/>
            <stop offset="1" style="stop-color:#f2eae2;stop-opacity:1"/>
        </linearGradient>
        <linearGradient xlink:href="#a" id="f" x1="64" x2="64" y1="112.5" y2="7.5" gradientTransform="translate(0 4)" gradientUnits="userSpaceOnUse"/>
        <linearGradient xlink:href="#b" id="i" x1="64" x2="64" y1="40.768" y2="9.622" gradientTransform="matrix(1 0 0 .59526 0 7.895)" gradientUnits="userSpaceOnUse"/>
        <linearGradient xlink:href="#c" id="j" x1="64" x2="64" y1="41.354" y2="9.624" gradientTransform="matrix(.9828 0 0 .59528 1.101 7.894)" gradientUnits="userSpaceOnUse"/>
        <linearGradient xlink:href="#d" id="h" x1="63.999" x2="63.999" y1="30.635" y2="4.259" gradientTransform="translate(0 4)" gradientUnits="userSpaceOnUse"/>
        <linearGradient xlink:href="#e" id="g" x1="64" x2="64" y1="110.377" y2="30.635" gradientTransform="translate(0 6)" gradientUnits="userSpaceOnUse"/>
    </defs>
    <rect width="105" height="105" x="11.5" y="11.5" rx="13" ry="13" style="fill:url(#f);fill-opacity:1"/>
    <path d="M19.623 34.635c-3.324 0-6 2.676-6 6v63.742c0 6.648 5.352 12 12 12h76.754c6.648 0 12-5.352 12-12V40.635c0-3.324-2.676-6-6-6z" style="fill:url(#g);fill-opacity:1;stroke-width:.781906"/>
    <path d="M25.623 13.623c-6.029 0-10.972 4.58-11.844 10.584l-.156 2.305c0 3.324 2.676 6 6 6h88.754a5.984 5.984 0 0 0 5.994-5.875l-.15-2.43c-.872-6.004-5.815-10.584-11.844-10.584z" style="fill:url(#h);fill-opacity:1;stroke-width:.538528"/>
    <path d="M47.656 34.635v16.103l4.998-4.386 5 4.386 5.477-4.808 5.476 4.808 5.868-5.148 5.865 5.148h.004V34.635Z" style="fill:#dec0a4;fill-opacity:1;fill-rule:evenodd;stroke-width:.834683"/>
    <path d="M49.654 13.622h28.69l2 18.89h-32.69Z" style="opacity:.8;fill:url(#i);fill-rule:evenodd;stroke-width:1.54307"/>
    <path d="M62.938 13.622h2.124v18.89h-2.124z" style="opacity:.658994;fill:url(#j);fill-opacity:1;fill-rule:evenodd;stroke-width:.823535"/>
    <path d="M47.654 32.512h32.69v2.123h-32.69z" style="fill:#eedcc9;fill-opacity:1;fill-rule:evenodd;stroke-width:.834738"/>
    <path d="m74.475 45.59-5.868 5.149-5.476-4.809-5.477 4.809-5-4.387-4.998 4.387v1.367l4.998-4.387 5 4.387 5.477-4.808 5.476 4.808 5.868-5.148 5.865 5.148h.004V50.74h-.004z" style="fill:#b1865b;fill-opacity:1;fill-rule:evenodd;stroke-width:.834683"/>
    <path d="M59.437 55.114v10.188h-5.412L64.53 77.188l10.507-11.886h-5.413V55.114zm3.768 23.772c-.294 0-.478.5-.478 1.114v3.874c-1.182.269-2.295.75-3.29 1.38l-2.759-2.76c-.434-.434-.907-.632-1.114-.424l-2.6 2.6c-.208.207-.01.68.424 1.114l2.76 2.76a10.6 10.6 0 0 0-1.38 3.29h-3.874c-.613 0-1.114.183-1.114.477v3.714c0 .294.5.478 1.114.478h3.874c.269 1.181.75 2.294 1.38 3.29l-2.76 2.759c-.434.433-.632.906-.424 1.114l2.6 2.6c.207.208.68.009 1.114-.424l2.76-2.76c.994.629 2.107 1.11 3.29 1.38v3.873c0 .614.183 1.115.477 1.115h3.714c.294 0 .478-.501.478-1.115v-3.873a10.6 10.6 0 0 0 3.29-1.38l2.759 2.76c.433.433.906.632 1.114.424l2.6-2.6c.208-.208.01-.68-.424-1.114l-2.76-2.76a10.6 10.6 0 0 0 1.38-3.29h3.873c.614 0 1.115-.183 1.115-.477v-3.714c0-.294-.501-.478-1.115-.478h-3.873a10.6 10.6 0 0 0-1.38-3.29l2.76-2.759c.433-.434.632-.907.424-1.114l-2.6-2.6c-.208-.208-.68-.01-1.114.424l-2.76 2.76a10.6 10.6 0 0 0-3.29-1.38V80c0-.613-.183-1.114-.477-1.114zm1.857 10.56c2.595 0 4.722 2.126 4.722 4.722 0 2.595-2.127 4.722-4.722 4.722s-4.723-2.127-4.723-4.722 2.127-4.723 4.723-4.723" style="display:inline;overflow:visible;visibility:visible;fill:#534b43;fill-opacity:1;fill-rule:nonzero;stroke:none;stroke-width:1.70103;marker:none"/>
</svg>
