<svg xmlns="http://www.w3.org/2000/svg" xmlns:xlink="http://www.w3.org/1999/xlink" xml:space="preserve" width="128" height="128" viewBox="0 0 128 128">
    <defs>
        <linearGradient id="a">
            <stop offset="0" style="stop-color:#fafafa;stop-opacity:1"/>
            <stop offset="1" style="stop-color:#fff;stop-opacity:1"/>
        </linearGradient>
        <linearGradient xlink:href="#a" id="b" x1="64" x2="64" y1="115.548" y2="11.548" gradientUnits="userSpaceOnUse"/>
    </defs>
    <path d="M30 12.451c-3.324 0-6 2.676-6 6v92.002c0 3.324 2.676 6 6 6h68c3.324 0 6-2.676 6-6V42.984L80.957 12.998h1.115l-.42-.547z" style="fill:#999;fill-opacity:1;fill-rule:evenodd;stroke-width:1.34773"/>
    <path d="M30 11.548c-3.324 0-6 2.676-6 6v92c0 3.324 2.676 6 6 6h68c3.324 0 6-2.676 6-6V41.534L80.957 11.548Z" style="fill:url(#b);fill-opacity:1;fill-rule:evenodd;stroke-width:1.34773"/>
    <path d="M30 12.999a4.507 4.507 0 0 0-4.549 4.549v92A4.507 4.507 0 0 0 30 114.097h68a4.507 4.507 0 0 0 4.549-4.55v-69.9L82.072 12.999Z" style="fill:#ececec;fill-opacity:1;fill-rule:evenodd;stroke-width:1.34773"/>
    <path d="M80.957 11.548v24.89c0 3.324 2.676 6 6 6H104v-.904z" style="fill:#787878;fill-opacity:1;fill-rule:evenodd;stroke-width:1.4"/>
    <path d="M104 41.534 80.957 11.548v23.986c0 3.324 2.676 6 6 6z" style="fill:#dedede;fill-opacity:1;fill-rule:evenodd;stroke-width:1.4"/>
    <path d="M-65.12 74.512c-.995-1.048.284-8.143 2.236-12.403 11.12-24.277 45.634-17.774 48.242 9.089.38 3.908.355 3.928-3.743 3.056-3.223-.685-3.251-.702-3.251-1.927 0-9.623-9.03-18.962-18.334-18.962-9.287 0-18.323 9.337-18.332 18.945-.002 1.245-.023 1.258-3.246 1.94-3.266.693-3.17.686-3.572.262m42.663 1.7c-2.2-.061-4.433 1.353-5.117 4.05-.132.523-.17 2.354-.17 8.257s.038 7.733.17 8.255c.49 1.935 1.83 3.37 3.646 3.903 2.71.795 5.627-1.117 6.222-4.076.03-.145.052-.557.072-1.102h.65v-.002h.217c1.303-.005 2.345-.648 2.94-1.81.266-.521.276-.68.276-5.168 0-4.49-.01-4.648-.276-5.168-.595-1.163-1.637-1.804-2.94-1.81l-.216-.001v-.002h-.656c-.073-1.372-.215-1.824-.498-2.416-.92-1.922-2.61-2.863-4.32-2.91m4.892 13.777-.004 1.196zm-.011 2.313" style="fill:#6782e7;fill-opacity:1;stroke-width:.13073" transform="translate(104)"/>
    <path d="M-39.97 74.901a1.14 1.14 0 0 0-1.141 1.141v28.26a1.14 1.14 0 0 0 1.14 1.142 1.14 1.14 0 0 0 1.14-1.142v-28.26a1.14 1.14 0 0 0-1.14-1.14m-4.563 4.563a1.14 1.14 0 0 0-1.14 1.14V99.74a1.14 1.14 0 0 0 1.14 1.14 1.14 1.14 0 0 0 1.14-1.14V80.604a1.14 1.14 0 0 0-1.14-1.14m9.127 0a1.14 1.14 0 0 0-1.143 1.14l.002.028v9.521c0 3.712-.003 6.007.024 7.479h-.002v2.36l-.006.08a1.124 1.124 0 0 0 1.125 1.122 1.124 1.124 0 0 0 1.123-1.123 1 1 0 0 0-.006-.111v-2.328h-.006c.028-1.508.03-3.785.03-7.395v-9.632a1.14 1.14 0 0 0-1.141-1.141m4.562 4.564a1.14 1.14 0 0 0-1.14 1.14v10.009a1.14 1.14 0 0 0 1.14 1.14 1.14 1.14 0 0 0 1.14-1.14V85.169a1.14 1.14 0 0 0-1.14-1.14m-18.252 2.282a1.14 1.14 0 0 0-1.142 1.14v10.008a1.14 1.14 0 0 0 1.142 1.14 1.14 1.14 0 0 0 1.14-1.14V87.45a1.14 1.14 0 0 0-1.14-1.14" style="fill:#ff9854;fill-opacity:1;stroke-width:.1426" transform="translate(104)"/>
    <path d="M-57.543 76.212c2.2-.061 4.433 1.353 5.117 4.05.132.523.17 2.354.17 8.257s-.038 7.733-.17 8.255c-.49 1.935-1.83 3.37-3.646 3.903-2.71.795-5.627-1.117-6.222-4.076-.03-.145-.052-.557-.072-1.102h-.65v-.002h-.217c-1.303-.005-2.345-.648-2.94-1.81-.266-.521-.276-.68-.276-5.168 0-4.49.01-4.648.276-5.168.595-1.163 1.637-1.804 2.94-1.809l.216-.002v-.002h.656c.073-1.372.215-1.824.498-2.416.92-1.922 2.61-2.863 4.32-2.91m-4.892 13.777.004 1.196zm.011 2.313" style="fill:#6782e7;fill-opacity:1;stroke-width:.13073" transform="translate(104)"/>
</svg>
