<svg xmlns="http://www.w3.org/2000/svg" xmlns:xlink="http://www.w3.org/1999/xlink" xml:space="preserve" width="128" height="128" viewBox="0 0 128 128">
    <defs>
        <linearGradient id="a">
            <stop offset="0" style="stop-color:#fafafa;stop-opacity:1"/>
            <stop offset="1" style="stop-color:#fff;stop-opacity:1"/>
        </linearGradient>
        <linearGradient xlink:href="#a" id="b" x1="64" x2="64" y1="115.548" y2="11.548" gradientUnits="userSpaceOnUse"/>
    </defs>
    <path d="M30 12.451c-3.324 0-6 2.676-6 6v92.002c0 3.324 2.676 6 6 6h68c3.324 0 6-2.676 6-6V42.984L80.957 12.998h1.115l-.42-.547z" style="fill:#999;fill-opacity:1;fill-rule:evenodd;stroke-width:1.34773"/>
    <path d="M30 11.548c-3.324 0-6 2.676-6 6v92c0 3.324 2.676 6 6 6h68c3.324 0 6-2.676 6-6V41.534L80.957 11.548Z" style="fill:url(#b);fill-opacity:1;fill-rule:evenodd;stroke-width:1.34773"/>
    <path d="M30 12.999a4.507 4.507 0 0 0-4.549 4.549v92A4.507 4.507 0 0 0 30 114.097h68a4.507 4.507 0 0 0 4.549-4.55v-69.9L82.072 12.999Z" style="fill:#ececec;fill-opacity:1;fill-rule:evenodd;stroke-width:1.34773"/>
    <path d="M80.957 11.548v24.89c0 3.324 2.676 6 6 6H104v-.904z" style="fill:#787878;fill-opacity:1;fill-rule:evenodd;stroke-width:1.4"/>
    <path d="M104 41.534 80.957 11.548v23.986c0 3.324 2.676 6 6 6z" style="fill:#dedede;fill-opacity:1;fill-rule:evenodd;stroke-width:1.4"/>
    <path d="M-67 75.445q-2.793 0-4.748-1.956t-1.956-4.748 1.956-4.748T-67 62.037t4.748 1.956 1.956 4.748-1.956 4.748T-67 75.445M-80.407 97.79V80.528q-2.123-2.346-3.296-5.363-1.173-3.016-1.173-6.424 0-7.486 5.195-12.681T-67 50.865t12.681 5.195 5.195 12.681q0 3.408-1.173 6.424t-3.296 5.363V97.79L-67 93.321ZM-67 82.148q5.586 0 9.497-3.91t3.91-9.497-3.91-9.497-9.497-3.91-9.497 3.91-3.91 9.497 3.91 9.497 9.497 3.91" style="fill:#e93c3c;fill-opacity:1;stroke-width:.055864" transform="translate(131 1.5)"/>
    <path d="M-53.592 80.55a17.88 17.88 0 0 1-13.409 6.067 17.88 17.88 0 0 1-13.406-6.066V97.79l13.406-4.468 13.409 4.468z" style="fill:#417ad5;fill-opacity:1;stroke-width:.055864" transform="translate(131 1.5)"/>
</svg>
