<svg xmlns="http://www.w3.org/2000/svg" xmlns:xlink="http://www.w3.org/1999/xlink" xml:space="preserve" width="128" height="128" viewBox="0 0 128 128">
    <defs>
        <linearGradient id="a">
            <stop offset="0" style="stop-color:#fafafa;stop-opacity:1"/>
            <stop offset="1" style="stop-color:#fff;stop-opacity:1"/>
        </linearGradient>
        <linearGradient xlink:href="#a" id="b" x1="64" x2="64" y1="115.548" y2="11.548" gradientUnits="userSpaceOnUse"/>
    </defs>
    <path d="M30 12.451c-3.324 0-6 2.676-6 6v92.002c0 3.324 2.676 6 6 6h68c3.324 0 6-2.676 6-6V42.984L80.957 12.998h1.115l-.42-.547z" style="fill:#999;fill-opacity:1;fill-rule:evenodd;stroke-width:1.34773"/>
    <path d="M30 11.548c-3.324 0-6 2.676-6 6v92c0 3.324 2.676 6 6 6h68c3.324 0 6-2.676 6-6V41.534L80.957 11.548Z" style="fill:url(#b);fill-opacity:1;fill-rule:evenodd;stroke-width:1.34773"/>
    <path d="M30 12.999a4.507 4.507 0 0 0-4.549 4.549v92A4.507 4.507 0 0 0 30 114.097h68a4.507 4.507 0 0 0 4.549-4.55v-69.9L82.072 12.999Z" style="fill:#ececec;fill-opacity:1;fill-rule:evenodd;stroke-width:1.34773"/>
    <path d="M80.957 11.548v24.89c0 3.324 2.676 6 6 6H104v-.904z" style="fill:#787878;fill-opacity:1;fill-rule:evenodd;stroke-width:1.4"/>
    <path d="M104 41.534 80.957 11.548v23.986c0 3.324 2.676 6 6 6z" style="fill:#dedede;fill-opacity:1;fill-rule:evenodd;stroke-width:1.4"/>
    <path fill="#3d3846" d="M65.56 72.16c-1.954 0-2.83.74-5.457 4.85l-3.705 5.862-1.752-5.996c-1.079-3.773-2.56-4.716-4.31-4.716-1.955 0-4.313 1.683-7.346 5.119-.337.27.27.877.54.54 1.82-1.887 3.368-2.762 4.513-2.762.943 0 2.292.47 3.369 4.04l2.29 7.682-4.716 7.006c-1.076 1.549-2.088 2.02-2.963 2.02-1.347 0-1.482-1.346-3.033-1.346-1.076 0-1.818.673-1.953 1.617-.269 1.818 1.616 3.367 3.369 3.367 2.022 0 2.897-.809 5.457-4.918l4.176-6.6 2.157 7.274c1.01 3.504 2.29 4.244 4.04 4.244 1.954 0 4.313-1.75 7.344-5.12.338-.336-.202-.874-.539-.606-1.818 1.887-3.3 2.762-4.445 2.762-1.01 0-2.224-.27-3.168-3.436l-2.694-9.095 4.245-6.197c1.078-1.482 2.088-2.02 2.963-2.02 1.347 0 1.482 1.346 3.033 1.346 1.076 0 1.818-.673 1.953-1.617.269-1.752-1.617-3.3-3.369-3.3m0 0" style="stroke-width:.727194"/>
    <path d="M93.205 63.28q-1.004 0-1.684.679l-10 10-2.19 2.191-10 10 5.843 5.846 10-10 2.193-2.193 10-10q.679-.679.678-1.682 0-1.004-.678-1.683l-2.48-2.479q-.679-.68-1.682-.68" style="stroke-width:.0295206;fill:#c87137;fill-opacity:1"/>
    <path d="M68.237 94.475q-.62.148-1.077-.31-.458-.457-.31-1.077l1.033-5.019 5.373 5.373z" style="stroke-width:.0295206;fill:#3d3846;fill-opacity:1"/>
</svg>
