<svg xmlns="http://www.w3.org/2000/svg" xmlns:xlink="http://www.w3.org/1999/xlink" xml:space="preserve" width="128" height="128" viewBox="0 0 128 128">
    <defs>
        <linearGradient id="b">
            <stop offset="0" style="stop-color:#fb8e56;stop-opacity:1"/>
            <stop offset="1" style="stop-color:#fded9a;stop-opacity:1"/>
        </linearGradient>
        <linearGradient id="a">
            <stop offset="0" style="stop-color:#e9552d;stop-opacity:1"/>
            <stop offset="1" style="stop-color:#fcb149;stop-opacity:1"/>
        </linearGradient>
        <linearGradient xlink:href="#a" id="d" x1="64" x2="65.75" y1="119.648" y2="44.773" gradientTransform="translate(-4.694 -19.155)scale(1.07334)" gradientUnits="userSpaceOnUse"/>
        <linearGradient xlink:href="#b" id="c" x1="64" x2="64" y1="115.548" y2="35.548" gradientTransform="translate(-4.694 -19.155)scale(1.07334)" gradientUnits="userSpaceOnUse"/>
    </defs>
    <rect width="85.867" height="85.867" x="21.067" y="19.972" rx="14.219" ry="14.219" style="fill:#b53d00;fill-opacity:1;fill-rule:evenodd;stroke:none;stroke-width:5.02897"/>
    <rect width="85.867" height="85.867" x="21.067" y="19" rx="14.219" ry="14.219" style="fill:url(#c);fill-rule:evenodd;stroke:none;stroke-width:5.02897"/>
    <path d="M35.285 21.85c-6.869 0-12.34 5.47-12.34 12.34v57.43a12.27 12.27 0 0 0 12.34 12.339h57.43c6.869 0 12.34-5.47 12.34-12.34V34.19c0-6.869-5.471-12.34-12.34-12.34z" style="fill:url(#d);fill-opacity:1;fill-rule:evenodd;stroke:none;stroke-width:5.02897" transform="translate(-.177 -1.148)"/>
    <path d="M22.768 74.557V90.47a12.25 12.25 0 0 0 8.244 11.64V76.703c0-1.19-.958-2.146-2.147-2.146zm14.814-8.867a2.14 2.14 0 0 0-2.146 2.146v34.975h10.427V67.836c0-1.19-.959-2.147-2.148-2.147zm29.352-6.995c-1.19 0-2.147.958-2.147 2.147v41.969h10.426V60.842c0-1.19-.957-2.147-2.147-2.147zm14.673-3.027a2.14 2.14 0 0 0-2.146 2.146v44.997h10.428V57.814a2.14 2.14 0 0 0-2.147-2.146zM52.258 49.54a2.14 2.14 0 0 0-2.147 2.146v51.125H60.54V51.686c0-1.19-.957-2.147-2.146-2.147zm44.34 22.538c-1.19 0-2.147.957-2.147 2.147v28.425a12.25 12.25 0 0 0 10.426-12.18V74.226c0-1.19-.957-2.147-2.147-2.147z" style="opacity:.35;mix-blend-mode:screen;fill:#fff;fill-opacity:.4016;fill-rule:evenodd;stroke:none;stroke-width:4.29335"/>
    <path d="M58.037 91.32q-4.92 0-8.423-3.504t-3.503-8.423 3.503-8.422 8.423-3.504q1.714 0 3.168.41 1.453.41 2.795 1.23V37.652h17.889v11.926H69.963v29.815q0 4.92-3.503 8.423t-8.423 3.503" style="fill:#b53d00;fill-opacity:1;stroke-width:.0745373"/>
    <path d="M58.037 90.348q-4.92 0-8.423-3.504t-3.503-8.422 3.503-8.423 8.423-3.503q1.714 0 3.168.41 1.453.41 2.795 1.23V36.68h17.889v11.926H69.963v29.815q0 4.92-3.503 8.422-3.504 3.504-8.423 3.504" style="fill:#fffffe;fill-opacity:1;stroke-width:.0745373"/>
</svg>
