<svg xmlns="http://www.w3.org/2000/svg" xmlns:xlink="http://www.w3.org/1999/xlink" xml:space="preserve" width="128" height="128" viewBox="0 0 128 128">
    <defs>
        <linearGradient id="a">
            <stop offset="0" style="stop-color:#ff9d67;stop-opacity:1"/>
            <stop offset="1" style="stop-color:#ffd6bf;stop-opacity:1"/>
        </linearGradient>
        <linearGradient xlink:href="#a" id="b" x1="64" x2="64" y1="115.548" y2="11.548" gradientUnits="userSpaceOnUse"/>
    </defs>
    <path d="M30 12.451c-3.324 0-6 2.676-6 6v92.002c0 3.324 2.676 6 6 6h68c3.324 0 6-2.676 6-6V42.984L80.957 12.998h1.115l-.42-.547z" style="fill:#862f00;fill-opacity:1;fill-rule:evenodd;stroke-width:1.34773"/>
    <path d="M30 11.548c-3.324 0-6 2.676-6 6v92c0 3.324 2.676 6 6 6h68c3.324 0 6-2.676 6-6V41.534L80.957 11.548Z" style="fill:url(#b);fill-opacity:1;fill-rule:evenodd;stroke-width:1.34773"/>
    <path d="M30 12.999a4.507 4.507 0 0 0-4.549 4.549v92A4.507 4.507 0 0 0 30 114.097h68a4.507 4.507 0 0 0 4.549-4.55v-69.9L82.072 12.999Z" style="fill:#ff5a00;fill-opacity:1;fill-rule:evenodd;stroke-width:1.34773"/>
    <path d="M80.957 11.548v24.89c0 3.324 2.676 6 6 6H104v-.904z" style="fill:#862f00;fill-opacity:1;fill-rule:evenodd;stroke-width:1.4"/>
    <path d="M104 41.534 80.957 11.548v23.986c0 3.324 2.676 6 6 6z" style="fill:#ffb68e;fill-opacity:1;fill-rule:evenodd;stroke-width:1.4"/>
    <g style="fill:#f9f9f9">
        <path d="M-104.03 74.515a3.62 3.62 0 0 1-3.62-3.62 3.62 3.62 0 0 1 3.62-3.622 3.62 3.62 0 0 1 3.622 3.621 3.62 3.62 0 0 1-3.621 3.621m-.001-9.847a3.62 3.62 0 0 1-3.62-3.62 3.62 3.62 0 0 1 3.62-3.622 3.62 3.62 0 0 1 3.622 3.621c0 2.033-1.588 3.621-3.621 3.621m9.847 9.847a3.62 3.62 0 0 1-3.621-3.62 3.62 3.62 0 0 1 3.62-3.622 3.62 3.62 0 0 1 3.622 3.621 3.62 3.62 0 0 1-3.621 3.621m0-9.847a3.62 3.62 0 0 1-3.621-3.62 3.62 3.62 0 0 1 3.62-3.622 3.62 3.62 0 0 1 3.622 3.621c0 2.033-1.588 3.621-3.621 3.621m0-9.847a3.62 3.62 0 0 1-3.621-3.621 3.62 3.62 0 0 1 3.62-3.621A3.62 3.62 0 0 1-90.56 51.2c0 2.033-1.588 3.621-3.621 3.621m9.846 9.847a3.62 3.62 0 0 1-3.621-3.62 3.62 3.62 0 0 1 3.62-3.622 3.62 3.62 0 0 1 3.622 3.621 3.62 3.62 0 0 1-3.621 3.621m0-9.847a3.62 3.62 0 0 1-3.621-3.621 3.62 3.62 0 0 1 3.62-3.621 3.62 3.62 0 0 1 3.622 3.621 3.62 3.62 0 0 1-3.621 3.621m9.847 9.847a3.62 3.62 0 0 1-3.621-3.62 3.62 3.62 0 0 1 3.62-3.622 3.62 3.62 0 0 1 3.622 3.621c-.064 2.033-1.652 3.621-3.621 3.621m0-9.847A3.62 3.62 0 0 1-78.11 51.2a3.62 3.62 0 0 1 3.62-3.621 3.62 3.62 0 0 1 3.622 3.621c-.064 2.033-1.652 3.621-3.621 3.621m9.784 19.694a3.62 3.62 0 0 1-3.62-3.62 3.62 3.62 0 0 1 3.62-3.622 3.62 3.62 0 0 1 3.621 3.621 3.62 3.62 0 0 1-3.62 3.621m-.001-9.847a3.62 3.62 0 0 1-3.62-3.62 3.62 3.62 0 0 1 3.62-3.622 3.62 3.62 0 0 1 3.621 3.621c0 2.033-1.588 3.621-3.62 3.621m-.001-9.847a3.62 3.62 0 0 1-3.62-3.621 3.62 3.62 0 0 1 3.62-3.621 3.62 3.62 0 0 1 3.621 3.621c0 2.033-1.588 3.621-3.62 3.621m9.846 19.694a3.62 3.62 0 0 1-3.62-3.62 3.62 3.62 0 0 1 3.62-3.622 3.62 3.62 0 0 1 3.622 3.621c0 1.97-1.652 3.621-3.622 3.621m0-9.847a3.62 3.62 0 0 1-3.62-3.62 3.62 3.62 0 0 1 3.62-3.622 3.62 3.62 0 0 1 3.622 3.621 3.62 3.62 0 0 1-3.622 3.621" class="st1" style="fill:#f9f9f9;stroke-width:.635293" transform="translate(144.206 15.965)scale(1.0096)"/>
    </g>
</svg>
