<svg xmlns="http://www.w3.org/2000/svg" xmlns:xlink="http://www.w3.org/1999/xlink" xml:space="preserve" width="128" height="128" viewBox="0 0 128 128">
    <defs>
        <linearGradient id="a">
            <stop offset="0" style="stop-color:#fafafa;stop-opacity:1"/>
            <stop offset="1" style="stop-color:#fff;stop-opacity:1"/>
        </linearGradient>
        <linearGradient xlink:href="#a" id="b" x1="64" x2="64" y1="115.548" y2="11.548" gradientTransform="translate(0 1.178)" gradientUnits="userSpaceOnUse"/>
        <marker id="d" markerHeight="1" markerWidth="1" orient="auto-start-reverse" preserveAspectRatio="xMidYMid" refX="0" refY="0" style="overflow:visible" viewBox="0 0 1 1">
            <path d="M3-3 0 0l3 3" style="fill:none;stroke:context-stroke;stroke-width:1;stroke-linecap:butt" transform="rotate(180 .125 0)"/>
        </marker>
        <marker id="c" markerHeight="1" markerWidth="1" orient="auto-start-reverse" preserveAspectRatio="xMidYMid" refX="0" refY="0" style="overflow:visible" viewBox="0 0 1 1">
            <path d="M3-3 0 0l3 3" style="fill:none;stroke:context-stroke;stroke-width:1;stroke-linecap:butt" transform="rotate(180 .125 0)"/>
        </marker>
    </defs>
    <path d="M30 12.451c-3.324 0-6 2.676-6 6v92.002c0 3.324 2.676 6 6 6h68c3.324 0 6-2.676 6-6V42.984L80.957 12.998h1.115l-.42-.547z" style="fill:#999;fill-opacity:1;fill-rule:evenodd;stroke-width:1.34773"/>
    <path d="M30 12.726c-3.324 0-6 2.676-6 6v92c0 3.324 2.676 6 6 6h68c3.324 0 6-2.676 6-6V42.712L80.957 12.726Z" style="fill:url(#b);fill-opacity:1;fill-rule:evenodd;stroke-width:1.34773"/>
    <path d="M30 12.999a4.507 4.507 0 0 0-4.549 4.549v92A4.507 4.507 0 0 0 30 114.097h68a4.507 4.507 0 0 0 4.549-4.55v-69.9L82.072 12.999Z" style="fill:#ececec;fill-opacity:1;fill-rule:evenodd;stroke-width:1.34773"/>
    <path d="M80.957 11.548v24.89c0 3.324 2.676 6 6 6H104v-.904z" style="fill:#787878;fill-opacity:1;fill-rule:evenodd;stroke-width:1.4"/>
    <path d="M104 41.534 80.957 11.548v23.986c0 3.324 2.676 6 6 6z" style="fill:#dedede;fill-opacity:1;fill-rule:evenodd;stroke-width:1.4"/>
    <path d="m88.13 52.398.22 49.994" style="fill:#b3b3b3;fill-opacity:1;fill-rule:evenodd;stroke:#b5b5b5;stroke-width:1.22085;stroke-dasharray:none;stroke-dashoffset:0;stroke-opacity:1;marker-start:url(#c);marker-end:url(#d)"/>
    <path d="m96.571 90.744-65.142.093" style="fill:#b3b3b3;fill-opacity:1;fill-rule:evenodd;stroke:#b5b5b5;stroke-width:.907292;stroke-dasharray:none;stroke-dashoffset:0;stroke-opacity:1"/>
    <path d="M46.543 89.346v1.035h-8.605v-1.035l2.966-.526L49.82 64h3.707l9.268 24.82 3.318.526v1.035H55.05v-1.035l3.512-.526-2.595-7.552H45.665L43.03 88.82zm4.195-22.536L46.25 79.512h9.112z" style="font-size:39.961px;font-family:&quot;Liberation Serif&quot;;-inkscape-font-specification:&quot;Liberation Serif&quot;;fill:#4d4d4d;fill-rule:evenodd;stroke-width:5.99414"/>
    <path d="m81.801 89.015 2.205.487-.156.879h-5.56l.565-3.044q-3.298 3.453-6.03 3.453-2.36 0-3.804-1.736-1.425-1.737-1.425-4.78 0-3.415 1.483-6.381 1.503-2.986 4-4.644 2.498-1.678 5.425-1.678 2.36 0 4.449.82l.878-.664h1.053zm-.566-14.966q-.76-.527-1.424-.722-.663-.215-1.639-.215-1.951 0-3.59 1.483-1.62 1.464-2.556 3.961-.937 2.498-.937 5.21 0 2.088.859 3.336.858 1.25 2.341 1.25 2.205 0 4.82-2.713z" style="font-size:39.961px;font-family:&quot;Liberation Serif&quot;;-inkscape-font-specification:&quot;Liberation Serif Italic&quot;;fill:#4d4d4d;fill-rule:evenodd;stroke-width:5.99414"/>
</svg>
