<svg xmlns="http://www.w3.org/2000/svg" xmlns:xlink="http://www.w3.org/1999/xlink" xml:space="preserve" width="128" height="128" viewBox="0 0 128 128">
    <defs>
        <linearGradient id="a">
            <stop offset="0" style="stop-color:#fafafa;stop-opacity:1"/>
            <stop offset="1" style="stop-color:#fff;stop-opacity:1"/>
        </linearGradient>
        <linearGradient xlink:href="#a" id="b" x1="64" x2="64" y1="115.548" y2="11.548" gradientUnits="userSpaceOnUse"/>
    </defs>
    <path d="M30 12.451c-3.324 0-6 2.676-6 6v92.002c0 3.324 2.676 6 6 6h68c3.324 0 6-2.676 6-6V42.984L80.957 12.998h1.115l-.42-.547z" style="fill:#999;fill-opacity:1;fill-rule:evenodd;stroke-width:1.34773"/>
    <path d="M30 11.548c-3.324 0-6 2.676-6 6v92c0 3.324 2.676 6 6 6h68c3.324 0 6-2.676 6-6V41.534L80.957 11.548Z" style="fill:url(#b);fill-opacity:1;fill-rule:evenodd;stroke-width:1.34773"/>
    <path d="M30 12.999a4.507 4.507 0 0 0-4.549 4.549v92A4.507 4.507 0 0 0 30 114.097h68a4.507 4.507 0 0 0 4.549-4.55v-69.9L82.072 12.999Z" style="fill:#ececec;fill-opacity:1;fill-rule:evenodd;stroke-width:1.34773"/>
    <path d="M80.957 11.548v24.89c0 3.324 2.676 6 6 6H104v-.904z" style="fill:#787878;fill-opacity:1;fill-rule:evenodd;stroke-width:1.4"/>
    <path d="M104 41.534 80.957 11.548v23.986c0 3.324 2.676 6 6 6z" style="fill:#dedede;fill-opacity:1;fill-rule:evenodd;stroke-width:1.4"/>
    <path d="M64 99.935q-4.612 0-8.719-1.772-4.106-1.771-7.172-4.837t-4.837-7.172-1.772-8.719q0-4.668 1.772-8.747t4.837-7.143q3.066-3.066 7.172-4.838 4.107-1.772 8.719-1.772 4.669 0 8.747 1.772t7.144 4.838 4.837 7.143 1.772 8.747q0 4.613-1.772 8.72-1.772 4.105-4.837 7.171-3.066 3.066-7.144 4.837-4.078 1.772-8.747 1.772m0-4.612q1.463-2.025 2.531-4.219t1.744-4.669h-8.55q.675 2.475 1.744 4.67 1.069 2.193 2.531 4.218m-5.85-.9q-1.012-1.856-1.772-3.853t-1.266-4.135h-6.637q1.631 2.813 4.078 4.894t5.597 3.094m11.7 0q3.15-1.013 5.597-3.094t4.078-4.894h-6.637q-.507 2.138-1.266 4.135-.76 1.997-1.772 3.853M46.563 81.935h7.65q-.17-1.125-.254-2.222t-.084-2.278q0-1.18.084-2.278.085-1.097.253-2.222h-7.65q-.28 1.125-.421 2.222T46 77.435t.14 2.278.422 2.222m12.15 0h10.574q.17-1.125.254-2.222t.084-2.278q0-1.18-.084-2.278-.085-1.097-.254-2.222H58.712q-.168 1.125-.253 2.222t-.084 2.278.084 2.278q.085 1.097.253 2.222m15.074 0h7.65q.282-1.125.422-2.222T82 77.435q0-1.18-.14-2.278-.141-1.097-.422-2.222h-7.65q.168 1.125.253 2.222t.084 2.278-.084 2.278q-.085 1.097-.254 2.222m-.9-13.5h6.638q-1.631-2.812-4.078-4.893t-5.597-3.094q1.013 1.856 1.772 3.853t1.265 4.134m-13.162 0h8.55q-.675-2.475-1.744-4.668T64 59.547q-1.462 2.026-2.531 4.22t-1.744 4.668m-11.25 0h6.637q.507-2.137 1.266-4.134.76-1.997 1.772-3.853-3.15 1.012-5.597 3.094-2.447 2.08-4.078 4.893" style="fill:#5b8ad2;stroke-width:.05625;fill-opacity:1"/>
</svg>
