<svg xmlns="http://www.w3.org/2000/svg" xml:space="preserve" width="128" height="128" viewBox="0 0 128 128">
    <path d="M30.154 12.403c-3.41 0-6.154 3.572-6.154 8.008v88.082c0 4.436 2.745 8.007 6.154 8.007h67.692c3.41 0 6.154-3.571 6.154-8.007V41.487L81.65 12.403Z" style="display:inline;fill:#008435;stroke-width:.331641;stroke-linecap:round;stroke-linejoin:round;fill-opacity:1"/>
    <path d="M80.956 11.5 104 41.487v66.102c0 4.437-2.745 8.008-6.154 8.008H30.154c-3.41 0-6.154-3.572-6.154-8.008V19.507c0-4.436 2.745-8.007 6.154-8.007z" style="display:inline;fill:#70d799;fill-opacity:1;stroke-width:.331641;stroke-linecap:round;stroke-linejoin:round"/>
    <path d="m82.07 12.95 20.814 27.084v66.326c0 4.312-2.667 7.784-5.981 7.784H31.097c-3.314 0-5.98-3.472-5.98-7.784V20.735c0-4.312 2.666-7.784 5.98-7.784z" style="display:inline;fill:#26b65f;fill-opacity:1;stroke-width:.322389;stroke-linecap:round;stroke-linejoin:round"/>
    <path d="M80.956 12.54v21.354c0 4.782 2.96 8.633 6.635 8.633H104v-1.04l-3.284-4.272-.056-.023-.297.6z" style="display:inline;fill:#006629;fill-opacity:1;stroke-width:.357539;stroke-linecap:round;stroke-linejoin:round"/>
    <path d="M80.956 11.5 104 41.487H87.59c-3.675 0-6.634-3.85-6.634-8.633z" style="display:inline;fill:#bbedcf;fill-opacity:1;stroke-width:.357539;stroke-linecap:round;stroke-linejoin:round"/>
    <path d="M45.39 98.473q-2.193 0-3.755-1.562t-1.562-3.755v-37.22q0-2.193 1.562-3.755t3.755-1.562h37.22q2.193 0 3.755 1.562t1.562 3.755v37.22q0 2.193-1.562 3.755t-3.755 1.562zm15.951-15.951H45.39v10.634h15.951zm5.318 0v10.634H82.61V82.522Zm-5.318-5.317V66.57H45.39v10.635zm5.318 0H82.61V66.57H66.659ZM45.39 61.253h37.22v-5.317H45.39Z" style="fill:#d7f4e3;fill-opacity:1;stroke-width:.0664643"/>
</svg>
