<svg xmlns="http://www.w3.org/2000/svg" xmlns:xlink="http://www.w3.org/1999/xlink" xml:space="preserve" width="128" height="128" viewBox="0 0 128 128">
    <defs>
        <path id="a" d="M29.583 0H4.438A4.45 4.45 0 0 0 0 4.438v56.208a4.45 4.45 0 0 0 4.438 4.437h38.458a4.45 4.45 0 0 0 4.437-4.437V17.75z"/>
        <mask id="b" fill="#fff">
            <use xlink:href="#a"/>
        </mask>
    </defs>
    <path d="M30.154 12.403c-3.41 0-6.154 3.572-6.154 8.008v88.082c0 4.436 2.745 8.007 6.154 8.007h67.692c3.41 0 6.154-3.571 6.154-8.007V41.487L81.65 12.403Z" style="display:inline;fill:#a27a08;fill-opacity:1;stroke-width:.331641;stroke-linecap:round;stroke-linejoin:round"/>
    <path d="M80.956 11.5 104 41.487v66.102c0 4.437-2.745 8.008-6.154 8.008H30.154c-3.41 0-6.154-3.572-6.154-8.008V19.507c0-4.436 2.745-8.007 6.154-8.007z" style="display:inline;fill:#fbe093;fill-opacity:1;stroke-width:.331641;stroke-linecap:round;stroke-linejoin:round"/>
    <path d="m82.07 12.95 20.814 27.084v66.326c0 4.312-2.667 7.784-5.981 7.784H31.097c-3.314 0-5.98-3.472-5.98-7.784V20.735c0-4.312 2.666-7.784 5.98-7.784z" style="display:inline;fill:#f7b706;fill-opacity:1;stroke-width:.322389;stroke-linecap:round;stroke-linejoin:round"/>
    <path d="M80.956 12.54v21.354c0 4.782 2.96 8.633 6.635 8.633H104v-1.04l-3.284-4.272-.056-.023-.297.6z" style="display:inline;fill:#8f6b07;fill-opacity:1;stroke-width:.357539;stroke-linecap:round;stroke-linejoin:round"/>
    <path d="M80.956 11.5 104 41.487H87.59c-3.675 0-6.634-3.85-6.634-8.633z" style="display:inline;fill:#fbe6aa;fill-opacity:1;stroke-width:.357539;stroke-linecap:round;stroke-linejoin:round"/>
    <path fill="#f1f1f1" d="M33.281 29.583H14.052c-1.22 0-2.219.999-2.219 2.22V51.03c0 1.22.999 2.219 2.22 2.219H33.28c1.22 0 2.219-.998 2.219-2.219V31.802c0-1.22-.998-2.219-2.219-2.219m-.74 17.01H14.79V36.24h17.75z" mask="url(#b)" style="stroke:none;stroke-width:1" transform="translate(22.312 4.49)scale(1.76148)"/>
</svg>
