<svg xmlns="http://www.w3.org/2000/svg" xmlns:xlink="http://www.w3.org/1999/xlink" xml:space="preserve" width="128" height="128" viewBox="0 0 128 128">
    <defs>
        <linearGradient id="a">
            <stop offset="0" style="stop-color:#fafafa;stop-opacity:1"/>
            <stop offset="1" style="stop-color:#fff;stop-opacity:1"/>
        </linearGradient>
        <linearGradient xlink:href="#a" id="b" x1="64" x2="64" y1="115.548" y2="11.548" gradientUnits="userSpaceOnUse"/>
    </defs>
    <path d="M30 12.451c-3.324 0-6 2.676-6 6v92.002c0 3.324 2.676 6 6 6h68c3.324 0 6-2.676 6-6V42.984L80.957 12.998h1.115l-.42-.547z" style="fill:#999;fill-opacity:1;fill-rule:evenodd;stroke-width:1.34773"/>
    <path d="M30 11.548c-3.324 0-6 2.676-6 6v92c0 3.324 2.676 6 6 6h68c3.324 0 6-2.676 6-6V41.534L80.957 11.548Z" style="fill:url(#b);fill-opacity:1;fill-rule:evenodd;stroke-width:1.34773"/>
    <path d="M30 12.999a4.507 4.507 0 0 0-4.549 4.549v92A4.507 4.507 0 0 0 30 114.097h68a4.507 4.507 0 0 0 4.549-4.55v-69.9L82.072 12.999Z" style="fill:#ececec;fill-opacity:1;fill-rule:evenodd;stroke-width:1.34773"/>
    <path d="M80.957 11.548v24.89c0 3.324 2.676 6 6 6H104v-.904z" style="fill:#787878;fill-opacity:1;fill-rule:evenodd;stroke-width:1.4"/>
    <path d="M104 41.534 80.957 11.548v23.986c0 3.324 2.676 6 6 6z" style="fill:#dedede;fill-opacity:1;fill-rule:evenodd;stroke-width:1.4"/>
    <path d="M64 99.458q-8.843 0-14.963-3.032t-6.12-7.4v-26.08q0-4.304 6.179-7.368Q55.274 52.513 64 52.513t14.904 3.065q6.179 3.064 6.179 7.368v26.08q0 4.369-6.12 7.4T64 99.458m0-31.231q5.212 0 10.483-1.663 5.27-1.662 5.915-3.553-.645-1.891-5.886-3.586Q69.271 57.729 64 57.729q-5.33 0-10.453 1.663-5.125 1.663-5.945 3.619.82 1.956 5.945 3.586 5.124 1.63 10.453 1.63m0 12.975q2.46 0 4.744-.26 2.284-.262 4.362-.75 2.08-.49 3.924-1.207 1.845-.717 3.368-1.63v-7.824q-1.523.913-3.368 1.63t-3.924 1.206q-2.078.49-4.362.75t-4.744.26-4.802-.26q-2.343-.26-4.422-.75-2.079-.489-3.894-1.206t-3.28-1.63v7.824q1.465.913 3.28 1.63t3.894 1.206 4.422.75 4.802.26m0 13.04q2.694 0 5.476-.456 2.781-.457 5.124-1.206 2.342-.75 3.924-1.696 1.58-.945 1.874-1.923v-6.39q-1.523.913-3.368 1.63t-3.924 1.206q-2.078.49-4.362.75-2.284.261-4.744.261t-4.802-.26q-2.343-.262-4.422-.75-2.079-.49-3.894-1.207t-3.28-1.63v6.455q.293.978 1.845 1.891t3.895 1.663 5.153 1.206 5.505.456" style="fill:#b281be;fill-opacity:1;stroke-width:.0617928"/>
</svg>
