<svg xmlns="http://www.w3.org/2000/svg" xml:space="preserve" width="128" height="128" viewBox="0 0 128 128">
    <path d="M30.154 12.403c-3.41 0-6.154 3.572-6.154 8.008v88.082c0 4.436 2.745 8.007 6.154 8.007h67.692c3.41 0 6.154-3.571 6.154-8.007V41.487L81.65 12.403Z" style="display:inline;fill:#3a5b8e;fill-opacity:1;stroke-width:.331641;stroke-linecap:round;stroke-linejoin:round"/>
    <path d="M80.956 11.5 104 41.487v66.102c0 4.437-2.745 8.008-6.154 8.008H30.154c-3.41 0-6.154-3.572-6.154-8.008V19.507c0-4.436 2.745-8.007 6.154-8.007z" style="display:inline;fill:#bacef0;fill-opacity:1;stroke-width:.331641;stroke-linecap:round;stroke-linejoin:round"/>
    <path d="m82.07 12.95 20.814 27.084v66.326c0 4.312-2.667 7.784-5.981 7.784H31.097c-3.314 0-5.98-3.472-5.98-7.784V20.735c0-4.312 2.666-7.784 5.98-7.784z" style="display:inline;fill:#4686e4;fill-opacity:1;stroke-width:.322389;stroke-linecap:round;stroke-linejoin:round"/>
    <path d="M80.956 12.54v21.354c0 4.782 2.96 8.633 6.635 8.633H104v-1.04l-3.284-4.272-.056-.023-.297.6z" style="display:inline;fill:#234371;fill-opacity:1;stroke-width:.357539;stroke-linecap:round;stroke-linejoin:round"/>
    <path d="M80.956 11.5 104 41.487H87.59c-3.675 0-6.634-3.85-6.634-8.633z" style="display:inline;fill:#c1d3ee;fill-opacity:1;stroke-width:.357539;stroke-linecap:round;stroke-linejoin:round"/>
    <path d="M43.682 95.818v-4.515h40.636v4.515zm0-9.03v-4.515h27.09v4.515zm0-9.03v-4.516h40.636v4.516zm0-9.03v-4.516h27.09v4.515zm0-9.031v-4.515h40.636v4.515z" style="fill:#e8f0f9;fill-opacity:1;stroke-width:.0564394"/>
</svg>
