<svg xmlns="http://www.w3.org/2000/svg" xmlns:xlink="http://www.w3.org/1999/xlink" xml:space="preserve" width="128" height="128" viewBox="0 0 128 128">
    <defs>
        <linearGradient id="a">
            <stop offset="0" style="stop-color:#fafafa;stop-opacity:1"/>
            <stop offset="1" style="stop-color:#fff;stop-opacity:1"/>
        </linearGradient>
        <linearGradient xlink:href="#a" id="f" x1="64" x2="64" y1="115.548" y2="11.548" gradientUnits="userSpaceOnUse"/>
        <linearGradient id="e">
            <stop offset="0" style="stop-color:#7137c8;stop-opacity:1"/>
            <stop offset="1" style="stop-color:#ececec;stop-opacity:0"/>
        </linearGradient>
        <linearGradient id="d">
            <stop offset="0" style="stop-color:#fa2b82;stop-opacity:1"/>
            <stop offset="1" style="stop-color:#ececec;stop-opacity:0"/>
        </linearGradient>
        <linearGradient id="c">
            <stop offset="0" style="stop-color:#ffce11;stop-opacity:1"/>
            <stop offset="1" style="stop-color:#ececec;stop-opacity:0"/>
        </linearGradient>
        <linearGradient id="b">
            <stop offset="0" style="stop-color:#ff5357;stop-opacity:1"/>
            <stop offset="1" style="stop-color:#ececec;stop-opacity:0"/>
        </linearGradient>
        <radialGradient xlink:href="#b" id="g" cx="33.241" cy="35.372" r="38.549" fx="33.241" fy="35.372" gradientTransform="matrix(0 2.21941 -2.9103 0 146.779 -25.96)" gradientUnits="userSpaceOnUse"/>
        <radialGradient xlink:href="#c" id="i" cx="92.311" cy="35.159" r="38.549" fx="92.311" fy="35.159" gradientTransform="matrix(-1.5441 0 0 -2.02477 225.097 118.822)" gradientUnits="userSpaceOnUse"/>
        <radialGradient xlink:href="#d" id="h" cx="143.857" cy="-14.495" r="38.549" fx="143.857" fy="-14.495" gradientTransform="matrix(1.32535 0 0 2.17961 -148.584 130.362)" gradientUnits="userSpaceOnUse"/>
        <radialGradient xlink:href="#e" id="j" cx="197.281" cy="-14.495" r="38.549" fx="197.281" fy="-14.495" gradientTransform="matrix(0 -1.7822 1.75597 0 109.488 450.364)" gradientUnits="userSpaceOnUse"/>
    </defs>
    <path d="M30 12.451c-3.324 0-6 2.676-6 6v92.002c0 3.324 2.676 6 6 6h68c3.324 0 6-2.676 6-6V42.984L80.957 12.998h1.115l-.42-.547z" style="fill:#999;fill-opacity:1;fill-rule:evenodd;stroke-width:1.34773"/>
    <path d="M30 11.548c-3.324 0-6 2.676-6 6v92c0 3.324 2.676 6 6 6h68c3.324 0 6-2.676 6-6V41.534L80.957 11.548Z" style="fill:url(#f);fill-opacity:1;fill-rule:evenodd;stroke-width:1.34773"/>
    <path d="M30 12.999a4.507 4.507 0 0 0-4.549 4.549v92A4.507 4.507 0 0 0 30 114.097h68a4.507 4.507 0 0 0 4.549-4.55v-69.9L82.072 12.999Z" style="fill:#ececec;fill-opacity:1;fill-rule:evenodd;stroke-width:1.34773"/>
    <path d="M80.957 11.548v24.89c0 3.324 2.676 6 6 6H104v-.904z" style="fill:#787878;fill-opacity:1;fill-rule:evenodd;stroke-width:1.4"/>
    <path d="M104 41.534 80.957 11.548v23.986c0 3.324 2.676 6 6 6z" style="fill:#dedede;fill-opacity:1;fill-rule:evenodd;stroke-width:1.4"/>
    <path d="M47.79 49.041a8 8 0 0 0-.491.008 3.71 3.71 0 0 0-3.115 2.111 7.5 7.5 0 0 0-.36 2.746 7.5 7.5 0 0 0 0 1.653v39.485a8 8 0 0 0 .008.493 3.71 3.71 0 0 0 2.422 3.246 7.5 7.5 0 0 0 2.608.229h31.373a8 8 0 0 0 .49-.008 3.71 3.71 0 0 0 3.306-2.598 7.5 7.5 0 0 0 .17-2.248v-.012a7.5 7.5 0 0 0 0-1.128V66.803a2.3 2.3 0 0 0-.673-1.625L67.949 49.602a1.92 1.92 0 0 0-1.355-.561zm26.472.03a.964.964 0 0 0-.682 1.644l8.996 8.996a.964.964 0 0 0 1.647-.682v-1.527a46 46 0 0 1 0-3.479v-.011l-.174-2.29a4.06 4.06 0 0 0-3.867-2.652z" style="fill:url(#g);fill-opacity:1;fill-rule:evenodd;stroke-width:.883572"/>
    <path d="M47.79 49.041a8 8 0 0 0-.491.008 3.71 3.71 0 0 0-3.115 2.111 7.5 7.5 0 0 0-.36 2.746 7.5 7.5 0 0 0 0 1.653v39.485a8 8 0 0 0 .008.493 3.71 3.71 0 0 0 2.422 3.246 7.5 7.5 0 0 0 2.608.229h31.373a8 8 0 0 0 .49-.008 3.71 3.71 0 0 0 3.306-2.598 7.5 7.5 0 0 0 .17-2.248v-.012a7.5 7.5 0 0 0 0-1.128V66.803a2.3 2.3 0 0 0-.673-1.625L67.949 49.602a1.92 1.92 0 0 0-1.355-.561zm26.472.03a.964.964 0 0 0-.682 1.644l8.996 8.996a.964.964 0 0 0 1.647-.682v-1.527a46 46 0 0 1 0-3.479v-.011l-.174-2.29a4.06 4.06 0 0 0-3.867-2.652z" style="fill:url(#h);fill-opacity:1;fill-rule:evenodd;stroke-width:.883572"/>
    <path d="M47.79 49.041a8 8 0 0 0-.491.008 3.71 3.71 0 0 0-3.115 2.111 7.5 7.5 0 0 0-.36 2.746 7.5 7.5 0 0 0 0 1.653v39.485a8 8 0 0 0 .008.493 3.71 3.71 0 0 0 2.422 3.246 7.5 7.5 0 0 0 2.608.229h31.373a8 8 0 0 0 .49-.008 3.71 3.71 0 0 0 3.306-2.598 7.5 7.5 0 0 0 .17-2.248v-.012a7.5 7.5 0 0 0 0-1.128V66.803a2.3 2.3 0 0 0-.673-1.625L67.949 49.602a1.92 1.92 0 0 0-1.355-.561zm26.472.03a.964.964 0 0 0-.682 1.644l8.996 8.996a.964.964 0 0 0 1.647-.682v-1.527a46 46 0 0 1 0-3.479v-.011l-.174-2.29a4.06 4.06 0 0 0-3.867-2.652z" style="fill:url(#i);fill-opacity:1;fill-rule:evenodd;stroke-width:.883572"/>
    <path d="M47.79 49.041a8 8 0 0 0-.491.008 3.71 3.71 0 0 0-3.115 2.111 7.5 7.5 0 0 0-.36 2.746 7.5 7.5 0 0 0 0 1.653v39.485a8 8 0 0 0 .008.493 3.71 3.71 0 0 0 2.422 3.246 7.5 7.5 0 0 0 2.608.229h31.373a8 8 0 0 0 .49-.008 3.71 3.71 0 0 0 3.306-2.598 7.5 7.5 0 0 0 .17-2.248v-.012a7.5 7.5 0 0 0 0-1.128V66.803a2.3 2.3 0 0 0-.673-1.625L67.949 49.602a1.92 1.92 0 0 0-1.355-.561zm26.472.03a.964.964 0 0 0-.682 1.644l8.996 8.996a.964.964 0 0 0 1.647-.682v-1.527a46 46 0 0 1 0-3.479v-.011l-.174-2.29a4.06 4.06 0 0 0-3.867-2.652z" style="fill:url(#j);fill-opacity:1;fill-rule:evenodd;stroke-width:.883572"/>
    <path d="M47.79 49.041a8 8 0 0 0-.491.008 3.71 3.71 0 0 0-3.115 2.111 7.5 7.5 0 0 0-.36 2.746 7.5 7.5 0 0 0 0 1.653v39.485a8 8 0 0 0 .008.493 3.71 3.71 0 0 0 2.422 3.246 7.5 7.5 0 0 0 2.608.229h31.373a8 8 0 0 0 .49-.008 3.71 3.71 0 0 0 3.306-2.598 7.5 7.5 0 0 0 .17-2.248v-.012a7.5 7.5 0 0 0 0-1.128V66.803a2.3 2.3 0 0 0-.673-1.625L67.949 49.602a1.92 1.92 0 0 0-1.355-.561zm26.472.03a.964.964 0 0 0-.682 1.644l8.996 8.996a.964.964 0 0 0 1.647-.682v-1.527a46 46 0 0 1 0-3.479v-.011l-.174-2.29a4.06 4.06 0 0 0-3.867-2.652z" style="fill:#ff2a2a;fill-opacity:.151868;fill-rule:evenodd;stroke-width:.883572"/>
</svg>
