<svg xmlns="http://www.w3.org/2000/svg" xmlns:xlink="http://www.w3.org/1999/xlink" xml:space="preserve" width="128" height="128" viewBox="0 0 128 128">
    <defs>
        <linearGradient id="a">
            <stop offset="0" style="stop-color:#fafafa;stop-opacity:1"/>
            <stop offset="1" style="stop-color:#fff;stop-opacity:1"/>
        </linearGradient>
        <linearGradient xlink:href="#a" id="b" x1="64" x2="64" y1="115.548" y2="11.548" gradientUnits="userSpaceOnUse"/>
    </defs>
    <path d="M30 12.451c-3.324 0-6 2.676-6 6v92.002c0 3.324 2.676 6 6 6h68c3.324 0 6-2.676 6-6V42.984L80.957 12.998h1.115l-.42-.547z" style="fill:#999;fill-opacity:1;fill-rule:evenodd;stroke-width:1.34773"/>
    <path d="M30 11.548c-3.324 0-6 2.676-6 6v92c0 3.324 2.676 6 6 6h68c3.324 0 6-2.676 6-6V41.534L80.957 11.548Z" style="fill:url(#b);fill-opacity:1;fill-rule:evenodd;stroke-width:1.34773"/>
    <path d="M30 12.999a4.507 4.507 0 0 0-4.549 4.549v92A4.507 4.507 0 0 0 30 114.097h68a4.507 4.507 0 0 0 4.549-4.55v-69.9L82.072 12.999Z" style="fill:#ececec;fill-opacity:1;fill-rule:evenodd;stroke-width:1.34773"/>
    <path d="M80.957 11.548v24.89c0 3.324 2.676 6 6 6H104v-.904z" style="fill:#787878;fill-opacity:1;fill-rule:evenodd;stroke-width:1.4"/>
    <path d="M104 41.534 80.957 11.548v23.986c0 3.324 2.676 6 6 6z" style="fill:#dedede;fill-opacity:1;fill-rule:evenodd;stroke-width:1.4"/>
    <path d="M45.514 66.025q-1.756 0-3.565 1.123-1.809 1.125-3.562 3.262l3.838 3.893q1.096-1.425 1.918-2.11t1.37-.685q.275 0 .41.191.138.192.138.576 0 .603-.493 1.59-.493.986-1.535 2.41-3.069 4.33-4.357 7.428-1.29 3.098-1.29 6.059 0 2.96 1.919 5.043 1.918 2.082 4.715 2.082 2.301 0 4.302-1.533 2.001-1.536 6.278-6.633a41 41 0 0 1 2.304-2.534c-.45-.181-.9-.377-1.35-.601a17 17 0 0 1-3.466-2.285 49 49 0 0 0-1.49 1.691 578 578 0 0 1-2.412 2.768 94 94 0 0 1-1.7 1.892q-1.096 1.15-1.507 1.452a1.58 1.58 0 0 1-.96.302q-.547 0-.85-.521-.3-.521-.3-1.453 0-1.698 1.014-3.946t3.097-5.209q1.92-2.685 2.74-4.603.823-1.92.823-3.51 0-2.63-1.754-4.385t-4.275-1.754M72.06 84.262q-3.064 2.667-7.057 3.033c-2.512.71-4.672 1.955-6.47 3.754q-3.373 3.371-3.374 7.539 0 2.85 2.03 4.877 2.028 2.029 4.988 2.03 4.276-.001 7.045-3.647 2.767-3.644 3.205-9.784h5.427v-5.482h-5.427a14.4 14.4 0 0 0-.367-2.32m-5.168 8.185q-.44 3.563-1.645 5.565-1.206 2-2.96 2-.769 0-1.206-.438-.439-.439-.44-1.207 0-1.754 1.864-3.535a9.4 9.4 0 0 1 4.387-2.385" style="fill:#ccc;stroke-width:.0548173"/>
    <path d="m74.818 71.266-5.311-5.312 17.286-17.286q.531-.531 1.328-.555t1.376.555l2.608 2.607q.58.58.58 1.352t-.58 1.352z" style="fill:#999;stroke-width:.0482858"/>
    <path d="M63.713 82.854q-2.173 0-4.298-1.062t-3.428-2.8q1.255 0 2.559-.99t1.304-2.873q0-2.415 1.69-4.105t4.104-1.69 4.104 1.69 1.69 4.105q0 3.187-2.27 5.456t-5.455 2.27" style="fill:#999;fill-opacity:1;stroke-width:.0482858"/>
</svg>
