<svg xmlns="http://www.w3.org/2000/svg" xmlns:xlink="http://www.w3.org/1999/xlink" xml:space="preserve" width="128" height="128" viewBox="0 0 128 128">
    <defs>
        <linearGradient id="a">
            <stop offset="0" style="stop-color:#fafafa;stop-opacity:1"/>
            <stop offset="1" style="stop-color:#fff;stop-opacity:1"/>
        </linearGradient>
        <linearGradient xlink:href="#a" id="b" x1="64" x2="64" y1="115.548" y2="11.548" gradientUnits="userSpaceOnUse"/>
    </defs>
    <path d="M30 12.451c-3.324 0-6 2.676-6 6v92.002c0 3.324 2.676 6 6 6h68c3.324 0 6-2.676 6-6V42.984L80.957 12.998h1.115l-.42-.547z" style="fill:#999;fill-opacity:1;fill-rule:evenodd;stroke-width:1.34773"/>
    <path d="M30 11.548c-3.324 0-6 2.676-6 6v92c0 3.324 2.676 6 6 6h68c3.324 0 6-2.676 6-6V41.534L80.957 11.548Z" style="fill:url(#b);fill-opacity:1;fill-rule:evenodd;stroke-width:1.34773"/>
    <path d="M30 12.999a4.507 4.507 0 0 0-4.549 4.549v92A4.507 4.507 0 0 0 30 114.097h68a4.507 4.507 0 0 0 4.549-4.55v-69.9L82.072 12.999Z" style="fill:#ececec;fill-opacity:1;fill-rule:evenodd;stroke-width:1.34773"/>
    <path d="M80.957 11.548v24.89c0 3.324 2.676 6 6 6H104v-.904z" style="fill:#787878;fill-opacity:1;fill-rule:evenodd;stroke-width:1.4"/>
    <path d="M104 41.534 80.957 11.548v23.986c0 3.324 2.676 6 6 6z" style="fill:#dedede;fill-opacity:1;fill-rule:evenodd;stroke-width:1.4"/>
    <path d="M64 53.35c-12.438 0-22.5 10.062-22.5 22.5a22.5 22.5 0 0 0 1.194 7.24h10.313c.075-.772.464-4.76 3.028-9.583 2.802-5.27 8.113-10.685 17.606-10.829v-.002h.003a1.04 1.04 0 0 1 .798.32c.108.127.186.283.222.446.075.263.04.557-.096.796-5.266 7.929-.873 17.982-.482 18.853h11.22A22.5 22.5 0 0 0 86.5 75.85c0-12.438-10.062-22.5-22.5-22.5m8.175 11.588c-7.638.684-11.92 5.058-14.327 9.584-2.58 4.852-3.057 9.682-3.057 9.682a1 1 0 0 1 0 .126c-.036.165-.115.32-.222.447a1.02 1.02 0 0 1-.765.351H43.501C47.032 92.928 54.873 98.35 64 98.35s16.968-5.422 20.499-13.222H73.32a1.04 1.04 0 0 1-.79-.447 1 1 0 0 1-.129-.128s-4.773-10.516-.227-19.615" style="fill:#4f9fde;stroke-width:1.019;fill-opacity:1"/>
</svg>
