<svg xmlns="http://www.w3.org/2000/svg" xmlns:xlink="http://www.w3.org/1999/xlink" xml:space="preserve" width="128" height="128" viewBox="0 0 128 128">
    <defs>
        <linearGradient id="a">
            <stop offset="0" style="stop-color:#ffb1b1;stop-opacity:1"/>
            <stop offset="1" style="stop-color:#ffcbcb;stop-opacity:1"/>
        </linearGradient>
        <linearGradient xlink:href="#a" id="b" x1="64" x2="64" y1="114.676" y2="10.676" gradientTransform="matrix(.8999 0 0 1.00093 6.407 .814)" gradientUnits="userSpaceOnUse"/>
    </defs>
    <path d="M30.154 12.403c-3.41 0-6.154 3.572-6.154 8.008v88.082c0 4.436 2.745 8.007 6.154 8.007h67.692c3.41 0 6.154-3.571 6.154-8.007V41.487L81.65 12.403Z" style="display:inline;fill:#c22828;fill-opacity:1;stroke-width:.331641;stroke-linecap:round;stroke-linejoin:round"/>
    <path d="M80.956 11.5 104 41.487v66.102c0 4.437-2.745 8.008-6.154 8.008H30.154c-3.41 0-6.154-3.572-6.154-8.008V19.507c0-4.436 2.745-8.007 6.154-8.007z" style="display:inline;fill:url(#b);fill-opacity:1;stroke-width:.331641;stroke-linecap:round;stroke-linejoin:round"/>
    <path d="m82.07 12.95 20.814 27.084v66.326c0 4.312-2.667 7.784-5.981 7.784H31.097c-3.314 0-5.98-3.472-5.98-7.784V20.735c0-4.312 2.666-7.784 5.98-7.784z" style="display:inline;fill:#f64939;fill-opacity:1;stroke-width:.322389;stroke-linecap:round;stroke-linejoin:round"/>
    <path d="M80.956 12.54v21.354c0 4.782 2.96 8.633 6.635 8.633H104v-1.04l-3.284-4.272-.056-.023-.297.6z" style="display:inline;fill:#7d1a1a;fill-opacity:1;stroke-width:.357539;stroke-linecap:round;stroke-linejoin:round"/>
    <path d="M80.956 11.5 104 41.487H87.59c-3.675 0-6.634-3.85-6.634-8.633z" style="display:inline;fill:#ffd1d1;fill-opacity:1;stroke-width:.357539;stroke-linecap:round;stroke-linejoin:round"/>
    <path d="M39.929 64.463V88.3h4.77v-9.534h4.764q2.028 0 3.398-1.371t1.371-3.398v-4.765q0-2.027-1.37-3.398-1.372-1.371-3.399-1.371zm19.072 0V88.3h9.535q2.026 0 3.398-1.37c.914-.915 1.37-2.044 1.37-3.395V69.232q0-2.028-1.37-3.398t-3.398-1.371zm19.069 0V88.3h4.769v-9.534h4.77v-4.77h-4.77v-4.764h4.77v-4.77zm-33.372 4.769h4.765v4.765h-4.765zm19.069 0h4.769v14.303h-4.77z" style="fill:#ffeaea;fill-opacity:1;stroke-width:.119198"/>
</svg>
