<svg xmlns="http://www.w3.org/2000/svg" xmlns:xlink="http://www.w3.org/1999/xlink" xml:space="preserve" width="128" height="128" viewBox="0 0 128 128">
    <defs>
        <linearGradient id="a">
            <stop offset="0" style="stop-color:#fafafa;stop-opacity:1"/>
            <stop offset="1" style="stop-color:#fff;stop-opacity:1"/>
        </linearGradient>
        <linearGradient xlink:href="#a" id="b" x1="64" x2="64" y1="115.548" y2="11.548" gradientUnits="userSpaceOnUse"/>
    </defs>
    <path d="M30 12.451c-3.324 0-6 2.676-6 6v92.002c0 3.324 2.676 6 6 6h68c3.324 0 6-2.676 6-6V42.984L80.957 12.998h1.115l-.42-.547z" style="fill:#999;fill-opacity:1;fill-rule:evenodd;stroke-width:1.34773"/>
    <path d="M30 11.548c-3.324 0-6 2.676-6 6v92c0 3.324 2.676 6 6 6h68c3.324 0 6-2.676 6-6V41.534L80.957 11.548Z" style="fill:url(#b);fill-opacity:1;fill-rule:evenodd;stroke-width:1.34773"/>
    <path d="M30 12.999a4.507 4.507 0 0 0-4.549 4.549v92A4.507 4.507 0 0 0 30 114.097h68a4.507 4.507 0 0 0 4.549-4.55v-69.9L82.072 12.999Z" style="fill:#ececec;fill-opacity:1;fill-rule:evenodd;stroke-width:1.34773"/>
    <rect width="45.375" height="47.597" x="29.114" y="66.5" rx="1.237" ry="1.237" style="fill:#ececec;fill-rule:evenodd;stroke:none;stroke-width:2.331;fill-opacity:1"/>
    <path d="M80.957 11.548v24.89c0 3.324 2.676 6 6 6H104v-.904z" style="fill:#787878;fill-opacity:1;fill-rule:evenodd;stroke-width:1.4"/>
    <path d="M104 41.534 80.957 11.548v23.986c0 3.324 2.676 6 6 6z" style="fill:#dedede;fill-opacity:1;fill-rule:evenodd;stroke-width:1.4"/>
    <rect width="60.681" height="2.475" x="33.659" y="59.075" rx="1.318" ry="1.237" style="fill:#ccc;fill-rule:evenodd;stroke:none;stroke-width:1.81226"/>
    <rect width="60.681" height="2.475" x="33.659" y="51.651" rx="1.318" ry="1.237" style="fill:#ccc;fill-rule:evenodd;stroke:none;stroke-width:1.81226"/>
    <rect width="60.681" height="2.475" x="33.659" y="66.5" rx="1.237" ry="1.237" style="fill:#ccc;fill-rule:evenodd;stroke:none;stroke-width:1.81224"/>
    <rect width="25.71" height="2.475" x="68.631" y="73.925" rx="1.237" ry="1.237" style="fill:#ccc;fill-rule:evenodd;stroke:none;stroke-width:1.17961"/>
    <rect width="25.71" height="2.475" x="68.631" y="81.349" rx="1.237" ry="1.237" style="fill:#ccc;fill-rule:evenodd;stroke:none;stroke-width:1.17961"/>
    <rect width="25.71" height="2.475" x="68.631" y="96.198" rx="1.334" ry="1.237" style="fill:#ccc;fill-rule:evenodd;stroke:none;stroke-width:1.17961"/>
    <rect width="25.71" height="2.475" x="68.631" y="88.774" rx="1.334" ry="1.237" style="fill:#ccc;fill-rule:evenodd;stroke:none;stroke-width:1.17961"/>
    <g style="fill:#4d4d4d">
        <path d="M108.149 74.837h-7.525l-.22 2.882h.234c.169-2.158.354-2.536 2.374-2.536h.72c.249.039.249.197.249.497v7.093c0 .471-.04.615-1.138.615h-.37v.315a93 93 0 0 1 1.916-.025c.638 0 1.291.012 1.916.025v-.315h-.364c-1.081 0-1.12-.144-1.12-.615V75.68c0-.288 0-.444.235-.497h.715c1.993 0 2.189.376 2.357 2.536h.235" style="fill:#4d4d4d;stroke:none;stroke-width:.526195" transform="translate(-143.649 -53.041)scale(1.71667)"/>
        <path d="M114.636 84.354h-.235c-.285 1.932-.454 2.982-2.746 2.982h-1.808c-.52 0-.545-.065-.545-.513V83.18h1.23c1.228 0 1.345.45 1.345 1.55h.21v-3.39h-.21c0 1.08-.117 1.523-1.346 1.523h-1.229v-3.23c0-.439.025-.505.545-.505h1.782c2.016 0 2.25.802 2.433 2.524h.235l-.313-2.881h-6.598v.357c.923 0 1.07 0 1.07.586v7.032c0 .585-.145.585-1.07.585v.315h6.781" style="fill:#4d4d4d;stroke:none;stroke-width:.526195" transform="translate(-143.649 -53.041)scale(1.71667)"/>
        <path d="m118.2 78.772 1.928-2.788c.193-.273.586-.836 1.655-.85v-.315c-.299.025-.794.025-1.106.025-.43 0-.964 0-1.289-.025v.314c.417.04.52.3.52.51 0 .156-.064.261-.156.39l-1.72 2.496-1.928-2.822c-.09-.142-.104-.183-.104-.222 0-.117.143-.34.574-.352v-.314c-.417.025-1.054.025-1.484.025-.337 0-.989 0-1.303-.025v.314c.715 0 .95.027 1.237.432l2.514 3.692-2.267 3.311c-.56.81-1.406.824-1.655.824v.315c.298-.025.794-.025 1.106-.025.352 0 .964 0 1.289.025v-.315c-.403-.039-.52-.3-.52-.51a.55.55 0 0 1 .13-.353l2.084-3.042 2.267 3.332c.102.144.102.183.102.222 0 .102-.117.326-.573.353v.315c.417-.025 1.055-.025 1.484-.025.337 0 .989 0 1.305.025v-.315c-.834 0-.966-.063-1.225-.431" style="fill:#4d4d4d;stroke:none;stroke-width:.526195" transform="translate(-143.649 -53.041)scale(1.71667)"/>
    </g>
</svg>
