<svg xmlns="http://www.w3.org/2000/svg" xmlns:xlink="http://www.w3.org/1999/xlink" xml:space="preserve" width="128" height="128" viewBox="0 0 128 128">
    <defs>
        <linearGradient id="a">
            <stop offset="0" style="stop-color:#fafafa;stop-opacity:1"/>
            <stop offset="1" style="stop-color:#fff;stop-opacity:1"/>
        </linearGradient>
        <linearGradient xlink:href="#a" id="b" x1="64" x2="64" y1="115.548" y2="11.548" gradientUnits="userSpaceOnUse"/>
    </defs>
    <path d="M30 12.451c-3.324 0-6 2.676-6 6v92.002c0 3.324 2.676 6 6 6h68c3.324 0 6-2.676 6-6V42.984L80.957 12.998h1.115l-.42-.547z" style="fill:#999;fill-opacity:1;fill-rule:evenodd;stroke-width:1.34773"/>
    <path d="M30 11.548c-3.324 0-6 2.676-6 6v92c0 3.324 2.676 6 6 6h68c3.324 0 6-2.676 6-6V41.534L80.957 11.548Z" style="fill:url(#b);fill-opacity:1;fill-rule:evenodd;stroke-width:1.34773"/>
    <path d="M30 12.999a4.507 4.507 0 0 0-4.549 4.549v92A4.507 4.507 0 0 0 30 114.097h68a4.507 4.507 0 0 0 4.549-4.55v-69.9L82.072 12.999Z" style="fill:#ececec;fill-opacity:1;fill-rule:evenodd;stroke-width:1.34773"/>
    <path d="M80.957 11.548v24.89c0 3.324 2.676 6 6 6H104v-.904z" style="fill:#787878;fill-opacity:1;fill-rule:evenodd;stroke-width:1.4"/>
    <path d="M104 41.534 80.957 11.548v23.986c0 3.324 2.676 6 6 6z" style="fill:#dedede;fill-opacity:1;fill-rule:evenodd;stroke-width:1.4"/>
    <path fill="#5382a1" d="M56.164 87.602s-2.612 1.519 1.859 2.033c5.417.618 8.185.53 14.154-.6 0 0 1.57.983 3.762 1.836-13.382 5.735-30.286-.333-19.775-3.27m-1.635-7.483s-2.93 2.168 1.545 2.631c5.786.597 10.355.646 18.263-.877 0 0 1.093 1.11 2.813 1.716-16.18 4.73-34.2.373-22.621-3.47" style="stroke-width:.184243" transform="translate(3.63 9.337)scale(.92685)"/>
    <path fill="#e76f00" d="M68.314 67.422c3.297 3.797-.866 7.213-.866 7.213s8.371-4.322 4.527-9.734c-3.591-5.048-6.345-7.555 8.563-16.202 0 0-23.401 5.845-12.224 18.723" style="stroke-width:.184243" transform="translate(3.63 9.337)scale(.92685)"/>
    <path fill="#5382a1" d="M86.012 93.137s1.933 1.593-2.129 2.825c-7.724 2.34-32.148 3.047-38.933.094-2.44-1.062 2.135-2.534 3.573-2.843 1.5-.325 2.358-.265 2.358-.265-2.712-1.91-17.532 3.752-7.527 5.374 27.283 4.424 49.735-1.993 42.658-5.185M57.42 72.363s-12.424 2.951-4.4 4.023c3.389.453 10.143.35 16.434-.176 5.141-.434 10.304-1.356 10.304-1.356s-1.813.776-3.125 1.672c-12.616 3.318-36.987 1.774-29.971-1.62 5.934-2.868 10.758-2.543 10.758-2.543m22.287 12.458c12.825-6.664 6.895-13.069 2.756-12.206-1.014.211-1.467.394-1.467.394s.377-.59 1.096-.845c8.188-2.879 14.485 8.49-2.643 12.993 0 0 .199-.177.258-.336" style="stroke-width:.184243" transform="translate(3.63 9.337)scale(.92685)"/>
    <path fill="#e76f00" d="M71.975 34.738s7.102 7.105-6.737 18.03c-11.097 8.764-2.53 13.761-.004 19.47-6.478-5.844-11.232-10.989-8.042-15.777 4.68-7.03 17.649-10.437 14.783-21.723" style="stroke-width:.184243" transform="translate(3.63 9.337)scale(.92685)"/>
    <path fill="#5382a1" d="M58.68 102.88c12.31.787 31.214-.438 31.662-6.262 0 0-.86 2.208-10.174 3.961-10.507 1.977-23.466 1.747-31.152.48 0 0 1.574 1.302 9.664 1.82" style="stroke-width:.184243" transform="translate(3.63 9.337)scale(.92685)"/>
</svg>
