<svg xmlns="http://www.w3.org/2000/svg" xmlns:xlink="http://www.w3.org/1999/xlink" xml:space="preserve" width="128" height="128" viewBox="0 0 128 128">
    <defs>
        <linearGradient id="a">
            <stop offset="0" style="stop-color:#fafafa;stop-opacity:1"/>
            <stop offset="1" style="stop-color:#fff;stop-opacity:1"/>
        </linearGradient>
        <linearGradient xlink:href="#a" id="b" x1="64" x2="64" y1="115.548" y2="11.548" gradientUnits="userSpaceOnUse"/>
    </defs>
    <path d="M30 12.451c-3.324 0-6 2.676-6 6v92.002c0 3.324 2.676 6 6 6h68c3.324 0 6-2.676 6-6V42.984L80.957 12.998h1.115l-.42-.547z" style="fill:#999;fill-opacity:1;fill-rule:evenodd;stroke-width:1.34773"/>
    <path d="M30 11.548c-3.324 0-6 2.676-6 6v92c0 3.324 2.676 6 6 6h68c3.324 0 6-2.676 6-6V41.534L80.957 11.548Z" style="fill:url(#b);fill-opacity:1;fill-rule:evenodd;stroke-width:1.34773"/>
    <path d="M30 12.999a4.507 4.507 0 0 0-4.549 4.549v92A4.507 4.507 0 0 0 30 114.097h68a4.507 4.507 0 0 0 4.549-4.55v-69.9L82.072 12.999Z" style="fill:#ececec;fill-opacity:1;fill-rule:evenodd;stroke-width:1.34773"/>
    <path d="M80.957 11.548v24.89c0 3.324 2.676 6 6 6H104v-.904z" style="fill:#787878;fill-opacity:1;fill-rule:evenodd;stroke-width:1.4"/>
    <path d="M104 41.534 80.957 11.548v23.986c0 3.324 2.676 6 6 6z" style="fill:#dedede;fill-opacity:1;fill-rule:evenodd;stroke-width:1.4"/>
    <path d="M40.865 96.885c-.58 0-1.034.523-1.034 1.191 0 .669.454 1.192 1.034 1.192h46.27c.58 0 1.034-.523 1.034-1.192s-.454-1.19-1.034-1.19zm0-8.442c-.58 0-1.034.523-1.034 1.191 0 .669.454 1.193 1.034 1.193h46.27c.58 0 1.034-.524 1.034-1.193 0-.668-.454-1.19-1.034-1.19zm0-8.44c-.58 0-1.034.522-1.034 1.19 0 .67.454 1.192 1.034 1.192h46.27c.58 0 1.034-.523 1.034-1.191 0-.669-.454-1.191-1.034-1.191zm0-8.443c-.58 0-1.034.523-1.034 1.191 0 .669.454 1.192 1.034 1.192h46.27c.58 0 1.034-.523 1.034-1.192s-.454-1.19-1.034-1.19zm0-8.442c-.58 0-1.034.525-1.034 1.193 0 .669.454 1.191 1.034 1.191h46.27c.58 0 1.034-.522 1.034-1.19 0-.67-.454-1.194-1.034-1.194zm0-8.44c-.58 0-1.034.522-1.034 1.19 0 .67.454 1.192 1.034 1.192h46.27c.58 0 1.034-.523 1.034-1.191 0-.669-.454-1.191-1.034-1.191z" style="baseline-shift:baseline;display:inline;overflow:visible;vector-effect:none;fill:#c5c5c5;fill-opacity:1;stroke-width:.942557;stroke-linecap:round;stop-color:#000" transform="matrix(1 0 0 1.06343 3.344 -4.883)"/>
    <path d="M26.97 55.826c-.374 0-.744.155-1.01.42a1.44 1.44 0 0 0-.419 1.008c0 .374.155.743.42 1.008s.635.42 1.01.42.743-.156 1.008-.42c.264-.264.42-.633.42-1.008s-.156-.744-.42-1.008a1.44 1.44 0 0 0-1.008-.42m0 8.346c-.375 0-.744.155-1.01.42a1.44 1.44 0 0 0-.419 1.01c0 .374.155.742.42 1.007s.635.42 1.01.42.743-.156 1.008-.42c.264-.264.42-.632.42-1.007s-.155-.745-.42-1.01a1.44 1.44 0 0 0-1.008-.42m0 8.348c-.374 0-.744.154-1.01.42a1.44 1.44 0 0 0-.419 1.007c0 .374.155.743.42 1.008s.635.42 1.01.42.743-.156 1.008-.42c.264-.264.42-.633.42-1.008s-.156-.743-.42-1.008a1.44 1.44 0 0 0-1.008-.42m0 8.347c-.374 0-.744.155-1.01.42a1.44 1.44 0 0 0-.419 1.008c0 .374.155.743.42 1.008s.635.42 1.01.42.743-.156 1.008-.42c.264-.264.42-.633.42-1.008s-.156-.744-.42-1.008a1.44 1.44 0 0 0-1.008-.42m0 8.346c-.374 0-.744.155-1.01.42a1.44 1.44 0 0 0-.419 1.008c0 .375.155.745.42 1.01.265.264.634.42 1.01.42a1.44 1.44 0 0 0 1.008-.42c.265-.266.42-.636.42-1.01 0-.375-.156-.744-.42-1.008a1.44 1.44 0 0 0-1.008-.42m0 8.348c-.374 0-.744.154-1.01.42a1.44 1.44 0 0 0-.419 1.007c0 .374.155.743.42 1.008s.635.42 1.01.42.743-.156 1.008-.42c.264-.264.42-.633.42-1.008s-.156-.743-.42-1.008a1.44 1.44 0 0 0-1.008-.42" style="baseline-shift:baseline;display:inline;overflow:visible;vector-effect:none;fill:#c5c5c5;fill-opacity:1;stroke-linecap:round;stop-color:#000" transform="matrix(1 0 0 1.06343 10.945 -6.104)"/>
</svg>
