<svg xmlns="http://www.w3.org/2000/svg" xmlns:xlink="http://www.w3.org/1999/xlink" xml:space="preserve" width="128" height="128" viewBox="0 0 128 128">
    <defs>
        <linearGradient id="a">
            <stop offset="0" style="stop-color:#fafafa;stop-opacity:1"/>
            <stop offset="1" style="stop-color:#fff;stop-opacity:1"/>
        </linearGradient>
        <linearGradient xlink:href="#a" id="b" x1="64" x2="64" y1="115.548" y2="11.548" gradientUnits="userSpaceOnUse"/>
    </defs>
    <path d="M30 12.451c-3.324 0-6 2.676-6 6v92.002c0 3.324 2.676 6 6 6h68c3.324 0 6-2.676 6-6V42.984L80.957 12.998h1.115l-.42-.547z" style="fill:#999;fill-opacity:1;fill-rule:evenodd;stroke-width:1.34773"/>
    <path d="M30 11.548c-3.324 0-6 2.676-6 6v92c0 3.324 2.676 6 6 6h68c3.324 0 6-2.676 6-6V41.534L80.957 11.548Z" style="fill:url(#b);fill-opacity:1;fill-rule:evenodd;stroke-width:1.34773"/>
    <path d="M30 12.999a4.507 4.507 0 0 0-4.549 4.549v92A4.507 4.507 0 0 0 30 114.097h68a4.507 4.507 0 0 0 4.549-4.55v-69.9L82.072 12.999Z" style="fill:#ececec;fill-opacity:1;fill-rule:evenodd;stroke-width:1.34773"/>
    <path d="M80.957 11.548v24.89c0 3.324 2.676 6 6 6H104v-.904z" style="fill:#787878;fill-opacity:1;fill-rule:evenodd;stroke-width:1.4"/>
    <path d="M104 41.534 80.957 11.548v23.986c0 3.324 2.676 6 6 6z" style="fill:#dedede;fill-opacity:1;fill-rule:evenodd;stroke-width:1.4"/>
    <path d="M62.958 76.538c-.256.554-.538 1.177-.83 1.84-1.034 2.342-2.178 5.19-2.596 7.016-.15.65-.243 1.456-.242 2.35 0 .353.02.724.05 1.102 1.46.537 3.039.832 4.686.835a13.6 13.6 0 0 0 4.29-.7 8 8 0 0 1-.894-.946c-1.829-2.332-2.85-5.75-4.464-11.497m-6.752-11.587a13.61 13.61 0 0 0-5.787 11.123 13.6 13.6 0 0 0 5.63 11.011c.836-3.479 2.93-6.664 6.069-13.05a51 51 0 0 0-.637-1.661c-.87-2.182-2.125-4.716-3.245-5.863-.571-.6-1.264-1.118-2.03-1.56" style="fill:#5cc358;stroke-width:.222488;fill-opacity:1"/>
    <path d="M75.88 91.681c-1.803-.226-3.29-.498-4.591-.957a16.3 16.3 0 0 1-7.263 1.7c-9.029 0-16.349-7.318-16.35-16.35 0-4.901 2.16-9.294 5.575-12.29a12 12 0 0 0-2.84-.348c-4.797.045-9.86 2.7-11.97 9.87-.196 1.044-.15 1.833-.15 2.768 0 14.214 11.524 25.737 25.736 25.737 8.704 0 16.394-4.325 21.05-10.94-2.519.628-4.94.928-7.015.934-.777 0-1.507-.041-2.182-.124" style="fill:#5cc358;stroke-width:.222488;fill-opacity:1"/>
    <path d="M71.044 86.694c.158.08.519.208 1.02.35a13.61 13.61 0 0 0 5.572-10.97h-.001c-.013-7.514-6.093-13.593-13.609-13.608-1.493.003-2.928.25-4.272.694 2.763 3.15 4.092 7.65 5.377 12.574l.002.006c.003.004.411 1.367 1.113 3.176.697 1.806 1.69 4.042 2.772 5.671.711 1.092 1.493 1.877 2.026 2.107" style="fill:#6e8ed2;stroke-width:.222488;fill-opacity:1"/>
    <path d="M64.027 50.337c-8.62 0-16.245 4.244-20.916 10.75 2.431-1.522 4.913-2.071 7.079-2.051 2.992.008 5.343.936 6.472 1.57.272.157.531.327.785.5a16.3 16.3 0 0 1 6.58-1.382c9.03 0 16.35 7.32 16.352 16.35h-.001a16.3 16.3 0 0 1-4.864 11.634 20 20 0 0 0 2.325.13c2.85.001 5.93-.628 8.24-2.57 1.507-1.269 2.768-3.127 3.468-5.912a26 26 0 0 0 .216-3.282c0-14.213-11.522-25.737-25.736-25.737" style="fill:#6e8ed2;stroke-width:.222488;fill-opacity:1"/>
</svg>
