<svg xmlns="http://www.w3.org/2000/svg" xmlns:xlink="http://www.w3.org/1999/xlink" xml:space="preserve" width="128" height="128" viewBox="0 0 128 128">
    <defs>
        <linearGradient id="a">
            <stop offset="0" style="stop-color:#fafafa;stop-opacity:1"/>
            <stop offset="1" style="stop-color:#fff;stop-opacity:1"/>
        </linearGradient>
        <linearGradient xlink:href="#a" id="b" x1="64" x2="64" y1="115.548" y2="11.548" gradientUnits="userSpaceOnUse"/>
        <linearGradient id="c" x1=".741" x2="590.863" y1="3.666" y2="593.787" gradientTransform="matrix(.07691 0 0 .05151 43.25 56.675)" gradientUnits="userSpaceOnUse" spreadMethod="pad">
            <stop offset="0" stop-color="#cbced0"/>
            <stop offset="1" stop-color="#84838b"/>
        </linearGradient>
    </defs>
    <path d="M30 12.451c-3.324 0-6 2.676-6 6v92.002c0 3.324 2.676 6 6 6h68c3.324 0 6-2.676 6-6V42.984L80.957 12.998h1.115l-.42-.547z" style="fill:#999;fill-opacity:1;fill-rule:evenodd;stroke-width:1.34773"/>
    <path d="M30 11.548c-3.324 0-6 2.676-6 6v92c0 3.324 2.676 6 6 6h68c3.324 0 6-2.676 6-6V41.534L80.957 11.548Z" style="fill:url(#b);fill-opacity:1;fill-rule:evenodd;stroke-width:1.34773"/>
    <path d="M30 12.999a4.507 4.507 0 0 0-4.549 4.549v92A4.507 4.507 0 0 0 30 114.097h68a4.507 4.507 0 0 0 4.549-4.55v-69.9L82.072 12.999Z" style="fill:#ececec;fill-opacity:1;fill-rule:evenodd;stroke-width:1.34773"/>
    <path d="M80.957 11.548v24.89c0 3.324 2.676 6 6 6H104v-.904z" style="fill:#787878;fill-opacity:1;fill-rule:evenodd;stroke-width:1.4"/>
    <path d="M104 41.534 80.957 11.548v23.986c0 3.324 2.676 6 6 6z" style="fill:#dedede;fill-opacity:1;fill-rule:evenodd;stroke-width:1.4"/>
    <g fill-rule="evenodd">
        <path fill="url(#c)" d="M64 88.818c-14.047 0-25.434-7.626-25.434-17.033S49.953 54.75 64 54.75s25.434 7.626 25.434 17.034S78.047 88.818 64 88.818m3.893-27.408c-10.677 0-19.332 5.214-19.332 11.645 0 6.432 8.655 11.645 19.332 11.645S86.45 81.136 86.45 73.055c0-8.078-7.88-11.645-18.556-11.645" style="fill:#b3b3b3;fill-opacity:1;stroke-width:.0705423" transform="translate(-1.263 -1.08)scale(1.01973)"/>
        <path fill="url(#b" d="M77.3 81.134s1.54.464 2.434.917c.31.157.847.47 1.235.882.38.402.564.81.564.81l6.067 10.23-9.806.004-4.585-8.61s-.939-1.614-1.517-2.082c-.482-.39-.687-.529-1.164-.529h-2.33l.003 11.215-8.677.003V65.328h17.424s7.936.143 7.936 7.693-7.583 8.113-7.583 8.113m-3.773-9.592-5.253-.004-.003 4.871 5.256-.002s2.433-.007 2.433-2.477c0-2.52-2.433-2.388-2.433-2.388" style="fill:#2c71d8;fill-opacity:1;stroke-width:.0705423" transform="translate(-1.263 -1.08)scale(1.01973)"/>
    </g>
</svg>
