<svg xmlns="http://www.w3.org/2000/svg" xmlns:xlink="http://www.w3.org/1999/xlink" xml:space="preserve" width="128" height="128" viewBox="0 0 128 128">
    <defs>
        <linearGradient id="a">
            <stop offset="0" style="stop-color:#fafafa;stop-opacity:1"/>
            <stop offset="1" style="stop-color:#fff;stop-opacity:1"/>
        </linearGradient>
        <linearGradient xlink:href="#a" id="b" x1="64" x2="64" y1="115.548" y2="11.548" gradientUnits="userSpaceOnUse"/>
    </defs>
    <path d="M30 12.451c-3.324 0-6 2.676-6 6v92.002c0 3.324 2.676 6 6 6h68c3.324 0 6-2.676 6-6V42.984L80.957 12.998h1.115l-.42-.547z" style="fill:#999;fill-opacity:1;fill-rule:evenodd;stroke-width:1.34773"/>
    <path d="M30 11.548c-3.324 0-6 2.676-6 6v92c0 3.324 2.676 6 6 6h68c3.324 0 6-2.676 6-6V41.534L80.957 11.548Z" style="fill:url(#b);fill-opacity:1;fill-rule:evenodd;stroke-width:1.34773"/>
    <path d="M30 12.999a4.507 4.507 0 0 0-4.549 4.549v92A4.507 4.507 0 0 0 30 114.097h68a4.507 4.507 0 0 0 4.549-4.55v-69.9L82.072 12.999Z" style="fill:#ececec;fill-opacity:1;fill-rule:evenodd;stroke-width:1.34773"/>
    <path d="M80.957 11.548v24.89c0 3.324 2.676 6 6 6H104v-.904z" style="fill:#787878;fill-opacity:1;fill-rule:evenodd;stroke-width:1.4"/>
    <path d="M104 41.534 80.957 11.548v23.986c0 3.324 2.676 6 6 6z" style="fill:#dedede;fill-opacity:1;fill-rule:evenodd;stroke-width:1.4"/>
    <path d="M89.37 83.51c-2.334-2.204-7.183-10.113-10.092-16.37a11.54 11.54 0 0 0-10.46-6.685h-.462c-1.037-1.1-3.812-3.467-7.847-2.593-8.508 1.87-9.838 13.868-14.316 9.13-3.737-3.941-1.867-15.768 10.582-11.62 4.37 1.458 4.771-2.074 4.771-2.074-4.77 2.075-6.638-4.356-15.146-2.074-13.25 3.555-10.6 26.496 4.102 25.27-4.161 4.452-3.24 11.767-6.114 13.89 4.737.607 10.26-1.768 13.901-6.742.11 9.963 6.823 18.411 13.173 20.673-2.45-3.195-2.333-3.574-1.973-6.164-.407 6.327 11.827 11.37 16.528 3.705-2.72.426-3.464-.358-3.996-1.439-1.17-2.378 2.526-4.444 3.475-5.072a2.94 2.94 0 0 0 1.52-3.28l-.719-2.593 2.806-1.997a2.565 2.565 0 0 0 .267-3.965" style="fill:#999;fill-opacity:1;stroke-width:.259308"/>
</svg>
