<svg xmlns="http://www.w3.org/2000/svg" xmlns:xlink="http://www.w3.org/1999/xlink" xml:space="preserve" width="128" height="128" viewBox="0 0 128 128">
    <defs>
        <linearGradient id="a">
            <stop offset="0" style="stop-color:#fafafa;stop-opacity:1"/>
            <stop offset="1" style="stop-color:#fff;stop-opacity:1"/>
        </linearGradient>
        <linearGradient xlink:href="#a" id="b" x1="64" x2="64" y1="115.548" y2="11.548" gradientUnits="userSpaceOnUse"/>
    </defs>
    <path d="M30 12.451c-3.324 0-6 2.676-6 6v92.002c0 3.324 2.676 6 6 6h68c3.324 0 6-2.676 6-6V42.984L80.957 12.998h1.115l-.42-.547z" style="fill:#999;fill-opacity:1;fill-rule:evenodd;stroke-width:1.34773"/>
    <path d="M30 11.548c-3.324 0-6 2.676-6 6v92c0 3.324 2.676 6 6 6h68c3.324 0 6-2.676 6-6V41.534L80.957 11.548Z" style="fill:url(#b);fill-opacity:1;fill-rule:evenodd;stroke-width:1.34773"/>
    <path d="M30 12.999a4.507 4.507 0 0 0-4.549 4.549v92A4.507 4.507 0 0 0 30 114.097h68a4.507 4.507 0 0 0 4.549-4.55v-69.9L82.072 12.999Z" style="fill:#ececec;fill-opacity:1;fill-rule:evenodd;stroke-width:1.34773"/>
    <path d="M80.957 11.548v24.89c0 3.324 2.676 6 6 6H104v-.904z" style="fill:#787878;fill-opacity:1;fill-rule:evenodd;stroke-width:1.4"/>
    <path d="M104 41.534 80.957 11.548v23.986c0 3.324 2.676 6 6 6z" style="fill:#dedede;fill-opacity:1;fill-rule:evenodd;stroke-width:1.4"/>
    <g style="fill:#4d4d4d">
        <g style="fill:#4d4d4d">
            <path d="M102.92 64.002v.315c.91 0 1.056 0 1.056.588v7.08c0 .588-.144.588-1.056.588v.315h4.47c1.663 0 2.742-1.184 2.742-2.368 0-1.172-1.067-2.173-2.456-2.265 1.246-.246 2.117-1.079 2.117-2.068 0-1.079-1.065-2.187-2.742-2.187zm1.899 4.159v-3.33c0-.444.024-.51.542-.51h1.655c1.278 0 1.848 1.044 1.848 1.854 0 .993-.79 1.986-2.185 1.986zm.542 4.419c-.515 0-.54-.066-.54-.51v-3.698h2.39c1.33 0 1.978 1.193 1.978 2.15s-.736 2.058-2.144 2.058m5.562-5.424c0-.56.066-.626 1.01-.626v-.314c-.443.012-1.121.04-1.46.04-.34 0-1.018-.025-1.46-.04v.314c.9 0 .964.066.964.626v4.797c0 .559-.061.625-.964.625v.314c.442-.012 1.12-.037 1.46-.037s1.015.025 1.46.037v-.314c-.944 0-1.01-.064-1.01-.625m1.758-5.741v.314c.86 0 .924.079.924.613v4.824c0 .535-.064.612-.924.612v.315h3.933c1.445 0 2.358-.884 2.358-1.792 0-.845-.834-1.56-1.967-1.702.925-.194 1.667-.78 1.667-1.534 0-.817-.91-1.65-2.33-1.65zm1.767 3.052v-2.176c0-.519.066-.558.526-.558h1.264c1.199 0 1.396 1.012 1.396 1.322 0 .466-.341 1.412-1.712 1.412zm0 .263h1.957c1.108 0 1.461 1.004 1.461 1.558 0 .594-.43 1.493-1.617 1.493h-1.279c-.456 0-.52-.04-.52-.568" style="fill:#4d4d4d;stroke:none;stroke-width:.526195" transform="translate(-121.08 -29.724)scale(1.5035)"/>
        </g>
        <g style="fill:#4d4d4d">
            <path d="M108.149 74.837h-7.525l-.22 2.882h.234c.169-2.158.354-2.536 2.374-2.536h.72c.249.039.249.197.249.497v7.093c0 .471-.04.615-1.138.615h-.37v.315a93 93 0 0 1 1.916-.025c.638 0 1.291.012 1.916.025v-.315h-.364c-1.081 0-1.12-.144-1.12-.615V75.68c0-.288 0-.444.235-.497h.715c1.993 0 2.189.376 2.357 2.536h.235" style="fill:#4d4d4d;stroke:none;stroke-width:.526195" transform="translate(-119.863 -29.724)scale(1.5035)"/>
            <path d="M114.636 84.354h-.235c-.285 1.932-.454 2.982-2.746 2.982h-1.808c-.52 0-.545-.065-.545-.513V83.18h1.23c1.228 0 1.345.45 1.345 1.55h.21v-3.39h-.21c0 1.08-.117 1.523-1.346 1.523h-1.229v-3.23c0-.439.025-.505.545-.505h1.782c2.016 0 2.25.802 2.433 2.524h.235l-.313-2.881h-6.598v.357c.923 0 1.07 0 1.07.586v7.032c0 .585-.145.585-1.07.585v.315h6.781" style="fill:#4d4d4d;stroke:none;stroke-width:.526195" transform="translate(-119.863 -29.724)scale(1.5035)"/>
            <path d="m118.2 78.772 1.928-2.788c.193-.273.586-.836 1.655-.85v-.315c-.299.025-.794.025-1.106.025-.43 0-.964 0-1.289-.025v.314c.417.04.52.3.52.51 0 .156-.064.261-.156.39l-1.72 2.496-1.928-2.822c-.09-.142-.104-.183-.104-.222 0-.117.143-.34.574-.352v-.314c-.417.025-1.054.025-1.484.025-.337 0-.989 0-1.303-.025v.314c.715 0 .95.027 1.237.432l2.514 3.692-2.267 3.311c-.56.81-1.406.824-1.655.824v.315c.298-.025.794-.025 1.106-.025.352 0 .964 0 1.289.025v-.315c-.403-.039-.52-.3-.52-.51a.55.55 0 0 1 .13-.353l2.084-3.042 2.267 3.332c.102.144.102.183.102.222 0 .102-.117.326-.573.353v.315c.417-.025 1.055-.025 1.484-.025.337 0 .989 0 1.305.025v-.315c-.834 0-.966-.063-1.225-.431" style="fill:#4d4d4d;stroke:none;stroke-width:.526195" transform="translate(-119.863 -29.724)scale(1.5035)"/>
        </g>
    </g>
    <rect width="60.681" height="2.475" x="33.659" y="59.075" rx="1.318" ry="1.237" style="fill:#ccc;fill-rule:evenodd;stroke:none;stroke-width:1.81226"/>
    <rect width="60.681" height="2.475" x="33.659" y="51.651" rx="1.318" ry="1.237" style="fill:#ccc;fill-rule:evenodd;stroke:none;stroke-width:1.81226"/>
    <rect width="28.621" height="2.475" x="65.719" y="66.5" rx="1.324" ry="1.237" style="fill:#ccc;fill-rule:evenodd;stroke:none;stroke-width:1.24461"/>
    <rect width="28.621" height="2.475" x="65.719" y="73.925" rx="1.324" ry="1.237" style="fill:#ccc;fill-rule:evenodd;stroke:none;stroke-width:1.24461"/>
    <rect width="25.71" height="2.475" x="68.631" y="81.349" rx="1.334" ry="1.237" style="fill:#ccc;fill-rule:evenodd;stroke:none;stroke-width:1.17961"/>
    <rect width="25.71" height="2.475" x="68.631" y="96.199" rx="1.334" ry="1.237" style="fill:#ccc;fill-rule:evenodd;stroke:none;stroke-width:1.17961"/>
    <rect width="25.71" height="2.475" x="68.631" y="88.774" rx="1.334" ry="1.237" style="fill:#ccc;fill-rule:evenodd;stroke:none;stroke-width:1.17961"/>
</svg>
