<svg xmlns="http://www.w3.org/2000/svg" xml:space="preserve" width="128" height="128" viewBox="0 0 128 128">
    <path d="M30 12.451c-3.324 0-6 2.676-6 6v92.002c0 3.324 2.676 6 6 6h68c3.324 0 6-2.676 6-6V42.984L80.957 12.998h1.115l-.42-.547z" style="fill:#512ca2;fill-opacity:1;fill-rule:evenodd;stroke-width:1.34773"/>
    <path d="M30 11.548c-3.324 0-6 2.676-6 6v92c0 3.324 2.676 6 6 6h68c3.324 0 6-2.676 6-6V41.534L80.957 11.548Z" style="fill:#ede7ff;fill-opacity:1;fill-rule:evenodd;stroke-width:1.34773"/>
    <path d="M30 12.999a4.507 4.507 0 0 0-4.549 4.549v92A4.507 4.507 0 0 0 30 114.097h68a4.507 4.507 0 0 0 4.549-4.55v-69.9L82.072 12.999Z" style="fill:#ddd0ff;fill-opacity:1;fill-rule:evenodd;stroke-width:1.34773"/>
    <path d="M80.957 11.548v24.89c0 3.324 2.676 6 6 6H104v-.904z" style="fill:#512ca2;fill-opacity:1;fill-rule:evenodd;stroke-width:1.4"/>
    <path d="M104 41.534 80.957 11.548v23.986c0 3.324 2.676 6 6 6z" style="fill:#ad95e2;fill-opacity:1;fill-rule:evenodd;stroke-width:1.4"/>
    <path d="M64.16 54.56a40.1 40.1 0 0 0-20.374 34.722c13.107 7.146 28.497 6.902 40.424.074l.004-.101A40.11 40.11 0 0 0 64.162 54.56zm6.747 15.326c1.858 1.263 1.582 4.301 1.283 6.382-.38 2.292-2.577 6.061-5.432 8.52.369.53.582 1.182.58 1.878-1.77.894-3.524-.115-5.648-1.933s-4.413-5.462-5.173-9.206a3.06 3.06 0 0 1-1.956-.453c.155-2.1 2.383-3.347 4.358-4.083s7.063-.985 10.65.29a3.06 3.06 0 0 1 1.338-1.393z" style="fill:#6342aa;fill-opacity:1;stroke:none;stroke-width:1.08564;stroke-miterlimit:4;stroke-dasharray:none;stroke-opacity:1"/>
</svg>
