<svg xmlns="http://www.w3.org/2000/svg" xml:space="preserve" width="128" height="128" viewBox="0 0 128 128">
    <path d="M30 12.451c-3.324 0-6 2.676-6 6v92.002c0 3.324 2.676 6 6 6h68c3.324 0 6-2.676 6-6V42.984L80.957 12.998h1.115l-.42-.547z" style="fill:#63639e;fill-opacity:1;fill-rule:evenodd;stroke-width:1.34773"/>
    <path d="M30 11.548c-3.324 0-6 2.676-6 6v92c0 3.324 2.676 6 6 6h68c3.324 0 6-2.676 6-6V41.534L80.957 11.548Z" style="fill:#f2f2fc;fill-opacity:1;fill-rule:evenodd;stroke-width:1.34773"/>
    <path d="M30 12.999a4.507 4.507 0 0 0-4.549 4.549v92A4.507 4.507 0 0 0 30 114.097h68a4.507 4.507 0 0 0 4.549-4.55v-69.9L82.072 12.999Z" style="fill:#e4e4f8;fill-opacity:1;fill-rule:evenodd;stroke-width:1.34773"/>
    <path d="M80.957 11.548v24.89c0 3.324 2.676 6 6 6H104v-.904z" style="fill:#63639e;fill-opacity:1;fill-rule:evenodd;stroke-width:1.4"/>
    <path d="M104 41.534 80.957 11.548v23.986c0 3.324 2.676 6 6 6z" style="fill:#c8c8f1;fill-opacity:1;fill-rule:evenodd;stroke-width:1.4"/>
    <path fill="navy" d="M83.506 77.102c0-10.766-8.74-19.506-19.506-19.506s-19.506 8.74-19.506 19.506S53.234 96.608 64 96.608s19.506-8.74 19.506-19.506" style="color:#000;font-style:normal;font-variant:normal;font-weight:400;font-stretch:normal;font-size:medium;line-height:normal;font-family:sans-serif;font-variant-ligatures:normal;font-variant-position:normal;font-variant-caps:normal;font-variant-numeric:normal;font-variant-alternates:normal;font-variant-east-asian:normal;font-feature-settings:normal;font-variation-settings:normal;text-indent:0;text-align:start;text-decoration-line:none;text-decoration-style:solid;text-decoration-color:#000;letter-spacing:normal;word-spacing:normal;text-transform:none;writing-mode:lr-tb;direction:ltr;text-orientation:mixed;dominant-baseline:auto;baseline-shift:baseline;text-anchor:start;white-space:normal;shape-padding:0;shape-margin:0;inline-size:0;clip-rule:nonzero;display:inline;overflow:visible;visibility:visible;isolation:auto;mix-blend-mode:normal;color-interpolation:sRGB;color-interpolation-filters:linearRGB;solid-color:#000;solid-opacity:1;vector-effect:none;fill:#3030ae;fill-opacity:1;fill-rule:nonzero;stroke:none;stroke-width:.0538838;stroke-linecap:butt;stroke-linejoin:miter;stroke-miterlimit:4;stroke-dasharray:none;stroke-dashoffset:0;stroke-opacity:1;-inkscape-stroke:none;color-rendering:auto;image-rendering:auto;shape-rendering:auto;text-rendering:auto;stop-color:#000"/>
    <path fill="#fff" d="M77.794 69.02a5.715 5.715 0 0 0-5.711-5.712 5.715 5.715 0 0 0-5.712 5.711 5.715 5.715 0 0 0 5.712 5.712 5.715 5.715 0 0 0 5.711-5.712" style="color:#000;font-style:normal;font-variant:normal;font-weight:400;font-stretch:normal;font-size:medium;line-height:normal;font-family:sans-serif;font-variant-ligatures:normal;font-variant-position:normal;font-variant-caps:normal;font-variant-numeric:normal;font-variant-alternates:normal;font-variant-east-asian:normal;font-feature-settings:normal;font-variation-settings:normal;text-indent:0;text-align:start;text-decoration-line:none;text-decoration-style:solid;text-decoration-color:#000;letter-spacing:normal;word-spacing:normal;text-transform:none;writing-mode:lr-tb;direction:ltr;text-orientation:mixed;dominant-baseline:auto;baseline-shift:baseline;text-anchor:start;white-space:normal;shape-padding:0;shape-margin:0;inline-size:0;clip-rule:nonzero;display:inline;overflow:visible;visibility:visible;isolation:auto;mix-blend-mode:normal;color-interpolation:sRGB;color-interpolation-filters:linearRGB;solid-color:#000;solid-opacity:1;vector-effect:none;fill:#fff;fill-opacity:1;fill-rule:nonzero;stroke:none;stroke-width:.0538838;stroke-linecap:butt;stroke-linejoin:miter;stroke-miterlimit:4;stroke-dasharray:none;stroke-dashoffset:0;stroke-opacity:1;-inkscape-stroke:none;color-rendering:auto;image-rendering:auto;shape-rendering:auto;text-rendering:auto;stop-color:#000"/>
    <path fill="navy" d="M89.218 57.59a5.715 5.715 0 0 0-5.712-5.711 5.715 5.715 0 0 0-5.712 5.712 5.711 5.711 0 1 0 11.423 0" style="color:#000;font-style:normal;font-variant:normal;font-weight:400;font-stretch:normal;font-size:medium;line-height:normal;font-family:sans-serif;font-variant-ligatures:normal;font-variant-position:normal;font-variant-caps:normal;font-variant-numeric:normal;font-variant-alternates:normal;font-variant-east-asian:normal;font-feature-settings:normal;font-variation-settings:normal;text-indent:0;text-align:start;text-decoration-line:none;text-decoration-style:solid;text-decoration-color:#000;letter-spacing:normal;word-spacing:normal;text-transform:none;writing-mode:lr-tb;direction:ltr;text-orientation:mixed;dominant-baseline:auto;baseline-shift:baseline;text-anchor:start;white-space:normal;shape-padding:0;shape-margin:0;inline-size:0;clip-rule:nonzero;display:inline;overflow:visible;visibility:visible;isolation:auto;mix-blend-mode:normal;color-interpolation:sRGB;color-interpolation-filters:linearRGB;solid-color:#000;solid-opacity:1;vector-effect:none;fill:#3030ae;fill-opacity:1;fill-rule:nonzero;stroke:none;stroke-width:.0538838;stroke-linecap:butt;stroke-linejoin:miter;stroke-miterlimit:4;stroke-dasharray:none;stroke-dashoffset:0;stroke-opacity:1;-inkscape-stroke:none;color-rendering:auto;image-rendering:auto;shape-rendering:auto;text-rendering:auto;stop-color:#000"/>
    <path d="m63.58 51.08-.5.018q-1.135.039-2.264.175l-.496.061.194 1.574.496-.06a25 25 0 0 1 2.125-.166l.5-.018zm1.27.01-.082 1.584.498.025q1.065.056 2.12.203l.497.069.219-1.569-.495-.07a26 26 0 0 0-2.26-.217zm-5.782.453-.49.105q-1.11.236-2.197.569l-.479.146.465 1.516.479-.147q1.019-.311 2.062-.533l.488-.105zm10.284.09-.356 1.545.488.111q1.04.24 2.053.568l.477.155.488-1.508-.477-.154q-1.08-.351-2.187-.606zm-14.647 1.154-.463.188q-1.053.427-2.064.945l-.446.226.721 1.413.445-.229q.95-.484 1.938-.885l.465-.187zm18.986.16-.617 1.46.461.195q.982.416 1.924.916l.441.234.745-1.4-.444-.235a26 26 0 0 0-2.049-.974zm-23.064 1.828-.424.264q-.961.604-1.867 1.29l-.398.3.955 1.266.398-.301a24 24 0 0 1 1.754-1.211l.424-.266zm-3.67 2.663-.371.335a26 26 0 0 0-1.617 1.592l-.342.365 1.16 1.08.342-.365q.728-.78 1.52-1.494l.37-.336zm-3.154 3.257-.309.395a26 26 0 0 0-1.318 1.846l-.274.42 1.33.863.272-.418q.582-.894 1.24-1.735l.307-.394zm-2.545 3.754-.235.442a26 26 0 0 0-.978 2.048l-.195.46 1.459.62.195-.46q.417-.981.918-1.922l.234-.442zm45.697.393-1.414.719.227.445q.484.95.884 1.94l.188.462 1.469-.592-.188-.464a26 26 0 0 0-.94-2.065zm-47.55 3.748-.155.474q-.351 1.081-.605 2.19l-.112.486 1.545.356.111-.489a24 24 0 0 1 .569-2.052l.154-.477zm49.327.424-1.515.463.146.478q.312 1.02.533 2.063l.104.49 1.55-.33-.103-.489a26 26 0 0 0-.568-2.199zm-50.43 3.976-.068.494a26 26 0 0 0-.214 2.26l-.026.5 1.582.08.026-.498q.054-1.067.2-2.123l.071-.494zm51.46.44-1.575.193.061.496q.13 1.059.168 2.125l.018.5 1.584-.055-.018-.5a26 26 0 0 0-.178-2.263zm-50.194 4.029-1.586.055.018.498q.04 1.135.178 2.263l.06.496 1.573-.193-.061-.496a25 25 0 0 1-.166-2.125zm48.856.418-.028.5q-.053 1.065-.2 2.121l-.069.496 1.568.219.07-.496q.158-1.126.215-2.26l.026-.498zm-48.426 3.818-1.55.33.103.489q.235 1.11.568 2.197l.145.478 1.517-.464-.146-.477a24 24 0 0 1-.533-2.062zm47.922.41-.111.489q-.24 1.039-.569 2.052l-.154.477 1.508.488.154-.474q.351-1.08.606-2.188l.11-.488zm-46.762 3.688-1.469.594.188.463q.426 1.053.943 2.066l.229.445 1.41-.722-.227-.446q-.486-.949-.886-1.937zm45.531.389-.197.46a24 24 0 0 1-.918 1.922l-.236.442 1.4.746.235-.441a26 26 0 0 0 .978-2.05l.195-.458zm-43.67 3.441-1.343.842.265.424q.603.962 1.288 1.869l.3.398 1.266-.955-.3-.398a24 24 0 0 1-1.212-1.756zm41.745.357-.274.42q-.58.893-1.238 1.733l-.309.394 1.248.977.309-.393q.7-.895 1.318-1.847l.274-.418zm-39.248 3.094-1.178 1.06.336.374a26 26 0 0 0 1.59 1.617l.367.342 1.08-1.16-.365-.342a25 25 0 0 1-1.494-1.52zm36.691.315-.342.365a25 25 0 0 1-1.52 1.494l-.37.336 1.06 1.178.371-.336a26 26 0 0 0 1.62-1.59l.34-.365zm-33.635 2.654-.976 1.248.392.309q.895.699 1.848 1.318l.418.273.865-1.33-.418-.271a25 25 0 0 1-1.734-1.24zm30.53.262-.4.3q-.852.643-1.755 1.21l-.424.265.842 1.344.424-.266a26 26 0 0 0 1.87-1.287l.398-.303zm-27.008 2.132-.744 1.399.44.236q1.002.535 2.048.979l.46.195.62-1.459-.459-.195a24 24 0 0 1-1.924-.92zm23.445.202-.445.228q-.95.486-1.94.885l-.463.187.594 1.47.465-.188q1.053-.427 2.064-.944l.446-.226zm-19.56 1.545-.49 1.507.476.155q1.08.35 2.187.605l.487.112.355-1.545-.486-.112a24 24 0 0 1-2.055-.568zm15.646.134-.479.145q-1.019.312-2.062.533l-.488.104.328 1.55.488-.103q1.111-.235 2.2-.567l.476-.146zm-11.518.905-.218 1.57.496.07q1.124.157 2.258.215l.5.026.082-1.584-.5-.026a25 25 0 0 1-2.121-.201zm7.372.062-.497.06q-1.058.13-2.125.167l-.5.017.055 1.584.498-.017a26 26 0 0 0 2.264-.176l.496-.06z" style="fill:#b4b4b4;stroke-miterlimit:10;stroke-dasharray:40.8475;fill-opacity:1"/>
</svg>
