<svg xmlns="http://www.w3.org/2000/svg" xmlns:xlink="http://www.w3.org/1999/xlink" xml:space="preserve" width="128" height="128" viewBox="0 0 128 128">
    <defs>
        <linearGradient id="a">
            <stop offset="0" style="stop-color:#fafafa;stop-opacity:1"/>
            <stop offset="1" style="stop-color:#fff;stop-opacity:1"/>
        </linearGradient>
        <linearGradient xlink:href="#a" id="b" x1="64" x2="64" y1="115.548" y2="11.548" gradientUnits="userSpaceOnUse"/>
    </defs>
    <path d="M30 12.451c-3.324 0-6 2.676-6 6v92.002c0 3.324 2.676 6 6 6h68c3.324 0 6-2.676 6-6V42.984L80.957 12.998h1.115l-.42-.547z" style="fill:#999;fill-opacity:1;fill-rule:evenodd;stroke-width:1.34773"/>
    <path d="M30 11.548c-3.324 0-6 2.676-6 6v92c0 3.324 2.676 6 6 6h68c3.324 0 6-2.676 6-6V41.534L80.957 11.548Z" style="fill:url(#b);fill-opacity:1;fill-rule:evenodd;stroke-width:1.34773"/>
    <path d="M30 12.999a4.507 4.507 0 0 0-4.549 4.549v92A4.507 4.507 0 0 0 30 114.097h68a4.507 4.507 0 0 0 4.549-4.55v-69.9L82.072 12.999Z" style="fill:#ececec;fill-opacity:1;fill-rule:evenodd;stroke-width:1.34773"/>
    <path d="M80.957 11.548v24.89c0 3.324 2.676 6 6 6H104v-.904z" style="fill:#787878;fill-opacity:1;fill-rule:evenodd;stroke-width:1.4"/>
    <path d="M104 41.534 80.957 11.548v23.986c0 3.324 2.676 6 6 6z" style="fill:#dedede;fill-opacity:1;fill-rule:evenodd;stroke-width:1.4"/>
    <path d="M41.225 63.547c-2.105 0-3.84 1.735-3.84 3.84v25.08c0 2.104 1.735 3.838 3.84 3.838h45.55c2.105 0 3.84-1.734 3.84-3.838v-25.08c0-2.105-1.735-3.84-3.84-3.84zm0 2.56h45.55a1.25 1.25 0 0 1 1.282 1.28v25.08c0 .73-.55 1.28-1.282 1.28h-45.55a1.25 1.25 0 0 1-1.282-1.28v-25.08c0-.731.55-1.28 1.282-1.28" style="fill:#4d4d4d"/>
    <path d="M45.062 88.627V71.225h5.119l5.118 6.398 5.118-6.398h5.118v17.402h-5.118v-9.98L55.3 85.045l-5.118-6.398v9.98zm31.99 0-7.678-8.445h5.118v-8.957h5.119v8.957h5.118z" style="stroke-width:.255913;fill:#4d4d4d"/>
</svg>
