<svg xmlns="http://www.w3.org/2000/svg" xmlns:xlink="http://www.w3.org/1999/xlink" xml:space="preserve" width="128" height="128" viewBox="0 0 128 128">
    <defs>
        <linearGradient id="a">
            <stop offset="0" style="stop-color:#fafafa;stop-opacity:1"/>
            <stop offset="1" style="stop-color:#fff;stop-opacity:1"/>
        </linearGradient>
        <linearGradient xlink:href="#a" id="b" x1="64" x2="64" y1="115.548" y2="11.548" gradientUnits="userSpaceOnUse"/>
    </defs>
    <path d="M30 12.451c-3.324 0-6 2.676-6 6v92.002c0 3.324 2.676 6 6 6h68c3.324 0 6-2.676 6-6V42.984L80.957 12.998h1.115l-.42-.547z" style="fill:#999;fill-opacity:1;fill-rule:evenodd;stroke-width:1.34773"/>
    <path d="M30 11.548c-3.324 0-6 2.676-6 6v92c0 3.324 2.676 6 6 6h68c3.324 0 6-2.676 6-6V41.534L80.957 11.548Z" style="fill:url(#b);fill-opacity:1;fill-rule:evenodd;stroke-width:1.34773"/>
    <path d="M30 12.999a4.507 4.507 0 0 0-4.549 4.549v92A4.507 4.507 0 0 0 30 114.097h68a4.507 4.507 0 0 0 4.549-4.55v-69.9L82.072 12.999Z" style="fill:#ececec;fill-opacity:1;fill-rule:evenodd;stroke-width:1.34773"/>
    <path d="M80.957 11.548v24.89c0 3.324 2.676 6 6 6H104v-.904z" style="fill:#787878;fill-opacity:1;fill-rule:evenodd;stroke-width:1.4"/>
    <path d="M104 41.534 80.957 11.548v23.986c0 3.324 2.676 6 6 6z" style="fill:#dedede;fill-opacity:1;fill-rule:evenodd;stroke-width:1.4"/>
    <path d="M51.125 59.635c-.383 0-.816-.029-1.48.111a4.8 4.8 0 0 0-1.315.486c-.561.31-.81.587-1.055.818L35.208 72.395c-.423.398-.944.758-1.256 1.615a2.6 2.6 0 0 0 0 1.799c.312.857.833 1.217 1.256 1.615l24.944 23.457c.588.553.992 1.173 2.415 1.58a5.27 5.27 0 0 0 2.866 0 2.785 2.182 0 0 0 .006 0c1.422-.407 1.826-1.027 2.414-1.58l24.945-23.457h-.006c.423-.398.944-.758 1.256-1.615a2.6 2.6 0 0 0 0-1.799c-.312-.857-.833-1.217-1.256-1.615h.006L80.73 61.05c-.245-.23-.491-.508-1.055-.818a4.8 4.8 0 0 0-1.321-.486c-.662-.14-1.09-.11-1.474-.11zM51.381 64h3.186l-3.708 8.728h-8.756zm9.054 0h7.13l3.714 8.728H56.726Zm12.997 0h3.187l9.277 8.728h-8.755ZM42.11 77.091h8.777l6.292 14.18zm14.672 0h14.443l-7.221 16.272zm20.333 0h8.782l-15.074 14.18Z" style="fill:#d64040;fill-opacity:1;stroke-width:2.46486;stroke-linecap:round;stroke-linejoin:round" transform="translate(5.992 3.598)scale(.90637)"/>
    <path d="m51.381 64-9.278 8.728h8.756L54.57 64Zm9.054 0-3.71 8.728H71.28L67.565 64zm12.997 0 3.709 8.728h8.756L76.62 64ZM42.11 77.092 57.178 91.27l-6.293-14.178Zm14.671 0 7.221 16.27 7.221-16.27zm20.332 0-6.29 14.178 15.074-14.178zm-32.749 8.94.003.006.004.002z" style="fill:#ff7070;fill-opacity:1;fill-rule:evenodd;stroke-width:2.45076" transform="translate(5.992 3.598)scale(.90637)"/>
</svg>
