<svg xmlns="http://www.w3.org/2000/svg" xmlns:xlink="http://www.w3.org/1999/xlink" xml:space="preserve" width="128" height="128" viewBox="0 0 128 128">
    <defs>
        <linearGradient id="a">
            <stop offset="0" style="stop-color:#fafafa;stop-opacity:1"/>
            <stop offset="1" style="stop-color:#fff;stop-opacity:1"/>
        </linearGradient>
        <linearGradient xlink:href="#a" id="b" x1="64" x2="64" y1="115.548" y2="11.548" gradientUnits="userSpaceOnUse"/>
    </defs>
    <path d="M30 12.451c-3.324 0-6 2.676-6 6v92.002c0 3.324 2.676 6 6 6h68c3.324 0 6-2.676 6-6V42.984L80.957 12.998h1.115l-.42-.547z" style="fill:#999;fill-opacity:1;fill-rule:evenodd;stroke-width:1.34773"/>
    <path d="M30 11.548c-3.324 0-6 2.676-6 6v92c0 3.324 2.676 6 6 6h68c3.324 0 6-2.676 6-6V41.534L80.957 11.548Z" style="fill:url(#b);fill-opacity:1;fill-rule:evenodd;stroke-width:1.34773"/>
    <path d="M30 13.451A4.507 4.507 0 0 0 25.451 18v92A4.507 4.507 0 0 0 30 114.549h68a4.507 4.507 0 0 0 4.549-4.549V40.098L82.072 13.45Z" style="fill:#ececec;fill-opacity:1;fill-rule:evenodd;stroke-width:1.34773"/>
    <path d="M80.957 11.548v24.89c0 3.324 2.676 6 6 6H104v-.904z" style="fill:#787878;fill-opacity:1;fill-rule:evenodd;stroke-width:1.4"/>
    <path d="M104 41.534 80.957 11.548v23.986c0 3.324 2.676 6 6 6z" style="fill:#dedede;fill-opacity:1;fill-rule:evenodd;stroke-width:1.4"/>
    <g style="fill:#4d4d4d">
        <g style="fill:#4d4d4d">
            <path d="M60.137 72.436h5.908c3.636 0 3.636 3.636 0 3.636h-5.908zm-14.09 16.817h18.18v-5h-4.09v-3.636h4.545c5 0 2.272 8.636 6.363 8.636h11.363v-8.636H79.68v.909c0 3.636-4.09 3.182-4.545.91-.455-2.274-2.273-4.092-2.727-4.092 6.817-3.636 2.727-10.908-2.728-10.908H48.32v5h4.545v11.817h-6.817z" style="fill:#4d4d4d;stroke-linejoin:round" transform="translate(0 -3.026)"/>
            <path d="M48.318 67.209a.227.227 0 0 0-.226.227v5a.227.227 0 0 0 .226.226h4.319v11.363h-6.59a.227.227 0 0 0-.227.229v4.998a.227.227 0 0 0 .227.228h18.18a.227.227 0 0 0 .228-.228v-4.998a.227.227 0 0 0-.228-.229h-3.864v-3.181h4.319c1.184 0 1.855.482 2.336 1.244.48.761.738 1.819.964 2.894.227 1.076.422 2.167.842 3.022.42.854 1.118 1.476 2.22 1.476h11.364a.227.227 0 0 0 .227-.228v-8.635a.227.227 0 0 0-.227-.226h-2.726a.227.227 0 0 0-.229.226v.908c0 .867-.24 1.459-.588 1.844-.347.386-.81.574-1.299.6-.975.051-2.005-.568-2.207-1.578-.236-1.182-.82-2.232-1.406-2.993a6 6 0 0 0-.844-.908c-.093-.08-.177-.133-.261-.19 1.507-.89 2.515-1.957 2.988-3.109.513-1.249.467-2.56.023-3.744-.887-2.366-3.35-4.238-6.177-4.238zm.229.455h21.135c2.626 0 4.934 1.764 5.752 3.943.408 1.09.45 2.275-.018 3.413-.467 1.137-1.447 2.235-3.115 3.125a.227.227 0 0 0 .107.427c-.019 0 .039.007.115.051s.178.117.291.213c.226.193.502.482.778.84.55.716 1.102 1.714 1.32 2.804.253 1.262 1.495 2.006 2.678 1.944a2.3 2.3 0 0 0 1.613-.75c.434-.481.705-1.197.705-2.149v-.681h2.272v8.181H71.045c-.943 0-1.437-.458-1.813-1.222-.375-.765-.578-1.831-.806-2.914s-.482-2.185-1.024-3.043c-.541-.858-1.405-1.455-2.72-1.455h-4.545a.227.227 0 0 0-.227.226v3.637a.227.227 0 0 0 .227.226H64v4.545H46.273V84.48h6.592a.227.227 0 0 0 .227-.226V72.436a.227.227 0 0 0-.227-.227h-4.318zm11.59 4.545a.227.227 0 0 0-.227.227v3.636a.227.227 0 0 0 .227.227h5.908c.947 0 1.679-.236 2.182-.613.503-.378.773-.902.773-1.432s-.27-1.054-.773-1.432-1.235-.613-2.182-.613zm.226.453h5.682c.871 0 1.504.219 1.91.524.406.304.59.69.59 1.068s-.184.764-.59 1.068-1.039.522-1.91.522h-5.682z" style="fill:#4d4d4d;stroke-linejoin:round" transform="translate(0 -3.026)"/>
        </g>
        <path d="M0-47.5c-26.18 0-47.5 21.32-47.5 47.5S-26.18 47.5 0 47.5 47.5 26.18 47.5 0 26.18-47.5 0-47.5m0 9c21.316 0 38.5 17.184 38.5 38.5S21.316 38.5 0 38.5-38.5 21.316-38.5 0-21.316-38.5 0-38.5" style="fill:#4d4d4d" transform="translate(64 76)scale(.45452)"/>
        <g style="fill:#4d4d4d">
            <path d="M46-3v6l5-3Z" style="fill:#4d4d4d;stroke-linejoin:round" transform="translate(64 76)scale(.45452)"/>
            <path d="M45.262-4.305A1.5 1.5 0 0 0 44.5-3v6a1.5 1.5 0 0 0 2.271 1.287l5-3a1.5 1.5 0 0 0 0-2.574l-5-3a1.5 1.5 0 0 0-1.51-.018M47.5-.35l.584.35-.584.35Z" style="fill:#4d4d4d;stroke-linejoin:round" transform="translate(64 76)scale(.45452)"/>
        </g>
        <g style="fill:#4d4d4d">
            <path d="m51 0-5-3v6Z" style="fill:#4d4d4d;stroke-linejoin:round" transform="rotate(11.25 -353.82 362.901)scale(.45452)"/>
            <path d="M45.262-4.305A1.5 1.5 0 0 0 44.5-3v6a1.5 1.5 0 0 0 2.271 1.287l5-3a1.5 1.5 0 0 0 0-2.574l-5-3a1.5 1.5 0 0 0-1.51-.018M47.5-.35l.584.35-.584.35Z" style="fill:#4d4d4d;stroke-linejoin:round" transform="rotate(11.25 -353.82 362.901)scale(.45452)"/>
        </g>
        <g style="fill:#4d4d4d">
            <path d="m51 0-5-3v6Z" style="fill:#4d4d4d;stroke-linejoin:round" transform="rotate(22.5 -159.039 198.875)scale(.45452)"/>
            <path d="M45.262-4.305A1.5 1.5 0 0 0 44.5-3v6a1.5 1.5 0 0 0 2.271 1.287l5-3a1.5 1.5 0 0 0 0-2.574l-5-3a1.5 1.5 0 0 0-1.51-.018M47.5-.35l.584.35-.584.35Z" style="fill:#4d4d4d;stroke-linejoin:round" transform="rotate(22.5 -159.039 198.875)scale(.45452)"/>
        </g>
        <g style="fill:#4d4d4d">
            <path d="m51 0-5-3v6Z" style="fill:#4d4d4d;stroke-linejoin:round" transform="rotate(33.75 -93.27 143.49)scale(.45452)"/>
            <path d="M45.262-4.305A1.5 1.5 0 0 0 44.5-3v6a1.5 1.5 0 0 0 2.271 1.287l5-3a1.5 1.5 0 0 0 0-2.574l-5-3a1.5 1.5 0 0 0-1.51-.018M47.5-.35l.584.35-.584.35Z" style="fill:#4d4d4d;stroke-linejoin:round" transform="rotate(33.75 -93.27 143.49)scale(.45452)"/>
        </g>
        <g style="fill:#4d4d4d">
            <path d="m51 0-5-3v6Z" style="fill:#4d4d4d;stroke-linejoin:round" transform="rotate(45 -59.74 115.255)scale(.45452)"/>
            <path d="M45.262-4.305A1.5 1.5 0 0 0 44.5-3v6a1.5 1.5 0 0 0 2.271 1.287l5-3a1.5 1.5 0 0 0 0-2.574l-5-3a1.5 1.5 0 0 0-1.51-.018M47.5-.35l.584.35-.584.35Z" style="fill:#4d4d4d;stroke-linejoin:round" transform="rotate(45 -59.74 115.255)scale(.45452)"/>
        </g>
        <g style="fill:#4d4d4d">
            <path d="m51 0-5-3v6Z" style="fill:#4d4d4d;stroke-linejoin:round" transform="rotate(56.25 -39.093 97.868)scale(.45452)"/>
            <path d="M45.262-4.305A1.5 1.5 0 0 0 44.5-3v6a1.5 1.5 0 0 0 2.271 1.287l5-3a1.5 1.5 0 0 0 0-2.574l-5-3a1.5 1.5 0 0 0-1.51-.018M47.5-.35l.584.35-.584.35Z" style="fill:#4d4d4d;stroke-linejoin:round" transform="rotate(56.25 -39.093 97.868)scale(.45452)"/>
        </g>
        <g style="fill:#4d4d4d">
            <path d="m51 0-5-3v6Z" style="fill:#4d4d4d;stroke-linejoin:round" transform="rotate(67.5 -24.871 85.891)scale(.45452)"/>
            <path d="M45.262-4.305A1.5 1.5 0 0 0 44.5-3v6a1.5 1.5 0 0 0 2.271 1.287l5-3a1.5 1.5 0 0 0 0-2.574l-5-3a1.5 1.5 0 0 0-1.51-.018M47.5-.35l.584.35-.584.35Z" style="fill:#4d4d4d;stroke-linejoin:round" transform="rotate(67.5 -24.871 85.891)scale(.45452)"/>
        </g>
        <g style="fill:#4d4d4d">
            <path d="m51 0-5-3v6Z" style="fill:#4d4d4d;stroke-linejoin:round" transform="rotate(78.75 -14.303 76.992)scale(.45452)"/>
            <path d="M45.262-4.305A1.5 1.5 0 0 0 44.5-3v6a1.5 1.5 0 0 0 2.271 1.287l5-3a1.5 1.5 0 0 0 0-2.574l-5-3a1.5 1.5 0 0 0-1.51-.018M47.5-.35l.584.35-.584.35Z" style="fill:#4d4d4d;stroke-linejoin:round" transform="rotate(78.75 -14.303 76.992)scale(.45452)"/>
        </g>
        <g style="fill:#4d4d4d">
            <path d="m51 0-5-3v6Z" style="fill:#4d4d4d;stroke-linejoin:round" transform="rotate(90 -6 70)scale(.45452)"/>
            <path d="M45.262-4.305A1.5 1.5 0 0 0 44.5-3v6a1.5 1.5 0 0 0 2.271 1.287l5-3a1.5 1.5 0 0 0 0-2.574l-5-3a1.5 1.5 0 0 0-1.51-.018M47.5-.35l.584.35-.584.35Z" style="fill:#4d4d4d;stroke-linejoin:round" transform="rotate(90 -6 70)scale(.45452)"/>
        </g>
        <g style="fill:#4d4d4d">
            <path d="m51 0-5-3v6Z" style="fill:#4d4d4d;stroke-linejoin:round" transform="rotate(101.25 .814 64.262)scale(.45452)"/>
            <path d="M45.262-4.305A1.5 1.5 0 0 0 44.5-3v6a1.5 1.5 0 0 0 2.271 1.287l5-3a1.5 1.5 0 0 0 0-2.574l-5-3a1.5 1.5 0 0 0-1.51-.018M47.5-.35l.584.35-.584.35Z" style="fill:#4d4d4d;stroke-linejoin:round" transform="rotate(101.25 .814 64.262)scale(.45452)"/>
        </g>
        <g style="fill:#4d4d4d">
            <path d="m51 0-5-3v6Z" style="fill:#4d4d4d;stroke-linejoin:round" transform="rotate(112.5 6.61 59.382)scale(.45452)"/>
            <path d="M45.262-4.305A1.5 1.5 0 0 0 44.5-3v6a1.5 1.5 0 0 0 2.271 1.287l5-3a1.5 1.5 0 0 0 0-2.574l-5-3a1.5 1.5 0 0 0-1.51-.018M47.5-.35l.584.35-.584.35Z" style="fill:#4d4d4d;stroke-linejoin:round" transform="rotate(112.5 6.61 59.382)scale(.45452)"/>
        </g>
        <g style="fill:#4d4d4d">
            <path d="m51 0-5-3v6Z" style="fill:#4d4d4d;stroke-linejoin:round" transform="rotate(123.75 11.689 55.104)scale(.45452)"/>
            <path d="M45.262-4.305A1.5 1.5 0 0 0 44.5-3v6a1.5 1.5 0 0 0 2.271 1.287l5-3a1.5 1.5 0 0 0 0-2.574l-5-3a1.5 1.5 0 0 0-1.51-.018M47.5-.35l.584.35-.584.35Z" style="fill:#4d4d4d;stroke-linejoin:round" transform="rotate(123.75 11.689 55.104)scale(.45452)"/>
        </g>
        <g style="fill:#4d4d4d">
            <path d="m51 0-5-3v6Z" style="fill:#4d4d4d;stroke-linejoin:round" transform="rotate(135 16.26 51.255)scale(.45452)"/>
            <path d="M45.262-4.305A1.5 1.5 0 0 0 44.5-3v6a1.5 1.5 0 0 0 2.271 1.287l5-3a1.5 1.5 0 0 0 0-2.574l-5-3a1.5 1.5 0 0 0-1.51-.018M47.5-.35l.584.35-.584.35Z" style="fill:#4d4d4d;stroke-linejoin:round" transform="rotate(135 16.26 51.255)scale(.45452)"/>
        </g>
        <g style="fill:#4d4d4d">
            <path d="m51 0-5-3v6Z" style="fill:#4d4d4d;stroke-linejoin:round" transform="rotate(146.25 20.473 47.707)scale(.45452)"/>
            <path d="M45.262-4.305A1.5 1.5 0 0 0 44.5-3v6a1.5 1.5 0 0 0 2.271 1.287l5-3a1.5 1.5 0 0 0 0-2.574l-5-3a1.5 1.5 0 0 0-1.51-.018M47.5-.35l.584.35-.584.35Z" style="fill:#4d4d4d;stroke-linejoin:round" transform="rotate(146.25 20.473 47.707)scale(.45452)"/>
        </g>
        <g style="fill:#4d4d4d">
            <path d="m51 0-5-3v6Z" style="fill:#4d4d4d;stroke-linejoin:round" transform="rotate(157.5 24.441 44.365)scale(.45452)"/>
            <path d="M45.262-4.305A1.5 1.5 0 0 0 44.5-3v6a1.5 1.5 0 0 0 2.271 1.287l5-3a1.5 1.5 0 0 0 0-2.574l-5-3a1.5 1.5 0 0 0-1.51-.018M47.5-.35l.584.35-.584.35Z" style="fill:#4d4d4d;stroke-linejoin:round" transform="rotate(157.5 24.441 44.365)scale(.45452)"/>
        </g>
        <g style="fill:#4d4d4d">
            <path d="m51 0-5-3v6Z" style="fill:#4d4d4d;stroke-linejoin:round" transform="rotate(168.75 28.257 41.152)scale(.45452)"/>
            <path d="M45.262-4.305A1.5 1.5 0 0 0 44.5-3v6a1.5 1.5 0 0 0 2.271 1.287l5-3a1.5 1.5 0 0 0 0-2.574l-5-3a1.5 1.5 0 0 0-1.51-.018M47.5-.35l.584.35-.584.35Z" style="fill:#4d4d4d;stroke-linejoin:round" transform="rotate(168.75 28.257 41.152)scale(.45452)"/>
        </g>
        <g style="fill:#4d4d4d">
            <path d="m51 0-5-3v6Z" style="fill:#4d4d4d;stroke-linejoin:round" transform="translate(64 76)scale(-.45452)"/>
            <path d="M45.262-4.305A1.5 1.5 0 0 0 44.5-3v6a1.5 1.5 0 0 0 2.271 1.287l5-3a1.5 1.5 0 0 0 0-2.574l-5-3a1.5 1.5 0 0 0-1.51-.018M47.5-.35l.584.35-.584.35Z" style="fill:#4d4d4d;stroke-linejoin:round" transform="translate(64 76)scale(-.45452)"/>
        </g>
        <g style="fill:#4d4d4d">
            <path d="m51 0-5-3v6Z" style="fill:#4d4d4d;stroke-linejoin:round" transform="rotate(191.25 35.743 34.848)scale(.45452)"/>
            <path d="M45.262-4.305A1.5 1.5 0 0 0 44.5-3v6a1.5 1.5 0 0 0 2.271 1.287l5-3a1.5 1.5 0 0 0 0-2.574l-5-3a1.5 1.5 0 0 0-1.51-.018M47.5-.35l.584.35-.584.35Z" style="fill:#4d4d4d;stroke-linejoin:round" transform="rotate(191.25 35.743 34.848)scale(.45452)"/>
        </g>
        <g style="fill:#4d4d4d">
            <path d="m51 0-5-3v6Z" style="fill:#4d4d4d;stroke-linejoin:round" transform="rotate(202.5 39.559 31.635)scale(.45452)"/>
            <path d="M45.262-4.305A1.5 1.5 0 0 0 44.5-3v6a1.5 1.5 0 0 0 2.271 1.287l5-3a1.5 1.5 0 0 0 0-2.574l-5-3a1.5 1.5 0 0 0-1.51-.018M47.5-.35l.584.35-.584.35Z" style="fill:#4d4d4d;stroke-linejoin:round" transform="rotate(202.5 39.559 31.635)scale(.45452)"/>
        </g>
        <g style="fill:#4d4d4d">
            <path d="m51 0-5-3v6Z" style="fill:#4d4d4d;stroke-linejoin:round" transform="rotate(213.75 43.527 28.293)scale(.45452)"/>
            <path d="M45.262-4.305A1.5 1.5 0 0 0 44.5-3v6a1.5 1.5 0 0 0 2.271 1.287l5-3a1.5 1.5 0 0 0 0-2.574l-5-3a1.5 1.5 0 0 0-1.51-.018M47.5-.35l.584.35-.584.35Z" style="fill:#4d4d4d;stroke-linejoin:round" transform="rotate(213.75 43.527 28.293)scale(.45452)"/>
        </g>
        <g style="fill:#4d4d4d">
            <path d="m51 0-5-3v6Z" style="fill:#4d4d4d;stroke-linejoin:round" transform="rotate(225 47.74 24.745)scale(.45452)"/>
            <path d="M45.262-4.305A1.5 1.5 0 0 0 44.5-3v6a1.5 1.5 0 0 0 2.271 1.287l5-3a1.5 1.5 0 0 0 0-2.574l-5-3a1.5 1.5 0 0 0-1.51-.018M47.5-.35l.584.35-.584.35Z" style="fill:#4d4d4d;stroke-linejoin:round" transform="rotate(225 47.74 24.745)scale(.45452)"/>
        </g>
        <g style="fill:#4d4d4d">
            <path d="m51 0-5-3v6Z" style="fill:#4d4d4d;stroke-linejoin:round" transform="rotate(236.25 52.311 20.896)scale(.45452)"/>
            <path d="M45.262-4.305A1.5 1.5 0 0 0 44.5-3v6a1.5 1.5 0 0 0 2.271 1.287l5-3a1.5 1.5 0 0 0 0-2.574l-5-3a1.5 1.5 0 0 0-1.51-.018M47.5-.35l.584.35-.584.35Z" style="fill:#4d4d4d;stroke-linejoin:round" transform="rotate(236.25 52.311 20.896)scale(.45452)"/>
        </g>
        <g style="fill:#4d4d4d">
            <path d="m51 0-5-3v6Z" style="fill:#4d4d4d;stroke-linejoin:round" transform="rotate(247.5 57.39 16.618)scale(.45452)"/>
            <path d="M45.262-4.305A1.5 1.5 0 0 0 44.5-3v6a1.5 1.5 0 0 0 2.271 1.287l5-3a1.5 1.5 0 0 0 0-2.574l-5-3a1.5 1.5 0 0 0-1.51-.018M47.5-.35l.584.35-.584.35Z" style="fill:#4d4d4d;stroke-linejoin:round" transform="rotate(247.5 57.39 16.618)scale(.45452)"/>
        </g>
        <g style="fill:#4d4d4d">
            <path d="m51 0-5-3v6Z" style="fill:#4d4d4d;stroke-linejoin:round" transform="rotate(258.75 63.186 11.738)scale(.45452)"/>
            <path d="M45.262-4.305A1.5 1.5 0 0 0 44.5-3v6a1.5 1.5 0 0 0 2.271 1.287l5-3a1.5 1.5 0 0 0 0-2.574l-5-3a1.5 1.5 0 0 0-1.51-.018M47.5-.35l.584.35-.584.35Z" style="fill:#4d4d4d;stroke-linejoin:round" transform="rotate(258.75 63.186 11.738)scale(.45452)"/>
        </g>
        <g style="fill:#4d4d4d">
            <path d="m51 0-5-3v6Z" style="fill:#4d4d4d;stroke-linejoin:round" transform="rotate(-90 70 6)scale(.45452)"/>
            <path d="M45.262-4.305A1.5 1.5 0 0 0 44.5-3v6a1.5 1.5 0 0 0 2.271 1.287l5-3a1.5 1.5 0 0 0 0-2.574l-5-3a1.5 1.5 0 0 0-1.51-.018M47.5-.35l.584.35-.584.35Z" style="fill:#4d4d4d;stroke-linejoin:round" transform="rotate(-90 70 6)scale(.45452)"/>
        </g>
        <g style="fill:#4d4d4d">
            <path d="m51 0-5-3v6Z" style="fill:#4d4d4d;stroke-linejoin:round" transform="rotate(-78.75 78.303 -.992)scale(.45452)"/>
            <path d="M45.262-4.305A1.5 1.5 0 0 0 44.5-3v6a1.5 1.5 0 0 0 2.271 1.287l5-3a1.5 1.5 0 0 0 0-2.574l-5-3a1.5 1.5 0 0 0-1.51-.018M47.5-.35l.584.35-.584.35Z" style="fill:#4d4d4d;stroke-linejoin:round" transform="rotate(-78.75 78.303 -.992)scale(.45452)"/>
        </g>
        <g style="fill:#4d4d4d">
            <path d="m51 0-5-3v6Z" style="fill:#4d4d4d;stroke-linejoin:round" transform="rotate(-67.5 88.871 -9.891)scale(.45452)"/>
            <path d="M45.262-4.305A1.5 1.5 0 0 0 44.5-3v6a1.5 1.5 0 0 0 2.271 1.287l5-3a1.5 1.5 0 0 0 0-2.574l-5-3a1.5 1.5 0 0 0-1.51-.018M47.5-.35l.584.35-.584.35Z" style="fill:#4d4d4d;stroke-linejoin:round" transform="rotate(-67.5 88.871 -9.891)scale(.45452)"/>
        </g>
        <g style="fill:#4d4d4d">
            <path d="m51 0-5-3v6Z" style="fill:#4d4d4d;stroke-linejoin:round" transform="matrix(.25252 -.37792 .37792 .25252 64 76)"/>
            <path d="M45.262-4.305A1.5 1.5 0 0 0 44.5-3v6a1.5 1.5 0 0 0 2.271 1.287l5-3a1.5 1.5 0 0 0 0-2.574l-5-3a1.5 1.5 0 0 0-1.51-.018M47.5-.35l.584.35-.584.35Z" style="fill:#4d4d4d;stroke-linejoin:round" transform="matrix(.25252 -.37792 .37792 .25252 64 76)"/>
        </g>
        <g style="fill:#4d4d4d">
            <path d="m51 0-5-3v6Z" style="fill:#4d4d4d;stroke-linejoin:round" transform="rotate(-45 123.74 -39.255)scale(.4545)"/>
            <path d="M45.262-4.305A1.5 1.5 0 0 0 44.5-3v6a1.5 1.5 0 0 0 2.271 1.287l5-3a1.5 1.5 0 0 0 0-2.574l-5-3a1.5 1.5 0 0 0-1.51-.018M47.5-.35l.584.35-.584.35Z" style="fill:#4d4d4d;stroke-linejoin:round" transform="rotate(-45 123.74 -39.255)scale(.4545)"/>
        </g>
        <g style="fill:#4d4d4d">
            <path d="m51 0-5-3v6Z" style="fill:#4d4d4d;stroke-linejoin:round" transform="rotate(-33.75 157.27 -67.49)scale(.45452)"/>
            <path d="M45.262-4.305A1.5 1.5 0 0 0 44.5-3v6a1.5 1.5 0 0 0 2.271 1.287l5-3a1.5 1.5 0 0 0 0-2.574l-5-3a1.5 1.5 0 0 0-1.51-.018M47.5-.35l.584.35-.584.35Z" style="fill:#4d4d4d;stroke-linejoin:round" transform="rotate(-33.75 157.27 -67.49)scale(.45452)"/>
        </g>
        <g style="fill:#4d4d4d">
            <path d="m51 0-5-3v6Z" style="fill:#4d4d4d;stroke-linejoin:round" transform="matrix(.41992 -.17394 .17394 .41992 64 76)"/>
            <path d="M45.262-4.305A1.5 1.5 0 0 0 44.5-3v6a1.5 1.5 0 0 0 2.271 1.287l5-3a1.5 1.5 0 0 0 0-2.574l-5-3a1.5 1.5 0 0 0-1.51-.018M47.5-.35l.584.35-.584.35Z" style="fill:#4d4d4d;stroke-linejoin:round" transform="matrix(.41992 -.17394 .17394 .41992 64 76)"/>
        </g>
        <g style="fill:#4d4d4d">
            <path d="m51 0-5-3v6Z" style="fill:#4d4d4d;stroke-linejoin:round" transform="matrix(.44578 -.08867 .08867 .44578 64 76)"/>
            <path d="M45.262-4.305A1.5 1.5 0 0 0 44.5-3v6a1.5 1.5 0 0 0 2.271 1.287l5-3a1.5 1.5 0 0 0 0-2.574l-5-3a1.5 1.5 0 0 0-1.51-.018M47.5-.35l.584.35-.584.35Z" style="fill:#4d4d4d;stroke-linejoin:round" transform="matrix(.44578 -.08867 .08867 .44578 64 76)"/>
        </g>
        <g style="fill:#4d4d4d">
            <path d="M7-42H-7l7 7z" style="fill:#4d4d4d;stroke-linejoin:round" transform="translate(64 76)scale(.45452)"/>
            <path d="M-7-45a3 3 0 0 0-2.121 5.121l7 7a3 3 0 0 0 4.242 0l7-7A3 3 0 0 0 7-45Z" style="fill:#4d4d4d;stroke-linejoin:round" transform="translate(64 76)scale(.45452)"/>
        </g>
        <g style="fill:#4d4d4d">
            <path d="m0-35 7-7H-7Z" style="fill:#4d4d4d;stroke-linejoin:round" transform="rotate(72 -20.303 82.044)scale(.45452)"/>
            <path d="M-7-45a3 3 0 0 0-2.121 5.121l7 7a3 3 0 0 0 4.242 0l7-7A3 3 0 0 0 7-45Z" style="fill:#4d4d4d;stroke-linejoin:round" transform="rotate(72 -20.303 82.044)scale(.45452)"/>
        </g>
        <g style="fill:#4d4d4d">
            <path d="m0-35 7-7H-7Z" style="fill:#4d4d4d;stroke-linejoin:round" transform="rotate(144 19.653 48.397)scale(.45452)"/>
            <path d="M-7-45a3 3 0 0 0-2.121 5.121l7 7a3 3 0 0 0 4.242 0l7-7A3 3 0 0 0 7-45Z" style="fill:#4d4d4d;stroke-linejoin:round" transform="rotate(144 19.653 48.397)scale(.45452)"/>
        </g>
        <g style="fill:#4d4d4d">
            <path d="m0-35 7-7H-7Z" style="fill:#4d4d4d;stroke-linejoin:round" transform="rotate(216 44.347 27.603)scale(.45452)"/>
            <path d="M-7-45a3 3 0 0 0-2.121 5.121l7 7a3 3 0 0 0 4.242 0l7-7A3 3 0 0 0 7-45Z" style="fill:#4d4d4d;stroke-linejoin:round" transform="rotate(216 44.347 27.603)scale(.45452)"/>
        </g>
        <g style="fill:#4d4d4d">
            <path d="m0-35 7-7H-7Z" style="fill:#4d4d4d;stroke-linejoin:round" transform="rotate(-72 84.303 -6.044)scale(.45452)"/>
            <path d="M-7-45a3 3 0 0 0-2.121 5.121l7 7a3 3 0 0 0 4.242 0l7-7A3 3 0 0 0 7-45Z" style="fill:#4d4d4d;stroke-linejoin:round" transform="rotate(-72 84.303 -6.044)scale(.45452)"/>
        </g>
    </g>
</svg>
