<svg xmlns="http://www.w3.org/2000/svg" xmlns:xlink="http://www.w3.org/1999/xlink" xml:space="preserve" width="128" height="128" viewBox="0 0 128 128">
    <defs>
        <linearGradient id="a">
            <stop offset="0" style="stop-color:#fafafa;stop-opacity:1"/>
            <stop offset="1" style="stop-color:#fff;stop-opacity:1"/>
        </linearGradient>
        <linearGradient xlink:href="#a" id="b" x1="64" x2="64" y1="115.548" y2="11.548" gradientUnits="userSpaceOnUse"/>
    </defs>
    <path d="M30 12.451c-3.324 0-6 2.676-6 6v92.002c0 3.324 2.676 6 6 6h68c3.324 0 6-2.676 6-6V42.984L80.957 12.998h1.115l-.42-.547z" style="fill:#999;fill-opacity:1;fill-rule:evenodd;stroke-width:1.34773"/>
    <path d="M30 11.548c-3.324 0-6 2.676-6 6v92c0 3.324 2.676 6 6 6h68c3.324 0 6-2.676 6-6V41.534L80.957 11.548Z" style="fill:url(#b);fill-opacity:1;fill-rule:evenodd;stroke-width:1.34773"/>
    <path d="M30 12.999a4.507 4.507 0 0 0-4.549 4.549v92A4.507 4.507 0 0 0 30 114.097h68a4.507 4.507 0 0 0 4.549-4.55v-69.9L82.072 12.999Z" style="fill:#ececec;fill-opacity:1;fill-rule:evenodd;stroke-width:1.34773"/>
    <path d="M80.957 11.548v24.89c0 3.324 2.676 6 6 6H104v-.904z" style="fill:#787878;fill-opacity:1;fill-rule:evenodd;stroke-width:1.4"/>
    <path d="M104 41.534 80.957 11.548v23.986c0 3.324 2.676 6 6 6z" style="fill:#dedede;fill-opacity:1;fill-rule:evenodd;stroke-width:1.4"/>
    <g transform="translate(-18.146 35.48)scale(.53064)">
        <path d="M124.174 42.227v74.226a5 5 0 0 1 5-5 5 5 0 0 1 5 5V42.227a5 5 0 0 1-5 5 5 5 0 0 1-5-5" style="fill:#999;fill-rule:evenodd;stroke-width:1.09218;stroke-dasharray:44.6126"/>
        <path d="M129.174 32.227a10 10 0 0 0-10 10 10 10 0 0 0 10 10 10 10 0 0 0 10-10 10 10 0 0 0-10-10m0 5a5 5 0 0 1 5 5 5 5 0 0 1-5 5 5 5 0 0 1-5-5 5 5 0 0 1 5-5" style="fill:#999;fill-rule:evenodd;stroke-dasharray:40.8475"/>
        <path d="M129.174 106.453a10 10 0 0 0-10 10 10 10 0 0 0 10 10 10 10 0 0 0 10-10 10 10 0 0 0-10-10m0 5a5 5 0 0 1 5 5 5 5 0 0 1-5 5 5 5 0 0 1-5-5 5 5 0 0 1 5-5" style="opacity:1;fill:#999;fill-opacity:1;fill-rule:evenodd;stroke-dasharray:40.8475"/>
        <path d="M175.44 47.227v69.226a5 5 0 0 1 5-5 5 5 0 0 1 5 5V47.227Z" style="fill:#999;fill-rule:evenodd;stroke-width:1.05475;stroke-dasharray:43.0838"/>
        <path d="M180.44 106.453a10 10 0 0 0-10 10 10 10 0 0 0 10 10 10 10 0 0 0 10-10 10 10 0 0 0-10-10m0 5a5 5 0 0 1 5 5 5 5 0 0 1-5 5 5 5 0 0 1-5-5 5 5 0 0 1 5-5" style="opacity:1;fill:#999;fill-opacity:1;fill-rule:evenodd;stroke-dasharray:40.8475"/>
        <rect width="10" height="27.863" x="-47.227" y="147.577" rx="0" ry="0" style="fill:#999;fill-rule:evenodd;stroke-width:.669157;stroke-dasharray:27.3334" transform="rotate(-90)"/>
        <path d="M188.93 12.527h-34.207l17.104-29.625z" style="opacity:1;fill:#999;fill-opacity:1;fill-rule:evenodd;stroke-dasharray:40.8475" transform="rotate(-90 145.93 -3.242)scale(.58466)"/>
        <path d="M175.44 37.227a10 10 0 0 0-10 10h10v10a10 10 0 0 0 10-10 10 10 0 0 0-10-10" style="opacity:1;fill:#999;fill-opacity:1;fill-rule:evenodd;stroke-width:1.15509;stroke-dasharray:47.1826"/>
    </g>
</svg>
