<svg xmlns="http://www.w3.org/2000/svg" xml:space="preserve" width="128" height="128" viewBox="0 0 128 128">
    <path d="M30 12.451c-3.324 0-6 2.676-6 6v92.002c0 3.324 2.676 6 6 6h68c3.324 0 6-2.676 6-6V42.984L80.957 12.998h1.115l-.42-.547z" style="fill:#6d5f92;fill-opacity:1;fill-rule:evenodd;stroke-width:1.34773"/>
    <path d="M30 11.548c-3.324 0-6 2.676-6 6v92c0 3.324 2.676 6 6 6h68c3.324 0 6-2.676 6-6V41.534L80.957 11.548Z" style="fill:#e7e5ee;fill-opacity:1;fill-rule:evenodd;stroke-width:1.34773"/>
    <path d="M30 12.999a4.507 4.507 0 0 0-4.549 4.549v92A4.507 4.507 0 0 0 30 114.097h68a4.507 4.507 0 0 0 4.549-4.55v-69.9L82.072 12.999Z" style="fill:#6d5f92;fill-opacity:1;fill-rule:evenodd;stroke-width:1.34773"/>
    <path d="M80.957 11.548v24.89c0 3.324 2.676 6 6 6H104v-.904z" style="fill:#fdfdfd;fill-opacity:1;fill-rule:evenodd;stroke-width:1.4"/>
    <path d="M104 41.534 80.957 11.548v23.986c0 3.324 2.676 6 6 6z" style="fill:#cfcadc;fill-opacity:1;fill-rule:evenodd;stroke-width:1.4"/>
    <path fill="#fff" d="m60.184 98.999-.751-31.878q-3.282 1.23-5.126 3.85-1.825 2.621-1.825 6.517 0 .889.092 1.46.113.546.228.887.114.32.205.502.114.182.114.319-1.208 0-2.142-.228-.934-.25-1.572-.775-.616-.523-.958-1.39-.319-.864-.319-2.14 0-1.55.66-3.054.683-1.503 1.846-2.848 1.185-1.344 2.757-2.483 1.596-1.14 3.395-1.96 1.823-.843 3.783-1.298 1.982-.48 3.942-.48.524 0 .958.023.455.022.91.068l.41 28.71 9.82-28.575h3.259L66.906 99h-6.723z" style="stroke-width:1.02941"/>
</svg>
