<svg xmlns="http://www.w3.org/2000/svg" xmlns:xlink="http://www.w3.org/1999/xlink" xml:space="preserve" width="128" height="128" viewBox="0 0 128 128">
    <defs>
        <linearGradient id="a">
            <stop offset="0" style="stop-color:#fafafa;stop-opacity:1"/>
            <stop offset="1" style="stop-color:#fff;stop-opacity:1"/>
        </linearGradient>
        <linearGradient xlink:href="#a" id="b" x1="64" x2="64" y1="115.548" y2="11.548" gradientUnits="userSpaceOnUse"/>
    </defs>
    <path d="M30 12.451c-3.324 0-6 2.676-6 6v92.002c0 3.324 2.676 6 6 6h68c3.324 0 6-2.676 6-6V42.984L80.957 12.998h1.115l-.42-.547z" style="fill:#999;fill-opacity:1;fill-rule:evenodd;stroke-width:1.34773"/>
    <path d="M30 11.548c-3.324 0-6 2.676-6 6v92c0 3.324 2.676 6 6 6h68c3.324 0 6-2.676 6-6V41.534L80.957 11.548Z" style="fill:url(#b);fill-opacity:1;fill-rule:evenodd;stroke-width:1.34773"/>
    <path d="M30 12.999a4.507 4.507 0 0 0-4.549 4.549v92A4.507 4.507 0 0 0 30 114.097h68a4.507 4.507 0 0 0 4.549-4.55v-69.9L82.072 12.999Z" style="fill:#ececec;fill-opacity:1;fill-rule:evenodd;stroke-width:1.34773"/>
    <path d="M80.957 11.548v24.89c0 3.324 2.676 6 6 6H104v-.904z" style="fill:#787878;fill-opacity:1;fill-rule:evenodd;stroke-width:1.4"/>
    <path d="M104 41.534 80.957 11.548v23.986c0 3.324 2.676 6 6 6z" style="fill:#dedede;fill-opacity:1;fill-rule:evenodd;stroke-width:1.4"/>
    <path d="M63.972 47.234a2.96 2.96 0 0 0-1.452.358L41.124 59.575a2.69 2.69 0 0 0-1.398 2.346v24.197c0 .06.008.118.012.178v.002a2.71 2.71 0 0 0 1.388 2.177l21.472 12.054a2.87 2.87 0 0 0 2.802 0c4.288-2.406 17.186-9.648 21.472-12.054a2.71 2.71 0 0 0 1.402-2.36V62.012c0-.651-.243-1.267-.66-1.75l.005-.004a2.7 2.7 0 0 0-.843-.735c-4.271-2.392-17.083-9.53-21.354-11.921a3 3 0 0 0-.512-.215c-.3-.1-.611-.154-.924-.153z" style="fill:#2f7bbf;fill-opacity:1;stroke-width:1.27763"/>
    <path d="M52.151 61.258v9.656h-.03v5.367h.03v10.59H58.6v-10.59h10.834v10.59h6.447V61.258h-6.447v9.656H58.599v-9.656z" style="-inkscape-font-specification:&quot;Adwaita Mono Bold&quot;;fill:#f9f9f9;fill-rule:evenodd;stroke-width:8.44007"/>
</svg>
