<svg xmlns="http://www.w3.org/2000/svg" xmlns:xlink="http://www.w3.org/1999/xlink" xml:space="preserve" width="128" height="128" viewBox="0 0 128 128">
    <defs>
        <linearGradient id="a">
            <stop offset="0" style="stop-color:#fafafa;stop-opacity:1"/>
            <stop offset="1" style="stop-color:#fff;stop-opacity:1"/>
        </linearGradient>
        <linearGradient xlink:href="#a" id="b" x1="64" x2="64" y1="115.548" y2="11.548" gradientUnits="userSpaceOnUse"/>
    </defs>
    <path d="M30 12.451c-3.324 0-6 2.676-6 6v92.002c0 3.324 2.676 6 6 6h68c3.324 0 6-2.676 6-6V42.984L80.957 12.998h1.115l-.42-.547z" style="fill:#999;fill-opacity:1;fill-rule:evenodd;stroke-width:1.34773"/>
    <path d="M30 11.548c-3.324 0-6 2.676-6 6v92c0 3.324 2.676 6 6 6h68c3.324 0 6-2.676 6-6V41.534L80.957 11.548Z" style="fill:url(#b);fill-opacity:1;fill-rule:evenodd;stroke-width:1.34773"/>
    <path d="M30 12.999a4.507 4.507 0 0 0-4.549 4.549v92A4.507 4.507 0 0 0 30 114.097h68a4.507 4.507 0 0 0 4.549-4.55v-69.9L82.072 12.999Z" style="fill:#ececec;fill-opacity:1;fill-rule:evenodd;stroke-width:1.34773"/>
    <path d="M80.957 11.548v24.89c0 3.324 2.676 6 6 6H104v-.904z" style="fill:#787878;fill-opacity:1;fill-rule:evenodd;stroke-width:1.4"/>
    <path d="M104 41.534 80.957 11.548v23.986c0 3.324 2.676 6 6 6z" style="fill:#dedede;fill-opacity:1;fill-rule:evenodd;stroke-width:1.4"/>
    <g transform="translate(-6.236 -7.529)scale(1.09704)">
        <path d="M48.451 58.613c-7.424 8.069-5.625 23.105 4.017 33.583s23.476 12.431 30.9 4.363c7.426-8.069 5.631-23.106-4.01-33.584-9.643-10.478-23.482-12.43-30.907-4.362m6.733 3.352c5.834-6.34 16.56-4.96 23.96 3.08 7.4 8.042 8.668 19.698 2.834 26.038s-16.562 4.964-23.962-3.078-8.666-19.7-2.832-26.04" style="fill:#50c0db;fill-opacity:1;stroke:none;stroke-width:1.42895"/>
        <rect width="6.216" height="6.216" x="75.529" y="61.478" rx="1.1" ry="1.1" style="fill:#ff9f60;fill-opacity:1;fill-rule:nonzero;stroke:none;stroke-width:1.06319;stroke-miterlimit:4;stroke-dasharray:none"/>
        <rect width="14.64" height="14.64" x="40.584" y="69.667" rx="2.59" ry="2.59" style="fill:#ff9f60;fill-opacity:1;fill-rule:nonzero;stroke:none;stroke-width:1.06319;stroke-miterlimit:4;stroke-dasharray:none"/>
        <rect width="8.845" height="8.845" x="78.42" y="88.833" rx="1.565" ry="1.565" style="fill:#ff9f60;fill-opacity:1;fill-rule:nonzero;stroke:none;stroke-width:1.06319;stroke-miterlimit:4;stroke-dasharray:none"/>
    </g>
</svg>
