<svg xmlns="http://www.w3.org/2000/svg" xmlns:xlink="http://www.w3.org/1999/xlink" xml:space="preserve" width="128" height="128" viewBox="0 0 128 128">
    <defs>
        <path id="d" d="M20.04-75.84h20.28c13.92 0 17.64 2.76 19.68 14.64h3.12l-1.2-19.56H2.64L28.8-38.4.6 0h63.6l6.48-21.6h-3.12C63.72-12 60.12-9.96 46.2-9.96H14.16l25.32-34.32z"/>
        <path id="e" d="M64.704-55.008v43.488c0 7.968-1.152 9.216-8.736 9.696h26.88c-7.008-.48-8.352-1.824-8.352-8.64v-42.624c0-6.816 1.248-8.064 8.352-8.64v-1.824H63.744l-21.216 48.48-22.176-48.48H1.344v1.824c7.872.48 9.12 1.632 9.12 8.64v38.976c0 9.888-1.344 11.712-9.312 12.288h22.56c-7.392-.384-9.024-2.592-9.024-12.288V-52.8L38.784 0h1.344z"/>
        <path id="c" d="M36.12-91.68c-1.08-.12-2.04-.24-2.64-.24-5.4 0-10.8 4.32-11.64 9.24-.72 4.44 1.32 7.08 6.84 8.76-3.36 2.88-5.52 6.48-6.24 10.44-.72 4.56.6 8.4 4.44 12.72-4.68 3.12-6.96 4.92-9.48 7.32-5.16 5.04-9 12.36-10.08 19.32-1.68 9.48 1.8 18.24 8.4 21.84C19.32-.36 23.76.36 31.08.36c2.16 0 4.8-.12 10.56-.36 4.68-.24 7.8 3.24 7.08 7.92-.72 4.56-4.56 7.92-9 7.92-.6 0-2.88-.24-5.16-.72-2.76-.36-3.72-.48-4.8-.48-3 0-5.4 2.04-5.88 5.04-.72 4.08 2.88 6.96 8.76 6.96 5.64 0 10.32-2.4 15.12-7.56 4.2-4.56 6.96-10.08 7.92-15.6.96-5.4-.36-9.6-3.72-12.48-2.4-2.16-5.04-2.76-10.44-2.76H31.08c-5.16 0-9.12-.48-11.16-1.44-4.68-2.28-7.32-7.92-6.24-14.16 1.44-8.52 7.8-15.72 18.84-21.48 3.12 1.2 5.52 1.56 9.24 1.56 9.48 0 15.6-2.52 16.32-6.72.48-2.76-2.4-4.32-7.68-4.32-4.68 0-9.24 1.32-18.24 5.04C27.6-57 26.4-59.4 27-63.24c.6-3.72 3.48-7.32 8.52-10.68 6-.24 10.2-.96 13.8-2.64 4.32-2.04 7.56-5.04 7.92-7.8.48-2.28-1.32-3.6-4.68-3.6-4.44 0-9.84 2.76-18.6 9.6-3.84-.12-6-2.4-5.4-5.52.36-2.64 2.76-4.44 7.2-5.64z"/>
        <linearGradient id="a">
            <stop offset="0" style="stop-color:#fafafa;stop-opacity:1"/>
            <stop offset="1" style="stop-color:#fff;stop-opacity:1"/>
        </linearGradient>
        <linearGradient xlink:href="#a" id="b" x1="64" x2="64" y1="115.548" y2="11.548" gradientUnits="userSpaceOnUse"/>
    </defs>
    <path d="M30 12.451c-3.324 0-6 2.676-6 6v92.002c0 3.324 2.676 6 6 6h68c3.324 0 6-2.676 6-6V42.984L80.957 12.998h1.115l-.42-.547z" style="fill:#999;fill-opacity:1;fill-rule:evenodd;stroke-width:1.34773"/>
    <path d="M30 11.548c-3.324 0-6 2.676-6 6v92c0 3.324 2.676 6 6 6h68c3.324 0 6-2.676 6-6V41.534L80.957 11.548Z" style="fill:url(#b);fill-opacity:1;fill-rule:evenodd;stroke-width:1.34773"/>
    <path d="M30 12.999a4.507 4.507 0 0 0-4.549 4.549v92A4.507 4.507 0 0 0 30 114.097h68a4.507 4.507 0 0 0 4.549-4.55v-69.9L82.072 12.999Z" style="fill:#ececec;fill-opacity:1;fill-rule:evenodd;stroke-width:1.34773"/>
    <path d="M80.957 11.548v24.89c0 3.324 2.676 6 6 6H104v-.904z" style="fill:#787878;fill-opacity:1;fill-rule:evenodd;stroke-width:1.4"/>
    <path d="M104 41.534 80.957 11.548v23.986c0 3.324 2.676 6 6 6z" style="fill:#dedede;fill-opacity:1;fill-rule:evenodd;stroke-width:1.4"/>
    <use xlink:href="#c" x="1" y="99" style="fill:#d5d5d5;fill-opacity:1" transform="translate(31.733 47.37)scale(.47952)"/>
    <use xlink:href="#d" x="56" y="99" style="fill:#d5d5d5;fill-opacity:1" transform="translate(31.733 47.37)scale(.47952)"/>
    <use xlink:href="#e" x="29" y="95" style="fill:#dd4949;fill-opacity:1" transform="translate(31.733 47.37)scale(.47952)"/>
</svg>
