<svg xmlns="http://www.w3.org/2000/svg" xmlns:xlink="http://www.w3.org/1999/xlink" xml:space="preserve" width="128" height="128" viewBox="0 0 128 128">
    <defs>
        <linearGradient id="a">
            <stop offset="0" style="stop-color:#fcf3ab;stop-opacity:1"/>
            <stop offset="1" style="stop-color:#fff;stop-opacity:1"/>
        </linearGradient>
        <linearGradient xlink:href="#a" id="b" x1="64" x2="64" y1="115.548" y2="11.548" gradientUnits="userSpaceOnUse"/>
    </defs>
    <path d="M30 12.451c-3.324 0-6 2.676-6 6v92.002c0 3.324 2.676 6 6 6h68c3.324 0 6-2.676 6-6V42.984L80.957 12.998h1.115l-.42-.547z" style="fill:#3e3702;fill-opacity:1;fill-rule:evenodd;stroke-width:1.34773"/>
    <path d="M30 11.548c-3.324 0-6 2.676-6 6v92c0 3.324 2.676 6 6 6h68c3.324 0 6-2.676 6-6V41.534L80.957 11.548Z" style="fill:url(#b);fill-opacity:1;fill-rule:evenodd;stroke-width:1.34773"/>
    <path d="M30 12.999a4.507 4.507 0 0 0-4.549 4.549v92A4.507 4.507 0 0 0 30 114.097h68a4.507 4.507 0 0 0 4.549-4.55v-69.9L82.072 12.999Z" style="fill:#f7df1e;fill-opacity:1;fill-rule:evenodd;stroke-width:1.34773"/>
    <path d="M80.957 11.548v24.89c0 3.324 2.676 6 6 6H104v-.904z" style="fill:#3e3702;fill-opacity:1;fill-rule:evenodd;stroke-width:1.4"/>
    <path d="M104 41.534 80.957 11.548v23.986c0 3.324 2.676 6 6 6z" style="fill:#fcf19f;fill-opacity:1;fill-rule:evenodd;stroke-width:1.4"/>
    <path d="M69.904 88.494c1.506 2.46 3.467 4.268 6.934 4.268 2.912 0 4.772-1.456 4.772-3.467 0-2.41-1.911-3.264-5.117-4.666l-1.757-.754c-5.072-2.16-8.442-4.868-8.442-10.59 0-5.272 4.017-9.285 10.294-9.285 4.47 0 7.682 1.555 9.997 5.628l-5.473 3.514c-1.205-2.16-2.505-3.012-4.524-3.012-2.059 0-3.363 1.306-3.363 3.012 0 2.109 1.306 2.962 4.321 4.268l1.758.753c5.972 2.561 9.343 5.172 9.343 11.042C88.647 95.533 83.677 99 77 99c-6.528 0-10.745-3.11-12.808-7.188zm-24.83.609c1.104 1.959 2.109 3.615 4.524 3.615 2.309 0 3.766-.903 3.766-4.417v-23.9h7.028v23.995c0 7.278-4.267 10.59-10.495 10.59-5.628 0-8.887-2.911-10.544-6.42z" style="stroke-width:.118729"/>
</svg>
