<svg xmlns="http://www.w3.org/2000/svg" xml:space="preserve" width="128" height="128" viewBox="0 0 128 128">
    <path d="M30 12.451c-3.324 0-6 2.676-6 6v92.002c0 3.324 2.676 6 6 6h68c3.324 0 6-2.676 6-6V42.984L80.957 12.998h1.115l-.42-.547z" style="fill:#3178c6;fill-opacity:1;fill-rule:evenodd;stroke-width:1.34773"/>
    <path d="M30 11.548c-3.324 0-6 2.676-6 6v92c0 3.324 2.676 6 6 6h68c3.324 0 6-2.676 6-6V41.534L80.957 11.548Z" style="fill:#c8dcf1;fill-opacity:1;fill-rule:evenodd;stroke-width:1.34773"/>
    <path d="M30 12.999a4.507 4.507 0 0 0-4.549 4.549v92A4.507 4.507 0 0 0 30 114.097h68a4.507 4.507 0 0 0 4.549-4.55v-69.9L82.072 12.999Z" style="fill:#3178c6;fill-opacity:1;fill-rule:evenodd;stroke-width:1.34773"/>
    <path d="M80.957 11.548v24.89c0 3.324 2.676 6 6 6H104v-.904z" style="fill:#fff;fill-opacity:1;fill-rule:evenodd;stroke-width:1.4"/>
    <path d="M104 41.534 80.957 11.548v23.986c0 3.324 2.676 6 6 6z" style="fill:#b1d2f5;fill-opacity:1;fill-rule:evenodd;stroke-width:1.4"/>
    <path fill="#fff" fill-rule="evenodd" d="M67.46 89.56v7.551q1.842.945 4.357 1.416 2.514.473 5.3.473 2.715 0 5.16-.52 2.442-.519 4.285-1.71a8.7 8.7 0 0 0 2.915-3.116q1.075-1.923 1.075-4.756 0-2.053-.614-3.599-.615-1.545-1.771-2.75-1.157-1.203-2.774-2.159a30 30 0 0 0-3.648-1.805q-1.487-.614-2.668-1.192a13.6 13.6 0 0 1-2.007-1.18q-.826-.602-1.275-1.274a2.7 2.7 0 0 1-.449-1.523q0-.779.402-1.404.401-.626 1.133-1.074t1.795-.696a10.4 10.4 0 0 1 2.36-.248q.945 0 1.996.142 1.05.141 2.113.436t2.066.744q1.004.449 1.853 1.038v-7.056a18.4 18.4 0 0 0-3.766-.98Q83.257 64 80.612 64q-2.693 0-5.1.578-2.409.578-4.238 1.805a9 9 0 0 0-2.893 3.127q-1.062 1.9-1.062 4.543 0 3.375 1.948 5.76 1.947 2.382 5.914 4.035 1.56.637 2.904 1.25 1.347.615 2.326 1.275t1.547 1.44q.566.778.566 1.77 0 .732-.354 1.357-.354.626-1.074 1.085-.72.46-1.795.72t-2.514.26q-2.455 0-4.864-.862a14.5 14.5 0 0 1-4.462-2.584M54.765 70.951h9.689v-6.198H37.448v6.198h9.641v27.595h7.675z" clip-rule="evenodd" style="stroke-width:.150862"/>
</svg>
