<svg xmlns="http://www.w3.org/2000/svg" xml:space="preserve" width="128" height="128" viewBox="0 0 128 128">
    <path d="M30 12.451c-3.324 0-6 2.676-6 6v92.002c0 3.324 2.676 6 6 6h68c3.324 0 6-2.676 6-6V42.984L80.957 12.998h1.115l-.42-.547z" style="fill:#007e82;fill-opacity:1;fill-rule:evenodd;stroke-width:1.34773"/>
    <path d="M30 11.548c-3.324 0-6 2.676-6 6v92c0 3.324 2.676 6 6 6h68c3.324 0 6-2.676 6-6V41.534L80.957 11.548Z" style="fill:#f1fafa;fill-opacity:1;fill-rule:evenodd;stroke-width:1.34773"/>
    <path d="M30 12.999a4.507 4.507 0 0 0-4.549 4.549v92A4.507 4.507 0 0 0 30 114.097h68a4.507 4.507 0 0 0 4.549-4.55v-69.9L82.072 12.999Z" style="fill:#bce7e9;fill-opacity:1;fill-rule:evenodd;stroke-width:1.34773"/>
    <path d="M80.957 11.548v24.89c0 3.324 2.676 6 6 6H104v-.904z" style="fill:#007e82;fill-opacity:1;fill-rule:evenodd;stroke-width:1.4"/>
    <path d="M104 41.534 80.957 11.548v23.986c0 3.324 2.676 6 6 6z" style="fill:#85cdd0;fill-opacity:1;fill-rule:evenodd;stroke-width:1.4"/>
    <g fill="none" style="stroke:#00979c">
        <path stroke-width="4.86" d="M48.758 62.613c-7.834-.623-14.416 8.65-11.203 15.817 3.13 7.776 14.91 9.885 20.511 3.657 5.43-5.321 7.521-13.51 14.17-17.71 6.754-4.614 17.628-.258 18.946 7.94 1.285 7.85-7.175 15.487-14.828 13.18-5.66-1.276-9.72-6.112-12.027-11.203-2.842-4.86-6.557-10.05-12.356-11.368a14 14 0 0 0-3.147-.324z"/>
        <path stroke-width="2.059" d="M44.145 73.734h9.885"/>
        <path stroke-width="2.636" d="M74.46 73.734h8.237m-4.201-4.119v8.238"/>
    </g>
</svg>
