<svg xmlns="http://www.w3.org/2000/svg" xmlns:xlink="http://www.w3.org/1999/xlink" xml:space="preserve" width="128" height="128" viewBox="0 0 128 128">
    <defs>
        <linearGradient id="b">
            <stop offset="0" style="stop-color:#4b52e2;stop-opacity:1"/>
            <stop offset="1" style="stop-color:#f53b70;stop-opacity:1"/>
        </linearGradient>
        <linearGradient id="a">
            <stop offset="0" style="stop-color:#8f77ed;stop-opacity:1"/>
            <stop offset="1" style="stop-color:#f27b9b;stop-opacity:1"/>
        </linearGradient>
        <linearGradient xlink:href="#a" id="c" x1="12.242" x2="118.533" y1="95.549" y2="34.182" gradientUnits="userSpaceOnUse"/>
        <linearGradient xlink:href="#b" id="d" x1="30.912" x2="102.59" y1="87.891" y2="33.982" gradientUnits="userSpaceOnUse"/>
    </defs>
    <path d="M20.086 25.258c-4.432 0-8 3.568-8 8v61.96c0 4.433 3.568 8 8 8h87.828c4.432 0 8-3.567 8-8v-61.96c0-4.432-3.568-8-8-8zm1.883 7.943h6.883c.554 0 1 .446 1 1v7.664c0 .554-.446 1-1 1h-6.883c-.554 0-1-.446-1-1v-7.663c0-.555.446-1 1-1m77.18 0h6.882c.554 0 1 .446 1 1v7.664c0 .554-.446 1-1 1h-6.883c-.554 0-1-.446-1-1v-7.663c0-.555.446-1 1-1m-77.18 16.371h6.883c.554 0 1 .446 1 1v7.664c0 .554-.446 1-1 1h-6.883c-.554 0-1-.446-1-1v-7.664c0-.554.446-1 1-1m77.18 0h6.882c.554 0 1 .446 1 1v7.664c0 .554-.446 1-1 1h-6.883c-.554 0-1-.446-1-1v-7.664c0-.554.446-1 1-1m-77.18 16.371h6.883c.554 0 1 .446 1 1v7.664c0 .554-.446 1-1 1h-6.883c-.554 0-1-.446-1-1v-7.664c0-.554.446-1 1-1m77.18 0h6.882c.554 0 1 .446 1 1v7.664c0 .554-.446 1-1 1h-6.883c-.554 0-1-.446-1-1v-7.664c0-.554.446-1 1-1m-77.18 16.371h6.883c.554 0 1 .446 1 1v7.665c0 .554-.446 1-1 1h-6.883c-.554 0-1-.446-1-1v-7.665c0-.554.446-1 1-1m77.18 0h6.882c.554 0 1 .446 1 1v7.665c0 .554-.446 1-1 1h-6.883c-.554 0-1-.446-1-1v-7.665c0-.554.446-1 1-1" style="opacity:1;fill:#5c2b6e;fill-opacity:1;fill-rule:evenodd;stroke-width:1.01423;stroke-dasharray:41.4286"/>
    <path d="M20.086 24c-4.432 0-8 3.568-8 8v61.96c0 4.433 3.568 8 8 8h87.828c4.432 0 8-3.567 8-8V32c0-4.432-3.568-8-8-8zm1.883 9.982h6.883c.554 0 1 .446 1 1v6.883c0 .554-.446 1-1 1h-6.883c-.554 0-1-.446-1-1v-6.883c0-.554.446-1 1-1m77.18 0h6.882c.554 0 1 .446 1 1v6.883c0 .554-.446 1-1 1h-6.883c-.554 0-1-.446-1-1v-6.883c0-.554.446-1 1-1m-77.18 16.372h6.883c.554 0 1 .446 1 1v6.882c0 .554-.446 1-1 1h-6.883c-.554 0-1-.446-1-1v-6.882c0-.554.446-1 1-1m77.18 0h6.882c.554 0 1 .446 1 1v6.882c0 .554-.446 1-1 1h-6.883c-.554 0-1-.446-1-1v-6.882c0-.554.446-1 1-1m-77.18 16.37h6.883c.554 0 1 .447 1 1v6.883c0 .554-.446 1-1 1h-6.883c-.554 0-1-.446-1-1v-6.882c0-.554.446-1 1-1m77.18 0h6.882c.554 0 1 .447 1 1v6.883c0 .554-.446 1-1 1h-6.883c-.554 0-1-.446-1-1v-6.882c0-.554.446-1 1-1m-77.18 16.372h6.883c.554 0 1 .446 1 1v6.883c0 .554-.446 1-1 1h-6.883c-.554 0-1-.446-1-1v-6.883c0-.554.446-1 1-1m77.18 0h6.882c.554 0 1 .446 1 1v6.883c0 .554-.446 1-1 1h-6.883c-.554 0-1-.446-1-1v-6.883c0-.554.446-1 1-1" style="opacity:1;fill:url(#c);fill-opacity:1;fill-rule:evenodd;stroke-width:1.01423;stroke-dasharray:41.4286"/>
    <path d="M20.086 25.5c-3.62 0-6.5 2.88-6.5 6.5v61.96c0 3.62 2.88 6.5 6.5 6.5h87.828c3.62 0 6.5-2.88 6.5-6.5V32c0-3.62-2.88-6.5-6.5-6.5zm1.883 8.482h6.883c.554 0 1 .446 1 1v6.883c0 .554-.446 1-1 1h-6.883c-.554 0-1-.446-1-1v-6.883c0-.554.446-1 1-1m77.18 0h6.882c.554 0 1 .446 1 1v6.883c0 .554-.446 1-1 1h-6.883c-.554 0-1-.446-1-1v-6.883c0-.554.446-1 1-1m-77.18 16.372h6.883c.554 0 1 .446 1 1v6.882c0 .554-.446 1-1 1h-6.883c-.554 0-1-.446-1-1v-6.882c0-.554.446-1 1-1m77.18 0h6.882c.554 0 1 .446 1 1v6.882c0 .554-.446 1-1 1h-6.883c-.554 0-1-.446-1-1v-6.882c0-.554.446-1 1-1m-77.18 16.37h6.883c.554 0 1 .447 1 1v6.883c0 .554-.446 1-1 1h-6.883c-.554 0-1-.446-1-1v-6.882c0-.554.446-1 1-1m77.18 0h6.882c.554 0 1 .447 1 1v6.883c0 .554-.446 1-1 1h-6.883c-.554 0-1-.446-1-1v-6.882c0-.554.446-1 1-1m-77.18 16.372h6.883c.554 0 1 .446 1 1v6.883c0 .554-.446 1-1 1h-6.883c-.554 0-1-.446-1-1v-6.883c0-.554.446-1 1-1m77.18 0h6.882c.554 0 1 .446 1 1v6.883c0 .554-.446 1-1 1h-6.883c-.554 0-1-.446-1-1v-6.883c0-.554.446-1 1-1" style="fill:url(#d);fill-rule:evenodd"/>
    <path d="M64 41.38a22.85 22.85 0 0 0-22.849 22.85A22.85 22.85 0 0 0 64 87.077a22.85 22.85 0 0 0 22.849-22.849A22.85 22.85 0 0 0 64 41.38m-6.982 10.108a1.512 1.609 0 0 1 1.018.19l18.159 11.157a1.512 1.609 0 0 1 0 2.787L58.036 76.78a1.512 1.609 0 0 1-2.268-1.393V53.073a1.512 1.609 0 0 1 1.25-1.585" style="fill:#5c2b6e;fill-opacity:1;fill-rule:evenodd;stroke-width:2.48565;stroke-dasharray:101.532"/>
    <path d="M64 40.132A22.85 22.85 0 0 0 41.151 62.98 22.85 22.85 0 0 0 64 85.83a22.85 22.85 0 0 0 22.849-22.85A22.85 22.85 0 0 0 64 40.132M57.018 50.24a1.512 1.609 0 0 1 1.018.19l18.159 11.156a1.512 1.609 0 0 1 0 2.787L58.036 75.53a1.512 1.609 0 0 1-2.268-1.393V51.824a1.512 1.609 0 0 1 1.25-1.584" style="fill:#ede4fb;fill-opacity:1;fill-rule:evenodd;stroke-width:2.48565;stroke-dasharray:101.532"/>
</svg>
