<svg xmlns="http://www.w3.org/2000/svg" xml:space="preserve" width="128" height="128" viewBox="0 0 128 128">
    <path d="M30 12.451c-3.324 0-6 2.676-6 6v92.002c0 3.324 2.676 6 6 6h68c3.324 0 6-2.676 6-6V42.984L80.957 12.998h1.115l-.42-.547z" style="fill:#216778;fill-opacity:1;fill-rule:evenodd;stroke-width:1.34773"/>
    <path d="M30 11.548c-3.324 0-6 2.676-6 6v92c0 3.324 2.676 6 6 6h68c3.324 0 6-2.676 6-6V41.534L80.957 11.548Z" style="fill:#e8f5f9;fill-opacity:1;fill-rule:evenodd;stroke-width:1.34773"/>
    <path d="M30 12.999a4.507 4.507 0 0 0-4.549 4.549v92A4.507 4.507 0 0 0 30 114.097h68a4.507 4.507 0 0 0 4.549-4.55v-69.9L82.072 12.999Z" style="fill:#5fbcd3;fill-opacity:1;fill-rule:evenodd;stroke-width:1.34773"/>
    <path d="M80.957 11.548v24.89c0 3.324 2.676 6 6 6H104v-.904z" style="fill:#216778;fill-opacity:1;fill-rule:evenodd;stroke-width:1.4"/>
    <path d="M104 41.534 80.957 11.548v23.986c0 3.324 2.676 6 6 6z" style="fill:#d7eef4;fill-opacity:1;fill-rule:evenodd;stroke-width:1.4"/>
    <g style="fill:#fbfbfb;fill-opacity:1">
        <path d="m330.6 0-51.2 176.3H512v-113c0-18.7-8-35.6-20.8-47.1-5.4-4.9-11.5-8.8-18.1-11.5C465.7 1.6 457 0 449 0Zm45 60h74.2c1.3 0 2.4 1.1 2.4 2.4v54h-92.9z" style="fill:#fbfbfb;fill-opacity:1" transform="translate(40.61 57.836)scale(.09137)"/>
        <path d="m0 0 110.6 389.9c2.8 9.7 5.3 14.8 9 20.2 1.3 2 2.8 3.8 4.3 5.6 3.7 4.4 7.9 8.1 12.6 11.2 5.2 3.5 10.4 6.1 16.3 8 6.9 2.2 13 2.9 21.2 2.9h92.3l40.9-141.4h145v79c0 1.3-1.1 2.4-2.4 2.4H345.7l-17.4 60h120.6c16.4 0 30.6-5.8 41.6-15.5 13.2-11.6 21.5-28 21.5-47.7V236.4H262l-40.9 141.4h-51.7L79.3 60h62.3l33 116.3h62.2L186.8 0Z" style="fill:#fbfbfb;fill-opacity:1" transform="translate(40.61 57.836)scale(.09137)"/>
    </g>
</svg>
