<svg xmlns="http://www.w3.org/2000/svg" xmlns:xlink="http://www.w3.org/1999/xlink" xml:space="preserve" width="128" height="128" viewBox="0 0 128 128">
    <defs>
        <linearGradient id="b">
            <stop offset="0" style="stop-color:#78aef9;stop-opacity:1"/>
            <stop offset="1" style="stop-color:#aecefb;stop-opacity:0"/>
        </linearGradient>
        <linearGradient id="c">
            <stop offset="0" style="stop-color:#3ae071;stop-opacity:1"/>
            <stop offset="1" style="stop-color:#aecefb;stop-opacity:0"/>
        </linearGradient>
        <linearGradient id="a">
            <stop offset="0" style="stop-color:#fafafa;stop-opacity:1"/>
            <stop offset="1" style="stop-color:#fff;stop-opacity:1"/>
        </linearGradient>
        <linearGradient xlink:href="#a" id="d" x1="64" x2="64" y1="115.548" y2="11.548" gradientUnits="userSpaceOnUse"/>
        <radialGradient xlink:href="#b" id="e" cx="35.852" cy="103.868" r="13.858" fx="35.852" fy="103.868" gradientTransform="matrix(3.30814 0 0 3.8402 -78.695 -292.778)" gradientUnits="userSpaceOnUse"/>
        <radialGradient xlink:href="#c" id="f" cx="37.141" cy="103.868" r="13.858" fx="37.141" fy="103.868" gradientTransform="rotate(1.177 23610.657 -8457.044)scale(3.36156 3.95157)" gradientUnits="userSpaceOnUse"/>
    </defs>
    <path d="M30 12.45c-3.324 0-6 2.677-6 6v92.003c0 3.324 2.676 6 6 6h68c3.324 0 6-2.676 6-6v-67.47L80.957 12.999h1.115l-.42-.547z" style="fill:#b3b3b3;fill-opacity:1;fill-rule:evenodd;stroke-width:1.34773"/>
    <path d="M30 11.547c-3.324 0-6 2.676-6 6v92c0 3.324 2.676 6 6 6h68c3.324 0 6-2.676 6-6V41.534L80.957 11.547Z" style="fill:url(#d);fill-opacity:1;fill-rule:evenodd;stroke-width:1.34773"/>
    <path d="M30 12.999a4.507 4.507 0 0 0-4.549 4.548v92a4.507 4.507 0 0 0 4.549 4.55h68a4.507 4.507 0 0 0 4.549-4.55V39.645L82.072 12.999Z" style="fill:#ececec;fill-opacity:1;fill-rule:evenodd;stroke-width:1.34773"/>
    <path d="M80.957 11.547v24.891c0 3.324 2.676 6 6 6H104v-.904Z" style="fill:#b3b3b3;fill-opacity:1;fill-rule:evenodd;stroke-width:1.4"/>
    <path d="M104 41.534 80.957 11.547v23.987c0 3.324 2.676 6 6 6z" style="fill:#dedede;fill-opacity:1;fill-rule:evenodd;stroke-width:1.4"/>
    <rect width="60.681" height="2.475" x="33.659" y="59.074" rx="1.237" ry="1.237" style="fill:#ccc;fill-rule:evenodd;stroke:none;stroke-width:1.81226"/>
    <rect width="37.028" height="2.475" x="33.659" y="51.65" rx="1.237" ry="1.237" style="fill:#ccc;fill-rule:evenodd;stroke:none;stroke-width:1.41566"/>
    <rect width="26.74" height="2.475" x="67.6" y="73.924" rx="1.237" ry="1.237" style="fill:#ccc;fill-rule:evenodd;stroke:none;stroke-width:1.20302"/>
    <rect width="26.74" height="2.475" x="67.6" y="81.348" rx="1.237" ry="1.237" style="fill:#ccc;fill-rule:evenodd;stroke:none;stroke-width:1.20302"/>
    <rect width="26.74" height="2.475" x="67.6" y="88.773" rx="1.237" ry="1.237" style="fill:#ccc;fill-rule:evenodd;stroke:none;stroke-width:1.20301"/>
    <rect width="26.74" height="2.475" x="67.6" y="103.622" rx="1.237" ry="1.237" style="fill:#ccc;fill-rule:evenodd;stroke:none;stroke-width:1.20301"/>
    <rect width="26.74" height="2.475" x="67.6" y="96.198" rx="1.237" ry="1.237" style="fill:#ccc;fill-rule:evenodd;stroke:none;stroke-width:1.20301"/>
    <rect width="37.028" height="2.475" x="33.659" y="44.225" rx="1.237" ry="1.237" style="fill:#ccc;fill-rule:evenodd;stroke:none;stroke-width:1.41566"/>
    <rect width="26.74" height="2.475" x="67.6" y="66.499" rx="1.237" ry="1.237" style="fill:#ccc;fill-rule:evenodd;stroke:none;stroke-width:1.20303"/>
    <g transform="matrix(1.04369 0 0 1.22462 -1.47 -23.831)">
        <rect width="27.716" height="32.173" x="33.659" y="73.924" rx="2.298" ry="2.298" style="fill:url(#e);fill-opacity:1;fill-rule:evenodd;stroke-width:.2;stroke-dasharray:8.1695"/>
        <rect width="27.716" height="32.173" x="-61.375" y="-106.097" rx="2.298" ry="2.45" style="fill:url(#f);fill-opacity:1;fill-rule:evenodd;stroke-width:.2;stroke-dasharray:8.1695" transform="scale(-1)"/>
    </g>
</svg>
